M48
; DRILL file {KiCad (5.1.10)-1} date 05/28/22 19:00:04
; FORMAT={-:-/ absolute / metric / decimal}
; #@! TF.CreationDate,2022-05-28T19:00:04-05:00
; #@! TF.GenerationSoftware,Kicad,Pcbnew,(5.1.10)-1
; #@! TF.FileFunction,Plated,1,2,PTH
FMAT,2
METRIC
T1C0.400
T2C0.800
T3C0.900
T4C0.920
T5C1.000
T6C1.100
T7C2.330
%
G90
G05
T1
X39.25Y-35.25
X46.111Y-107.0
X56.25Y-108.5
X57.27Y-42.27
X61.54Y-38.46
X66.617Y-39.383
X67.0Y-41.5
X67.0Y-45.75
X67.555Y-82.0
X69.596Y-85.7
X70.714Y-83.515
X70.734Y-101.394
X71.068Y-96.115
X71.565Y-36.565
X73.5Y-42.5
X74.934Y-77.716
X75.065Y-101.937
X75.997Y-100.716
X76.352Y-72.492
X76.75Y-40.5
X77.165Y-88.951
X77.453Y-118.5
X77.799Y-87.4
X77.853Y-93.8
X78.181Y-59.588
X78.181Y-124.612
X78.362Y-97.0
X78.384Y-107.696
X79.57Y-105.005
X79.892Y-109.399
X80.01Y-80.62
X80.4Y-98.201
X80.423Y-61.901
X81.636Y-121.615
X82.238Y-92.727
X82.448Y-58.064
X82.55Y-85.395
X83.007Y-120.091
X83.352Y-77.445
X83.47Y-51.119
X83.744Y-63.354
X84.153Y-74.218
X84.163Y-65.493
X84.328Y-85.903
X84.38Y-48.14
X84.938Y-55.016
X85.141Y-88.9
X85.885Y-123.629
X86.335Y-86.129
X87.093Y-67.63
X87.224Y-91.592
X88.006Y-63.512
X88.087Y-52.166
X88.25Y-50.75
X88.251Y-59.563
X88.839Y-64.664
X88.902Y-101.659
X89.085Y-61.533
X90.6Y-96.899
X90.662Y-63.486
X90.858Y-90.6
X90.911Y-51.786
X90.983Y-84.684
X91.075Y-78.085
X91.457Y-66.319
X92.074Y-88.691
X92.276Y-102.306
X92.393Y-53.981
X92.681Y-66.225
X92.8Y-69.608
X92.8Y-74.512
X93.25Y-85.0
X93.25Y-107.0
X94.004Y-66.209
X94.206Y-90.6
X94.22Y-51.948
X95.0Y-85.0
X95.0Y-104.5
X95.774Y-54.472
X95.84Y-57.72
X95.933Y-97.127
X96.001Y-100.922
X96.087Y-78.021
X96.237Y-59.326
X96.463Y-88.589
X96.888Y-56.581
X96.888Y-67.431
X97.444Y-95.47
X98.095Y-86.462
X98.5Y-46.0
X98.537Y-96.584
X99.5Y-40.5
X99.735Y-92.279
X100.695Y-94.67
X100.838Y-46.482
X101.244Y-67.615
X101.988Y-98.7
X102.089Y-100.795
X102.21Y-83.82
X103.988Y-92.047
X104.406Y-87.018
X104.445Y-78.842
X105.051Y-92.623
X105.052Y-104.759
X105.227Y-106.315
X105.235Y-103.194
X105.75Y-40.5
X105.75Y-43.5
X106.02Y-80.975
X106.68Y-111.201
X107.251Y-92.062
X107.308Y-84.859
X109.881Y-116.734
X110.5Y-39.25
X111.351Y-65.077
X111.351Y-74.475
X111.5Y-48.0
X111.5Y-50.75
X111.506Y-92.253
X111.506Y-100.482
X112.0Y-40.25
X112.624Y-75.743
X112.672Y-90.985
X112.827Y-97.993
X113.03Y-67.615
X113.843Y-89.713
X113.894Y-78.638
X113.944Y-95.453
X115.011Y-88.443
X115.011Y-93.878
X115.164Y-72.644
X115.736Y-117.565
X116.078Y-79.248
X116.622Y-102.004
X116.942Y-75.235
X118.364Y-86.411
X118.364Y-93.32
X118.364Y-104.496
X118.415Y-79.146
X118.594Y-63.575
X118.75Y-44.0
X119.424Y-101.379
X119.5Y-49.25
X120.414Y-64.087
X120.504Y-102.363
X122.58Y-91.592
X123.19Y-90.221
X123.19Y-93.421
X124.048Y-96.492
X126.75Y-40.25
X126.949Y-115.164
X130.332Y-92.989
X130.658Y-95.352
X130.658Y-97.942
X130.81Y-100.482
X131.166Y-63.144
X132.475Y-75.153
X133.096Y-102.616
X134.264Y-85.293
X137.211Y-107.442
X138.887Y-109.372
X146.152Y-119.939
X148.082Y-83.261
X151.689Y-93.523
X154.33Y-90.475
T2
X50.0Y-98.0
X50.5Y-116.0
X52.5Y-98.0
X53.0Y-116.0
X54.61Y-89.28
X54.61Y-91.28
X59.0Y-33.3
X59.0Y-35.84
X59.0Y-38.38
X59.0Y-40.92
X59.0Y-43.46
X59.0Y-46.0
X59.0Y-112.0
X59.0Y-114.54
X62.23Y-89.28
X62.23Y-91.28
X66.0Y-54.0
X66.0Y-62.0
X66.5Y-33.0
X68.0Y-54.0
X68.0Y-62.0
X69.0Y-33.0
X73.0Y-82.0
X73.0Y-84.54
X73.0Y-87.08
X73.0Y-89.62
X73.0Y-92.16
X73.0Y-94.7
X73.0Y-97.24
X73.0Y-99.78
X73.0Y-102.32
X73.0Y-104.86
X73.0Y-107.4
X73.0Y-109.94
X73.0Y-112.48
X73.0Y-115.02
X75.49Y-38.182
X75.49Y-46.546
X78.03Y-38.182
X78.03Y-46.546
X80.57Y-38.182
X80.57Y-46.546
X83.11Y-38.182
X83.11Y-46.546
X84.76Y-111.0
X84.76Y-118.62
X85.65Y-38.182
X85.65Y-46.546
X87.0Y-74.5
X87.0Y-77.0
X88.19Y-38.182
X88.19Y-46.546
X90.73Y-38.182
X90.73Y-46.546
X93.27Y-38.182
X93.27Y-46.546
X95.81Y-38.182
X95.81Y-46.546
X100.0Y-111.0
X100.0Y-118.62
X103.0Y-59.0
X103.0Y-61.5
X105.5Y-34.0
X108.0Y-34.0
X110.0Y-112.0
X110.0Y-114.5
X114.0Y-34.0
X114.0Y-36.54
X114.0Y-39.08
X114.0Y-41.62
X114.0Y-44.16
X114.0Y-46.7
X117.0Y-112.38
X117.0Y-120.0
X117.5Y-70.0
X119.54Y-112.38
X119.54Y-120.0
X120.0Y-70.0
X121.46Y-34.0
X122.0Y-39.0
X122.0Y-41.54
X122.0Y-44.08
X122.0Y-46.62
X122.08Y-112.38
X122.08Y-120.0
X124.0Y-34.0
X124.62Y-112.38
X124.62Y-120.0
X127.0Y-65.0
X127.0Y-67.54
X127.0Y-70.08
X127.0Y-72.62
X127.0Y-75.16
X127.0Y-77.7
X127.0Y-80.24
X127.0Y-82.78
X127.0Y-85.32
X127.0Y-87.86
X127.0Y-90.4
X127.0Y-92.94
X127.0Y-95.48
X127.0Y-98.02
X127.0Y-100.56
X127.0Y-103.1
X127.16Y-112.38
X127.16Y-120.0
X127.5Y-34.0
X129.62Y-39.0
X129.62Y-41.54
X129.62Y-44.08
X129.62Y-46.62
X129.7Y-112.38
X129.7Y-120.0
X130.0Y-34.0
X132.24Y-112.38
X132.24Y-120.0
X134.78Y-112.38
X134.78Y-120.0
X137.32Y-112.38
X137.32Y-120.0
X139.5Y-59.0
X139.86Y-112.38
X139.86Y-120.0
X142.0Y-59.0
X142.24Y-65.0
X142.24Y-67.54
X142.24Y-70.08
X142.24Y-72.62
X142.24Y-75.16
X142.24Y-77.7
X142.24Y-80.24
X142.24Y-82.78
X142.24Y-85.32
X142.24Y-87.86
X142.24Y-90.4
X142.24Y-92.94
X142.24Y-95.48
X142.24Y-98.02
X142.24Y-100.56
X142.24Y-103.1
X149.83Y-116.0
X150.0Y-65.0
X150.0Y-70.0
X150.0Y-75.28
X152.37Y-116.0
X152.5Y-65.0
X152.5Y-70.0
X152.5Y-75.28
X158.0Y-69.38
X158.0Y-71.92
X158.0Y-74.46
X158.0Y-77.0
X158.0Y-82.5
X158.0Y-85.0
T3
X74.0Y-72.46
X74.0Y-75.0
X80.0Y-72.46
X80.0Y-75.0
X156.46Y-116.0
X159.0Y-116.0
T4
X40.0Y-105.5
X40.0Y-108.0
X42.0Y-105.5
X42.0Y-108.0
T5
X36.0Y-94.0
X38.54Y-94.0
X41.08Y-94.0
X59.0Y-104.46
X59.0Y-107.0
X78.03Y-33.864
X78.03Y-42.482
X80.57Y-33.864
X80.57Y-42.482
X83.11Y-33.864
X83.11Y-42.482
X85.65Y-33.864
X85.65Y-42.482
X88.19Y-33.864
X88.19Y-42.482
X90.73Y-33.864
X90.73Y-42.482
X93.27Y-33.864
X93.27Y-42.482
X95.81Y-33.864
X95.81Y-42.482
X136.37Y-37.0
X136.37Y-39.54
X136.37Y-42.08
X136.37Y-46.88
X138.91Y-37.0
X138.91Y-39.54
X138.91Y-42.08
X138.91Y-46.88
T6
X33.84Y-71.0
X44.0Y-71.0
X150.5Y-97.5
X150.5Y-102.0
X157.0Y-97.5
X157.0Y-102.0
T7
X37.29Y-100.73
X37.29Y-112.77
T5
X34.0Y-80.0G85X34.0Y-82.0
G05
X36.0Y-85.7G85X38.0Y-85.7
G05
X40.0Y-80.0G85X40.0Y-82.0
G05
T0
M30
