G04 #@! TF.GenerationSoftware,KiCad,Pcbnew,(5.1.10)-1*
G04 #@! TF.CreationDate,2023-11-24T10:19:20-06:00*
G04 #@! TF.ProjectId,z80vga,7a383076-6761-42e6-9b69-6361645f7063,rev?*
G04 #@! TF.SameCoordinates,Original*
G04 #@! TF.FileFunction,Paste,Top*
G04 #@! TF.FilePolarity,Positive*
%FSLAX46Y46*%
G04 Gerber Fmt 4.6, Leading zero omitted, Abs format (unit mm)*
G04 Created by KiCad (PCBNEW (5.1.10)-1) date 2023-11-24 10:19:20*
%MOMM*%
%LPD*%
G01*
G04 APERTURE LIST*
%ADD10R,0.900000X0.900000*%
G04 APERTURE END LIST*
G36*
G01*
X161426999Y-63130000D02*
X162677001Y-63130000D01*
G75*
G02*
X162927000Y-63379999I0J-249999D01*
G01*
X162927000Y-64005001D01*
G75*
G02*
X162677001Y-64255000I-249999J0D01*
G01*
X161426999Y-64255000D01*
G75*
G02*
X161177000Y-64005001I0J249999D01*
G01*
X161177000Y-63379999D01*
G75*
G02*
X161426999Y-63130000I249999J0D01*
G01*
G37*
G36*
G01*
X161426999Y-60205000D02*
X162677001Y-60205000D01*
G75*
G02*
X162927000Y-60454999I0J-249999D01*
G01*
X162927000Y-61080001D01*
G75*
G02*
X162677001Y-61330000I-249999J0D01*
G01*
X161426999Y-61330000D01*
G75*
G02*
X161177000Y-61080001I0J249999D01*
G01*
X161177000Y-60454999D01*
G75*
G02*
X161426999Y-60205000I249999J0D01*
G01*
G37*
G36*
G01*
X146415999Y-63130000D02*
X147716001Y-63130000D01*
G75*
G02*
X147966000Y-63379999I0J-249999D01*
G01*
X147966000Y-64030001D01*
G75*
G02*
X147716001Y-64280000I-249999J0D01*
G01*
X146415999Y-64280000D01*
G75*
G02*
X146166000Y-64030001I0J249999D01*
G01*
X146166000Y-63379999D01*
G75*
G02*
X146415999Y-63130000I249999J0D01*
G01*
G37*
G36*
G01*
X146415999Y-60180000D02*
X147716001Y-60180000D01*
G75*
G02*
X147966000Y-60429999I0J-249999D01*
G01*
X147966000Y-61080001D01*
G75*
G02*
X147716001Y-61330000I-249999J0D01*
G01*
X146415999Y-61330000D01*
G75*
G02*
X146166000Y-61080001I0J249999D01*
G01*
X146166000Y-60429999D01*
G75*
G02*
X146415999Y-60180000I249999J0D01*
G01*
G37*
D10*
X170942000Y-107308000D03*
X170942000Y-108648000D03*
X170942000Y-104648000D03*
X170942000Y-105988000D03*
X167942000Y-107308000D03*
X167942000Y-105988000D03*
X167942000Y-108648000D03*
X167942000Y-104648000D03*
X165886000Y-70968000D03*
X165886000Y-69628000D03*
X165886000Y-73628000D03*
X165886000Y-72288000D03*
X168886000Y-70968000D03*
X168886000Y-72288000D03*
X168886000Y-69628000D03*
X168886000Y-73628000D03*
G36*
G01*
X169808999Y-86752000D02*
X171059001Y-86752000D01*
G75*
G02*
X171309000Y-87001999I0J-249999D01*
G01*
X171309000Y-87627001D01*
G75*
G02*
X171059001Y-87877000I-249999J0D01*
G01*
X169808999Y-87877000D01*
G75*
G02*
X169559000Y-87627001I0J249999D01*
G01*
X169559000Y-87001999D01*
G75*
G02*
X169808999Y-86752000I249999J0D01*
G01*
G37*
G36*
G01*
X169808999Y-83827000D02*
X171059001Y-83827000D01*
G75*
G02*
X171309000Y-84076999I0J-249999D01*
G01*
X171309000Y-84702001D01*
G75*
G02*
X171059001Y-84952000I-249999J0D01*
G01*
X169808999Y-84952000D01*
G75*
G02*
X169559000Y-84702001I0J249999D01*
G01*
X169559000Y-84076999D01*
G75*
G02*
X169808999Y-83827000I249999J0D01*
G01*
G37*
G36*
G01*
X138822000Y-104511001D02*
X138822000Y-103260999D01*
G75*
G02*
X139071999Y-103011000I249999J0D01*
G01*
X139697001Y-103011000D01*
G75*
G02*
X139947000Y-103260999I0J-249999D01*
G01*
X139947000Y-104511001D01*
G75*
G02*
X139697001Y-104761000I-249999J0D01*
G01*
X139071999Y-104761000D01*
G75*
G02*
X138822000Y-104511001I0J249999D01*
G01*
G37*
G36*
G01*
X135897000Y-104511001D02*
X135897000Y-103260999D01*
G75*
G02*
X136146999Y-103011000I249999J0D01*
G01*
X136772001Y-103011000D01*
G75*
G02*
X137022000Y-103260999I0J-249999D01*
G01*
X137022000Y-104511001D01*
G75*
G02*
X136772001Y-104761000I-249999J0D01*
G01*
X136146999Y-104761000D01*
G75*
G02*
X135897000Y-104511001I0J249999D01*
G01*
G37*
G36*
G01*
X161660000Y-105546999D02*
X161660000Y-106797001D01*
G75*
G02*
X161410001Y-107047000I-249999J0D01*
G01*
X160784999Y-107047000D01*
G75*
G02*
X160535000Y-106797001I0J249999D01*
G01*
X160535000Y-105546999D01*
G75*
G02*
X160784999Y-105297000I249999J0D01*
G01*
X161410001Y-105297000D01*
G75*
G02*
X161660000Y-105546999I0J-249999D01*
G01*
G37*
G36*
G01*
X164585000Y-105546999D02*
X164585000Y-106797001D01*
G75*
G02*
X164335001Y-107047000I-249999J0D01*
G01*
X163709999Y-107047000D01*
G75*
G02*
X163460000Y-106797001I0J249999D01*
G01*
X163460000Y-105546999D01*
G75*
G02*
X163709999Y-105297000I249999J0D01*
G01*
X164335001Y-105297000D01*
G75*
G02*
X164585000Y-105546999I0J-249999D01*
G01*
G37*
G36*
G01*
X155310000Y-105546999D02*
X155310000Y-106797001D01*
G75*
G02*
X155060001Y-107047000I-249999J0D01*
G01*
X154434999Y-107047000D01*
G75*
G02*
X154185000Y-106797001I0J249999D01*
G01*
X154185000Y-105546999D01*
G75*
G02*
X154434999Y-105297000I249999J0D01*
G01*
X155060001Y-105297000D01*
G75*
G02*
X155310000Y-105546999I0J-249999D01*
G01*
G37*
G36*
G01*
X158235000Y-105546999D02*
X158235000Y-106797001D01*
G75*
G02*
X157985001Y-107047000I-249999J0D01*
G01*
X157359999Y-107047000D01*
G75*
G02*
X157110000Y-106797001I0J249999D01*
G01*
X157110000Y-105546999D01*
G75*
G02*
X157359999Y-105297000I249999J0D01*
G01*
X157985001Y-105297000D01*
G75*
G02*
X158235000Y-105546999I0J-249999D01*
G01*
G37*
G36*
G01*
X155818000Y-112150999D02*
X155818000Y-113401001D01*
G75*
G02*
X155568001Y-113651000I-249999J0D01*
G01*
X154942999Y-113651000D01*
G75*
G02*
X154693000Y-113401001I0J249999D01*
G01*
X154693000Y-112150999D01*
G75*
G02*
X154942999Y-111901000I249999J0D01*
G01*
X155568001Y-111901000D01*
G75*
G02*
X155818000Y-112150999I0J-249999D01*
G01*
G37*
G36*
G01*
X158743000Y-112150999D02*
X158743000Y-113401001D01*
G75*
G02*
X158493001Y-113651000I-249999J0D01*
G01*
X157867999Y-113651000D01*
G75*
G02*
X157618000Y-113401001I0J249999D01*
G01*
X157618000Y-112150999D01*
G75*
G02*
X157867999Y-111901000I249999J0D01*
G01*
X158493001Y-111901000D01*
G75*
G02*
X158743000Y-112150999I0J-249999D01*
G01*
G37*
G36*
G01*
X196986999Y-68464000D02*
X198237001Y-68464000D01*
G75*
G02*
X198487000Y-68713999I0J-249999D01*
G01*
X198487000Y-69339001D01*
G75*
G02*
X198237001Y-69589000I-249999J0D01*
G01*
X196986999Y-69589000D01*
G75*
G02*
X196737000Y-69339001I0J249999D01*
G01*
X196737000Y-68713999D01*
G75*
G02*
X196986999Y-68464000I249999J0D01*
G01*
G37*
G36*
G01*
X196986999Y-65539000D02*
X198237001Y-65539000D01*
G75*
G02*
X198487000Y-65788999I0J-249999D01*
G01*
X198487000Y-66414001D01*
G75*
G02*
X198237001Y-66664000I-249999J0D01*
G01*
X196986999Y-66664000D01*
G75*
G02*
X196737000Y-66414001I0J249999D01*
G01*
X196737000Y-65788999D01*
G75*
G02*
X196986999Y-65539000I249999J0D01*
G01*
G37*
G36*
G01*
X161852000Y-112150999D02*
X161852000Y-113401001D01*
G75*
G02*
X161602001Y-113651000I-249999J0D01*
G01*
X160976999Y-113651000D01*
G75*
G02*
X160727000Y-113401001I0J249999D01*
G01*
X160727000Y-112150999D01*
G75*
G02*
X160976999Y-111901000I249999J0D01*
G01*
X161602001Y-111901000D01*
G75*
G02*
X161852000Y-112150999I0J-249999D01*
G01*
G37*
G36*
G01*
X164777000Y-112150999D02*
X164777000Y-113401001D01*
G75*
G02*
X164527001Y-113651000I-249999J0D01*
G01*
X163901999Y-113651000D01*
G75*
G02*
X163652000Y-113401001I0J249999D01*
G01*
X163652000Y-112150999D01*
G75*
G02*
X163901999Y-111901000I249999J0D01*
G01*
X164527001Y-111901000D01*
G75*
G02*
X164777000Y-112150999I0J-249999D01*
G01*
G37*
G36*
G01*
X169556000Y-113401001D02*
X169556000Y-112150999D01*
G75*
G02*
X169805999Y-111901000I249999J0D01*
G01*
X170431001Y-111901000D01*
G75*
G02*
X170681000Y-112150999I0J-249999D01*
G01*
X170681000Y-113401001D01*
G75*
G02*
X170431001Y-113651000I-249999J0D01*
G01*
X169805999Y-113651000D01*
G75*
G02*
X169556000Y-113401001I0J249999D01*
G01*
G37*
G36*
G01*
X166631000Y-113401001D02*
X166631000Y-112150999D01*
G75*
G02*
X166880999Y-111901000I249999J0D01*
G01*
X167506001Y-111901000D01*
G75*
G02*
X167756000Y-112150999I0J-249999D01*
G01*
X167756000Y-113401001D01*
G75*
G02*
X167506001Y-113651000I-249999J0D01*
G01*
X166880999Y-113651000D01*
G75*
G02*
X166631000Y-113401001I0J249999D01*
G01*
G37*
G36*
G01*
X75295999Y-65416000D02*
X76596001Y-65416000D01*
G75*
G02*
X76846000Y-65665999I0J-249999D01*
G01*
X76846000Y-66316001D01*
G75*
G02*
X76596001Y-66566000I-249999J0D01*
G01*
X75295999Y-66566000D01*
G75*
G02*
X75046000Y-66316001I0J249999D01*
G01*
X75046000Y-65665999D01*
G75*
G02*
X75295999Y-65416000I249999J0D01*
G01*
G37*
G36*
G01*
X75295999Y-62466000D02*
X76596001Y-62466000D01*
G75*
G02*
X76846000Y-62715999I0J-249999D01*
G01*
X76846000Y-63366001D01*
G75*
G02*
X76596001Y-63616000I-249999J0D01*
G01*
X75295999Y-63616000D01*
G75*
G02*
X75046000Y-63366001I0J249999D01*
G01*
X75046000Y-62715999D01*
G75*
G02*
X75295999Y-62466000I249999J0D01*
G01*
G37*
G36*
G01*
X75295999Y-91070000D02*
X76596001Y-91070000D01*
G75*
G02*
X76846000Y-91319999I0J-249999D01*
G01*
X76846000Y-91970001D01*
G75*
G02*
X76596001Y-92220000I-249999J0D01*
G01*
X75295999Y-92220000D01*
G75*
G02*
X75046000Y-91970001I0J249999D01*
G01*
X75046000Y-91319999D01*
G75*
G02*
X75295999Y-91070000I249999J0D01*
G01*
G37*
G36*
G01*
X75295999Y-88120000D02*
X76596001Y-88120000D01*
G75*
G02*
X76846000Y-88369999I0J-249999D01*
G01*
X76846000Y-89020001D01*
G75*
G02*
X76596001Y-89270000I-249999J0D01*
G01*
X75295999Y-89270000D01*
G75*
G02*
X75046000Y-89020001I0J249999D01*
G01*
X75046000Y-88369999D01*
G75*
G02*
X75295999Y-88120000I249999J0D01*
G01*
G37*
G36*
G01*
X179948000Y-87995999D02*
X179948000Y-89296001D01*
G75*
G02*
X179698001Y-89546000I-249999J0D01*
G01*
X179047999Y-89546000D01*
G75*
G02*
X178798000Y-89296001I0J249999D01*
G01*
X178798000Y-87995999D01*
G75*
G02*
X179047999Y-87746000I249999J0D01*
G01*
X179698001Y-87746000D01*
G75*
G02*
X179948000Y-87995999I0J-249999D01*
G01*
G37*
G36*
G01*
X182898000Y-87995999D02*
X182898000Y-89296001D01*
G75*
G02*
X182648001Y-89546000I-249999J0D01*
G01*
X181997999Y-89546000D01*
G75*
G02*
X181748000Y-89296001I0J249999D01*
G01*
X181748000Y-87995999D01*
G75*
G02*
X181997999Y-87746000I249999J0D01*
G01*
X182648001Y-87746000D01*
G75*
G02*
X182898000Y-87995999I0J-249999D01*
G01*
G37*
G36*
G01*
X181748000Y-64912001D02*
X181748000Y-63611999D01*
G75*
G02*
X181997999Y-63362000I249999J0D01*
G01*
X182648001Y-63362000D01*
G75*
G02*
X182898000Y-63611999I0J-249999D01*
G01*
X182898000Y-64912001D01*
G75*
G02*
X182648001Y-65162000I-249999J0D01*
G01*
X181997999Y-65162000D01*
G75*
G02*
X181748000Y-64912001I0J249999D01*
G01*
G37*
G36*
G01*
X178798000Y-64912001D02*
X178798000Y-63611999D01*
G75*
G02*
X179047999Y-63362000I249999J0D01*
G01*
X179698001Y-63362000D01*
G75*
G02*
X179948000Y-63611999I0J-249999D01*
G01*
X179948000Y-64912001D01*
G75*
G02*
X179698001Y-65162000I-249999J0D01*
G01*
X179047999Y-65162000D01*
G75*
G02*
X178798000Y-64912001I0J249999D01*
G01*
G37*
G36*
G01*
X125841999Y-111390000D02*
X127142001Y-111390000D01*
G75*
G02*
X127392000Y-111639999I0J-249999D01*
G01*
X127392000Y-112290001D01*
G75*
G02*
X127142001Y-112540000I-249999J0D01*
G01*
X125841999Y-112540000D01*
G75*
G02*
X125592000Y-112290001I0J249999D01*
G01*
X125592000Y-111639999D01*
G75*
G02*
X125841999Y-111390000I249999J0D01*
G01*
G37*
G36*
G01*
X125841999Y-108440000D02*
X127142001Y-108440000D01*
G75*
G02*
X127392000Y-108689999I0J-249999D01*
G01*
X127392000Y-109340001D01*
G75*
G02*
X127142001Y-109590000I-249999J0D01*
G01*
X125841999Y-109590000D01*
G75*
G02*
X125592000Y-109340001I0J249999D01*
G01*
X125592000Y-108689999D01*
G75*
G02*
X125841999Y-108440000I249999J0D01*
G01*
G37*
G36*
G01*
X97647999Y-116724000D02*
X98948001Y-116724000D01*
G75*
G02*
X99198000Y-116973999I0J-249999D01*
G01*
X99198000Y-117624001D01*
G75*
G02*
X98948001Y-117874000I-249999J0D01*
G01*
X97647999Y-117874000D01*
G75*
G02*
X97398000Y-117624001I0J249999D01*
G01*
X97398000Y-116973999D01*
G75*
G02*
X97647999Y-116724000I249999J0D01*
G01*
G37*
G36*
G01*
X97647999Y-113774000D02*
X98948001Y-113774000D01*
G75*
G02*
X99198000Y-114023999I0J-249999D01*
G01*
X99198000Y-114674001D01*
G75*
G02*
X98948001Y-114924000I-249999J0D01*
G01*
X97647999Y-114924000D01*
G75*
G02*
X97398000Y-114674001I0J249999D01*
G01*
X97398000Y-114023999D01*
G75*
G02*
X97647999Y-113774000I249999J0D01*
G01*
G37*
G36*
G01*
X137044000Y-67198001D02*
X137044000Y-65897999D01*
G75*
G02*
X137293999Y-65648000I249999J0D01*
G01*
X137944001Y-65648000D01*
G75*
G02*
X138194000Y-65897999I0J-249999D01*
G01*
X138194000Y-67198001D01*
G75*
G02*
X137944001Y-67448000I-249999J0D01*
G01*
X137293999Y-67448000D01*
G75*
G02*
X137044000Y-67198001I0J249999D01*
G01*
G37*
G36*
G01*
X134094000Y-67198001D02*
X134094000Y-65897999D01*
G75*
G02*
X134343999Y-65648000I249999J0D01*
G01*
X134994001Y-65648000D01*
G75*
G02*
X135244000Y-65897999I0J-249999D01*
G01*
X135244000Y-67198001D01*
G75*
G02*
X134994001Y-67448000I-249999J0D01*
G01*
X134343999Y-67448000D01*
G75*
G02*
X134094000Y-67198001I0J249999D01*
G01*
G37*
M02*
