G04 #@! TF.GenerationSoftware,KiCad,Pcbnew,(5.1.10)-1*
G04 #@! TF.CreationDate,2023-11-24T10:19:20-06:00*
G04 #@! TF.ProjectId,z80vga,7a383076-6761-42e6-9b69-6361645f7063,rev?*
G04 #@! TF.SameCoordinates,Original*
G04 #@! TF.FileFunction,Copper,L2,Bot*
G04 #@! TF.FilePolarity,Positive*
%FSLAX46Y46*%
G04 Gerber Fmt 4.6, Leading zero omitted, Abs format (unit mm)*
G04 Created by KiCad (PCBNEW (5.1.10)-1) date 2023-11-24 10:19:20*
%MOMM*%
%LPD*%
G01*
G04 APERTURE LIST*
G04 #@! TA.AperFunction,ComponentPad*
%ADD10C,1.600000*%
G04 #@! TD*
G04 #@! TA.AperFunction,ComponentPad*
%ADD11R,1.600000X1.600000*%
G04 #@! TD*
G04 #@! TA.AperFunction,ComponentPad*
%ADD12O,1.600000X2.400000*%
G04 #@! TD*
G04 #@! TA.AperFunction,ComponentPad*
%ADD13R,1.600000X2.400000*%
G04 #@! TD*
G04 #@! TA.AperFunction,ComponentPad*
%ADD14C,2.000000*%
G04 #@! TD*
G04 #@! TA.AperFunction,ComponentPad*
%ADD15O,2.400000X1.600000*%
G04 #@! TD*
G04 #@! TA.AperFunction,ComponentPad*
%ADD16R,2.400000X1.600000*%
G04 #@! TD*
G04 #@! TA.AperFunction,ComponentPad*
%ADD17O,1.700000X1.700000*%
G04 #@! TD*
G04 #@! TA.AperFunction,ComponentPad*
%ADD18R,1.700000X1.700000*%
G04 #@! TD*
G04 #@! TA.AperFunction,ComponentPad*
%ADD19C,3.500000*%
G04 #@! TD*
G04 #@! TA.AperFunction,ComponentPad*
%ADD20C,1.700000*%
G04 #@! TD*
G04 #@! TA.AperFunction,ComponentPad*
%ADD21C,1.422400*%
G04 #@! TD*
G04 #@! TA.AperFunction,ComponentPad*
%ADD22R,1.422400X1.422400*%
G04 #@! TD*
G04 #@! TA.AperFunction,ComponentPad*
%ADD23C,1.800000*%
G04 #@! TD*
G04 #@! TA.AperFunction,ComponentPad*
%ADD24R,1.800000X1.800000*%
G04 #@! TD*
G04 #@! TA.AperFunction,ViaPad*
%ADD25C,0.800000*%
G04 #@! TD*
G04 #@! TA.AperFunction,Conductor*
%ADD26C,0.250000*%
G04 #@! TD*
G04 #@! TA.AperFunction,Conductor*
%ADD27C,0.254000*%
G04 #@! TD*
G04 #@! TA.AperFunction,Conductor*
%ADD28C,0.100000*%
G04 #@! TD*
G04 APERTURE END LIST*
D10*
X78446000Y-119380000D03*
D11*
X75946000Y-119380000D03*
D12*
X103378000Y-114300000D03*
X118618000Y-121920000D03*
X105918000Y-114300000D03*
X116078000Y-121920000D03*
X108458000Y-114300000D03*
X113538000Y-121920000D03*
X110998000Y-114300000D03*
X110998000Y-121920000D03*
X113538000Y-114300000D03*
X108458000Y-121920000D03*
X116078000Y-114300000D03*
X105918000Y-121920000D03*
X118618000Y-114300000D03*
D13*
X103378000Y-121920000D03*
D14*
X157710000Y-60040000D03*
X157710000Y-64540000D03*
X151210000Y-60040000D03*
X151210000Y-64540000D03*
D15*
X184658000Y-69088000D03*
X177038000Y-84328000D03*
X184658000Y-71628000D03*
X177038000Y-81788000D03*
X184658000Y-74168000D03*
X177038000Y-79248000D03*
X184658000Y-76708000D03*
X177038000Y-76708000D03*
X184658000Y-79248000D03*
X177038000Y-74168000D03*
X184658000Y-81788000D03*
X177038000Y-71628000D03*
X184658000Y-84328000D03*
D16*
X177038000Y-69088000D03*
D17*
X181356000Y-117856000D03*
X181356000Y-115316000D03*
X181356000Y-112776000D03*
X181356000Y-110236000D03*
X181356000Y-107696000D03*
X181356000Y-105156000D03*
X181356000Y-102616000D03*
D18*
X181356000Y-100076000D03*
D12*
X80586000Y-88728000D03*
X118686000Y-103968000D03*
X83126000Y-88728000D03*
X116146000Y-103968000D03*
X85666000Y-88728000D03*
X113606000Y-103968000D03*
X88206000Y-88728000D03*
X111066000Y-103968000D03*
X90746000Y-88728000D03*
X108526000Y-103968000D03*
X93286000Y-88728000D03*
X105986000Y-103968000D03*
X95826000Y-88728000D03*
X103446000Y-103968000D03*
X98366000Y-88728000D03*
X100906000Y-103968000D03*
X100906000Y-88728000D03*
X98366000Y-103968000D03*
X103446000Y-88728000D03*
X95826000Y-103968000D03*
X105986000Y-88728000D03*
X93286000Y-103968000D03*
X108526000Y-88728000D03*
X90746000Y-103968000D03*
X111066000Y-88728000D03*
X88206000Y-103968000D03*
X113606000Y-88728000D03*
X85666000Y-103968000D03*
X116146000Y-88728000D03*
X83126000Y-103968000D03*
X118686000Y-88728000D03*
D13*
X80586000Y-103968000D03*
D10*
X148336000Y-116840000D03*
X148336000Y-109220000D03*
X133096000Y-109220000D03*
D11*
X133096000Y-116840000D03*
D12*
X80586000Y-62992000D03*
X118686000Y-78232000D03*
X83126000Y-62992000D03*
X116146000Y-78232000D03*
X85666000Y-62992000D03*
X113606000Y-78232000D03*
X88206000Y-62992000D03*
X111066000Y-78232000D03*
X90746000Y-62992000D03*
X108526000Y-78232000D03*
X93286000Y-62992000D03*
X105986000Y-78232000D03*
X95826000Y-62992000D03*
X103446000Y-78232000D03*
X98366000Y-62992000D03*
X100906000Y-78232000D03*
X100906000Y-62992000D03*
X98366000Y-78232000D03*
X103446000Y-62992000D03*
X95826000Y-78232000D03*
X105986000Y-62992000D03*
X93286000Y-78232000D03*
X108526000Y-62992000D03*
X90746000Y-78232000D03*
X111066000Y-62992000D03*
X88206000Y-78232000D03*
X113606000Y-62992000D03*
X85666000Y-78232000D03*
X116146000Y-62992000D03*
X83126000Y-78232000D03*
X118686000Y-62992000D03*
D13*
X80586000Y-78232000D03*
D19*
X200798000Y-88550000D03*
X200798000Y-76510000D03*
D20*
X198088000Y-81280000D03*
X198088000Y-83780000D03*
X196088000Y-83780000D03*
D18*
X196088000Y-81280000D03*
D21*
X157226000Y-98552000D03*
X154686000Y-98552000D03*
X152146000Y-98552000D03*
X149606000Y-98552000D03*
X147066000Y-98552000D03*
X144526000Y-98552000D03*
X141986000Y-98552000D03*
X139446000Y-98552000D03*
X159766000Y-96012000D03*
X154686000Y-96012000D03*
X152146000Y-96012000D03*
X149606000Y-96012000D03*
X147066000Y-96012000D03*
X144526000Y-96012000D03*
X141986000Y-96012000D03*
X139446000Y-96012000D03*
X136906000Y-96012000D03*
X134366000Y-96012000D03*
X134366000Y-93472000D03*
X134366000Y-90932000D03*
X134366000Y-88392000D03*
X134366000Y-85852000D03*
X134366000Y-83312000D03*
X134366000Y-80772000D03*
X134366000Y-78232000D03*
X134366000Y-75692000D03*
X136906000Y-98552000D03*
X136906000Y-93472000D03*
X136906000Y-90932000D03*
X136906000Y-88392000D03*
X136906000Y-85852000D03*
X136906000Y-83312000D03*
X136906000Y-80772000D03*
X136906000Y-78232000D03*
X136906000Y-75692000D03*
X136906000Y-73152000D03*
X139446000Y-73152000D03*
X141986000Y-73152000D03*
X144526000Y-73152000D03*
X147066000Y-73152000D03*
X149606000Y-73152000D03*
X152146000Y-73152000D03*
X154686000Y-73152000D03*
X157226000Y-73152000D03*
X139446000Y-75692000D03*
X141986000Y-75692000D03*
X144526000Y-75692000D03*
X147066000Y-75692000D03*
X149606000Y-75692000D03*
X152146000Y-75692000D03*
X154686000Y-75692000D03*
X157226000Y-75692000D03*
X159766000Y-93472000D03*
X159766000Y-90932000D03*
X159766000Y-88392000D03*
X159766000Y-75692000D03*
X159766000Y-78232000D03*
X159766000Y-80772000D03*
X159766000Y-83312000D03*
D22*
X159766000Y-85852000D03*
D21*
X157226000Y-96012000D03*
X157226000Y-93472000D03*
X157226000Y-90932000D03*
X157226000Y-88392000D03*
X157226000Y-78232000D03*
X157226000Y-80772000D03*
X157226000Y-83312000D03*
X157226000Y-85852000D03*
D23*
X155444000Y-117566000D03*
D24*
X157984000Y-117566000D03*
D23*
X202402000Y-68896000D03*
D24*
X202402000Y-66356000D03*
D23*
X161344000Y-117566000D03*
D24*
X163884000Y-117566000D03*
D23*
X167230000Y-117596000D03*
D24*
X169770000Y-117596000D03*
D25*
X145796000Y-102108000D03*
X145796000Y-92710000D03*
X153416000Y-70612000D03*
X153416000Y-79502000D03*
X144018000Y-83058000D03*
X145542000Y-70104000D03*
X82550000Y-101346000D03*
X179324000Y-91440000D03*
X75946000Y-68834000D03*
X75946000Y-94234000D03*
X100330000Y-119380000D03*
X129794000Y-112014000D03*
X139954000Y-66548000D03*
X133350000Y-104648000D03*
X122936000Y-69596000D03*
X83058000Y-58166000D03*
X165862000Y-83312000D03*
X159537100Y-100307800D03*
X155632300Y-100217900D03*
X160855600Y-101796700D03*
X142972900Y-100391700D03*
X148336000Y-83312000D03*
X118892000Y-92812700D03*
X128053600Y-74851300D03*
X117792900Y-85189000D03*
X143249900Y-85053500D03*
D26*
X145796000Y-92710000D02*
X145796000Y-102108000D01*
X153416000Y-79502000D02*
X153416000Y-70612000D01*
X145562201Y-81513799D02*
X145562201Y-70124201D01*
X144018000Y-83058000D02*
X145562201Y-81513799D01*
X145562201Y-70124201D02*
X145542000Y-70104000D01*
X83126000Y-88728000D02*
X83126000Y-100770000D01*
X83126000Y-100770000D02*
X82550000Y-101346000D01*
X159537100Y-100307800D02*
X158705600Y-99476300D01*
X158705600Y-99476300D02*
X158705600Y-91992400D01*
X158705600Y-91992400D02*
X159766000Y-90932000D01*
X202402000Y-66356000D02*
X201176700Y-66356000D01*
X201176700Y-66356000D02*
X186987100Y-80545600D01*
X186987100Y-80545600D02*
X183410700Y-80545600D01*
X183410700Y-80545600D02*
X161397300Y-102559000D01*
X161397300Y-102559000D02*
X160579800Y-102559000D01*
X160579800Y-102559000D02*
X157226000Y-99205200D01*
X157226000Y-99205200D02*
X157226000Y-98552000D01*
X157984000Y-117566000D02*
X156758700Y-117566000D01*
X156758700Y-117566000D02*
X156758700Y-117106400D01*
X156758700Y-117106400D02*
X155993000Y-116340700D01*
X155993000Y-116340700D02*
X153142400Y-116340700D01*
X153142400Y-116340700D02*
X135869400Y-99067700D01*
X135869400Y-99067700D02*
X135869400Y-95528200D01*
X135869400Y-95528200D02*
X136655600Y-94742000D01*
X136655600Y-94742000D02*
X137154900Y-94742000D01*
X137154900Y-94742000D02*
X146969400Y-84927500D01*
X146969400Y-84927500D02*
X146969400Y-83619700D01*
X146969400Y-83619700D02*
X150218800Y-80370300D01*
X150218800Y-80370300D02*
X153581400Y-80370300D01*
X153581400Y-80370300D02*
X154686000Y-79265700D01*
X154686000Y-79265700D02*
X154686000Y-75692000D01*
X180180700Y-115316000D02*
X152785700Y-115316000D01*
X152785700Y-115316000D02*
X138176000Y-100706300D01*
X138176000Y-100706300D02*
X138176000Y-97282000D01*
X138176000Y-97282000D02*
X136906000Y-96012000D01*
X181356000Y-115316000D02*
X180180700Y-115316000D01*
X159766000Y-80772000D02*
X158729400Y-81808600D01*
X158729400Y-81808600D02*
X158729400Y-90898300D01*
X158729400Y-90898300D02*
X157192300Y-92435400D01*
X157192300Y-92435400D02*
X156728600Y-92435400D01*
X156728600Y-92435400D02*
X156189400Y-92974600D01*
X156189400Y-92974600D02*
X156189400Y-99660800D01*
X156189400Y-99660800D02*
X155632300Y-100217900D01*
X159766000Y-78232000D02*
X160855600Y-79321600D01*
X160855600Y-79321600D02*
X160855600Y-101796700D01*
X152146000Y-96012000D02*
X153416000Y-97282000D01*
X153416000Y-97282000D02*
X153416000Y-99027300D01*
X153416000Y-99027300D02*
X162084700Y-107696000D01*
X162084700Y-107696000D02*
X181356000Y-107696000D01*
X139446000Y-96012000D02*
X140716000Y-97282000D01*
X140716000Y-97282000D02*
X140716000Y-98770900D01*
X140716000Y-98770900D02*
X142336800Y-100391700D01*
X142336800Y-100391700D02*
X142972900Y-100391700D01*
X181356000Y-110236000D02*
X163830000Y-110236000D01*
X163830000Y-110236000D02*
X152146000Y-98552000D01*
X157710000Y-60040000D02*
X156184200Y-61565800D01*
X156184200Y-61565800D02*
X156184200Y-77190200D01*
X156184200Y-77190200D02*
X157226000Y-78232000D01*
X148336000Y-109220000D02*
X148336000Y-83312000D01*
X100906000Y-62992000D02*
X100906000Y-64517300D01*
X100906000Y-88728000D02*
X100906000Y-87202700D01*
X100906000Y-87202700D02*
X100455600Y-86752300D01*
X100455600Y-86752300D02*
X100455600Y-80716900D01*
X100455600Y-80716900D02*
X99732500Y-79993800D01*
X99732500Y-79993800D02*
X99732500Y-65690800D01*
X99732500Y-65690800D02*
X100906000Y-64517300D01*
X88206000Y-62992000D02*
X88206000Y-61466700D01*
X157226000Y-90932000D02*
X155733800Y-89439800D01*
X155733800Y-89439800D02*
X155733800Y-71855200D01*
X155733800Y-71855200D02*
X144883300Y-61004700D01*
X144883300Y-61004700D02*
X88668000Y-61004700D01*
X88668000Y-61004700D02*
X88206000Y-61466700D01*
X149606000Y-96012000D02*
X151078400Y-97484400D01*
X151078400Y-97484400D02*
X151078400Y-99006300D01*
X151078400Y-99006300D02*
X164848100Y-112776000D01*
X164848100Y-112776000D02*
X181356000Y-112776000D01*
X108526000Y-62992000D02*
X108526000Y-64517300D01*
X108526000Y-88728000D02*
X108526000Y-87202700D01*
X108526000Y-87202700D02*
X108075600Y-86752300D01*
X108075600Y-86752300D02*
X108075600Y-80716900D01*
X108075600Y-80716900D02*
X107352500Y-79993800D01*
X107352500Y-79993800D02*
X107352500Y-65690800D01*
X107352500Y-65690800D02*
X108526000Y-64517300D01*
X111066000Y-62992000D02*
X111066000Y-64517300D01*
X111066000Y-88728000D02*
X111066000Y-82676200D01*
X111066000Y-82676200D02*
X109916700Y-81526900D01*
X109916700Y-81526900D02*
X109916700Y-65666600D01*
X109916700Y-65666600D02*
X111066000Y-64517300D01*
X113606000Y-62992000D02*
X113606000Y-64517300D01*
X113606000Y-88728000D02*
X113606000Y-81167300D01*
X113606000Y-81167300D02*
X112456700Y-80018000D01*
X112456700Y-80018000D02*
X112456700Y-65666600D01*
X112456700Y-65666600D02*
X113606000Y-64517300D01*
X116146000Y-62992000D02*
X116146000Y-64517300D01*
X116146000Y-88728000D02*
X116146000Y-87202700D01*
X116146000Y-87202700D02*
X114972500Y-86029200D01*
X114972500Y-86029200D02*
X114972500Y-65690800D01*
X114972500Y-65690800D02*
X116146000Y-64517300D01*
X118686000Y-62992000D02*
X118686000Y-64517300D01*
X118686000Y-88728000D02*
X118686000Y-87152700D01*
X118686000Y-87152700D02*
X117065400Y-85532100D01*
X117065400Y-85532100D02*
X117065400Y-84669600D01*
X117065400Y-84669600D02*
X117416000Y-84319000D01*
X117416000Y-84319000D02*
X117416000Y-65787300D01*
X117416000Y-65787300D02*
X118686000Y-64517300D01*
X117295400Y-93580400D02*
X117295400Y-86399000D01*
X117295400Y-86399000D02*
X116146000Y-85249600D01*
X116146000Y-85249600D02*
X116146000Y-78232000D01*
X116146000Y-103968000D02*
X116146000Y-94729800D01*
X116146000Y-94729800D02*
X117295400Y-93580400D01*
X134366000Y-90932000D02*
X135636000Y-89662000D01*
X135636000Y-89662000D02*
X137124400Y-89662000D01*
X137124400Y-89662000D02*
X137951700Y-88834700D01*
X137951700Y-88834700D02*
X137951700Y-85358200D01*
X137951700Y-85358200D02*
X137369500Y-84776000D01*
X137369500Y-84776000D02*
X128186600Y-84776000D01*
X128186600Y-84776000D02*
X119382200Y-93580400D01*
X119382200Y-93580400D02*
X117295400Y-93580400D01*
X113606000Y-78232000D02*
X113606000Y-79757300D01*
X113606000Y-103968000D02*
X113606000Y-102442700D01*
X113606000Y-102442700D02*
X114783300Y-101265400D01*
X114783300Y-101265400D02*
X114783300Y-87480800D01*
X114783300Y-87480800D02*
X114072300Y-86769800D01*
X114072300Y-86769800D02*
X114072300Y-80223600D01*
X114072300Y-80223600D02*
X113606000Y-79757300D01*
X111066000Y-103968000D02*
X111066000Y-105493300D01*
X134366000Y-88392000D02*
X132263100Y-88392000D01*
X132263100Y-88392000D02*
X117416000Y-103239100D01*
X117416000Y-103239100D02*
X117416000Y-104692000D01*
X117416000Y-104692000D02*
X116614700Y-105493300D01*
X116614700Y-105493300D02*
X111066000Y-105493300D01*
X111066000Y-103968000D02*
X111066000Y-102442700D01*
X111066000Y-78232000D02*
X111066000Y-79757300D01*
X111066000Y-79757300D02*
X112239400Y-80930700D01*
X112239400Y-80930700D02*
X112239400Y-101269300D01*
X112239400Y-101269300D02*
X111066000Y-102442700D01*
X116078000Y-114300000D02*
X116078000Y-112774700D01*
X116078000Y-112774700D02*
X129070900Y-99781800D01*
X129070900Y-99781800D02*
X129070900Y-94761200D01*
X129070900Y-94761200D02*
X134343700Y-89488400D01*
X134343700Y-89488400D02*
X134780400Y-89488400D01*
X134780400Y-89488400D02*
X135422100Y-88846700D01*
X135422100Y-88846700D02*
X135422100Y-86908100D01*
X135422100Y-86908100D02*
X134366000Y-85852000D01*
X113538000Y-121920000D02*
X113538000Y-114300000D01*
X134366000Y-83312000D02*
X128392700Y-83312000D01*
X128392700Y-83312000D02*
X118892000Y-92812700D01*
X80586000Y-103968000D02*
X80586000Y-102442700D01*
X80586000Y-78232000D02*
X80586000Y-79757300D01*
X80586000Y-79757300D02*
X81711300Y-80882600D01*
X81711300Y-80882600D02*
X81711300Y-101317400D01*
X81711300Y-101317400D02*
X80586000Y-102442700D01*
X85666000Y-62992000D02*
X85666000Y-64517300D01*
X85666000Y-88728000D02*
X85666000Y-87202700D01*
X85666000Y-87202700D02*
X84536800Y-86073500D01*
X84536800Y-86073500D02*
X84536800Y-65646500D01*
X84536800Y-65646500D02*
X85666000Y-64517300D01*
X134366000Y-80772000D02*
X128445300Y-74851300D01*
X128445300Y-74851300D02*
X128053600Y-74851300D01*
X83126000Y-103968000D02*
X83126000Y-102442700D01*
X83126000Y-78232000D02*
X83126000Y-85792700D01*
X83126000Y-85792700D02*
X84275300Y-86942000D01*
X84275300Y-86942000D02*
X84275300Y-101293400D01*
X84275300Y-101293400D02*
X83126000Y-102442700D01*
X88206000Y-88728000D02*
X88206000Y-87202700D01*
X85666000Y-78232000D02*
X85666000Y-84662700D01*
X85666000Y-84662700D02*
X88206000Y-87202700D01*
X90746000Y-88728000D02*
X90746000Y-87202700D01*
X90746000Y-62992000D02*
X90746000Y-64517300D01*
X90746000Y-64517300D02*
X89588700Y-65674600D01*
X89588700Y-65674600D02*
X89588700Y-86045400D01*
X89588700Y-86045400D02*
X90746000Y-87202700D01*
X98366000Y-62992000D02*
X98366000Y-64517300D01*
X98366000Y-64517300D02*
X97188500Y-65694800D01*
X97188500Y-65694800D02*
X97188500Y-79216700D01*
X97188500Y-79216700D02*
X98366000Y-80394200D01*
X98366000Y-80394200D02*
X98366000Y-88728000D01*
X139446000Y-75692000D02*
X138176000Y-74422000D01*
X138176000Y-74422000D02*
X134384800Y-74422000D01*
X134384800Y-74422000D02*
X121417900Y-61455100D01*
X121417900Y-61455100D02*
X108048300Y-61455100D01*
X108048300Y-61455100D02*
X107256000Y-62247400D01*
X107256000Y-62247400D02*
X107256000Y-63741500D01*
X107256000Y-63741500D02*
X106480200Y-64517300D01*
X106480200Y-64517300D02*
X103446000Y-64517300D01*
X103446000Y-62992000D02*
X103446000Y-64517300D01*
X103446000Y-64517300D02*
X102268500Y-65694800D01*
X102268500Y-65694800D02*
X102268500Y-79216700D01*
X102268500Y-79216700D02*
X103446000Y-80394200D01*
X103446000Y-80394200D02*
X103446000Y-88728000D01*
X95826000Y-62992000D02*
X95826000Y-64517300D01*
X95826000Y-64517300D02*
X94648500Y-65694800D01*
X94648500Y-65694800D02*
X94648500Y-79216700D01*
X94648500Y-79216700D02*
X95826000Y-80394200D01*
X95826000Y-80394200D02*
X95826000Y-88728000D01*
X93286000Y-88728000D02*
X93286000Y-87202700D01*
X93286000Y-62992000D02*
X93286000Y-64517300D01*
X93286000Y-64517300D02*
X92160200Y-65643100D01*
X92160200Y-65643100D02*
X92160200Y-86076900D01*
X92160200Y-86076900D02*
X93286000Y-87202700D01*
X141986000Y-73152000D02*
X140716000Y-74422000D01*
X140716000Y-74422000D02*
X140716000Y-75968800D01*
X140716000Y-75968800D02*
X136949400Y-79735400D01*
X136949400Y-79735400D02*
X136422100Y-79735400D01*
X136422100Y-79735400D02*
X135402600Y-80754900D01*
X135402600Y-80754900D02*
X135402600Y-81255900D01*
X135402600Y-81255900D02*
X134616500Y-82042000D01*
X134616500Y-82042000D02*
X120939900Y-82042000D01*
X120939900Y-82042000D02*
X117792900Y-85189000D01*
X93286000Y-103968000D02*
X93286000Y-102442700D01*
X93286000Y-78232000D02*
X93286000Y-82552000D01*
X93286000Y-82552000D02*
X94435300Y-83701300D01*
X94435300Y-83701300D02*
X94435300Y-101293400D01*
X94435300Y-101293400D02*
X93286000Y-102442700D01*
X144526000Y-73152000D02*
X143256000Y-74422000D01*
X143256000Y-74422000D02*
X143256000Y-83821900D01*
X143256000Y-83821900D02*
X142158000Y-84919900D01*
X142158000Y-84919900D02*
X142158000Y-87226800D01*
X142158000Y-87226800D02*
X137182800Y-92202000D01*
X137182800Y-92202000D02*
X136700100Y-92202000D01*
X136700100Y-92202000D02*
X135402600Y-93499500D01*
X135402600Y-93499500D02*
X135402600Y-93965500D01*
X135402600Y-93965500D02*
X134626100Y-94742000D01*
X134626100Y-94742000D02*
X134139800Y-94742000D01*
X134139800Y-94742000D02*
X131151200Y-97730600D01*
X131151200Y-97730600D02*
X131151200Y-103778900D01*
X131151200Y-103778900D02*
X114808000Y-120122100D01*
X114808000Y-120122100D02*
X114808000Y-122718500D01*
X114808000Y-122718500D02*
X114018900Y-123507600D01*
X114018900Y-123507600D02*
X107996200Y-123507600D01*
X107996200Y-123507600D02*
X107188000Y-122699400D01*
X107188000Y-122699400D02*
X107188000Y-121102000D01*
X107188000Y-121102000D02*
X95826000Y-109740000D01*
X95826000Y-109740000D02*
X95826000Y-103968000D01*
X95826000Y-78232000D02*
X95826000Y-79757300D01*
X95826000Y-79757300D02*
X96975300Y-80906600D01*
X96975300Y-80906600D02*
X96975300Y-101293400D01*
X96975300Y-101293400D02*
X95826000Y-102442700D01*
X95826000Y-103968000D02*
X95826000Y-102442700D01*
X98366000Y-78232000D02*
X98366000Y-79757300D01*
X98366000Y-103968000D02*
X98366000Y-102442700D01*
X98366000Y-79757300D02*
X99515300Y-80906600D01*
X99515300Y-80906600D02*
X99515300Y-101293400D01*
X99515300Y-101293400D02*
X98366000Y-102442700D01*
X100906000Y-103968000D02*
X100906000Y-102442700D01*
X100906000Y-78232000D02*
X100906000Y-82388400D01*
X100906000Y-82388400D02*
X102055300Y-83537700D01*
X102055300Y-83537700D02*
X102055300Y-101293400D01*
X102055300Y-101293400D02*
X100906000Y-102442700D01*
X149606000Y-75692000D02*
X149606000Y-78697400D01*
X149606000Y-78697400D02*
X143249900Y-85053500D01*
X103446000Y-78232000D02*
X103446000Y-79757300D01*
X103446000Y-79757300D02*
X104580600Y-80891900D01*
X104580600Y-80891900D02*
X104580600Y-90079500D01*
X104580600Y-90079500D02*
X103446000Y-91214100D01*
X103446000Y-91214100D02*
X103446000Y-103968000D01*
X105986000Y-78232000D02*
X105986000Y-79757300D01*
X105986000Y-103968000D02*
X105986000Y-102442700D01*
X105986000Y-79757300D02*
X107111800Y-80883100D01*
X107111800Y-80883100D02*
X107111800Y-101316900D01*
X107111800Y-101316900D02*
X105986000Y-102442700D01*
X108526000Y-103968000D02*
X108526000Y-102442700D01*
X108526000Y-78232000D02*
X108526000Y-82775000D01*
X108526000Y-82775000D02*
X109653800Y-83902800D01*
X109653800Y-83902800D02*
X109653800Y-101314900D01*
X109653800Y-101314900D02*
X108526000Y-102442700D01*
X108458000Y-121920000D02*
X108458000Y-120394700D01*
X105986000Y-88728000D02*
X105986000Y-90253300D01*
X105986000Y-90253300D02*
X104857100Y-91382200D01*
X104857100Y-91382200D02*
X104857100Y-109048600D01*
X104857100Y-109048600D02*
X107188000Y-111379500D01*
X107188000Y-111379500D02*
X107188000Y-119124700D01*
X107188000Y-119124700D02*
X108458000Y-120394700D01*
X110998000Y-121920000D02*
X110998000Y-114300000D01*
X116078000Y-121920000D02*
X116078000Y-123445300D01*
X105986000Y-62992000D02*
X105986000Y-61466700D01*
X105986000Y-61466700D02*
X90262200Y-61466700D01*
X90262200Y-61466700D02*
X89476000Y-62252900D01*
X89476000Y-62252900D02*
X89476000Y-64517400D01*
X89476000Y-64517400D02*
X87080200Y-66913200D01*
X87080200Y-66913200D02*
X87080200Y-84666900D01*
X87080200Y-84666900D02*
X89476000Y-87062700D01*
X89476000Y-87062700D02*
X89476000Y-104762900D01*
X89476000Y-104762900D02*
X104503400Y-119790300D01*
X104503400Y-119790300D02*
X104503400Y-122507900D01*
X104503400Y-122507900D02*
X105954400Y-123958900D01*
X105954400Y-123958900D02*
X115564400Y-123958900D01*
X115564400Y-123958900D02*
X116078000Y-123445300D01*
D27*
X207570000Y-131370000D02*
X64210000Y-131370000D01*
X64210000Y-128035098D01*
X64925000Y-128035098D01*
X64925000Y-128504902D01*
X65016654Y-128965679D01*
X65196440Y-129399721D01*
X65457450Y-129790349D01*
X65789651Y-130122550D01*
X66180279Y-130383560D01*
X66614321Y-130563346D01*
X67075098Y-130655000D01*
X67544902Y-130655000D01*
X68005679Y-130563346D01*
X68439721Y-130383560D01*
X68830349Y-130122550D01*
X69162550Y-129790349D01*
X69423560Y-129399721D01*
X69603346Y-128965679D01*
X69695000Y-128504902D01*
X69695000Y-128035098D01*
X202085000Y-128035098D01*
X202085000Y-128504902D01*
X202176654Y-128965679D01*
X202356440Y-129399721D01*
X202617450Y-129790349D01*
X202949651Y-130122550D01*
X203340279Y-130383560D01*
X203774321Y-130563346D01*
X204235098Y-130655000D01*
X204704902Y-130655000D01*
X205165679Y-130563346D01*
X205599721Y-130383560D01*
X205990349Y-130122550D01*
X206322550Y-129790349D01*
X206583560Y-129399721D01*
X206763346Y-128965679D01*
X206855000Y-128504902D01*
X206855000Y-128035098D01*
X206763346Y-127574321D01*
X206583560Y-127140279D01*
X206322550Y-126749651D01*
X205990349Y-126417450D01*
X205599721Y-126156440D01*
X205165679Y-125976654D01*
X204704902Y-125885000D01*
X204235098Y-125885000D01*
X203774321Y-125976654D01*
X203340279Y-126156440D01*
X202949651Y-126417450D01*
X202617450Y-126749651D01*
X202356440Y-127140279D01*
X202176654Y-127574321D01*
X202085000Y-128035098D01*
X69695000Y-128035098D01*
X69603346Y-127574321D01*
X69423560Y-127140279D01*
X69162550Y-126749651D01*
X68830349Y-126417450D01*
X68439721Y-126156440D01*
X68005679Y-125976654D01*
X67544902Y-125885000D01*
X67075098Y-125885000D01*
X66614321Y-125976654D01*
X66180279Y-126156440D01*
X65789651Y-126417450D01*
X65457450Y-126749651D01*
X65196440Y-127140279D01*
X65016654Y-127574321D01*
X64925000Y-128035098D01*
X64210000Y-128035098D01*
X64210000Y-118580000D01*
X74507928Y-118580000D01*
X74507928Y-120180000D01*
X74520188Y-120304482D01*
X74556498Y-120424180D01*
X74615463Y-120534494D01*
X74694815Y-120631185D01*
X74791506Y-120710537D01*
X74901820Y-120769502D01*
X75021518Y-120805812D01*
X75146000Y-120818072D01*
X76746000Y-120818072D01*
X76870482Y-120805812D01*
X76990180Y-120769502D01*
X77100494Y-120710537D01*
X77197185Y-120631185D01*
X77276537Y-120534494D01*
X77335502Y-120424180D01*
X77351117Y-120372702D01*
X77632903Y-120372702D01*
X77704486Y-120616671D01*
X77959996Y-120737571D01*
X78234184Y-120806300D01*
X78516512Y-120820217D01*
X78796130Y-120778787D01*
X79062292Y-120683603D01*
X79187514Y-120616671D01*
X79259097Y-120372702D01*
X78446000Y-119559605D01*
X77632903Y-120372702D01*
X77351117Y-120372702D01*
X77371812Y-120304482D01*
X77384072Y-120180000D01*
X77384072Y-120172785D01*
X77453298Y-120193097D01*
X78266395Y-119380000D01*
X78625605Y-119380000D01*
X79438702Y-120193097D01*
X79682671Y-120121514D01*
X79803571Y-119866004D01*
X79872300Y-119591816D01*
X79886217Y-119309488D01*
X79844787Y-119029870D01*
X79749603Y-118763708D01*
X79682671Y-118638486D01*
X79438702Y-118566903D01*
X78625605Y-119380000D01*
X78266395Y-119380000D01*
X77453298Y-118566903D01*
X77384072Y-118587215D01*
X77384072Y-118580000D01*
X77371812Y-118455518D01*
X77351118Y-118387298D01*
X77632903Y-118387298D01*
X78446000Y-119200395D01*
X79259097Y-118387298D01*
X79187514Y-118143329D01*
X78932004Y-118022429D01*
X78657816Y-117953700D01*
X78375488Y-117939783D01*
X78095870Y-117981213D01*
X77829708Y-118076397D01*
X77704486Y-118143329D01*
X77632903Y-118387298D01*
X77351118Y-118387298D01*
X77335502Y-118335820D01*
X77276537Y-118225506D01*
X77197185Y-118128815D01*
X77100494Y-118049463D01*
X76990180Y-117990498D01*
X76870482Y-117954188D01*
X76746000Y-117941928D01*
X75146000Y-117941928D01*
X75021518Y-117954188D01*
X74901820Y-117990498D01*
X74791506Y-118049463D01*
X74694815Y-118128815D01*
X74615463Y-118225506D01*
X74556498Y-118335820D01*
X74520188Y-118455518D01*
X74507928Y-118580000D01*
X64210000Y-118580000D01*
X64210000Y-77032000D01*
X79147928Y-77032000D01*
X79147928Y-79432000D01*
X79160188Y-79556482D01*
X79196498Y-79676180D01*
X79255463Y-79786494D01*
X79334815Y-79883185D01*
X79431506Y-79962537D01*
X79541820Y-80021502D01*
X79661518Y-80057812D01*
X79786000Y-80070072D01*
X79891425Y-80070072D01*
X79951026Y-80181576D01*
X80022201Y-80268302D01*
X80046000Y-80297301D01*
X80074998Y-80321099D01*
X80951300Y-81197402D01*
X80951300Y-86939242D01*
X80867308Y-86913764D01*
X80586000Y-86886057D01*
X80304691Y-86913764D01*
X80034192Y-86995818D01*
X79784899Y-87129068D01*
X79566392Y-87308393D01*
X79387068Y-87526900D01*
X79253818Y-87776193D01*
X79171764Y-88046692D01*
X79151000Y-88257509D01*
X79151000Y-89198492D01*
X79171764Y-89409309D01*
X79253818Y-89679808D01*
X79387068Y-89929101D01*
X79566393Y-90147608D01*
X79784900Y-90326932D01*
X80034193Y-90460182D01*
X80304692Y-90542236D01*
X80586000Y-90569943D01*
X80867309Y-90542236D01*
X80951300Y-90516758D01*
X80951301Y-101002597D01*
X80074998Y-101878901D01*
X80046000Y-101902699D01*
X80022202Y-101931697D01*
X80022201Y-101931698D01*
X79951026Y-102018424D01*
X79891425Y-102129928D01*
X79786000Y-102129928D01*
X79661518Y-102142188D01*
X79541820Y-102178498D01*
X79431506Y-102237463D01*
X79334815Y-102316815D01*
X79255463Y-102413506D01*
X79196498Y-102523820D01*
X79160188Y-102643518D01*
X79147928Y-102768000D01*
X79147928Y-105168000D01*
X79160188Y-105292482D01*
X79196498Y-105412180D01*
X79255463Y-105522494D01*
X79334815Y-105619185D01*
X79431506Y-105698537D01*
X79541820Y-105757502D01*
X79661518Y-105793812D01*
X79786000Y-105806072D01*
X81386000Y-105806072D01*
X81510482Y-105793812D01*
X81630180Y-105757502D01*
X81740494Y-105698537D01*
X81837185Y-105619185D01*
X81916537Y-105522494D01*
X81975502Y-105412180D01*
X82011812Y-105292482D01*
X82013581Y-105274517D01*
X82106393Y-105387608D01*
X82324900Y-105566932D01*
X82574193Y-105700182D01*
X82844692Y-105782236D01*
X83126000Y-105809943D01*
X83407309Y-105782236D01*
X83677808Y-105700182D01*
X83927101Y-105566932D01*
X84145608Y-105387608D01*
X84324932Y-105169101D01*
X84396000Y-105036142D01*
X84467068Y-105169101D01*
X84646393Y-105387608D01*
X84864900Y-105566932D01*
X85114193Y-105700182D01*
X85384692Y-105782236D01*
X85666000Y-105809943D01*
X85947309Y-105782236D01*
X86217808Y-105700182D01*
X86467101Y-105566932D01*
X86685608Y-105387608D01*
X86864932Y-105169101D01*
X86936000Y-105036142D01*
X87007068Y-105169101D01*
X87186393Y-105387608D01*
X87404900Y-105566932D01*
X87654193Y-105700182D01*
X87924692Y-105782236D01*
X88206000Y-105809943D01*
X88487309Y-105782236D01*
X88757808Y-105700182D01*
X89007101Y-105566932D01*
X89115923Y-105477624D01*
X103720226Y-120081928D01*
X102578000Y-120081928D01*
X102453518Y-120094188D01*
X102333820Y-120130498D01*
X102223506Y-120189463D01*
X102126815Y-120268815D01*
X102047463Y-120365506D01*
X101988498Y-120475820D01*
X101952188Y-120595518D01*
X101939928Y-120720000D01*
X101939928Y-123120000D01*
X101952188Y-123244482D01*
X101988498Y-123364180D01*
X102047463Y-123474494D01*
X102126815Y-123571185D01*
X102223506Y-123650537D01*
X102333820Y-123709502D01*
X102453518Y-123745812D01*
X102578000Y-123758072D01*
X104178000Y-123758072D01*
X104302482Y-123745812D01*
X104422180Y-123709502D01*
X104532494Y-123650537D01*
X104553773Y-123633074D01*
X105390601Y-124469903D01*
X105414399Y-124498901D01*
X105443397Y-124522699D01*
X105530123Y-124593874D01*
X105662153Y-124664446D01*
X105805414Y-124707903D01*
X105917067Y-124718900D01*
X105917077Y-124718900D01*
X105954400Y-124722576D01*
X105991723Y-124718900D01*
X115527078Y-124718900D01*
X115564400Y-124722576D01*
X115601722Y-124718900D01*
X115601733Y-124718900D01*
X115713386Y-124707903D01*
X115856647Y-124664446D01*
X115988676Y-124593874D01*
X116104401Y-124498901D01*
X116128203Y-124469898D01*
X116589002Y-124009100D01*
X116618001Y-123985301D01*
X116661847Y-123931875D01*
X116712974Y-123869577D01*
X116783546Y-123737547D01*
X116784550Y-123734236D01*
X116827003Y-123594286D01*
X116831942Y-123544139D01*
X116879101Y-123518932D01*
X117097608Y-123339608D01*
X117276932Y-123121101D01*
X117345265Y-122993259D01*
X117495399Y-123222839D01*
X117693105Y-123424500D01*
X117926354Y-123583715D01*
X118186182Y-123694367D01*
X118268961Y-123711904D01*
X118491000Y-123589915D01*
X118491000Y-122047000D01*
X118745000Y-122047000D01*
X118745000Y-123589915D01*
X118967039Y-123711904D01*
X119049818Y-123694367D01*
X119309646Y-123583715D01*
X119542895Y-123424500D01*
X119740601Y-123222839D01*
X119895166Y-122986483D01*
X120000650Y-122724514D01*
X120053000Y-122447000D01*
X120053000Y-122047000D01*
X118745000Y-122047000D01*
X118491000Y-122047000D01*
X118471000Y-122047000D01*
X118471000Y-121793000D01*
X118491000Y-121793000D01*
X118491000Y-120250085D01*
X118745000Y-120250085D01*
X118745000Y-121793000D01*
X120053000Y-121793000D01*
X120053000Y-121393000D01*
X120000650Y-121115486D01*
X119895166Y-120853517D01*
X119740601Y-120617161D01*
X119542895Y-120415500D01*
X119309646Y-120256285D01*
X119049818Y-120145633D01*
X118967039Y-120128096D01*
X118745000Y-120250085D01*
X118491000Y-120250085D01*
X118268961Y-120128096D01*
X118186182Y-120145633D01*
X117926354Y-120256285D01*
X117693105Y-120415500D01*
X117495399Y-120617161D01*
X117345265Y-120846741D01*
X117276932Y-120718899D01*
X117097607Y-120500392D01*
X116879100Y-120321068D01*
X116629807Y-120187818D01*
X116359308Y-120105764D01*
X116078000Y-120078057D01*
X115910330Y-120094571D01*
X119964901Y-116040000D01*
X131657928Y-116040000D01*
X131657928Y-117640000D01*
X131670188Y-117764482D01*
X131706498Y-117884180D01*
X131765463Y-117994494D01*
X131844815Y-118091185D01*
X131941506Y-118170537D01*
X132051820Y-118229502D01*
X132171518Y-118265812D01*
X132296000Y-118278072D01*
X133896000Y-118278072D01*
X134020482Y-118265812D01*
X134140180Y-118229502D01*
X134250494Y-118170537D01*
X134347185Y-118091185D01*
X134426537Y-117994494D01*
X134485502Y-117884180D01*
X134501117Y-117832702D01*
X147522903Y-117832702D01*
X147594486Y-118076671D01*
X147849996Y-118197571D01*
X148124184Y-118266300D01*
X148406512Y-118280217D01*
X148686130Y-118238787D01*
X148952292Y-118143603D01*
X149077514Y-118076671D01*
X149149097Y-117832702D01*
X148336000Y-117019605D01*
X147522903Y-117832702D01*
X134501117Y-117832702D01*
X134521812Y-117764482D01*
X134534072Y-117640000D01*
X134534072Y-116910512D01*
X146895783Y-116910512D01*
X146937213Y-117190130D01*
X147032397Y-117456292D01*
X147099329Y-117581514D01*
X147343298Y-117653097D01*
X148156395Y-116840000D01*
X148515605Y-116840000D01*
X149328702Y-117653097D01*
X149572671Y-117581514D01*
X149693571Y-117326004D01*
X149762300Y-117051816D01*
X149776217Y-116769488D01*
X149734787Y-116489870D01*
X149639603Y-116223708D01*
X149572671Y-116098486D01*
X149328702Y-116026903D01*
X148515605Y-116840000D01*
X148156395Y-116840000D01*
X147343298Y-116026903D01*
X147099329Y-116098486D01*
X146978429Y-116353996D01*
X146909700Y-116628184D01*
X146895783Y-116910512D01*
X134534072Y-116910512D01*
X134534072Y-116040000D01*
X134521812Y-115915518D01*
X134501118Y-115847298D01*
X147522903Y-115847298D01*
X148336000Y-116660395D01*
X149149097Y-115847298D01*
X149077514Y-115603329D01*
X148822004Y-115482429D01*
X148547816Y-115413700D01*
X148265488Y-115399783D01*
X147985870Y-115441213D01*
X147719708Y-115536397D01*
X147594486Y-115603329D01*
X147522903Y-115847298D01*
X134501118Y-115847298D01*
X134485502Y-115795820D01*
X134426537Y-115685506D01*
X134347185Y-115588815D01*
X134250494Y-115509463D01*
X134140180Y-115450498D01*
X134020482Y-115414188D01*
X133896000Y-115401928D01*
X132296000Y-115401928D01*
X132171518Y-115414188D01*
X132051820Y-115450498D01*
X131941506Y-115509463D01*
X131844815Y-115588815D01*
X131765463Y-115685506D01*
X131706498Y-115795820D01*
X131670188Y-115915518D01*
X131657928Y-116040000D01*
X119964901Y-116040000D01*
X126926236Y-109078665D01*
X131661000Y-109078665D01*
X131661000Y-109361335D01*
X131716147Y-109638574D01*
X131824320Y-109899727D01*
X131981363Y-110134759D01*
X132181241Y-110334637D01*
X132416273Y-110491680D01*
X132677426Y-110599853D01*
X132954665Y-110655000D01*
X133237335Y-110655000D01*
X133514574Y-110599853D01*
X133775727Y-110491680D01*
X134010759Y-110334637D01*
X134210637Y-110134759D01*
X134367680Y-109899727D01*
X134475853Y-109638574D01*
X134531000Y-109361335D01*
X134531000Y-109078665D01*
X134475853Y-108801426D01*
X134367680Y-108540273D01*
X134210637Y-108305241D01*
X134010759Y-108105363D01*
X133775727Y-107948320D01*
X133514574Y-107840147D01*
X133237335Y-107785000D01*
X132954665Y-107785000D01*
X132677426Y-107840147D01*
X132416273Y-107948320D01*
X132181241Y-108105363D01*
X131981363Y-108305241D01*
X131824320Y-108540273D01*
X131716147Y-108801426D01*
X131661000Y-109078665D01*
X126926236Y-109078665D01*
X131662203Y-104342699D01*
X131691201Y-104318901D01*
X131769988Y-104222899D01*
X131786174Y-104203177D01*
X131856746Y-104071147D01*
X131876710Y-104005332D01*
X131900203Y-103927886D01*
X131911200Y-103816233D01*
X131911200Y-103816224D01*
X131914876Y-103778901D01*
X131911200Y-103741578D01*
X131911200Y-98045401D01*
X133226655Y-96729946D01*
X133320338Y-96870153D01*
X133507847Y-97057662D01*
X133728335Y-97204987D01*
X133973328Y-97306467D01*
X134233411Y-97358200D01*
X134498589Y-97358200D01*
X134758672Y-97306467D01*
X135003665Y-97204987D01*
X135109401Y-97134337D01*
X135109400Y-99030377D01*
X135105724Y-99067700D01*
X135109400Y-99105022D01*
X135109400Y-99105032D01*
X135120397Y-99216685D01*
X135153956Y-99327315D01*
X135163854Y-99359946D01*
X135234426Y-99491976D01*
X135269388Y-99534577D01*
X135329399Y-99607701D01*
X135358403Y-99631504D01*
X152578600Y-116851702D01*
X152602399Y-116880701D01*
X152718124Y-116975674D01*
X152850153Y-117046246D01*
X152993414Y-117089703D01*
X153105067Y-117100700D01*
X153105077Y-117100700D01*
X153142400Y-117104376D01*
X153179723Y-117100700D01*
X153975261Y-117100700D01*
X153967989Y-117118257D01*
X153909000Y-117414816D01*
X153909000Y-117717184D01*
X153967989Y-118013743D01*
X154083701Y-118293095D01*
X154251688Y-118544505D01*
X154465495Y-118758312D01*
X154716905Y-118926299D01*
X154996257Y-119042011D01*
X155292816Y-119101000D01*
X155595184Y-119101000D01*
X155891743Y-119042011D01*
X156171095Y-118926299D01*
X156422505Y-118758312D01*
X156488944Y-118691873D01*
X156494498Y-118710180D01*
X156553463Y-118820494D01*
X156632815Y-118917185D01*
X156729506Y-118996537D01*
X156839820Y-119055502D01*
X156959518Y-119091812D01*
X157084000Y-119104072D01*
X158884000Y-119104072D01*
X159008482Y-119091812D01*
X159128180Y-119055502D01*
X159238494Y-118996537D01*
X159335185Y-118917185D01*
X159414537Y-118820494D01*
X159473502Y-118710180D01*
X159509812Y-118590482D01*
X159522072Y-118466000D01*
X159522072Y-116666000D01*
X159509812Y-116541518D01*
X159473502Y-116421820D01*
X159414537Y-116311506D01*
X159335185Y-116214815D01*
X159238494Y-116135463D01*
X159128180Y-116076498D01*
X159126538Y-116076000D01*
X160966585Y-116076000D01*
X160896257Y-116089989D01*
X160616905Y-116205701D01*
X160365495Y-116373688D01*
X160151688Y-116587495D01*
X159983701Y-116838905D01*
X159867989Y-117118257D01*
X159809000Y-117414816D01*
X159809000Y-117717184D01*
X159867989Y-118013743D01*
X159983701Y-118293095D01*
X160151688Y-118544505D01*
X160365495Y-118758312D01*
X160616905Y-118926299D01*
X160896257Y-119042011D01*
X161192816Y-119101000D01*
X161495184Y-119101000D01*
X161791743Y-119042011D01*
X162071095Y-118926299D01*
X162322505Y-118758312D01*
X162388944Y-118691873D01*
X162394498Y-118710180D01*
X162453463Y-118820494D01*
X162532815Y-118917185D01*
X162629506Y-118996537D01*
X162739820Y-119055502D01*
X162859518Y-119091812D01*
X162984000Y-119104072D01*
X164784000Y-119104072D01*
X164908482Y-119091812D01*
X165028180Y-119055502D01*
X165138494Y-118996537D01*
X165235185Y-118917185D01*
X165314537Y-118820494D01*
X165373502Y-118710180D01*
X165409812Y-118590482D01*
X165422072Y-118466000D01*
X165422072Y-116666000D01*
X165409812Y-116541518D01*
X165373502Y-116421820D01*
X165314537Y-116311506D01*
X165235185Y-116214815D01*
X165138494Y-116135463D01*
X165028180Y-116076498D01*
X165026538Y-116076000D01*
X167003406Y-116076000D01*
X166782257Y-116119989D01*
X166502905Y-116235701D01*
X166251495Y-116403688D01*
X166037688Y-116617495D01*
X165869701Y-116868905D01*
X165753989Y-117148257D01*
X165695000Y-117444816D01*
X165695000Y-117747184D01*
X165753989Y-118043743D01*
X165869701Y-118323095D01*
X166037688Y-118574505D01*
X166251495Y-118788312D01*
X166502905Y-118956299D01*
X166782257Y-119072011D01*
X167078816Y-119131000D01*
X167381184Y-119131000D01*
X167677743Y-119072011D01*
X167957095Y-118956299D01*
X168208505Y-118788312D01*
X168274944Y-118721873D01*
X168280498Y-118740180D01*
X168339463Y-118850494D01*
X168418815Y-118947185D01*
X168515506Y-119026537D01*
X168625820Y-119085502D01*
X168745518Y-119121812D01*
X168870000Y-119134072D01*
X169484250Y-119131000D01*
X169643000Y-118972250D01*
X169643000Y-117723000D01*
X169897000Y-117723000D01*
X169897000Y-118972250D01*
X170055750Y-119131000D01*
X170670000Y-119134072D01*
X170794482Y-119121812D01*
X170914180Y-119085502D01*
X171024494Y-119026537D01*
X171121185Y-118947185D01*
X171200537Y-118850494D01*
X171259502Y-118740180D01*
X171295812Y-118620482D01*
X171308072Y-118496000D01*
X171305000Y-117881750D01*
X171146250Y-117723000D01*
X169897000Y-117723000D01*
X169643000Y-117723000D01*
X169623000Y-117723000D01*
X169623000Y-117469000D01*
X169643000Y-117469000D01*
X169643000Y-117449000D01*
X169897000Y-117449000D01*
X169897000Y-117469000D01*
X171146250Y-117469000D01*
X171305000Y-117310250D01*
X171308072Y-116696000D01*
X171295812Y-116571518D01*
X171259502Y-116451820D01*
X171200537Y-116341506D01*
X171121185Y-116244815D01*
X171024494Y-116165463D01*
X170914180Y-116106498D01*
X170813642Y-116076000D01*
X180077822Y-116076000D01*
X180202525Y-116262632D01*
X180409368Y-116469475D01*
X180583760Y-116586000D01*
X180409368Y-116702525D01*
X180202525Y-116909368D01*
X180040010Y-117152589D01*
X179928068Y-117422842D01*
X179871000Y-117709740D01*
X179871000Y-118002260D01*
X179928068Y-118289158D01*
X180040010Y-118559411D01*
X180202525Y-118802632D01*
X180409368Y-119009475D01*
X180652589Y-119171990D01*
X180922842Y-119283932D01*
X181209740Y-119341000D01*
X181502260Y-119341000D01*
X181789158Y-119283932D01*
X182059411Y-119171990D01*
X182302632Y-119009475D01*
X182509475Y-118802632D01*
X182671990Y-118559411D01*
X182783932Y-118289158D01*
X182841000Y-118002260D01*
X182841000Y-117709740D01*
X182783932Y-117422842D01*
X182671990Y-117152589D01*
X182509475Y-116909368D01*
X182302632Y-116702525D01*
X182128240Y-116586000D01*
X182302632Y-116469475D01*
X182509475Y-116262632D01*
X182671990Y-116019411D01*
X182783932Y-115749158D01*
X182841000Y-115462260D01*
X182841000Y-115169740D01*
X182783932Y-114882842D01*
X182671990Y-114612589D01*
X182509475Y-114369368D01*
X182302632Y-114162525D01*
X182128240Y-114046000D01*
X182302632Y-113929475D01*
X182509475Y-113722632D01*
X182671990Y-113479411D01*
X182783932Y-113209158D01*
X182841000Y-112922260D01*
X182841000Y-112629740D01*
X182783932Y-112342842D01*
X182671990Y-112072589D01*
X182509475Y-111829368D01*
X182302632Y-111622525D01*
X182128240Y-111506000D01*
X182302632Y-111389475D01*
X182509475Y-111182632D01*
X182671990Y-110939411D01*
X182783932Y-110669158D01*
X182841000Y-110382260D01*
X182841000Y-110089740D01*
X182783932Y-109802842D01*
X182671990Y-109532589D01*
X182509475Y-109289368D01*
X182302632Y-109082525D01*
X182128240Y-108966000D01*
X182302632Y-108849475D01*
X182509475Y-108642632D01*
X182671990Y-108399411D01*
X182783932Y-108129158D01*
X182841000Y-107842260D01*
X182841000Y-107549740D01*
X182783932Y-107262842D01*
X182671990Y-106992589D01*
X182509475Y-106749368D01*
X182302632Y-106542525D01*
X182120466Y-106420805D01*
X182237355Y-106351178D01*
X182453588Y-106156269D01*
X182627641Y-105922920D01*
X182752825Y-105660099D01*
X182797476Y-105512890D01*
X182676155Y-105283000D01*
X181483000Y-105283000D01*
X181483000Y-105303000D01*
X181229000Y-105303000D01*
X181229000Y-105283000D01*
X180035845Y-105283000D01*
X179914524Y-105512890D01*
X179959175Y-105660099D01*
X180084359Y-105922920D01*
X180258412Y-106156269D01*
X180474645Y-106351178D01*
X180591534Y-106420805D01*
X180409368Y-106542525D01*
X180202525Y-106749368D01*
X180077822Y-106936000D01*
X162399502Y-106936000D01*
X156388706Y-100925205D01*
X156436237Y-100877674D01*
X156549505Y-100708156D01*
X156627526Y-100519798D01*
X156667300Y-100319839D01*
X156667300Y-100257703D01*
X156700407Y-100224595D01*
X156729401Y-100200801D01*
X156753195Y-100171808D01*
X156753199Y-100171804D01*
X156824373Y-100085077D01*
X156830269Y-100074047D01*
X156894946Y-99953047D01*
X156895900Y-99949901D01*
X160016005Y-103070008D01*
X160039799Y-103099001D01*
X160068792Y-103122795D01*
X160068796Y-103122799D01*
X160094540Y-103143926D01*
X160155524Y-103193974D01*
X160287553Y-103264546D01*
X160430814Y-103308003D01*
X160542467Y-103319000D01*
X160542476Y-103319000D01*
X160579799Y-103322676D01*
X160617122Y-103319000D01*
X161359978Y-103319000D01*
X161397300Y-103322676D01*
X161434622Y-103319000D01*
X161434633Y-103319000D01*
X161546286Y-103308003D01*
X161689547Y-103264546D01*
X161821576Y-103193974D01*
X161937301Y-103099001D01*
X161961104Y-103069997D01*
X165805101Y-99226000D01*
X179867928Y-99226000D01*
X179867928Y-100926000D01*
X179880188Y-101050482D01*
X179916498Y-101170180D01*
X179975463Y-101280494D01*
X180054815Y-101377185D01*
X180151506Y-101456537D01*
X180261820Y-101515502D01*
X180334380Y-101537513D01*
X180202525Y-101669368D01*
X180040010Y-101912589D01*
X179928068Y-102182842D01*
X179871000Y-102469740D01*
X179871000Y-102762260D01*
X179928068Y-103049158D01*
X180040010Y-103319411D01*
X180202525Y-103562632D01*
X180409368Y-103769475D01*
X180591534Y-103891195D01*
X180474645Y-103960822D01*
X180258412Y-104155731D01*
X180084359Y-104389080D01*
X179959175Y-104651901D01*
X179914524Y-104799110D01*
X180035845Y-105029000D01*
X181229000Y-105029000D01*
X181229000Y-105009000D01*
X181483000Y-105009000D01*
X181483000Y-105029000D01*
X182676155Y-105029000D01*
X182797476Y-104799110D01*
X182752825Y-104651901D01*
X182627641Y-104389080D01*
X182453588Y-104155731D01*
X182237355Y-103960822D01*
X182120466Y-103891195D01*
X182302632Y-103769475D01*
X182509475Y-103562632D01*
X182671990Y-103319411D01*
X182783932Y-103049158D01*
X182841000Y-102762260D01*
X182841000Y-102469740D01*
X182783932Y-102182842D01*
X182671990Y-101912589D01*
X182509475Y-101669368D01*
X182377620Y-101537513D01*
X182450180Y-101515502D01*
X182560494Y-101456537D01*
X182657185Y-101377185D01*
X182736537Y-101280494D01*
X182795502Y-101170180D01*
X182831812Y-101050482D01*
X182844072Y-100926000D01*
X182844072Y-99226000D01*
X182831812Y-99101518D01*
X182795502Y-98981820D01*
X182736537Y-98871506D01*
X182657185Y-98774815D01*
X182560494Y-98695463D01*
X182450180Y-98636498D01*
X182330482Y-98600188D01*
X182206000Y-98587928D01*
X180506000Y-98587928D01*
X180381518Y-98600188D01*
X180261820Y-98636498D01*
X180151506Y-98695463D01*
X180054815Y-98774815D01*
X179975463Y-98871506D01*
X179916498Y-98981820D01*
X179880188Y-99101518D01*
X179867928Y-99226000D01*
X165805101Y-99226000D01*
X174811492Y-90219609D01*
X199307997Y-90219609D01*
X199494073Y-90560766D01*
X199911409Y-90776513D01*
X200362815Y-90906696D01*
X200830946Y-90946313D01*
X201297811Y-90893842D01*
X201745468Y-90751297D01*
X202101927Y-90560766D01*
X202288003Y-90219609D01*
X200798000Y-88729605D01*
X199307997Y-90219609D01*
X174811492Y-90219609D01*
X176448155Y-88582946D01*
X198401687Y-88582946D01*
X198454158Y-89049811D01*
X198596703Y-89497468D01*
X198787234Y-89853927D01*
X199128391Y-90040003D01*
X200618395Y-88550000D01*
X200977605Y-88550000D01*
X202467609Y-90040003D01*
X202808766Y-89853927D01*
X203024513Y-89436591D01*
X203154696Y-88985185D01*
X203194313Y-88517054D01*
X203141842Y-88050189D01*
X202999297Y-87602532D01*
X202808766Y-87246073D01*
X202467609Y-87059997D01*
X200977605Y-88550000D01*
X200618395Y-88550000D01*
X199128391Y-87059997D01*
X198787234Y-87246073D01*
X198571487Y-87663409D01*
X198441304Y-88114815D01*
X198401687Y-88582946D01*
X176448155Y-88582946D01*
X178150710Y-86880391D01*
X199307997Y-86880391D01*
X200798000Y-88370395D01*
X202288003Y-86880391D01*
X202101927Y-86539234D01*
X201684591Y-86323487D01*
X201233185Y-86193304D01*
X200765054Y-86153687D01*
X200298189Y-86206158D01*
X199850532Y-86348703D01*
X199494073Y-86539234D01*
X199307997Y-86880391D01*
X178150710Y-86880391D01*
X182871234Y-82159868D01*
X182925818Y-82339808D01*
X183059068Y-82589101D01*
X183238392Y-82807608D01*
X183456899Y-82986932D01*
X183589858Y-83058000D01*
X183456899Y-83129068D01*
X183238392Y-83308392D01*
X183059068Y-83526899D01*
X182925818Y-83776192D01*
X182843764Y-84046691D01*
X182816057Y-84328000D01*
X182843764Y-84609309D01*
X182925818Y-84879808D01*
X183059068Y-85129101D01*
X183238392Y-85347608D01*
X183456899Y-85526932D01*
X183706192Y-85660182D01*
X183976691Y-85742236D01*
X184187508Y-85763000D01*
X185128492Y-85763000D01*
X185339309Y-85742236D01*
X185609808Y-85660182D01*
X185859101Y-85526932D01*
X186077608Y-85347608D01*
X186256932Y-85129101D01*
X186390182Y-84879808D01*
X186472236Y-84609309D01*
X186499943Y-84328000D01*
X186472236Y-84046691D01*
X186390182Y-83776192D01*
X186256932Y-83526899D01*
X186077608Y-83308392D01*
X185859101Y-83129068D01*
X185726142Y-83058000D01*
X185859101Y-82986932D01*
X186077608Y-82807608D01*
X186256932Y-82589101D01*
X186390182Y-82339808D01*
X186472236Y-82069309D01*
X186499943Y-81788000D01*
X186472236Y-81506691D01*
X186411236Y-81305600D01*
X186949778Y-81305600D01*
X186987100Y-81309276D01*
X187024422Y-81305600D01*
X187024433Y-81305600D01*
X187136086Y-81294603D01*
X187279347Y-81251146D01*
X187411376Y-81180574D01*
X187527101Y-81085601D01*
X187550904Y-81056597D01*
X188177501Y-80430000D01*
X194599928Y-80430000D01*
X194599928Y-82130000D01*
X194612188Y-82254482D01*
X194648498Y-82374180D01*
X194707463Y-82484494D01*
X194786815Y-82581185D01*
X194883506Y-82660537D01*
X194993820Y-82719502D01*
X195035690Y-82732203D01*
X194934525Y-82833368D01*
X194772010Y-83076589D01*
X194660068Y-83346842D01*
X194603000Y-83633740D01*
X194603000Y-83926260D01*
X194660068Y-84213158D01*
X194772010Y-84483411D01*
X194934525Y-84726632D01*
X195141368Y-84933475D01*
X195384589Y-85095990D01*
X195654842Y-85207932D01*
X195941740Y-85265000D01*
X196234260Y-85265000D01*
X196521158Y-85207932D01*
X196791411Y-85095990D01*
X197034632Y-84933475D01*
X197088000Y-84880107D01*
X197141368Y-84933475D01*
X197384589Y-85095990D01*
X197654842Y-85207932D01*
X197941740Y-85265000D01*
X198234260Y-85265000D01*
X198521158Y-85207932D01*
X198791411Y-85095990D01*
X199034632Y-84933475D01*
X199241475Y-84726632D01*
X199403990Y-84483411D01*
X199515932Y-84213158D01*
X199573000Y-83926260D01*
X199573000Y-83633740D01*
X199515932Y-83346842D01*
X199403990Y-83076589D01*
X199241475Y-82833368D01*
X199034632Y-82626525D01*
X198871590Y-82517584D01*
X198936792Y-82308397D01*
X198088000Y-81459605D01*
X198073858Y-81473748D01*
X197894253Y-81294143D01*
X197908395Y-81280000D01*
X198267605Y-81280000D01*
X199116397Y-82128792D01*
X199365472Y-82051157D01*
X199491371Y-81787117D01*
X199563339Y-81503589D01*
X199578611Y-81211469D01*
X199536599Y-80921981D01*
X199438919Y-80646253D01*
X199365472Y-80508843D01*
X199116397Y-80431208D01*
X198267605Y-81280000D01*
X197908395Y-81280000D01*
X197894253Y-81265858D01*
X198073858Y-81086253D01*
X198088000Y-81100395D01*
X198936792Y-80251603D01*
X198859157Y-80002528D01*
X198595117Y-79876629D01*
X198311589Y-79804661D01*
X198019469Y-79789389D01*
X197729981Y-79831401D01*
X197454253Y-79929081D01*
X197378150Y-79969759D01*
X197292494Y-79899463D01*
X197182180Y-79840498D01*
X197062482Y-79804188D01*
X196938000Y-79791928D01*
X195238000Y-79791928D01*
X195113518Y-79804188D01*
X194993820Y-79840498D01*
X194883506Y-79899463D01*
X194786815Y-79978815D01*
X194707463Y-80075506D01*
X194648498Y-80185820D01*
X194612188Y-80305518D01*
X194599928Y-80430000D01*
X188177501Y-80430000D01*
X190427892Y-78179609D01*
X199307997Y-78179609D01*
X199494073Y-78520766D01*
X199911409Y-78736513D01*
X200362815Y-78866696D01*
X200830946Y-78906313D01*
X201297811Y-78853842D01*
X201745468Y-78711297D01*
X202101927Y-78520766D01*
X202288003Y-78179609D01*
X200798000Y-76689605D01*
X199307997Y-78179609D01*
X190427892Y-78179609D01*
X192064555Y-76542946D01*
X198401687Y-76542946D01*
X198454158Y-77009811D01*
X198596703Y-77457468D01*
X198787234Y-77813927D01*
X199128391Y-78000003D01*
X200618395Y-76510000D01*
X200977605Y-76510000D01*
X202467609Y-78000003D01*
X202808766Y-77813927D01*
X203024513Y-77396591D01*
X203154696Y-76945185D01*
X203194313Y-76477054D01*
X203141842Y-76010189D01*
X202999297Y-75562532D01*
X202808766Y-75206073D01*
X202467609Y-75019997D01*
X200977605Y-76510000D01*
X200618395Y-76510000D01*
X199128391Y-75019997D01*
X198787234Y-75206073D01*
X198571487Y-75623409D01*
X198441304Y-76074815D01*
X198401687Y-76542946D01*
X192064555Y-76542946D01*
X193767110Y-74840391D01*
X199307997Y-74840391D01*
X200798000Y-76330395D01*
X202288003Y-74840391D01*
X202101927Y-74499234D01*
X201684591Y-74283487D01*
X201233185Y-74153304D01*
X200765054Y-74113687D01*
X200298189Y-74166158D01*
X199850532Y-74308703D01*
X199494073Y-74499234D01*
X199307997Y-74840391D01*
X193767110Y-74840391D01*
X200982977Y-67624524D01*
X201050815Y-67707185D01*
X201147506Y-67786537D01*
X201257820Y-67845502D01*
X201276127Y-67851056D01*
X201209688Y-67917495D01*
X201041701Y-68168905D01*
X200925989Y-68448257D01*
X200867000Y-68744816D01*
X200867000Y-69047184D01*
X200925989Y-69343743D01*
X201041701Y-69623095D01*
X201209688Y-69874505D01*
X201423495Y-70088312D01*
X201674905Y-70256299D01*
X201954257Y-70372011D01*
X202250816Y-70431000D01*
X202553184Y-70431000D01*
X202849743Y-70372011D01*
X203129095Y-70256299D01*
X203380505Y-70088312D01*
X203594312Y-69874505D01*
X203762299Y-69623095D01*
X203878011Y-69343743D01*
X203937000Y-69047184D01*
X203937000Y-68744816D01*
X203878011Y-68448257D01*
X203762299Y-68168905D01*
X203594312Y-67917495D01*
X203527873Y-67851056D01*
X203546180Y-67845502D01*
X203656494Y-67786537D01*
X203753185Y-67707185D01*
X203832537Y-67610494D01*
X203891502Y-67500180D01*
X203927812Y-67380482D01*
X203940072Y-67256000D01*
X203940072Y-65456000D01*
X203927812Y-65331518D01*
X203891502Y-65211820D01*
X203832537Y-65101506D01*
X203753185Y-65004815D01*
X203656494Y-64925463D01*
X203546180Y-64866498D01*
X203426482Y-64830188D01*
X203302000Y-64817928D01*
X201502000Y-64817928D01*
X201377518Y-64830188D01*
X201257820Y-64866498D01*
X201147506Y-64925463D01*
X201050815Y-65004815D01*
X200971463Y-65101506D01*
X200912498Y-65211820D01*
X200876188Y-65331518D01*
X200863928Y-65456000D01*
X200863928Y-65661425D01*
X200752424Y-65721026D01*
X200636699Y-65815999D01*
X200612901Y-65844997D01*
X186672299Y-79785600D01*
X186394492Y-79785600D01*
X186472236Y-79529309D01*
X186499943Y-79248000D01*
X186472236Y-78966691D01*
X186390182Y-78696192D01*
X186256932Y-78446899D01*
X186077608Y-78228392D01*
X185859101Y-78049068D01*
X185726142Y-77978000D01*
X185859101Y-77906932D01*
X186077608Y-77727608D01*
X186256932Y-77509101D01*
X186390182Y-77259808D01*
X186472236Y-76989309D01*
X186499943Y-76708000D01*
X186472236Y-76426691D01*
X186390182Y-76156192D01*
X186256932Y-75906899D01*
X186077608Y-75688392D01*
X185859101Y-75509068D01*
X185726142Y-75438000D01*
X185859101Y-75366932D01*
X186077608Y-75187608D01*
X186256932Y-74969101D01*
X186390182Y-74719808D01*
X186472236Y-74449309D01*
X186499943Y-74168000D01*
X186472236Y-73886691D01*
X186390182Y-73616192D01*
X186256932Y-73366899D01*
X186077608Y-73148392D01*
X185859101Y-72969068D01*
X185726142Y-72898000D01*
X185859101Y-72826932D01*
X186077608Y-72647608D01*
X186256932Y-72429101D01*
X186390182Y-72179808D01*
X186472236Y-71909309D01*
X186499943Y-71628000D01*
X186472236Y-71346691D01*
X186390182Y-71076192D01*
X186256932Y-70826899D01*
X186077608Y-70608392D01*
X185859101Y-70429068D01*
X185731259Y-70360735D01*
X185960839Y-70210601D01*
X186162500Y-70012895D01*
X186321715Y-69779646D01*
X186432367Y-69519818D01*
X186449904Y-69437039D01*
X186327915Y-69215000D01*
X184785000Y-69215000D01*
X184785000Y-69235000D01*
X184531000Y-69235000D01*
X184531000Y-69215000D01*
X182988085Y-69215000D01*
X182866096Y-69437039D01*
X182883633Y-69519818D01*
X182994285Y-69779646D01*
X183153500Y-70012895D01*
X183355161Y-70210601D01*
X183584741Y-70360735D01*
X183456899Y-70429068D01*
X183238392Y-70608392D01*
X183059068Y-70826899D01*
X182925818Y-71076192D01*
X182843764Y-71346691D01*
X182816057Y-71628000D01*
X182843764Y-71909309D01*
X182925818Y-72179808D01*
X183059068Y-72429101D01*
X183238392Y-72647608D01*
X183456899Y-72826932D01*
X183589858Y-72898000D01*
X183456899Y-72969068D01*
X183238392Y-73148392D01*
X183059068Y-73366899D01*
X182925818Y-73616192D01*
X182843764Y-73886691D01*
X182816057Y-74168000D01*
X182843764Y-74449309D01*
X182925818Y-74719808D01*
X183059068Y-74969101D01*
X183238392Y-75187608D01*
X183456899Y-75366932D01*
X183589858Y-75438000D01*
X183456899Y-75509068D01*
X183238392Y-75688392D01*
X183059068Y-75906899D01*
X182925818Y-76156192D01*
X182843764Y-76426691D01*
X182816057Y-76708000D01*
X182843764Y-76989309D01*
X182925818Y-77259808D01*
X183059068Y-77509101D01*
X183238392Y-77727608D01*
X183456899Y-77906932D01*
X183589858Y-77978000D01*
X183456899Y-78049068D01*
X183238392Y-78228392D01*
X183059068Y-78446899D01*
X182925818Y-78696192D01*
X182843764Y-78966691D01*
X182816057Y-79248000D01*
X182843764Y-79529309D01*
X182925818Y-79799808D01*
X182985470Y-79911409D01*
X182870699Y-80005599D01*
X182846901Y-80034597D01*
X178848180Y-84033319D01*
X178770182Y-83776192D01*
X178636932Y-83526899D01*
X178457608Y-83308392D01*
X178239101Y-83129068D01*
X178106142Y-83058000D01*
X178239101Y-82986932D01*
X178457608Y-82807608D01*
X178636932Y-82589101D01*
X178770182Y-82339808D01*
X178852236Y-82069309D01*
X178879943Y-81788000D01*
X178852236Y-81506691D01*
X178770182Y-81236192D01*
X178636932Y-80986899D01*
X178457608Y-80768392D01*
X178239101Y-80589068D01*
X178106142Y-80518000D01*
X178239101Y-80446932D01*
X178457608Y-80267608D01*
X178636932Y-80049101D01*
X178770182Y-79799808D01*
X178852236Y-79529309D01*
X178879943Y-79248000D01*
X178852236Y-78966691D01*
X178770182Y-78696192D01*
X178636932Y-78446899D01*
X178457608Y-78228392D01*
X178239101Y-78049068D01*
X178106142Y-77978000D01*
X178239101Y-77906932D01*
X178457608Y-77727608D01*
X178636932Y-77509101D01*
X178770182Y-77259808D01*
X178852236Y-76989309D01*
X178879943Y-76708000D01*
X178852236Y-76426691D01*
X178770182Y-76156192D01*
X178636932Y-75906899D01*
X178457608Y-75688392D01*
X178239101Y-75509068D01*
X178106142Y-75438000D01*
X178239101Y-75366932D01*
X178457608Y-75187608D01*
X178636932Y-74969101D01*
X178770182Y-74719808D01*
X178852236Y-74449309D01*
X178879943Y-74168000D01*
X178852236Y-73886691D01*
X178770182Y-73616192D01*
X178636932Y-73366899D01*
X178457608Y-73148392D01*
X178239101Y-72969068D01*
X178106142Y-72898000D01*
X178239101Y-72826932D01*
X178457608Y-72647608D01*
X178636932Y-72429101D01*
X178770182Y-72179808D01*
X178852236Y-71909309D01*
X178879943Y-71628000D01*
X178852236Y-71346691D01*
X178770182Y-71076192D01*
X178636932Y-70826899D01*
X178457608Y-70608392D01*
X178344518Y-70515581D01*
X178362482Y-70513812D01*
X178482180Y-70477502D01*
X178592494Y-70418537D01*
X178689185Y-70339185D01*
X178768537Y-70242494D01*
X178827502Y-70132180D01*
X178863812Y-70012482D01*
X178876072Y-69888000D01*
X178876072Y-68738961D01*
X182866096Y-68738961D01*
X182988085Y-68961000D01*
X184531000Y-68961000D01*
X184531000Y-67653000D01*
X184785000Y-67653000D01*
X184785000Y-68961000D01*
X186327915Y-68961000D01*
X186449904Y-68738961D01*
X186432367Y-68656182D01*
X186321715Y-68396354D01*
X186162500Y-68163105D01*
X185960839Y-67965399D01*
X185724483Y-67810834D01*
X185462514Y-67705350D01*
X185185000Y-67653000D01*
X184785000Y-67653000D01*
X184531000Y-67653000D01*
X184131000Y-67653000D01*
X183853486Y-67705350D01*
X183591517Y-67810834D01*
X183355161Y-67965399D01*
X183153500Y-68163105D01*
X182994285Y-68396354D01*
X182883633Y-68656182D01*
X182866096Y-68738961D01*
X178876072Y-68738961D01*
X178876072Y-68288000D01*
X178863812Y-68163518D01*
X178827502Y-68043820D01*
X178768537Y-67933506D01*
X178689185Y-67836815D01*
X178592494Y-67757463D01*
X178482180Y-67698498D01*
X178362482Y-67662188D01*
X178238000Y-67649928D01*
X175838000Y-67649928D01*
X175713518Y-67662188D01*
X175593820Y-67698498D01*
X175483506Y-67757463D01*
X175386815Y-67836815D01*
X175307463Y-67933506D01*
X175248498Y-68043820D01*
X175212188Y-68163518D01*
X175199928Y-68288000D01*
X175199928Y-69888000D01*
X175212188Y-70012482D01*
X175248498Y-70132180D01*
X175307463Y-70242494D01*
X175386815Y-70339185D01*
X175483506Y-70418537D01*
X175593820Y-70477502D01*
X175713518Y-70513812D01*
X175731482Y-70515581D01*
X175618392Y-70608392D01*
X175439068Y-70826899D01*
X175305818Y-71076192D01*
X175223764Y-71346691D01*
X175196057Y-71628000D01*
X175223764Y-71909309D01*
X175305818Y-72179808D01*
X175439068Y-72429101D01*
X175618392Y-72647608D01*
X175836899Y-72826932D01*
X175969858Y-72898000D01*
X175836899Y-72969068D01*
X175618392Y-73148392D01*
X175439068Y-73366899D01*
X175305818Y-73616192D01*
X175223764Y-73886691D01*
X175196057Y-74168000D01*
X175223764Y-74449309D01*
X175305818Y-74719808D01*
X175439068Y-74969101D01*
X175618392Y-75187608D01*
X175836899Y-75366932D01*
X175969858Y-75438000D01*
X175836899Y-75509068D01*
X175618392Y-75688392D01*
X175439068Y-75906899D01*
X175305818Y-76156192D01*
X175223764Y-76426691D01*
X175196057Y-76708000D01*
X175223764Y-76989309D01*
X175305818Y-77259808D01*
X175439068Y-77509101D01*
X175618392Y-77727608D01*
X175836899Y-77906932D01*
X175969858Y-77978000D01*
X175836899Y-78049068D01*
X175618392Y-78228392D01*
X175439068Y-78446899D01*
X175305818Y-78696192D01*
X175223764Y-78966691D01*
X175196057Y-79248000D01*
X175223764Y-79529309D01*
X175305818Y-79799808D01*
X175439068Y-80049101D01*
X175618392Y-80267608D01*
X175836899Y-80446932D01*
X175969858Y-80518000D01*
X175836899Y-80589068D01*
X175618392Y-80768392D01*
X175439068Y-80986899D01*
X175305818Y-81236192D01*
X175223764Y-81506691D01*
X175196057Y-81788000D01*
X175223764Y-82069309D01*
X175305818Y-82339808D01*
X175439068Y-82589101D01*
X175618392Y-82807608D01*
X175836899Y-82986932D01*
X175969858Y-83058000D01*
X175836899Y-83129068D01*
X175618392Y-83308392D01*
X175439068Y-83526899D01*
X175305818Y-83776192D01*
X175223764Y-84046691D01*
X175196057Y-84328000D01*
X175223764Y-84609309D01*
X175305818Y-84879808D01*
X175439068Y-85129101D01*
X175618392Y-85347608D01*
X175836899Y-85526932D01*
X176086192Y-85660182D01*
X176356691Y-85742236D01*
X176567508Y-85763000D01*
X177118498Y-85763000D01*
X161693598Y-101187901D01*
X161659537Y-101136926D01*
X161615600Y-101092989D01*
X161615600Y-79358922D01*
X161619276Y-79321599D01*
X161615600Y-79284276D01*
X161615600Y-79284267D01*
X161604603Y-79172614D01*
X161561146Y-79029353D01*
X161542048Y-78993624D01*
X161490574Y-78897323D01*
X161419399Y-78810597D01*
X161395601Y-78781599D01*
X161366604Y-78757802D01*
X161089170Y-78480369D01*
X161112200Y-78364589D01*
X161112200Y-78099411D01*
X161060467Y-77839328D01*
X160958987Y-77594335D01*
X160811662Y-77373847D01*
X160624153Y-77186338D01*
X160403665Y-77039013D01*
X160217740Y-76962000D01*
X160403665Y-76884987D01*
X160624153Y-76737662D01*
X160811662Y-76550153D01*
X160958987Y-76329665D01*
X161060467Y-76084672D01*
X161112200Y-75824589D01*
X161112200Y-75559411D01*
X161060467Y-75299328D01*
X160958987Y-75054335D01*
X160811662Y-74833847D01*
X160624153Y-74646338D01*
X160403665Y-74499013D01*
X160158672Y-74397533D01*
X159898589Y-74345800D01*
X159633411Y-74345800D01*
X159373328Y-74397533D01*
X159128335Y-74499013D01*
X158907847Y-74646338D01*
X158720338Y-74833847D01*
X158573013Y-75054335D01*
X158496000Y-75240260D01*
X158418987Y-75054335D01*
X158271662Y-74833847D01*
X158084153Y-74646338D01*
X157863665Y-74499013D01*
X157677740Y-74422000D01*
X157863665Y-74344987D01*
X158084153Y-74197662D01*
X158271662Y-74010153D01*
X158418987Y-73789665D01*
X158520467Y-73544672D01*
X158572200Y-73284589D01*
X158572200Y-73019411D01*
X158520467Y-72759328D01*
X158418987Y-72514335D01*
X158271662Y-72293847D01*
X158084153Y-72106338D01*
X157863665Y-71959013D01*
X157618672Y-71857533D01*
X157358589Y-71805800D01*
X157093411Y-71805800D01*
X156944200Y-71835479D01*
X156944200Y-65985661D01*
X157139571Y-66080704D01*
X157451108Y-66162384D01*
X157772595Y-66181718D01*
X158091675Y-66137961D01*
X158396088Y-66032795D01*
X158570044Y-65939814D01*
X158665808Y-65675413D01*
X157710000Y-64719605D01*
X157695858Y-64733748D01*
X157516253Y-64554143D01*
X157530395Y-64540000D01*
X157889605Y-64540000D01*
X158845413Y-65495808D01*
X159109814Y-65400044D01*
X159250704Y-65110429D01*
X159332384Y-64798892D01*
X159351718Y-64477405D01*
X159307961Y-64158325D01*
X159202795Y-63853912D01*
X159109814Y-63679956D01*
X158845413Y-63584192D01*
X157889605Y-64540000D01*
X157530395Y-64540000D01*
X157516253Y-64525858D01*
X157695858Y-64346253D01*
X157710000Y-64360395D01*
X158665808Y-63404587D01*
X158570044Y-63140186D01*
X158280429Y-62999296D01*
X157968892Y-62917616D01*
X157647405Y-62898282D01*
X157328325Y-62942039D01*
X157023912Y-63047205D01*
X156944200Y-63089812D01*
X156944200Y-61880601D01*
X157218624Y-61606177D01*
X157233088Y-61612168D01*
X157548967Y-61675000D01*
X157871033Y-61675000D01*
X158186912Y-61612168D01*
X158484463Y-61488918D01*
X158752252Y-61309987D01*
X158979987Y-61082252D01*
X159158918Y-60814463D01*
X159282168Y-60516912D01*
X159345000Y-60201033D01*
X159345000Y-59878967D01*
X159282168Y-59563088D01*
X159158918Y-59265537D01*
X158979987Y-58997748D01*
X158752252Y-58770013D01*
X158484463Y-58591082D01*
X158186912Y-58467832D01*
X157871033Y-58405000D01*
X157548967Y-58405000D01*
X157233088Y-58467832D01*
X156935537Y-58591082D01*
X156667748Y-58770013D01*
X156440013Y-58997748D01*
X156261082Y-59265537D01*
X156137832Y-59563088D01*
X156075000Y-59878967D01*
X156075000Y-60201033D01*
X156137832Y-60516912D01*
X156143823Y-60531376D01*
X155673203Y-61001996D01*
X155644199Y-61025799D01*
X155597870Y-61082252D01*
X155549226Y-61141524D01*
X155485996Y-61259818D01*
X155478654Y-61273554D01*
X155435197Y-61416815D01*
X155424200Y-61528468D01*
X155424200Y-61528478D01*
X155420524Y-61565800D01*
X155424200Y-61603122D01*
X155424201Y-70470799D01*
X151126323Y-66172921D01*
X151272595Y-66181718D01*
X151591675Y-66137961D01*
X151896088Y-66032795D01*
X152070044Y-65939814D01*
X152165808Y-65675413D01*
X151210000Y-64719605D01*
X151195858Y-64733748D01*
X151016253Y-64554143D01*
X151030395Y-64540000D01*
X151389605Y-64540000D01*
X152345413Y-65495808D01*
X152609814Y-65400044D01*
X152750704Y-65110429D01*
X152832384Y-64798892D01*
X152851718Y-64477405D01*
X152807961Y-64158325D01*
X152702795Y-63853912D01*
X152609814Y-63679956D01*
X152345413Y-63584192D01*
X151389605Y-64540000D01*
X151030395Y-64540000D01*
X150074587Y-63584192D01*
X149810186Y-63679956D01*
X149669296Y-63969571D01*
X149587616Y-64281108D01*
X149568282Y-64602595D01*
X149570235Y-64616833D01*
X148357989Y-63404587D01*
X150254192Y-63404587D01*
X151210000Y-64360395D01*
X152165808Y-63404587D01*
X152070044Y-63140186D01*
X151780429Y-62999296D01*
X151468892Y-62917616D01*
X151147405Y-62898282D01*
X150828325Y-62942039D01*
X150523912Y-63047205D01*
X150349956Y-63140186D01*
X150254192Y-63404587D01*
X148357989Y-63404587D01*
X145447104Y-60493703D01*
X145423301Y-60464699D01*
X145307576Y-60369726D01*
X145175547Y-60299154D01*
X145032286Y-60255697D01*
X144920633Y-60244700D01*
X144920622Y-60244700D01*
X144883300Y-60241024D01*
X144845978Y-60244700D01*
X88705325Y-60244700D01*
X88668000Y-60241024D01*
X88630675Y-60244700D01*
X88630667Y-60244700D01*
X88519014Y-60255697D01*
X88375753Y-60299154D01*
X88243724Y-60369726D01*
X88127999Y-60464699D01*
X88104196Y-60493703D01*
X87694998Y-60902901D01*
X87666000Y-60926699D01*
X87642202Y-60955697D01*
X87642201Y-60955698D01*
X87571026Y-61042424D01*
X87500454Y-61174454D01*
X87474560Y-61259818D01*
X87460517Y-61306115D01*
X87456998Y-61317715D01*
X87452059Y-61367860D01*
X87404899Y-61393068D01*
X87186392Y-61572393D01*
X87007068Y-61790900D01*
X86936000Y-61923858D01*
X86864932Y-61790899D01*
X86685607Y-61572392D01*
X86467100Y-61393068D01*
X86217807Y-61259818D01*
X85947308Y-61177764D01*
X85666000Y-61150057D01*
X85384691Y-61177764D01*
X85114192Y-61259818D01*
X84864899Y-61393068D01*
X84646392Y-61572393D01*
X84467068Y-61790900D01*
X84396000Y-61923858D01*
X84324932Y-61790899D01*
X84145607Y-61572392D01*
X83927100Y-61393068D01*
X83677807Y-61259818D01*
X83407308Y-61177764D01*
X83126000Y-61150057D01*
X82844691Y-61177764D01*
X82574192Y-61259818D01*
X82324899Y-61393068D01*
X82106392Y-61572393D01*
X81927068Y-61790900D01*
X81856000Y-61923858D01*
X81784932Y-61790899D01*
X81605607Y-61572392D01*
X81387100Y-61393068D01*
X81137807Y-61259818D01*
X80867308Y-61177764D01*
X80586000Y-61150057D01*
X80304691Y-61177764D01*
X80034192Y-61259818D01*
X79784899Y-61393068D01*
X79566392Y-61572393D01*
X79387068Y-61790900D01*
X79253818Y-62040193D01*
X79171764Y-62310692D01*
X79151000Y-62521509D01*
X79151000Y-63462492D01*
X79171764Y-63673309D01*
X79253818Y-63943808D01*
X79387068Y-64193101D01*
X79566393Y-64411608D01*
X79784900Y-64590932D01*
X80034193Y-64724182D01*
X80304692Y-64806236D01*
X80586000Y-64833943D01*
X80867309Y-64806236D01*
X81137808Y-64724182D01*
X81387101Y-64590932D01*
X81605608Y-64411608D01*
X81784932Y-64193101D01*
X81856000Y-64060142D01*
X81927068Y-64193101D01*
X82106393Y-64411608D01*
X82324900Y-64590932D01*
X82574193Y-64724182D01*
X82844692Y-64806236D01*
X83126000Y-64833943D01*
X83407309Y-64806236D01*
X83677808Y-64724182D01*
X83927101Y-64590932D01*
X84145608Y-64411608D01*
X84324932Y-64193101D01*
X84396000Y-64060142D01*
X84467068Y-64193101D01*
X84646393Y-64411608D01*
X84674128Y-64434370D01*
X84025798Y-65082701D01*
X83996800Y-65106499D01*
X83973002Y-65135497D01*
X83973001Y-65135498D01*
X83901826Y-65222224D01*
X83831254Y-65354254D01*
X83816603Y-65402554D01*
X83788545Y-65495054D01*
X83787798Y-65497515D01*
X83773124Y-65646500D01*
X83776801Y-65683833D01*
X83776800Y-76552731D01*
X83677807Y-76499818D01*
X83407308Y-76417764D01*
X83126000Y-76390057D01*
X82844691Y-76417764D01*
X82574192Y-76499818D01*
X82324899Y-76633068D01*
X82106392Y-76812393D01*
X82013581Y-76925483D01*
X82011812Y-76907518D01*
X81975502Y-76787820D01*
X81916537Y-76677506D01*
X81837185Y-76580815D01*
X81740494Y-76501463D01*
X81630180Y-76442498D01*
X81510482Y-76406188D01*
X81386000Y-76393928D01*
X79786000Y-76393928D01*
X79661518Y-76406188D01*
X79541820Y-76442498D01*
X79431506Y-76501463D01*
X79334815Y-76580815D01*
X79255463Y-76677506D01*
X79196498Y-76787820D01*
X79160188Y-76907518D01*
X79147928Y-77032000D01*
X64210000Y-77032000D01*
X64210000Y-59878967D01*
X149575000Y-59878967D01*
X149575000Y-60201033D01*
X149637832Y-60516912D01*
X149761082Y-60814463D01*
X149940013Y-61082252D01*
X150167748Y-61309987D01*
X150435537Y-61488918D01*
X150733088Y-61612168D01*
X151048967Y-61675000D01*
X151371033Y-61675000D01*
X151686912Y-61612168D01*
X151984463Y-61488918D01*
X152252252Y-61309987D01*
X152479987Y-61082252D01*
X152658918Y-60814463D01*
X152782168Y-60516912D01*
X152845000Y-60201033D01*
X152845000Y-59878967D01*
X152782168Y-59563088D01*
X152658918Y-59265537D01*
X152479987Y-58997748D01*
X152252252Y-58770013D01*
X151984463Y-58591082D01*
X151686912Y-58467832D01*
X151371033Y-58405000D01*
X151048967Y-58405000D01*
X150733088Y-58467832D01*
X150435537Y-58591082D01*
X150167748Y-58770013D01*
X149940013Y-58997748D01*
X149761082Y-59265537D01*
X149637832Y-59563088D01*
X149575000Y-59878967D01*
X64210000Y-59878967D01*
X64210000Y-54375098D01*
X64925000Y-54375098D01*
X64925000Y-54844902D01*
X65016654Y-55305679D01*
X65196440Y-55739721D01*
X65457450Y-56130349D01*
X65789651Y-56462550D01*
X66180279Y-56723560D01*
X66614321Y-56903346D01*
X67075098Y-56995000D01*
X67544902Y-56995000D01*
X68005679Y-56903346D01*
X68439721Y-56723560D01*
X68830349Y-56462550D01*
X69162550Y-56130349D01*
X69423560Y-55739721D01*
X69603346Y-55305679D01*
X69695000Y-54844902D01*
X69695000Y-54375098D01*
X202085000Y-54375098D01*
X202085000Y-54844902D01*
X202176654Y-55305679D01*
X202356440Y-55739721D01*
X202617450Y-56130349D01*
X202949651Y-56462550D01*
X203340279Y-56723560D01*
X203774321Y-56903346D01*
X204235098Y-56995000D01*
X204704902Y-56995000D01*
X205165679Y-56903346D01*
X205599721Y-56723560D01*
X205990349Y-56462550D01*
X206322550Y-56130349D01*
X206583560Y-55739721D01*
X206763346Y-55305679D01*
X206855000Y-54844902D01*
X206855000Y-54375098D01*
X206763346Y-53914321D01*
X206583560Y-53480279D01*
X206322550Y-53089651D01*
X205990349Y-52757450D01*
X205599721Y-52496440D01*
X205165679Y-52316654D01*
X204704902Y-52225000D01*
X204235098Y-52225000D01*
X203774321Y-52316654D01*
X203340279Y-52496440D01*
X202949651Y-52757450D01*
X202617450Y-53089651D01*
X202356440Y-53480279D01*
X202176654Y-53914321D01*
X202085000Y-54375098D01*
X69695000Y-54375098D01*
X69603346Y-53914321D01*
X69423560Y-53480279D01*
X69162550Y-53089651D01*
X68830349Y-52757450D01*
X68439721Y-52496440D01*
X68005679Y-52316654D01*
X67544902Y-52225000D01*
X67075098Y-52225000D01*
X66614321Y-52316654D01*
X66180279Y-52496440D01*
X65789651Y-52757450D01*
X65457450Y-53089651D01*
X65196440Y-53480279D01*
X65016654Y-53914321D01*
X64925000Y-54375098D01*
X64210000Y-54375098D01*
X64210000Y-51510000D01*
X207570001Y-51510000D01*
X207570000Y-131370000D01*
G04 #@! TA.AperFunction,Conductor*
D28*
G36*
X207570000Y-131370000D02*
G01*
X64210000Y-131370000D01*
X64210000Y-128035098D01*
X64925000Y-128035098D01*
X64925000Y-128504902D01*
X65016654Y-128965679D01*
X65196440Y-129399721D01*
X65457450Y-129790349D01*
X65789651Y-130122550D01*
X66180279Y-130383560D01*
X66614321Y-130563346D01*
X67075098Y-130655000D01*
X67544902Y-130655000D01*
X68005679Y-130563346D01*
X68439721Y-130383560D01*
X68830349Y-130122550D01*
X69162550Y-129790349D01*
X69423560Y-129399721D01*
X69603346Y-128965679D01*
X69695000Y-128504902D01*
X69695000Y-128035098D01*
X202085000Y-128035098D01*
X202085000Y-128504902D01*
X202176654Y-128965679D01*
X202356440Y-129399721D01*
X202617450Y-129790349D01*
X202949651Y-130122550D01*
X203340279Y-130383560D01*
X203774321Y-130563346D01*
X204235098Y-130655000D01*
X204704902Y-130655000D01*
X205165679Y-130563346D01*
X205599721Y-130383560D01*
X205990349Y-130122550D01*
X206322550Y-129790349D01*
X206583560Y-129399721D01*
X206763346Y-128965679D01*
X206855000Y-128504902D01*
X206855000Y-128035098D01*
X206763346Y-127574321D01*
X206583560Y-127140279D01*
X206322550Y-126749651D01*
X205990349Y-126417450D01*
X205599721Y-126156440D01*
X205165679Y-125976654D01*
X204704902Y-125885000D01*
X204235098Y-125885000D01*
X203774321Y-125976654D01*
X203340279Y-126156440D01*
X202949651Y-126417450D01*
X202617450Y-126749651D01*
X202356440Y-127140279D01*
X202176654Y-127574321D01*
X202085000Y-128035098D01*
X69695000Y-128035098D01*
X69603346Y-127574321D01*
X69423560Y-127140279D01*
X69162550Y-126749651D01*
X68830349Y-126417450D01*
X68439721Y-126156440D01*
X68005679Y-125976654D01*
X67544902Y-125885000D01*
X67075098Y-125885000D01*
X66614321Y-125976654D01*
X66180279Y-126156440D01*
X65789651Y-126417450D01*
X65457450Y-126749651D01*
X65196440Y-127140279D01*
X65016654Y-127574321D01*
X64925000Y-128035098D01*
X64210000Y-128035098D01*
X64210000Y-118580000D01*
X74507928Y-118580000D01*
X74507928Y-120180000D01*
X74520188Y-120304482D01*
X74556498Y-120424180D01*
X74615463Y-120534494D01*
X74694815Y-120631185D01*
X74791506Y-120710537D01*
X74901820Y-120769502D01*
X75021518Y-120805812D01*
X75146000Y-120818072D01*
X76746000Y-120818072D01*
X76870482Y-120805812D01*
X76990180Y-120769502D01*
X77100494Y-120710537D01*
X77197185Y-120631185D01*
X77276537Y-120534494D01*
X77335502Y-120424180D01*
X77351117Y-120372702D01*
X77632903Y-120372702D01*
X77704486Y-120616671D01*
X77959996Y-120737571D01*
X78234184Y-120806300D01*
X78516512Y-120820217D01*
X78796130Y-120778787D01*
X79062292Y-120683603D01*
X79187514Y-120616671D01*
X79259097Y-120372702D01*
X78446000Y-119559605D01*
X77632903Y-120372702D01*
X77351117Y-120372702D01*
X77371812Y-120304482D01*
X77384072Y-120180000D01*
X77384072Y-120172785D01*
X77453298Y-120193097D01*
X78266395Y-119380000D01*
X78625605Y-119380000D01*
X79438702Y-120193097D01*
X79682671Y-120121514D01*
X79803571Y-119866004D01*
X79872300Y-119591816D01*
X79886217Y-119309488D01*
X79844787Y-119029870D01*
X79749603Y-118763708D01*
X79682671Y-118638486D01*
X79438702Y-118566903D01*
X78625605Y-119380000D01*
X78266395Y-119380000D01*
X77453298Y-118566903D01*
X77384072Y-118587215D01*
X77384072Y-118580000D01*
X77371812Y-118455518D01*
X77351118Y-118387298D01*
X77632903Y-118387298D01*
X78446000Y-119200395D01*
X79259097Y-118387298D01*
X79187514Y-118143329D01*
X78932004Y-118022429D01*
X78657816Y-117953700D01*
X78375488Y-117939783D01*
X78095870Y-117981213D01*
X77829708Y-118076397D01*
X77704486Y-118143329D01*
X77632903Y-118387298D01*
X77351118Y-118387298D01*
X77335502Y-118335820D01*
X77276537Y-118225506D01*
X77197185Y-118128815D01*
X77100494Y-118049463D01*
X76990180Y-117990498D01*
X76870482Y-117954188D01*
X76746000Y-117941928D01*
X75146000Y-117941928D01*
X75021518Y-117954188D01*
X74901820Y-117990498D01*
X74791506Y-118049463D01*
X74694815Y-118128815D01*
X74615463Y-118225506D01*
X74556498Y-118335820D01*
X74520188Y-118455518D01*
X74507928Y-118580000D01*
X64210000Y-118580000D01*
X64210000Y-77032000D01*
X79147928Y-77032000D01*
X79147928Y-79432000D01*
X79160188Y-79556482D01*
X79196498Y-79676180D01*
X79255463Y-79786494D01*
X79334815Y-79883185D01*
X79431506Y-79962537D01*
X79541820Y-80021502D01*
X79661518Y-80057812D01*
X79786000Y-80070072D01*
X79891425Y-80070072D01*
X79951026Y-80181576D01*
X80022201Y-80268302D01*
X80046000Y-80297301D01*
X80074998Y-80321099D01*
X80951300Y-81197402D01*
X80951300Y-86939242D01*
X80867308Y-86913764D01*
X80586000Y-86886057D01*
X80304691Y-86913764D01*
X80034192Y-86995818D01*
X79784899Y-87129068D01*
X79566392Y-87308393D01*
X79387068Y-87526900D01*
X79253818Y-87776193D01*
X79171764Y-88046692D01*
X79151000Y-88257509D01*
X79151000Y-89198492D01*
X79171764Y-89409309D01*
X79253818Y-89679808D01*
X79387068Y-89929101D01*
X79566393Y-90147608D01*
X79784900Y-90326932D01*
X80034193Y-90460182D01*
X80304692Y-90542236D01*
X80586000Y-90569943D01*
X80867309Y-90542236D01*
X80951300Y-90516758D01*
X80951301Y-101002597D01*
X80074998Y-101878901D01*
X80046000Y-101902699D01*
X80022202Y-101931697D01*
X80022201Y-101931698D01*
X79951026Y-102018424D01*
X79891425Y-102129928D01*
X79786000Y-102129928D01*
X79661518Y-102142188D01*
X79541820Y-102178498D01*
X79431506Y-102237463D01*
X79334815Y-102316815D01*
X79255463Y-102413506D01*
X79196498Y-102523820D01*
X79160188Y-102643518D01*
X79147928Y-102768000D01*
X79147928Y-105168000D01*
X79160188Y-105292482D01*
X79196498Y-105412180D01*
X79255463Y-105522494D01*
X79334815Y-105619185D01*
X79431506Y-105698537D01*
X79541820Y-105757502D01*
X79661518Y-105793812D01*
X79786000Y-105806072D01*
X81386000Y-105806072D01*
X81510482Y-105793812D01*
X81630180Y-105757502D01*
X81740494Y-105698537D01*
X81837185Y-105619185D01*
X81916537Y-105522494D01*
X81975502Y-105412180D01*
X82011812Y-105292482D01*
X82013581Y-105274517D01*
X82106393Y-105387608D01*
X82324900Y-105566932D01*
X82574193Y-105700182D01*
X82844692Y-105782236D01*
X83126000Y-105809943D01*
X83407309Y-105782236D01*
X83677808Y-105700182D01*
X83927101Y-105566932D01*
X84145608Y-105387608D01*
X84324932Y-105169101D01*
X84396000Y-105036142D01*
X84467068Y-105169101D01*
X84646393Y-105387608D01*
X84864900Y-105566932D01*
X85114193Y-105700182D01*
X85384692Y-105782236D01*
X85666000Y-105809943D01*
X85947309Y-105782236D01*
X86217808Y-105700182D01*
X86467101Y-105566932D01*
X86685608Y-105387608D01*
X86864932Y-105169101D01*
X86936000Y-105036142D01*
X87007068Y-105169101D01*
X87186393Y-105387608D01*
X87404900Y-105566932D01*
X87654193Y-105700182D01*
X87924692Y-105782236D01*
X88206000Y-105809943D01*
X88487309Y-105782236D01*
X88757808Y-105700182D01*
X89007101Y-105566932D01*
X89115923Y-105477624D01*
X103720226Y-120081928D01*
X102578000Y-120081928D01*
X102453518Y-120094188D01*
X102333820Y-120130498D01*
X102223506Y-120189463D01*
X102126815Y-120268815D01*
X102047463Y-120365506D01*
X101988498Y-120475820D01*
X101952188Y-120595518D01*
X101939928Y-120720000D01*
X101939928Y-123120000D01*
X101952188Y-123244482D01*
X101988498Y-123364180D01*
X102047463Y-123474494D01*
X102126815Y-123571185D01*
X102223506Y-123650537D01*
X102333820Y-123709502D01*
X102453518Y-123745812D01*
X102578000Y-123758072D01*
X104178000Y-123758072D01*
X104302482Y-123745812D01*
X104422180Y-123709502D01*
X104532494Y-123650537D01*
X104553773Y-123633074D01*
X105390601Y-124469903D01*
X105414399Y-124498901D01*
X105443397Y-124522699D01*
X105530123Y-124593874D01*
X105662153Y-124664446D01*
X105805414Y-124707903D01*
X105917067Y-124718900D01*
X105917077Y-124718900D01*
X105954400Y-124722576D01*
X105991723Y-124718900D01*
X115527078Y-124718900D01*
X115564400Y-124722576D01*
X115601722Y-124718900D01*
X115601733Y-124718900D01*
X115713386Y-124707903D01*
X115856647Y-124664446D01*
X115988676Y-124593874D01*
X116104401Y-124498901D01*
X116128203Y-124469898D01*
X116589002Y-124009100D01*
X116618001Y-123985301D01*
X116661847Y-123931875D01*
X116712974Y-123869577D01*
X116783546Y-123737547D01*
X116784550Y-123734236D01*
X116827003Y-123594286D01*
X116831942Y-123544139D01*
X116879101Y-123518932D01*
X117097608Y-123339608D01*
X117276932Y-123121101D01*
X117345265Y-122993259D01*
X117495399Y-123222839D01*
X117693105Y-123424500D01*
X117926354Y-123583715D01*
X118186182Y-123694367D01*
X118268961Y-123711904D01*
X118491000Y-123589915D01*
X118491000Y-122047000D01*
X118745000Y-122047000D01*
X118745000Y-123589915D01*
X118967039Y-123711904D01*
X119049818Y-123694367D01*
X119309646Y-123583715D01*
X119542895Y-123424500D01*
X119740601Y-123222839D01*
X119895166Y-122986483D01*
X120000650Y-122724514D01*
X120053000Y-122447000D01*
X120053000Y-122047000D01*
X118745000Y-122047000D01*
X118491000Y-122047000D01*
X118471000Y-122047000D01*
X118471000Y-121793000D01*
X118491000Y-121793000D01*
X118491000Y-120250085D01*
X118745000Y-120250085D01*
X118745000Y-121793000D01*
X120053000Y-121793000D01*
X120053000Y-121393000D01*
X120000650Y-121115486D01*
X119895166Y-120853517D01*
X119740601Y-120617161D01*
X119542895Y-120415500D01*
X119309646Y-120256285D01*
X119049818Y-120145633D01*
X118967039Y-120128096D01*
X118745000Y-120250085D01*
X118491000Y-120250085D01*
X118268961Y-120128096D01*
X118186182Y-120145633D01*
X117926354Y-120256285D01*
X117693105Y-120415500D01*
X117495399Y-120617161D01*
X117345265Y-120846741D01*
X117276932Y-120718899D01*
X117097607Y-120500392D01*
X116879100Y-120321068D01*
X116629807Y-120187818D01*
X116359308Y-120105764D01*
X116078000Y-120078057D01*
X115910330Y-120094571D01*
X119964901Y-116040000D01*
X131657928Y-116040000D01*
X131657928Y-117640000D01*
X131670188Y-117764482D01*
X131706498Y-117884180D01*
X131765463Y-117994494D01*
X131844815Y-118091185D01*
X131941506Y-118170537D01*
X132051820Y-118229502D01*
X132171518Y-118265812D01*
X132296000Y-118278072D01*
X133896000Y-118278072D01*
X134020482Y-118265812D01*
X134140180Y-118229502D01*
X134250494Y-118170537D01*
X134347185Y-118091185D01*
X134426537Y-117994494D01*
X134485502Y-117884180D01*
X134501117Y-117832702D01*
X147522903Y-117832702D01*
X147594486Y-118076671D01*
X147849996Y-118197571D01*
X148124184Y-118266300D01*
X148406512Y-118280217D01*
X148686130Y-118238787D01*
X148952292Y-118143603D01*
X149077514Y-118076671D01*
X149149097Y-117832702D01*
X148336000Y-117019605D01*
X147522903Y-117832702D01*
X134501117Y-117832702D01*
X134521812Y-117764482D01*
X134534072Y-117640000D01*
X134534072Y-116910512D01*
X146895783Y-116910512D01*
X146937213Y-117190130D01*
X147032397Y-117456292D01*
X147099329Y-117581514D01*
X147343298Y-117653097D01*
X148156395Y-116840000D01*
X148515605Y-116840000D01*
X149328702Y-117653097D01*
X149572671Y-117581514D01*
X149693571Y-117326004D01*
X149762300Y-117051816D01*
X149776217Y-116769488D01*
X149734787Y-116489870D01*
X149639603Y-116223708D01*
X149572671Y-116098486D01*
X149328702Y-116026903D01*
X148515605Y-116840000D01*
X148156395Y-116840000D01*
X147343298Y-116026903D01*
X147099329Y-116098486D01*
X146978429Y-116353996D01*
X146909700Y-116628184D01*
X146895783Y-116910512D01*
X134534072Y-116910512D01*
X134534072Y-116040000D01*
X134521812Y-115915518D01*
X134501118Y-115847298D01*
X147522903Y-115847298D01*
X148336000Y-116660395D01*
X149149097Y-115847298D01*
X149077514Y-115603329D01*
X148822004Y-115482429D01*
X148547816Y-115413700D01*
X148265488Y-115399783D01*
X147985870Y-115441213D01*
X147719708Y-115536397D01*
X147594486Y-115603329D01*
X147522903Y-115847298D01*
X134501118Y-115847298D01*
X134485502Y-115795820D01*
X134426537Y-115685506D01*
X134347185Y-115588815D01*
X134250494Y-115509463D01*
X134140180Y-115450498D01*
X134020482Y-115414188D01*
X133896000Y-115401928D01*
X132296000Y-115401928D01*
X132171518Y-115414188D01*
X132051820Y-115450498D01*
X131941506Y-115509463D01*
X131844815Y-115588815D01*
X131765463Y-115685506D01*
X131706498Y-115795820D01*
X131670188Y-115915518D01*
X131657928Y-116040000D01*
X119964901Y-116040000D01*
X126926236Y-109078665D01*
X131661000Y-109078665D01*
X131661000Y-109361335D01*
X131716147Y-109638574D01*
X131824320Y-109899727D01*
X131981363Y-110134759D01*
X132181241Y-110334637D01*
X132416273Y-110491680D01*
X132677426Y-110599853D01*
X132954665Y-110655000D01*
X133237335Y-110655000D01*
X133514574Y-110599853D01*
X133775727Y-110491680D01*
X134010759Y-110334637D01*
X134210637Y-110134759D01*
X134367680Y-109899727D01*
X134475853Y-109638574D01*
X134531000Y-109361335D01*
X134531000Y-109078665D01*
X134475853Y-108801426D01*
X134367680Y-108540273D01*
X134210637Y-108305241D01*
X134010759Y-108105363D01*
X133775727Y-107948320D01*
X133514574Y-107840147D01*
X133237335Y-107785000D01*
X132954665Y-107785000D01*
X132677426Y-107840147D01*
X132416273Y-107948320D01*
X132181241Y-108105363D01*
X131981363Y-108305241D01*
X131824320Y-108540273D01*
X131716147Y-108801426D01*
X131661000Y-109078665D01*
X126926236Y-109078665D01*
X131662203Y-104342699D01*
X131691201Y-104318901D01*
X131769988Y-104222899D01*
X131786174Y-104203177D01*
X131856746Y-104071147D01*
X131876710Y-104005332D01*
X131900203Y-103927886D01*
X131911200Y-103816233D01*
X131911200Y-103816224D01*
X131914876Y-103778901D01*
X131911200Y-103741578D01*
X131911200Y-98045401D01*
X133226655Y-96729946D01*
X133320338Y-96870153D01*
X133507847Y-97057662D01*
X133728335Y-97204987D01*
X133973328Y-97306467D01*
X134233411Y-97358200D01*
X134498589Y-97358200D01*
X134758672Y-97306467D01*
X135003665Y-97204987D01*
X135109401Y-97134337D01*
X135109400Y-99030377D01*
X135105724Y-99067700D01*
X135109400Y-99105022D01*
X135109400Y-99105032D01*
X135120397Y-99216685D01*
X135153956Y-99327315D01*
X135163854Y-99359946D01*
X135234426Y-99491976D01*
X135269388Y-99534577D01*
X135329399Y-99607701D01*
X135358403Y-99631504D01*
X152578600Y-116851702D01*
X152602399Y-116880701D01*
X152718124Y-116975674D01*
X152850153Y-117046246D01*
X152993414Y-117089703D01*
X153105067Y-117100700D01*
X153105077Y-117100700D01*
X153142400Y-117104376D01*
X153179723Y-117100700D01*
X153975261Y-117100700D01*
X153967989Y-117118257D01*
X153909000Y-117414816D01*
X153909000Y-117717184D01*
X153967989Y-118013743D01*
X154083701Y-118293095D01*
X154251688Y-118544505D01*
X154465495Y-118758312D01*
X154716905Y-118926299D01*
X154996257Y-119042011D01*
X155292816Y-119101000D01*
X155595184Y-119101000D01*
X155891743Y-119042011D01*
X156171095Y-118926299D01*
X156422505Y-118758312D01*
X156488944Y-118691873D01*
X156494498Y-118710180D01*
X156553463Y-118820494D01*
X156632815Y-118917185D01*
X156729506Y-118996537D01*
X156839820Y-119055502D01*
X156959518Y-119091812D01*
X157084000Y-119104072D01*
X158884000Y-119104072D01*
X159008482Y-119091812D01*
X159128180Y-119055502D01*
X159238494Y-118996537D01*
X159335185Y-118917185D01*
X159414537Y-118820494D01*
X159473502Y-118710180D01*
X159509812Y-118590482D01*
X159522072Y-118466000D01*
X159522072Y-116666000D01*
X159509812Y-116541518D01*
X159473502Y-116421820D01*
X159414537Y-116311506D01*
X159335185Y-116214815D01*
X159238494Y-116135463D01*
X159128180Y-116076498D01*
X159126538Y-116076000D01*
X160966585Y-116076000D01*
X160896257Y-116089989D01*
X160616905Y-116205701D01*
X160365495Y-116373688D01*
X160151688Y-116587495D01*
X159983701Y-116838905D01*
X159867989Y-117118257D01*
X159809000Y-117414816D01*
X159809000Y-117717184D01*
X159867989Y-118013743D01*
X159983701Y-118293095D01*
X160151688Y-118544505D01*
X160365495Y-118758312D01*
X160616905Y-118926299D01*
X160896257Y-119042011D01*
X161192816Y-119101000D01*
X161495184Y-119101000D01*
X161791743Y-119042011D01*
X162071095Y-118926299D01*
X162322505Y-118758312D01*
X162388944Y-118691873D01*
X162394498Y-118710180D01*
X162453463Y-118820494D01*
X162532815Y-118917185D01*
X162629506Y-118996537D01*
X162739820Y-119055502D01*
X162859518Y-119091812D01*
X162984000Y-119104072D01*
X164784000Y-119104072D01*
X164908482Y-119091812D01*
X165028180Y-119055502D01*
X165138494Y-118996537D01*
X165235185Y-118917185D01*
X165314537Y-118820494D01*
X165373502Y-118710180D01*
X165409812Y-118590482D01*
X165422072Y-118466000D01*
X165422072Y-116666000D01*
X165409812Y-116541518D01*
X165373502Y-116421820D01*
X165314537Y-116311506D01*
X165235185Y-116214815D01*
X165138494Y-116135463D01*
X165028180Y-116076498D01*
X165026538Y-116076000D01*
X167003406Y-116076000D01*
X166782257Y-116119989D01*
X166502905Y-116235701D01*
X166251495Y-116403688D01*
X166037688Y-116617495D01*
X165869701Y-116868905D01*
X165753989Y-117148257D01*
X165695000Y-117444816D01*
X165695000Y-117747184D01*
X165753989Y-118043743D01*
X165869701Y-118323095D01*
X166037688Y-118574505D01*
X166251495Y-118788312D01*
X166502905Y-118956299D01*
X166782257Y-119072011D01*
X167078816Y-119131000D01*
X167381184Y-119131000D01*
X167677743Y-119072011D01*
X167957095Y-118956299D01*
X168208505Y-118788312D01*
X168274944Y-118721873D01*
X168280498Y-118740180D01*
X168339463Y-118850494D01*
X168418815Y-118947185D01*
X168515506Y-119026537D01*
X168625820Y-119085502D01*
X168745518Y-119121812D01*
X168870000Y-119134072D01*
X169484250Y-119131000D01*
X169643000Y-118972250D01*
X169643000Y-117723000D01*
X169897000Y-117723000D01*
X169897000Y-118972250D01*
X170055750Y-119131000D01*
X170670000Y-119134072D01*
X170794482Y-119121812D01*
X170914180Y-119085502D01*
X171024494Y-119026537D01*
X171121185Y-118947185D01*
X171200537Y-118850494D01*
X171259502Y-118740180D01*
X171295812Y-118620482D01*
X171308072Y-118496000D01*
X171305000Y-117881750D01*
X171146250Y-117723000D01*
X169897000Y-117723000D01*
X169643000Y-117723000D01*
X169623000Y-117723000D01*
X169623000Y-117469000D01*
X169643000Y-117469000D01*
X169643000Y-117449000D01*
X169897000Y-117449000D01*
X169897000Y-117469000D01*
X171146250Y-117469000D01*
X171305000Y-117310250D01*
X171308072Y-116696000D01*
X171295812Y-116571518D01*
X171259502Y-116451820D01*
X171200537Y-116341506D01*
X171121185Y-116244815D01*
X171024494Y-116165463D01*
X170914180Y-116106498D01*
X170813642Y-116076000D01*
X180077822Y-116076000D01*
X180202525Y-116262632D01*
X180409368Y-116469475D01*
X180583760Y-116586000D01*
X180409368Y-116702525D01*
X180202525Y-116909368D01*
X180040010Y-117152589D01*
X179928068Y-117422842D01*
X179871000Y-117709740D01*
X179871000Y-118002260D01*
X179928068Y-118289158D01*
X180040010Y-118559411D01*
X180202525Y-118802632D01*
X180409368Y-119009475D01*
X180652589Y-119171990D01*
X180922842Y-119283932D01*
X181209740Y-119341000D01*
X181502260Y-119341000D01*
X181789158Y-119283932D01*
X182059411Y-119171990D01*
X182302632Y-119009475D01*
X182509475Y-118802632D01*
X182671990Y-118559411D01*
X182783932Y-118289158D01*
X182841000Y-118002260D01*
X182841000Y-117709740D01*
X182783932Y-117422842D01*
X182671990Y-117152589D01*
X182509475Y-116909368D01*
X182302632Y-116702525D01*
X182128240Y-116586000D01*
X182302632Y-116469475D01*
X182509475Y-116262632D01*
X182671990Y-116019411D01*
X182783932Y-115749158D01*
X182841000Y-115462260D01*
X182841000Y-115169740D01*
X182783932Y-114882842D01*
X182671990Y-114612589D01*
X182509475Y-114369368D01*
X182302632Y-114162525D01*
X182128240Y-114046000D01*
X182302632Y-113929475D01*
X182509475Y-113722632D01*
X182671990Y-113479411D01*
X182783932Y-113209158D01*
X182841000Y-112922260D01*
X182841000Y-112629740D01*
X182783932Y-112342842D01*
X182671990Y-112072589D01*
X182509475Y-111829368D01*
X182302632Y-111622525D01*
X182128240Y-111506000D01*
X182302632Y-111389475D01*
X182509475Y-111182632D01*
X182671990Y-110939411D01*
X182783932Y-110669158D01*
X182841000Y-110382260D01*
X182841000Y-110089740D01*
X182783932Y-109802842D01*
X182671990Y-109532589D01*
X182509475Y-109289368D01*
X182302632Y-109082525D01*
X182128240Y-108966000D01*
X182302632Y-108849475D01*
X182509475Y-108642632D01*
X182671990Y-108399411D01*
X182783932Y-108129158D01*
X182841000Y-107842260D01*
X182841000Y-107549740D01*
X182783932Y-107262842D01*
X182671990Y-106992589D01*
X182509475Y-106749368D01*
X182302632Y-106542525D01*
X182120466Y-106420805D01*
X182237355Y-106351178D01*
X182453588Y-106156269D01*
X182627641Y-105922920D01*
X182752825Y-105660099D01*
X182797476Y-105512890D01*
X182676155Y-105283000D01*
X181483000Y-105283000D01*
X181483000Y-105303000D01*
X181229000Y-105303000D01*
X181229000Y-105283000D01*
X180035845Y-105283000D01*
X179914524Y-105512890D01*
X179959175Y-105660099D01*
X180084359Y-105922920D01*
X180258412Y-106156269D01*
X180474645Y-106351178D01*
X180591534Y-106420805D01*
X180409368Y-106542525D01*
X180202525Y-106749368D01*
X180077822Y-106936000D01*
X162399502Y-106936000D01*
X156388706Y-100925205D01*
X156436237Y-100877674D01*
X156549505Y-100708156D01*
X156627526Y-100519798D01*
X156667300Y-100319839D01*
X156667300Y-100257703D01*
X156700407Y-100224595D01*
X156729401Y-100200801D01*
X156753195Y-100171808D01*
X156753199Y-100171804D01*
X156824373Y-100085077D01*
X156830269Y-100074047D01*
X156894946Y-99953047D01*
X156895900Y-99949901D01*
X160016005Y-103070008D01*
X160039799Y-103099001D01*
X160068792Y-103122795D01*
X160068796Y-103122799D01*
X160094540Y-103143926D01*
X160155524Y-103193974D01*
X160287553Y-103264546D01*
X160430814Y-103308003D01*
X160542467Y-103319000D01*
X160542476Y-103319000D01*
X160579799Y-103322676D01*
X160617122Y-103319000D01*
X161359978Y-103319000D01*
X161397300Y-103322676D01*
X161434622Y-103319000D01*
X161434633Y-103319000D01*
X161546286Y-103308003D01*
X161689547Y-103264546D01*
X161821576Y-103193974D01*
X161937301Y-103099001D01*
X161961104Y-103069997D01*
X165805101Y-99226000D01*
X179867928Y-99226000D01*
X179867928Y-100926000D01*
X179880188Y-101050482D01*
X179916498Y-101170180D01*
X179975463Y-101280494D01*
X180054815Y-101377185D01*
X180151506Y-101456537D01*
X180261820Y-101515502D01*
X180334380Y-101537513D01*
X180202525Y-101669368D01*
X180040010Y-101912589D01*
X179928068Y-102182842D01*
X179871000Y-102469740D01*
X179871000Y-102762260D01*
X179928068Y-103049158D01*
X180040010Y-103319411D01*
X180202525Y-103562632D01*
X180409368Y-103769475D01*
X180591534Y-103891195D01*
X180474645Y-103960822D01*
X180258412Y-104155731D01*
X180084359Y-104389080D01*
X179959175Y-104651901D01*
X179914524Y-104799110D01*
X180035845Y-105029000D01*
X181229000Y-105029000D01*
X181229000Y-105009000D01*
X181483000Y-105009000D01*
X181483000Y-105029000D01*
X182676155Y-105029000D01*
X182797476Y-104799110D01*
X182752825Y-104651901D01*
X182627641Y-104389080D01*
X182453588Y-104155731D01*
X182237355Y-103960822D01*
X182120466Y-103891195D01*
X182302632Y-103769475D01*
X182509475Y-103562632D01*
X182671990Y-103319411D01*
X182783932Y-103049158D01*
X182841000Y-102762260D01*
X182841000Y-102469740D01*
X182783932Y-102182842D01*
X182671990Y-101912589D01*
X182509475Y-101669368D01*
X182377620Y-101537513D01*
X182450180Y-101515502D01*
X182560494Y-101456537D01*
X182657185Y-101377185D01*
X182736537Y-101280494D01*
X182795502Y-101170180D01*
X182831812Y-101050482D01*
X182844072Y-100926000D01*
X182844072Y-99226000D01*
X182831812Y-99101518D01*
X182795502Y-98981820D01*
X182736537Y-98871506D01*
X182657185Y-98774815D01*
X182560494Y-98695463D01*
X182450180Y-98636498D01*
X182330482Y-98600188D01*
X182206000Y-98587928D01*
X180506000Y-98587928D01*
X180381518Y-98600188D01*
X180261820Y-98636498D01*
X180151506Y-98695463D01*
X180054815Y-98774815D01*
X179975463Y-98871506D01*
X179916498Y-98981820D01*
X179880188Y-99101518D01*
X179867928Y-99226000D01*
X165805101Y-99226000D01*
X174811492Y-90219609D01*
X199307997Y-90219609D01*
X199494073Y-90560766D01*
X199911409Y-90776513D01*
X200362815Y-90906696D01*
X200830946Y-90946313D01*
X201297811Y-90893842D01*
X201745468Y-90751297D01*
X202101927Y-90560766D01*
X202288003Y-90219609D01*
X200798000Y-88729605D01*
X199307997Y-90219609D01*
X174811492Y-90219609D01*
X176448155Y-88582946D01*
X198401687Y-88582946D01*
X198454158Y-89049811D01*
X198596703Y-89497468D01*
X198787234Y-89853927D01*
X199128391Y-90040003D01*
X200618395Y-88550000D01*
X200977605Y-88550000D01*
X202467609Y-90040003D01*
X202808766Y-89853927D01*
X203024513Y-89436591D01*
X203154696Y-88985185D01*
X203194313Y-88517054D01*
X203141842Y-88050189D01*
X202999297Y-87602532D01*
X202808766Y-87246073D01*
X202467609Y-87059997D01*
X200977605Y-88550000D01*
X200618395Y-88550000D01*
X199128391Y-87059997D01*
X198787234Y-87246073D01*
X198571487Y-87663409D01*
X198441304Y-88114815D01*
X198401687Y-88582946D01*
X176448155Y-88582946D01*
X178150710Y-86880391D01*
X199307997Y-86880391D01*
X200798000Y-88370395D01*
X202288003Y-86880391D01*
X202101927Y-86539234D01*
X201684591Y-86323487D01*
X201233185Y-86193304D01*
X200765054Y-86153687D01*
X200298189Y-86206158D01*
X199850532Y-86348703D01*
X199494073Y-86539234D01*
X199307997Y-86880391D01*
X178150710Y-86880391D01*
X182871234Y-82159868D01*
X182925818Y-82339808D01*
X183059068Y-82589101D01*
X183238392Y-82807608D01*
X183456899Y-82986932D01*
X183589858Y-83058000D01*
X183456899Y-83129068D01*
X183238392Y-83308392D01*
X183059068Y-83526899D01*
X182925818Y-83776192D01*
X182843764Y-84046691D01*
X182816057Y-84328000D01*
X182843764Y-84609309D01*
X182925818Y-84879808D01*
X183059068Y-85129101D01*
X183238392Y-85347608D01*
X183456899Y-85526932D01*
X183706192Y-85660182D01*
X183976691Y-85742236D01*
X184187508Y-85763000D01*
X185128492Y-85763000D01*
X185339309Y-85742236D01*
X185609808Y-85660182D01*
X185859101Y-85526932D01*
X186077608Y-85347608D01*
X186256932Y-85129101D01*
X186390182Y-84879808D01*
X186472236Y-84609309D01*
X186499943Y-84328000D01*
X186472236Y-84046691D01*
X186390182Y-83776192D01*
X186256932Y-83526899D01*
X186077608Y-83308392D01*
X185859101Y-83129068D01*
X185726142Y-83058000D01*
X185859101Y-82986932D01*
X186077608Y-82807608D01*
X186256932Y-82589101D01*
X186390182Y-82339808D01*
X186472236Y-82069309D01*
X186499943Y-81788000D01*
X186472236Y-81506691D01*
X186411236Y-81305600D01*
X186949778Y-81305600D01*
X186987100Y-81309276D01*
X187024422Y-81305600D01*
X187024433Y-81305600D01*
X187136086Y-81294603D01*
X187279347Y-81251146D01*
X187411376Y-81180574D01*
X187527101Y-81085601D01*
X187550904Y-81056597D01*
X188177501Y-80430000D01*
X194599928Y-80430000D01*
X194599928Y-82130000D01*
X194612188Y-82254482D01*
X194648498Y-82374180D01*
X194707463Y-82484494D01*
X194786815Y-82581185D01*
X194883506Y-82660537D01*
X194993820Y-82719502D01*
X195035690Y-82732203D01*
X194934525Y-82833368D01*
X194772010Y-83076589D01*
X194660068Y-83346842D01*
X194603000Y-83633740D01*
X194603000Y-83926260D01*
X194660068Y-84213158D01*
X194772010Y-84483411D01*
X194934525Y-84726632D01*
X195141368Y-84933475D01*
X195384589Y-85095990D01*
X195654842Y-85207932D01*
X195941740Y-85265000D01*
X196234260Y-85265000D01*
X196521158Y-85207932D01*
X196791411Y-85095990D01*
X197034632Y-84933475D01*
X197088000Y-84880107D01*
X197141368Y-84933475D01*
X197384589Y-85095990D01*
X197654842Y-85207932D01*
X197941740Y-85265000D01*
X198234260Y-85265000D01*
X198521158Y-85207932D01*
X198791411Y-85095990D01*
X199034632Y-84933475D01*
X199241475Y-84726632D01*
X199403990Y-84483411D01*
X199515932Y-84213158D01*
X199573000Y-83926260D01*
X199573000Y-83633740D01*
X199515932Y-83346842D01*
X199403990Y-83076589D01*
X199241475Y-82833368D01*
X199034632Y-82626525D01*
X198871590Y-82517584D01*
X198936792Y-82308397D01*
X198088000Y-81459605D01*
X198073858Y-81473748D01*
X197894253Y-81294143D01*
X197908395Y-81280000D01*
X198267605Y-81280000D01*
X199116397Y-82128792D01*
X199365472Y-82051157D01*
X199491371Y-81787117D01*
X199563339Y-81503589D01*
X199578611Y-81211469D01*
X199536599Y-80921981D01*
X199438919Y-80646253D01*
X199365472Y-80508843D01*
X199116397Y-80431208D01*
X198267605Y-81280000D01*
X197908395Y-81280000D01*
X197894253Y-81265858D01*
X198073858Y-81086253D01*
X198088000Y-81100395D01*
X198936792Y-80251603D01*
X198859157Y-80002528D01*
X198595117Y-79876629D01*
X198311589Y-79804661D01*
X198019469Y-79789389D01*
X197729981Y-79831401D01*
X197454253Y-79929081D01*
X197378150Y-79969759D01*
X197292494Y-79899463D01*
X197182180Y-79840498D01*
X197062482Y-79804188D01*
X196938000Y-79791928D01*
X195238000Y-79791928D01*
X195113518Y-79804188D01*
X194993820Y-79840498D01*
X194883506Y-79899463D01*
X194786815Y-79978815D01*
X194707463Y-80075506D01*
X194648498Y-80185820D01*
X194612188Y-80305518D01*
X194599928Y-80430000D01*
X188177501Y-80430000D01*
X190427892Y-78179609D01*
X199307997Y-78179609D01*
X199494073Y-78520766D01*
X199911409Y-78736513D01*
X200362815Y-78866696D01*
X200830946Y-78906313D01*
X201297811Y-78853842D01*
X201745468Y-78711297D01*
X202101927Y-78520766D01*
X202288003Y-78179609D01*
X200798000Y-76689605D01*
X199307997Y-78179609D01*
X190427892Y-78179609D01*
X192064555Y-76542946D01*
X198401687Y-76542946D01*
X198454158Y-77009811D01*
X198596703Y-77457468D01*
X198787234Y-77813927D01*
X199128391Y-78000003D01*
X200618395Y-76510000D01*
X200977605Y-76510000D01*
X202467609Y-78000003D01*
X202808766Y-77813927D01*
X203024513Y-77396591D01*
X203154696Y-76945185D01*
X203194313Y-76477054D01*
X203141842Y-76010189D01*
X202999297Y-75562532D01*
X202808766Y-75206073D01*
X202467609Y-75019997D01*
X200977605Y-76510000D01*
X200618395Y-76510000D01*
X199128391Y-75019997D01*
X198787234Y-75206073D01*
X198571487Y-75623409D01*
X198441304Y-76074815D01*
X198401687Y-76542946D01*
X192064555Y-76542946D01*
X193767110Y-74840391D01*
X199307997Y-74840391D01*
X200798000Y-76330395D01*
X202288003Y-74840391D01*
X202101927Y-74499234D01*
X201684591Y-74283487D01*
X201233185Y-74153304D01*
X200765054Y-74113687D01*
X200298189Y-74166158D01*
X199850532Y-74308703D01*
X199494073Y-74499234D01*
X199307997Y-74840391D01*
X193767110Y-74840391D01*
X200982977Y-67624524D01*
X201050815Y-67707185D01*
X201147506Y-67786537D01*
X201257820Y-67845502D01*
X201276127Y-67851056D01*
X201209688Y-67917495D01*
X201041701Y-68168905D01*
X200925989Y-68448257D01*
X200867000Y-68744816D01*
X200867000Y-69047184D01*
X200925989Y-69343743D01*
X201041701Y-69623095D01*
X201209688Y-69874505D01*
X201423495Y-70088312D01*
X201674905Y-70256299D01*
X201954257Y-70372011D01*
X202250816Y-70431000D01*
X202553184Y-70431000D01*
X202849743Y-70372011D01*
X203129095Y-70256299D01*
X203380505Y-70088312D01*
X203594312Y-69874505D01*
X203762299Y-69623095D01*
X203878011Y-69343743D01*
X203937000Y-69047184D01*
X203937000Y-68744816D01*
X203878011Y-68448257D01*
X203762299Y-68168905D01*
X203594312Y-67917495D01*
X203527873Y-67851056D01*
X203546180Y-67845502D01*
X203656494Y-67786537D01*
X203753185Y-67707185D01*
X203832537Y-67610494D01*
X203891502Y-67500180D01*
X203927812Y-67380482D01*
X203940072Y-67256000D01*
X203940072Y-65456000D01*
X203927812Y-65331518D01*
X203891502Y-65211820D01*
X203832537Y-65101506D01*
X203753185Y-65004815D01*
X203656494Y-64925463D01*
X203546180Y-64866498D01*
X203426482Y-64830188D01*
X203302000Y-64817928D01*
X201502000Y-64817928D01*
X201377518Y-64830188D01*
X201257820Y-64866498D01*
X201147506Y-64925463D01*
X201050815Y-65004815D01*
X200971463Y-65101506D01*
X200912498Y-65211820D01*
X200876188Y-65331518D01*
X200863928Y-65456000D01*
X200863928Y-65661425D01*
X200752424Y-65721026D01*
X200636699Y-65815999D01*
X200612901Y-65844997D01*
X186672299Y-79785600D01*
X186394492Y-79785600D01*
X186472236Y-79529309D01*
X186499943Y-79248000D01*
X186472236Y-78966691D01*
X186390182Y-78696192D01*
X186256932Y-78446899D01*
X186077608Y-78228392D01*
X185859101Y-78049068D01*
X185726142Y-77978000D01*
X185859101Y-77906932D01*
X186077608Y-77727608D01*
X186256932Y-77509101D01*
X186390182Y-77259808D01*
X186472236Y-76989309D01*
X186499943Y-76708000D01*
X186472236Y-76426691D01*
X186390182Y-76156192D01*
X186256932Y-75906899D01*
X186077608Y-75688392D01*
X185859101Y-75509068D01*
X185726142Y-75438000D01*
X185859101Y-75366932D01*
X186077608Y-75187608D01*
X186256932Y-74969101D01*
X186390182Y-74719808D01*
X186472236Y-74449309D01*
X186499943Y-74168000D01*
X186472236Y-73886691D01*
X186390182Y-73616192D01*
X186256932Y-73366899D01*
X186077608Y-73148392D01*
X185859101Y-72969068D01*
X185726142Y-72898000D01*
X185859101Y-72826932D01*
X186077608Y-72647608D01*
X186256932Y-72429101D01*
X186390182Y-72179808D01*
X186472236Y-71909309D01*
X186499943Y-71628000D01*
X186472236Y-71346691D01*
X186390182Y-71076192D01*
X186256932Y-70826899D01*
X186077608Y-70608392D01*
X185859101Y-70429068D01*
X185731259Y-70360735D01*
X185960839Y-70210601D01*
X186162500Y-70012895D01*
X186321715Y-69779646D01*
X186432367Y-69519818D01*
X186449904Y-69437039D01*
X186327915Y-69215000D01*
X184785000Y-69215000D01*
X184785000Y-69235000D01*
X184531000Y-69235000D01*
X184531000Y-69215000D01*
X182988085Y-69215000D01*
X182866096Y-69437039D01*
X182883633Y-69519818D01*
X182994285Y-69779646D01*
X183153500Y-70012895D01*
X183355161Y-70210601D01*
X183584741Y-70360735D01*
X183456899Y-70429068D01*
X183238392Y-70608392D01*
X183059068Y-70826899D01*
X182925818Y-71076192D01*
X182843764Y-71346691D01*
X182816057Y-71628000D01*
X182843764Y-71909309D01*
X182925818Y-72179808D01*
X183059068Y-72429101D01*
X183238392Y-72647608D01*
X183456899Y-72826932D01*
X183589858Y-72898000D01*
X183456899Y-72969068D01*
X183238392Y-73148392D01*
X183059068Y-73366899D01*
X182925818Y-73616192D01*
X182843764Y-73886691D01*
X182816057Y-74168000D01*
X182843764Y-74449309D01*
X182925818Y-74719808D01*
X183059068Y-74969101D01*
X183238392Y-75187608D01*
X183456899Y-75366932D01*
X183589858Y-75438000D01*
X183456899Y-75509068D01*
X183238392Y-75688392D01*
X183059068Y-75906899D01*
X182925818Y-76156192D01*
X182843764Y-76426691D01*
X182816057Y-76708000D01*
X182843764Y-76989309D01*
X182925818Y-77259808D01*
X183059068Y-77509101D01*
X183238392Y-77727608D01*
X183456899Y-77906932D01*
X183589858Y-77978000D01*
X183456899Y-78049068D01*
X183238392Y-78228392D01*
X183059068Y-78446899D01*
X182925818Y-78696192D01*
X182843764Y-78966691D01*
X182816057Y-79248000D01*
X182843764Y-79529309D01*
X182925818Y-79799808D01*
X182985470Y-79911409D01*
X182870699Y-80005599D01*
X182846901Y-80034597D01*
X178848180Y-84033319D01*
X178770182Y-83776192D01*
X178636932Y-83526899D01*
X178457608Y-83308392D01*
X178239101Y-83129068D01*
X178106142Y-83058000D01*
X178239101Y-82986932D01*
X178457608Y-82807608D01*
X178636932Y-82589101D01*
X178770182Y-82339808D01*
X178852236Y-82069309D01*
X178879943Y-81788000D01*
X178852236Y-81506691D01*
X178770182Y-81236192D01*
X178636932Y-80986899D01*
X178457608Y-80768392D01*
X178239101Y-80589068D01*
X178106142Y-80518000D01*
X178239101Y-80446932D01*
X178457608Y-80267608D01*
X178636932Y-80049101D01*
X178770182Y-79799808D01*
X178852236Y-79529309D01*
X178879943Y-79248000D01*
X178852236Y-78966691D01*
X178770182Y-78696192D01*
X178636932Y-78446899D01*
X178457608Y-78228392D01*
X178239101Y-78049068D01*
X178106142Y-77978000D01*
X178239101Y-77906932D01*
X178457608Y-77727608D01*
X178636932Y-77509101D01*
X178770182Y-77259808D01*
X178852236Y-76989309D01*
X178879943Y-76708000D01*
X178852236Y-76426691D01*
X178770182Y-76156192D01*
X178636932Y-75906899D01*
X178457608Y-75688392D01*
X178239101Y-75509068D01*
X178106142Y-75438000D01*
X178239101Y-75366932D01*
X178457608Y-75187608D01*
X178636932Y-74969101D01*
X178770182Y-74719808D01*
X178852236Y-74449309D01*
X178879943Y-74168000D01*
X178852236Y-73886691D01*
X178770182Y-73616192D01*
X178636932Y-73366899D01*
X178457608Y-73148392D01*
X178239101Y-72969068D01*
X178106142Y-72898000D01*
X178239101Y-72826932D01*
X178457608Y-72647608D01*
X178636932Y-72429101D01*
X178770182Y-72179808D01*
X178852236Y-71909309D01*
X178879943Y-71628000D01*
X178852236Y-71346691D01*
X178770182Y-71076192D01*
X178636932Y-70826899D01*
X178457608Y-70608392D01*
X178344518Y-70515581D01*
X178362482Y-70513812D01*
X178482180Y-70477502D01*
X178592494Y-70418537D01*
X178689185Y-70339185D01*
X178768537Y-70242494D01*
X178827502Y-70132180D01*
X178863812Y-70012482D01*
X178876072Y-69888000D01*
X178876072Y-68738961D01*
X182866096Y-68738961D01*
X182988085Y-68961000D01*
X184531000Y-68961000D01*
X184531000Y-67653000D01*
X184785000Y-67653000D01*
X184785000Y-68961000D01*
X186327915Y-68961000D01*
X186449904Y-68738961D01*
X186432367Y-68656182D01*
X186321715Y-68396354D01*
X186162500Y-68163105D01*
X185960839Y-67965399D01*
X185724483Y-67810834D01*
X185462514Y-67705350D01*
X185185000Y-67653000D01*
X184785000Y-67653000D01*
X184531000Y-67653000D01*
X184131000Y-67653000D01*
X183853486Y-67705350D01*
X183591517Y-67810834D01*
X183355161Y-67965399D01*
X183153500Y-68163105D01*
X182994285Y-68396354D01*
X182883633Y-68656182D01*
X182866096Y-68738961D01*
X178876072Y-68738961D01*
X178876072Y-68288000D01*
X178863812Y-68163518D01*
X178827502Y-68043820D01*
X178768537Y-67933506D01*
X178689185Y-67836815D01*
X178592494Y-67757463D01*
X178482180Y-67698498D01*
X178362482Y-67662188D01*
X178238000Y-67649928D01*
X175838000Y-67649928D01*
X175713518Y-67662188D01*
X175593820Y-67698498D01*
X175483506Y-67757463D01*
X175386815Y-67836815D01*
X175307463Y-67933506D01*
X175248498Y-68043820D01*
X175212188Y-68163518D01*
X175199928Y-68288000D01*
X175199928Y-69888000D01*
X175212188Y-70012482D01*
X175248498Y-70132180D01*
X175307463Y-70242494D01*
X175386815Y-70339185D01*
X175483506Y-70418537D01*
X175593820Y-70477502D01*
X175713518Y-70513812D01*
X175731482Y-70515581D01*
X175618392Y-70608392D01*
X175439068Y-70826899D01*
X175305818Y-71076192D01*
X175223764Y-71346691D01*
X175196057Y-71628000D01*
X175223764Y-71909309D01*
X175305818Y-72179808D01*
X175439068Y-72429101D01*
X175618392Y-72647608D01*
X175836899Y-72826932D01*
X175969858Y-72898000D01*
X175836899Y-72969068D01*
X175618392Y-73148392D01*
X175439068Y-73366899D01*
X175305818Y-73616192D01*
X175223764Y-73886691D01*
X175196057Y-74168000D01*
X175223764Y-74449309D01*
X175305818Y-74719808D01*
X175439068Y-74969101D01*
X175618392Y-75187608D01*
X175836899Y-75366932D01*
X175969858Y-75438000D01*
X175836899Y-75509068D01*
X175618392Y-75688392D01*
X175439068Y-75906899D01*
X175305818Y-76156192D01*
X175223764Y-76426691D01*
X175196057Y-76708000D01*
X175223764Y-76989309D01*
X175305818Y-77259808D01*
X175439068Y-77509101D01*
X175618392Y-77727608D01*
X175836899Y-77906932D01*
X175969858Y-77978000D01*
X175836899Y-78049068D01*
X175618392Y-78228392D01*
X175439068Y-78446899D01*
X175305818Y-78696192D01*
X175223764Y-78966691D01*
X175196057Y-79248000D01*
X175223764Y-79529309D01*
X175305818Y-79799808D01*
X175439068Y-80049101D01*
X175618392Y-80267608D01*
X175836899Y-80446932D01*
X175969858Y-80518000D01*
X175836899Y-80589068D01*
X175618392Y-80768392D01*
X175439068Y-80986899D01*
X175305818Y-81236192D01*
X175223764Y-81506691D01*
X175196057Y-81788000D01*
X175223764Y-82069309D01*
X175305818Y-82339808D01*
X175439068Y-82589101D01*
X175618392Y-82807608D01*
X175836899Y-82986932D01*
X175969858Y-83058000D01*
X175836899Y-83129068D01*
X175618392Y-83308392D01*
X175439068Y-83526899D01*
X175305818Y-83776192D01*
X175223764Y-84046691D01*
X175196057Y-84328000D01*
X175223764Y-84609309D01*
X175305818Y-84879808D01*
X175439068Y-85129101D01*
X175618392Y-85347608D01*
X175836899Y-85526932D01*
X176086192Y-85660182D01*
X176356691Y-85742236D01*
X176567508Y-85763000D01*
X177118498Y-85763000D01*
X161693598Y-101187901D01*
X161659537Y-101136926D01*
X161615600Y-101092989D01*
X161615600Y-79358922D01*
X161619276Y-79321599D01*
X161615600Y-79284276D01*
X161615600Y-79284267D01*
X161604603Y-79172614D01*
X161561146Y-79029353D01*
X161542048Y-78993624D01*
X161490574Y-78897323D01*
X161419399Y-78810597D01*
X161395601Y-78781599D01*
X161366604Y-78757802D01*
X161089170Y-78480369D01*
X161112200Y-78364589D01*
X161112200Y-78099411D01*
X161060467Y-77839328D01*
X160958987Y-77594335D01*
X160811662Y-77373847D01*
X160624153Y-77186338D01*
X160403665Y-77039013D01*
X160217740Y-76962000D01*
X160403665Y-76884987D01*
X160624153Y-76737662D01*
X160811662Y-76550153D01*
X160958987Y-76329665D01*
X161060467Y-76084672D01*
X161112200Y-75824589D01*
X161112200Y-75559411D01*
X161060467Y-75299328D01*
X160958987Y-75054335D01*
X160811662Y-74833847D01*
X160624153Y-74646338D01*
X160403665Y-74499013D01*
X160158672Y-74397533D01*
X159898589Y-74345800D01*
X159633411Y-74345800D01*
X159373328Y-74397533D01*
X159128335Y-74499013D01*
X158907847Y-74646338D01*
X158720338Y-74833847D01*
X158573013Y-75054335D01*
X158496000Y-75240260D01*
X158418987Y-75054335D01*
X158271662Y-74833847D01*
X158084153Y-74646338D01*
X157863665Y-74499013D01*
X157677740Y-74422000D01*
X157863665Y-74344987D01*
X158084153Y-74197662D01*
X158271662Y-74010153D01*
X158418987Y-73789665D01*
X158520467Y-73544672D01*
X158572200Y-73284589D01*
X158572200Y-73019411D01*
X158520467Y-72759328D01*
X158418987Y-72514335D01*
X158271662Y-72293847D01*
X158084153Y-72106338D01*
X157863665Y-71959013D01*
X157618672Y-71857533D01*
X157358589Y-71805800D01*
X157093411Y-71805800D01*
X156944200Y-71835479D01*
X156944200Y-65985661D01*
X157139571Y-66080704D01*
X157451108Y-66162384D01*
X157772595Y-66181718D01*
X158091675Y-66137961D01*
X158396088Y-66032795D01*
X158570044Y-65939814D01*
X158665808Y-65675413D01*
X157710000Y-64719605D01*
X157695858Y-64733748D01*
X157516253Y-64554143D01*
X157530395Y-64540000D01*
X157889605Y-64540000D01*
X158845413Y-65495808D01*
X159109814Y-65400044D01*
X159250704Y-65110429D01*
X159332384Y-64798892D01*
X159351718Y-64477405D01*
X159307961Y-64158325D01*
X159202795Y-63853912D01*
X159109814Y-63679956D01*
X158845413Y-63584192D01*
X157889605Y-64540000D01*
X157530395Y-64540000D01*
X157516253Y-64525858D01*
X157695858Y-64346253D01*
X157710000Y-64360395D01*
X158665808Y-63404587D01*
X158570044Y-63140186D01*
X158280429Y-62999296D01*
X157968892Y-62917616D01*
X157647405Y-62898282D01*
X157328325Y-62942039D01*
X157023912Y-63047205D01*
X156944200Y-63089812D01*
X156944200Y-61880601D01*
X157218624Y-61606177D01*
X157233088Y-61612168D01*
X157548967Y-61675000D01*
X157871033Y-61675000D01*
X158186912Y-61612168D01*
X158484463Y-61488918D01*
X158752252Y-61309987D01*
X158979987Y-61082252D01*
X159158918Y-60814463D01*
X159282168Y-60516912D01*
X159345000Y-60201033D01*
X159345000Y-59878967D01*
X159282168Y-59563088D01*
X159158918Y-59265537D01*
X158979987Y-58997748D01*
X158752252Y-58770013D01*
X158484463Y-58591082D01*
X158186912Y-58467832D01*
X157871033Y-58405000D01*
X157548967Y-58405000D01*
X157233088Y-58467832D01*
X156935537Y-58591082D01*
X156667748Y-58770013D01*
X156440013Y-58997748D01*
X156261082Y-59265537D01*
X156137832Y-59563088D01*
X156075000Y-59878967D01*
X156075000Y-60201033D01*
X156137832Y-60516912D01*
X156143823Y-60531376D01*
X155673203Y-61001996D01*
X155644199Y-61025799D01*
X155597870Y-61082252D01*
X155549226Y-61141524D01*
X155485996Y-61259818D01*
X155478654Y-61273554D01*
X155435197Y-61416815D01*
X155424200Y-61528468D01*
X155424200Y-61528478D01*
X155420524Y-61565800D01*
X155424200Y-61603122D01*
X155424201Y-70470799D01*
X151126323Y-66172921D01*
X151272595Y-66181718D01*
X151591675Y-66137961D01*
X151896088Y-66032795D01*
X152070044Y-65939814D01*
X152165808Y-65675413D01*
X151210000Y-64719605D01*
X151195858Y-64733748D01*
X151016253Y-64554143D01*
X151030395Y-64540000D01*
X151389605Y-64540000D01*
X152345413Y-65495808D01*
X152609814Y-65400044D01*
X152750704Y-65110429D01*
X152832384Y-64798892D01*
X152851718Y-64477405D01*
X152807961Y-64158325D01*
X152702795Y-63853912D01*
X152609814Y-63679956D01*
X152345413Y-63584192D01*
X151389605Y-64540000D01*
X151030395Y-64540000D01*
X150074587Y-63584192D01*
X149810186Y-63679956D01*
X149669296Y-63969571D01*
X149587616Y-64281108D01*
X149568282Y-64602595D01*
X149570235Y-64616833D01*
X148357989Y-63404587D01*
X150254192Y-63404587D01*
X151210000Y-64360395D01*
X152165808Y-63404587D01*
X152070044Y-63140186D01*
X151780429Y-62999296D01*
X151468892Y-62917616D01*
X151147405Y-62898282D01*
X150828325Y-62942039D01*
X150523912Y-63047205D01*
X150349956Y-63140186D01*
X150254192Y-63404587D01*
X148357989Y-63404587D01*
X145447104Y-60493703D01*
X145423301Y-60464699D01*
X145307576Y-60369726D01*
X145175547Y-60299154D01*
X145032286Y-60255697D01*
X144920633Y-60244700D01*
X144920622Y-60244700D01*
X144883300Y-60241024D01*
X144845978Y-60244700D01*
X88705325Y-60244700D01*
X88668000Y-60241024D01*
X88630675Y-60244700D01*
X88630667Y-60244700D01*
X88519014Y-60255697D01*
X88375753Y-60299154D01*
X88243724Y-60369726D01*
X88127999Y-60464699D01*
X88104196Y-60493703D01*
X87694998Y-60902901D01*
X87666000Y-60926699D01*
X87642202Y-60955697D01*
X87642201Y-60955698D01*
X87571026Y-61042424D01*
X87500454Y-61174454D01*
X87474560Y-61259818D01*
X87460517Y-61306115D01*
X87456998Y-61317715D01*
X87452059Y-61367860D01*
X87404899Y-61393068D01*
X87186392Y-61572393D01*
X87007068Y-61790900D01*
X86936000Y-61923858D01*
X86864932Y-61790899D01*
X86685607Y-61572392D01*
X86467100Y-61393068D01*
X86217807Y-61259818D01*
X85947308Y-61177764D01*
X85666000Y-61150057D01*
X85384691Y-61177764D01*
X85114192Y-61259818D01*
X84864899Y-61393068D01*
X84646392Y-61572393D01*
X84467068Y-61790900D01*
X84396000Y-61923858D01*
X84324932Y-61790899D01*
X84145607Y-61572392D01*
X83927100Y-61393068D01*
X83677807Y-61259818D01*
X83407308Y-61177764D01*
X83126000Y-61150057D01*
X82844691Y-61177764D01*
X82574192Y-61259818D01*
X82324899Y-61393068D01*
X82106392Y-61572393D01*
X81927068Y-61790900D01*
X81856000Y-61923858D01*
X81784932Y-61790899D01*
X81605607Y-61572392D01*
X81387100Y-61393068D01*
X81137807Y-61259818D01*
X80867308Y-61177764D01*
X80586000Y-61150057D01*
X80304691Y-61177764D01*
X80034192Y-61259818D01*
X79784899Y-61393068D01*
X79566392Y-61572393D01*
X79387068Y-61790900D01*
X79253818Y-62040193D01*
X79171764Y-62310692D01*
X79151000Y-62521509D01*
X79151000Y-63462492D01*
X79171764Y-63673309D01*
X79253818Y-63943808D01*
X79387068Y-64193101D01*
X79566393Y-64411608D01*
X79784900Y-64590932D01*
X80034193Y-64724182D01*
X80304692Y-64806236D01*
X80586000Y-64833943D01*
X80867309Y-64806236D01*
X81137808Y-64724182D01*
X81387101Y-64590932D01*
X81605608Y-64411608D01*
X81784932Y-64193101D01*
X81856000Y-64060142D01*
X81927068Y-64193101D01*
X82106393Y-64411608D01*
X82324900Y-64590932D01*
X82574193Y-64724182D01*
X82844692Y-64806236D01*
X83126000Y-64833943D01*
X83407309Y-64806236D01*
X83677808Y-64724182D01*
X83927101Y-64590932D01*
X84145608Y-64411608D01*
X84324932Y-64193101D01*
X84396000Y-64060142D01*
X84467068Y-64193101D01*
X84646393Y-64411608D01*
X84674128Y-64434370D01*
X84025798Y-65082701D01*
X83996800Y-65106499D01*
X83973002Y-65135497D01*
X83973001Y-65135498D01*
X83901826Y-65222224D01*
X83831254Y-65354254D01*
X83816603Y-65402554D01*
X83788545Y-65495054D01*
X83787798Y-65497515D01*
X83773124Y-65646500D01*
X83776801Y-65683833D01*
X83776800Y-76552731D01*
X83677807Y-76499818D01*
X83407308Y-76417764D01*
X83126000Y-76390057D01*
X82844691Y-76417764D01*
X82574192Y-76499818D01*
X82324899Y-76633068D01*
X82106392Y-76812393D01*
X82013581Y-76925483D01*
X82011812Y-76907518D01*
X81975502Y-76787820D01*
X81916537Y-76677506D01*
X81837185Y-76580815D01*
X81740494Y-76501463D01*
X81630180Y-76442498D01*
X81510482Y-76406188D01*
X81386000Y-76393928D01*
X79786000Y-76393928D01*
X79661518Y-76406188D01*
X79541820Y-76442498D01*
X79431506Y-76501463D01*
X79334815Y-76580815D01*
X79255463Y-76677506D01*
X79196498Y-76787820D01*
X79160188Y-76907518D01*
X79147928Y-77032000D01*
X64210000Y-77032000D01*
X64210000Y-59878967D01*
X149575000Y-59878967D01*
X149575000Y-60201033D01*
X149637832Y-60516912D01*
X149761082Y-60814463D01*
X149940013Y-61082252D01*
X150167748Y-61309987D01*
X150435537Y-61488918D01*
X150733088Y-61612168D01*
X151048967Y-61675000D01*
X151371033Y-61675000D01*
X151686912Y-61612168D01*
X151984463Y-61488918D01*
X152252252Y-61309987D01*
X152479987Y-61082252D01*
X152658918Y-60814463D01*
X152782168Y-60516912D01*
X152845000Y-60201033D01*
X152845000Y-59878967D01*
X152782168Y-59563088D01*
X152658918Y-59265537D01*
X152479987Y-58997748D01*
X152252252Y-58770013D01*
X151984463Y-58591082D01*
X151686912Y-58467832D01*
X151371033Y-58405000D01*
X151048967Y-58405000D01*
X150733088Y-58467832D01*
X150435537Y-58591082D01*
X150167748Y-58770013D01*
X149940013Y-58997748D01*
X149761082Y-59265537D01*
X149637832Y-59563088D01*
X149575000Y-59878967D01*
X64210000Y-59878967D01*
X64210000Y-54375098D01*
X64925000Y-54375098D01*
X64925000Y-54844902D01*
X65016654Y-55305679D01*
X65196440Y-55739721D01*
X65457450Y-56130349D01*
X65789651Y-56462550D01*
X66180279Y-56723560D01*
X66614321Y-56903346D01*
X67075098Y-56995000D01*
X67544902Y-56995000D01*
X68005679Y-56903346D01*
X68439721Y-56723560D01*
X68830349Y-56462550D01*
X69162550Y-56130349D01*
X69423560Y-55739721D01*
X69603346Y-55305679D01*
X69695000Y-54844902D01*
X69695000Y-54375098D01*
X202085000Y-54375098D01*
X202085000Y-54844902D01*
X202176654Y-55305679D01*
X202356440Y-55739721D01*
X202617450Y-56130349D01*
X202949651Y-56462550D01*
X203340279Y-56723560D01*
X203774321Y-56903346D01*
X204235098Y-56995000D01*
X204704902Y-56995000D01*
X205165679Y-56903346D01*
X205599721Y-56723560D01*
X205990349Y-56462550D01*
X206322550Y-56130349D01*
X206583560Y-55739721D01*
X206763346Y-55305679D01*
X206855000Y-54844902D01*
X206855000Y-54375098D01*
X206763346Y-53914321D01*
X206583560Y-53480279D01*
X206322550Y-53089651D01*
X205990349Y-52757450D01*
X205599721Y-52496440D01*
X205165679Y-52316654D01*
X204704902Y-52225000D01*
X204235098Y-52225000D01*
X203774321Y-52316654D01*
X203340279Y-52496440D01*
X202949651Y-52757450D01*
X202617450Y-53089651D01*
X202356440Y-53480279D01*
X202176654Y-53914321D01*
X202085000Y-54375098D01*
X69695000Y-54375098D01*
X69603346Y-53914321D01*
X69423560Y-53480279D01*
X69162550Y-53089651D01*
X68830349Y-52757450D01*
X68439721Y-52496440D01*
X68005679Y-52316654D01*
X67544902Y-52225000D01*
X67075098Y-52225000D01*
X66614321Y-52316654D01*
X66180279Y-52496440D01*
X65789651Y-52757450D01*
X65457450Y-53089651D01*
X65196440Y-53480279D01*
X65016654Y-53914321D01*
X64925000Y-54375098D01*
X64210000Y-54375098D01*
X64210000Y-51510000D01*
X207570001Y-51510000D01*
X207570000Y-131370000D01*
G37*
G04 #@! TD.AperFunction*
D27*
X133320338Y-89250153D02*
X133413742Y-89343557D01*
X128559898Y-94197401D01*
X128530900Y-94221199D01*
X128507102Y-94250197D01*
X128507101Y-94250198D01*
X128435926Y-94336924D01*
X128365354Y-94468954D01*
X128335080Y-94568758D01*
X128321898Y-94612214D01*
X128313994Y-94692467D01*
X128307224Y-94761200D01*
X128310901Y-94798532D01*
X128310900Y-99466997D01*
X115566998Y-112210901D01*
X115538000Y-112234699D01*
X115514202Y-112263697D01*
X115514201Y-112263698D01*
X115443026Y-112350424D01*
X115372454Y-112482454D01*
X115346560Y-112567818D01*
X115328998Y-112625714D01*
X115324059Y-112675860D01*
X115276899Y-112701068D01*
X115058392Y-112880393D01*
X114879068Y-113098900D01*
X114808000Y-113231858D01*
X114736932Y-113098899D01*
X114557607Y-112880392D01*
X114339100Y-112701068D01*
X114089807Y-112567818D01*
X113819308Y-112485764D01*
X113538000Y-112458057D01*
X113256691Y-112485764D01*
X112986192Y-112567818D01*
X112736899Y-112701068D01*
X112518392Y-112880393D01*
X112339068Y-113098900D01*
X112268000Y-113231858D01*
X112196932Y-113098899D01*
X112017607Y-112880392D01*
X111799100Y-112701068D01*
X111549807Y-112567818D01*
X111279308Y-112485764D01*
X110998000Y-112458057D01*
X110716691Y-112485764D01*
X110446192Y-112567818D01*
X110196899Y-112701068D01*
X109978392Y-112880393D01*
X109799068Y-113098900D01*
X109728000Y-113231858D01*
X109656932Y-113098899D01*
X109477607Y-112880392D01*
X109259100Y-112701068D01*
X109009807Y-112567818D01*
X108739308Y-112485764D01*
X108458000Y-112458057D01*
X108176691Y-112485764D01*
X107948000Y-112555136D01*
X107948000Y-111416822D01*
X107951676Y-111379499D01*
X107948000Y-111342176D01*
X107948000Y-111342167D01*
X107937003Y-111230514D01*
X107893546Y-111087253D01*
X107822974Y-110955224D01*
X107809811Y-110939185D01*
X107751799Y-110868496D01*
X107751795Y-110868492D01*
X107728001Y-110839499D01*
X107699009Y-110815706D01*
X105617100Y-108733799D01*
X105617100Y-105755666D01*
X105704692Y-105782236D01*
X105986000Y-105809943D01*
X106267309Y-105782236D01*
X106537808Y-105700182D01*
X106787101Y-105566932D01*
X107005608Y-105387608D01*
X107184932Y-105169101D01*
X107256000Y-105036142D01*
X107327068Y-105169101D01*
X107506393Y-105387608D01*
X107724900Y-105566932D01*
X107974193Y-105700182D01*
X108244692Y-105782236D01*
X108526000Y-105809943D01*
X108807309Y-105782236D01*
X109077808Y-105700182D01*
X109327101Y-105566932D01*
X109545608Y-105387608D01*
X109724932Y-105169101D01*
X109796000Y-105036142D01*
X109867068Y-105169101D01*
X110046393Y-105387608D01*
X110264900Y-105566932D01*
X110312058Y-105592138D01*
X110316997Y-105642286D01*
X110360454Y-105785547D01*
X110431026Y-105917576D01*
X110525999Y-106033301D01*
X110641724Y-106128274D01*
X110773753Y-106198846D01*
X110917014Y-106242303D01*
X111028667Y-106253300D01*
X111066000Y-106256977D01*
X111103333Y-106253300D01*
X116577378Y-106253300D01*
X116614700Y-106256976D01*
X116652022Y-106253300D01*
X116652033Y-106253300D01*
X116763686Y-106242303D01*
X116906947Y-106198846D01*
X117038976Y-106128274D01*
X117154701Y-106033301D01*
X117178503Y-106004298D01*
X117735955Y-105446847D01*
X117761105Y-105472500D01*
X117994354Y-105631715D01*
X118254182Y-105742367D01*
X118336961Y-105759904D01*
X118559000Y-105637915D01*
X118559000Y-104095000D01*
X118813000Y-104095000D01*
X118813000Y-105637915D01*
X119035039Y-105759904D01*
X119117818Y-105742367D01*
X119377646Y-105631715D01*
X119610895Y-105472500D01*
X119808601Y-105270839D01*
X119963166Y-105034483D01*
X120068650Y-104772514D01*
X120121000Y-104495000D01*
X120121000Y-104095000D01*
X118813000Y-104095000D01*
X118559000Y-104095000D01*
X118539000Y-104095000D01*
X118539000Y-103841000D01*
X118559000Y-103841000D01*
X118559000Y-103821000D01*
X118813000Y-103821000D01*
X118813000Y-103841000D01*
X120121000Y-103841000D01*
X120121000Y-103441000D01*
X120068650Y-103163486D01*
X119963166Y-102901517D01*
X119808601Y-102665161D01*
X119610895Y-102463500D01*
X119406156Y-102323746D01*
X132577902Y-89152000D01*
X133254754Y-89152000D01*
X133320338Y-89250153D01*
G04 #@! TA.AperFunction,Conductor*
D28*
G36*
X133320338Y-89250153D02*
G01*
X133413742Y-89343557D01*
X128559898Y-94197401D01*
X128530900Y-94221199D01*
X128507102Y-94250197D01*
X128507101Y-94250198D01*
X128435926Y-94336924D01*
X128365354Y-94468954D01*
X128335080Y-94568758D01*
X128321898Y-94612214D01*
X128313994Y-94692467D01*
X128307224Y-94761200D01*
X128310901Y-94798532D01*
X128310900Y-99466997D01*
X115566998Y-112210901D01*
X115538000Y-112234699D01*
X115514202Y-112263697D01*
X115514201Y-112263698D01*
X115443026Y-112350424D01*
X115372454Y-112482454D01*
X115346560Y-112567818D01*
X115328998Y-112625714D01*
X115324059Y-112675860D01*
X115276899Y-112701068D01*
X115058392Y-112880393D01*
X114879068Y-113098900D01*
X114808000Y-113231858D01*
X114736932Y-113098899D01*
X114557607Y-112880392D01*
X114339100Y-112701068D01*
X114089807Y-112567818D01*
X113819308Y-112485764D01*
X113538000Y-112458057D01*
X113256691Y-112485764D01*
X112986192Y-112567818D01*
X112736899Y-112701068D01*
X112518392Y-112880393D01*
X112339068Y-113098900D01*
X112268000Y-113231858D01*
X112196932Y-113098899D01*
X112017607Y-112880392D01*
X111799100Y-112701068D01*
X111549807Y-112567818D01*
X111279308Y-112485764D01*
X110998000Y-112458057D01*
X110716691Y-112485764D01*
X110446192Y-112567818D01*
X110196899Y-112701068D01*
X109978392Y-112880393D01*
X109799068Y-113098900D01*
X109728000Y-113231858D01*
X109656932Y-113098899D01*
X109477607Y-112880392D01*
X109259100Y-112701068D01*
X109009807Y-112567818D01*
X108739308Y-112485764D01*
X108458000Y-112458057D01*
X108176691Y-112485764D01*
X107948000Y-112555136D01*
X107948000Y-111416822D01*
X107951676Y-111379499D01*
X107948000Y-111342176D01*
X107948000Y-111342167D01*
X107937003Y-111230514D01*
X107893546Y-111087253D01*
X107822974Y-110955224D01*
X107809811Y-110939185D01*
X107751799Y-110868496D01*
X107751795Y-110868492D01*
X107728001Y-110839499D01*
X107699009Y-110815706D01*
X105617100Y-108733799D01*
X105617100Y-105755666D01*
X105704692Y-105782236D01*
X105986000Y-105809943D01*
X106267309Y-105782236D01*
X106537808Y-105700182D01*
X106787101Y-105566932D01*
X107005608Y-105387608D01*
X107184932Y-105169101D01*
X107256000Y-105036142D01*
X107327068Y-105169101D01*
X107506393Y-105387608D01*
X107724900Y-105566932D01*
X107974193Y-105700182D01*
X108244692Y-105782236D01*
X108526000Y-105809943D01*
X108807309Y-105782236D01*
X109077808Y-105700182D01*
X109327101Y-105566932D01*
X109545608Y-105387608D01*
X109724932Y-105169101D01*
X109796000Y-105036142D01*
X109867068Y-105169101D01*
X110046393Y-105387608D01*
X110264900Y-105566932D01*
X110312058Y-105592138D01*
X110316997Y-105642286D01*
X110360454Y-105785547D01*
X110431026Y-105917576D01*
X110525999Y-106033301D01*
X110641724Y-106128274D01*
X110773753Y-106198846D01*
X110917014Y-106242303D01*
X111028667Y-106253300D01*
X111066000Y-106256977D01*
X111103333Y-106253300D01*
X116577378Y-106253300D01*
X116614700Y-106256976D01*
X116652022Y-106253300D01*
X116652033Y-106253300D01*
X116763686Y-106242303D01*
X116906947Y-106198846D01*
X117038976Y-106128274D01*
X117154701Y-106033301D01*
X117178503Y-106004298D01*
X117735955Y-105446847D01*
X117761105Y-105472500D01*
X117994354Y-105631715D01*
X118254182Y-105742367D01*
X118336961Y-105759904D01*
X118559000Y-105637915D01*
X118559000Y-104095000D01*
X118813000Y-104095000D01*
X118813000Y-105637915D01*
X119035039Y-105759904D01*
X119117818Y-105742367D01*
X119377646Y-105631715D01*
X119610895Y-105472500D01*
X119808601Y-105270839D01*
X119963166Y-105034483D01*
X120068650Y-104772514D01*
X120121000Y-104495000D01*
X120121000Y-104095000D01*
X118813000Y-104095000D01*
X118559000Y-104095000D01*
X118539000Y-104095000D01*
X118539000Y-103841000D01*
X118559000Y-103841000D01*
X118559000Y-103821000D01*
X118813000Y-103821000D01*
X118813000Y-103841000D01*
X120121000Y-103841000D01*
X120121000Y-103441000D01*
X120068650Y-103163486D01*
X119963166Y-102901517D01*
X119808601Y-102665161D01*
X119610895Y-102463500D01*
X119406156Y-102323746D01*
X132577902Y-89152000D01*
X133254754Y-89152000D01*
X133320338Y-89250153D01*
G37*
G04 #@! TD.AperFunction*
D27*
X137099748Y-85837858D02*
X137085605Y-85852000D01*
X137099748Y-85866143D01*
X136920143Y-86045748D01*
X136906000Y-86031605D01*
X136891858Y-86045748D01*
X136712253Y-85866143D01*
X136726395Y-85852000D01*
X136712253Y-85837858D01*
X136891858Y-85658253D01*
X136906000Y-85672395D01*
X136920143Y-85658253D01*
X137099748Y-85837858D01*
G04 #@! TA.AperFunction,Conductor*
D28*
G36*
X137099748Y-85837858D02*
G01*
X137085605Y-85852000D01*
X137099748Y-85866143D01*
X136920143Y-86045748D01*
X136906000Y-86031605D01*
X136891858Y-86045748D01*
X136712253Y-85866143D01*
X136726395Y-85852000D01*
X136712253Y-85837858D01*
X136891858Y-85658253D01*
X136906000Y-85672395D01*
X136920143Y-85658253D01*
X137099748Y-85837858D01*
G37*
G04 #@! TD.AperFunction*
D27*
X157419748Y-85837858D02*
X157405605Y-85852000D01*
X157419748Y-85866143D01*
X157240143Y-86045748D01*
X157226000Y-86031605D01*
X157211858Y-86045748D01*
X157032253Y-85866143D01*
X157046395Y-85852000D01*
X157032253Y-85837858D01*
X157211858Y-85658253D01*
X157226000Y-85672395D01*
X157240143Y-85658253D01*
X157419748Y-85837858D01*
G04 #@! TA.AperFunction,Conductor*
D28*
G36*
X157419748Y-85837858D02*
G01*
X157405605Y-85852000D01*
X157419748Y-85866143D01*
X157240143Y-86045748D01*
X157226000Y-86031605D01*
X157211858Y-86045748D01*
X157032253Y-85866143D01*
X157046395Y-85852000D01*
X157032253Y-85837858D01*
X157211858Y-85658253D01*
X157226000Y-85672395D01*
X157240143Y-85658253D01*
X157419748Y-85837858D01*
G37*
G04 #@! TD.AperFunction*
D27*
X159893000Y-85725000D02*
X159913000Y-85725000D01*
X159913000Y-85979000D01*
X159893000Y-85979000D01*
X159893000Y-85999000D01*
X159639000Y-85999000D01*
X159639000Y-85979000D01*
X159619000Y-85979000D01*
X159619000Y-85725000D01*
X159639000Y-85725000D01*
X159639000Y-85705000D01*
X159893000Y-85705000D01*
X159893000Y-85725000D01*
G04 #@! TA.AperFunction,Conductor*
D28*
G36*
X159893000Y-85725000D02*
G01*
X159913000Y-85725000D01*
X159913000Y-85979000D01*
X159893000Y-85979000D01*
X159893000Y-85999000D01*
X159639000Y-85999000D01*
X159639000Y-85979000D01*
X159619000Y-85979000D01*
X159619000Y-85725000D01*
X159639000Y-85725000D01*
X159639000Y-85705000D01*
X159893000Y-85705000D01*
X159893000Y-85725000D01*
G37*
G04 #@! TD.AperFunction*
D27*
X133523726Y-74635728D02*
X133507847Y-74646338D01*
X133320338Y-74833847D01*
X133173013Y-75054335D01*
X133071533Y-75299328D01*
X133019800Y-75559411D01*
X133019800Y-75824589D01*
X133071533Y-76084672D01*
X133173013Y-76329665D01*
X133320338Y-76550153D01*
X133507847Y-76737662D01*
X133728335Y-76884987D01*
X133914260Y-76962000D01*
X133728335Y-77039013D01*
X133507847Y-77186338D01*
X133320338Y-77373847D01*
X133173013Y-77594335D01*
X133071533Y-77839328D01*
X133019800Y-78099411D01*
X133019800Y-78350998D01*
X129009104Y-74340303D01*
X128985301Y-74311299D01*
X128879610Y-74224561D01*
X128857537Y-74191526D01*
X128713374Y-74047363D01*
X128543856Y-73934095D01*
X128355498Y-73856074D01*
X128155539Y-73816300D01*
X127951661Y-73816300D01*
X127751702Y-73856074D01*
X127563344Y-73934095D01*
X127393826Y-74047363D01*
X127249663Y-74191526D01*
X127136395Y-74361044D01*
X127058374Y-74549402D01*
X127018600Y-74749361D01*
X127018600Y-74953239D01*
X127058374Y-75153198D01*
X127136395Y-75341556D01*
X127249663Y-75511074D01*
X127393826Y-75655237D01*
X127563344Y-75768505D01*
X127751702Y-75846526D01*
X127951661Y-75886300D01*
X128155539Y-75886300D01*
X128355498Y-75846526D01*
X128362730Y-75843531D01*
X133042830Y-80523632D01*
X133019800Y-80639411D01*
X133019800Y-80904589D01*
X133071533Y-81164672D01*
X133120132Y-81282000D01*
X120977222Y-81282000D01*
X120939899Y-81278324D01*
X120902576Y-81282000D01*
X120902567Y-81282000D01*
X120790914Y-81292997D01*
X120666042Y-81330876D01*
X120647653Y-81336454D01*
X120515623Y-81407026D01*
X120443883Y-81465902D01*
X120399899Y-81501999D01*
X120376101Y-81530997D01*
X118176000Y-83731099D01*
X118176000Y-79973072D01*
X118254182Y-80006367D01*
X118336961Y-80023904D01*
X118559000Y-79901915D01*
X118559000Y-78359000D01*
X118813000Y-78359000D01*
X118813000Y-79901915D01*
X119035039Y-80023904D01*
X119117818Y-80006367D01*
X119377646Y-79895715D01*
X119610895Y-79736500D01*
X119808601Y-79534839D01*
X119963166Y-79298483D01*
X120068650Y-79036514D01*
X120121000Y-78759000D01*
X120121000Y-78359000D01*
X118813000Y-78359000D01*
X118559000Y-78359000D01*
X118539000Y-78359000D01*
X118539000Y-78105000D01*
X118559000Y-78105000D01*
X118559000Y-76562085D01*
X118813000Y-76562085D01*
X118813000Y-78105000D01*
X120121000Y-78105000D01*
X120121000Y-77705000D01*
X120068650Y-77427486D01*
X119963166Y-77165517D01*
X119808601Y-76929161D01*
X119610895Y-76727500D01*
X119377646Y-76568285D01*
X119117818Y-76457633D01*
X119035039Y-76440096D01*
X118813000Y-76562085D01*
X118559000Y-76562085D01*
X118336961Y-76440096D01*
X118254182Y-76457633D01*
X118176000Y-76490928D01*
X118176000Y-66102101D01*
X119197003Y-65081099D01*
X119226001Y-65057301D01*
X119320974Y-64941576D01*
X119391546Y-64809547D01*
X119435003Y-64666286D01*
X119439942Y-64616139D01*
X119487101Y-64590932D01*
X119705608Y-64411608D01*
X119884932Y-64193101D01*
X120018182Y-63943808D01*
X120100236Y-63673309D01*
X120121000Y-63462491D01*
X120121000Y-62521508D01*
X120100236Y-62310691D01*
X120071239Y-62215100D01*
X121103099Y-62215100D01*
X133523726Y-74635728D01*
G04 #@! TA.AperFunction,Conductor*
D28*
G36*
X133523726Y-74635728D02*
G01*
X133507847Y-74646338D01*
X133320338Y-74833847D01*
X133173013Y-75054335D01*
X133071533Y-75299328D01*
X133019800Y-75559411D01*
X133019800Y-75824589D01*
X133071533Y-76084672D01*
X133173013Y-76329665D01*
X133320338Y-76550153D01*
X133507847Y-76737662D01*
X133728335Y-76884987D01*
X133914260Y-76962000D01*
X133728335Y-77039013D01*
X133507847Y-77186338D01*
X133320338Y-77373847D01*
X133173013Y-77594335D01*
X133071533Y-77839328D01*
X133019800Y-78099411D01*
X133019800Y-78350998D01*
X129009104Y-74340303D01*
X128985301Y-74311299D01*
X128879610Y-74224561D01*
X128857537Y-74191526D01*
X128713374Y-74047363D01*
X128543856Y-73934095D01*
X128355498Y-73856074D01*
X128155539Y-73816300D01*
X127951661Y-73816300D01*
X127751702Y-73856074D01*
X127563344Y-73934095D01*
X127393826Y-74047363D01*
X127249663Y-74191526D01*
X127136395Y-74361044D01*
X127058374Y-74549402D01*
X127018600Y-74749361D01*
X127018600Y-74953239D01*
X127058374Y-75153198D01*
X127136395Y-75341556D01*
X127249663Y-75511074D01*
X127393826Y-75655237D01*
X127563344Y-75768505D01*
X127751702Y-75846526D01*
X127951661Y-75886300D01*
X128155539Y-75886300D01*
X128355498Y-75846526D01*
X128362730Y-75843531D01*
X133042830Y-80523632D01*
X133019800Y-80639411D01*
X133019800Y-80904589D01*
X133071533Y-81164672D01*
X133120132Y-81282000D01*
X120977222Y-81282000D01*
X120939899Y-81278324D01*
X120902576Y-81282000D01*
X120902567Y-81282000D01*
X120790914Y-81292997D01*
X120666042Y-81330876D01*
X120647653Y-81336454D01*
X120515623Y-81407026D01*
X120443883Y-81465902D01*
X120399899Y-81501999D01*
X120376101Y-81530997D01*
X118176000Y-83731099D01*
X118176000Y-79973072D01*
X118254182Y-80006367D01*
X118336961Y-80023904D01*
X118559000Y-79901915D01*
X118559000Y-78359000D01*
X118813000Y-78359000D01*
X118813000Y-79901915D01*
X119035039Y-80023904D01*
X119117818Y-80006367D01*
X119377646Y-79895715D01*
X119610895Y-79736500D01*
X119808601Y-79534839D01*
X119963166Y-79298483D01*
X120068650Y-79036514D01*
X120121000Y-78759000D01*
X120121000Y-78359000D01*
X118813000Y-78359000D01*
X118559000Y-78359000D01*
X118539000Y-78359000D01*
X118539000Y-78105000D01*
X118559000Y-78105000D01*
X118559000Y-76562085D01*
X118813000Y-76562085D01*
X118813000Y-78105000D01*
X120121000Y-78105000D01*
X120121000Y-77705000D01*
X120068650Y-77427486D01*
X119963166Y-77165517D01*
X119808601Y-76929161D01*
X119610895Y-76727500D01*
X119377646Y-76568285D01*
X119117818Y-76457633D01*
X119035039Y-76440096D01*
X118813000Y-76562085D01*
X118559000Y-76562085D01*
X118336961Y-76440096D01*
X118254182Y-76457633D01*
X118176000Y-76490928D01*
X118176000Y-66102101D01*
X119197003Y-65081099D01*
X119226001Y-65057301D01*
X119320974Y-64941576D01*
X119391546Y-64809547D01*
X119435003Y-64666286D01*
X119439942Y-64616139D01*
X119487101Y-64590932D01*
X119705608Y-64411608D01*
X119884932Y-64193101D01*
X120018182Y-63943808D01*
X120100236Y-63673309D01*
X120121000Y-63462491D01*
X120121000Y-62521508D01*
X120100236Y-62310691D01*
X120071239Y-62215100D01*
X121103099Y-62215100D01*
X133523726Y-74635728D01*
G37*
G04 #@! TD.AperFunction*
D27*
X152684044Y-69880245D02*
X152612063Y-69952226D01*
X152498795Y-70121744D01*
X152420774Y-70310102D01*
X152381000Y-70510061D01*
X152381000Y-70713939D01*
X152420774Y-70913898D01*
X152498795Y-71102256D01*
X152612063Y-71271774D01*
X152656001Y-71315712D01*
X152656001Y-71906132D01*
X152538672Y-71857533D01*
X152278589Y-71805800D01*
X152013411Y-71805800D01*
X151753328Y-71857533D01*
X151508335Y-71959013D01*
X151287847Y-72106338D01*
X151100338Y-72293847D01*
X150953013Y-72514335D01*
X150876000Y-72700260D01*
X150798987Y-72514335D01*
X150651662Y-72293847D01*
X150464153Y-72106338D01*
X150243665Y-71959013D01*
X149998672Y-71857533D01*
X149738589Y-71805800D01*
X149473411Y-71805800D01*
X149213328Y-71857533D01*
X148968335Y-71959013D01*
X148747847Y-72106338D01*
X148560338Y-72293847D01*
X148413013Y-72514335D01*
X148335031Y-72702600D01*
X148285542Y-72566720D01*
X148230183Y-72463152D01*
X147995273Y-72402332D01*
X147245605Y-73152000D01*
X147995273Y-73901668D01*
X148230183Y-73840848D01*
X148338206Y-73609066D01*
X148413013Y-73789665D01*
X148560338Y-74010153D01*
X148747847Y-74197662D01*
X148968335Y-74344987D01*
X149154260Y-74422000D01*
X148968335Y-74499013D01*
X148747847Y-74646338D01*
X148560338Y-74833847D01*
X148413013Y-75054335D01*
X148336000Y-75240260D01*
X148258987Y-75054335D01*
X148111662Y-74833847D01*
X147924153Y-74646338D01*
X147703665Y-74499013D01*
X147515400Y-74421031D01*
X147651280Y-74371542D01*
X147754848Y-74316183D01*
X147815668Y-74081273D01*
X147066000Y-73331605D01*
X147051858Y-73345748D01*
X146872253Y-73166143D01*
X146886395Y-73152000D01*
X146872253Y-73137858D01*
X147051858Y-72958253D01*
X147066000Y-72972395D01*
X147815668Y-72222727D01*
X147754848Y-71987817D01*
X147514491Y-71875798D01*
X147256898Y-71812824D01*
X146991970Y-71801313D01*
X146729887Y-71841709D01*
X146480720Y-71932458D01*
X146377152Y-71987817D01*
X146322201Y-72200059D01*
X146322201Y-70787510D01*
X146345937Y-70763774D01*
X146459205Y-70594256D01*
X146537226Y-70405898D01*
X146577000Y-70205939D01*
X146577000Y-70002061D01*
X146537226Y-69802102D01*
X146459205Y-69613744D01*
X146345937Y-69444226D01*
X146201774Y-69300063D01*
X146032256Y-69186795D01*
X145843898Y-69108774D01*
X145643939Y-69069000D01*
X145440061Y-69069000D01*
X145240102Y-69108774D01*
X145051744Y-69186795D01*
X144882226Y-69300063D01*
X144738063Y-69444226D01*
X144624795Y-69613744D01*
X144546774Y-69802102D01*
X144507000Y-70002061D01*
X144507000Y-70205939D01*
X144546774Y-70405898D01*
X144624795Y-70594256D01*
X144738063Y-70763774D01*
X144802202Y-70827913D01*
X144802202Y-71834366D01*
X144658589Y-71805800D01*
X144393411Y-71805800D01*
X144133328Y-71857533D01*
X143888335Y-71959013D01*
X143667847Y-72106338D01*
X143480338Y-72293847D01*
X143333013Y-72514335D01*
X143256000Y-72700260D01*
X143178987Y-72514335D01*
X143031662Y-72293847D01*
X142844153Y-72106338D01*
X142623665Y-71959013D01*
X142378672Y-71857533D01*
X142118589Y-71805800D01*
X141853411Y-71805800D01*
X141593328Y-71857533D01*
X141348335Y-71959013D01*
X141127847Y-72106338D01*
X140940338Y-72293847D01*
X140793013Y-72514335D01*
X140716000Y-72700260D01*
X140638987Y-72514335D01*
X140491662Y-72293847D01*
X140304153Y-72106338D01*
X140083665Y-71959013D01*
X139838672Y-71857533D01*
X139578589Y-71805800D01*
X139313411Y-71805800D01*
X139053328Y-71857533D01*
X138808335Y-71959013D01*
X138587847Y-72106338D01*
X138400338Y-72293847D01*
X138253013Y-72514335D01*
X138176000Y-72700260D01*
X138098987Y-72514335D01*
X137951662Y-72293847D01*
X137764153Y-72106338D01*
X137543665Y-71959013D01*
X137298672Y-71857533D01*
X137038589Y-71805800D01*
X136773411Y-71805800D01*
X136513328Y-71857533D01*
X136268335Y-71959013D01*
X136047847Y-72106338D01*
X135860338Y-72293847D01*
X135713013Y-72514335D01*
X135611533Y-72759328D01*
X135559800Y-73019411D01*
X135559800Y-73284589D01*
X135611533Y-73544672D01*
X135660132Y-73662000D01*
X134699602Y-73662000D01*
X122802301Y-61764700D01*
X144568499Y-61764700D01*
X152684044Y-69880245D01*
G04 #@! TA.AperFunction,Conductor*
D28*
G36*
X152684044Y-69880245D02*
G01*
X152612063Y-69952226D01*
X152498795Y-70121744D01*
X152420774Y-70310102D01*
X152381000Y-70510061D01*
X152381000Y-70713939D01*
X152420774Y-70913898D01*
X152498795Y-71102256D01*
X152612063Y-71271774D01*
X152656001Y-71315712D01*
X152656001Y-71906132D01*
X152538672Y-71857533D01*
X152278589Y-71805800D01*
X152013411Y-71805800D01*
X151753328Y-71857533D01*
X151508335Y-71959013D01*
X151287847Y-72106338D01*
X151100338Y-72293847D01*
X150953013Y-72514335D01*
X150876000Y-72700260D01*
X150798987Y-72514335D01*
X150651662Y-72293847D01*
X150464153Y-72106338D01*
X150243665Y-71959013D01*
X149998672Y-71857533D01*
X149738589Y-71805800D01*
X149473411Y-71805800D01*
X149213328Y-71857533D01*
X148968335Y-71959013D01*
X148747847Y-72106338D01*
X148560338Y-72293847D01*
X148413013Y-72514335D01*
X148335031Y-72702600D01*
X148285542Y-72566720D01*
X148230183Y-72463152D01*
X147995273Y-72402332D01*
X147245605Y-73152000D01*
X147995273Y-73901668D01*
X148230183Y-73840848D01*
X148338206Y-73609066D01*
X148413013Y-73789665D01*
X148560338Y-74010153D01*
X148747847Y-74197662D01*
X148968335Y-74344987D01*
X149154260Y-74422000D01*
X148968335Y-74499013D01*
X148747847Y-74646338D01*
X148560338Y-74833847D01*
X148413013Y-75054335D01*
X148336000Y-75240260D01*
X148258987Y-75054335D01*
X148111662Y-74833847D01*
X147924153Y-74646338D01*
X147703665Y-74499013D01*
X147515400Y-74421031D01*
X147651280Y-74371542D01*
X147754848Y-74316183D01*
X147815668Y-74081273D01*
X147066000Y-73331605D01*
X147051858Y-73345748D01*
X146872253Y-73166143D01*
X146886395Y-73152000D01*
X146872253Y-73137858D01*
X147051858Y-72958253D01*
X147066000Y-72972395D01*
X147815668Y-72222727D01*
X147754848Y-71987817D01*
X147514491Y-71875798D01*
X147256898Y-71812824D01*
X146991970Y-71801313D01*
X146729887Y-71841709D01*
X146480720Y-71932458D01*
X146377152Y-71987817D01*
X146322201Y-72200059D01*
X146322201Y-70787510D01*
X146345937Y-70763774D01*
X146459205Y-70594256D01*
X146537226Y-70405898D01*
X146577000Y-70205939D01*
X146577000Y-70002061D01*
X146537226Y-69802102D01*
X146459205Y-69613744D01*
X146345937Y-69444226D01*
X146201774Y-69300063D01*
X146032256Y-69186795D01*
X145843898Y-69108774D01*
X145643939Y-69069000D01*
X145440061Y-69069000D01*
X145240102Y-69108774D01*
X145051744Y-69186795D01*
X144882226Y-69300063D01*
X144738063Y-69444226D01*
X144624795Y-69613744D01*
X144546774Y-69802102D01*
X144507000Y-70002061D01*
X144507000Y-70205939D01*
X144546774Y-70405898D01*
X144624795Y-70594256D01*
X144738063Y-70763774D01*
X144802202Y-70827913D01*
X144802202Y-71834366D01*
X144658589Y-71805800D01*
X144393411Y-71805800D01*
X144133328Y-71857533D01*
X143888335Y-71959013D01*
X143667847Y-72106338D01*
X143480338Y-72293847D01*
X143333013Y-72514335D01*
X143256000Y-72700260D01*
X143178987Y-72514335D01*
X143031662Y-72293847D01*
X142844153Y-72106338D01*
X142623665Y-71959013D01*
X142378672Y-71857533D01*
X142118589Y-71805800D01*
X141853411Y-71805800D01*
X141593328Y-71857533D01*
X141348335Y-71959013D01*
X141127847Y-72106338D01*
X140940338Y-72293847D01*
X140793013Y-72514335D01*
X140716000Y-72700260D01*
X140638987Y-72514335D01*
X140491662Y-72293847D01*
X140304153Y-72106338D01*
X140083665Y-71959013D01*
X139838672Y-71857533D01*
X139578589Y-71805800D01*
X139313411Y-71805800D01*
X139053328Y-71857533D01*
X138808335Y-71959013D01*
X138587847Y-72106338D01*
X138400338Y-72293847D01*
X138253013Y-72514335D01*
X138176000Y-72700260D01*
X138098987Y-72514335D01*
X137951662Y-72293847D01*
X137764153Y-72106338D01*
X137543665Y-71959013D01*
X137298672Y-71857533D01*
X137038589Y-71805800D01*
X136773411Y-71805800D01*
X136513328Y-71857533D01*
X136268335Y-71959013D01*
X136047847Y-72106338D01*
X135860338Y-72293847D01*
X135713013Y-72514335D01*
X135611533Y-72759328D01*
X135559800Y-73019411D01*
X135559800Y-73284589D01*
X135611533Y-73544672D01*
X135660132Y-73662000D01*
X134699602Y-73662000D01*
X122802301Y-61764700D01*
X144568499Y-61764700D01*
X152684044Y-69880245D01*
G37*
G04 #@! TD.AperFunction*
M02*
