M48
; DRILL file {KiCad (5.1.10)-1} date 11/24/23 10:19:54
; FORMAT={-:-/ absolute / metric / decimal}
; #@! TF.CreationDate,2023-11-24T10:19:54-06:00
; #@! TF.GenerationSoftware,Kicad,Pcbnew,(5.1.10)-1
; #@! TF.FileFunction,Plated,1,2,PTH
FMAT,2
METRIC
T1C0.400
T2C0.800
T3C0.900
T4C0.920
T5C1.000
T6C1.100
T7C2.330
%
G90
G05
T1
X75.946Y-68.834
X75.946Y-94.234
X82.55Y-101.346
X83.058Y-58.166
X100.33Y-119.38
X117.793Y-85.189
X118.892Y-92.813
X122.936Y-69.596
X128.054Y-74.851
X129.794Y-112.014
X133.35Y-104.648
X139.954Y-66.548
X142.973Y-100.392
X143.25Y-85.053
X144.018Y-83.058
X145.542Y-70.104
X145.796Y-92.71
X145.796Y-102.108
X148.336Y-83.312
X153.416Y-70.612
X153.416Y-79.502
X155.632Y-100.218
X159.537Y-100.308
X160.856Y-101.797
X165.862Y-83.312
X179.324Y-91.44
T2
X75.946Y-119.38
X78.446Y-119.38
X80.586Y-62.992
X80.586Y-78.232
X80.586Y-88.728
X80.586Y-103.968
X83.126Y-62.992
X83.126Y-78.232
X83.126Y-88.728
X83.126Y-103.968
X85.666Y-62.992
X85.666Y-78.232
X85.666Y-88.728
X85.666Y-103.968
X88.206Y-62.992
X88.206Y-78.232
X88.206Y-88.728
X88.206Y-103.968
X90.746Y-62.992
X90.746Y-78.232
X90.746Y-88.728
X90.746Y-103.968
X93.286Y-62.992
X93.286Y-78.232
X93.286Y-88.728
X93.286Y-103.968
X95.826Y-62.992
X95.826Y-78.232
X95.826Y-88.728
X95.826Y-103.968
X98.366Y-62.992
X98.366Y-78.232
X98.366Y-88.728
X98.366Y-103.968
X100.906Y-62.992
X100.906Y-78.232
X100.906Y-88.728
X100.906Y-103.968
X103.378Y-114.3
X103.378Y-121.92
X103.446Y-62.992
X103.446Y-78.232
X103.446Y-88.728
X103.446Y-103.968
X105.918Y-114.3
X105.918Y-121.92
X105.986Y-62.992
X105.986Y-78.232
X105.986Y-88.728
X105.986Y-103.968
X108.458Y-114.3
X108.458Y-121.92
X108.526Y-62.992
X108.526Y-78.232
X108.526Y-88.728
X108.526Y-103.968
X110.998Y-114.3
X110.998Y-121.92
X111.066Y-62.992
X111.066Y-78.232
X111.066Y-88.728
X111.066Y-103.968
X113.538Y-114.3
X113.538Y-121.92
X113.606Y-62.992
X113.606Y-78.232
X113.606Y-88.728
X113.606Y-103.968
X116.078Y-114.3
X116.078Y-121.92
X116.146Y-62.992
X116.146Y-78.232
X116.146Y-88.728
X116.146Y-103.968
X118.618Y-114.3
X118.618Y-121.92
X118.686Y-62.992
X118.686Y-78.232
X118.686Y-88.728
X118.686Y-103.968
X133.096Y-109.22
X133.096Y-116.84
X134.366Y-75.692
X134.366Y-78.232
X134.366Y-80.772
X134.366Y-83.312
X134.366Y-85.852
X134.366Y-88.392
X134.366Y-90.932
X134.366Y-93.472
X134.366Y-96.012
X136.906Y-73.152
X136.906Y-75.692
X136.906Y-78.232
X136.906Y-80.772
X136.906Y-83.312
X136.906Y-85.852
X136.906Y-88.392
X136.906Y-90.932
X136.906Y-93.472
X136.906Y-96.012
X136.906Y-98.552
X139.446Y-73.152
X139.446Y-75.692
X139.446Y-96.012
X139.446Y-98.552
X141.986Y-73.152
X141.986Y-75.692
X141.986Y-96.012
X141.986Y-98.552
X144.526Y-73.152
X144.526Y-75.692
X144.526Y-96.012
X144.526Y-98.552
X147.066Y-73.152
X147.066Y-75.692
X147.066Y-96.012
X147.066Y-98.552
X148.336Y-109.22
X148.336Y-116.84
X149.606Y-73.152
X149.606Y-75.692
X149.606Y-96.012
X149.606Y-98.552
X152.146Y-73.152
X152.146Y-75.692
X152.146Y-96.012
X152.146Y-98.552
X154.686Y-73.152
X154.686Y-75.692
X154.686Y-96.012
X154.686Y-98.552
X157.226Y-73.152
X157.226Y-75.692
X157.226Y-78.232
X157.226Y-80.772
X157.226Y-83.312
X157.226Y-85.852
X157.226Y-88.392
X157.226Y-90.932
X157.226Y-93.472
X157.226Y-96.012
X157.226Y-98.552
X159.766Y-75.692
X159.766Y-78.232
X159.766Y-80.772
X159.766Y-83.312
X159.766Y-85.852
X159.766Y-88.392
X159.766Y-90.932
X159.766Y-93.472
X159.766Y-96.012
X177.038Y-69.088
X177.038Y-71.628
X177.038Y-74.168
X177.038Y-76.708
X177.038Y-79.248
X177.038Y-81.788
X177.038Y-84.328
X184.658Y-69.088
X184.658Y-71.628
X184.658Y-74.168
X184.658Y-76.708
X184.658Y-79.248
X184.658Y-81.788
X184.658Y-84.328
T3
X155.444Y-117.566
X157.984Y-117.566
X161.344Y-117.566
X163.884Y-117.566
X167.23Y-117.596
X169.77Y-117.596
X202.402Y-66.356
X202.402Y-68.896
T4
X196.088Y-81.28
X196.088Y-83.78
X198.088Y-81.28
X198.088Y-83.78
T5
X181.356Y-100.076
X181.356Y-102.616
X181.356Y-105.156
X181.356Y-107.696
X181.356Y-110.236
X181.356Y-112.776
X181.356Y-115.316
X181.356Y-117.856
T6
X151.21Y-60.04
X151.21Y-64.54
X157.71Y-60.04
X157.71Y-64.54
T7
X200.798Y-76.51
X200.798Y-88.55
T0
M30
