%FSLAX45Y45*%
G04 Gerber Fmt 4.5, Leading zero omitted, Abs format (unit mm)*
G04 Created by KiCad (PCBNEW (5.1.10)-1) date 2022-06-26 08:25:24*
%MOMM*%
%LPD*%
G01*
G04 APERTURE LIST*
%TA.AperFunction,Profile*%
%ADD10C,0.050000*%
%TD*%
%ADD11C,0.200000*%
%ADD12C,0.300000*%
G04 APERTURE END LIST*
D10*
X16500000Y-13000000D02*
X3000000Y-13000000D01*
X16500000Y-3000000D02*
X16500000Y-13000000D01*
X3000000Y-3000000D02*
X16500000Y-3000000D01*
X3000000Y-3000000D02*
X3000000Y-13000000D01*
D11*
X3905000Y-3505000D02*
X3945000Y-3545000D01*
X3945000Y-3505000D02*
X3905000Y-3545000D01*
X4591120Y-10680000D02*
X4631120Y-10720000D01*
X4631120Y-10680000D02*
X4591120Y-10720000D01*
X5605000Y-10830000D02*
X5645000Y-10870000D01*
X5645000Y-10830000D02*
X5605000Y-10870000D01*
X5707000Y-4207000D02*
X5747000Y-4247000D01*
X5747000Y-4207000D02*
X5707000Y-4247000D01*
X6134000Y-3826000D02*
X6174000Y-3866000D01*
X6174000Y-3826000D02*
X6134000Y-3866000D01*
X6641680Y-3918320D02*
X6681680Y-3958320D01*
X6681680Y-3918320D02*
X6641680Y-3958320D01*
X6680000Y-4130000D02*
X6720000Y-4170000D01*
X6720000Y-4130000D02*
X6680000Y-4170000D01*
X6680000Y-4555000D02*
X6720000Y-4595000D01*
X6720000Y-4555000D02*
X6680000Y-4595000D01*
X6735520Y-8180000D02*
X6775520Y-8220000D01*
X6775520Y-8180000D02*
X6735520Y-8220000D01*
X6939600Y-8336600D02*
X6979600Y-8376600D01*
X6979600Y-8336600D02*
X6939600Y-8376600D01*
X6941000Y-7717000D02*
X6981000Y-7757000D01*
X6981000Y-7717000D02*
X6941000Y-7757000D01*
X7051360Y-8580440D02*
X7091360Y-8620440D01*
X7091360Y-8580440D02*
X7051360Y-8620440D01*
X7053450Y-10119400D02*
X7093450Y-10159400D01*
X7093450Y-10119400D02*
X7053450Y-10159400D01*
X7086780Y-9591500D02*
X7126780Y-9631500D01*
X7126780Y-9591500D02*
X7086780Y-9631500D01*
X7136500Y-3636500D02*
X7176500Y-3676500D01*
X7176500Y-3636500D02*
X7136500Y-3676500D01*
X7330000Y-4230000D02*
X7370000Y-4270000D01*
X7370000Y-4230000D02*
X7330000Y-4270000D01*
X7473450Y-7751640D02*
X7513450Y-7791640D01*
X7513450Y-7751640D02*
X7473450Y-7791640D01*
X7486530Y-10173700D02*
X7526530Y-10213700D01*
X7526530Y-10173700D02*
X7486530Y-10213700D01*
X7579680Y-10051600D02*
X7619680Y-10091600D01*
X7619680Y-10051600D02*
X7579680Y-10091600D01*
X7615240Y-7229160D02*
X7655240Y-7269160D01*
X7655240Y-7229160D02*
X7615240Y-7269160D01*
X7655000Y-4030000D02*
X7695000Y-4070000D01*
X7695000Y-4030000D02*
X7655000Y-4070000D01*
X7696520Y-8875080D02*
X7736520Y-8915080D01*
X7736520Y-8875080D02*
X7696520Y-8915080D01*
X7725320Y-11830000D02*
X7765320Y-11870000D01*
X7765320Y-11830000D02*
X7725320Y-11870000D01*
X7759880Y-8720000D02*
X7799880Y-8760000D01*
X7799880Y-8720000D02*
X7759880Y-8760000D01*
X7765320Y-9360000D02*
X7805320Y-9400000D01*
X7805320Y-9360000D02*
X7765320Y-9400000D01*
X7798120Y-5938840D02*
X7838120Y-5978840D01*
X7838120Y-5938840D02*
X7798120Y-5978840D01*
X7798120Y-12441200D02*
X7838120Y-12481200D01*
X7838120Y-12441200D02*
X7798120Y-12481200D01*
X7816160Y-9680000D02*
X7856160Y-9720000D01*
X7856160Y-9680000D02*
X7816160Y-9720000D01*
X7818440Y-10749600D02*
X7858440Y-10789600D01*
X7858440Y-10749600D02*
X7818440Y-10789600D01*
X7969170Y-10919900D02*
X8009170Y-10959900D01*
X8009170Y-10919900D02*
X7969170Y-10959900D01*
X7981000Y-8158800D02*
X8021000Y-8198800D01*
X8021000Y-8158800D02*
X7981000Y-8198800D01*
X8019980Y-9800100D02*
X8059980Y-9840100D01*
X8059980Y-9800100D02*
X8019980Y-9840100D01*
X8143560Y-12141500D02*
X8183560Y-12181500D01*
X8183560Y-12141500D02*
X8143560Y-12181500D01*
X8203840Y-9252740D02*
X8243840Y-9292740D01*
X8243840Y-9252740D02*
X8203840Y-9292740D01*
X8224840Y-5786440D02*
X8264840Y-5826440D01*
X8264840Y-5786440D02*
X8224840Y-5826440D01*
X8235000Y-8519480D02*
X8275000Y-8559480D01*
X8275000Y-8519480D02*
X8235000Y-8559480D01*
X8280720Y-11989100D02*
X8320720Y-12029100D01*
X8320720Y-11989100D02*
X8280720Y-12029100D01*
X8315160Y-7724550D02*
X8355160Y-7764550D01*
X8355160Y-7724550D02*
X8315160Y-7764550D01*
X8327010Y-5091950D02*
X8367010Y-5131950D01*
X8367010Y-5091950D02*
X8327010Y-5131950D01*
X8354380Y-6315430D02*
X8394380Y-6355430D01*
X8394380Y-6315430D02*
X8354380Y-6355430D01*
X8395320Y-7401840D02*
X8435320Y-7441840D01*
X8435320Y-7401840D02*
X8395320Y-7441840D01*
X8396330Y-6529330D02*
X8436330Y-6569330D01*
X8436330Y-6529330D02*
X8396330Y-6569330D01*
X8412800Y-8570280D02*
X8452800Y-8610280D01*
X8452800Y-8570280D02*
X8412800Y-8610280D01*
X8418000Y-4793990D02*
X8458000Y-4833990D01*
X8458000Y-4793990D02*
X8418000Y-4833990D01*
X8473760Y-5481640D02*
X8513760Y-5521640D01*
X8513760Y-5481640D02*
X8473760Y-5521640D01*
X8494080Y-8870000D02*
X8534080Y-8910000D01*
X8534080Y-8870000D02*
X8494080Y-8910000D01*
X8568500Y-12342900D02*
X8608500Y-12382900D01*
X8608500Y-12342900D02*
X8568500Y-12382900D01*
X8613480Y-8592850D02*
X8653480Y-8632850D01*
X8653480Y-8592850D02*
X8613480Y-8632850D01*
X8689350Y-6742970D02*
X8729350Y-6782970D01*
X8729350Y-6742970D02*
X8689350Y-6782970D01*
X8702360Y-9139240D02*
X8742360Y-9179240D01*
X8742360Y-9139240D02*
X8702360Y-9179240D01*
X8719380Y-9350360D02*
X8759380Y-9390360D01*
X8759380Y-9350360D02*
X8719380Y-9390360D01*
X8772000Y-8918000D02*
X8812000Y-8958000D01*
X8812000Y-8918000D02*
X8772000Y-8958000D01*
X8780630Y-6331170D02*
X8820630Y-6371170D01*
X8820630Y-6331170D02*
X8780630Y-6371170D01*
X8788680Y-5196600D02*
X8828680Y-5236600D01*
X8828680Y-5196600D02*
X8788680Y-5236600D01*
X8805000Y-5055000D02*
X8845000Y-5095000D01*
X8845000Y-5055000D02*
X8805000Y-5095000D01*
X8805090Y-5936330D02*
X8845090Y-5976330D01*
X8845090Y-5936330D02*
X8805090Y-5976330D01*
X8863940Y-6446410D02*
X8903940Y-6486410D01*
X8903940Y-6446410D02*
X8863940Y-6486410D01*
X8870250Y-10145900D02*
X8910250Y-10185900D01*
X8910250Y-10145900D02*
X8870250Y-10185900D01*
X8888490Y-6133340D02*
X8928490Y-6173340D01*
X8928490Y-6133340D02*
X8888490Y-6173340D01*
X9040000Y-9669920D02*
X9080000Y-9709920D01*
X9080000Y-9669920D02*
X9040000Y-9709920D01*
X9046230Y-6130770D02*
X9086230Y-6170770D01*
X9086230Y-6130770D02*
X9046230Y-6170770D01*
X9065760Y-9040000D02*
X9105760Y-9080000D01*
X9105760Y-9040000D02*
X9065760Y-9080000D01*
X9071060Y-5158610D02*
X9111060Y-5198610D01*
X9111060Y-5158610D02*
X9071060Y-5198610D01*
X9087460Y-7788550D02*
X9127460Y-7828550D01*
X9127460Y-7788550D02*
X9087460Y-7828550D01*
X9125740Y-6611920D02*
X9165740Y-6651920D01*
X9165740Y-6611920D02*
X9125740Y-6651920D01*
X9187000Y-8587000D02*
X9227000Y-8627000D01*
X9227000Y-8587000D02*
X9187000Y-8627000D01*
X9187420Y-11816600D02*
X9227420Y-11856600D01*
X9227420Y-11816600D02*
X9187420Y-11856600D01*
X9219330Y-5378060D02*
X9259330Y-5418060D01*
X9259330Y-5378060D02*
X9219330Y-5418060D01*
X9248080Y-6602470D02*
X9288080Y-6642470D01*
X9288080Y-6602470D02*
X9248080Y-6642470D01*
X9260000Y-6940760D02*
X9300000Y-6980760D01*
X9300000Y-6940760D02*
X9260000Y-6980760D01*
X9260000Y-7431200D02*
X9300000Y-7471200D01*
X9300000Y-7431200D02*
X9260000Y-7471200D01*
X9305000Y-8480000D02*
X9345000Y-8520000D01*
X9345000Y-8480000D02*
X9305000Y-8520000D01*
X9305000Y-10680000D02*
X9345000Y-10720000D01*
X9345000Y-10680000D02*
X9305000Y-10720000D01*
X9380390Y-6600870D02*
X9420390Y-6640870D01*
X9420390Y-6600870D02*
X9380390Y-6640870D01*
X9400610Y-9040000D02*
X9440610Y-9080000D01*
X9440610Y-9040000D02*
X9400610Y-9080000D01*
X9400610Y-12750600D02*
X9440610Y-12790600D01*
X9440610Y-12750600D02*
X9400610Y-12790600D01*
X9401980Y-5174850D02*
X9441980Y-5214850D01*
X9441980Y-5174850D02*
X9401980Y-5214850D01*
X9480000Y-8480000D02*
X9520000Y-8520000D01*
X9520000Y-8480000D02*
X9480000Y-8520000D01*
X9480000Y-10430000D02*
X9520000Y-10470000D01*
X9520000Y-10430000D02*
X9480000Y-10470000D01*
X9553450Y-9485110D02*
X9593450Y-9525110D01*
X9593450Y-9485110D02*
X9553450Y-9525110D01*
X9557420Y-5427220D02*
X9597420Y-5467220D01*
X9597420Y-5427220D02*
X9557420Y-5467220D01*
X9564020Y-5752000D02*
X9604020Y-5792000D01*
X9604020Y-5752000D02*
X9564020Y-5792000D01*
X9574000Y-6443000D02*
X9614000Y-6483000D01*
X9614000Y-6443000D02*
X9574000Y-6483000D01*
X9576000Y-6210000D02*
X9616000Y-6250000D01*
X9616000Y-6210000D02*
X9576000Y-6250000D01*
X9580090Y-10089200D02*
X9620090Y-10129200D01*
X9620090Y-10089200D02*
X9580090Y-10129200D01*
X9580090Y-11650100D02*
X9620090Y-11690100D01*
X9620090Y-11650100D02*
X9580090Y-11690100D01*
X9588700Y-7782120D02*
X9628700Y-7822120D01*
X9628700Y-7782120D02*
X9588700Y-7822120D01*
X9626260Y-8717740D02*
X9666260Y-8757740D01*
X9666260Y-8717740D02*
X9626260Y-8757740D01*
X9645540Y-7906580D02*
X9685540Y-7946580D01*
X9685540Y-7906580D02*
X9645540Y-7946580D01*
X9654590Y-9405410D02*
X9694590Y-9445410D01*
X9694590Y-9405410D02*
X9654590Y-9445410D01*
X9668800Y-6723120D02*
X9708800Y-6763120D01*
X9708800Y-6723120D02*
X9668800Y-6763120D01*
X9741000Y-9311000D02*
X9781000Y-9351000D01*
X9781000Y-9311000D02*
X9741000Y-9351000D01*
X9789480Y-8630000D02*
X9829480Y-8670000D01*
X9829480Y-8630000D02*
X9789480Y-8670000D01*
X9830000Y-4580000D02*
X9870000Y-4620000D01*
X9870000Y-4580000D02*
X9830000Y-4620000D01*
X9915050Y-9452020D02*
X9955050Y-9492020D01*
X9955050Y-9452020D02*
X9915050Y-9492020D01*
X9930000Y-4030000D02*
X9970000Y-4070000D01*
X9970000Y-4030000D02*
X9930000Y-4070000D01*
X9939880Y-9658120D02*
X9979880Y-9698120D01*
X9979880Y-9658120D02*
X9939880Y-9698120D01*
X9970000Y-7741000D02*
X10010000Y-7781000D01*
X10010000Y-7741000D02*
X9970000Y-7781000D01*
X10007310Y-9192710D02*
X10047310Y-9232710D01*
X10047310Y-9192710D02*
X10007310Y-9232710D01*
X10063800Y-4628200D02*
X10103800Y-4668200D01*
X10103800Y-4628200D02*
X10063800Y-4668200D01*
X10065000Y-10545000D02*
X10105000Y-10585000D01*
X10105000Y-10545000D02*
X10065000Y-10585000D01*
X10186100Y-8058140D02*
X10226100Y-8098140D01*
X10226100Y-8058140D02*
X10186100Y-8098140D01*
X10211100Y-8164750D02*
X10251100Y-8204750D01*
X10251100Y-8164750D02*
X10211100Y-8204750D01*
X10260000Y-10080000D02*
X10300000Y-10120000D01*
X10300000Y-10080000D02*
X10260000Y-10120000D01*
X10267900Y-7254770D02*
X10307900Y-7294770D01*
X10307900Y-7254770D02*
X10267900Y-7294770D01*
X10326830Y-7941180D02*
X10366830Y-7981180D01*
X10366830Y-7941180D02*
X10326830Y-7981180D01*
X10404500Y-9885500D02*
X10444500Y-9925500D01*
X10444500Y-9885500D02*
X10404500Y-9925500D01*
X10420600Y-8681810D02*
X10460600Y-8721810D01*
X10460600Y-8681810D02*
X10420600Y-8721810D01*
X10494000Y-9022000D02*
X10534000Y-9062000D01*
X10534000Y-9022000D02*
X10494000Y-9062000D01*
X10519000Y-8567000D02*
X10559000Y-8607000D01*
X10559000Y-8567000D02*
X10519000Y-8607000D01*
X10539000Y-9188000D02*
X10579000Y-9228000D01*
X10579000Y-9188000D02*
X10539000Y-9228000D01*
X10539000Y-12635000D02*
X10579000Y-12675000D01*
X10579000Y-12635000D02*
X10539000Y-12675000D01*
X10555000Y-4030000D02*
X10595000Y-4070000D01*
X10595000Y-4030000D02*
X10555000Y-4070000D01*
X10555000Y-4330000D02*
X10595000Y-4370000D01*
X10595000Y-4330000D02*
X10555000Y-4370000D01*
X10652000Y-7040000D02*
X10692000Y-7080000D01*
X10692000Y-7040000D02*
X10652000Y-7080000D01*
X10674710Y-9170330D02*
X10714710Y-9210330D01*
X10714710Y-9170330D02*
X10674710Y-9210330D01*
X10737250Y-9987190D02*
X10777250Y-10027190D01*
X10777250Y-9987190D02*
X10737250Y-10027190D01*
X10749930Y-9445900D02*
X10789930Y-9485900D01*
X10789930Y-9445900D02*
X10749930Y-9485900D01*
X10784000Y-7199000D02*
X10824000Y-7239000D01*
X10824000Y-7199000D02*
X10784000Y-7239000D01*
X10851000Y-8673000D02*
X10891000Y-8713000D01*
X10891000Y-8673000D02*
X10851000Y-8713000D01*
X10851000Y-8900000D02*
X10891000Y-8940000D01*
X10891000Y-8900000D02*
X10851000Y-8940000D01*
X10860000Y-8207000D02*
X10900000Y-8247000D01*
X10900000Y-8207000D02*
X10860000Y-8247000D01*
X10860000Y-8441000D02*
X10900000Y-8481000D01*
X10900000Y-8441000D02*
X10860000Y-8481000D01*
X10873000Y-11842000D02*
X10913000Y-11882000D01*
X10913000Y-11842000D02*
X10873000Y-11882000D01*
X10982000Y-6284000D02*
X11022000Y-6324000D01*
X11022000Y-6284000D02*
X10982000Y-6324000D01*
X10982000Y-6872000D02*
X11022000Y-6912000D01*
X11022000Y-6872000D02*
X10982000Y-6912000D01*
X10982000Y-7479000D02*
X11022000Y-7519000D01*
X11022000Y-7479000D02*
X10982000Y-7519000D01*
X10988000Y-8666000D02*
X11028000Y-8706000D01*
X11028000Y-8666000D02*
X10988000Y-8706000D01*
X11030000Y-3905000D02*
X11070000Y-3945000D01*
X11070000Y-3905000D02*
X11030000Y-3945000D01*
X11129000Y-6430000D02*
X11169000Y-6470000D01*
X11169000Y-6430000D02*
X11129000Y-6470000D01*
X11130000Y-4780000D02*
X11170000Y-4820000D01*
X11170000Y-4780000D02*
X11130000Y-4820000D01*
X11130000Y-5055000D02*
X11170000Y-5095000D01*
X11170000Y-5055000D02*
X11130000Y-5095000D01*
X11158000Y-9228000D02*
X11198000Y-9268000D01*
X11198000Y-9228000D02*
X11158000Y-9268000D01*
X11180000Y-4005000D02*
X11220000Y-4045000D01*
X11220000Y-4005000D02*
X11180000Y-4045000D01*
X11370000Y-6190000D02*
X11410000Y-6230000D01*
X11410000Y-6190000D02*
X11370000Y-6230000D01*
X11370000Y-6940000D02*
X11410000Y-6980000D01*
X11410000Y-6940000D02*
X11370000Y-6980000D01*
X11379000Y-10566000D02*
X11419000Y-10606000D01*
X11419000Y-10566000D02*
X11379000Y-10606000D01*
X11447000Y-5801000D02*
X11487000Y-5841000D01*
X11487000Y-5801000D02*
X11447000Y-5841000D01*
X11500000Y-9094000D02*
X11540000Y-9134000D01*
X11540000Y-9094000D02*
X11500000Y-9134000D01*
X11548500Y-7381500D02*
X11588500Y-7421500D01*
X11588500Y-7381500D02*
X11548500Y-7421500D01*
X11585500Y-8905500D02*
X11625500Y-8945500D01*
X11625500Y-8905500D02*
X11585500Y-8945500D01*
X11600000Y-9720000D02*
X11640000Y-9760000D01*
X11640000Y-9720000D02*
X11600000Y-9760000D01*
X11627000Y-7046000D02*
X11667000Y-7086000D01*
X11667000Y-7046000D02*
X11627000Y-7086000D01*
X11662500Y-7635500D02*
X11702500Y-7675500D01*
X11702500Y-7635500D02*
X11662500Y-7675500D01*
X11720000Y-8780000D02*
X11760000Y-8820000D01*
X11760000Y-8780000D02*
X11720000Y-8820000D01*
X11720000Y-9420000D02*
X11760000Y-9460000D01*
X11760000Y-9420000D02*
X11720000Y-9460000D01*
X11751000Y-7168000D02*
X11791000Y-7208000D01*
X11791000Y-7168000D02*
X11751000Y-7208000D01*
X11821500Y-11471500D02*
X11861500Y-11511500D01*
X11861500Y-11471500D02*
X11821500Y-11511500D01*
X11855000Y-4380000D02*
X11895000Y-4420000D01*
X11895000Y-4380000D02*
X11855000Y-4420000D01*
X11911500Y-9355000D02*
X11951500Y-9395000D01*
X11951500Y-9355000D02*
X11911500Y-9395000D01*
X11914000Y-6683000D02*
X11954000Y-6723000D01*
X11954000Y-6683000D02*
X11914000Y-6723000D01*
X11920500Y-7254500D02*
X11960500Y-7294500D01*
X11960500Y-7254500D02*
X11920500Y-7294500D01*
X11930000Y-4905000D02*
X11970000Y-4945000D01*
X11970000Y-4905000D02*
X11930000Y-4945000D01*
X11960000Y-9570000D02*
X12000000Y-9610000D01*
X12000000Y-9570000D02*
X11960000Y-9610000D01*
X12001500Y-8778500D02*
X12041500Y-8818500D01*
X12041500Y-8778500D02*
X12001500Y-8818500D01*
X12134500Y-8905500D02*
X12174500Y-8945500D01*
X12174500Y-8905500D02*
X12134500Y-8945500D01*
X12134500Y-9885500D02*
X12174500Y-9925500D01*
X12174500Y-9885500D02*
X12134500Y-9925500D01*
X12163000Y-7456000D02*
X12203000Y-7496000D01*
X12203000Y-7456000D02*
X12163000Y-7496000D01*
X12171390Y-8406410D02*
X12211390Y-8446410D01*
X12211390Y-8406410D02*
X12171390Y-8446410D01*
X12280000Y-10080000D02*
X12320000Y-10120000D01*
X12320000Y-10080000D02*
X12280000Y-10120000D01*
X12282500Y-9032500D02*
X12322500Y-9072500D01*
X12322500Y-9032500D02*
X12282500Y-9072500D01*
X12286000Y-7128000D02*
X12326000Y-7168000D01*
X12326000Y-7128000D02*
X12286000Y-7168000D01*
X12291000Y-8407500D02*
X12331000Y-8447500D01*
X12331000Y-8407500D02*
X12291000Y-8447500D01*
X12367540Y-7704520D02*
X12407540Y-7744520D01*
X12407540Y-7704520D02*
X12367540Y-7744520D01*
X12385500Y-7381500D02*
X12425500Y-7421500D01*
X12425500Y-7381500D02*
X12385500Y-7421500D01*
X12404300Y-9798750D02*
X12444300Y-9838750D01*
X12444300Y-9798750D02*
X12404300Y-9838750D01*
X12655000Y-4005000D02*
X12695000Y-4045000D01*
X12695000Y-4005000D02*
X12655000Y-4045000D01*
X12677000Y-5940000D02*
X12717000Y-5980000D01*
X12717000Y-5940000D02*
X12677000Y-5980000D01*
X12730000Y-9350000D02*
X12770000Y-9390000D01*
X12770000Y-9350000D02*
X12730000Y-9390000D01*
X12746240Y-7321790D02*
X12786240Y-7361790D01*
X12786240Y-7321790D02*
X12746240Y-7361790D01*
X12765000Y-10587000D02*
X12805000Y-10627000D01*
X12805000Y-10587000D02*
X12765000Y-10627000D01*
X12775500Y-7635500D02*
X12815500Y-7675500D01*
X12815500Y-7635500D02*
X12775500Y-7675500D01*
X12807000Y-7976000D02*
X12847000Y-8016000D01*
X12847000Y-7976000D02*
X12807000Y-8016000D01*
X12837000Y-6563000D02*
X12877000Y-6603000D01*
X12877000Y-6563000D02*
X12837000Y-6603000D01*
X12855000Y-7324000D02*
X12895000Y-7364000D01*
X12895000Y-7324000D02*
X12855000Y-7364000D01*
X12876000Y-8793000D02*
X12916000Y-8833000D01*
X12916000Y-8793000D02*
X12876000Y-8833000D01*
X12949000Y-10346000D02*
X12989000Y-10386000D01*
X12989000Y-10346000D02*
X12949000Y-10386000D01*
X13456000Y-8611000D02*
X13496000Y-8651000D01*
X13496000Y-8611000D02*
X13456000Y-8651000D01*
X13456000Y-8971000D02*
X13496000Y-9011000D01*
X13496000Y-8971000D02*
X13456000Y-9011000D01*
X13628000Y-7975000D02*
X13668000Y-8015000D01*
X13668000Y-7975000D02*
X13628000Y-8015000D01*
X14859270Y-9328790D02*
X14899270Y-9368790D01*
X14899270Y-9328790D02*
X14859270Y-9368790D01*
X15175000Y-12007000D02*
X15215000Y-12047000D01*
X15215000Y-12007000D02*
X15175000Y-12047000D01*
X15375000Y-7861000D02*
X15415000Y-7901000D01*
X15415000Y-7861000D02*
X15375000Y-7901000D01*
X15643500Y-8889500D02*
X15683500Y-8929500D01*
X15683500Y-8889500D02*
X15643500Y-8929500D01*
X15782000Y-7874000D02*
X15822000Y-7914000D01*
X15822000Y-7874000D02*
X15782000Y-7914000D01*
X15882000Y-7710000D02*
X15922000Y-7750000D01*
X15922000Y-7710000D02*
X15882000Y-7750000D01*
X5040000Y-9800000D02*
G75*
G03*
X5040000Y-9800000I-40000J0D01*
G01*
X5090000Y-11600000D02*
G75*
G03*
X5090000Y-11600000I-40000J0D01*
G01*
X5290000Y-9800000D02*
G75*
G03*
X5290000Y-9800000I-40000J0D01*
G01*
X5340000Y-11600000D02*
G75*
G03*
X5340000Y-11600000I-40000J0D01*
G01*
X5501000Y-8928000D02*
G75*
G03*
X5501000Y-8928000I-40000J0D01*
G01*
X5501000Y-9128000D02*
G75*
G03*
X5501000Y-9128000I-40000J0D01*
G01*
X5940000Y-3330000D02*
G75*
G03*
X5940000Y-3330000I-40000J0D01*
G01*
X5940000Y-3584000D02*
G75*
G03*
X5940000Y-3584000I-40000J0D01*
G01*
X5940000Y-3838000D02*
G75*
G03*
X5940000Y-3838000I-40000J0D01*
G01*
X5940000Y-4092000D02*
G75*
G03*
X5940000Y-4092000I-40000J0D01*
G01*
X5940000Y-4346000D02*
G75*
G03*
X5940000Y-4346000I-40000J0D01*
G01*
X5940000Y-4600000D02*
G75*
G03*
X5940000Y-4600000I-40000J0D01*
G01*
X5940000Y-11200000D02*
G75*
G03*
X5940000Y-11200000I-40000J0D01*
G01*
X5940000Y-11454000D02*
G75*
G03*
X5940000Y-11454000I-40000J0D01*
G01*
X6263000Y-8928000D02*
G75*
G03*
X6263000Y-8928000I-40000J0D01*
G01*
X6263000Y-9128000D02*
G75*
G03*
X6263000Y-9128000I-40000J0D01*
G01*
X6640000Y-5400000D02*
G75*
G03*
X6640000Y-5400000I-40000J0D01*
G01*
X6640000Y-6200000D02*
G75*
G03*
X6640000Y-6200000I-40000J0D01*
G01*
X6690000Y-3300000D02*
G75*
G03*
X6690000Y-3300000I-40000J0D01*
G01*
X6840000Y-5400000D02*
G75*
G03*
X6840000Y-5400000I-40000J0D01*
G01*
X6840000Y-6200000D02*
G75*
G03*
X6840000Y-6200000I-40000J0D01*
G01*
X6940000Y-3300000D02*
G75*
G03*
X6940000Y-3300000I-40000J0D01*
G01*
X7340000Y-8200000D02*
G75*
G03*
X7340000Y-8200000I-40000J0D01*
G01*
X7340000Y-8454000D02*
G75*
G03*
X7340000Y-8454000I-40000J0D01*
G01*
X7340000Y-8708000D02*
G75*
G03*
X7340000Y-8708000I-40000J0D01*
G01*
X7340000Y-8962000D02*
G75*
G03*
X7340000Y-8962000I-40000J0D01*
G01*
X7340000Y-9216000D02*
G75*
G03*
X7340000Y-9216000I-40000J0D01*
G01*
X7340000Y-9470000D02*
G75*
G03*
X7340000Y-9470000I-40000J0D01*
G01*
X7340000Y-9724000D02*
G75*
G03*
X7340000Y-9724000I-40000J0D01*
G01*
X7340000Y-9978000D02*
G75*
G03*
X7340000Y-9978000I-40000J0D01*
G01*
X7340000Y-10232000D02*
G75*
G03*
X7340000Y-10232000I-40000J0D01*
G01*
X7340000Y-10486000D02*
G75*
G03*
X7340000Y-10486000I-40000J0D01*
G01*
X7340000Y-10740000D02*
G75*
G03*
X7340000Y-10740000I-40000J0D01*
G01*
X7340000Y-10994000D02*
G75*
G03*
X7340000Y-10994000I-40000J0D01*
G01*
X7340000Y-11248000D02*
G75*
G03*
X7340000Y-11248000I-40000J0D01*
G01*
X7340000Y-11502000D02*
G75*
G03*
X7340000Y-11502000I-40000J0D01*
G01*
X7589000Y-3818200D02*
G75*
G03*
X7589000Y-3818200I-40000J0D01*
G01*
X7589000Y-4654600D02*
G75*
G03*
X7589000Y-4654600I-40000J0D01*
G01*
X7843000Y-3818200D02*
G75*
G03*
X7843000Y-3818200I-40000J0D01*
G01*
X7843000Y-4654600D02*
G75*
G03*
X7843000Y-4654600I-40000J0D01*
G01*
X8097000Y-3818200D02*
G75*
G03*
X8097000Y-3818200I-40000J0D01*
G01*
X8097000Y-4654600D02*
G75*
G03*
X8097000Y-4654600I-40000J0D01*
G01*
X8351000Y-3818200D02*
G75*
G03*
X8351000Y-3818200I-40000J0D01*
G01*
X8351000Y-4654600D02*
G75*
G03*
X8351000Y-4654600I-40000J0D01*
G01*
X8516000Y-11100000D02*
G75*
G03*
X8516000Y-11100000I-40000J0D01*
G01*
X8516000Y-11862000D02*
G75*
G03*
X8516000Y-11862000I-40000J0D01*
G01*
X8605000Y-3818200D02*
G75*
G03*
X8605000Y-3818200I-40000J0D01*
G01*
X8605000Y-4654600D02*
G75*
G03*
X8605000Y-4654600I-40000J0D01*
G01*
X8740000Y-7450000D02*
G75*
G03*
X8740000Y-7450000I-40000J0D01*
G01*
X8740000Y-7700000D02*
G75*
G03*
X8740000Y-7700000I-40000J0D01*
G01*
X8859000Y-3818200D02*
G75*
G03*
X8859000Y-3818200I-40000J0D01*
G01*
X8859000Y-4654600D02*
G75*
G03*
X8859000Y-4654600I-40000J0D01*
G01*
X9113000Y-3818200D02*
G75*
G03*
X9113000Y-3818200I-40000J0D01*
G01*
X9113000Y-4654600D02*
G75*
G03*
X9113000Y-4654600I-40000J0D01*
G01*
X9367000Y-3818200D02*
G75*
G03*
X9367000Y-3818200I-40000J0D01*
G01*
X9367000Y-4654600D02*
G75*
G03*
X9367000Y-4654600I-40000J0D01*
G01*
X9621000Y-3818200D02*
G75*
G03*
X9621000Y-3818200I-40000J0D01*
G01*
X9621000Y-4654600D02*
G75*
G03*
X9621000Y-4654600I-40000J0D01*
G01*
X10040000Y-11100000D02*
G75*
G03*
X10040000Y-11100000I-40000J0D01*
G01*
X10040000Y-11862000D02*
G75*
G03*
X10040000Y-11862000I-40000J0D01*
G01*
X10340000Y-5900000D02*
G75*
G03*
X10340000Y-5900000I-40000J0D01*
G01*
X10340000Y-6150000D02*
G75*
G03*
X10340000Y-6150000I-40000J0D01*
G01*
X10590000Y-3400000D02*
G75*
G03*
X10590000Y-3400000I-40000J0D01*
G01*
X10840000Y-3400000D02*
G75*
G03*
X10840000Y-3400000I-40000J0D01*
G01*
X11040000Y-11200000D02*
G75*
G03*
X11040000Y-11200000I-40000J0D01*
G01*
X11040000Y-11450000D02*
G75*
G03*
X11040000Y-11450000I-40000J0D01*
G01*
X11440000Y-3400000D02*
G75*
G03*
X11440000Y-3400000I-40000J0D01*
G01*
X11440000Y-3654000D02*
G75*
G03*
X11440000Y-3654000I-40000J0D01*
G01*
X11440000Y-3908000D02*
G75*
G03*
X11440000Y-3908000I-40000J0D01*
G01*
X11440000Y-4162000D02*
G75*
G03*
X11440000Y-4162000I-40000J0D01*
G01*
X11440000Y-4416000D02*
G75*
G03*
X11440000Y-4416000I-40000J0D01*
G01*
X11440000Y-4670000D02*
G75*
G03*
X11440000Y-4670000I-40000J0D01*
G01*
X11740000Y-11238000D02*
G75*
G03*
X11740000Y-11238000I-40000J0D01*
G01*
X11740000Y-12000000D02*
G75*
G03*
X11740000Y-12000000I-40000J0D01*
G01*
X11994000Y-11238000D02*
G75*
G03*
X11994000Y-11238000I-40000J0D01*
G01*
X11994000Y-12000000D02*
G75*
G03*
X11994000Y-12000000I-40000J0D01*
G01*
X12186000Y-3400000D02*
G75*
G03*
X12186000Y-3400000I-40000J0D01*
G01*
X12240000Y-3900000D02*
G75*
G03*
X12240000Y-3900000I-40000J0D01*
G01*
X12240000Y-4154000D02*
G75*
G03*
X12240000Y-4154000I-40000J0D01*
G01*
X12240000Y-4408000D02*
G75*
G03*
X12240000Y-4408000I-40000J0D01*
G01*
X12240000Y-4662000D02*
G75*
G03*
X12240000Y-4662000I-40000J0D01*
G01*
X12240000Y-6700000D02*
G75*
G03*
X12240000Y-6700000I-40000J0D01*
G01*
X12248000Y-11238000D02*
G75*
G03*
X12248000Y-11238000I-40000J0D01*
G01*
X12248000Y-12000000D02*
G75*
G03*
X12248000Y-12000000I-40000J0D01*
G01*
X12440000Y-3400000D02*
G75*
G03*
X12440000Y-3400000I-40000J0D01*
G01*
X12490000Y-6700000D02*
G75*
G03*
X12490000Y-6700000I-40000J0D01*
G01*
X12502000Y-11238000D02*
G75*
G03*
X12502000Y-11238000I-40000J0D01*
G01*
X12502000Y-12000000D02*
G75*
G03*
X12502000Y-12000000I-40000J0D01*
G01*
X12756000Y-11238000D02*
G75*
G03*
X12756000Y-11238000I-40000J0D01*
G01*
X12756000Y-12000000D02*
G75*
G03*
X12756000Y-12000000I-40000J0D01*
G01*
X12790000Y-3400000D02*
G75*
G03*
X12790000Y-3400000I-40000J0D01*
G01*
X13002000Y-3900000D02*
G75*
G03*
X13002000Y-3900000I-40000J0D01*
G01*
X13002000Y-4154000D02*
G75*
G03*
X13002000Y-4154000I-40000J0D01*
G01*
X13002000Y-4408000D02*
G75*
G03*
X13002000Y-4408000I-40000J0D01*
G01*
X13002000Y-4662000D02*
G75*
G03*
X13002000Y-4662000I-40000J0D01*
G01*
X13010000Y-11238000D02*
G75*
G03*
X13010000Y-11238000I-40000J0D01*
G01*
X13010000Y-12000000D02*
G75*
G03*
X13010000Y-12000000I-40000J0D01*
G01*
X13040000Y-3400000D02*
G75*
G03*
X13040000Y-3400000I-40000J0D01*
G01*
X13190000Y-6200000D02*
G75*
G03*
X13190000Y-6200000I-40000J0D01*
G01*
X13190000Y-6454000D02*
G75*
G03*
X13190000Y-6454000I-40000J0D01*
G01*
X13190000Y-6708000D02*
G75*
G03*
X13190000Y-6708000I-40000J0D01*
G01*
X13190000Y-6962000D02*
G75*
G03*
X13190000Y-6962000I-40000J0D01*
G01*
X13190000Y-7216000D02*
G75*
G03*
X13190000Y-7216000I-40000J0D01*
G01*
X13190000Y-7470000D02*
G75*
G03*
X13190000Y-7470000I-40000J0D01*
G01*
X13190000Y-7724000D02*
G75*
G03*
X13190000Y-7724000I-40000J0D01*
G01*
X13190000Y-7978000D02*
G75*
G03*
X13190000Y-7978000I-40000J0D01*
G01*
X13190000Y-8232000D02*
G75*
G03*
X13190000Y-8232000I-40000J0D01*
G01*
X13190000Y-8486000D02*
G75*
G03*
X13190000Y-8486000I-40000J0D01*
G01*
X13190000Y-8740000D02*
G75*
G03*
X13190000Y-8740000I-40000J0D01*
G01*
X13190000Y-8994000D02*
G75*
G03*
X13190000Y-8994000I-40000J0D01*
G01*
X13190000Y-9248000D02*
G75*
G03*
X13190000Y-9248000I-40000J0D01*
G01*
X13190000Y-9502000D02*
G75*
G03*
X13190000Y-9502000I-40000J0D01*
G01*
X13190000Y-9756000D02*
G75*
G03*
X13190000Y-9756000I-40000J0D01*
G01*
X13190000Y-10010000D02*
G75*
G03*
X13190000Y-10010000I-40000J0D01*
G01*
X13264000Y-11238000D02*
G75*
G03*
X13264000Y-11238000I-40000J0D01*
G01*
X13264000Y-12000000D02*
G75*
G03*
X13264000Y-12000000I-40000J0D01*
G01*
X13518000Y-11238000D02*
G75*
G03*
X13518000Y-11238000I-40000J0D01*
G01*
X13518000Y-12000000D02*
G75*
G03*
X13518000Y-12000000I-40000J0D01*
G01*
X13772000Y-11238000D02*
G75*
G03*
X13772000Y-11238000I-40000J0D01*
G01*
X13772000Y-12000000D02*
G75*
G03*
X13772000Y-12000000I-40000J0D01*
G01*
X14026000Y-11238000D02*
G75*
G03*
X14026000Y-11238000I-40000J0D01*
G01*
X14026000Y-12000000D02*
G75*
G03*
X14026000Y-12000000I-40000J0D01*
G01*
X14440000Y-5600000D02*
G75*
G03*
X14440000Y-5600000I-40000J0D01*
G01*
X14690000Y-5600000D02*
G75*
G03*
X14690000Y-5600000I-40000J0D01*
G01*
X14714000Y-6200000D02*
G75*
G03*
X14714000Y-6200000I-40000J0D01*
G01*
X14714000Y-6454000D02*
G75*
G03*
X14714000Y-6454000I-40000J0D01*
G01*
X14714000Y-6708000D02*
G75*
G03*
X14714000Y-6708000I-40000J0D01*
G01*
X14714000Y-6962000D02*
G75*
G03*
X14714000Y-6962000I-40000J0D01*
G01*
X14714000Y-7216000D02*
G75*
G03*
X14714000Y-7216000I-40000J0D01*
G01*
X14714000Y-7470000D02*
G75*
G03*
X14714000Y-7470000I-40000J0D01*
G01*
X14714000Y-7724000D02*
G75*
G03*
X14714000Y-7724000I-40000J0D01*
G01*
X14714000Y-7978000D02*
G75*
G03*
X14714000Y-7978000I-40000J0D01*
G01*
X14714000Y-8232000D02*
G75*
G03*
X14714000Y-8232000I-40000J0D01*
G01*
X14714000Y-8486000D02*
G75*
G03*
X14714000Y-8486000I-40000J0D01*
G01*
X14714000Y-8740000D02*
G75*
G03*
X14714000Y-8740000I-40000J0D01*
G01*
X14714000Y-8994000D02*
G75*
G03*
X14714000Y-8994000I-40000J0D01*
G01*
X14714000Y-9248000D02*
G75*
G03*
X14714000Y-9248000I-40000J0D01*
G01*
X14714000Y-9502000D02*
G75*
G03*
X14714000Y-9502000I-40000J0D01*
G01*
X14714000Y-9756000D02*
G75*
G03*
X14714000Y-9756000I-40000J0D01*
G01*
X14714000Y-10010000D02*
G75*
G03*
X14714000Y-10010000I-40000J0D01*
G01*
X15023000Y-11600000D02*
G75*
G03*
X15023000Y-11600000I-40000J0D01*
G01*
X15190000Y-6200000D02*
G75*
G03*
X15190000Y-6200000I-40000J0D01*
G01*
X15190000Y-6700000D02*
G75*
G03*
X15190000Y-6700000I-40000J0D01*
G01*
X15190000Y-7228000D02*
G75*
G03*
X15190000Y-7228000I-40000J0D01*
G01*
X15277000Y-11600000D02*
G75*
G03*
X15277000Y-11600000I-40000J0D01*
G01*
X15440000Y-6200000D02*
G75*
G03*
X15440000Y-6200000I-40000J0D01*
G01*
X15440000Y-6700000D02*
G75*
G03*
X15440000Y-6700000I-40000J0D01*
G01*
X15440000Y-7228000D02*
G75*
G03*
X15440000Y-7228000I-40000J0D01*
G01*
X15740000Y-5700000D02*
G75*
G03*
X15740000Y-5700000I-40000J0D01*
G01*
X15990000Y-5700000D02*
G75*
G03*
X15990000Y-5700000I-40000J0D01*
G01*
X15990000Y-6438000D02*
G75*
G03*
X15990000Y-6438000I-40000J0D01*
G01*
X15990000Y-6692000D02*
G75*
G03*
X15990000Y-6692000I-40000J0D01*
G01*
X15990000Y-6946000D02*
G75*
G03*
X15990000Y-6946000I-40000J0D01*
G01*
X15990000Y-7200000D02*
G75*
G03*
X15990000Y-7200000I-40000J0D01*
G01*
X7400000Y-7201000D02*
X7400000Y-7291000D01*
X7355000Y-7246000D02*
X7445000Y-7246000D01*
X7400000Y-7455000D02*
X7400000Y-7545000D01*
X7355000Y-7500000D02*
X7445000Y-7500000D01*
X8000000Y-7201000D02*
X8000000Y-7291000D01*
X7955000Y-7246000D02*
X8045000Y-7246000D01*
X8000000Y-7455000D02*
X8000000Y-7545000D01*
X7955000Y-7500000D02*
X8045000Y-7500000D01*
X15646000Y-11555000D02*
X15646000Y-11645000D01*
X15601000Y-11600000D02*
X15691000Y-11600000D01*
X15900000Y-11555000D02*
X15900000Y-11645000D01*
X15855000Y-11600000D02*
X15945000Y-11600000D01*
X4032527Y-10582527D02*
X4032527Y-10517473D01*
X3967473Y-10517473D01*
X3967473Y-10582527D01*
X4032527Y-10582527D01*
X4032527Y-10832527D02*
X4032527Y-10767473D01*
X3967473Y-10767473D01*
X3967473Y-10832527D01*
X4032527Y-10832527D01*
X4232527Y-10582527D02*
X4232527Y-10517473D01*
X4167473Y-10517473D01*
X4167473Y-10582527D01*
X4232527Y-10582527D01*
X4232527Y-10832527D02*
X4232527Y-10767473D01*
X4167473Y-10767473D01*
X4167473Y-10832527D01*
X4232527Y-10832527D01*
X3400000Y-8150000D02*
X3450000Y-8100000D01*
X3400000Y-8050000D01*
X3350000Y-8100000D01*
X3400000Y-8150000D01*
X3360000Y-8000000D02*
X3360000Y-8200000D01*
X3440000Y-8000000D02*
X3440000Y-8200000D01*
X3360000Y-8200000D02*
G75*
G03*
X3440000Y-8200000I40000J0D01*
G01*
X3440000Y-8000000D02*
G75*
G03*
X3360000Y-8000000I-40000J0D01*
G01*
X3600000Y-9450000D02*
X3650000Y-9400000D01*
X3600000Y-9350000D01*
X3550000Y-9400000D01*
X3600000Y-9450000D01*
X3700000Y-8620000D02*
X3750000Y-8570000D01*
X3700000Y-8520000D01*
X3650000Y-8570000D01*
X3700000Y-8620000D01*
X3600000Y-8610000D02*
X3800000Y-8610000D01*
X3600000Y-8530000D02*
X3800000Y-8530000D01*
X3800000Y-8610000D02*
G75*
G03*
X3800000Y-8530000I0J40000D01*
G01*
X3600000Y-8530000D02*
G75*
G03*
X3600000Y-8610000I0J-40000D01*
G01*
X3854000Y-9450000D02*
X3904000Y-9400000D01*
X3854000Y-9350000D01*
X3804000Y-9400000D01*
X3854000Y-9450000D01*
X4000000Y-8150000D02*
X4050000Y-8100000D01*
X4000000Y-8050000D01*
X3950000Y-8100000D01*
X4000000Y-8150000D01*
X3960000Y-8000000D02*
X3960000Y-8200000D01*
X4040000Y-8000000D02*
X4040000Y-8200000D01*
X3960000Y-8200000D02*
G75*
G03*
X4040000Y-8200000I40000J0D01*
G01*
X4040000Y-8000000D02*
G75*
G03*
X3960000Y-8000000I-40000J0D01*
G01*
X4108000Y-9450000D02*
X4158000Y-9400000D01*
X4108000Y-9350000D01*
X4058000Y-9400000D01*
X4108000Y-9450000D01*
X5900000Y-10496000D02*
X5950000Y-10446000D01*
X5900000Y-10396000D01*
X5850000Y-10446000D01*
X5900000Y-10496000D01*
X5900000Y-10750000D02*
X5950000Y-10700000D01*
X5900000Y-10650000D01*
X5850000Y-10700000D01*
X5900000Y-10750000D01*
X7803000Y-3436400D02*
X7853000Y-3386400D01*
X7803000Y-3336400D01*
X7753000Y-3386400D01*
X7803000Y-3436400D01*
X7803000Y-4298200D02*
X7853000Y-4248200D01*
X7803000Y-4198200D01*
X7753000Y-4248200D01*
X7803000Y-4298200D01*
X8057000Y-3436400D02*
X8107000Y-3386400D01*
X8057000Y-3336400D01*
X8007000Y-3386400D01*
X8057000Y-3436400D01*
X8057000Y-4298200D02*
X8107000Y-4248200D01*
X8057000Y-4198200D01*
X8007000Y-4248200D01*
X8057000Y-4298200D01*
X8311000Y-3436400D02*
X8361000Y-3386400D01*
X8311000Y-3336400D01*
X8261000Y-3386400D01*
X8311000Y-3436400D01*
X8311000Y-4298200D02*
X8361000Y-4248200D01*
X8311000Y-4198200D01*
X8261000Y-4248200D01*
X8311000Y-4298200D01*
X8565000Y-3436400D02*
X8615000Y-3386400D01*
X8565000Y-3336400D01*
X8515000Y-3386400D01*
X8565000Y-3436400D01*
X8565000Y-4298200D02*
X8615000Y-4248200D01*
X8565000Y-4198200D01*
X8515000Y-4248200D01*
X8565000Y-4298200D01*
X8819000Y-3436400D02*
X8869000Y-3386400D01*
X8819000Y-3336400D01*
X8769000Y-3386400D01*
X8819000Y-3436400D01*
X8819000Y-4298200D02*
X8869000Y-4248200D01*
X8819000Y-4198200D01*
X8769000Y-4248200D01*
X8819000Y-4298200D01*
X9073000Y-3436400D02*
X9123000Y-3386400D01*
X9073000Y-3336400D01*
X9023000Y-3386400D01*
X9073000Y-3436400D01*
X9073000Y-4298200D02*
X9123000Y-4248200D01*
X9073000Y-4198200D01*
X9023000Y-4248200D01*
X9073000Y-4298200D01*
X9327000Y-3436400D02*
X9377000Y-3386400D01*
X9327000Y-3336400D01*
X9277000Y-3386400D01*
X9327000Y-3436400D01*
X9327000Y-4298200D02*
X9377000Y-4248200D01*
X9327000Y-4198200D01*
X9277000Y-4248200D01*
X9327000Y-4298200D01*
X9581000Y-3436400D02*
X9631000Y-3386400D01*
X9581000Y-3336400D01*
X9531000Y-3386400D01*
X9581000Y-3436400D01*
X9581000Y-4298200D02*
X9631000Y-4248200D01*
X9581000Y-4198200D01*
X9531000Y-4248200D01*
X9581000Y-4298200D01*
X13637000Y-3750000D02*
X13687000Y-3700000D01*
X13637000Y-3650000D01*
X13587000Y-3700000D01*
X13637000Y-3750000D01*
X13637000Y-4004000D02*
X13687000Y-3954000D01*
X13637000Y-3904000D01*
X13587000Y-3954000D01*
X13637000Y-4004000D01*
X13637000Y-4258000D02*
X13687000Y-4208000D01*
X13637000Y-4158000D01*
X13587000Y-4208000D01*
X13637000Y-4258000D01*
X13637000Y-4738000D02*
X13687000Y-4688000D01*
X13637000Y-4638000D01*
X13587000Y-4688000D01*
X13637000Y-4738000D01*
X13891000Y-3750000D02*
X13941000Y-3700000D01*
X13891000Y-3650000D01*
X13841000Y-3700000D01*
X13891000Y-3750000D01*
X13891000Y-4004000D02*
X13941000Y-3954000D01*
X13891000Y-3904000D01*
X13841000Y-3954000D01*
X13891000Y-4004000D01*
X13891000Y-4258000D02*
X13941000Y-4208000D01*
X13891000Y-4158000D01*
X13841000Y-4208000D01*
X13891000Y-4258000D01*
X13891000Y-4738000D02*
X13941000Y-4688000D01*
X13891000Y-4638000D01*
X13841000Y-4688000D01*
X13891000Y-4738000D01*
X3329000Y-7045000D02*
X3439000Y-7155000D01*
X3439000Y-7045000D02*
X3329000Y-7155000D01*
X3439000Y-7100000D02*
G75*
G03*
X3439000Y-7100000I-55000J0D01*
G01*
X4345000Y-7045000D02*
X4455000Y-7155000D01*
X4455000Y-7045000D02*
X4345000Y-7155000D01*
X4455000Y-7100000D02*
G75*
G03*
X4455000Y-7100000I-55000J0D01*
G01*
X15195000Y-9245000D02*
X15305000Y-9355000D01*
X15305000Y-9245000D02*
X15195000Y-9355000D01*
X15305000Y-9300000D02*
G75*
G03*
X15305000Y-9300000I-55000J0D01*
G01*
X15195000Y-9695000D02*
X15305000Y-9805000D01*
X15305000Y-9695000D02*
X15195000Y-9805000D01*
X15305000Y-9750000D02*
G75*
G03*
X15305000Y-9750000I-55000J0D01*
G01*
X15845000Y-9245000D02*
X15955000Y-9355000D01*
X15955000Y-9245000D02*
X15845000Y-9355000D01*
X15955000Y-9300000D02*
G75*
G03*
X15955000Y-9300000I-55000J0D01*
G01*
X15845000Y-9695000D02*
X15955000Y-9805000D01*
X15955000Y-9695000D02*
X15845000Y-9805000D01*
X15955000Y-9750000D02*
G75*
G03*
X15955000Y-9750000I-55000J0D01*
G01*
X3612500Y-9956500D02*
X3845500Y-10189500D01*
X3845500Y-9956500D02*
X3612500Y-10189500D01*
X3729000Y-9956500D02*
X3729000Y-10189500D01*
X3612500Y-10073000D02*
X3845500Y-10073000D01*
X3612500Y-11160500D02*
X3845500Y-11393500D01*
X3845500Y-11160500D02*
X3612500Y-11393500D01*
X3729000Y-11160500D02*
X3729000Y-11393500D01*
X3612500Y-11277000D02*
X3845500Y-11277000D01*
D12*
X3283928Y-13468214D02*
X3283928Y-13168214D01*
X3355357Y-13168214D01*
X3398214Y-13182500D01*
X3426786Y-13211071D01*
X3441071Y-13239643D01*
X3455357Y-13296786D01*
X3455357Y-13339643D01*
X3441071Y-13396786D01*
X3426786Y-13425357D01*
X3398214Y-13453929D01*
X3355357Y-13468214D01*
X3283928Y-13468214D01*
X3583928Y-13468214D02*
X3583928Y-13268214D01*
X3583928Y-13325357D02*
X3598214Y-13296786D01*
X3612500Y-13282500D01*
X3641071Y-13268214D01*
X3669643Y-13268214D01*
X3769643Y-13468214D02*
X3769643Y-13268214D01*
X3769643Y-13168214D02*
X3755357Y-13182500D01*
X3769643Y-13196786D01*
X3783928Y-13182500D01*
X3769643Y-13168214D01*
X3769643Y-13196786D01*
X3955357Y-13468214D02*
X3926786Y-13453929D01*
X3912500Y-13425357D01*
X3912500Y-13168214D01*
X4112500Y-13468214D02*
X4083928Y-13453929D01*
X4069643Y-13425357D01*
X4069643Y-13168214D01*
X4455357Y-13468214D02*
X4455357Y-13168214D01*
X4555357Y-13382500D01*
X4655357Y-13168214D01*
X4655357Y-13468214D01*
X4926786Y-13468214D02*
X4926786Y-13311071D01*
X4912500Y-13282500D01*
X4883928Y-13268214D01*
X4826786Y-13268214D01*
X4798214Y-13282500D01*
X4926786Y-13453929D02*
X4898214Y-13468214D01*
X4826786Y-13468214D01*
X4798214Y-13453929D01*
X4783928Y-13425357D01*
X4783928Y-13396786D01*
X4798214Y-13368214D01*
X4826786Y-13353929D01*
X4898214Y-13353929D01*
X4926786Y-13339643D01*
X5069643Y-13268214D02*
X5069643Y-13568214D01*
X5069643Y-13282500D02*
X5098214Y-13268214D01*
X5155357Y-13268214D01*
X5183928Y-13282500D01*
X5198214Y-13296786D01*
X5212500Y-13325357D01*
X5212500Y-13411071D01*
X5198214Y-13439643D01*
X5183928Y-13453929D01*
X5155357Y-13468214D01*
X5098214Y-13468214D01*
X5069643Y-13453929D01*
X5341071Y-13439643D02*
X5355357Y-13453929D01*
X5341071Y-13468214D01*
X5326786Y-13453929D01*
X5341071Y-13439643D01*
X5341071Y-13468214D01*
X5341071Y-13282500D02*
X5355357Y-13296786D01*
X5341071Y-13311071D01*
X5326786Y-13296786D01*
X5341071Y-13282500D01*
X5341071Y-13311071D01*
X2957500Y-13942500D02*
X2997500Y-13982500D01*
X2997500Y-13942500D02*
X2957500Y-13982500D01*
X3341071Y-13798214D02*
X3369643Y-13798214D01*
X3398214Y-13812500D01*
X3412500Y-13826786D01*
X3426786Y-13855357D01*
X3441071Y-13912500D01*
X3441071Y-13983929D01*
X3426786Y-14041071D01*
X3412500Y-14069643D01*
X3398214Y-14083929D01*
X3369643Y-14098214D01*
X3341071Y-14098214D01*
X3312500Y-14083929D01*
X3298214Y-14069643D01*
X3283928Y-14041071D01*
X3269643Y-13983929D01*
X3269643Y-13912500D01*
X3283928Y-13855357D01*
X3298214Y-13826786D01*
X3312500Y-13812500D01*
X3341071Y-13798214D01*
X3569643Y-14069643D02*
X3583928Y-14083929D01*
X3569643Y-14098214D01*
X3555357Y-14083929D01*
X3569643Y-14069643D01*
X3569643Y-14098214D01*
X3841071Y-13898214D02*
X3841071Y-14098214D01*
X3769643Y-13783929D02*
X3698214Y-13998214D01*
X3883928Y-13998214D01*
X4055357Y-13798214D02*
X4083928Y-13798214D01*
X4112500Y-13812500D01*
X4126786Y-13826786D01*
X4141071Y-13855357D01*
X4155357Y-13912500D01*
X4155357Y-13983929D01*
X4141071Y-14041071D01*
X4126786Y-14069643D01*
X4112500Y-14083929D01*
X4083928Y-14098214D01*
X4055357Y-14098214D01*
X4026786Y-14083929D01*
X4012500Y-14069643D01*
X3998214Y-14041071D01*
X3983928Y-13983929D01*
X3983928Y-13912500D01*
X3998214Y-13855357D01*
X4012500Y-13826786D01*
X4026786Y-13812500D01*
X4055357Y-13798214D01*
X4341071Y-13798214D02*
X4369643Y-13798214D01*
X4398214Y-13812500D01*
X4412500Y-13826786D01*
X4426786Y-13855357D01*
X4441071Y-13912500D01*
X4441071Y-13983929D01*
X4426786Y-14041071D01*
X4412500Y-14069643D01*
X4398214Y-14083929D01*
X4369643Y-14098214D01*
X4341071Y-14098214D01*
X4312500Y-14083929D01*
X4298214Y-14069643D01*
X4283928Y-14041071D01*
X4269643Y-13983929D01*
X4269643Y-13912500D01*
X4283928Y-13855357D01*
X4298214Y-13826786D01*
X4312500Y-13812500D01*
X4341071Y-13798214D01*
X4569643Y-14098214D02*
X4569643Y-13898214D01*
X4569643Y-13926786D02*
X4583928Y-13912500D01*
X4612500Y-13898214D01*
X4655357Y-13898214D01*
X4683928Y-13912500D01*
X4698214Y-13941071D01*
X4698214Y-14098214D01*
X4698214Y-13941071D02*
X4712500Y-13912500D01*
X4741071Y-13898214D01*
X4783928Y-13898214D01*
X4812500Y-13912500D01*
X4826786Y-13941071D01*
X4826786Y-14098214D01*
X4969643Y-14098214D02*
X4969643Y-13898214D01*
X4969643Y-13926786D02*
X4983928Y-13912500D01*
X5012500Y-13898214D01*
X5055357Y-13898214D01*
X5083928Y-13912500D01*
X5098214Y-13941071D01*
X5098214Y-14098214D01*
X5098214Y-13941071D02*
X5112500Y-13912500D01*
X5141071Y-13898214D01*
X5183928Y-13898214D01*
X5212500Y-13912500D01*
X5226786Y-13941071D01*
X5226786Y-14098214D01*
X5812500Y-13783929D02*
X5555357Y-14169643D01*
X6198214Y-13798214D02*
X6226786Y-13798214D01*
X6255357Y-13812500D01*
X6269643Y-13826786D01*
X6283928Y-13855357D01*
X6298214Y-13912500D01*
X6298214Y-13983929D01*
X6283928Y-14041071D01*
X6269643Y-14069643D01*
X6255357Y-14083929D01*
X6226786Y-14098214D01*
X6198214Y-14098214D01*
X6169643Y-14083929D01*
X6155357Y-14069643D01*
X6141071Y-14041071D01*
X6126786Y-13983929D01*
X6126786Y-13912500D01*
X6141071Y-13855357D01*
X6155357Y-13826786D01*
X6169643Y-13812500D01*
X6198214Y-13798214D01*
X6426786Y-14069643D02*
X6441071Y-14083929D01*
X6426786Y-14098214D01*
X6412500Y-14083929D01*
X6426786Y-14069643D01*
X6426786Y-14098214D01*
X6626786Y-13798214D02*
X6655357Y-13798214D01*
X6683928Y-13812500D01*
X6698214Y-13826786D01*
X6712500Y-13855357D01*
X6726786Y-13912500D01*
X6726786Y-13983929D01*
X6712500Y-14041071D01*
X6698214Y-14069643D01*
X6683928Y-14083929D01*
X6655357Y-14098214D01*
X6626786Y-14098214D01*
X6598214Y-14083929D01*
X6583928Y-14069643D01*
X6569643Y-14041071D01*
X6555357Y-13983929D01*
X6555357Y-13912500D01*
X6569643Y-13855357D01*
X6583928Y-13826786D01*
X6598214Y-13812500D01*
X6626786Y-13798214D01*
X7012500Y-14098214D02*
X6841071Y-14098214D01*
X6926786Y-14098214D02*
X6926786Y-13798214D01*
X6898214Y-13841071D01*
X6869643Y-13869643D01*
X6841071Y-13883929D01*
X7283928Y-13798214D02*
X7141071Y-13798214D01*
X7126786Y-13941071D01*
X7141071Y-13926786D01*
X7169643Y-13912500D01*
X7241071Y-13912500D01*
X7269643Y-13926786D01*
X7283928Y-13941071D01*
X7298214Y-13969643D01*
X7298214Y-14041071D01*
X7283928Y-14069643D01*
X7269643Y-14083929D01*
X7241071Y-14098214D01*
X7169643Y-14098214D01*
X7141071Y-14083929D01*
X7126786Y-14069643D01*
X7398214Y-13798214D02*
X7598214Y-13798214D01*
X7469643Y-14098214D01*
X7698214Y-13798214D02*
X7698214Y-13855357D01*
X7812500Y-13798214D02*
X7812500Y-13855357D01*
X8255357Y-14212500D02*
X8241071Y-14198214D01*
X8212500Y-14155357D01*
X8198214Y-14126786D01*
X8183928Y-14083929D01*
X8169643Y-14012500D01*
X8169643Y-13955357D01*
X8183928Y-13883929D01*
X8198214Y-13841071D01*
X8212500Y-13812500D01*
X8241071Y-13769643D01*
X8255357Y-13755357D01*
X8526786Y-14098214D02*
X8355357Y-14098214D01*
X8441071Y-14098214D02*
X8441071Y-13798214D01*
X8412500Y-13841071D01*
X8383928Y-13869643D01*
X8355357Y-13883929D01*
X8698214Y-13926786D02*
X8669643Y-13912500D01*
X8655357Y-13898214D01*
X8641071Y-13869643D01*
X8641071Y-13855357D01*
X8655357Y-13826786D01*
X8669643Y-13812500D01*
X8698214Y-13798214D01*
X8755357Y-13798214D01*
X8783928Y-13812500D01*
X8798214Y-13826786D01*
X8812500Y-13855357D01*
X8812500Y-13869643D01*
X8798214Y-13898214D01*
X8783928Y-13912500D01*
X8755357Y-13926786D01*
X8698214Y-13926786D01*
X8669643Y-13941071D01*
X8655357Y-13955357D01*
X8641071Y-13983929D01*
X8641071Y-14041071D01*
X8655357Y-14069643D01*
X8669643Y-14083929D01*
X8698214Y-14098214D01*
X8755357Y-14098214D01*
X8783928Y-14083929D01*
X8798214Y-14069643D01*
X8812500Y-14041071D01*
X8812500Y-13983929D01*
X8798214Y-13955357D01*
X8783928Y-13941071D01*
X8755357Y-13926786D01*
X9069643Y-13798214D02*
X9012500Y-13798214D01*
X8983928Y-13812500D01*
X8969643Y-13826786D01*
X8941071Y-13869643D01*
X8926786Y-13926786D01*
X8926786Y-14041071D01*
X8941071Y-14069643D01*
X8955357Y-14083929D01*
X8983928Y-14098214D01*
X9041071Y-14098214D01*
X9069643Y-14083929D01*
X9083928Y-14069643D01*
X9098214Y-14041071D01*
X9098214Y-13969643D01*
X9083928Y-13941071D01*
X9069643Y-13926786D01*
X9041071Y-13912500D01*
X8983928Y-13912500D01*
X8955357Y-13926786D01*
X8941071Y-13941071D01*
X8926786Y-13969643D01*
X9455357Y-14098214D02*
X9455357Y-13798214D01*
X9583928Y-14098214D02*
X9583928Y-13941071D01*
X9569643Y-13912500D01*
X9541071Y-13898214D01*
X9498214Y-13898214D01*
X9469643Y-13912500D01*
X9455357Y-13926786D01*
X9769643Y-14098214D02*
X9741071Y-14083929D01*
X9726786Y-14069643D01*
X9712500Y-14041071D01*
X9712500Y-13955357D01*
X9726786Y-13926786D01*
X9741071Y-13912500D01*
X9769643Y-13898214D01*
X9812500Y-13898214D01*
X9841071Y-13912500D01*
X9855357Y-13926786D01*
X9869643Y-13955357D01*
X9869643Y-14041071D01*
X9855357Y-14069643D01*
X9841071Y-14083929D01*
X9812500Y-14098214D01*
X9769643Y-14098214D01*
X10041071Y-14098214D02*
X10012500Y-14083929D01*
X9998214Y-14055357D01*
X9998214Y-13798214D01*
X10269643Y-14083929D02*
X10241071Y-14098214D01*
X10183928Y-14098214D01*
X10155357Y-14083929D01*
X10141071Y-14055357D01*
X10141071Y-13941071D01*
X10155357Y-13912500D01*
X10183928Y-13898214D01*
X10241071Y-13898214D01*
X10269643Y-13912500D01*
X10283928Y-13941071D01*
X10283928Y-13969643D01*
X10141071Y-13998214D01*
X10398214Y-14083929D02*
X10426786Y-14098214D01*
X10483928Y-14098214D01*
X10512500Y-14083929D01*
X10526786Y-14055357D01*
X10526786Y-14041071D01*
X10512500Y-14012500D01*
X10483928Y-13998214D01*
X10441071Y-13998214D01*
X10412500Y-13983929D01*
X10398214Y-13955357D01*
X10398214Y-13941071D01*
X10412500Y-13912500D01*
X10441071Y-13898214D01*
X10483928Y-13898214D01*
X10512500Y-13912500D01*
X10626786Y-14212500D02*
X10641071Y-14198214D01*
X10669643Y-14155357D01*
X10683928Y-14126786D01*
X10698214Y-14083929D01*
X10712500Y-14012500D01*
X10712500Y-13955357D01*
X10698214Y-13883929D01*
X10683928Y-13841071D01*
X10669643Y-13812500D01*
X10641071Y-13769643D01*
X10626786Y-13755357D01*
X2997500Y-14358500D02*
G75*
G03*
X2997500Y-14358500I-40000J0D01*
G01*
X3341071Y-14194214D02*
X3369643Y-14194214D01*
X3398214Y-14208500D01*
X3412500Y-14222786D01*
X3426786Y-14251357D01*
X3441071Y-14308500D01*
X3441071Y-14379929D01*
X3426786Y-14437071D01*
X3412500Y-14465643D01*
X3398214Y-14479929D01*
X3369643Y-14494214D01*
X3341071Y-14494214D01*
X3312500Y-14479929D01*
X3298214Y-14465643D01*
X3283928Y-14437071D01*
X3269643Y-14379929D01*
X3269643Y-14308500D01*
X3283928Y-14251357D01*
X3298214Y-14222786D01*
X3312500Y-14208500D01*
X3341071Y-14194214D01*
X3569643Y-14465643D02*
X3583928Y-14479929D01*
X3569643Y-14494214D01*
X3555357Y-14479929D01*
X3569643Y-14465643D01*
X3569643Y-14494214D01*
X3755357Y-14322786D02*
X3726786Y-14308500D01*
X3712500Y-14294214D01*
X3698214Y-14265643D01*
X3698214Y-14251357D01*
X3712500Y-14222786D01*
X3726786Y-14208500D01*
X3755357Y-14194214D01*
X3812500Y-14194214D01*
X3841071Y-14208500D01*
X3855357Y-14222786D01*
X3869643Y-14251357D01*
X3869643Y-14265643D01*
X3855357Y-14294214D01*
X3841071Y-14308500D01*
X3812500Y-14322786D01*
X3755357Y-14322786D01*
X3726786Y-14337071D01*
X3712500Y-14351357D01*
X3698214Y-14379929D01*
X3698214Y-14437071D01*
X3712500Y-14465643D01*
X3726786Y-14479929D01*
X3755357Y-14494214D01*
X3812500Y-14494214D01*
X3841071Y-14479929D01*
X3855357Y-14465643D01*
X3869643Y-14437071D01*
X3869643Y-14379929D01*
X3855357Y-14351357D01*
X3841071Y-14337071D01*
X3812500Y-14322786D01*
X4055357Y-14194214D02*
X4083928Y-14194214D01*
X4112500Y-14208500D01*
X4126786Y-14222786D01*
X4141071Y-14251357D01*
X4155357Y-14308500D01*
X4155357Y-14379929D01*
X4141071Y-14437071D01*
X4126786Y-14465643D01*
X4112500Y-14479929D01*
X4083928Y-14494214D01*
X4055357Y-14494214D01*
X4026786Y-14479929D01*
X4012500Y-14465643D01*
X3998214Y-14437071D01*
X3983928Y-14379929D01*
X3983928Y-14308500D01*
X3998214Y-14251357D01*
X4012500Y-14222786D01*
X4026786Y-14208500D01*
X4055357Y-14194214D01*
X4341071Y-14194214D02*
X4369643Y-14194214D01*
X4398214Y-14208500D01*
X4412500Y-14222786D01*
X4426786Y-14251357D01*
X4441071Y-14308500D01*
X4441071Y-14379929D01*
X4426786Y-14437071D01*
X4412500Y-14465643D01*
X4398214Y-14479929D01*
X4369643Y-14494214D01*
X4341071Y-14494214D01*
X4312500Y-14479929D01*
X4298214Y-14465643D01*
X4283928Y-14437071D01*
X4269643Y-14379929D01*
X4269643Y-14308500D01*
X4283928Y-14251357D01*
X4298214Y-14222786D01*
X4312500Y-14208500D01*
X4341071Y-14194214D01*
X4569643Y-14494214D02*
X4569643Y-14294214D01*
X4569643Y-14322786D02*
X4583928Y-14308500D01*
X4612500Y-14294214D01*
X4655357Y-14294214D01*
X4683928Y-14308500D01*
X4698214Y-14337071D01*
X4698214Y-14494214D01*
X4698214Y-14337071D02*
X4712500Y-14308500D01*
X4741071Y-14294214D01*
X4783928Y-14294214D01*
X4812500Y-14308500D01*
X4826786Y-14337071D01*
X4826786Y-14494214D01*
X4969643Y-14494214D02*
X4969643Y-14294214D01*
X4969643Y-14322786D02*
X4983928Y-14308500D01*
X5012500Y-14294214D01*
X5055357Y-14294214D01*
X5083928Y-14308500D01*
X5098214Y-14337071D01*
X5098214Y-14494214D01*
X5098214Y-14337071D02*
X5112500Y-14308500D01*
X5141071Y-14294214D01*
X5183928Y-14294214D01*
X5212500Y-14308500D01*
X5226786Y-14337071D01*
X5226786Y-14494214D01*
X5812500Y-14179929D02*
X5555357Y-14565643D01*
X6198214Y-14194214D02*
X6226786Y-14194214D01*
X6255357Y-14208500D01*
X6269643Y-14222786D01*
X6283928Y-14251357D01*
X6298214Y-14308500D01*
X6298214Y-14379929D01*
X6283928Y-14437071D01*
X6269643Y-14465643D01*
X6255357Y-14479929D01*
X6226786Y-14494214D01*
X6198214Y-14494214D01*
X6169643Y-14479929D01*
X6155357Y-14465643D01*
X6141071Y-14437071D01*
X6126786Y-14379929D01*
X6126786Y-14308500D01*
X6141071Y-14251357D01*
X6155357Y-14222786D01*
X6169643Y-14208500D01*
X6198214Y-14194214D01*
X6426786Y-14465643D02*
X6441071Y-14479929D01*
X6426786Y-14494214D01*
X6412500Y-14479929D01*
X6426786Y-14465643D01*
X6426786Y-14494214D01*
X6626786Y-14194214D02*
X6655357Y-14194214D01*
X6683928Y-14208500D01*
X6698214Y-14222786D01*
X6712500Y-14251357D01*
X6726786Y-14308500D01*
X6726786Y-14379929D01*
X6712500Y-14437071D01*
X6698214Y-14465643D01*
X6683928Y-14479929D01*
X6655357Y-14494214D01*
X6626786Y-14494214D01*
X6598214Y-14479929D01*
X6583928Y-14465643D01*
X6569643Y-14437071D01*
X6555357Y-14379929D01*
X6555357Y-14308500D01*
X6569643Y-14251357D01*
X6583928Y-14222786D01*
X6598214Y-14208500D01*
X6626786Y-14194214D01*
X6826786Y-14194214D02*
X7012500Y-14194214D01*
X6912500Y-14308500D01*
X6955357Y-14308500D01*
X6983928Y-14322786D01*
X6998214Y-14337071D01*
X7012500Y-14365643D01*
X7012500Y-14437071D01*
X6998214Y-14465643D01*
X6983928Y-14479929D01*
X6955357Y-14494214D01*
X6869643Y-14494214D01*
X6841071Y-14479929D01*
X6826786Y-14465643D01*
X7298214Y-14494214D02*
X7126786Y-14494214D01*
X7212500Y-14494214D02*
X7212500Y-14194214D01*
X7183928Y-14237071D01*
X7155357Y-14265643D01*
X7126786Y-14279929D01*
X7569643Y-14194214D02*
X7426786Y-14194214D01*
X7412500Y-14337071D01*
X7426786Y-14322786D01*
X7455357Y-14308500D01*
X7526786Y-14308500D01*
X7555357Y-14322786D01*
X7569643Y-14337071D01*
X7583928Y-14365643D01*
X7583928Y-14437071D01*
X7569643Y-14465643D01*
X7555357Y-14479929D01*
X7526786Y-14494214D01*
X7455357Y-14494214D01*
X7426786Y-14479929D01*
X7412500Y-14465643D01*
X7698214Y-14194214D02*
X7698214Y-14251357D01*
X7812500Y-14194214D02*
X7812500Y-14251357D01*
X8255357Y-14608500D02*
X8241071Y-14594214D01*
X8212500Y-14551357D01*
X8198214Y-14522786D01*
X8183928Y-14479929D01*
X8169643Y-14408500D01*
X8169643Y-14351357D01*
X8183928Y-14279929D01*
X8198214Y-14237071D01*
X8212500Y-14208500D01*
X8241071Y-14165643D01*
X8255357Y-14151357D01*
X8526786Y-14494214D02*
X8355357Y-14494214D01*
X8441071Y-14494214D02*
X8441071Y-14194214D01*
X8412500Y-14237071D01*
X8383928Y-14265643D01*
X8355357Y-14279929D01*
X8798214Y-14194214D02*
X8655357Y-14194214D01*
X8641071Y-14337071D01*
X8655357Y-14322786D01*
X8683928Y-14308500D01*
X8755357Y-14308500D01*
X8783928Y-14322786D01*
X8798214Y-14337071D01*
X8812500Y-14365643D01*
X8812500Y-14437071D01*
X8798214Y-14465643D01*
X8783928Y-14479929D01*
X8755357Y-14494214D01*
X8683928Y-14494214D01*
X8655357Y-14479929D01*
X8641071Y-14465643D01*
X9069643Y-14294214D02*
X9069643Y-14494214D01*
X8998214Y-14179929D02*
X8926786Y-14394214D01*
X9112500Y-14394214D01*
X9455357Y-14494214D02*
X9455357Y-14194214D01*
X9583928Y-14494214D02*
X9583928Y-14337071D01*
X9569643Y-14308500D01*
X9541071Y-14294214D01*
X9498214Y-14294214D01*
X9469643Y-14308500D01*
X9455357Y-14322786D01*
X9769643Y-14494214D02*
X9741071Y-14479929D01*
X9726786Y-14465643D01*
X9712500Y-14437071D01*
X9712500Y-14351357D01*
X9726786Y-14322786D01*
X9741071Y-14308500D01*
X9769643Y-14294214D01*
X9812500Y-14294214D01*
X9841071Y-14308500D01*
X9855357Y-14322786D01*
X9869643Y-14351357D01*
X9869643Y-14437071D01*
X9855357Y-14465643D01*
X9841071Y-14479929D01*
X9812500Y-14494214D01*
X9769643Y-14494214D01*
X10041071Y-14494214D02*
X10012500Y-14479929D01*
X9998214Y-14451357D01*
X9998214Y-14194214D01*
X10269643Y-14479929D02*
X10241071Y-14494214D01*
X10183928Y-14494214D01*
X10155357Y-14479929D01*
X10141071Y-14451357D01*
X10141071Y-14337071D01*
X10155357Y-14308500D01*
X10183928Y-14294214D01*
X10241071Y-14294214D01*
X10269643Y-14308500D01*
X10283928Y-14337071D01*
X10283928Y-14365643D01*
X10141071Y-14394214D01*
X10398214Y-14479929D02*
X10426786Y-14494214D01*
X10483928Y-14494214D01*
X10512500Y-14479929D01*
X10526786Y-14451357D01*
X10526786Y-14437071D01*
X10512500Y-14408500D01*
X10483928Y-14394214D01*
X10441071Y-14394214D01*
X10412500Y-14379929D01*
X10398214Y-14351357D01*
X10398214Y-14337071D01*
X10412500Y-14308500D01*
X10441071Y-14294214D01*
X10483928Y-14294214D01*
X10512500Y-14308500D01*
X10626786Y-14608500D02*
X10641071Y-14594214D01*
X10669643Y-14551357D01*
X10683928Y-14522786D01*
X10698214Y-14479929D01*
X10712500Y-14408500D01*
X10712500Y-14351357D01*
X10698214Y-14279929D01*
X10683928Y-14237071D01*
X10669643Y-14208500D01*
X10641071Y-14165643D01*
X10626786Y-14151357D01*
X2952500Y-14709500D02*
X2952500Y-14799500D01*
X2907500Y-14754500D02*
X2997500Y-14754500D01*
X3341071Y-14590214D02*
X3369643Y-14590214D01*
X3398214Y-14604500D01*
X3412500Y-14618786D01*
X3426786Y-14647357D01*
X3441071Y-14704500D01*
X3441071Y-14775929D01*
X3426786Y-14833071D01*
X3412500Y-14861643D01*
X3398214Y-14875929D01*
X3369643Y-14890214D01*
X3341071Y-14890214D01*
X3312500Y-14875929D01*
X3298214Y-14861643D01*
X3283928Y-14833071D01*
X3269643Y-14775929D01*
X3269643Y-14704500D01*
X3283928Y-14647357D01*
X3298214Y-14618786D01*
X3312500Y-14604500D01*
X3341071Y-14590214D01*
X3569643Y-14861643D02*
X3583928Y-14875929D01*
X3569643Y-14890214D01*
X3555357Y-14875929D01*
X3569643Y-14861643D01*
X3569643Y-14890214D01*
X3726786Y-14890214D02*
X3783928Y-14890214D01*
X3812500Y-14875929D01*
X3826786Y-14861643D01*
X3855357Y-14818786D01*
X3869643Y-14761643D01*
X3869643Y-14647357D01*
X3855357Y-14618786D01*
X3841071Y-14604500D01*
X3812500Y-14590214D01*
X3755357Y-14590214D01*
X3726786Y-14604500D01*
X3712500Y-14618786D01*
X3698214Y-14647357D01*
X3698214Y-14718786D01*
X3712500Y-14747357D01*
X3726786Y-14761643D01*
X3755357Y-14775929D01*
X3812500Y-14775929D01*
X3841071Y-14761643D01*
X3855357Y-14747357D01*
X3869643Y-14718786D01*
X4055357Y-14590214D02*
X4083928Y-14590214D01*
X4112500Y-14604500D01*
X4126786Y-14618786D01*
X4141071Y-14647357D01*
X4155357Y-14704500D01*
X4155357Y-14775929D01*
X4141071Y-14833071D01*
X4126786Y-14861643D01*
X4112500Y-14875929D01*
X4083928Y-14890214D01*
X4055357Y-14890214D01*
X4026786Y-14875929D01*
X4012500Y-14861643D01*
X3998214Y-14833071D01*
X3983928Y-14775929D01*
X3983928Y-14704500D01*
X3998214Y-14647357D01*
X4012500Y-14618786D01*
X4026786Y-14604500D01*
X4055357Y-14590214D01*
X4341071Y-14590214D02*
X4369643Y-14590214D01*
X4398214Y-14604500D01*
X4412500Y-14618786D01*
X4426786Y-14647357D01*
X4441071Y-14704500D01*
X4441071Y-14775929D01*
X4426786Y-14833071D01*
X4412500Y-14861643D01*
X4398214Y-14875929D01*
X4369643Y-14890214D01*
X4341071Y-14890214D01*
X4312500Y-14875929D01*
X4298214Y-14861643D01*
X4283928Y-14833071D01*
X4269643Y-14775929D01*
X4269643Y-14704500D01*
X4283928Y-14647357D01*
X4298214Y-14618786D01*
X4312500Y-14604500D01*
X4341071Y-14590214D01*
X4569643Y-14890214D02*
X4569643Y-14690214D01*
X4569643Y-14718786D02*
X4583928Y-14704500D01*
X4612500Y-14690214D01*
X4655357Y-14690214D01*
X4683928Y-14704500D01*
X4698214Y-14733071D01*
X4698214Y-14890214D01*
X4698214Y-14733071D02*
X4712500Y-14704500D01*
X4741071Y-14690214D01*
X4783928Y-14690214D01*
X4812500Y-14704500D01*
X4826786Y-14733071D01*
X4826786Y-14890214D01*
X4969643Y-14890214D02*
X4969643Y-14690214D01*
X4969643Y-14718786D02*
X4983928Y-14704500D01*
X5012500Y-14690214D01*
X5055357Y-14690214D01*
X5083928Y-14704500D01*
X5098214Y-14733071D01*
X5098214Y-14890214D01*
X5098214Y-14733071D02*
X5112500Y-14704500D01*
X5141071Y-14690214D01*
X5183928Y-14690214D01*
X5212500Y-14704500D01*
X5226786Y-14733071D01*
X5226786Y-14890214D01*
X5812500Y-14575929D02*
X5555357Y-14961643D01*
X6198214Y-14590214D02*
X6226786Y-14590214D01*
X6255357Y-14604500D01*
X6269643Y-14618786D01*
X6283928Y-14647357D01*
X6298214Y-14704500D01*
X6298214Y-14775929D01*
X6283928Y-14833071D01*
X6269643Y-14861643D01*
X6255357Y-14875929D01*
X6226786Y-14890214D01*
X6198214Y-14890214D01*
X6169643Y-14875929D01*
X6155357Y-14861643D01*
X6141071Y-14833071D01*
X6126786Y-14775929D01*
X6126786Y-14704500D01*
X6141071Y-14647357D01*
X6155357Y-14618786D01*
X6169643Y-14604500D01*
X6198214Y-14590214D01*
X6426786Y-14861643D02*
X6441071Y-14875929D01*
X6426786Y-14890214D01*
X6412500Y-14875929D01*
X6426786Y-14861643D01*
X6426786Y-14890214D01*
X6626786Y-14590214D02*
X6655357Y-14590214D01*
X6683928Y-14604500D01*
X6698214Y-14618786D01*
X6712500Y-14647357D01*
X6726786Y-14704500D01*
X6726786Y-14775929D01*
X6712500Y-14833071D01*
X6698214Y-14861643D01*
X6683928Y-14875929D01*
X6655357Y-14890214D01*
X6626786Y-14890214D01*
X6598214Y-14875929D01*
X6583928Y-14861643D01*
X6569643Y-14833071D01*
X6555357Y-14775929D01*
X6555357Y-14704500D01*
X6569643Y-14647357D01*
X6583928Y-14618786D01*
X6598214Y-14604500D01*
X6626786Y-14590214D01*
X6826786Y-14590214D02*
X7012500Y-14590214D01*
X6912500Y-14704500D01*
X6955357Y-14704500D01*
X6983928Y-14718786D01*
X6998214Y-14733071D01*
X7012500Y-14761643D01*
X7012500Y-14833071D01*
X6998214Y-14861643D01*
X6983928Y-14875929D01*
X6955357Y-14890214D01*
X6869643Y-14890214D01*
X6841071Y-14875929D01*
X6826786Y-14861643D01*
X7283928Y-14590214D02*
X7141071Y-14590214D01*
X7126786Y-14733071D01*
X7141071Y-14718786D01*
X7169643Y-14704500D01*
X7241071Y-14704500D01*
X7269643Y-14718786D01*
X7283928Y-14733071D01*
X7298214Y-14761643D01*
X7298214Y-14833071D01*
X7283928Y-14861643D01*
X7269643Y-14875929D01*
X7241071Y-14890214D01*
X7169643Y-14890214D01*
X7141071Y-14875929D01*
X7126786Y-14861643D01*
X7555357Y-14690214D02*
X7555357Y-14890214D01*
X7483928Y-14575929D02*
X7412500Y-14790214D01*
X7598214Y-14790214D01*
X7698214Y-14590214D02*
X7698214Y-14647357D01*
X7812500Y-14590214D02*
X7812500Y-14647357D01*
X8255357Y-15004500D02*
X8241071Y-14990214D01*
X8212500Y-14947357D01*
X8198214Y-14918786D01*
X8183928Y-14875929D01*
X8169643Y-14804500D01*
X8169643Y-14747357D01*
X8183928Y-14675929D01*
X8198214Y-14633071D01*
X8212500Y-14604500D01*
X8241071Y-14561643D01*
X8255357Y-14547357D01*
X8498214Y-14590214D02*
X8441071Y-14590214D01*
X8412500Y-14604500D01*
X8398214Y-14618786D01*
X8369643Y-14661643D01*
X8355357Y-14718786D01*
X8355357Y-14833071D01*
X8369643Y-14861643D01*
X8383928Y-14875929D01*
X8412500Y-14890214D01*
X8469643Y-14890214D01*
X8498214Y-14875929D01*
X8512500Y-14861643D01*
X8526786Y-14833071D01*
X8526786Y-14761643D01*
X8512500Y-14733071D01*
X8498214Y-14718786D01*
X8469643Y-14704500D01*
X8412500Y-14704500D01*
X8383928Y-14718786D01*
X8369643Y-14733071D01*
X8355357Y-14761643D01*
X8883928Y-14890214D02*
X8883928Y-14590214D01*
X9012500Y-14890214D02*
X9012500Y-14733071D01*
X8998214Y-14704500D01*
X8969643Y-14690214D01*
X8926786Y-14690214D01*
X8898214Y-14704500D01*
X8883928Y-14718786D01*
X9198214Y-14890214D02*
X9169643Y-14875929D01*
X9155357Y-14861643D01*
X9141071Y-14833071D01*
X9141071Y-14747357D01*
X9155357Y-14718786D01*
X9169643Y-14704500D01*
X9198214Y-14690214D01*
X9241071Y-14690214D01*
X9269643Y-14704500D01*
X9283928Y-14718786D01*
X9298214Y-14747357D01*
X9298214Y-14833071D01*
X9283928Y-14861643D01*
X9269643Y-14875929D01*
X9241071Y-14890214D01*
X9198214Y-14890214D01*
X9469643Y-14890214D02*
X9441071Y-14875929D01*
X9426786Y-14847357D01*
X9426786Y-14590214D01*
X9698214Y-14875929D02*
X9669643Y-14890214D01*
X9612500Y-14890214D01*
X9583928Y-14875929D01*
X9569643Y-14847357D01*
X9569643Y-14733071D01*
X9583928Y-14704500D01*
X9612500Y-14690214D01*
X9669643Y-14690214D01*
X9698214Y-14704500D01*
X9712500Y-14733071D01*
X9712500Y-14761643D01*
X9569643Y-14790214D01*
X9826786Y-14875929D02*
X9855357Y-14890214D01*
X9912500Y-14890214D01*
X9941071Y-14875929D01*
X9955357Y-14847357D01*
X9955357Y-14833071D01*
X9941071Y-14804500D01*
X9912500Y-14790214D01*
X9869643Y-14790214D01*
X9841071Y-14775929D01*
X9826786Y-14747357D01*
X9826786Y-14733071D01*
X9841071Y-14704500D01*
X9869643Y-14690214D01*
X9912500Y-14690214D01*
X9941071Y-14704500D01*
X10055357Y-15004500D02*
X10069643Y-14990214D01*
X10098214Y-14947357D01*
X10112500Y-14918786D01*
X10126786Y-14875929D01*
X10141071Y-14804500D01*
X10141071Y-14747357D01*
X10126786Y-14675929D01*
X10112500Y-14633071D01*
X10098214Y-14604500D01*
X10069643Y-14561643D01*
X10055357Y-14547357D01*
X2984027Y-15183027D02*
X2984027Y-15117973D01*
X2918973Y-15117973D01*
X2918973Y-15183027D01*
X2984027Y-15183027D01*
X3341071Y-14986214D02*
X3369643Y-14986214D01*
X3398214Y-15000500D01*
X3412500Y-15014786D01*
X3426786Y-15043357D01*
X3441071Y-15100500D01*
X3441071Y-15171929D01*
X3426786Y-15229071D01*
X3412500Y-15257643D01*
X3398214Y-15271929D01*
X3369643Y-15286214D01*
X3341071Y-15286214D01*
X3312500Y-15271929D01*
X3298214Y-15257643D01*
X3283928Y-15229071D01*
X3269643Y-15171929D01*
X3269643Y-15100500D01*
X3283928Y-15043357D01*
X3298214Y-15014786D01*
X3312500Y-15000500D01*
X3341071Y-14986214D01*
X3569643Y-15257643D02*
X3583928Y-15271929D01*
X3569643Y-15286214D01*
X3555357Y-15271929D01*
X3569643Y-15257643D01*
X3569643Y-15286214D01*
X3726786Y-15286214D02*
X3783928Y-15286214D01*
X3812500Y-15271929D01*
X3826786Y-15257643D01*
X3855357Y-15214786D01*
X3869643Y-15157643D01*
X3869643Y-15043357D01*
X3855357Y-15014786D01*
X3841071Y-15000500D01*
X3812500Y-14986214D01*
X3755357Y-14986214D01*
X3726786Y-15000500D01*
X3712500Y-15014786D01*
X3698214Y-15043357D01*
X3698214Y-15114786D01*
X3712500Y-15143357D01*
X3726786Y-15157643D01*
X3755357Y-15171929D01*
X3812500Y-15171929D01*
X3841071Y-15157643D01*
X3855357Y-15143357D01*
X3869643Y-15114786D01*
X3983928Y-15014786D02*
X3998214Y-15000500D01*
X4026786Y-14986214D01*
X4098214Y-14986214D01*
X4126786Y-15000500D01*
X4141071Y-15014786D01*
X4155357Y-15043357D01*
X4155357Y-15071929D01*
X4141071Y-15114786D01*
X3969643Y-15286214D01*
X4155357Y-15286214D01*
X4341071Y-14986214D02*
X4369643Y-14986214D01*
X4398214Y-15000500D01*
X4412500Y-15014786D01*
X4426786Y-15043357D01*
X4441071Y-15100500D01*
X4441071Y-15171929D01*
X4426786Y-15229071D01*
X4412500Y-15257643D01*
X4398214Y-15271929D01*
X4369643Y-15286214D01*
X4341071Y-15286214D01*
X4312500Y-15271929D01*
X4298214Y-15257643D01*
X4283928Y-15229071D01*
X4269643Y-15171929D01*
X4269643Y-15100500D01*
X4283928Y-15043357D01*
X4298214Y-15014786D01*
X4312500Y-15000500D01*
X4341071Y-14986214D01*
X4569643Y-15286214D02*
X4569643Y-15086214D01*
X4569643Y-15114786D02*
X4583928Y-15100500D01*
X4612500Y-15086214D01*
X4655357Y-15086214D01*
X4683928Y-15100500D01*
X4698214Y-15129071D01*
X4698214Y-15286214D01*
X4698214Y-15129071D02*
X4712500Y-15100500D01*
X4741071Y-15086214D01*
X4783928Y-15086214D01*
X4812500Y-15100500D01*
X4826786Y-15129071D01*
X4826786Y-15286214D01*
X4969643Y-15286214D02*
X4969643Y-15086214D01*
X4969643Y-15114786D02*
X4983928Y-15100500D01*
X5012500Y-15086214D01*
X5055357Y-15086214D01*
X5083928Y-15100500D01*
X5098214Y-15129071D01*
X5098214Y-15286214D01*
X5098214Y-15129071D02*
X5112500Y-15100500D01*
X5141071Y-15086214D01*
X5183928Y-15086214D01*
X5212500Y-15100500D01*
X5226786Y-15129071D01*
X5226786Y-15286214D01*
X5812500Y-14971929D02*
X5555357Y-15357643D01*
X6198214Y-14986214D02*
X6226786Y-14986214D01*
X6255357Y-15000500D01*
X6269643Y-15014786D01*
X6283928Y-15043357D01*
X6298214Y-15100500D01*
X6298214Y-15171929D01*
X6283928Y-15229071D01*
X6269643Y-15257643D01*
X6255357Y-15271929D01*
X6226786Y-15286214D01*
X6198214Y-15286214D01*
X6169643Y-15271929D01*
X6155357Y-15257643D01*
X6141071Y-15229071D01*
X6126786Y-15171929D01*
X6126786Y-15100500D01*
X6141071Y-15043357D01*
X6155357Y-15014786D01*
X6169643Y-15000500D01*
X6198214Y-14986214D01*
X6426786Y-15257643D02*
X6441071Y-15271929D01*
X6426786Y-15286214D01*
X6412500Y-15271929D01*
X6426786Y-15257643D01*
X6426786Y-15286214D01*
X6626786Y-14986214D02*
X6655357Y-14986214D01*
X6683928Y-15000500D01*
X6698214Y-15014786D01*
X6712500Y-15043357D01*
X6726786Y-15100500D01*
X6726786Y-15171929D01*
X6712500Y-15229071D01*
X6698214Y-15257643D01*
X6683928Y-15271929D01*
X6655357Y-15286214D01*
X6626786Y-15286214D01*
X6598214Y-15271929D01*
X6583928Y-15257643D01*
X6569643Y-15229071D01*
X6555357Y-15171929D01*
X6555357Y-15100500D01*
X6569643Y-15043357D01*
X6583928Y-15014786D01*
X6598214Y-15000500D01*
X6626786Y-14986214D01*
X6826786Y-14986214D02*
X7012500Y-14986214D01*
X6912500Y-15100500D01*
X6955357Y-15100500D01*
X6983928Y-15114786D01*
X6998214Y-15129071D01*
X7012500Y-15157643D01*
X7012500Y-15229071D01*
X6998214Y-15257643D01*
X6983928Y-15271929D01*
X6955357Y-15286214D01*
X6869643Y-15286214D01*
X6841071Y-15271929D01*
X6826786Y-15257643D01*
X7269643Y-14986214D02*
X7212500Y-14986214D01*
X7183928Y-15000500D01*
X7169643Y-15014786D01*
X7141071Y-15057643D01*
X7126786Y-15114786D01*
X7126786Y-15229071D01*
X7141071Y-15257643D01*
X7155357Y-15271929D01*
X7183928Y-15286214D01*
X7241071Y-15286214D01*
X7269643Y-15271929D01*
X7283928Y-15257643D01*
X7298214Y-15229071D01*
X7298214Y-15157643D01*
X7283928Y-15129071D01*
X7269643Y-15114786D01*
X7241071Y-15100500D01*
X7183928Y-15100500D01*
X7155357Y-15114786D01*
X7141071Y-15129071D01*
X7126786Y-15157643D01*
X7412500Y-15014786D02*
X7426786Y-15000500D01*
X7455357Y-14986214D01*
X7526786Y-14986214D01*
X7555357Y-15000500D01*
X7569643Y-15014786D01*
X7583928Y-15043357D01*
X7583928Y-15071929D01*
X7569643Y-15114786D01*
X7398214Y-15286214D01*
X7583928Y-15286214D01*
X7698214Y-14986214D02*
X7698214Y-15043357D01*
X7812500Y-14986214D02*
X7812500Y-15043357D01*
X8255357Y-15400500D02*
X8241071Y-15386214D01*
X8212500Y-15343357D01*
X8198214Y-15314786D01*
X8183928Y-15271929D01*
X8169643Y-15200500D01*
X8169643Y-15143357D01*
X8183928Y-15071929D01*
X8198214Y-15029071D01*
X8212500Y-15000500D01*
X8241071Y-14957643D01*
X8255357Y-14943357D01*
X8498214Y-15086214D02*
X8498214Y-15286214D01*
X8426786Y-14971929D02*
X8355357Y-15186214D01*
X8541071Y-15186214D01*
X8883928Y-15286214D02*
X8883928Y-14986214D01*
X9012500Y-15286214D02*
X9012500Y-15129071D01*
X8998214Y-15100500D01*
X8969643Y-15086214D01*
X8926786Y-15086214D01*
X8898214Y-15100500D01*
X8883928Y-15114786D01*
X9198214Y-15286214D02*
X9169643Y-15271929D01*
X9155357Y-15257643D01*
X9141071Y-15229071D01*
X9141071Y-15143357D01*
X9155357Y-15114786D01*
X9169643Y-15100500D01*
X9198214Y-15086214D01*
X9241071Y-15086214D01*
X9269643Y-15100500D01*
X9283928Y-15114786D01*
X9298214Y-15143357D01*
X9298214Y-15229071D01*
X9283928Y-15257643D01*
X9269643Y-15271929D01*
X9241071Y-15286214D01*
X9198214Y-15286214D01*
X9469643Y-15286214D02*
X9441071Y-15271929D01*
X9426786Y-15243357D01*
X9426786Y-14986214D01*
X9698214Y-15271929D02*
X9669643Y-15286214D01*
X9612500Y-15286214D01*
X9583928Y-15271929D01*
X9569643Y-15243357D01*
X9569643Y-15129071D01*
X9583928Y-15100500D01*
X9612500Y-15086214D01*
X9669643Y-15086214D01*
X9698214Y-15100500D01*
X9712500Y-15129071D01*
X9712500Y-15157643D01*
X9569643Y-15186214D01*
X9826786Y-15271929D02*
X9855357Y-15286214D01*
X9912500Y-15286214D01*
X9941071Y-15271929D01*
X9955357Y-15243357D01*
X9955357Y-15229071D01*
X9941071Y-15200500D01*
X9912500Y-15186214D01*
X9869643Y-15186214D01*
X9841071Y-15171929D01*
X9826786Y-15143357D01*
X9826786Y-15129071D01*
X9841071Y-15100500D01*
X9869643Y-15086214D01*
X9912500Y-15086214D01*
X9941071Y-15100500D01*
X10055357Y-15400500D02*
X10069643Y-15386214D01*
X10098214Y-15343357D01*
X10112500Y-15314786D01*
X10126786Y-15271929D01*
X10141071Y-15200500D01*
X10141071Y-15143357D01*
X10126786Y-15071929D01*
X10112500Y-15029071D01*
X10098214Y-15000500D01*
X10069643Y-14957643D01*
X10055357Y-14943357D01*
X2947500Y-15596500D02*
X2997500Y-15546500D01*
X2947500Y-15496500D01*
X2897500Y-15546500D01*
X2947500Y-15596500D01*
X3441071Y-15682214D02*
X3269643Y-15682214D01*
X3355357Y-15682214D02*
X3355357Y-15382214D01*
X3326786Y-15425071D01*
X3298214Y-15453643D01*
X3269643Y-15467929D01*
X3569643Y-15653643D02*
X3583928Y-15667929D01*
X3569643Y-15682214D01*
X3555357Y-15667929D01*
X3569643Y-15653643D01*
X3569643Y-15682214D01*
X3769643Y-15382214D02*
X3798214Y-15382214D01*
X3826786Y-15396500D01*
X3841071Y-15410786D01*
X3855357Y-15439357D01*
X3869643Y-15496500D01*
X3869643Y-15567929D01*
X3855357Y-15625071D01*
X3841071Y-15653643D01*
X3826786Y-15667929D01*
X3798214Y-15682214D01*
X3769643Y-15682214D01*
X3741071Y-15667929D01*
X3726786Y-15653643D01*
X3712500Y-15625071D01*
X3698214Y-15567929D01*
X3698214Y-15496500D01*
X3712500Y-15439357D01*
X3726786Y-15410786D01*
X3741071Y-15396500D01*
X3769643Y-15382214D01*
X4055357Y-15382214D02*
X4083928Y-15382214D01*
X4112500Y-15396500D01*
X4126786Y-15410786D01*
X4141071Y-15439357D01*
X4155357Y-15496500D01*
X4155357Y-15567929D01*
X4141071Y-15625071D01*
X4126786Y-15653643D01*
X4112500Y-15667929D01*
X4083928Y-15682214D01*
X4055357Y-15682214D01*
X4026786Y-15667929D01*
X4012500Y-15653643D01*
X3998214Y-15625071D01*
X3983928Y-15567929D01*
X3983928Y-15496500D01*
X3998214Y-15439357D01*
X4012500Y-15410786D01*
X4026786Y-15396500D01*
X4055357Y-15382214D01*
X4341071Y-15382214D02*
X4369643Y-15382214D01*
X4398214Y-15396500D01*
X4412500Y-15410786D01*
X4426786Y-15439357D01*
X4441071Y-15496500D01*
X4441071Y-15567929D01*
X4426786Y-15625071D01*
X4412500Y-15653643D01*
X4398214Y-15667929D01*
X4369643Y-15682214D01*
X4341071Y-15682214D01*
X4312500Y-15667929D01*
X4298214Y-15653643D01*
X4283928Y-15625071D01*
X4269643Y-15567929D01*
X4269643Y-15496500D01*
X4283928Y-15439357D01*
X4298214Y-15410786D01*
X4312500Y-15396500D01*
X4341071Y-15382214D01*
X4569643Y-15682214D02*
X4569643Y-15482214D01*
X4569643Y-15510786D02*
X4583928Y-15496500D01*
X4612500Y-15482214D01*
X4655357Y-15482214D01*
X4683928Y-15496500D01*
X4698214Y-15525071D01*
X4698214Y-15682214D01*
X4698214Y-15525071D02*
X4712500Y-15496500D01*
X4741071Y-15482214D01*
X4783928Y-15482214D01*
X4812500Y-15496500D01*
X4826786Y-15525071D01*
X4826786Y-15682214D01*
X4969643Y-15682214D02*
X4969643Y-15482214D01*
X4969643Y-15510786D02*
X4983928Y-15496500D01*
X5012500Y-15482214D01*
X5055357Y-15482214D01*
X5083928Y-15496500D01*
X5098214Y-15525071D01*
X5098214Y-15682214D01*
X5098214Y-15525071D02*
X5112500Y-15496500D01*
X5141071Y-15482214D01*
X5183928Y-15482214D01*
X5212500Y-15496500D01*
X5226786Y-15525071D01*
X5226786Y-15682214D01*
X5812500Y-15367929D02*
X5555357Y-15753643D01*
X6198214Y-15382214D02*
X6226786Y-15382214D01*
X6255357Y-15396500D01*
X6269643Y-15410786D01*
X6283928Y-15439357D01*
X6298214Y-15496500D01*
X6298214Y-15567929D01*
X6283928Y-15625071D01*
X6269643Y-15653643D01*
X6255357Y-15667929D01*
X6226786Y-15682214D01*
X6198214Y-15682214D01*
X6169643Y-15667929D01*
X6155357Y-15653643D01*
X6141071Y-15625071D01*
X6126786Y-15567929D01*
X6126786Y-15496500D01*
X6141071Y-15439357D01*
X6155357Y-15410786D01*
X6169643Y-15396500D01*
X6198214Y-15382214D01*
X6426786Y-15653643D02*
X6441071Y-15667929D01*
X6426786Y-15682214D01*
X6412500Y-15667929D01*
X6426786Y-15653643D01*
X6426786Y-15682214D01*
X6626786Y-15382214D02*
X6655357Y-15382214D01*
X6683928Y-15396500D01*
X6698214Y-15410786D01*
X6712500Y-15439357D01*
X6726786Y-15496500D01*
X6726786Y-15567929D01*
X6712500Y-15625071D01*
X6698214Y-15653643D01*
X6683928Y-15667929D01*
X6655357Y-15682214D01*
X6626786Y-15682214D01*
X6598214Y-15667929D01*
X6583928Y-15653643D01*
X6569643Y-15625071D01*
X6555357Y-15567929D01*
X6555357Y-15496500D01*
X6569643Y-15439357D01*
X6583928Y-15410786D01*
X6598214Y-15396500D01*
X6626786Y-15382214D01*
X6826786Y-15382214D02*
X7012500Y-15382214D01*
X6912500Y-15496500D01*
X6955357Y-15496500D01*
X6983928Y-15510786D01*
X6998214Y-15525071D01*
X7012500Y-15553643D01*
X7012500Y-15625071D01*
X6998214Y-15653643D01*
X6983928Y-15667929D01*
X6955357Y-15682214D01*
X6869643Y-15682214D01*
X6841071Y-15667929D01*
X6826786Y-15653643D01*
X7155357Y-15682214D02*
X7212500Y-15682214D01*
X7241071Y-15667929D01*
X7255357Y-15653643D01*
X7283928Y-15610786D01*
X7298214Y-15553643D01*
X7298214Y-15439357D01*
X7283928Y-15410786D01*
X7269643Y-15396500D01*
X7241071Y-15382214D01*
X7183928Y-15382214D01*
X7155357Y-15396500D01*
X7141071Y-15410786D01*
X7126786Y-15439357D01*
X7126786Y-15510786D01*
X7141071Y-15539357D01*
X7155357Y-15553643D01*
X7183928Y-15567929D01*
X7241071Y-15567929D01*
X7269643Y-15553643D01*
X7283928Y-15539357D01*
X7298214Y-15510786D01*
X7555357Y-15482214D02*
X7555357Y-15682214D01*
X7483928Y-15367929D02*
X7412500Y-15582214D01*
X7598214Y-15582214D01*
X7698214Y-15382214D02*
X7698214Y-15439357D01*
X7812500Y-15382214D02*
X7812500Y-15439357D01*
X8255357Y-15796500D02*
X8241071Y-15782214D01*
X8212500Y-15739357D01*
X8198214Y-15710786D01*
X8183928Y-15667929D01*
X8169643Y-15596500D01*
X8169643Y-15539357D01*
X8183928Y-15467929D01*
X8198214Y-15425071D01*
X8212500Y-15396500D01*
X8241071Y-15353643D01*
X8255357Y-15339357D01*
X8355357Y-15410786D02*
X8369643Y-15396500D01*
X8398214Y-15382214D01*
X8469643Y-15382214D01*
X8498214Y-15396500D01*
X8512500Y-15410786D01*
X8526786Y-15439357D01*
X8526786Y-15467929D01*
X8512500Y-15510786D01*
X8341071Y-15682214D01*
X8526786Y-15682214D01*
X8669643Y-15682214D02*
X8726786Y-15682214D01*
X8755357Y-15667929D01*
X8769643Y-15653643D01*
X8798214Y-15610786D01*
X8812500Y-15553643D01*
X8812500Y-15439357D01*
X8798214Y-15410786D01*
X8783928Y-15396500D01*
X8755357Y-15382214D01*
X8698214Y-15382214D01*
X8669643Y-15396500D01*
X8655357Y-15410786D01*
X8641071Y-15439357D01*
X8641071Y-15510786D01*
X8655357Y-15539357D01*
X8669643Y-15553643D01*
X8698214Y-15567929D01*
X8755357Y-15567929D01*
X8783928Y-15553643D01*
X8798214Y-15539357D01*
X8812500Y-15510786D01*
X9169643Y-15682214D02*
X9169643Y-15382214D01*
X9298214Y-15682214D02*
X9298214Y-15525071D01*
X9283928Y-15496500D01*
X9255357Y-15482214D01*
X9212500Y-15482214D01*
X9183928Y-15496500D01*
X9169643Y-15510786D01*
X9483928Y-15682214D02*
X9455357Y-15667929D01*
X9441071Y-15653643D01*
X9426786Y-15625071D01*
X9426786Y-15539357D01*
X9441071Y-15510786D01*
X9455357Y-15496500D01*
X9483928Y-15482214D01*
X9526786Y-15482214D01*
X9555357Y-15496500D01*
X9569643Y-15510786D01*
X9583928Y-15539357D01*
X9583928Y-15625071D01*
X9569643Y-15653643D01*
X9555357Y-15667929D01*
X9526786Y-15682214D01*
X9483928Y-15682214D01*
X9755357Y-15682214D02*
X9726786Y-15667929D01*
X9712500Y-15639357D01*
X9712500Y-15382214D01*
X9983928Y-15667929D02*
X9955357Y-15682214D01*
X9898214Y-15682214D01*
X9869643Y-15667929D01*
X9855357Y-15639357D01*
X9855357Y-15525071D01*
X9869643Y-15496500D01*
X9898214Y-15482214D01*
X9955357Y-15482214D01*
X9983928Y-15496500D01*
X9998214Y-15525071D01*
X9998214Y-15553643D01*
X9855357Y-15582214D01*
X10112500Y-15667929D02*
X10141071Y-15682214D01*
X10198214Y-15682214D01*
X10226786Y-15667929D01*
X10241071Y-15639357D01*
X10241071Y-15625071D01*
X10226786Y-15596500D01*
X10198214Y-15582214D01*
X10155357Y-15582214D01*
X10126786Y-15567929D01*
X10112500Y-15539357D01*
X10112500Y-15525071D01*
X10126786Y-15496500D01*
X10155357Y-15482214D01*
X10198214Y-15482214D01*
X10226786Y-15496500D01*
X10598214Y-15567929D02*
X10826786Y-15567929D01*
X10712500Y-15682214D02*
X10712500Y-15453643D01*
X11169643Y-15382214D02*
X11355357Y-15382214D01*
X11255357Y-15496500D01*
X11298214Y-15496500D01*
X11326786Y-15510786D01*
X11341071Y-15525071D01*
X11355357Y-15553643D01*
X11355357Y-15625071D01*
X11341071Y-15653643D01*
X11326786Y-15667929D01*
X11298214Y-15682214D01*
X11212500Y-15682214D01*
X11183928Y-15667929D01*
X11169643Y-15653643D01*
X11698214Y-15667929D02*
X11726786Y-15682214D01*
X11783928Y-15682214D01*
X11812500Y-15667929D01*
X11826786Y-15639357D01*
X11826786Y-15625071D01*
X11812500Y-15596500D01*
X11783928Y-15582214D01*
X11741071Y-15582214D01*
X11712500Y-15567929D01*
X11698214Y-15539357D01*
X11698214Y-15525071D01*
X11712500Y-15496500D01*
X11741071Y-15482214D01*
X11783928Y-15482214D01*
X11812500Y-15496500D01*
X11998214Y-15682214D02*
X11969643Y-15667929D01*
X11955357Y-15639357D01*
X11955357Y-15382214D01*
X12155357Y-15682214D02*
X12126786Y-15667929D01*
X12112500Y-15653643D01*
X12098214Y-15625071D01*
X12098214Y-15539357D01*
X12112500Y-15510786D01*
X12126786Y-15496500D01*
X12155357Y-15482214D01*
X12198214Y-15482214D01*
X12226786Y-15496500D01*
X12241071Y-15510786D01*
X12255357Y-15539357D01*
X12255357Y-15625071D01*
X12241071Y-15653643D01*
X12226786Y-15667929D01*
X12198214Y-15682214D01*
X12155357Y-15682214D01*
X12341071Y-15482214D02*
X12455357Y-15482214D01*
X12383928Y-15382214D02*
X12383928Y-15639357D01*
X12398214Y-15667929D01*
X12426786Y-15682214D01*
X12455357Y-15682214D01*
X12541071Y-15667929D02*
X12569643Y-15682214D01*
X12626786Y-15682214D01*
X12655357Y-15667929D01*
X12669643Y-15639357D01*
X12669643Y-15625071D01*
X12655357Y-15596500D01*
X12626786Y-15582214D01*
X12583928Y-15582214D01*
X12555357Y-15567929D01*
X12541071Y-15539357D01*
X12541071Y-15525071D01*
X12555357Y-15496500D01*
X12583928Y-15482214D01*
X12626786Y-15482214D01*
X12655357Y-15496500D01*
X12769643Y-15796500D02*
X12783928Y-15782214D01*
X12812500Y-15739357D01*
X12826786Y-15710786D01*
X12841071Y-15667929D01*
X12855357Y-15596500D01*
X12855357Y-15539357D01*
X12841071Y-15467929D01*
X12826786Y-15425071D01*
X12812500Y-15396500D01*
X12783928Y-15353643D01*
X12769643Y-15339357D01*
X2887500Y-15887500D02*
X2997500Y-15997500D01*
X2997500Y-15887500D02*
X2887500Y-15997500D01*
X2997500Y-15942500D02*
G75*
G03*
X2997500Y-15942500I-55000J0D01*
G01*
X3441071Y-16078214D02*
X3269643Y-16078214D01*
X3355357Y-16078214D02*
X3355357Y-15778214D01*
X3326786Y-15821071D01*
X3298214Y-15849643D01*
X3269643Y-15863929D01*
X3569643Y-16049643D02*
X3583928Y-16063929D01*
X3569643Y-16078214D01*
X3555357Y-16063929D01*
X3569643Y-16049643D01*
X3569643Y-16078214D01*
X3869643Y-16078214D02*
X3698214Y-16078214D01*
X3783928Y-16078214D02*
X3783928Y-15778214D01*
X3755357Y-15821071D01*
X3726786Y-15849643D01*
X3698214Y-15863929D01*
X4055357Y-15778214D02*
X4083928Y-15778214D01*
X4112500Y-15792500D01*
X4126786Y-15806786D01*
X4141071Y-15835357D01*
X4155357Y-15892500D01*
X4155357Y-15963929D01*
X4141071Y-16021071D01*
X4126786Y-16049643D01*
X4112500Y-16063929D01*
X4083928Y-16078214D01*
X4055357Y-16078214D01*
X4026786Y-16063929D01*
X4012500Y-16049643D01*
X3998214Y-16021071D01*
X3983928Y-15963929D01*
X3983928Y-15892500D01*
X3998214Y-15835357D01*
X4012500Y-15806786D01*
X4026786Y-15792500D01*
X4055357Y-15778214D01*
X4341071Y-15778214D02*
X4369643Y-15778214D01*
X4398214Y-15792500D01*
X4412500Y-15806786D01*
X4426786Y-15835357D01*
X4441071Y-15892500D01*
X4441071Y-15963929D01*
X4426786Y-16021071D01*
X4412500Y-16049643D01*
X4398214Y-16063929D01*
X4369643Y-16078214D01*
X4341071Y-16078214D01*
X4312500Y-16063929D01*
X4298214Y-16049643D01*
X4283928Y-16021071D01*
X4269643Y-15963929D01*
X4269643Y-15892500D01*
X4283928Y-15835357D01*
X4298214Y-15806786D01*
X4312500Y-15792500D01*
X4341071Y-15778214D01*
X4569643Y-16078214D02*
X4569643Y-15878214D01*
X4569643Y-15906786D02*
X4583928Y-15892500D01*
X4612500Y-15878214D01*
X4655357Y-15878214D01*
X4683928Y-15892500D01*
X4698214Y-15921071D01*
X4698214Y-16078214D01*
X4698214Y-15921071D02*
X4712500Y-15892500D01*
X4741071Y-15878214D01*
X4783928Y-15878214D01*
X4812500Y-15892500D01*
X4826786Y-15921071D01*
X4826786Y-16078214D01*
X4969643Y-16078214D02*
X4969643Y-15878214D01*
X4969643Y-15906786D02*
X4983928Y-15892500D01*
X5012500Y-15878214D01*
X5055357Y-15878214D01*
X5083928Y-15892500D01*
X5098214Y-15921071D01*
X5098214Y-16078214D01*
X5098214Y-15921071D02*
X5112500Y-15892500D01*
X5141071Y-15878214D01*
X5183928Y-15878214D01*
X5212500Y-15892500D01*
X5226786Y-15921071D01*
X5226786Y-16078214D01*
X5812500Y-15763929D02*
X5555357Y-16149643D01*
X6198214Y-15778214D02*
X6226786Y-15778214D01*
X6255357Y-15792500D01*
X6269643Y-15806786D01*
X6283928Y-15835357D01*
X6298214Y-15892500D01*
X6298214Y-15963929D01*
X6283928Y-16021071D01*
X6269643Y-16049643D01*
X6255357Y-16063929D01*
X6226786Y-16078214D01*
X6198214Y-16078214D01*
X6169643Y-16063929D01*
X6155357Y-16049643D01*
X6141071Y-16021071D01*
X6126786Y-15963929D01*
X6126786Y-15892500D01*
X6141071Y-15835357D01*
X6155357Y-15806786D01*
X6169643Y-15792500D01*
X6198214Y-15778214D01*
X6426786Y-16049643D02*
X6441071Y-16063929D01*
X6426786Y-16078214D01*
X6412500Y-16063929D01*
X6426786Y-16049643D01*
X6426786Y-16078214D01*
X6626786Y-15778214D02*
X6655357Y-15778214D01*
X6683928Y-15792500D01*
X6698214Y-15806786D01*
X6712500Y-15835357D01*
X6726786Y-15892500D01*
X6726786Y-15963929D01*
X6712500Y-16021071D01*
X6698214Y-16049643D01*
X6683928Y-16063929D01*
X6655357Y-16078214D01*
X6626786Y-16078214D01*
X6598214Y-16063929D01*
X6583928Y-16049643D01*
X6569643Y-16021071D01*
X6555357Y-15963929D01*
X6555357Y-15892500D01*
X6569643Y-15835357D01*
X6583928Y-15806786D01*
X6598214Y-15792500D01*
X6626786Y-15778214D01*
X6983928Y-15878214D02*
X6983928Y-16078214D01*
X6912500Y-15763929D02*
X6841071Y-15978214D01*
X7026786Y-15978214D01*
X7112500Y-15778214D02*
X7298214Y-15778214D01*
X7198214Y-15892500D01*
X7241071Y-15892500D01*
X7269643Y-15906786D01*
X7283928Y-15921071D01*
X7298214Y-15949643D01*
X7298214Y-16021071D01*
X7283928Y-16049643D01*
X7269643Y-16063929D01*
X7241071Y-16078214D01*
X7155357Y-16078214D01*
X7126786Y-16063929D01*
X7112500Y-16049643D01*
X7398214Y-15778214D02*
X7583928Y-15778214D01*
X7483928Y-15892500D01*
X7526786Y-15892500D01*
X7555357Y-15906786D01*
X7569643Y-15921071D01*
X7583928Y-15949643D01*
X7583928Y-16021071D01*
X7569643Y-16049643D01*
X7555357Y-16063929D01*
X7526786Y-16078214D01*
X7441071Y-16078214D01*
X7412500Y-16063929D01*
X7398214Y-16049643D01*
X7698214Y-15778214D02*
X7698214Y-15835357D01*
X7812500Y-15778214D02*
X7812500Y-15835357D01*
X8255357Y-16192500D02*
X8241071Y-16178214D01*
X8212500Y-16135357D01*
X8198214Y-16106786D01*
X8183928Y-16063929D01*
X8169643Y-15992500D01*
X8169643Y-15935357D01*
X8183928Y-15863929D01*
X8198214Y-15821071D01*
X8212500Y-15792500D01*
X8241071Y-15749643D01*
X8255357Y-15735357D01*
X8498214Y-15778214D02*
X8441071Y-15778214D01*
X8412500Y-15792500D01*
X8398214Y-15806786D01*
X8369643Y-15849643D01*
X8355357Y-15906786D01*
X8355357Y-16021071D01*
X8369643Y-16049643D01*
X8383928Y-16063929D01*
X8412500Y-16078214D01*
X8469643Y-16078214D01*
X8498214Y-16063929D01*
X8512500Y-16049643D01*
X8526786Y-16021071D01*
X8526786Y-15949643D01*
X8512500Y-15921071D01*
X8498214Y-15906786D01*
X8469643Y-15892500D01*
X8412500Y-15892500D01*
X8383928Y-15906786D01*
X8369643Y-15921071D01*
X8355357Y-15949643D01*
X8883928Y-16078214D02*
X8883928Y-15778214D01*
X9012500Y-16078214D02*
X9012500Y-15921071D01*
X8998214Y-15892500D01*
X8969643Y-15878214D01*
X8926786Y-15878214D01*
X8898214Y-15892500D01*
X8883928Y-15906786D01*
X9198214Y-16078214D02*
X9169643Y-16063929D01*
X9155357Y-16049643D01*
X9141071Y-16021071D01*
X9141071Y-15935357D01*
X9155357Y-15906786D01*
X9169643Y-15892500D01*
X9198214Y-15878214D01*
X9241071Y-15878214D01*
X9269643Y-15892500D01*
X9283928Y-15906786D01*
X9298214Y-15935357D01*
X9298214Y-16021071D01*
X9283928Y-16049643D01*
X9269643Y-16063929D01*
X9241071Y-16078214D01*
X9198214Y-16078214D01*
X9469643Y-16078214D02*
X9441071Y-16063929D01*
X9426786Y-16035357D01*
X9426786Y-15778214D01*
X9698214Y-16063929D02*
X9669643Y-16078214D01*
X9612500Y-16078214D01*
X9583928Y-16063929D01*
X9569643Y-16035357D01*
X9569643Y-15921071D01*
X9583928Y-15892500D01*
X9612500Y-15878214D01*
X9669643Y-15878214D01*
X9698214Y-15892500D01*
X9712500Y-15921071D01*
X9712500Y-15949643D01*
X9569643Y-15978214D01*
X9826786Y-16063929D02*
X9855357Y-16078214D01*
X9912500Y-16078214D01*
X9941071Y-16063929D01*
X9955357Y-16035357D01*
X9955357Y-16021071D01*
X9941071Y-15992500D01*
X9912500Y-15978214D01*
X9869643Y-15978214D01*
X9841071Y-15963929D01*
X9826786Y-15935357D01*
X9826786Y-15921071D01*
X9841071Y-15892500D01*
X9869643Y-15878214D01*
X9912500Y-15878214D01*
X9941071Y-15892500D01*
X10055357Y-16192500D02*
X10069643Y-16178214D01*
X10098214Y-16135357D01*
X10112500Y-16106786D01*
X10126786Y-16063929D01*
X10141071Y-15992500D01*
X10141071Y-15935357D01*
X10126786Y-15863929D01*
X10112500Y-15821071D01*
X10098214Y-15792500D01*
X10069643Y-15749643D01*
X10055357Y-15735357D01*
X2764500Y-16222000D02*
X2997500Y-16455000D01*
X2997500Y-16222000D02*
X2764500Y-16455000D01*
X2881000Y-16222000D02*
X2881000Y-16455000D01*
X2764500Y-16338500D02*
X2997500Y-16338500D01*
X3269643Y-16202786D02*
X3283928Y-16188500D01*
X3312500Y-16174214D01*
X3383928Y-16174214D01*
X3412500Y-16188500D01*
X3426786Y-16202786D01*
X3441071Y-16231357D01*
X3441071Y-16259929D01*
X3426786Y-16302786D01*
X3255357Y-16474214D01*
X3441071Y-16474214D01*
X3569643Y-16445643D02*
X3583928Y-16459929D01*
X3569643Y-16474214D01*
X3555357Y-16459929D01*
X3569643Y-16445643D01*
X3569643Y-16474214D01*
X3683928Y-16174214D02*
X3869643Y-16174214D01*
X3769643Y-16288500D01*
X3812500Y-16288500D01*
X3841071Y-16302786D01*
X3855357Y-16317071D01*
X3869643Y-16345643D01*
X3869643Y-16417071D01*
X3855357Y-16445643D01*
X3841071Y-16459929D01*
X3812500Y-16474214D01*
X3726786Y-16474214D01*
X3698214Y-16459929D01*
X3683928Y-16445643D01*
X3969643Y-16174214D02*
X4155357Y-16174214D01*
X4055357Y-16288500D01*
X4098214Y-16288500D01*
X4126786Y-16302786D01*
X4141071Y-16317071D01*
X4155357Y-16345643D01*
X4155357Y-16417071D01*
X4141071Y-16445643D01*
X4126786Y-16459929D01*
X4098214Y-16474214D01*
X4012500Y-16474214D01*
X3983928Y-16459929D01*
X3969643Y-16445643D01*
X4341071Y-16174214D02*
X4369643Y-16174214D01*
X4398214Y-16188500D01*
X4412500Y-16202786D01*
X4426786Y-16231357D01*
X4441071Y-16288500D01*
X4441071Y-16359929D01*
X4426786Y-16417071D01*
X4412500Y-16445643D01*
X4398214Y-16459929D01*
X4369643Y-16474214D01*
X4341071Y-16474214D01*
X4312500Y-16459929D01*
X4298214Y-16445643D01*
X4283928Y-16417071D01*
X4269643Y-16359929D01*
X4269643Y-16288500D01*
X4283928Y-16231357D01*
X4298214Y-16202786D01*
X4312500Y-16188500D01*
X4341071Y-16174214D01*
X4569643Y-16474214D02*
X4569643Y-16274214D01*
X4569643Y-16302786D02*
X4583928Y-16288500D01*
X4612500Y-16274214D01*
X4655357Y-16274214D01*
X4683928Y-16288500D01*
X4698214Y-16317071D01*
X4698214Y-16474214D01*
X4698214Y-16317071D02*
X4712500Y-16288500D01*
X4741071Y-16274214D01*
X4783928Y-16274214D01*
X4812500Y-16288500D01*
X4826786Y-16317071D01*
X4826786Y-16474214D01*
X4969643Y-16474214D02*
X4969643Y-16274214D01*
X4969643Y-16302786D02*
X4983928Y-16288500D01*
X5012500Y-16274214D01*
X5055357Y-16274214D01*
X5083928Y-16288500D01*
X5098214Y-16317071D01*
X5098214Y-16474214D01*
X5098214Y-16317071D02*
X5112500Y-16288500D01*
X5141071Y-16274214D01*
X5183928Y-16274214D01*
X5212500Y-16288500D01*
X5226786Y-16317071D01*
X5226786Y-16474214D01*
X5812500Y-16159929D02*
X5555357Y-16545643D01*
X6198214Y-16174214D02*
X6226786Y-16174214D01*
X6255357Y-16188500D01*
X6269643Y-16202786D01*
X6283928Y-16231357D01*
X6298214Y-16288500D01*
X6298214Y-16359929D01*
X6283928Y-16417071D01*
X6269643Y-16445643D01*
X6255357Y-16459929D01*
X6226786Y-16474214D01*
X6198214Y-16474214D01*
X6169643Y-16459929D01*
X6155357Y-16445643D01*
X6141071Y-16417071D01*
X6126786Y-16359929D01*
X6126786Y-16288500D01*
X6141071Y-16231357D01*
X6155357Y-16202786D01*
X6169643Y-16188500D01*
X6198214Y-16174214D01*
X6426786Y-16445643D02*
X6441071Y-16459929D01*
X6426786Y-16474214D01*
X6412500Y-16459929D01*
X6426786Y-16445643D01*
X6426786Y-16474214D01*
X6626786Y-16174214D02*
X6655357Y-16174214D01*
X6683928Y-16188500D01*
X6698214Y-16202786D01*
X6712500Y-16231357D01*
X6726786Y-16288500D01*
X6726786Y-16359929D01*
X6712500Y-16417071D01*
X6698214Y-16445643D01*
X6683928Y-16459929D01*
X6655357Y-16474214D01*
X6626786Y-16474214D01*
X6598214Y-16459929D01*
X6583928Y-16445643D01*
X6569643Y-16417071D01*
X6555357Y-16359929D01*
X6555357Y-16288500D01*
X6569643Y-16231357D01*
X6583928Y-16202786D01*
X6598214Y-16188500D01*
X6626786Y-16174214D01*
X6869643Y-16474214D02*
X6926786Y-16474214D01*
X6955357Y-16459929D01*
X6969643Y-16445643D01*
X6998214Y-16402786D01*
X7012500Y-16345643D01*
X7012500Y-16231357D01*
X6998214Y-16202786D01*
X6983928Y-16188500D01*
X6955357Y-16174214D01*
X6898214Y-16174214D01*
X6869643Y-16188500D01*
X6855357Y-16202786D01*
X6841071Y-16231357D01*
X6841071Y-16302786D01*
X6855357Y-16331357D01*
X6869643Y-16345643D01*
X6898214Y-16359929D01*
X6955357Y-16359929D01*
X6983928Y-16345643D01*
X6998214Y-16331357D01*
X7012500Y-16302786D01*
X7298214Y-16474214D02*
X7126786Y-16474214D01*
X7212500Y-16474214D02*
X7212500Y-16174214D01*
X7183928Y-16217071D01*
X7155357Y-16245643D01*
X7126786Y-16259929D01*
X7398214Y-16174214D02*
X7598214Y-16174214D01*
X7469643Y-16474214D01*
X7698214Y-16174214D02*
X7698214Y-16231357D01*
X7812500Y-16174214D02*
X7812500Y-16231357D01*
X8255357Y-16588500D02*
X8241071Y-16574214D01*
X8212500Y-16531357D01*
X8198214Y-16502786D01*
X8183928Y-16459929D01*
X8169643Y-16388500D01*
X8169643Y-16331357D01*
X8183928Y-16259929D01*
X8198214Y-16217071D01*
X8212500Y-16188500D01*
X8241071Y-16145643D01*
X8255357Y-16131357D01*
X8355357Y-16202786D02*
X8369643Y-16188500D01*
X8398214Y-16174214D01*
X8469643Y-16174214D01*
X8498214Y-16188500D01*
X8512500Y-16202786D01*
X8526786Y-16231357D01*
X8526786Y-16259929D01*
X8512500Y-16302786D01*
X8341071Y-16474214D01*
X8526786Y-16474214D01*
X8883928Y-16474214D02*
X8883928Y-16174214D01*
X9012500Y-16474214D02*
X9012500Y-16317071D01*
X8998214Y-16288500D01*
X8969643Y-16274214D01*
X8926786Y-16274214D01*
X8898214Y-16288500D01*
X8883928Y-16302786D01*
X9198214Y-16474214D02*
X9169643Y-16459929D01*
X9155357Y-16445643D01*
X9141071Y-16417071D01*
X9141071Y-16331357D01*
X9155357Y-16302786D01*
X9169643Y-16288500D01*
X9198214Y-16274214D01*
X9241071Y-16274214D01*
X9269643Y-16288500D01*
X9283928Y-16302786D01*
X9298214Y-16331357D01*
X9298214Y-16417071D01*
X9283928Y-16445643D01*
X9269643Y-16459929D01*
X9241071Y-16474214D01*
X9198214Y-16474214D01*
X9469643Y-16474214D02*
X9441071Y-16459929D01*
X9426786Y-16431357D01*
X9426786Y-16174214D01*
X9698214Y-16459929D02*
X9669643Y-16474214D01*
X9612500Y-16474214D01*
X9583928Y-16459929D01*
X9569643Y-16431357D01*
X9569643Y-16317071D01*
X9583928Y-16288500D01*
X9612500Y-16274214D01*
X9669643Y-16274214D01*
X9698214Y-16288500D01*
X9712500Y-16317071D01*
X9712500Y-16345643D01*
X9569643Y-16374214D01*
X9826786Y-16459929D02*
X9855357Y-16474214D01*
X9912500Y-16474214D01*
X9941071Y-16459929D01*
X9955357Y-16431357D01*
X9955357Y-16417071D01*
X9941071Y-16388500D01*
X9912500Y-16374214D01*
X9869643Y-16374214D01*
X9841071Y-16359929D01*
X9826786Y-16331357D01*
X9826786Y-16317071D01*
X9841071Y-16288500D01*
X9869643Y-16274214D01*
X9912500Y-16274214D01*
X9941071Y-16288500D01*
X10055357Y-16588500D02*
X10069643Y-16574214D01*
X10098214Y-16531357D01*
X10112500Y-16502786D01*
X10126786Y-16459929D01*
X10141071Y-16388500D01*
X10141071Y-16331357D01*
X10126786Y-16259929D01*
X10112500Y-16217071D01*
X10098214Y-16188500D01*
X10069643Y-16145643D01*
X10055357Y-16131357D01*
M02*
