%FSLAX45Y45*%
G04 Gerber Fmt 4.5, Leading zero omitted, Abs format (unit mm)*
G04 Created by KiCad (PCBNEW (5.1.10)-1) date 2023-11-24 10:20:04*
%MOMM*%
%LPD*%
G01*
G04 APERTURE LIST*
%TA.AperFunction,Profile*%
%ADD10C,0.150000*%
%TD*%
%ADD11C,0.200000*%
%ADD12C,0.300000*%
G04 APERTURE END LIST*
D10*
X6350000Y-13208000D02*
X6350000Y-5080000D01*
X20828000Y-5080000D02*
X6350000Y-5080000D01*
X20828000Y-13208000D02*
X20828000Y-5080000D01*
X6350000Y-13208000D02*
X20828000Y-13208000D01*
D11*
X6556000Y-5286000D02*
X6906000Y-5636000D01*
X6906000Y-5286000D02*
X6556000Y-5636000D01*
X6556000Y-12652000D02*
X6906000Y-13002000D01*
X6906000Y-12652000D02*
X6556000Y-13002000D01*
X20272000Y-5286000D02*
X20622000Y-5636000D01*
X20622000Y-5286000D02*
X20272000Y-5636000D01*
X20272000Y-12652000D02*
X20622000Y-13002000D01*
X20622000Y-12652000D02*
X20272000Y-13002000D01*
D12*
X6628928Y-13681214D02*
X6628928Y-13381214D01*
X6700357Y-13381214D01*
X6743214Y-13395500D01*
X6771786Y-13424071D01*
X6786071Y-13452643D01*
X6800357Y-13509786D01*
X6800357Y-13552643D01*
X6786071Y-13609786D01*
X6771786Y-13638357D01*
X6743214Y-13666929D01*
X6700357Y-13681214D01*
X6628928Y-13681214D01*
X6928928Y-13681214D02*
X6928928Y-13481214D01*
X6928928Y-13538357D02*
X6943214Y-13509786D01*
X6957500Y-13495500D01*
X6986071Y-13481214D01*
X7014643Y-13481214D01*
X7114643Y-13681214D02*
X7114643Y-13481214D01*
X7114643Y-13381214D02*
X7100357Y-13395500D01*
X7114643Y-13409786D01*
X7128928Y-13395500D01*
X7114643Y-13381214D01*
X7114643Y-13409786D01*
X7300357Y-13681214D02*
X7271786Y-13666929D01*
X7257500Y-13638357D01*
X7257500Y-13381214D01*
X7457500Y-13681214D02*
X7428928Y-13666929D01*
X7414643Y-13638357D01*
X7414643Y-13381214D01*
X7800357Y-13681214D02*
X7800357Y-13381214D01*
X7900357Y-13595500D01*
X8000357Y-13381214D01*
X8000357Y-13681214D01*
X8271786Y-13681214D02*
X8271786Y-13524071D01*
X8257500Y-13495500D01*
X8228928Y-13481214D01*
X8171786Y-13481214D01*
X8143214Y-13495500D01*
X8271786Y-13666929D02*
X8243214Y-13681214D01*
X8171786Y-13681214D01*
X8143214Y-13666929D01*
X8128928Y-13638357D01*
X8128928Y-13609786D01*
X8143214Y-13581214D01*
X8171786Y-13566929D01*
X8243214Y-13566929D01*
X8271786Y-13552643D01*
X8414643Y-13481214D02*
X8414643Y-13781214D01*
X8414643Y-13495500D02*
X8443214Y-13481214D01*
X8500357Y-13481214D01*
X8528928Y-13495500D01*
X8543214Y-13509786D01*
X8557500Y-13538357D01*
X8557500Y-13624071D01*
X8543214Y-13652643D01*
X8528928Y-13666929D01*
X8500357Y-13681214D01*
X8443214Y-13681214D01*
X8414643Y-13666929D01*
X8686071Y-13652643D02*
X8700357Y-13666929D01*
X8686071Y-13681214D01*
X8671786Y-13666929D01*
X8686071Y-13652643D01*
X8686071Y-13681214D01*
X8686071Y-13495500D02*
X8700357Y-13509786D01*
X8686071Y-13524071D01*
X8671786Y-13509786D01*
X8686071Y-13495500D01*
X8686071Y-13524071D01*
X5992500Y-14000500D02*
X6342500Y-14350500D01*
X6342500Y-14000500D02*
X5992500Y-14350500D01*
X6600357Y-14011214D02*
X6786071Y-14011214D01*
X6686071Y-14125500D01*
X6728928Y-14125500D01*
X6757500Y-14139786D01*
X6771786Y-14154071D01*
X6786071Y-14182643D01*
X6786071Y-14254071D01*
X6771786Y-14282643D01*
X6757500Y-14296929D01*
X6728928Y-14311214D01*
X6643214Y-14311214D01*
X6614643Y-14296929D01*
X6600357Y-14282643D01*
X6914643Y-14282643D02*
X6928928Y-14296929D01*
X6914643Y-14311214D01*
X6900357Y-14296929D01*
X6914643Y-14282643D01*
X6914643Y-14311214D01*
X7200357Y-14011214D02*
X7057500Y-14011214D01*
X7043214Y-14154071D01*
X7057500Y-14139786D01*
X7086071Y-14125500D01*
X7157500Y-14125500D01*
X7186071Y-14139786D01*
X7200357Y-14154071D01*
X7214643Y-14182643D01*
X7214643Y-14254071D01*
X7200357Y-14282643D01*
X7186071Y-14296929D01*
X7157500Y-14311214D01*
X7086071Y-14311214D01*
X7057500Y-14296929D01*
X7043214Y-14282643D01*
X7400357Y-14011214D02*
X7428928Y-14011214D01*
X7457500Y-14025500D01*
X7471786Y-14039786D01*
X7486071Y-14068357D01*
X7500357Y-14125500D01*
X7500357Y-14196929D01*
X7486071Y-14254071D01*
X7471786Y-14282643D01*
X7457500Y-14296929D01*
X7428928Y-14311214D01*
X7400357Y-14311214D01*
X7371786Y-14296929D01*
X7357500Y-14282643D01*
X7343214Y-14254071D01*
X7328928Y-14196929D01*
X7328928Y-14125500D01*
X7343214Y-14068357D01*
X7357500Y-14039786D01*
X7371786Y-14025500D01*
X7400357Y-14011214D01*
X7686071Y-14011214D02*
X7714643Y-14011214D01*
X7743214Y-14025500D01*
X7757500Y-14039786D01*
X7771786Y-14068357D01*
X7786071Y-14125500D01*
X7786071Y-14196929D01*
X7771786Y-14254071D01*
X7757500Y-14282643D01*
X7743214Y-14296929D01*
X7714643Y-14311214D01*
X7686071Y-14311214D01*
X7657500Y-14296929D01*
X7643214Y-14282643D01*
X7628928Y-14254071D01*
X7614643Y-14196929D01*
X7614643Y-14125500D01*
X7628928Y-14068357D01*
X7643214Y-14039786D01*
X7657500Y-14025500D01*
X7686071Y-14011214D01*
X7914643Y-14311214D02*
X7914643Y-14111214D01*
X7914643Y-14139786D02*
X7928928Y-14125500D01*
X7957500Y-14111214D01*
X8000357Y-14111214D01*
X8028928Y-14125500D01*
X8043214Y-14154071D01*
X8043214Y-14311214D01*
X8043214Y-14154071D02*
X8057500Y-14125500D01*
X8086071Y-14111214D01*
X8128928Y-14111214D01*
X8157500Y-14125500D01*
X8171786Y-14154071D01*
X8171786Y-14311214D01*
X8314643Y-14311214D02*
X8314643Y-14111214D01*
X8314643Y-14139786D02*
X8328928Y-14125500D01*
X8357500Y-14111214D01*
X8400357Y-14111214D01*
X8428928Y-14125500D01*
X8443214Y-14154071D01*
X8443214Y-14311214D01*
X8443214Y-14154071D02*
X8457500Y-14125500D01*
X8486071Y-14111214D01*
X8528928Y-14111214D01*
X8557500Y-14125500D01*
X8571786Y-14154071D01*
X8571786Y-14311214D01*
X9157500Y-13996929D02*
X8900357Y-14382643D01*
X9543214Y-14011214D02*
X9571786Y-14011214D01*
X9600357Y-14025500D01*
X9614643Y-14039786D01*
X9628928Y-14068357D01*
X9643214Y-14125500D01*
X9643214Y-14196929D01*
X9628928Y-14254071D01*
X9614643Y-14282643D01*
X9600357Y-14296929D01*
X9571786Y-14311214D01*
X9543214Y-14311214D01*
X9514643Y-14296929D01*
X9500357Y-14282643D01*
X9486071Y-14254071D01*
X9471786Y-14196929D01*
X9471786Y-14125500D01*
X9486071Y-14068357D01*
X9500357Y-14039786D01*
X9514643Y-14025500D01*
X9543214Y-14011214D01*
X9771786Y-14282643D02*
X9786071Y-14296929D01*
X9771786Y-14311214D01*
X9757500Y-14296929D01*
X9771786Y-14282643D01*
X9771786Y-14311214D01*
X10071786Y-14311214D02*
X9900357Y-14311214D01*
X9986071Y-14311214D02*
X9986071Y-14011214D01*
X9957500Y-14054071D01*
X9928928Y-14082643D01*
X9900357Y-14096929D01*
X10171786Y-14011214D02*
X10357500Y-14011214D01*
X10257500Y-14125500D01*
X10300357Y-14125500D01*
X10328928Y-14139786D01*
X10343214Y-14154071D01*
X10357500Y-14182643D01*
X10357500Y-14254071D01*
X10343214Y-14282643D01*
X10328928Y-14296929D01*
X10300357Y-14311214D01*
X10214643Y-14311214D01*
X10186071Y-14296929D01*
X10171786Y-14282643D01*
X10457500Y-14011214D02*
X10657500Y-14011214D01*
X10528928Y-14311214D01*
X10814643Y-14139786D02*
X10786071Y-14125500D01*
X10771786Y-14111214D01*
X10757500Y-14082643D01*
X10757500Y-14068357D01*
X10771786Y-14039786D01*
X10786071Y-14025500D01*
X10814643Y-14011214D01*
X10871786Y-14011214D01*
X10900357Y-14025500D01*
X10914643Y-14039786D01*
X10928928Y-14068357D01*
X10928928Y-14082643D01*
X10914643Y-14111214D01*
X10900357Y-14125500D01*
X10871786Y-14139786D01*
X10814643Y-14139786D01*
X10786071Y-14154071D01*
X10771786Y-14168357D01*
X10757500Y-14196929D01*
X10757500Y-14254071D01*
X10771786Y-14282643D01*
X10786071Y-14296929D01*
X10814643Y-14311214D01*
X10871786Y-14311214D01*
X10900357Y-14296929D01*
X10914643Y-14282643D01*
X10928928Y-14254071D01*
X10928928Y-14196929D01*
X10914643Y-14168357D01*
X10900357Y-14154071D01*
X10871786Y-14139786D01*
X11043214Y-14011214D02*
X11043214Y-14068357D01*
X11157500Y-14011214D02*
X11157500Y-14068357D01*
X11600357Y-14425500D02*
X11586071Y-14411214D01*
X11557500Y-14368357D01*
X11543214Y-14339786D01*
X11528928Y-14296929D01*
X11514643Y-14225500D01*
X11514643Y-14168357D01*
X11528928Y-14096929D01*
X11543214Y-14054071D01*
X11557500Y-14025500D01*
X11586071Y-13982643D01*
X11600357Y-13968357D01*
X11843214Y-14111214D02*
X11843214Y-14311214D01*
X11771786Y-13996929D02*
X11700357Y-14211214D01*
X11886071Y-14211214D01*
X12228928Y-14311214D02*
X12228928Y-14011214D01*
X12357500Y-14311214D02*
X12357500Y-14154071D01*
X12343214Y-14125500D01*
X12314643Y-14111214D01*
X12271786Y-14111214D01*
X12243214Y-14125500D01*
X12228928Y-14139786D01*
X12543214Y-14311214D02*
X12514643Y-14296929D01*
X12500357Y-14282643D01*
X12486071Y-14254071D01*
X12486071Y-14168357D01*
X12500357Y-14139786D01*
X12514643Y-14125500D01*
X12543214Y-14111214D01*
X12586071Y-14111214D01*
X12614643Y-14125500D01*
X12628928Y-14139786D01*
X12643214Y-14168357D01*
X12643214Y-14254071D01*
X12628928Y-14282643D01*
X12614643Y-14296929D01*
X12586071Y-14311214D01*
X12543214Y-14311214D01*
X12814643Y-14311214D02*
X12786071Y-14296929D01*
X12771786Y-14268357D01*
X12771786Y-14011214D01*
X13043214Y-14296929D02*
X13014643Y-14311214D01*
X12957500Y-14311214D01*
X12928928Y-14296929D01*
X12914643Y-14268357D01*
X12914643Y-14154071D01*
X12928928Y-14125500D01*
X12957500Y-14111214D01*
X13014643Y-14111214D01*
X13043214Y-14125500D01*
X13057500Y-14154071D01*
X13057500Y-14182643D01*
X12914643Y-14211214D01*
X13171786Y-14296929D02*
X13200357Y-14311214D01*
X13257500Y-14311214D01*
X13286071Y-14296929D01*
X13300357Y-14268357D01*
X13300357Y-14254071D01*
X13286071Y-14225500D01*
X13257500Y-14211214D01*
X13214643Y-14211214D01*
X13186071Y-14196929D01*
X13171786Y-14168357D01*
X13171786Y-14154071D01*
X13186071Y-14125500D01*
X13214643Y-14111214D01*
X13257500Y-14111214D01*
X13286071Y-14125500D01*
X13400357Y-14425500D02*
X13414643Y-14411214D01*
X13443214Y-14368357D01*
X13457500Y-14339786D01*
X13471786Y-14296929D01*
X13486071Y-14225500D01*
X13486071Y-14168357D01*
X13471786Y-14096929D01*
X13457500Y-14054071D01*
X13443214Y-14025500D01*
X13414643Y-13982643D01*
X13400357Y-13968357D01*
X13943214Y-14425500D02*
X13928928Y-14411214D01*
X13900357Y-14368357D01*
X13886071Y-14339786D01*
X13871786Y-14296929D01*
X13857500Y-14225500D01*
X13857500Y-14168357D01*
X13871786Y-14096929D01*
X13886071Y-14054071D01*
X13900357Y-14025500D01*
X13928928Y-13982643D01*
X13943214Y-13968357D01*
X14057500Y-14111214D02*
X14057500Y-14311214D01*
X14057500Y-14139786D02*
X14071786Y-14125500D01*
X14100357Y-14111214D01*
X14143214Y-14111214D01*
X14171786Y-14125500D01*
X14186071Y-14154071D01*
X14186071Y-14311214D01*
X14371786Y-14311214D02*
X14343214Y-14296929D01*
X14328928Y-14282643D01*
X14314643Y-14254071D01*
X14314643Y-14168357D01*
X14328928Y-14139786D01*
X14343214Y-14125500D01*
X14371786Y-14111214D01*
X14414643Y-14111214D01*
X14443214Y-14125500D01*
X14457500Y-14139786D01*
X14471786Y-14168357D01*
X14471786Y-14254071D01*
X14457500Y-14282643D01*
X14443214Y-14296929D01*
X14414643Y-14311214D01*
X14371786Y-14311214D01*
X14557500Y-14111214D02*
X14671786Y-14111214D01*
X14600357Y-14011214D02*
X14600357Y-14268357D01*
X14614643Y-14296929D01*
X14643214Y-14311214D01*
X14671786Y-14311214D01*
X15000357Y-14111214D02*
X15000357Y-14411214D01*
X15000357Y-14125500D02*
X15028928Y-14111214D01*
X15086071Y-14111214D01*
X15114643Y-14125500D01*
X15128928Y-14139786D01*
X15143214Y-14168357D01*
X15143214Y-14254071D01*
X15128928Y-14282643D01*
X15114643Y-14296929D01*
X15086071Y-14311214D01*
X15028928Y-14311214D01*
X15000357Y-14296929D01*
X15314643Y-14311214D02*
X15286071Y-14296929D01*
X15271786Y-14268357D01*
X15271786Y-14011214D01*
X15557500Y-14311214D02*
X15557500Y-14154071D01*
X15543214Y-14125500D01*
X15514643Y-14111214D01*
X15457500Y-14111214D01*
X15428928Y-14125500D01*
X15557500Y-14296929D02*
X15528928Y-14311214D01*
X15457500Y-14311214D01*
X15428928Y-14296929D01*
X15414643Y-14268357D01*
X15414643Y-14239786D01*
X15428928Y-14211214D01*
X15457500Y-14196929D01*
X15528928Y-14196929D01*
X15557500Y-14182643D01*
X15657500Y-14111214D02*
X15771786Y-14111214D01*
X15700357Y-14011214D02*
X15700357Y-14268357D01*
X15714643Y-14296929D01*
X15743214Y-14311214D01*
X15771786Y-14311214D01*
X15986071Y-14296929D02*
X15957500Y-14311214D01*
X15900357Y-14311214D01*
X15871786Y-14296929D01*
X15857500Y-14268357D01*
X15857500Y-14154071D01*
X15871786Y-14125500D01*
X15900357Y-14111214D01*
X15957500Y-14111214D01*
X15986071Y-14125500D01*
X16000357Y-14154071D01*
X16000357Y-14182643D01*
X15857500Y-14211214D01*
X16257500Y-14311214D02*
X16257500Y-14011214D01*
X16257500Y-14296929D02*
X16228928Y-14311214D01*
X16171786Y-14311214D01*
X16143214Y-14296929D01*
X16128928Y-14282643D01*
X16114643Y-14254071D01*
X16114643Y-14168357D01*
X16128928Y-14139786D01*
X16143214Y-14125500D01*
X16171786Y-14111214D01*
X16228928Y-14111214D01*
X16257500Y-14125500D01*
X16371786Y-14425500D02*
X16386071Y-14411214D01*
X16414643Y-14368357D01*
X16428928Y-14339786D01*
X16443214Y-14296929D01*
X16457500Y-14225500D01*
X16457500Y-14168357D01*
X16443214Y-14096929D01*
X16428928Y-14054071D01*
X16414643Y-14025500D01*
X16386071Y-13982643D01*
X16371786Y-13968357D01*
M02*
