G04 #@! TF.GenerationSoftware,KiCad,Pcbnew,(5.1.10)-1*
G04 #@! TF.CreationDate,2022-05-28T18:59:37-05:00*
G04 #@! TF.ProjectId,z80vga,7a383076-6761-42e6-9b69-6361645f7063,rev?*
G04 #@! TF.SameCoordinates,Original*
G04 #@! TF.FileFunction,Legend,Top*
G04 #@! TF.FilePolarity,Positive*
%FSLAX46Y46*%
G04 Gerber Fmt 4.6, Leading zero omitted, Abs format (unit mm)*
G04 Created by KiCad (PCBNEW (5.1.10)-1) date 2022-05-28 18:59:37*
%MOMM*%
%LPD*%
G01*
G04 APERTURE LIST*
%ADD10C,0.200000*%
%ADD11C,0.120000*%
%ADD12C,0.150000*%
%ADD13R,6.400000X5.800000*%
%ADD14R,2.200000X1.200000*%
%ADD15C,1.600000*%
%ADD16R,1.600000X1.600000*%
%ADD17O,1.600000X1.600000*%
%ADD18C,1.800000*%
%ADD19R,1.800000X1.800000*%
%ADD20R,1.700000X1.700000*%
%ADD21O,1.700000X1.700000*%
%ADD22C,3.500000*%
%ADD23O,2.400000X1.600000*%
%ADD24R,2.400000X1.600000*%
%ADD25R,1.100000X4.600000*%
%ADD26R,10.800000X9.400000*%
%ADD27R,3.500000X3.500000*%
%ADD28O,2.200000X2.200000*%
%ADD29R,2.200000X2.200000*%
%ADD30O,1.600000X2.400000*%
%ADD31R,1.600000X2.400000*%
%ADD32C,2.000000*%
%ADD33R,1.900000X1.350000*%
%ADD34R,1.200000X1.000000*%
%ADD35R,1.550000X1.350000*%
%ADD36R,1.170000X1.800000*%
%ADD37R,0.850000X1.100000*%
%ADD38R,0.750000X1.100000*%
%ADD39C,1.700000*%
%ADD40R,1.600000X0.600000*%
%ADD41R,1.300000X0.500000*%
%ADD42R,0.500000X1.300000*%
G04 APERTURE END LIST*
D10*
X50642857Y-120804761D02*
X51785714Y-120804761D01*
X51214285Y-122804761D02*
X51214285Y-120804761D01*
X52738095Y-122804761D02*
X52547619Y-122709523D01*
X52452380Y-122614285D01*
X52357142Y-122423809D01*
X52357142Y-121852380D01*
X52452380Y-121661904D01*
X52547619Y-121566666D01*
X52738095Y-121471428D01*
X53023809Y-121471428D01*
X53214285Y-121566666D01*
X53309523Y-121661904D01*
X53404761Y-121852380D01*
X53404761Y-122423809D01*
X53309523Y-122614285D01*
X53214285Y-122709523D01*
X53023809Y-122804761D01*
X52738095Y-122804761D01*
X54261904Y-122804761D02*
X54261904Y-121471428D01*
X54261904Y-121661904D02*
X54357142Y-121566666D01*
X54547619Y-121471428D01*
X54833333Y-121471428D01*
X55023809Y-121566666D01*
X55119047Y-121757142D01*
X55119047Y-122804761D01*
X55119047Y-121757142D02*
X55214285Y-121566666D01*
X55404761Y-121471428D01*
X55690476Y-121471428D01*
X55880952Y-121566666D01*
X55976190Y-121757142D01*
X55976190Y-122804761D01*
X57214285Y-121661904D02*
X57023809Y-121566666D01*
X56928571Y-121471428D01*
X56833333Y-121280952D01*
X56833333Y-121185714D01*
X56928571Y-120995238D01*
X57023809Y-120900000D01*
X57214285Y-120804761D01*
X57595238Y-120804761D01*
X57785714Y-120900000D01*
X57880952Y-120995238D01*
X57976190Y-121185714D01*
X57976190Y-121280952D01*
X57880952Y-121471428D01*
X57785714Y-121566666D01*
X57595238Y-121661904D01*
X57214285Y-121661904D01*
X57023809Y-121757142D01*
X56928571Y-121852380D01*
X56833333Y-122042857D01*
X56833333Y-122423809D01*
X56928571Y-122614285D01*
X57023809Y-122709523D01*
X57214285Y-122804761D01*
X57595238Y-122804761D01*
X57785714Y-122709523D01*
X57880952Y-122614285D01*
X57976190Y-122423809D01*
X57976190Y-122042857D01*
X57880952Y-121852380D01*
X57785714Y-121757142D01*
X57595238Y-121661904D01*
X59214285Y-120804761D02*
X59404761Y-120804761D01*
X59595238Y-120900000D01*
X59690476Y-120995238D01*
X59785714Y-121185714D01*
X59880952Y-121566666D01*
X59880952Y-122042857D01*
X59785714Y-122423809D01*
X59690476Y-122614285D01*
X59595238Y-122709523D01*
X59404761Y-122804761D01*
X59214285Y-122804761D01*
X59023809Y-122709523D01*
X58928571Y-122614285D01*
X58833333Y-122423809D01*
X58738095Y-122042857D01*
X58738095Y-121566666D01*
X58833333Y-121185714D01*
X58928571Y-120995238D01*
X59023809Y-120900000D01*
X59214285Y-120804761D01*
X62071428Y-120804761D02*
X63309523Y-120804761D01*
X62642857Y-121566666D01*
X62928571Y-121566666D01*
X63119047Y-121661904D01*
X63214285Y-121757142D01*
X63309523Y-121947619D01*
X63309523Y-122423809D01*
X63214285Y-122614285D01*
X63119047Y-122709523D01*
X62928571Y-122804761D01*
X62357142Y-122804761D01*
X62166666Y-122709523D01*
X62071428Y-122614285D01*
X64166666Y-122614285D02*
X64261904Y-122709523D01*
X64166666Y-122804761D01*
X64071428Y-122709523D01*
X64166666Y-122614285D01*
X64166666Y-122804761D01*
X65500000Y-120804761D02*
X65690476Y-120804761D01*
X65880952Y-120900000D01*
X65976190Y-120995238D01*
X66071428Y-121185714D01*
X66166666Y-121566666D01*
X66166666Y-122042857D01*
X66071428Y-122423809D01*
X65976190Y-122614285D01*
X65880952Y-122709523D01*
X65690476Y-122804761D01*
X65500000Y-122804761D01*
X65309523Y-122709523D01*
X65214285Y-122614285D01*
X65119047Y-122423809D01*
X65023809Y-122042857D01*
X65023809Y-121566666D01*
X65119047Y-121185714D01*
X65214285Y-120995238D01*
X65309523Y-120900000D01*
X65500000Y-120804761D01*
X42976190Y-124195238D02*
X43071428Y-124100000D01*
X43261904Y-124004761D01*
X43738095Y-124004761D01*
X43928571Y-124100000D01*
X44023809Y-124195238D01*
X44119047Y-124385714D01*
X44119047Y-124576190D01*
X44023809Y-124861904D01*
X42880952Y-126004761D01*
X44119047Y-126004761D01*
X45357142Y-124004761D02*
X45547619Y-124004761D01*
X45738095Y-124100000D01*
X45833333Y-124195238D01*
X45928571Y-124385714D01*
X46023809Y-124766666D01*
X46023809Y-125242857D01*
X45928571Y-125623809D01*
X45833333Y-125814285D01*
X45738095Y-125909523D01*
X45547619Y-126004761D01*
X45357142Y-126004761D01*
X45166666Y-125909523D01*
X45071428Y-125814285D01*
X44976190Y-125623809D01*
X44880952Y-125242857D01*
X44880952Y-124766666D01*
X44976190Y-124385714D01*
X45071428Y-124195238D01*
X45166666Y-124100000D01*
X45357142Y-124004761D01*
X46785714Y-124195238D02*
X46880952Y-124100000D01*
X47071428Y-124004761D01*
X47547619Y-124004761D01*
X47738095Y-124100000D01*
X47833333Y-124195238D01*
X47928571Y-124385714D01*
X47928571Y-124576190D01*
X47833333Y-124861904D01*
X46690476Y-126004761D01*
X47928571Y-126004761D01*
X48690476Y-124195238D02*
X48785714Y-124100000D01*
X48976190Y-124004761D01*
X49452380Y-124004761D01*
X49642857Y-124100000D01*
X49738095Y-124195238D01*
X49833333Y-124385714D01*
X49833333Y-124576190D01*
X49738095Y-124861904D01*
X48595238Y-126004761D01*
X49833333Y-126004761D01*
X52119047Y-125433333D02*
X53071428Y-125433333D01*
X51928571Y-126004761D02*
X52595238Y-124004761D01*
X53261904Y-126004761D01*
X53928571Y-126004761D02*
X53928571Y-124671428D01*
X53928571Y-124004761D02*
X53833333Y-124100000D01*
X53928571Y-124195238D01*
X54023809Y-124100000D01*
X53928571Y-124004761D01*
X53928571Y-124195238D01*
X55738095Y-126004761D02*
X55738095Y-124004761D01*
X55738095Y-125909523D02*
X55547619Y-126004761D01*
X55166666Y-126004761D01*
X54976190Y-125909523D01*
X54880952Y-125814285D01*
X54785714Y-125623809D01*
X54785714Y-125052380D01*
X54880952Y-124861904D01*
X54976190Y-124766666D01*
X55166666Y-124671428D01*
X55547619Y-124671428D01*
X55738095Y-124766666D01*
X57547619Y-126004761D02*
X57547619Y-124957142D01*
X57452380Y-124766666D01*
X57261904Y-124671428D01*
X56880952Y-124671428D01*
X56690476Y-124766666D01*
X57547619Y-125909523D02*
X57357142Y-126004761D01*
X56880952Y-126004761D01*
X56690476Y-125909523D01*
X56595238Y-125719047D01*
X56595238Y-125528571D01*
X56690476Y-125338095D01*
X56880952Y-125242857D01*
X57357142Y-125242857D01*
X57547619Y-125147619D01*
X58499999Y-124671428D02*
X58499999Y-126004761D01*
X58499999Y-124861904D02*
X58595238Y-124766666D01*
X58785714Y-124671428D01*
X59071428Y-124671428D01*
X59261904Y-124766666D01*
X59357142Y-124957142D01*
X59357142Y-126004761D01*
X62404761Y-124004761D02*
X62404761Y-125433333D01*
X62309523Y-125719047D01*
X62119047Y-125909523D01*
X61833333Y-126004761D01*
X61642857Y-126004761D01*
X64119047Y-125909523D02*
X63928571Y-126004761D01*
X63547619Y-126004761D01*
X63357142Y-125909523D01*
X63261904Y-125719047D01*
X63261904Y-124957142D01*
X63357142Y-124766666D01*
X63547619Y-124671428D01*
X63928571Y-124671428D01*
X64119047Y-124766666D01*
X64214285Y-124957142D01*
X64214285Y-125147619D01*
X63261904Y-125338095D01*
X65071428Y-124671428D02*
X65071428Y-126004761D01*
X65071428Y-124861904D02*
X65166666Y-124766666D01*
X65357142Y-124671428D01*
X65642857Y-124671428D01*
X65833333Y-124766666D01*
X65928571Y-124957142D01*
X65928571Y-126004761D01*
X66880952Y-124671428D02*
X66880952Y-126004761D01*
X66880952Y-124861904D02*
X66976190Y-124766666D01*
X67166666Y-124671428D01*
X67452380Y-124671428D01*
X67642857Y-124766666D01*
X67738095Y-124957142D01*
X67738095Y-126004761D01*
X68690476Y-126004761D02*
X68690476Y-124671428D01*
X68690476Y-124004761D02*
X68595238Y-124100000D01*
X68690476Y-124195238D01*
X68785714Y-124100000D01*
X68690476Y-124004761D01*
X68690476Y-124195238D01*
X69642857Y-124671428D02*
X69642857Y-126004761D01*
X69642857Y-124861904D02*
X69738095Y-124766666D01*
X69928571Y-124671428D01*
X70214285Y-124671428D01*
X70404761Y-124766666D01*
X70499999Y-124957142D01*
X70499999Y-126004761D01*
X72309523Y-124671428D02*
X72309523Y-126290476D01*
X72214285Y-126480952D01*
X72119047Y-126576190D01*
X71928571Y-126671428D01*
X71642857Y-126671428D01*
X71452380Y-126576190D01*
X72309523Y-125909523D02*
X72119047Y-126004761D01*
X71738095Y-126004761D01*
X71547619Y-125909523D01*
X71452380Y-125814285D01*
X71357142Y-125623809D01*
X71357142Y-125052380D01*
X71452380Y-124861904D01*
X71547619Y-124766666D01*
X71738095Y-124671428D01*
X72119047Y-124671428D01*
X72309523Y-124766666D01*
X73166666Y-125909523D02*
X73357142Y-126004761D01*
X73738095Y-126004761D01*
X73928571Y-125909523D01*
X74023809Y-125719047D01*
X74023809Y-125623809D01*
X73928571Y-125433333D01*
X73738095Y-125338095D01*
X73452380Y-125338095D01*
X73261904Y-125242857D01*
X73166666Y-125052380D01*
X73166666Y-124957142D01*
X73261904Y-124766666D01*
X73452380Y-124671428D01*
X73738095Y-124671428D01*
X73928571Y-124766666D01*
D11*
X58470000Y-54820000D02*
X59570000Y-54820000D01*
X58470000Y-54550000D02*
X58470000Y-54820000D01*
X56970000Y-54550000D02*
X58470000Y-54550000D01*
X58470000Y-61180000D02*
X61300000Y-61180000D01*
X58470000Y-61450000D02*
X58470000Y-61180000D01*
X56970000Y-61450000D02*
X58470000Y-61450000D01*
X64445225Y-52275000D02*
X64445225Y-52775000D01*
X64195225Y-52525000D02*
X64695225Y-52525000D01*
X69601000Y-53716000D02*
X69601000Y-54284000D01*
X69561000Y-53482000D02*
X69561000Y-54518000D01*
X69521000Y-53323000D02*
X69521000Y-54677000D01*
X69481000Y-53195000D02*
X69481000Y-54805000D01*
X69441000Y-53085000D02*
X69441000Y-54915000D01*
X69401000Y-52989000D02*
X69401000Y-55011000D01*
X69361000Y-52902000D02*
X69361000Y-55098000D01*
X69321000Y-52822000D02*
X69321000Y-55178000D01*
X69281000Y-52749000D02*
X69281000Y-55251000D01*
X69241000Y-52681000D02*
X69241000Y-55319000D01*
X69201000Y-52617000D02*
X69201000Y-55383000D01*
X69161000Y-52557000D02*
X69161000Y-55443000D01*
X69121000Y-52500000D02*
X69121000Y-55500000D01*
X69081000Y-52446000D02*
X69081000Y-55554000D01*
X69041000Y-52395000D02*
X69041000Y-55605000D01*
X69001000Y-55040000D02*
X69001000Y-55653000D01*
X69001000Y-52347000D02*
X69001000Y-52960000D01*
X68961000Y-55040000D02*
X68961000Y-55699000D01*
X68961000Y-52301000D02*
X68961000Y-52960000D01*
X68921000Y-55040000D02*
X68921000Y-55743000D01*
X68921000Y-52257000D02*
X68921000Y-52960000D01*
X68881000Y-55040000D02*
X68881000Y-55785000D01*
X68881000Y-52215000D02*
X68881000Y-52960000D01*
X68841000Y-55040000D02*
X68841000Y-55826000D01*
X68841000Y-52174000D02*
X68841000Y-52960000D01*
X68801000Y-55040000D02*
X68801000Y-55864000D01*
X68801000Y-52136000D02*
X68801000Y-52960000D01*
X68761000Y-55040000D02*
X68761000Y-55901000D01*
X68761000Y-52099000D02*
X68761000Y-52960000D01*
X68721000Y-55040000D02*
X68721000Y-55937000D01*
X68721000Y-52063000D02*
X68721000Y-52960000D01*
X68681000Y-55040000D02*
X68681000Y-55971000D01*
X68681000Y-52029000D02*
X68681000Y-52960000D01*
X68641000Y-55040000D02*
X68641000Y-56004000D01*
X68641000Y-51996000D02*
X68641000Y-52960000D01*
X68601000Y-55040000D02*
X68601000Y-56035000D01*
X68601000Y-51965000D02*
X68601000Y-52960000D01*
X68561000Y-55040000D02*
X68561000Y-56065000D01*
X68561000Y-51935000D02*
X68561000Y-52960000D01*
X68521000Y-55040000D02*
X68521000Y-56095000D01*
X68521000Y-51905000D02*
X68521000Y-52960000D01*
X68481000Y-55040000D02*
X68481000Y-56122000D01*
X68481000Y-51878000D02*
X68481000Y-52960000D01*
X68441000Y-55040000D02*
X68441000Y-56149000D01*
X68441000Y-51851000D02*
X68441000Y-52960000D01*
X68401000Y-55040000D02*
X68401000Y-56175000D01*
X68401000Y-51825000D02*
X68401000Y-52960000D01*
X68361000Y-55040000D02*
X68361000Y-56200000D01*
X68361000Y-51800000D02*
X68361000Y-52960000D01*
X68321000Y-55040000D02*
X68321000Y-56224000D01*
X68321000Y-51776000D02*
X68321000Y-52960000D01*
X68281000Y-55040000D02*
X68281000Y-56247000D01*
X68281000Y-51753000D02*
X68281000Y-52960000D01*
X68241000Y-55040000D02*
X68241000Y-56268000D01*
X68241000Y-51732000D02*
X68241000Y-52960000D01*
X68201000Y-55040000D02*
X68201000Y-56290000D01*
X68201000Y-51710000D02*
X68201000Y-52960000D01*
X68161000Y-55040000D02*
X68161000Y-56310000D01*
X68161000Y-51690000D02*
X68161000Y-52960000D01*
X68121000Y-55040000D02*
X68121000Y-56329000D01*
X68121000Y-51671000D02*
X68121000Y-52960000D01*
X68081000Y-55040000D02*
X68081000Y-56348000D01*
X68081000Y-51652000D02*
X68081000Y-52960000D01*
X68041000Y-55040000D02*
X68041000Y-56365000D01*
X68041000Y-51635000D02*
X68041000Y-52960000D01*
X68001000Y-55040000D02*
X68001000Y-56382000D01*
X68001000Y-51618000D02*
X68001000Y-52960000D01*
X67961000Y-55040000D02*
X67961000Y-56398000D01*
X67961000Y-51602000D02*
X67961000Y-52960000D01*
X67921000Y-55040000D02*
X67921000Y-56414000D01*
X67921000Y-51586000D02*
X67921000Y-52960000D01*
X67881000Y-55040000D02*
X67881000Y-56428000D01*
X67881000Y-51572000D02*
X67881000Y-52960000D01*
X67841000Y-55040000D02*
X67841000Y-56442000D01*
X67841000Y-51558000D02*
X67841000Y-52960000D01*
X67801000Y-55040000D02*
X67801000Y-56455000D01*
X67801000Y-51545000D02*
X67801000Y-52960000D01*
X67761000Y-55040000D02*
X67761000Y-56468000D01*
X67761000Y-51532000D02*
X67761000Y-52960000D01*
X67721000Y-55040000D02*
X67721000Y-56480000D01*
X67721000Y-51520000D02*
X67721000Y-52960000D01*
X67680000Y-55040000D02*
X67680000Y-56491000D01*
X67680000Y-51509000D02*
X67680000Y-52960000D01*
X67640000Y-55040000D02*
X67640000Y-56501000D01*
X67640000Y-51499000D02*
X67640000Y-52960000D01*
X67600000Y-55040000D02*
X67600000Y-56511000D01*
X67600000Y-51489000D02*
X67600000Y-52960000D01*
X67560000Y-55040000D02*
X67560000Y-56520000D01*
X67560000Y-51480000D02*
X67560000Y-52960000D01*
X67520000Y-55040000D02*
X67520000Y-56528000D01*
X67520000Y-51472000D02*
X67520000Y-52960000D01*
X67480000Y-55040000D02*
X67480000Y-56536000D01*
X67480000Y-51464000D02*
X67480000Y-52960000D01*
X67440000Y-55040000D02*
X67440000Y-56543000D01*
X67440000Y-51457000D02*
X67440000Y-52960000D01*
X67400000Y-55040000D02*
X67400000Y-56550000D01*
X67400000Y-51450000D02*
X67400000Y-52960000D01*
X67360000Y-55040000D02*
X67360000Y-56556000D01*
X67360000Y-51444000D02*
X67360000Y-52960000D01*
X67320000Y-55040000D02*
X67320000Y-56561000D01*
X67320000Y-51439000D02*
X67320000Y-52960000D01*
X67280000Y-55040000D02*
X67280000Y-56565000D01*
X67280000Y-51435000D02*
X67280000Y-52960000D01*
X67240000Y-55040000D02*
X67240000Y-56569000D01*
X67240000Y-51431000D02*
X67240000Y-52960000D01*
X67200000Y-55040000D02*
X67200000Y-56573000D01*
X67200000Y-51427000D02*
X67200000Y-52960000D01*
X67160000Y-55040000D02*
X67160000Y-56576000D01*
X67160000Y-51424000D02*
X67160000Y-52960000D01*
X67120000Y-55040000D02*
X67120000Y-56578000D01*
X67120000Y-51422000D02*
X67120000Y-52960000D01*
X67080000Y-55040000D02*
X67080000Y-56579000D01*
X67080000Y-51421000D02*
X67080000Y-52960000D01*
X67040000Y-51420000D02*
X67040000Y-52960000D01*
X67040000Y-55040000D02*
X67040000Y-56580000D01*
X67000000Y-51420000D02*
X67000000Y-52960000D01*
X67000000Y-55040000D02*
X67000000Y-56580000D01*
X69620000Y-54000000D02*
G75*
G03*
X69620000Y-54000000I-2620000J0D01*
G01*
X64445225Y-60275000D02*
X64445225Y-60775000D01*
X64195225Y-60525000D02*
X64695225Y-60525000D01*
X69601000Y-61716000D02*
X69601000Y-62284000D01*
X69561000Y-61482000D02*
X69561000Y-62518000D01*
X69521000Y-61323000D02*
X69521000Y-62677000D01*
X69481000Y-61195000D02*
X69481000Y-62805000D01*
X69441000Y-61085000D02*
X69441000Y-62915000D01*
X69401000Y-60989000D02*
X69401000Y-63011000D01*
X69361000Y-60902000D02*
X69361000Y-63098000D01*
X69321000Y-60822000D02*
X69321000Y-63178000D01*
X69281000Y-60749000D02*
X69281000Y-63251000D01*
X69241000Y-60681000D02*
X69241000Y-63319000D01*
X69201000Y-60617000D02*
X69201000Y-63383000D01*
X69161000Y-60557000D02*
X69161000Y-63443000D01*
X69121000Y-60500000D02*
X69121000Y-63500000D01*
X69081000Y-60446000D02*
X69081000Y-63554000D01*
X69041000Y-60395000D02*
X69041000Y-63605000D01*
X69001000Y-63040000D02*
X69001000Y-63653000D01*
X69001000Y-60347000D02*
X69001000Y-60960000D01*
X68961000Y-63040000D02*
X68961000Y-63699000D01*
X68961000Y-60301000D02*
X68961000Y-60960000D01*
X68921000Y-63040000D02*
X68921000Y-63743000D01*
X68921000Y-60257000D02*
X68921000Y-60960000D01*
X68881000Y-63040000D02*
X68881000Y-63785000D01*
X68881000Y-60215000D02*
X68881000Y-60960000D01*
X68841000Y-63040000D02*
X68841000Y-63826000D01*
X68841000Y-60174000D02*
X68841000Y-60960000D01*
X68801000Y-63040000D02*
X68801000Y-63864000D01*
X68801000Y-60136000D02*
X68801000Y-60960000D01*
X68761000Y-63040000D02*
X68761000Y-63901000D01*
X68761000Y-60099000D02*
X68761000Y-60960000D01*
X68721000Y-63040000D02*
X68721000Y-63937000D01*
X68721000Y-60063000D02*
X68721000Y-60960000D01*
X68681000Y-63040000D02*
X68681000Y-63971000D01*
X68681000Y-60029000D02*
X68681000Y-60960000D01*
X68641000Y-63040000D02*
X68641000Y-64004000D01*
X68641000Y-59996000D02*
X68641000Y-60960000D01*
X68601000Y-63040000D02*
X68601000Y-64035000D01*
X68601000Y-59965000D02*
X68601000Y-60960000D01*
X68561000Y-63040000D02*
X68561000Y-64065000D01*
X68561000Y-59935000D02*
X68561000Y-60960000D01*
X68521000Y-63040000D02*
X68521000Y-64095000D01*
X68521000Y-59905000D02*
X68521000Y-60960000D01*
X68481000Y-63040000D02*
X68481000Y-64122000D01*
X68481000Y-59878000D02*
X68481000Y-60960000D01*
X68441000Y-63040000D02*
X68441000Y-64149000D01*
X68441000Y-59851000D02*
X68441000Y-60960000D01*
X68401000Y-63040000D02*
X68401000Y-64175000D01*
X68401000Y-59825000D02*
X68401000Y-60960000D01*
X68361000Y-63040000D02*
X68361000Y-64200000D01*
X68361000Y-59800000D02*
X68361000Y-60960000D01*
X68321000Y-63040000D02*
X68321000Y-64224000D01*
X68321000Y-59776000D02*
X68321000Y-60960000D01*
X68281000Y-63040000D02*
X68281000Y-64247000D01*
X68281000Y-59753000D02*
X68281000Y-60960000D01*
X68241000Y-63040000D02*
X68241000Y-64268000D01*
X68241000Y-59732000D02*
X68241000Y-60960000D01*
X68201000Y-63040000D02*
X68201000Y-64290000D01*
X68201000Y-59710000D02*
X68201000Y-60960000D01*
X68161000Y-63040000D02*
X68161000Y-64310000D01*
X68161000Y-59690000D02*
X68161000Y-60960000D01*
X68121000Y-63040000D02*
X68121000Y-64329000D01*
X68121000Y-59671000D02*
X68121000Y-60960000D01*
X68081000Y-63040000D02*
X68081000Y-64348000D01*
X68081000Y-59652000D02*
X68081000Y-60960000D01*
X68041000Y-63040000D02*
X68041000Y-64365000D01*
X68041000Y-59635000D02*
X68041000Y-60960000D01*
X68001000Y-63040000D02*
X68001000Y-64382000D01*
X68001000Y-59618000D02*
X68001000Y-60960000D01*
X67961000Y-63040000D02*
X67961000Y-64398000D01*
X67961000Y-59602000D02*
X67961000Y-60960000D01*
X67921000Y-63040000D02*
X67921000Y-64414000D01*
X67921000Y-59586000D02*
X67921000Y-60960000D01*
X67881000Y-63040000D02*
X67881000Y-64428000D01*
X67881000Y-59572000D02*
X67881000Y-60960000D01*
X67841000Y-63040000D02*
X67841000Y-64442000D01*
X67841000Y-59558000D02*
X67841000Y-60960000D01*
X67801000Y-63040000D02*
X67801000Y-64455000D01*
X67801000Y-59545000D02*
X67801000Y-60960000D01*
X67761000Y-63040000D02*
X67761000Y-64468000D01*
X67761000Y-59532000D02*
X67761000Y-60960000D01*
X67721000Y-63040000D02*
X67721000Y-64480000D01*
X67721000Y-59520000D02*
X67721000Y-60960000D01*
X67680000Y-63040000D02*
X67680000Y-64491000D01*
X67680000Y-59509000D02*
X67680000Y-60960000D01*
X67640000Y-63040000D02*
X67640000Y-64501000D01*
X67640000Y-59499000D02*
X67640000Y-60960000D01*
X67600000Y-63040000D02*
X67600000Y-64511000D01*
X67600000Y-59489000D02*
X67600000Y-60960000D01*
X67560000Y-63040000D02*
X67560000Y-64520000D01*
X67560000Y-59480000D02*
X67560000Y-60960000D01*
X67520000Y-63040000D02*
X67520000Y-64528000D01*
X67520000Y-59472000D02*
X67520000Y-60960000D01*
X67480000Y-63040000D02*
X67480000Y-64536000D01*
X67480000Y-59464000D02*
X67480000Y-60960000D01*
X67440000Y-63040000D02*
X67440000Y-64543000D01*
X67440000Y-59457000D02*
X67440000Y-60960000D01*
X67400000Y-63040000D02*
X67400000Y-64550000D01*
X67400000Y-59450000D02*
X67400000Y-60960000D01*
X67360000Y-63040000D02*
X67360000Y-64556000D01*
X67360000Y-59444000D02*
X67360000Y-60960000D01*
X67320000Y-63040000D02*
X67320000Y-64561000D01*
X67320000Y-59439000D02*
X67320000Y-60960000D01*
X67280000Y-63040000D02*
X67280000Y-64565000D01*
X67280000Y-59435000D02*
X67280000Y-60960000D01*
X67240000Y-63040000D02*
X67240000Y-64569000D01*
X67240000Y-59431000D02*
X67240000Y-60960000D01*
X67200000Y-63040000D02*
X67200000Y-64573000D01*
X67200000Y-59427000D02*
X67200000Y-60960000D01*
X67160000Y-63040000D02*
X67160000Y-64576000D01*
X67160000Y-59424000D02*
X67160000Y-60960000D01*
X67120000Y-63040000D02*
X67120000Y-64578000D01*
X67120000Y-59422000D02*
X67120000Y-60960000D01*
X67080000Y-63040000D02*
X67080000Y-64579000D01*
X67080000Y-59421000D02*
X67080000Y-60960000D01*
X67040000Y-59420000D02*
X67040000Y-60960000D01*
X67040000Y-63040000D02*
X67040000Y-64580000D01*
X67000000Y-59420000D02*
X67000000Y-60960000D01*
X67000000Y-63040000D02*
X67000000Y-64580000D01*
X69620000Y-62000000D02*
G75*
G03*
X69620000Y-62000000I-2620000J0D01*
G01*
X109335000Y-115370000D02*
X108630000Y-115370000D01*
X111370000Y-115370000D02*
X110665000Y-115370000D01*
X109335000Y-111130000D02*
X108630000Y-111130000D01*
X111370000Y-111130000D02*
X110665000Y-111130000D01*
X108630000Y-111130000D02*
X108630000Y-115370000D01*
X111370000Y-111130000D02*
X111370000Y-115370000D01*
X87665000Y-73630000D02*
X88370000Y-73630000D01*
X85630000Y-73630000D02*
X86335000Y-73630000D01*
X87665000Y-77870000D02*
X88370000Y-77870000D01*
X85630000Y-77870000D02*
X86335000Y-77870000D01*
X88370000Y-77870000D02*
X88370000Y-73630000D01*
X85630000Y-77870000D02*
X85630000Y-73630000D01*
X58028620Y-113344775D02*
G75*
G02*
X59800000Y-113453272I971380J1344775D01*
G01*
X74400000Y-80560000D02*
X71600000Y-80560000D01*
X71600000Y-80560000D02*
X71600000Y-116460000D01*
X71600000Y-116460000D02*
X74400000Y-116460000D01*
X74400000Y-116460000D02*
X74400000Y-80560000D01*
X74400000Y-83270000D02*
X71600000Y-83270000D01*
X122804775Y-34971380D02*
G75*
G02*
X122913272Y-33200000I-1344775J971380D01*
G01*
X151025225Y-115028620D02*
G75*
G02*
X150916728Y-116800000I1344775J-971380D01*
G01*
X159290000Y-117236000D02*
X159290000Y-117080000D01*
X159290000Y-114920000D02*
X159290000Y-114764000D01*
X156688870Y-114920163D02*
G75*
G02*
X158770961Y-114920000I1041130J-1079837D01*
G01*
X156688870Y-117079837D02*
G75*
G03*
X158770961Y-117080000I1041130J1079837D01*
G01*
X156057665Y-114921392D02*
G75*
G02*
X159290000Y-114764484I1672335J-1078608D01*
G01*
X156057665Y-117078608D02*
G75*
G03*
X159290000Y-117235516I1672335J1078608D01*
G01*
X60330000Y-103130000D02*
X57670000Y-103130000D01*
X60330000Y-105730000D02*
X60330000Y-103130000D01*
X57670000Y-105730000D02*
X57670000Y-103130000D01*
X60330000Y-105730000D02*
X57670000Y-105730000D01*
X60330000Y-107000000D02*
X60330000Y-108330000D01*
X60330000Y-108330000D02*
X59000000Y-108330000D01*
X64850000Y-90280000D02*
G75*
G03*
X64850000Y-90280000I-2620000J0D01*
G01*
X61190000Y-90280000D02*
X59650000Y-90280000D01*
X64810000Y-90280000D02*
X63270000Y-90280000D01*
X61190000Y-90320000D02*
X59650000Y-90320000D01*
X64810000Y-90320000D02*
X63270000Y-90320000D01*
X64809000Y-90360000D02*
X63270000Y-90360000D01*
X61190000Y-90360000D02*
X59651000Y-90360000D01*
X64808000Y-90400000D02*
X63270000Y-90400000D01*
X61190000Y-90400000D02*
X59652000Y-90400000D01*
X64806000Y-90440000D02*
X63270000Y-90440000D01*
X61190000Y-90440000D02*
X59654000Y-90440000D01*
X64803000Y-90480000D02*
X63270000Y-90480000D01*
X61190000Y-90480000D02*
X59657000Y-90480000D01*
X64799000Y-90520000D02*
X63270000Y-90520000D01*
X61190000Y-90520000D02*
X59661000Y-90520000D01*
X64795000Y-90560000D02*
X63270000Y-90560000D01*
X61190000Y-90560000D02*
X59665000Y-90560000D01*
X64791000Y-90600000D02*
X63270000Y-90600000D01*
X61190000Y-90600000D02*
X59669000Y-90600000D01*
X64786000Y-90640000D02*
X63270000Y-90640000D01*
X61190000Y-90640000D02*
X59674000Y-90640000D01*
X64780000Y-90680000D02*
X63270000Y-90680000D01*
X61190000Y-90680000D02*
X59680000Y-90680000D01*
X64773000Y-90720000D02*
X63270000Y-90720000D01*
X61190000Y-90720000D02*
X59687000Y-90720000D01*
X64766000Y-90760000D02*
X63270000Y-90760000D01*
X61190000Y-90760000D02*
X59694000Y-90760000D01*
X64758000Y-90800000D02*
X63270000Y-90800000D01*
X61190000Y-90800000D02*
X59702000Y-90800000D01*
X64750000Y-90840000D02*
X63270000Y-90840000D01*
X61190000Y-90840000D02*
X59710000Y-90840000D01*
X64741000Y-90880000D02*
X63270000Y-90880000D01*
X61190000Y-90880000D02*
X59719000Y-90880000D01*
X64731000Y-90920000D02*
X63270000Y-90920000D01*
X61190000Y-90920000D02*
X59729000Y-90920000D01*
X64721000Y-90960000D02*
X63270000Y-90960000D01*
X61190000Y-90960000D02*
X59739000Y-90960000D01*
X64710000Y-91001000D02*
X63270000Y-91001000D01*
X61190000Y-91001000D02*
X59750000Y-91001000D01*
X64698000Y-91041000D02*
X63270000Y-91041000D01*
X61190000Y-91041000D02*
X59762000Y-91041000D01*
X64685000Y-91081000D02*
X63270000Y-91081000D01*
X61190000Y-91081000D02*
X59775000Y-91081000D01*
X64672000Y-91121000D02*
X63270000Y-91121000D01*
X61190000Y-91121000D02*
X59788000Y-91121000D01*
X64658000Y-91161000D02*
X63270000Y-91161000D01*
X61190000Y-91161000D02*
X59802000Y-91161000D01*
X64644000Y-91201000D02*
X63270000Y-91201000D01*
X61190000Y-91201000D02*
X59816000Y-91201000D01*
X64628000Y-91241000D02*
X63270000Y-91241000D01*
X61190000Y-91241000D02*
X59832000Y-91241000D01*
X64612000Y-91281000D02*
X63270000Y-91281000D01*
X61190000Y-91281000D02*
X59848000Y-91281000D01*
X64595000Y-91321000D02*
X63270000Y-91321000D01*
X61190000Y-91321000D02*
X59865000Y-91321000D01*
X64578000Y-91361000D02*
X63270000Y-91361000D01*
X61190000Y-91361000D02*
X59882000Y-91361000D01*
X64559000Y-91401000D02*
X63270000Y-91401000D01*
X61190000Y-91401000D02*
X59901000Y-91401000D01*
X64540000Y-91441000D02*
X63270000Y-91441000D01*
X61190000Y-91441000D02*
X59920000Y-91441000D01*
X64520000Y-91481000D02*
X63270000Y-91481000D01*
X61190000Y-91481000D02*
X59940000Y-91481000D01*
X64498000Y-91521000D02*
X63270000Y-91521000D01*
X61190000Y-91521000D02*
X59962000Y-91521000D01*
X64477000Y-91561000D02*
X63270000Y-91561000D01*
X61190000Y-91561000D02*
X59983000Y-91561000D01*
X64454000Y-91601000D02*
X63270000Y-91601000D01*
X61190000Y-91601000D02*
X60006000Y-91601000D01*
X64430000Y-91641000D02*
X63270000Y-91641000D01*
X61190000Y-91641000D02*
X60030000Y-91641000D01*
X64405000Y-91681000D02*
X63270000Y-91681000D01*
X61190000Y-91681000D02*
X60055000Y-91681000D01*
X64379000Y-91721000D02*
X63270000Y-91721000D01*
X61190000Y-91721000D02*
X60081000Y-91721000D01*
X64352000Y-91761000D02*
X63270000Y-91761000D01*
X61190000Y-91761000D02*
X60108000Y-91761000D01*
X64325000Y-91801000D02*
X63270000Y-91801000D01*
X61190000Y-91801000D02*
X60135000Y-91801000D01*
X64295000Y-91841000D02*
X63270000Y-91841000D01*
X61190000Y-91841000D02*
X60165000Y-91841000D01*
X64265000Y-91881000D02*
X63270000Y-91881000D01*
X61190000Y-91881000D02*
X60195000Y-91881000D01*
X64234000Y-91921000D02*
X63270000Y-91921000D01*
X61190000Y-91921000D02*
X60226000Y-91921000D01*
X64201000Y-91961000D02*
X63270000Y-91961000D01*
X61190000Y-91961000D02*
X60259000Y-91961000D01*
X64167000Y-92001000D02*
X63270000Y-92001000D01*
X61190000Y-92001000D02*
X60293000Y-92001000D01*
X64131000Y-92041000D02*
X63270000Y-92041000D01*
X61190000Y-92041000D02*
X60329000Y-92041000D01*
X64094000Y-92081000D02*
X63270000Y-92081000D01*
X61190000Y-92081000D02*
X60366000Y-92081000D01*
X64056000Y-92121000D02*
X63270000Y-92121000D01*
X61190000Y-92121000D02*
X60404000Y-92121000D01*
X64015000Y-92161000D02*
X63270000Y-92161000D01*
X61190000Y-92161000D02*
X60445000Y-92161000D01*
X63973000Y-92201000D02*
X63270000Y-92201000D01*
X61190000Y-92201000D02*
X60487000Y-92201000D01*
X63929000Y-92241000D02*
X63270000Y-92241000D01*
X61190000Y-92241000D02*
X60531000Y-92241000D01*
X63883000Y-92281000D02*
X63270000Y-92281000D01*
X61190000Y-92281000D02*
X60577000Y-92281000D01*
X63835000Y-92321000D02*
X60625000Y-92321000D01*
X63784000Y-92361000D02*
X60676000Y-92361000D01*
X63730000Y-92401000D02*
X60730000Y-92401000D01*
X63673000Y-92441000D02*
X60787000Y-92441000D01*
X63613000Y-92481000D02*
X60847000Y-92481000D01*
X63549000Y-92521000D02*
X60911000Y-92521000D01*
X63481000Y-92561000D02*
X60979000Y-92561000D01*
X63408000Y-92601000D02*
X61052000Y-92601000D01*
X63328000Y-92641000D02*
X61132000Y-92641000D01*
X63241000Y-92681000D02*
X61219000Y-92681000D01*
X63145000Y-92721000D02*
X61315000Y-92721000D01*
X63035000Y-92761000D02*
X61425000Y-92761000D01*
X62907000Y-92801000D02*
X61553000Y-92801000D01*
X62748000Y-92841000D02*
X61712000Y-92841000D01*
X62514000Y-92881000D02*
X61946000Y-92881000D01*
X63705000Y-87475225D02*
X63705000Y-87975225D01*
X63955000Y-87725225D02*
X63455000Y-87725225D01*
X57230000Y-90280000D02*
G75*
G03*
X57230000Y-90280000I-2620000J0D01*
G01*
X53570000Y-90280000D02*
X52030000Y-90280000D01*
X57190000Y-90280000D02*
X55650000Y-90280000D01*
X53570000Y-90320000D02*
X52030000Y-90320000D01*
X57190000Y-90320000D02*
X55650000Y-90320000D01*
X57189000Y-90360000D02*
X55650000Y-90360000D01*
X53570000Y-90360000D02*
X52031000Y-90360000D01*
X57188000Y-90400000D02*
X55650000Y-90400000D01*
X53570000Y-90400000D02*
X52032000Y-90400000D01*
X57186000Y-90440000D02*
X55650000Y-90440000D01*
X53570000Y-90440000D02*
X52034000Y-90440000D01*
X57183000Y-90480000D02*
X55650000Y-90480000D01*
X53570000Y-90480000D02*
X52037000Y-90480000D01*
X57179000Y-90520000D02*
X55650000Y-90520000D01*
X53570000Y-90520000D02*
X52041000Y-90520000D01*
X57175000Y-90560000D02*
X55650000Y-90560000D01*
X53570000Y-90560000D02*
X52045000Y-90560000D01*
X57171000Y-90600000D02*
X55650000Y-90600000D01*
X53570000Y-90600000D02*
X52049000Y-90600000D01*
X57166000Y-90640000D02*
X55650000Y-90640000D01*
X53570000Y-90640000D02*
X52054000Y-90640000D01*
X57160000Y-90680000D02*
X55650000Y-90680000D01*
X53570000Y-90680000D02*
X52060000Y-90680000D01*
X57153000Y-90720000D02*
X55650000Y-90720000D01*
X53570000Y-90720000D02*
X52067000Y-90720000D01*
X57146000Y-90760000D02*
X55650000Y-90760000D01*
X53570000Y-90760000D02*
X52074000Y-90760000D01*
X57138000Y-90800000D02*
X55650000Y-90800000D01*
X53570000Y-90800000D02*
X52082000Y-90800000D01*
X57130000Y-90840000D02*
X55650000Y-90840000D01*
X53570000Y-90840000D02*
X52090000Y-90840000D01*
X57121000Y-90880000D02*
X55650000Y-90880000D01*
X53570000Y-90880000D02*
X52099000Y-90880000D01*
X57111000Y-90920000D02*
X55650000Y-90920000D01*
X53570000Y-90920000D02*
X52109000Y-90920000D01*
X57101000Y-90960000D02*
X55650000Y-90960000D01*
X53570000Y-90960000D02*
X52119000Y-90960000D01*
X57090000Y-91001000D02*
X55650000Y-91001000D01*
X53570000Y-91001000D02*
X52130000Y-91001000D01*
X57078000Y-91041000D02*
X55650000Y-91041000D01*
X53570000Y-91041000D02*
X52142000Y-91041000D01*
X57065000Y-91081000D02*
X55650000Y-91081000D01*
X53570000Y-91081000D02*
X52155000Y-91081000D01*
X57052000Y-91121000D02*
X55650000Y-91121000D01*
X53570000Y-91121000D02*
X52168000Y-91121000D01*
X57038000Y-91161000D02*
X55650000Y-91161000D01*
X53570000Y-91161000D02*
X52182000Y-91161000D01*
X57024000Y-91201000D02*
X55650000Y-91201000D01*
X53570000Y-91201000D02*
X52196000Y-91201000D01*
X57008000Y-91241000D02*
X55650000Y-91241000D01*
X53570000Y-91241000D02*
X52212000Y-91241000D01*
X56992000Y-91281000D02*
X55650000Y-91281000D01*
X53570000Y-91281000D02*
X52228000Y-91281000D01*
X56975000Y-91321000D02*
X55650000Y-91321000D01*
X53570000Y-91321000D02*
X52245000Y-91321000D01*
X56958000Y-91361000D02*
X55650000Y-91361000D01*
X53570000Y-91361000D02*
X52262000Y-91361000D01*
X56939000Y-91401000D02*
X55650000Y-91401000D01*
X53570000Y-91401000D02*
X52281000Y-91401000D01*
X56920000Y-91441000D02*
X55650000Y-91441000D01*
X53570000Y-91441000D02*
X52300000Y-91441000D01*
X56900000Y-91481000D02*
X55650000Y-91481000D01*
X53570000Y-91481000D02*
X52320000Y-91481000D01*
X56878000Y-91521000D02*
X55650000Y-91521000D01*
X53570000Y-91521000D02*
X52342000Y-91521000D01*
X56857000Y-91561000D02*
X55650000Y-91561000D01*
X53570000Y-91561000D02*
X52363000Y-91561000D01*
X56834000Y-91601000D02*
X55650000Y-91601000D01*
X53570000Y-91601000D02*
X52386000Y-91601000D01*
X56810000Y-91641000D02*
X55650000Y-91641000D01*
X53570000Y-91641000D02*
X52410000Y-91641000D01*
X56785000Y-91681000D02*
X55650000Y-91681000D01*
X53570000Y-91681000D02*
X52435000Y-91681000D01*
X56759000Y-91721000D02*
X55650000Y-91721000D01*
X53570000Y-91721000D02*
X52461000Y-91721000D01*
X56732000Y-91761000D02*
X55650000Y-91761000D01*
X53570000Y-91761000D02*
X52488000Y-91761000D01*
X56705000Y-91801000D02*
X55650000Y-91801000D01*
X53570000Y-91801000D02*
X52515000Y-91801000D01*
X56675000Y-91841000D02*
X55650000Y-91841000D01*
X53570000Y-91841000D02*
X52545000Y-91841000D01*
X56645000Y-91881000D02*
X55650000Y-91881000D01*
X53570000Y-91881000D02*
X52575000Y-91881000D01*
X56614000Y-91921000D02*
X55650000Y-91921000D01*
X53570000Y-91921000D02*
X52606000Y-91921000D01*
X56581000Y-91961000D02*
X55650000Y-91961000D01*
X53570000Y-91961000D02*
X52639000Y-91961000D01*
X56547000Y-92001000D02*
X55650000Y-92001000D01*
X53570000Y-92001000D02*
X52673000Y-92001000D01*
X56511000Y-92041000D02*
X55650000Y-92041000D01*
X53570000Y-92041000D02*
X52709000Y-92041000D01*
X56474000Y-92081000D02*
X55650000Y-92081000D01*
X53570000Y-92081000D02*
X52746000Y-92081000D01*
X56436000Y-92121000D02*
X55650000Y-92121000D01*
X53570000Y-92121000D02*
X52784000Y-92121000D01*
X56395000Y-92161000D02*
X55650000Y-92161000D01*
X53570000Y-92161000D02*
X52825000Y-92161000D01*
X56353000Y-92201000D02*
X55650000Y-92201000D01*
X53570000Y-92201000D02*
X52867000Y-92201000D01*
X56309000Y-92241000D02*
X55650000Y-92241000D01*
X53570000Y-92241000D02*
X52911000Y-92241000D01*
X56263000Y-92281000D02*
X55650000Y-92281000D01*
X53570000Y-92281000D02*
X52957000Y-92281000D01*
X56215000Y-92321000D02*
X53005000Y-92321000D01*
X56164000Y-92361000D02*
X53056000Y-92361000D01*
X56110000Y-92401000D02*
X53110000Y-92401000D01*
X56053000Y-92441000D02*
X53167000Y-92441000D01*
X55993000Y-92481000D02*
X53227000Y-92481000D01*
X55929000Y-92521000D02*
X53291000Y-92521000D01*
X55861000Y-92561000D02*
X53359000Y-92561000D01*
X55788000Y-92601000D02*
X53432000Y-92601000D01*
X55708000Y-92641000D02*
X53512000Y-92641000D01*
X55621000Y-92681000D02*
X53599000Y-92681000D01*
X55525000Y-92721000D02*
X53695000Y-92721000D01*
X55415000Y-92761000D02*
X53805000Y-92761000D01*
X55287000Y-92801000D02*
X53933000Y-92801000D01*
X55128000Y-92841000D02*
X54092000Y-92841000D01*
X54894000Y-92881000D02*
X54326000Y-92881000D01*
X56085000Y-87475225D02*
X56085000Y-87975225D01*
X56335000Y-87725225D02*
X55835000Y-87725225D01*
X115400000Y-32560000D02*
X112600000Y-32560000D01*
X112600000Y-32560000D02*
X112600000Y-48140000D01*
X112600000Y-48140000D02*
X115400000Y-48140000D01*
X115400000Y-48140000D02*
X115400000Y-32560000D01*
X115400000Y-35270000D02*
X112600000Y-35270000D01*
X57600000Y-47440000D02*
X60400000Y-47440000D01*
X60400000Y-47440000D02*
X60400000Y-31860000D01*
X60400000Y-31860000D02*
X57600000Y-31860000D01*
X57600000Y-31860000D02*
X57600000Y-47440000D01*
X57600000Y-44730000D02*
X60400000Y-44730000D01*
X135040000Y-48210000D02*
X140240000Y-48210000D01*
X135040000Y-48150000D02*
X135040000Y-48210000D01*
X140240000Y-45550000D02*
X140240000Y-48210000D01*
X135040000Y-48150000D02*
X137640000Y-48150000D01*
X137640000Y-48150000D02*
X137640000Y-45550000D01*
X137640000Y-45550000D02*
X140240000Y-45550000D01*
X135040000Y-46880000D02*
X135040000Y-45550000D01*
X135040000Y-45550000D02*
X136370000Y-45550000D01*
X42410000Y-95330000D02*
X42410000Y-92670000D01*
X37270000Y-95330000D02*
X42410000Y-95330000D01*
X37270000Y-92670000D02*
X42410000Y-92670000D01*
X37270000Y-95330000D02*
X37270000Y-92670000D01*
X36000000Y-95330000D02*
X34670000Y-95330000D01*
X34670000Y-95330000D02*
X34670000Y-94000000D01*
X108870000Y-35370000D02*
X104630000Y-35370000D01*
X108870000Y-32630000D02*
X104630000Y-32630000D01*
X108870000Y-35370000D02*
X108870000Y-34665000D01*
X108870000Y-33335000D02*
X108870000Y-32630000D01*
X104630000Y-35370000D02*
X104630000Y-34665000D01*
X104630000Y-33335000D02*
X104630000Y-32630000D01*
X130870000Y-35370000D02*
X126630000Y-35370000D01*
X130870000Y-32630000D02*
X126630000Y-32630000D01*
X130870000Y-35370000D02*
X130870000Y-34665000D01*
X130870000Y-33335000D02*
X130870000Y-32630000D01*
X126630000Y-35370000D02*
X126630000Y-34665000D01*
X126630000Y-33335000D02*
X126630000Y-32630000D01*
X69870000Y-34370000D02*
X65630000Y-34370000D01*
X69870000Y-31630000D02*
X65630000Y-31630000D01*
X69870000Y-34370000D02*
X69870000Y-33665000D01*
X69870000Y-32335000D02*
X69870000Y-31630000D01*
X65630000Y-34370000D02*
X65630000Y-33665000D01*
X65630000Y-32335000D02*
X65630000Y-31630000D01*
X104370000Y-58130000D02*
X104370000Y-62370000D01*
X101630000Y-58130000D02*
X101630000Y-62370000D01*
X104370000Y-58130000D02*
X103665000Y-58130000D01*
X102335000Y-58130000D02*
X101630000Y-58130000D01*
X104370000Y-62370000D02*
X103665000Y-62370000D01*
X102335000Y-62370000D02*
X101630000Y-62370000D01*
X53870000Y-117370000D02*
X49630000Y-117370000D01*
X53870000Y-114630000D02*
X49630000Y-114630000D01*
X53870000Y-117370000D02*
X53870000Y-116665000D01*
X53870000Y-115335000D02*
X53870000Y-114630000D01*
X49630000Y-117370000D02*
X49630000Y-116665000D01*
X49630000Y-115335000D02*
X49630000Y-114630000D01*
X49130000Y-96630000D02*
X53370000Y-96630000D01*
X49130000Y-99370000D02*
X53370000Y-99370000D01*
X49130000Y-96630000D02*
X49130000Y-97335000D01*
X49130000Y-98665000D02*
X49130000Y-99370000D01*
X53370000Y-96630000D02*
X53370000Y-97335000D01*
X53370000Y-98665000D02*
X53370000Y-99370000D01*
X140680000Y-63670000D02*
X135620000Y-63670000D01*
X140680000Y-104430000D02*
X140680000Y-63670000D01*
X128560000Y-104430000D02*
X140680000Y-104430000D01*
X128560000Y-63670000D02*
X128560000Y-104430000D01*
X133620000Y-63670000D02*
X128560000Y-63670000D01*
X135620000Y-63670000D02*
G75*
G02*
X133620000Y-63670000I-1000000J0D01*
G01*
X61810000Y-80800000D02*
X61810000Y-81900000D01*
X63620000Y-80800000D02*
X61810000Y-80800000D01*
X63620000Y-79300000D02*
X63620000Y-80800000D01*
X55030000Y-80800000D02*
X55030000Y-85925000D01*
X53220000Y-80800000D02*
X55030000Y-80800000D01*
X53220000Y-79300000D02*
X53220000Y-80800000D01*
X41100000Y-77250000D02*
X41100000Y-76200000D01*
X40050000Y-76200000D02*
X41100000Y-76200000D01*
X35000000Y-85600000D02*
X26200000Y-85600000D01*
X26200000Y-85600000D02*
X26200000Y-76400000D01*
X40900000Y-82900000D02*
X40900000Y-85600000D01*
X40900000Y-85600000D02*
X39000000Y-85600000D01*
X26200000Y-76400000D02*
X40900000Y-76400000D01*
X40900000Y-76400000D02*
X40900000Y-79000000D01*
X41640000Y-72470000D02*
X41640000Y-69530000D01*
X41640000Y-69530000D02*
X36200000Y-69530000D01*
X36200000Y-69530000D02*
X36200000Y-72470000D01*
X36200000Y-72470000D02*
X41640000Y-72470000D01*
X42660000Y-71000000D02*
X41640000Y-71000000D01*
X35180000Y-71000000D02*
X36200000Y-71000000D01*
X40740000Y-72470000D02*
X40740000Y-69530000D01*
X40620000Y-72470000D02*
X40620000Y-69530000D01*
X40860000Y-72470000D02*
X40860000Y-69530000D01*
X156600000Y-78440000D02*
X159400000Y-78440000D01*
X159400000Y-78440000D02*
X159400000Y-67940000D01*
X159400000Y-67940000D02*
X156600000Y-67940000D01*
X156600000Y-67940000D02*
X156600000Y-78440000D01*
X156600000Y-75730000D02*
X159400000Y-75730000D01*
X153560000Y-88000000D02*
X153560000Y-86050000D01*
X153560000Y-88000000D02*
X153560000Y-89950000D01*
X148440000Y-88000000D02*
X148440000Y-86050000D01*
X148440000Y-88000000D02*
X148440000Y-91450000D01*
X67000000Y-45435000D02*
X68950000Y-45435000D01*
X67000000Y-45435000D02*
X65050000Y-45435000D01*
X67000000Y-36565000D02*
X68950000Y-36565000D01*
X67000000Y-36565000D02*
X63550000Y-36565000D01*
X106000000Y-38565000D02*
X102550000Y-38565000D01*
X106000000Y-38565000D02*
X107950000Y-38565000D01*
X106000000Y-47435000D02*
X104050000Y-47435000D01*
X106000000Y-47435000D02*
X107950000Y-47435000D01*
X102830000Y-120510000D02*
X102830000Y-108360000D01*
X82680000Y-121260000D02*
X102080000Y-121260000D01*
X81930000Y-109110000D02*
X81930000Y-120510000D01*
X102830000Y-108360000D02*
X82680000Y-108360000D01*
X102080000Y-121260000D02*
G75*
G03*
X102830000Y-120510000I0J750000D01*
G01*
X81930000Y-120510000D02*
G75*
G03*
X82680000Y-121260000I750000J0D01*
G01*
X82680000Y-108360000D02*
G75*
G03*
X81930000Y-109110000I0J-750000D01*
G01*
X124810000Y-37670000D02*
X123560000Y-37670000D01*
X123560000Y-37670000D02*
X123560000Y-47950000D01*
X123560000Y-47950000D02*
X128060000Y-47950000D01*
X128060000Y-47950000D02*
X128060000Y-37670000D01*
X128060000Y-37670000D02*
X126810000Y-37670000D01*
X126810000Y-37670000D02*
G75*
G02*
X124810000Y-37670000I-1000000J0D01*
G01*
X51000000Y-111435000D02*
X52950000Y-111435000D01*
X51000000Y-111435000D02*
X49050000Y-111435000D01*
X51000000Y-102565000D02*
X52950000Y-102565000D01*
X51000000Y-102565000D02*
X47550000Y-102565000D01*
X115670000Y-117190000D02*
X115670000Y-118440000D01*
X115670000Y-118440000D02*
X141190000Y-118440000D01*
X141190000Y-118440000D02*
X141190000Y-113940000D01*
X141190000Y-113940000D02*
X115670000Y-113940000D01*
X115670000Y-113940000D02*
X115670000Y-115190000D01*
X115610000Y-121440000D02*
X141250000Y-121440000D01*
X141250000Y-121440000D02*
X141250000Y-110940000D01*
X141250000Y-110940000D02*
X115610000Y-110940000D01*
X115610000Y-110940000D02*
X115610000Y-121440000D01*
X115670000Y-115190000D02*
G75*
G02*
X115670000Y-117190000I0J-1000000D01*
G01*
X156000000Y-96500000D02*
X151500000Y-96500000D01*
X157250000Y-100500000D02*
X157250000Y-99000000D01*
X151500000Y-103000000D02*
X156000000Y-103000000D01*
X150250000Y-99000000D02*
X150250000Y-100500000D01*
X135040000Y-43410000D02*
X140240000Y-43410000D01*
X135040000Y-38270000D02*
X135040000Y-43410000D01*
X140240000Y-35670000D02*
X140240000Y-43410000D01*
X135040000Y-38270000D02*
X137640000Y-38270000D01*
X137640000Y-38270000D02*
X137640000Y-35670000D01*
X137640000Y-35670000D02*
X140240000Y-35670000D01*
X135040000Y-37000000D02*
X135040000Y-35670000D01*
X135040000Y-35670000D02*
X136370000Y-35670000D01*
X44410000Y-32180000D02*
X45270000Y-32180000D01*
X55110000Y-43820000D02*
X55110000Y-34000000D01*
X53880000Y-43820000D02*
X55110000Y-43820000D01*
X47910000Y-43820000D02*
X51580000Y-43820000D01*
X42930000Y-43820000D02*
X45610000Y-43820000D01*
X42930000Y-43100000D02*
X42930000Y-43820000D01*
X42930000Y-39400000D02*
X42930000Y-41700000D01*
X42930000Y-33550000D02*
X42930000Y-38000000D01*
X97140000Y-35194000D02*
X97140000Y-32534000D01*
X79300000Y-35194000D02*
X97140000Y-35194000D01*
X79300000Y-32534000D02*
X97140000Y-32534000D01*
X79300000Y-35194000D02*
X79300000Y-32534000D01*
X78030000Y-35194000D02*
X76700000Y-35194000D01*
X76700000Y-35194000D02*
X76700000Y-33864000D01*
X39340000Y-112910000D02*
X43600000Y-112910000D01*
X43600000Y-112910000D02*
X43600000Y-100590000D01*
X43600000Y-100590000D02*
X39340000Y-100590000D01*
X35240000Y-112910000D02*
X26880000Y-112910000D01*
X26880000Y-112910000D02*
X26880000Y-100590000D01*
X26880000Y-100590000D02*
X35240000Y-100590000D01*
X43820000Y-108000000D02*
X44320000Y-108500000D01*
X44320000Y-108500000D02*
X44320000Y-107500000D01*
X44320000Y-107500000D02*
X43820000Y-108000000D01*
X149130000Y-73910000D02*
X153370000Y-73910000D01*
X149130000Y-76650000D02*
X153370000Y-76650000D01*
X149130000Y-73910000D02*
X149130000Y-74615000D01*
X149130000Y-75945000D02*
X149130000Y-76650000D01*
X153370000Y-73910000D02*
X153370000Y-74615000D01*
X153370000Y-75945000D02*
X153370000Y-76650000D01*
X156630000Y-85870000D02*
X156630000Y-81630000D01*
X159370000Y-85870000D02*
X159370000Y-81630000D01*
X156630000Y-85870000D02*
X157335000Y-85870000D01*
X158665000Y-85870000D02*
X159370000Y-85870000D01*
X156630000Y-81630000D02*
X157335000Y-81630000D01*
X158665000Y-81630000D02*
X159370000Y-81630000D01*
X149130000Y-68630000D02*
X153370000Y-68630000D01*
X149130000Y-71370000D02*
X153370000Y-71370000D01*
X149130000Y-68630000D02*
X149130000Y-69335000D01*
X149130000Y-70665000D02*
X149130000Y-71370000D01*
X153370000Y-68630000D02*
X153370000Y-69335000D01*
X153370000Y-70665000D02*
X153370000Y-71370000D01*
X149130000Y-63630000D02*
X153370000Y-63630000D01*
X149130000Y-66370000D02*
X153370000Y-66370000D01*
X149130000Y-63630000D02*
X149130000Y-64335000D01*
X149130000Y-65665000D02*
X149130000Y-66370000D01*
X153370000Y-63630000D02*
X153370000Y-64335000D01*
X153370000Y-65665000D02*
X153370000Y-66370000D01*
X110400000Y-73800000D02*
X108400000Y-73800000D01*
X108400000Y-94400000D02*
X121600000Y-94400000D01*
X110400000Y-73600000D02*
X121600000Y-73600000D01*
X110400000Y-73600000D02*
X110400000Y-73800000D01*
X76760000Y-36782000D02*
X76760000Y-39582000D01*
X97250000Y-36782000D02*
X74050000Y-36782000D01*
X97250000Y-39582000D02*
X97250000Y-36782000D01*
X74050000Y-39582000D02*
X97250000Y-39582000D01*
X74050000Y-36782000D02*
X74050000Y-39582000D01*
X76760000Y-45146000D02*
X76760000Y-47946000D01*
X97250000Y-45146000D02*
X74050000Y-45146000D01*
X97250000Y-47946000D02*
X97250000Y-45146000D01*
X74050000Y-47946000D02*
X97250000Y-47946000D01*
X74050000Y-45146000D02*
X74050000Y-47946000D01*
X76700000Y-43812000D02*
X76700000Y-42482000D01*
X78030000Y-43812000D02*
X76700000Y-43812000D01*
X79300000Y-43812000D02*
X79300000Y-41152000D01*
X79300000Y-41152000D02*
X97140000Y-41152000D01*
X79300000Y-43812000D02*
X97140000Y-43812000D01*
X97140000Y-43812000D02*
X97140000Y-41152000D01*
X81080000Y-75290000D02*
X81236000Y-75290000D01*
X78764000Y-75290000D02*
X78920000Y-75290000D01*
X81079837Y-72688870D02*
G75*
G02*
X81080000Y-74770961I-1079837J-1041130D01*
G01*
X78920163Y-72688870D02*
G75*
G03*
X78920000Y-74770961I1079837J-1041130D01*
G01*
X81078608Y-72057665D02*
G75*
G02*
X81235516Y-75290000I-1078608J-1672335D01*
G01*
X78921392Y-72057665D02*
G75*
G03*
X78764484Y-75290000I1078608J-1672335D01*
G01*
X75080000Y-75290000D02*
X75236000Y-75290000D01*
X72764000Y-75290000D02*
X72920000Y-75290000D01*
X75079837Y-72688870D02*
G75*
G02*
X75080000Y-74770961I-1079837J-1041130D01*
G01*
X72920163Y-72688870D02*
G75*
G03*
X72920000Y-74770961I1079837J-1041130D01*
G01*
X75078608Y-72057665D02*
G75*
G02*
X75235516Y-75290000I-1078608J-1672335D01*
G01*
X72921392Y-72057665D02*
G75*
G03*
X72764484Y-75290000I1078608J-1672335D01*
G01*
X86890000Y-57465000D02*
X85600000Y-57465000D01*
X86890000Y-56890000D02*
X86890000Y-57465000D01*
X87465000Y-56890000D02*
X86890000Y-56890000D01*
X97110000Y-56890000D02*
X97110000Y-57465000D01*
X96535000Y-56890000D02*
X97110000Y-56890000D01*
X86890000Y-67110000D02*
X86890000Y-66535000D01*
X87465000Y-67110000D02*
X86890000Y-67110000D01*
X97110000Y-67110000D02*
X97110000Y-66535000D01*
X96535000Y-67110000D02*
X97110000Y-67110000D01*
X120870000Y-71370000D02*
X116630000Y-71370000D01*
X120870000Y-68630000D02*
X116630000Y-68630000D01*
X120870000Y-71370000D02*
X120870000Y-70665000D01*
X120870000Y-69335000D02*
X120870000Y-68630000D01*
X116630000Y-71370000D02*
X116630000Y-70665000D01*
X116630000Y-69335000D02*
X116630000Y-68630000D01*
X142870000Y-60370000D02*
X138630000Y-60370000D01*
X142870000Y-57630000D02*
X138630000Y-57630000D01*
X142870000Y-60370000D02*
X142870000Y-59665000D01*
X142870000Y-58335000D02*
X142870000Y-57630000D01*
X138630000Y-60370000D02*
X138630000Y-59665000D01*
X138630000Y-58335000D02*
X138630000Y-57630000D01*
D12*
X81225000Y-98125000D02*
X81225000Y-99800000D01*
X80875000Y-83875000D02*
X80875000Y-84525000D01*
X101125000Y-83875000D02*
X101125000Y-84525000D01*
X101125000Y-98125000D02*
X101125000Y-97475000D01*
X80875000Y-98125000D02*
X80875000Y-97475000D01*
X101125000Y-98125000D02*
X100675000Y-98125000D01*
X101125000Y-83875000D02*
X100675000Y-83875000D01*
X80875000Y-83875000D02*
X81325000Y-83875000D01*
X80875000Y-98125000D02*
X81225000Y-98125000D01*
X53809523Y-61952380D02*
X53809523Y-62761904D01*
X53857142Y-62857142D01*
X53904761Y-62904761D01*
X54000000Y-62952380D01*
X54190476Y-62952380D01*
X54285714Y-62904761D01*
X54333333Y-62857142D01*
X54380952Y-62761904D01*
X54380952Y-61952380D01*
X55380952Y-62952380D02*
X54809523Y-62952380D01*
X55095238Y-62952380D02*
X55095238Y-61952380D01*
X55000000Y-62095238D01*
X54904761Y-62190476D01*
X54809523Y-62238095D01*
X56000000Y-61952380D02*
X56095238Y-61952380D01*
X56190476Y-62000000D01*
X56238095Y-62047619D01*
X56285714Y-62142857D01*
X56333333Y-62333333D01*
X56333333Y-62571428D01*
X56285714Y-62761904D01*
X56238095Y-62857142D01*
X56190476Y-62904761D01*
X56095238Y-62952380D01*
X56000000Y-62952380D01*
X55904761Y-62904761D01*
X55857142Y-62857142D01*
X55809523Y-62761904D01*
X55761904Y-62571428D01*
X55761904Y-62333333D01*
X55809523Y-62142857D01*
X55857142Y-62047619D01*
X55904761Y-62000000D01*
X56000000Y-61952380D01*
X56952380Y-61952380D02*
X57047619Y-61952380D01*
X57142857Y-62000000D01*
X57190476Y-62047619D01*
X57238095Y-62142857D01*
X57285714Y-62333333D01*
X57285714Y-62571428D01*
X57238095Y-62761904D01*
X57190476Y-62857142D01*
X57142857Y-62904761D01*
X57047619Y-62952380D01*
X56952380Y-62952380D01*
X56857142Y-62904761D01*
X56809523Y-62857142D01*
X56761904Y-62761904D01*
X56714285Y-62571428D01*
X56714285Y-62333333D01*
X56761904Y-62142857D01*
X56809523Y-62047619D01*
X56857142Y-62000000D01*
X56952380Y-61952380D01*
X58238095Y-62952380D02*
X57666666Y-62952380D01*
X57952380Y-62952380D02*
X57952380Y-61952380D01*
X57857142Y-62095238D01*
X57761904Y-62190476D01*
X57666666Y-62238095D01*
X65404761Y-50607142D02*
X65357142Y-50654761D01*
X65214285Y-50702380D01*
X65119047Y-50702380D01*
X64976190Y-50654761D01*
X64880952Y-50559523D01*
X64833333Y-50464285D01*
X64785714Y-50273809D01*
X64785714Y-50130952D01*
X64833333Y-49940476D01*
X64880952Y-49845238D01*
X64976190Y-49750000D01*
X65119047Y-49702380D01*
X65214285Y-49702380D01*
X65357142Y-49750000D01*
X65404761Y-49797619D01*
X66357142Y-50702380D02*
X65785714Y-50702380D01*
X66071428Y-50702380D02*
X66071428Y-49702380D01*
X65976190Y-49845238D01*
X65880952Y-49940476D01*
X65785714Y-49988095D01*
X66976190Y-49702380D02*
X67071428Y-49702380D01*
X67166666Y-49750000D01*
X67214285Y-49797619D01*
X67261904Y-49892857D01*
X67309523Y-50083333D01*
X67309523Y-50321428D01*
X67261904Y-50511904D01*
X67214285Y-50607142D01*
X67166666Y-50654761D01*
X67071428Y-50702380D01*
X66976190Y-50702380D01*
X66880952Y-50654761D01*
X66833333Y-50607142D01*
X66785714Y-50511904D01*
X66738095Y-50321428D01*
X66738095Y-50083333D01*
X66785714Y-49892857D01*
X66833333Y-49797619D01*
X66880952Y-49750000D01*
X66976190Y-49702380D01*
X67928571Y-49702380D02*
X68023809Y-49702380D01*
X68119047Y-49750000D01*
X68166666Y-49797619D01*
X68214285Y-49892857D01*
X68261904Y-50083333D01*
X68261904Y-50321428D01*
X68214285Y-50511904D01*
X68166666Y-50607142D01*
X68119047Y-50654761D01*
X68023809Y-50702380D01*
X67928571Y-50702380D01*
X67833333Y-50654761D01*
X67785714Y-50607142D01*
X67738095Y-50511904D01*
X67690476Y-50321428D01*
X67690476Y-50083333D01*
X67738095Y-49892857D01*
X67785714Y-49797619D01*
X67833333Y-49750000D01*
X67928571Y-49702380D01*
X68595238Y-49702380D02*
X69214285Y-49702380D01*
X68880952Y-50083333D01*
X69023809Y-50083333D01*
X69119047Y-50130952D01*
X69166666Y-50178571D01*
X69214285Y-50273809D01*
X69214285Y-50511904D01*
X69166666Y-50607142D01*
X69119047Y-50654761D01*
X69023809Y-50702380D01*
X68738095Y-50702380D01*
X68642857Y-50654761D01*
X68595238Y-50607142D01*
X65404761Y-58607142D02*
X65357142Y-58654761D01*
X65214285Y-58702380D01*
X65119047Y-58702380D01*
X64976190Y-58654761D01*
X64880952Y-58559523D01*
X64833333Y-58464285D01*
X64785714Y-58273809D01*
X64785714Y-58130952D01*
X64833333Y-57940476D01*
X64880952Y-57845238D01*
X64976190Y-57750000D01*
X65119047Y-57702380D01*
X65214285Y-57702380D01*
X65357142Y-57750000D01*
X65404761Y-57797619D01*
X66357142Y-58702380D02*
X65785714Y-58702380D01*
X66071428Y-58702380D02*
X66071428Y-57702380D01*
X65976190Y-57845238D01*
X65880952Y-57940476D01*
X65785714Y-57988095D01*
X66976190Y-57702380D02*
X67071428Y-57702380D01*
X67166666Y-57750000D01*
X67214285Y-57797619D01*
X67261904Y-57892857D01*
X67309523Y-58083333D01*
X67309523Y-58321428D01*
X67261904Y-58511904D01*
X67214285Y-58607142D01*
X67166666Y-58654761D01*
X67071428Y-58702380D01*
X66976190Y-58702380D01*
X66880952Y-58654761D01*
X66833333Y-58607142D01*
X66785714Y-58511904D01*
X66738095Y-58321428D01*
X66738095Y-58083333D01*
X66785714Y-57892857D01*
X66833333Y-57797619D01*
X66880952Y-57750000D01*
X66976190Y-57702380D01*
X67928571Y-57702380D02*
X68023809Y-57702380D01*
X68119047Y-57750000D01*
X68166666Y-57797619D01*
X68214285Y-57892857D01*
X68261904Y-58083333D01*
X68261904Y-58321428D01*
X68214285Y-58511904D01*
X68166666Y-58607142D01*
X68119047Y-58654761D01*
X68023809Y-58702380D01*
X67928571Y-58702380D01*
X67833333Y-58654761D01*
X67785714Y-58607142D01*
X67738095Y-58511904D01*
X67690476Y-58321428D01*
X67690476Y-58083333D01*
X67738095Y-57892857D01*
X67785714Y-57797619D01*
X67833333Y-57750000D01*
X67928571Y-57702380D01*
X68642857Y-57797619D02*
X68690476Y-57750000D01*
X68785714Y-57702380D01*
X69023809Y-57702380D01*
X69119047Y-57750000D01*
X69166666Y-57797619D01*
X69214285Y-57892857D01*
X69214285Y-57988095D01*
X69166666Y-58130952D01*
X68595238Y-58702380D01*
X69214285Y-58702380D01*
X112857142Y-114845238D02*
X112904761Y-114892857D01*
X112952380Y-115035714D01*
X112952380Y-115130952D01*
X112904761Y-115273809D01*
X112809523Y-115369047D01*
X112714285Y-115416666D01*
X112523809Y-115464285D01*
X112380952Y-115464285D01*
X112190476Y-115416666D01*
X112095238Y-115369047D01*
X112000000Y-115273809D01*
X111952380Y-115130952D01*
X111952380Y-115035714D01*
X112000000Y-114892857D01*
X112047619Y-114845238D01*
X112047619Y-114464285D02*
X112000000Y-114416666D01*
X111952380Y-114321428D01*
X111952380Y-114083333D01*
X112000000Y-113988095D01*
X112047619Y-113940476D01*
X112142857Y-113892857D01*
X112238095Y-113892857D01*
X112380952Y-113940476D01*
X112952380Y-114511904D01*
X112952380Y-113892857D01*
X112952380Y-112940476D02*
X112952380Y-113511904D01*
X112952380Y-113226190D02*
X111952380Y-113226190D01*
X112095238Y-113321428D01*
X112190476Y-113416666D01*
X112238095Y-113511904D01*
X111952380Y-112321428D02*
X111952380Y-112226190D01*
X112000000Y-112130952D01*
X112047619Y-112083333D01*
X112142857Y-112035714D01*
X112333333Y-111988095D01*
X112571428Y-111988095D01*
X112761904Y-112035714D01*
X112857142Y-112083333D01*
X112904761Y-112130952D01*
X112952380Y-112226190D01*
X112952380Y-112321428D01*
X112904761Y-112416666D01*
X112857142Y-112464285D01*
X112761904Y-112511904D01*
X112571428Y-112559523D01*
X112333333Y-112559523D01*
X112142857Y-112511904D01*
X112047619Y-112464285D01*
X112000000Y-112416666D01*
X111952380Y-112321428D01*
X112952380Y-111035714D02*
X112952380Y-111607142D01*
X112952380Y-111321428D02*
X111952380Y-111321428D01*
X112095238Y-111416666D01*
X112190476Y-111511904D01*
X112238095Y-111607142D01*
X84857142Y-77345238D02*
X84904761Y-77392857D01*
X84952380Y-77535714D01*
X84952380Y-77630952D01*
X84904761Y-77773809D01*
X84809523Y-77869047D01*
X84714285Y-77916666D01*
X84523809Y-77964285D01*
X84380952Y-77964285D01*
X84190476Y-77916666D01*
X84095238Y-77869047D01*
X84000000Y-77773809D01*
X83952380Y-77630952D01*
X83952380Y-77535714D01*
X84000000Y-77392857D01*
X84047619Y-77345238D01*
X84047619Y-76964285D02*
X84000000Y-76916666D01*
X83952380Y-76821428D01*
X83952380Y-76583333D01*
X84000000Y-76488095D01*
X84047619Y-76440476D01*
X84142857Y-76392857D01*
X84238095Y-76392857D01*
X84380952Y-76440476D01*
X84952380Y-77011904D01*
X84952380Y-76392857D01*
X84952380Y-75440476D02*
X84952380Y-76011904D01*
X84952380Y-75726190D02*
X83952380Y-75726190D01*
X84095238Y-75821428D01*
X84190476Y-75916666D01*
X84238095Y-76011904D01*
X83952380Y-74821428D02*
X83952380Y-74726190D01*
X84000000Y-74630952D01*
X84047619Y-74583333D01*
X84142857Y-74535714D01*
X84333333Y-74488095D01*
X84571428Y-74488095D01*
X84761904Y-74535714D01*
X84857142Y-74583333D01*
X84904761Y-74630952D01*
X84952380Y-74726190D01*
X84952380Y-74821428D01*
X84904761Y-74916666D01*
X84857142Y-74964285D01*
X84761904Y-75011904D01*
X84571428Y-75059523D01*
X84333333Y-75059523D01*
X84142857Y-75011904D01*
X84047619Y-74964285D01*
X84000000Y-74916666D01*
X83952380Y-74821428D01*
X83952380Y-73869047D02*
X83952380Y-73773809D01*
X84000000Y-73678571D01*
X84047619Y-73630952D01*
X84142857Y-73583333D01*
X84333333Y-73535714D01*
X84571428Y-73535714D01*
X84761904Y-73583333D01*
X84857142Y-73630952D01*
X84904761Y-73678571D01*
X84952380Y-73773809D01*
X84952380Y-73869047D01*
X84904761Y-73964285D01*
X84857142Y-74011904D01*
X84761904Y-74059523D01*
X84571428Y-74107142D01*
X84333333Y-74107142D01*
X84142857Y-74059523D01*
X84047619Y-74011904D01*
X84000000Y-73964285D01*
X83952380Y-73869047D01*
X62452380Y-114595238D02*
X61976190Y-114928571D01*
X62452380Y-115166666D02*
X61452380Y-115166666D01*
X61452380Y-114785714D01*
X61500000Y-114690476D01*
X61547619Y-114642857D01*
X61642857Y-114595238D01*
X61785714Y-114595238D01*
X61880952Y-114642857D01*
X61928571Y-114690476D01*
X61976190Y-114785714D01*
X61976190Y-115166666D01*
X61547619Y-114214285D02*
X61500000Y-114166666D01*
X61452380Y-114071428D01*
X61452380Y-113833333D01*
X61500000Y-113738095D01*
X61547619Y-113690476D01*
X61642857Y-113642857D01*
X61738095Y-113642857D01*
X61880952Y-113690476D01*
X62452380Y-114261904D01*
X62452380Y-113642857D01*
X62452380Y-112690476D02*
X62452380Y-113261904D01*
X62452380Y-112976190D02*
X61452380Y-112976190D01*
X61595238Y-113071428D01*
X61690476Y-113166666D01*
X61738095Y-113261904D01*
X61547619Y-112309523D02*
X61500000Y-112261904D01*
X61452380Y-112166666D01*
X61452380Y-111928571D01*
X61500000Y-111833333D01*
X61547619Y-111785714D01*
X61642857Y-111738095D01*
X61738095Y-111738095D01*
X61880952Y-111785714D01*
X62452380Y-112357142D01*
X62452380Y-111738095D01*
X61452380Y-111119047D02*
X61452380Y-111023809D01*
X61500000Y-110928571D01*
X61547619Y-110880952D01*
X61642857Y-110833333D01*
X61833333Y-110785714D01*
X62071428Y-110785714D01*
X62261904Y-110833333D01*
X62357142Y-110880952D01*
X62404761Y-110928571D01*
X62452380Y-111023809D01*
X62452380Y-111119047D01*
X62404761Y-111214285D01*
X62357142Y-111261904D01*
X62261904Y-111309523D01*
X62071428Y-111357142D01*
X61833333Y-111357142D01*
X61642857Y-111309523D01*
X61547619Y-111261904D01*
X61500000Y-111214285D01*
X61452380Y-111119047D01*
X75852380Y-101899047D02*
X75376190Y-102232380D01*
X75852380Y-102470476D02*
X74852380Y-102470476D01*
X74852380Y-102089523D01*
X74900000Y-101994285D01*
X74947619Y-101946666D01*
X75042857Y-101899047D01*
X75185714Y-101899047D01*
X75280952Y-101946666D01*
X75328571Y-101994285D01*
X75376190Y-102089523D01*
X75376190Y-102470476D01*
X75852380Y-101470476D02*
X74852380Y-101470476D01*
X75852380Y-100899047D01*
X74852380Y-100899047D01*
X74947619Y-100470476D02*
X74900000Y-100422857D01*
X74852380Y-100327619D01*
X74852380Y-100089523D01*
X74900000Y-99994285D01*
X74947619Y-99946666D01*
X75042857Y-99899047D01*
X75138095Y-99899047D01*
X75280952Y-99946666D01*
X75852380Y-100518095D01*
X75852380Y-99899047D01*
X75852380Y-98946666D02*
X75852380Y-99518095D01*
X75852380Y-99232380D02*
X74852380Y-99232380D01*
X74995238Y-99327619D01*
X75090476Y-99422857D01*
X75138095Y-99518095D01*
X74852380Y-98327619D02*
X74852380Y-98232380D01*
X74900000Y-98137142D01*
X74947619Y-98089523D01*
X75042857Y-98041904D01*
X75233333Y-97994285D01*
X75471428Y-97994285D01*
X75661904Y-98041904D01*
X75757142Y-98089523D01*
X75804761Y-98137142D01*
X75852380Y-98232380D01*
X75852380Y-98327619D01*
X75804761Y-98422857D01*
X75757142Y-98470476D01*
X75661904Y-98518095D01*
X75471428Y-98565714D01*
X75233333Y-98565714D01*
X75042857Y-98518095D01*
X74947619Y-98470476D01*
X74900000Y-98422857D01*
X74852380Y-98327619D01*
X74852380Y-97375238D02*
X74852380Y-97280000D01*
X74900000Y-97184761D01*
X74947619Y-97137142D01*
X75042857Y-97089523D01*
X75233333Y-97041904D01*
X75471428Y-97041904D01*
X75661904Y-97089523D01*
X75757142Y-97137142D01*
X75804761Y-97184761D01*
X75852380Y-97280000D01*
X75852380Y-97375238D01*
X75804761Y-97470476D01*
X75757142Y-97518095D01*
X75661904Y-97565714D01*
X75471428Y-97613333D01*
X75233333Y-97613333D01*
X75042857Y-97565714D01*
X74947619Y-97518095D01*
X74900000Y-97470476D01*
X74852380Y-97375238D01*
X121134761Y-31732380D02*
X120801428Y-31256190D01*
X120563333Y-31732380D02*
X120563333Y-30732380D01*
X120944285Y-30732380D01*
X121039523Y-30780000D01*
X121087142Y-30827619D01*
X121134761Y-30922857D01*
X121134761Y-31065714D01*
X121087142Y-31160952D01*
X121039523Y-31208571D01*
X120944285Y-31256190D01*
X120563333Y-31256190D01*
X121515714Y-30827619D02*
X121563333Y-30780000D01*
X121658571Y-30732380D01*
X121896666Y-30732380D01*
X121991904Y-30780000D01*
X122039523Y-30827619D01*
X122087142Y-30922857D01*
X122087142Y-31018095D01*
X122039523Y-31160952D01*
X121468095Y-31732380D01*
X122087142Y-31732380D01*
X122468095Y-30827619D02*
X122515714Y-30780000D01*
X122610952Y-30732380D01*
X122849047Y-30732380D01*
X122944285Y-30780000D01*
X122991904Y-30827619D01*
X123039523Y-30922857D01*
X123039523Y-31018095D01*
X122991904Y-31160952D01*
X122420476Y-31732380D01*
X123039523Y-31732380D01*
X123658571Y-30732380D02*
X123753809Y-30732380D01*
X123849047Y-30780000D01*
X123896666Y-30827619D01*
X123944285Y-30922857D01*
X123991904Y-31113333D01*
X123991904Y-31351428D01*
X123944285Y-31541904D01*
X123896666Y-31637142D01*
X123849047Y-31684761D01*
X123753809Y-31732380D01*
X123658571Y-31732380D01*
X123563333Y-31684761D01*
X123515714Y-31637142D01*
X123468095Y-31541904D01*
X123420476Y-31351428D01*
X123420476Y-31113333D01*
X123468095Y-30922857D01*
X123515714Y-30827619D01*
X123563333Y-30780000D01*
X123658571Y-30732380D01*
X124610952Y-30732380D02*
X124706190Y-30732380D01*
X124801428Y-30780000D01*
X124849047Y-30827619D01*
X124896666Y-30922857D01*
X124944285Y-31113333D01*
X124944285Y-31351428D01*
X124896666Y-31541904D01*
X124849047Y-31637142D01*
X124801428Y-31684761D01*
X124706190Y-31732380D01*
X124610952Y-31732380D01*
X124515714Y-31684761D01*
X124468095Y-31637142D01*
X124420476Y-31541904D01*
X124372857Y-31351428D01*
X124372857Y-31113333D01*
X124420476Y-30922857D01*
X124468095Y-30827619D01*
X124515714Y-30780000D01*
X124610952Y-30732380D01*
X149504761Y-119172380D02*
X149171428Y-118696190D01*
X148933333Y-119172380D02*
X148933333Y-118172380D01*
X149314285Y-118172380D01*
X149409523Y-118220000D01*
X149457142Y-118267619D01*
X149504761Y-118362857D01*
X149504761Y-118505714D01*
X149457142Y-118600952D01*
X149409523Y-118648571D01*
X149314285Y-118696190D01*
X148933333Y-118696190D01*
X150457142Y-119172380D02*
X149885714Y-119172380D01*
X150171428Y-119172380D02*
X150171428Y-118172380D01*
X150076190Y-118315238D01*
X149980952Y-118410476D01*
X149885714Y-118458095D01*
X151076190Y-118172380D02*
X151171428Y-118172380D01*
X151266666Y-118220000D01*
X151314285Y-118267619D01*
X151361904Y-118362857D01*
X151409523Y-118553333D01*
X151409523Y-118791428D01*
X151361904Y-118981904D01*
X151314285Y-119077142D01*
X151266666Y-119124761D01*
X151171428Y-119172380D01*
X151076190Y-119172380D01*
X150980952Y-119124761D01*
X150933333Y-119077142D01*
X150885714Y-118981904D01*
X150838095Y-118791428D01*
X150838095Y-118553333D01*
X150885714Y-118362857D01*
X150933333Y-118267619D01*
X150980952Y-118220000D01*
X151076190Y-118172380D01*
X152028571Y-118172380D02*
X152123809Y-118172380D01*
X152219047Y-118220000D01*
X152266666Y-118267619D01*
X152314285Y-118362857D01*
X152361904Y-118553333D01*
X152361904Y-118791428D01*
X152314285Y-118981904D01*
X152266666Y-119077142D01*
X152219047Y-119124761D01*
X152123809Y-119172380D01*
X152028571Y-119172380D01*
X151933333Y-119124761D01*
X151885714Y-119077142D01*
X151838095Y-118981904D01*
X151790476Y-118791428D01*
X151790476Y-118553333D01*
X151838095Y-118362857D01*
X151885714Y-118267619D01*
X151933333Y-118220000D01*
X152028571Y-118172380D01*
X152980952Y-118172380D02*
X153076190Y-118172380D01*
X153171428Y-118220000D01*
X153219047Y-118267619D01*
X153266666Y-118362857D01*
X153314285Y-118553333D01*
X153314285Y-118791428D01*
X153266666Y-118981904D01*
X153219047Y-119077142D01*
X153171428Y-119124761D01*
X153076190Y-119172380D01*
X152980952Y-119172380D01*
X152885714Y-119124761D01*
X152838095Y-119077142D01*
X152790476Y-118981904D01*
X152742857Y-118791428D01*
X152742857Y-118553333D01*
X152790476Y-118362857D01*
X152838095Y-118267619D01*
X152885714Y-118220000D01*
X152980952Y-118172380D01*
X155563333Y-119412380D02*
X155563333Y-118412380D01*
X155801428Y-118412380D01*
X155944285Y-118460000D01*
X156039523Y-118555238D01*
X156087142Y-118650476D01*
X156134761Y-118840952D01*
X156134761Y-118983809D01*
X156087142Y-119174285D01*
X156039523Y-119269523D01*
X155944285Y-119364761D01*
X155801428Y-119412380D01*
X155563333Y-119412380D01*
X157087142Y-119412380D02*
X156515714Y-119412380D01*
X156801428Y-119412380D02*
X156801428Y-118412380D01*
X156706190Y-118555238D01*
X156610952Y-118650476D01*
X156515714Y-118698095D01*
X157706190Y-118412380D02*
X157801428Y-118412380D01*
X157896666Y-118460000D01*
X157944285Y-118507619D01*
X157991904Y-118602857D01*
X158039523Y-118793333D01*
X158039523Y-119031428D01*
X157991904Y-119221904D01*
X157944285Y-119317142D01*
X157896666Y-119364761D01*
X157801428Y-119412380D01*
X157706190Y-119412380D01*
X157610952Y-119364761D01*
X157563333Y-119317142D01*
X157515714Y-119221904D01*
X157468095Y-119031428D01*
X157468095Y-118793333D01*
X157515714Y-118602857D01*
X157563333Y-118507619D01*
X157610952Y-118460000D01*
X157706190Y-118412380D01*
X158658571Y-118412380D02*
X158753809Y-118412380D01*
X158849047Y-118460000D01*
X158896666Y-118507619D01*
X158944285Y-118602857D01*
X158991904Y-118793333D01*
X158991904Y-119031428D01*
X158944285Y-119221904D01*
X158896666Y-119317142D01*
X158849047Y-119364761D01*
X158753809Y-119412380D01*
X158658571Y-119412380D01*
X158563333Y-119364761D01*
X158515714Y-119317142D01*
X158468095Y-119221904D01*
X158420476Y-119031428D01*
X158420476Y-118793333D01*
X158468095Y-118602857D01*
X158515714Y-118507619D01*
X158563333Y-118460000D01*
X158658571Y-118412380D01*
X159944285Y-119412380D02*
X159372857Y-119412380D01*
X159658571Y-119412380D02*
X159658571Y-118412380D01*
X159563333Y-118555238D01*
X159468095Y-118650476D01*
X159372857Y-118698095D01*
X55452380Y-107761904D02*
X56166666Y-107761904D01*
X56309523Y-107809523D01*
X56404761Y-107904761D01*
X56452380Y-108047619D01*
X56452380Y-108142857D01*
X55547619Y-107333333D02*
X55500000Y-107285714D01*
X55452380Y-107190476D01*
X55452380Y-106952380D01*
X55500000Y-106857142D01*
X55547619Y-106809523D01*
X55642857Y-106761904D01*
X55738095Y-106761904D01*
X55880952Y-106809523D01*
X56452380Y-107380952D01*
X56452380Y-106761904D01*
X56452380Y-105809523D02*
X56452380Y-106380952D01*
X56452380Y-106095238D02*
X55452380Y-106095238D01*
X55595238Y-106190476D01*
X55690476Y-106285714D01*
X55738095Y-106380952D01*
X55547619Y-105428571D02*
X55500000Y-105380952D01*
X55452380Y-105285714D01*
X55452380Y-105047619D01*
X55500000Y-104952380D01*
X55547619Y-104904761D01*
X55642857Y-104857142D01*
X55738095Y-104857142D01*
X55880952Y-104904761D01*
X56452380Y-105476190D01*
X56452380Y-104857142D01*
X55547619Y-104476190D02*
X55500000Y-104428571D01*
X55452380Y-104333333D01*
X55452380Y-104095238D01*
X55500000Y-104000000D01*
X55547619Y-103952380D01*
X55642857Y-103904761D01*
X55738095Y-103904761D01*
X55880952Y-103952380D01*
X56452380Y-104523809D01*
X56452380Y-103904761D01*
X66337142Y-91875238D02*
X66384761Y-91922857D01*
X66432380Y-92065714D01*
X66432380Y-92160952D01*
X66384761Y-92303809D01*
X66289523Y-92399047D01*
X66194285Y-92446666D01*
X66003809Y-92494285D01*
X65860952Y-92494285D01*
X65670476Y-92446666D01*
X65575238Y-92399047D01*
X65480000Y-92303809D01*
X65432380Y-92160952D01*
X65432380Y-92065714D01*
X65480000Y-91922857D01*
X65527619Y-91875238D01*
X66432380Y-90922857D02*
X66432380Y-91494285D01*
X66432380Y-91208571D02*
X65432380Y-91208571D01*
X65575238Y-91303809D01*
X65670476Y-91399047D01*
X65718095Y-91494285D01*
X65432380Y-90303809D02*
X65432380Y-90208571D01*
X65480000Y-90113333D01*
X65527619Y-90065714D01*
X65622857Y-90018095D01*
X65813333Y-89970476D01*
X66051428Y-89970476D01*
X66241904Y-90018095D01*
X66337142Y-90065714D01*
X66384761Y-90113333D01*
X66432380Y-90208571D01*
X66432380Y-90303809D01*
X66384761Y-90399047D01*
X66337142Y-90446666D01*
X66241904Y-90494285D01*
X66051428Y-90541904D01*
X65813333Y-90541904D01*
X65622857Y-90494285D01*
X65527619Y-90446666D01*
X65480000Y-90399047D01*
X65432380Y-90303809D01*
X65432380Y-89351428D02*
X65432380Y-89256190D01*
X65480000Y-89160952D01*
X65527619Y-89113333D01*
X65622857Y-89065714D01*
X65813333Y-89018095D01*
X66051428Y-89018095D01*
X66241904Y-89065714D01*
X66337142Y-89113333D01*
X66384761Y-89160952D01*
X66432380Y-89256190D01*
X66432380Y-89351428D01*
X66384761Y-89446666D01*
X66337142Y-89494285D01*
X66241904Y-89541904D01*
X66051428Y-89589523D01*
X65813333Y-89589523D01*
X65622857Y-89541904D01*
X65527619Y-89494285D01*
X65480000Y-89446666D01*
X65432380Y-89351428D01*
X66432380Y-88065714D02*
X66432380Y-88637142D01*
X66432380Y-88351428D02*
X65432380Y-88351428D01*
X65575238Y-88446666D01*
X65670476Y-88541904D01*
X65718095Y-88637142D01*
X58717142Y-91875238D02*
X58764761Y-91922857D01*
X58812380Y-92065714D01*
X58812380Y-92160952D01*
X58764761Y-92303809D01*
X58669523Y-92399047D01*
X58574285Y-92446666D01*
X58383809Y-92494285D01*
X58240952Y-92494285D01*
X58050476Y-92446666D01*
X57955238Y-92399047D01*
X57860000Y-92303809D01*
X57812380Y-92160952D01*
X57812380Y-92065714D01*
X57860000Y-91922857D01*
X57907619Y-91875238D01*
X58812380Y-90922857D02*
X58812380Y-91494285D01*
X58812380Y-91208571D02*
X57812380Y-91208571D01*
X57955238Y-91303809D01*
X58050476Y-91399047D01*
X58098095Y-91494285D01*
X57812380Y-90303809D02*
X57812380Y-90208571D01*
X57860000Y-90113333D01*
X57907619Y-90065714D01*
X58002857Y-90018095D01*
X58193333Y-89970476D01*
X58431428Y-89970476D01*
X58621904Y-90018095D01*
X58717142Y-90065714D01*
X58764761Y-90113333D01*
X58812380Y-90208571D01*
X58812380Y-90303809D01*
X58764761Y-90399047D01*
X58717142Y-90446666D01*
X58621904Y-90494285D01*
X58431428Y-90541904D01*
X58193333Y-90541904D01*
X58002857Y-90494285D01*
X57907619Y-90446666D01*
X57860000Y-90399047D01*
X57812380Y-90303809D01*
X57812380Y-89351428D02*
X57812380Y-89256190D01*
X57860000Y-89160952D01*
X57907619Y-89113333D01*
X58002857Y-89065714D01*
X58193333Y-89018095D01*
X58431428Y-89018095D01*
X58621904Y-89065714D01*
X58717142Y-89113333D01*
X58764761Y-89160952D01*
X58812380Y-89256190D01*
X58812380Y-89351428D01*
X58764761Y-89446666D01*
X58717142Y-89494285D01*
X58621904Y-89541904D01*
X58431428Y-89589523D01*
X58193333Y-89589523D01*
X58002857Y-89541904D01*
X57907619Y-89494285D01*
X57860000Y-89446666D01*
X57812380Y-89351428D01*
X57812380Y-88399047D02*
X57812380Y-88303809D01*
X57860000Y-88208571D01*
X57907619Y-88160952D01*
X58002857Y-88113333D01*
X58193333Y-88065714D01*
X58431428Y-88065714D01*
X58621904Y-88113333D01*
X58717142Y-88160952D01*
X58764761Y-88208571D01*
X58812380Y-88303809D01*
X58812380Y-88399047D01*
X58764761Y-88494285D01*
X58717142Y-88541904D01*
X58621904Y-88589523D01*
X58431428Y-88637142D01*
X58193333Y-88637142D01*
X58002857Y-88589523D01*
X57907619Y-88541904D01*
X57860000Y-88494285D01*
X57812380Y-88399047D01*
X155422695Y-34970980D02*
X155422695Y-33970980D01*
X155422695Y-34447171D02*
X155994123Y-34447171D01*
X155994123Y-34970980D02*
X155994123Y-33970980D01*
X156375076Y-33970980D02*
X156994123Y-33970980D01*
X156660790Y-34351933D01*
X156803647Y-34351933D01*
X156898885Y-34399552D01*
X156946504Y-34447171D01*
X156994123Y-34542409D01*
X156994123Y-34780504D01*
X156946504Y-34875742D01*
X156898885Y-34923361D01*
X156803647Y-34970980D01*
X156517933Y-34970980D01*
X156422695Y-34923361D01*
X156375076Y-34875742D01*
X33147095Y-38882580D02*
X33147095Y-37882580D01*
X33147095Y-38358771D02*
X33718523Y-38358771D01*
X33718523Y-38882580D02*
X33718523Y-37882580D01*
X34147095Y-37977819D02*
X34194714Y-37930200D01*
X34289952Y-37882580D01*
X34528047Y-37882580D01*
X34623285Y-37930200D01*
X34670904Y-37977819D01*
X34718523Y-38073057D01*
X34718523Y-38168295D01*
X34670904Y-38311152D01*
X34099476Y-38882580D01*
X34718523Y-38882580D01*
X160238095Y-121952380D02*
X160238095Y-120952380D01*
X160238095Y-121428571D02*
X160809523Y-121428571D01*
X160809523Y-121952380D02*
X160809523Y-120952380D01*
X161809523Y-121952380D02*
X161238095Y-121952380D01*
X161523809Y-121952380D02*
X161523809Y-120952380D01*
X161428571Y-121095238D01*
X161333333Y-121190476D01*
X161238095Y-121238095D01*
X33238095Y-121952380D02*
X33238095Y-120952380D01*
X33238095Y-121428571D02*
X33809523Y-121428571D01*
X33809523Y-121952380D02*
X33809523Y-120952380D01*
X34476190Y-120952380D02*
X34571428Y-120952380D01*
X34666666Y-121000000D01*
X34714285Y-121047619D01*
X34761904Y-121142857D01*
X34809523Y-121333333D01*
X34809523Y-121571428D01*
X34761904Y-121761904D01*
X34714285Y-121857142D01*
X34666666Y-121904761D01*
X34571428Y-121952380D01*
X34476190Y-121952380D01*
X34380952Y-121904761D01*
X34333333Y-121857142D01*
X34285714Y-121761904D01*
X34238095Y-121571428D01*
X34238095Y-121333333D01*
X34285714Y-121142857D01*
X34333333Y-121047619D01*
X34380952Y-121000000D01*
X34476190Y-120952380D01*
X116852380Y-43739047D02*
X116376190Y-44072380D01*
X116852380Y-44310476D02*
X115852380Y-44310476D01*
X115852380Y-43929523D01*
X115900000Y-43834285D01*
X115947619Y-43786666D01*
X116042857Y-43739047D01*
X116185714Y-43739047D01*
X116280952Y-43786666D01*
X116328571Y-43834285D01*
X116376190Y-43929523D01*
X116376190Y-44310476D01*
X116852380Y-43310476D02*
X115852380Y-43310476D01*
X116852380Y-42739047D01*
X115852380Y-42739047D01*
X115947619Y-42310476D02*
X115900000Y-42262857D01*
X115852380Y-42167619D01*
X115852380Y-41929523D01*
X115900000Y-41834285D01*
X115947619Y-41786666D01*
X116042857Y-41739047D01*
X116138095Y-41739047D01*
X116280952Y-41786666D01*
X116852380Y-42358095D01*
X116852380Y-41739047D01*
X115947619Y-41358095D02*
X115900000Y-41310476D01*
X115852380Y-41215238D01*
X115852380Y-40977142D01*
X115900000Y-40881904D01*
X115947619Y-40834285D01*
X116042857Y-40786666D01*
X116138095Y-40786666D01*
X116280952Y-40834285D01*
X116852380Y-41405714D01*
X116852380Y-40786666D01*
X115947619Y-40405714D02*
X115900000Y-40358095D01*
X115852380Y-40262857D01*
X115852380Y-40024761D01*
X115900000Y-39929523D01*
X115947619Y-39881904D01*
X116042857Y-39834285D01*
X116138095Y-39834285D01*
X116280952Y-39881904D01*
X116852380Y-40453333D01*
X116852380Y-39834285D01*
X115852380Y-39215238D02*
X115852380Y-39120000D01*
X115900000Y-39024761D01*
X115947619Y-38977142D01*
X116042857Y-38929523D01*
X116233333Y-38881904D01*
X116471428Y-38881904D01*
X116661904Y-38929523D01*
X116757142Y-38977142D01*
X116804761Y-39024761D01*
X116852380Y-39120000D01*
X116852380Y-39215238D01*
X116804761Y-39310476D01*
X116757142Y-39358095D01*
X116661904Y-39405714D01*
X116471428Y-39453333D01*
X116233333Y-39453333D01*
X116042857Y-39405714D01*
X115947619Y-39358095D01*
X115900000Y-39310476D01*
X115852380Y-39215238D01*
X57052380Y-40499047D02*
X56576190Y-40832380D01*
X57052380Y-41070476D02*
X56052380Y-41070476D01*
X56052380Y-40689523D01*
X56100000Y-40594285D01*
X56147619Y-40546666D01*
X56242857Y-40499047D01*
X56385714Y-40499047D01*
X56480952Y-40546666D01*
X56528571Y-40594285D01*
X56576190Y-40689523D01*
X56576190Y-41070476D01*
X57052380Y-40070476D02*
X56052380Y-40070476D01*
X57052380Y-39499047D01*
X56052380Y-39499047D01*
X56147619Y-39070476D02*
X56100000Y-39022857D01*
X56052380Y-38927619D01*
X56052380Y-38689523D01*
X56100000Y-38594285D01*
X56147619Y-38546666D01*
X56242857Y-38499047D01*
X56338095Y-38499047D01*
X56480952Y-38546666D01*
X57052380Y-39118095D01*
X57052380Y-38499047D01*
X56147619Y-38118095D02*
X56100000Y-38070476D01*
X56052380Y-37975238D01*
X56052380Y-37737142D01*
X56100000Y-37641904D01*
X56147619Y-37594285D01*
X56242857Y-37546666D01*
X56338095Y-37546666D01*
X56480952Y-37594285D01*
X57052380Y-38165714D01*
X57052380Y-37546666D01*
X57052380Y-36594285D02*
X57052380Y-37165714D01*
X57052380Y-36880000D02*
X56052380Y-36880000D01*
X56195238Y-36975238D01*
X56290476Y-37070476D01*
X56338095Y-37165714D01*
X56052380Y-35975238D02*
X56052380Y-35880000D01*
X56100000Y-35784761D01*
X56147619Y-35737142D01*
X56242857Y-35689523D01*
X56433333Y-35641904D01*
X56671428Y-35641904D01*
X56861904Y-35689523D01*
X56957142Y-35737142D01*
X57004761Y-35784761D01*
X57052380Y-35880000D01*
X57052380Y-35975238D01*
X57004761Y-36070476D01*
X56957142Y-36118095D01*
X56861904Y-36165714D01*
X56671428Y-36213333D01*
X56433333Y-36213333D01*
X56242857Y-36165714D01*
X56147619Y-36118095D01*
X56100000Y-36070476D01*
X56052380Y-35975238D01*
X136238095Y-50452380D02*
X136238095Y-51166666D01*
X136190476Y-51309523D01*
X136095238Y-51404761D01*
X135952380Y-51452380D01*
X135857142Y-51452380D01*
X136666666Y-50547619D02*
X136714285Y-50500000D01*
X136809523Y-50452380D01*
X137047619Y-50452380D01*
X137142857Y-50500000D01*
X137190476Y-50547619D01*
X137238095Y-50642857D01*
X137238095Y-50738095D01*
X137190476Y-50880952D01*
X136619047Y-51452380D01*
X137238095Y-51452380D01*
X137619047Y-50547619D02*
X137666666Y-50500000D01*
X137761904Y-50452380D01*
X138000000Y-50452380D01*
X138095238Y-50500000D01*
X138142857Y-50547619D01*
X138190476Y-50642857D01*
X138190476Y-50738095D01*
X138142857Y-50880952D01*
X137571428Y-51452380D01*
X138190476Y-51452380D01*
X138571428Y-50547619D02*
X138619047Y-50500000D01*
X138714285Y-50452380D01*
X138952380Y-50452380D01*
X139047619Y-50500000D01*
X139095238Y-50547619D01*
X139142857Y-50642857D01*
X139142857Y-50738095D01*
X139095238Y-50880952D01*
X138523809Y-51452380D01*
X139142857Y-51452380D01*
X140095238Y-51452380D02*
X139523809Y-51452380D01*
X139809523Y-51452380D02*
X139809523Y-50452380D01*
X139714285Y-50595238D01*
X139619047Y-50690476D01*
X139523809Y-50738095D01*
X33122380Y-95761904D02*
X33836666Y-95761904D01*
X33979523Y-95809523D01*
X34074761Y-95904761D01*
X34122380Y-96047619D01*
X34122380Y-96142857D01*
X33217619Y-95333333D02*
X33170000Y-95285714D01*
X33122380Y-95190476D01*
X33122380Y-94952380D01*
X33170000Y-94857142D01*
X33217619Y-94809523D01*
X33312857Y-94761904D01*
X33408095Y-94761904D01*
X33550952Y-94809523D01*
X34122380Y-95380952D01*
X34122380Y-94761904D01*
X34122380Y-93809523D02*
X34122380Y-94380952D01*
X34122380Y-94095238D02*
X33122380Y-94095238D01*
X33265238Y-94190476D01*
X33360476Y-94285714D01*
X33408095Y-94380952D01*
X33217619Y-93428571D02*
X33170000Y-93380952D01*
X33122380Y-93285714D01*
X33122380Y-93047619D01*
X33170000Y-92952380D01*
X33217619Y-92904761D01*
X33312857Y-92857142D01*
X33408095Y-92857142D01*
X33550952Y-92904761D01*
X34122380Y-93476190D01*
X34122380Y-92857142D01*
X34122380Y-91904761D02*
X34122380Y-92476190D01*
X34122380Y-92190476D02*
X33122380Y-92190476D01*
X33265238Y-92285714D01*
X33360476Y-92380952D01*
X33408095Y-92476190D01*
X105404761Y-30357142D02*
X105357142Y-30404761D01*
X105214285Y-30452380D01*
X105119047Y-30452380D01*
X104976190Y-30404761D01*
X104880952Y-30309523D01*
X104833333Y-30214285D01*
X104785714Y-30023809D01*
X104785714Y-29880952D01*
X104833333Y-29690476D01*
X104880952Y-29595238D01*
X104976190Y-29500000D01*
X105119047Y-29452380D01*
X105214285Y-29452380D01*
X105357142Y-29500000D01*
X105404761Y-29547619D01*
X105785714Y-29547619D02*
X105833333Y-29500000D01*
X105928571Y-29452380D01*
X106166666Y-29452380D01*
X106261904Y-29500000D01*
X106309523Y-29547619D01*
X106357142Y-29642857D01*
X106357142Y-29738095D01*
X106309523Y-29880952D01*
X105738095Y-30452380D01*
X106357142Y-30452380D01*
X106738095Y-29547619D02*
X106785714Y-29500000D01*
X106880952Y-29452380D01*
X107119047Y-29452380D01*
X107214285Y-29500000D01*
X107261904Y-29547619D01*
X107309523Y-29642857D01*
X107309523Y-29738095D01*
X107261904Y-29880952D01*
X106690476Y-30452380D01*
X107309523Y-30452380D01*
X107690476Y-29547619D02*
X107738095Y-29500000D01*
X107833333Y-29452380D01*
X108071428Y-29452380D01*
X108166666Y-29500000D01*
X108214285Y-29547619D01*
X108261904Y-29642857D01*
X108261904Y-29738095D01*
X108214285Y-29880952D01*
X107642857Y-30452380D01*
X108261904Y-30452380D01*
X109214285Y-30452380D02*
X108642857Y-30452380D01*
X108928571Y-30452380D02*
X108928571Y-29452380D01*
X108833333Y-29595238D01*
X108738095Y-29690476D01*
X108642857Y-29738095D01*
X127404761Y-31357142D02*
X127357142Y-31404761D01*
X127214285Y-31452380D01*
X127119047Y-31452380D01*
X126976190Y-31404761D01*
X126880952Y-31309523D01*
X126833333Y-31214285D01*
X126785714Y-31023809D01*
X126785714Y-30880952D01*
X126833333Y-30690476D01*
X126880952Y-30595238D01*
X126976190Y-30500000D01*
X127119047Y-30452380D01*
X127214285Y-30452380D01*
X127357142Y-30500000D01*
X127404761Y-30547619D01*
X127785714Y-30547619D02*
X127833333Y-30500000D01*
X127928571Y-30452380D01*
X128166666Y-30452380D01*
X128261904Y-30500000D01*
X128309523Y-30547619D01*
X128357142Y-30642857D01*
X128357142Y-30738095D01*
X128309523Y-30880952D01*
X127738095Y-31452380D01*
X128357142Y-31452380D01*
X128738095Y-30547619D02*
X128785714Y-30500000D01*
X128880952Y-30452380D01*
X129119047Y-30452380D01*
X129214285Y-30500000D01*
X129261904Y-30547619D01*
X129309523Y-30642857D01*
X129309523Y-30738095D01*
X129261904Y-30880952D01*
X128690476Y-31452380D01*
X129309523Y-31452380D01*
X129690476Y-30547619D02*
X129738095Y-30500000D01*
X129833333Y-30452380D01*
X130071428Y-30452380D01*
X130166666Y-30500000D01*
X130214285Y-30547619D01*
X130261904Y-30642857D01*
X130261904Y-30738095D01*
X130214285Y-30880952D01*
X129642857Y-31452380D01*
X130261904Y-31452380D01*
X130880952Y-30452380D02*
X130976190Y-30452380D01*
X131071428Y-30500000D01*
X131119047Y-30547619D01*
X131166666Y-30642857D01*
X131214285Y-30833333D01*
X131214285Y-31071428D01*
X131166666Y-31261904D01*
X131119047Y-31357142D01*
X131071428Y-31404761D01*
X130976190Y-31452380D01*
X130880952Y-31452380D01*
X130785714Y-31404761D01*
X130738095Y-31357142D01*
X130690476Y-31261904D01*
X130642857Y-31071428D01*
X130642857Y-30833333D01*
X130690476Y-30642857D01*
X130738095Y-30547619D01*
X130785714Y-30500000D01*
X130880952Y-30452380D01*
X61094761Y-33357142D02*
X61047142Y-33404761D01*
X60904285Y-33452380D01*
X60809047Y-33452380D01*
X60666190Y-33404761D01*
X60570952Y-33309523D01*
X60523333Y-33214285D01*
X60475714Y-33023809D01*
X60475714Y-32880952D01*
X60523333Y-32690476D01*
X60570952Y-32595238D01*
X60666190Y-32500000D01*
X60809047Y-32452380D01*
X60904285Y-32452380D01*
X61047142Y-32500000D01*
X61094761Y-32547619D01*
X61475714Y-32547619D02*
X61523333Y-32500000D01*
X61618571Y-32452380D01*
X61856666Y-32452380D01*
X61951904Y-32500000D01*
X61999523Y-32547619D01*
X62047142Y-32642857D01*
X62047142Y-32738095D01*
X61999523Y-32880952D01*
X61428095Y-33452380D01*
X62047142Y-33452380D01*
X62428095Y-32547619D02*
X62475714Y-32500000D01*
X62570952Y-32452380D01*
X62809047Y-32452380D01*
X62904285Y-32500000D01*
X62951904Y-32547619D01*
X62999523Y-32642857D01*
X62999523Y-32738095D01*
X62951904Y-32880952D01*
X62380476Y-33452380D01*
X62999523Y-33452380D01*
X63951904Y-33452380D02*
X63380476Y-33452380D01*
X63666190Y-33452380D02*
X63666190Y-32452380D01*
X63570952Y-32595238D01*
X63475714Y-32690476D01*
X63380476Y-32738095D01*
X64570952Y-32452380D02*
X64666190Y-32452380D01*
X64761428Y-32500000D01*
X64809047Y-32547619D01*
X64856666Y-32642857D01*
X64904285Y-32833333D01*
X64904285Y-33071428D01*
X64856666Y-33261904D01*
X64809047Y-33357142D01*
X64761428Y-33404761D01*
X64666190Y-33452380D01*
X64570952Y-33452380D01*
X64475714Y-33404761D01*
X64428095Y-33357142D01*
X64380476Y-33261904D01*
X64332857Y-33071428D01*
X64332857Y-32833333D01*
X64380476Y-32642857D01*
X64428095Y-32547619D01*
X64475714Y-32500000D01*
X64570952Y-32452380D01*
X103357142Y-66945238D02*
X103404761Y-66992857D01*
X103452380Y-67135714D01*
X103452380Y-67230952D01*
X103404761Y-67373809D01*
X103309523Y-67469047D01*
X103214285Y-67516666D01*
X103023809Y-67564285D01*
X102880952Y-67564285D01*
X102690476Y-67516666D01*
X102595238Y-67469047D01*
X102500000Y-67373809D01*
X102452380Y-67230952D01*
X102452380Y-67135714D01*
X102500000Y-66992857D01*
X102547619Y-66945238D01*
X102547619Y-66564285D02*
X102500000Y-66516666D01*
X102452380Y-66421428D01*
X102452380Y-66183333D01*
X102500000Y-66088095D01*
X102547619Y-66040476D01*
X102642857Y-65992857D01*
X102738095Y-65992857D01*
X102880952Y-66040476D01*
X103452380Y-66611904D01*
X103452380Y-65992857D01*
X102547619Y-65611904D02*
X102500000Y-65564285D01*
X102452380Y-65469047D01*
X102452380Y-65230952D01*
X102500000Y-65135714D01*
X102547619Y-65088095D01*
X102642857Y-65040476D01*
X102738095Y-65040476D01*
X102880952Y-65088095D01*
X103452380Y-65659523D01*
X103452380Y-65040476D01*
X102452380Y-64421428D02*
X102452380Y-64326190D01*
X102500000Y-64230952D01*
X102547619Y-64183333D01*
X102642857Y-64135714D01*
X102833333Y-64088095D01*
X103071428Y-64088095D01*
X103261904Y-64135714D01*
X103357142Y-64183333D01*
X103404761Y-64230952D01*
X103452380Y-64326190D01*
X103452380Y-64421428D01*
X103404761Y-64516666D01*
X103357142Y-64564285D01*
X103261904Y-64611904D01*
X103071428Y-64659523D01*
X102833333Y-64659523D01*
X102642857Y-64611904D01*
X102547619Y-64564285D01*
X102500000Y-64516666D01*
X102452380Y-64421428D01*
X102452380Y-63469047D02*
X102452380Y-63373809D01*
X102500000Y-63278571D01*
X102547619Y-63230952D01*
X102642857Y-63183333D01*
X102833333Y-63135714D01*
X103071428Y-63135714D01*
X103261904Y-63183333D01*
X103357142Y-63230952D01*
X103404761Y-63278571D01*
X103452380Y-63373809D01*
X103452380Y-63469047D01*
X103404761Y-63564285D01*
X103357142Y-63611904D01*
X103261904Y-63659523D01*
X103071428Y-63707142D01*
X102833333Y-63707142D01*
X102642857Y-63659523D01*
X102547619Y-63611904D01*
X102500000Y-63564285D01*
X102452380Y-63469047D01*
X50154761Y-118857142D02*
X50107142Y-118904761D01*
X49964285Y-118952380D01*
X49869047Y-118952380D01*
X49726190Y-118904761D01*
X49630952Y-118809523D01*
X49583333Y-118714285D01*
X49535714Y-118523809D01*
X49535714Y-118380952D01*
X49583333Y-118190476D01*
X49630952Y-118095238D01*
X49726190Y-118000000D01*
X49869047Y-117952380D01*
X49964285Y-117952380D01*
X50107142Y-118000000D01*
X50154761Y-118047619D01*
X50535714Y-118047619D02*
X50583333Y-118000000D01*
X50678571Y-117952380D01*
X50916666Y-117952380D01*
X51011904Y-118000000D01*
X51059523Y-118047619D01*
X51107142Y-118142857D01*
X51107142Y-118238095D01*
X51059523Y-118380952D01*
X50488095Y-118952380D01*
X51107142Y-118952380D01*
X52059523Y-118952380D02*
X51488095Y-118952380D01*
X51773809Y-118952380D02*
X51773809Y-117952380D01*
X51678571Y-118095238D01*
X51583333Y-118190476D01*
X51488095Y-118238095D01*
X52440476Y-118047619D02*
X52488095Y-118000000D01*
X52583333Y-117952380D01*
X52821428Y-117952380D01*
X52916666Y-118000000D01*
X52964285Y-118047619D01*
X53011904Y-118142857D01*
X53011904Y-118238095D01*
X52964285Y-118380952D01*
X52392857Y-118952380D01*
X53011904Y-118952380D01*
X53964285Y-118952380D02*
X53392857Y-118952380D01*
X53678571Y-118952380D02*
X53678571Y-117952380D01*
X53583333Y-118095238D01*
X53488095Y-118190476D01*
X53392857Y-118238095D01*
X49654761Y-95857142D02*
X49607142Y-95904761D01*
X49464285Y-95952380D01*
X49369047Y-95952380D01*
X49226190Y-95904761D01*
X49130952Y-95809523D01*
X49083333Y-95714285D01*
X49035714Y-95523809D01*
X49035714Y-95380952D01*
X49083333Y-95190476D01*
X49130952Y-95095238D01*
X49226190Y-95000000D01*
X49369047Y-94952380D01*
X49464285Y-94952380D01*
X49607142Y-95000000D01*
X49654761Y-95047619D01*
X50035714Y-95047619D02*
X50083333Y-95000000D01*
X50178571Y-94952380D01*
X50416666Y-94952380D01*
X50511904Y-95000000D01*
X50559523Y-95047619D01*
X50607142Y-95142857D01*
X50607142Y-95238095D01*
X50559523Y-95380952D01*
X49988095Y-95952380D01*
X50607142Y-95952380D01*
X51559523Y-95952380D02*
X50988095Y-95952380D01*
X51273809Y-95952380D02*
X51273809Y-94952380D01*
X51178571Y-95095238D01*
X51083333Y-95190476D01*
X50988095Y-95238095D01*
X51940476Y-95047619D02*
X51988095Y-95000000D01*
X52083333Y-94952380D01*
X52321428Y-94952380D01*
X52416666Y-95000000D01*
X52464285Y-95047619D01*
X52511904Y-95142857D01*
X52511904Y-95238095D01*
X52464285Y-95380952D01*
X51892857Y-95952380D01*
X52511904Y-95952380D01*
X53130952Y-94952380D02*
X53226190Y-94952380D01*
X53321428Y-95000000D01*
X53369047Y-95047619D01*
X53416666Y-95142857D01*
X53464285Y-95333333D01*
X53464285Y-95571428D01*
X53416666Y-95761904D01*
X53369047Y-95857142D01*
X53321428Y-95904761D01*
X53226190Y-95952380D01*
X53130952Y-95952380D01*
X53035714Y-95904761D01*
X52988095Y-95857142D01*
X52940476Y-95761904D01*
X52892857Y-95571428D01*
X52892857Y-95333333D01*
X52940476Y-95142857D01*
X52988095Y-95047619D01*
X53035714Y-95000000D01*
X53130952Y-94952380D01*
X132429523Y-62122380D02*
X132429523Y-62931904D01*
X132477142Y-63027142D01*
X132524761Y-63074761D01*
X132620000Y-63122380D01*
X132810476Y-63122380D01*
X132905714Y-63074761D01*
X132953333Y-63027142D01*
X133000952Y-62931904D01*
X133000952Y-62122380D01*
X133381904Y-62122380D02*
X134000952Y-62122380D01*
X133667619Y-62503333D01*
X133810476Y-62503333D01*
X133905714Y-62550952D01*
X133953333Y-62598571D01*
X134000952Y-62693809D01*
X134000952Y-62931904D01*
X133953333Y-63027142D01*
X133905714Y-63074761D01*
X133810476Y-63122380D01*
X133524761Y-63122380D01*
X133429523Y-63074761D01*
X133381904Y-63027142D01*
X134620000Y-62122380D02*
X134715238Y-62122380D01*
X134810476Y-62170000D01*
X134858095Y-62217619D01*
X134905714Y-62312857D01*
X134953333Y-62503333D01*
X134953333Y-62741428D01*
X134905714Y-62931904D01*
X134858095Y-63027142D01*
X134810476Y-63074761D01*
X134715238Y-63122380D01*
X134620000Y-63122380D01*
X134524761Y-63074761D01*
X134477142Y-63027142D01*
X134429523Y-62931904D01*
X134381904Y-62741428D01*
X134381904Y-62503333D01*
X134429523Y-62312857D01*
X134477142Y-62217619D01*
X134524761Y-62170000D01*
X134620000Y-62122380D01*
X135572380Y-62122380D02*
X135667619Y-62122380D01*
X135762857Y-62170000D01*
X135810476Y-62217619D01*
X135858095Y-62312857D01*
X135905714Y-62503333D01*
X135905714Y-62741428D01*
X135858095Y-62931904D01*
X135810476Y-63027142D01*
X135762857Y-63074761D01*
X135667619Y-63122380D01*
X135572380Y-63122380D01*
X135477142Y-63074761D01*
X135429523Y-63027142D01*
X135381904Y-62931904D01*
X135334285Y-62741428D01*
X135334285Y-62503333D01*
X135381904Y-62312857D01*
X135429523Y-62217619D01*
X135477142Y-62170000D01*
X135572380Y-62122380D01*
X136524761Y-62122380D02*
X136620000Y-62122380D01*
X136715238Y-62170000D01*
X136762857Y-62217619D01*
X136810476Y-62312857D01*
X136858095Y-62503333D01*
X136858095Y-62741428D01*
X136810476Y-62931904D01*
X136762857Y-63027142D01*
X136715238Y-63074761D01*
X136620000Y-63122380D01*
X136524761Y-63122380D01*
X136429523Y-63074761D01*
X136381904Y-63027142D01*
X136334285Y-62931904D01*
X136286666Y-62741428D01*
X136286666Y-62503333D01*
X136334285Y-62312857D01*
X136381904Y-62217619D01*
X136429523Y-62170000D01*
X136524761Y-62122380D01*
X56229523Y-67142380D02*
X56229523Y-67951904D01*
X56277142Y-68047142D01*
X56324761Y-68094761D01*
X56420000Y-68142380D01*
X56610476Y-68142380D01*
X56705714Y-68094761D01*
X56753333Y-68047142D01*
X56800952Y-67951904D01*
X56800952Y-67142380D01*
X57800952Y-68142380D02*
X57229523Y-68142380D01*
X57515238Y-68142380D02*
X57515238Y-67142380D01*
X57420000Y-67285238D01*
X57324761Y-67380476D01*
X57229523Y-67428095D01*
X58420000Y-67142380D02*
X58515238Y-67142380D01*
X58610476Y-67190000D01*
X58658095Y-67237619D01*
X58705714Y-67332857D01*
X58753333Y-67523333D01*
X58753333Y-67761428D01*
X58705714Y-67951904D01*
X58658095Y-68047142D01*
X58610476Y-68094761D01*
X58515238Y-68142380D01*
X58420000Y-68142380D01*
X58324761Y-68094761D01*
X58277142Y-68047142D01*
X58229523Y-67951904D01*
X58181904Y-67761428D01*
X58181904Y-67523333D01*
X58229523Y-67332857D01*
X58277142Y-67237619D01*
X58324761Y-67190000D01*
X58420000Y-67142380D01*
X59372380Y-67142380D02*
X59467619Y-67142380D01*
X59562857Y-67190000D01*
X59610476Y-67237619D01*
X59658095Y-67332857D01*
X59705714Y-67523333D01*
X59705714Y-67761428D01*
X59658095Y-67951904D01*
X59610476Y-68047142D01*
X59562857Y-68094761D01*
X59467619Y-68142380D01*
X59372380Y-68142380D01*
X59277142Y-68094761D01*
X59229523Y-68047142D01*
X59181904Y-67951904D01*
X59134285Y-67761428D01*
X59134285Y-67523333D01*
X59181904Y-67332857D01*
X59229523Y-67237619D01*
X59277142Y-67190000D01*
X59372380Y-67142380D01*
X60324761Y-67142380D02*
X60420000Y-67142380D01*
X60515238Y-67190000D01*
X60562857Y-67237619D01*
X60610476Y-67332857D01*
X60658095Y-67523333D01*
X60658095Y-67761428D01*
X60610476Y-67951904D01*
X60562857Y-68047142D01*
X60515238Y-68094761D01*
X60420000Y-68142380D01*
X60324761Y-68142380D01*
X60229523Y-68094761D01*
X60181904Y-68047142D01*
X60134285Y-67951904D01*
X60086666Y-67761428D01*
X60086666Y-67523333D01*
X60134285Y-67332857D01*
X60181904Y-67237619D01*
X60229523Y-67190000D01*
X60324761Y-67142380D01*
X29788095Y-86202380D02*
X29788095Y-86916666D01*
X29740476Y-87059523D01*
X29645238Y-87154761D01*
X29502380Y-87202380D01*
X29407142Y-87202380D01*
X30788095Y-87202380D02*
X30216666Y-87202380D01*
X30502380Y-87202380D02*
X30502380Y-86202380D01*
X30407142Y-86345238D01*
X30311904Y-86440476D01*
X30216666Y-86488095D01*
X31407142Y-86202380D02*
X31502380Y-86202380D01*
X31597619Y-86250000D01*
X31645238Y-86297619D01*
X31692857Y-86392857D01*
X31740476Y-86583333D01*
X31740476Y-86821428D01*
X31692857Y-87011904D01*
X31645238Y-87107142D01*
X31597619Y-87154761D01*
X31502380Y-87202380D01*
X31407142Y-87202380D01*
X31311904Y-87154761D01*
X31264285Y-87107142D01*
X31216666Y-87011904D01*
X31169047Y-86821428D01*
X31169047Y-86583333D01*
X31216666Y-86392857D01*
X31264285Y-86297619D01*
X31311904Y-86250000D01*
X31407142Y-86202380D01*
X32359523Y-86202380D02*
X32454761Y-86202380D01*
X32550000Y-86250000D01*
X32597619Y-86297619D01*
X32645238Y-86392857D01*
X32692857Y-86583333D01*
X32692857Y-86821428D01*
X32645238Y-87011904D01*
X32597619Y-87107142D01*
X32550000Y-87154761D01*
X32454761Y-87202380D01*
X32359523Y-87202380D01*
X32264285Y-87154761D01*
X32216666Y-87107142D01*
X32169047Y-87011904D01*
X32121428Y-86821428D01*
X32121428Y-86583333D01*
X32169047Y-86392857D01*
X32216666Y-86297619D01*
X32264285Y-86250000D01*
X32359523Y-86202380D01*
X33311904Y-86202380D02*
X33407142Y-86202380D01*
X33502380Y-86250000D01*
X33550000Y-86297619D01*
X33597619Y-86392857D01*
X33645238Y-86583333D01*
X33645238Y-86821428D01*
X33597619Y-87011904D01*
X33550000Y-87107142D01*
X33502380Y-87154761D01*
X33407142Y-87202380D01*
X33311904Y-87202380D01*
X33216666Y-87154761D01*
X33169047Y-87107142D01*
X33121428Y-87011904D01*
X33073809Y-86821428D01*
X33073809Y-86583333D01*
X33121428Y-86392857D01*
X33169047Y-86297619D01*
X33216666Y-86250000D01*
X33311904Y-86202380D01*
X36753333Y-73922380D02*
X36753333Y-72922380D01*
X36991428Y-72922380D01*
X37134285Y-72970000D01*
X37229523Y-73065238D01*
X37277142Y-73160476D01*
X37324761Y-73350952D01*
X37324761Y-73493809D01*
X37277142Y-73684285D01*
X37229523Y-73779523D01*
X37134285Y-73874761D01*
X36991428Y-73922380D01*
X36753333Y-73922380D01*
X38277142Y-73922380D02*
X37705714Y-73922380D01*
X37991428Y-73922380D02*
X37991428Y-72922380D01*
X37896190Y-73065238D01*
X37800952Y-73160476D01*
X37705714Y-73208095D01*
X38896190Y-72922380D02*
X38991428Y-72922380D01*
X39086666Y-72970000D01*
X39134285Y-73017619D01*
X39181904Y-73112857D01*
X39229523Y-73303333D01*
X39229523Y-73541428D01*
X39181904Y-73731904D01*
X39134285Y-73827142D01*
X39086666Y-73874761D01*
X38991428Y-73922380D01*
X38896190Y-73922380D01*
X38800952Y-73874761D01*
X38753333Y-73827142D01*
X38705714Y-73731904D01*
X38658095Y-73541428D01*
X38658095Y-73303333D01*
X38705714Y-73112857D01*
X38753333Y-73017619D01*
X38800952Y-72970000D01*
X38896190Y-72922380D01*
X39848571Y-72922380D02*
X39943809Y-72922380D01*
X40039047Y-72970000D01*
X40086666Y-73017619D01*
X40134285Y-73112857D01*
X40181904Y-73303333D01*
X40181904Y-73541428D01*
X40134285Y-73731904D01*
X40086666Y-73827142D01*
X40039047Y-73874761D01*
X39943809Y-73922380D01*
X39848571Y-73922380D01*
X39753333Y-73874761D01*
X39705714Y-73827142D01*
X39658095Y-73731904D01*
X39610476Y-73541428D01*
X39610476Y-73303333D01*
X39658095Y-73112857D01*
X39705714Y-73017619D01*
X39753333Y-72970000D01*
X39848571Y-72922380D01*
X40800952Y-72922380D02*
X40896190Y-72922380D01*
X40991428Y-72970000D01*
X41039047Y-73017619D01*
X41086666Y-73112857D01*
X41134285Y-73303333D01*
X41134285Y-73541428D01*
X41086666Y-73731904D01*
X41039047Y-73827142D01*
X40991428Y-73874761D01*
X40896190Y-73922380D01*
X40800952Y-73922380D01*
X40705714Y-73874761D01*
X40658095Y-73827142D01*
X40610476Y-73731904D01*
X40562857Y-73541428D01*
X40562857Y-73303333D01*
X40610476Y-73112857D01*
X40658095Y-73017619D01*
X40705714Y-72970000D01*
X40800952Y-72922380D01*
X43738095Y-73552380D02*
X43738095Y-72552380D01*
X44309523Y-73552380D02*
X43880952Y-72980952D01*
X44309523Y-72552380D02*
X43738095Y-73123809D01*
X155452380Y-75119047D02*
X154976190Y-75452380D01*
X155452380Y-75690476D02*
X154452380Y-75690476D01*
X154452380Y-75309523D01*
X154500000Y-75214285D01*
X154547619Y-75166666D01*
X154642857Y-75119047D01*
X154785714Y-75119047D01*
X154880952Y-75166666D01*
X154928571Y-75214285D01*
X154976190Y-75309523D01*
X154976190Y-75690476D01*
X155452380Y-74690476D02*
X154452380Y-74690476D01*
X155452380Y-74119047D01*
X154452380Y-74119047D01*
X154547619Y-73690476D02*
X154500000Y-73642857D01*
X154452380Y-73547619D01*
X154452380Y-73309523D01*
X154500000Y-73214285D01*
X154547619Y-73166666D01*
X154642857Y-73119047D01*
X154738095Y-73119047D01*
X154880952Y-73166666D01*
X155452380Y-73738095D01*
X155452380Y-73119047D01*
X155452380Y-72166666D02*
X155452380Y-72738095D01*
X155452380Y-72452380D02*
X154452380Y-72452380D01*
X154595238Y-72547619D01*
X154690476Y-72642857D01*
X154738095Y-72738095D01*
X155452380Y-71214285D02*
X155452380Y-71785714D01*
X155452380Y-71500000D02*
X154452380Y-71500000D01*
X154595238Y-71595238D01*
X154690476Y-71690476D01*
X154738095Y-71785714D01*
X154452380Y-70595238D02*
X154452380Y-70500000D01*
X154500000Y-70404761D01*
X154547619Y-70357142D01*
X154642857Y-70309523D01*
X154833333Y-70261904D01*
X155071428Y-70261904D01*
X155261904Y-70309523D01*
X155357142Y-70357142D01*
X155404761Y-70404761D01*
X155452380Y-70500000D01*
X155452380Y-70595238D01*
X155404761Y-70690476D01*
X155357142Y-70738095D01*
X155261904Y-70785714D01*
X155071428Y-70833333D01*
X154833333Y-70833333D01*
X154642857Y-70785714D01*
X154547619Y-70738095D01*
X154500000Y-70690476D01*
X154452380Y-70595238D01*
X147052380Y-90190476D02*
X147861904Y-90190476D01*
X147957142Y-90142857D01*
X148004761Y-90095238D01*
X148052380Y-90000000D01*
X148052380Y-89809523D01*
X148004761Y-89714285D01*
X147957142Y-89666666D01*
X147861904Y-89619047D01*
X147052380Y-89619047D01*
X147147619Y-89190476D02*
X147100000Y-89142857D01*
X147052380Y-89047619D01*
X147052380Y-88809523D01*
X147100000Y-88714285D01*
X147147619Y-88666666D01*
X147242857Y-88619047D01*
X147338095Y-88619047D01*
X147480952Y-88666666D01*
X148052380Y-89238095D01*
X148052380Y-88619047D01*
X148052380Y-87666666D02*
X148052380Y-88238095D01*
X148052380Y-87952380D02*
X147052380Y-87952380D01*
X147195238Y-88047619D01*
X147290476Y-88142857D01*
X147338095Y-88238095D01*
X148052380Y-86714285D02*
X148052380Y-87285714D01*
X148052380Y-87000000D02*
X147052380Y-87000000D01*
X147195238Y-87095238D01*
X147290476Y-87190476D01*
X147338095Y-87285714D01*
X147052380Y-86095238D02*
X147052380Y-86000000D01*
X147100000Y-85904761D01*
X147147619Y-85857142D01*
X147242857Y-85809523D01*
X147433333Y-85761904D01*
X147671428Y-85761904D01*
X147861904Y-85809523D01*
X147957142Y-85857142D01*
X148004761Y-85904761D01*
X148052380Y-86000000D01*
X148052380Y-86095238D01*
X148004761Y-86190476D01*
X147957142Y-86238095D01*
X147861904Y-86285714D01*
X147671428Y-86333333D01*
X147433333Y-86333333D01*
X147242857Y-86285714D01*
X147147619Y-86238095D01*
X147100000Y-86190476D01*
X147052380Y-86095238D01*
X64809523Y-35172380D02*
X64809523Y-35981904D01*
X64857142Y-36077142D01*
X64904761Y-36124761D01*
X65000000Y-36172380D01*
X65190476Y-36172380D01*
X65285714Y-36124761D01*
X65333333Y-36077142D01*
X65380952Y-35981904D01*
X65380952Y-35172380D01*
X65809523Y-35267619D02*
X65857142Y-35220000D01*
X65952380Y-35172380D01*
X66190476Y-35172380D01*
X66285714Y-35220000D01*
X66333333Y-35267619D01*
X66380952Y-35362857D01*
X66380952Y-35458095D01*
X66333333Y-35600952D01*
X65761904Y-36172380D01*
X66380952Y-36172380D01*
X66761904Y-35267619D02*
X66809523Y-35220000D01*
X66904761Y-35172380D01*
X67142857Y-35172380D01*
X67238095Y-35220000D01*
X67285714Y-35267619D01*
X67333333Y-35362857D01*
X67333333Y-35458095D01*
X67285714Y-35600952D01*
X66714285Y-36172380D01*
X67333333Y-36172380D01*
X68285714Y-36172380D02*
X67714285Y-36172380D01*
X68000000Y-36172380D02*
X68000000Y-35172380D01*
X67904761Y-35315238D01*
X67809523Y-35410476D01*
X67714285Y-35458095D01*
X68904761Y-35172380D02*
X69000000Y-35172380D01*
X69095238Y-35220000D01*
X69142857Y-35267619D01*
X69190476Y-35362857D01*
X69238095Y-35553333D01*
X69238095Y-35791428D01*
X69190476Y-35981904D01*
X69142857Y-36077142D01*
X69095238Y-36124761D01*
X69000000Y-36172380D01*
X68904761Y-36172380D01*
X68809523Y-36124761D01*
X68761904Y-36077142D01*
X68714285Y-35981904D01*
X68666666Y-35791428D01*
X68666666Y-35553333D01*
X68714285Y-35362857D01*
X68761904Y-35267619D01*
X68809523Y-35220000D01*
X68904761Y-35172380D01*
X103809523Y-37172380D02*
X103809523Y-37981904D01*
X103857142Y-38077142D01*
X103904761Y-38124761D01*
X104000000Y-38172380D01*
X104190476Y-38172380D01*
X104285714Y-38124761D01*
X104333333Y-38077142D01*
X104380952Y-37981904D01*
X104380952Y-37172380D01*
X104809523Y-37267619D02*
X104857142Y-37220000D01*
X104952380Y-37172380D01*
X105190476Y-37172380D01*
X105285714Y-37220000D01*
X105333333Y-37267619D01*
X105380952Y-37362857D01*
X105380952Y-37458095D01*
X105333333Y-37600952D01*
X104761904Y-38172380D01*
X105380952Y-38172380D01*
X105761904Y-37267619D02*
X105809523Y-37220000D01*
X105904761Y-37172380D01*
X106142857Y-37172380D01*
X106238095Y-37220000D01*
X106285714Y-37267619D01*
X106333333Y-37362857D01*
X106333333Y-37458095D01*
X106285714Y-37600952D01*
X105714285Y-38172380D01*
X106333333Y-38172380D01*
X106714285Y-37267619D02*
X106761904Y-37220000D01*
X106857142Y-37172380D01*
X107095238Y-37172380D01*
X107190476Y-37220000D01*
X107238095Y-37267619D01*
X107285714Y-37362857D01*
X107285714Y-37458095D01*
X107238095Y-37600952D01*
X106666666Y-38172380D01*
X107285714Y-38172380D01*
X108238095Y-38172380D02*
X107666666Y-38172380D01*
X107952380Y-38172380D02*
X107952380Y-37172380D01*
X107857142Y-37315238D01*
X107761904Y-37410476D01*
X107666666Y-37458095D01*
X90141904Y-121712380D02*
X90808571Y-122712380D01*
X90808571Y-121712380D02*
X90141904Y-122712380D01*
X91141904Y-121807619D02*
X91189523Y-121760000D01*
X91284761Y-121712380D01*
X91522857Y-121712380D01*
X91618095Y-121760000D01*
X91665714Y-121807619D01*
X91713333Y-121902857D01*
X91713333Y-121998095D01*
X91665714Y-122140952D01*
X91094285Y-122712380D01*
X91713333Y-122712380D01*
X92665714Y-122712380D02*
X92094285Y-122712380D01*
X92380000Y-122712380D02*
X92380000Y-121712380D01*
X92284761Y-121855238D01*
X92189523Y-121950476D01*
X92094285Y-121998095D01*
X93284761Y-121712380D02*
X93380000Y-121712380D01*
X93475238Y-121760000D01*
X93522857Y-121807619D01*
X93570476Y-121902857D01*
X93618095Y-122093333D01*
X93618095Y-122331428D01*
X93570476Y-122521904D01*
X93522857Y-122617142D01*
X93475238Y-122664761D01*
X93380000Y-122712380D01*
X93284761Y-122712380D01*
X93189523Y-122664761D01*
X93141904Y-122617142D01*
X93094285Y-122521904D01*
X93046666Y-122331428D01*
X93046666Y-122093333D01*
X93094285Y-121902857D01*
X93141904Y-121807619D01*
X93189523Y-121760000D01*
X93284761Y-121712380D01*
X94237142Y-121712380D02*
X94332380Y-121712380D01*
X94427619Y-121760000D01*
X94475238Y-121807619D01*
X94522857Y-121902857D01*
X94570476Y-122093333D01*
X94570476Y-122331428D01*
X94522857Y-122521904D01*
X94475238Y-122617142D01*
X94427619Y-122664761D01*
X94332380Y-122712380D01*
X94237142Y-122712380D01*
X94141904Y-122664761D01*
X94094285Y-122617142D01*
X94046666Y-122521904D01*
X93999047Y-122331428D01*
X93999047Y-122093333D01*
X94046666Y-121902857D01*
X94094285Y-121807619D01*
X94141904Y-121760000D01*
X94237142Y-121712380D01*
X123619523Y-36122380D02*
X123619523Y-36931904D01*
X123667142Y-37027142D01*
X123714761Y-37074761D01*
X123810000Y-37122380D01*
X124000476Y-37122380D01*
X124095714Y-37074761D01*
X124143333Y-37027142D01*
X124190952Y-36931904D01*
X124190952Y-36122380D01*
X124619523Y-36217619D02*
X124667142Y-36170000D01*
X124762380Y-36122380D01*
X125000476Y-36122380D01*
X125095714Y-36170000D01*
X125143333Y-36217619D01*
X125190952Y-36312857D01*
X125190952Y-36408095D01*
X125143333Y-36550952D01*
X124571904Y-37122380D01*
X125190952Y-37122380D01*
X125571904Y-36217619D02*
X125619523Y-36170000D01*
X125714761Y-36122380D01*
X125952857Y-36122380D01*
X126048095Y-36170000D01*
X126095714Y-36217619D01*
X126143333Y-36312857D01*
X126143333Y-36408095D01*
X126095714Y-36550952D01*
X125524285Y-37122380D01*
X126143333Y-37122380D01*
X126524285Y-36217619D02*
X126571904Y-36170000D01*
X126667142Y-36122380D01*
X126905238Y-36122380D01*
X127000476Y-36170000D01*
X127048095Y-36217619D01*
X127095714Y-36312857D01*
X127095714Y-36408095D01*
X127048095Y-36550952D01*
X126476666Y-37122380D01*
X127095714Y-37122380D01*
X127714761Y-36122380D02*
X127810000Y-36122380D01*
X127905238Y-36170000D01*
X127952857Y-36217619D01*
X128000476Y-36312857D01*
X128048095Y-36503333D01*
X128048095Y-36741428D01*
X128000476Y-36931904D01*
X127952857Y-37027142D01*
X127905238Y-37074761D01*
X127810000Y-37122380D01*
X127714761Y-37122380D01*
X127619523Y-37074761D01*
X127571904Y-37027142D01*
X127524285Y-36931904D01*
X127476666Y-36741428D01*
X127476666Y-36503333D01*
X127524285Y-36312857D01*
X127571904Y-36217619D01*
X127619523Y-36170000D01*
X127714761Y-36122380D01*
X48809523Y-101172380D02*
X48809523Y-101981904D01*
X48857142Y-102077142D01*
X48904761Y-102124761D01*
X49000000Y-102172380D01*
X49190476Y-102172380D01*
X49285714Y-102124761D01*
X49333333Y-102077142D01*
X49380952Y-101981904D01*
X49380952Y-101172380D01*
X49809523Y-101267619D02*
X49857142Y-101220000D01*
X49952380Y-101172380D01*
X50190476Y-101172380D01*
X50285714Y-101220000D01*
X50333333Y-101267619D01*
X50380952Y-101362857D01*
X50380952Y-101458095D01*
X50333333Y-101600952D01*
X49761904Y-102172380D01*
X50380952Y-102172380D01*
X51333333Y-102172380D02*
X50761904Y-102172380D01*
X51047619Y-102172380D02*
X51047619Y-101172380D01*
X50952380Y-101315238D01*
X50857142Y-101410476D01*
X50761904Y-101458095D01*
X51714285Y-101267619D02*
X51761904Y-101220000D01*
X51857142Y-101172380D01*
X52095238Y-101172380D01*
X52190476Y-101220000D01*
X52238095Y-101267619D01*
X52285714Y-101362857D01*
X52285714Y-101458095D01*
X52238095Y-101600952D01*
X51666666Y-102172380D01*
X52285714Y-102172380D01*
X52904761Y-101172380D02*
X53000000Y-101172380D01*
X53095238Y-101220000D01*
X53142857Y-101267619D01*
X53190476Y-101362857D01*
X53238095Y-101553333D01*
X53238095Y-101791428D01*
X53190476Y-101981904D01*
X53142857Y-102077142D01*
X53095238Y-102124761D01*
X53000000Y-102172380D01*
X52904761Y-102172380D01*
X52809523Y-102124761D01*
X52761904Y-102077142D01*
X52714285Y-101981904D01*
X52666666Y-101791428D01*
X52666666Y-101553333D01*
X52714285Y-101362857D01*
X52761904Y-101267619D01*
X52809523Y-101220000D01*
X52904761Y-101172380D01*
X114122380Y-118380476D02*
X114931904Y-118380476D01*
X115027142Y-118332857D01*
X115074761Y-118285238D01*
X115122380Y-118190000D01*
X115122380Y-117999523D01*
X115074761Y-117904285D01*
X115027142Y-117856666D01*
X114931904Y-117809047D01*
X114122380Y-117809047D01*
X114217619Y-117380476D02*
X114170000Y-117332857D01*
X114122380Y-117237619D01*
X114122380Y-116999523D01*
X114170000Y-116904285D01*
X114217619Y-116856666D01*
X114312857Y-116809047D01*
X114408095Y-116809047D01*
X114550952Y-116856666D01*
X115122380Y-117428095D01*
X115122380Y-116809047D01*
X115122380Y-115856666D02*
X115122380Y-116428095D01*
X115122380Y-116142380D02*
X114122380Y-116142380D01*
X114265238Y-116237619D01*
X114360476Y-116332857D01*
X114408095Y-116428095D01*
X114122380Y-115237619D02*
X114122380Y-115142380D01*
X114170000Y-115047142D01*
X114217619Y-114999523D01*
X114312857Y-114951904D01*
X114503333Y-114904285D01*
X114741428Y-114904285D01*
X114931904Y-114951904D01*
X115027142Y-114999523D01*
X115074761Y-115047142D01*
X115122380Y-115142380D01*
X115122380Y-115237619D01*
X115074761Y-115332857D01*
X115027142Y-115380476D01*
X114931904Y-115428095D01*
X114741428Y-115475714D01*
X114503333Y-115475714D01*
X114312857Y-115428095D01*
X114217619Y-115380476D01*
X114170000Y-115332857D01*
X114122380Y-115237619D01*
X115122380Y-113951904D02*
X115122380Y-114523333D01*
X115122380Y-114237619D02*
X114122380Y-114237619D01*
X114265238Y-114332857D01*
X114360476Y-114428095D01*
X114408095Y-114523333D01*
X150926095Y-104898761D02*
X151068952Y-104946380D01*
X151307047Y-104946380D01*
X151402285Y-104898761D01*
X151449904Y-104851142D01*
X151497523Y-104755904D01*
X151497523Y-104660666D01*
X151449904Y-104565428D01*
X151402285Y-104517809D01*
X151307047Y-104470190D01*
X151116571Y-104422571D01*
X151021333Y-104374952D01*
X150973714Y-104327333D01*
X150926095Y-104232095D01*
X150926095Y-104136857D01*
X150973714Y-104041619D01*
X151021333Y-103994000D01*
X151116571Y-103946380D01*
X151354666Y-103946380D01*
X151497523Y-103994000D01*
X151830857Y-103946380D02*
X152068952Y-104946380D01*
X152259428Y-104232095D01*
X152449904Y-104946380D01*
X152688000Y-103946380D01*
X153021333Y-104041619D02*
X153068952Y-103994000D01*
X153164190Y-103946380D01*
X153402285Y-103946380D01*
X153497523Y-103994000D01*
X153545142Y-104041619D01*
X153592761Y-104136857D01*
X153592761Y-104232095D01*
X153545142Y-104374952D01*
X152973714Y-104946380D01*
X153592761Y-104946380D01*
X154545142Y-104946380D02*
X153973714Y-104946380D01*
X154259428Y-104946380D02*
X154259428Y-103946380D01*
X154164190Y-104089238D01*
X154068952Y-104184476D01*
X153973714Y-104232095D01*
X155497523Y-104946380D02*
X154926095Y-104946380D01*
X155211809Y-104946380D02*
X155211809Y-103946380D01*
X155116571Y-104089238D01*
X155021333Y-104184476D01*
X154926095Y-104232095D01*
X156116571Y-103946380D02*
X156211809Y-103946380D01*
X156307047Y-103994000D01*
X156354666Y-104041619D01*
X156402285Y-104136857D01*
X156449904Y-104327333D01*
X156449904Y-104565428D01*
X156402285Y-104755904D01*
X156354666Y-104851142D01*
X156307047Y-104898761D01*
X156211809Y-104946380D01*
X156116571Y-104946380D01*
X156021333Y-104898761D01*
X155973714Y-104851142D01*
X155926095Y-104755904D01*
X155878476Y-104565428D01*
X155878476Y-104327333D01*
X155926095Y-104136857D01*
X155973714Y-104041619D01*
X156021333Y-103994000D01*
X156116571Y-103946380D01*
X130238095Y-36462380D02*
X130238095Y-37176666D01*
X130190476Y-37319523D01*
X130095238Y-37414761D01*
X129952380Y-37462380D01*
X129857142Y-37462380D01*
X130666666Y-36557619D02*
X130714285Y-36510000D01*
X130809523Y-36462380D01*
X131047619Y-36462380D01*
X131142857Y-36510000D01*
X131190476Y-36557619D01*
X131238095Y-36652857D01*
X131238095Y-36748095D01*
X131190476Y-36890952D01*
X130619047Y-37462380D01*
X131238095Y-37462380D01*
X131619047Y-36557619D02*
X131666666Y-36510000D01*
X131761904Y-36462380D01*
X132000000Y-36462380D01*
X132095238Y-36510000D01*
X132142857Y-36557619D01*
X132190476Y-36652857D01*
X132190476Y-36748095D01*
X132142857Y-36890952D01*
X131571428Y-37462380D01*
X132190476Y-37462380D01*
X132571428Y-36557619D02*
X132619047Y-36510000D01*
X132714285Y-36462380D01*
X132952380Y-36462380D01*
X133047619Y-36510000D01*
X133095238Y-36557619D01*
X133142857Y-36652857D01*
X133142857Y-36748095D01*
X133095238Y-36890952D01*
X132523809Y-37462380D01*
X133142857Y-37462380D01*
X133761904Y-36462380D02*
X133857142Y-36462380D01*
X133952380Y-36510000D01*
X134000000Y-36557619D01*
X134047619Y-36652857D01*
X134095238Y-36843333D01*
X134095238Y-37081428D01*
X134047619Y-37271904D01*
X134000000Y-37367142D01*
X133952380Y-37414761D01*
X133857142Y-37462380D01*
X133761904Y-37462380D01*
X133666666Y-37414761D01*
X133619047Y-37367142D01*
X133571428Y-37271904D01*
X133523809Y-37081428D01*
X133523809Y-36843333D01*
X133571428Y-36652857D01*
X133619047Y-36557619D01*
X133666666Y-36510000D01*
X133761904Y-36462380D01*
X47238095Y-30272380D02*
X47238095Y-30986666D01*
X47190476Y-31129523D01*
X47095238Y-31224761D01*
X46952380Y-31272380D01*
X46857142Y-31272380D01*
X47666666Y-30367619D02*
X47714285Y-30320000D01*
X47809523Y-30272380D01*
X48047619Y-30272380D01*
X48142857Y-30320000D01*
X48190476Y-30367619D01*
X48238095Y-30462857D01*
X48238095Y-30558095D01*
X48190476Y-30700952D01*
X47619047Y-31272380D01*
X48238095Y-31272380D01*
X48619047Y-30367619D02*
X48666666Y-30320000D01*
X48761904Y-30272380D01*
X49000000Y-30272380D01*
X49095238Y-30320000D01*
X49142857Y-30367619D01*
X49190476Y-30462857D01*
X49190476Y-30558095D01*
X49142857Y-30700952D01*
X48571428Y-31272380D01*
X49190476Y-31272380D01*
X50142857Y-31272380D02*
X49571428Y-31272380D01*
X49857142Y-31272380D02*
X49857142Y-30272380D01*
X49761904Y-30415238D01*
X49666666Y-30510476D01*
X49571428Y-30558095D01*
X50761904Y-30272380D02*
X50857142Y-30272380D01*
X50952380Y-30320000D01*
X51000000Y-30367619D01*
X51047619Y-30462857D01*
X51095238Y-30653333D01*
X51095238Y-30891428D01*
X51047619Y-31081904D01*
X51000000Y-31177142D01*
X50952380Y-31224761D01*
X50857142Y-31272380D01*
X50761904Y-31272380D01*
X50666666Y-31224761D01*
X50619047Y-31177142D01*
X50571428Y-31081904D01*
X50523809Y-30891428D01*
X50523809Y-30653333D01*
X50571428Y-30462857D01*
X50619047Y-30367619D01*
X50666666Y-30320000D01*
X50761904Y-30272380D01*
X75152380Y-35625904D02*
X75866666Y-35625904D01*
X76009523Y-35673523D01*
X76104761Y-35768761D01*
X76152380Y-35911619D01*
X76152380Y-36006857D01*
X75247619Y-35197333D02*
X75200000Y-35149714D01*
X75152380Y-35054476D01*
X75152380Y-34816380D01*
X75200000Y-34721142D01*
X75247619Y-34673523D01*
X75342857Y-34625904D01*
X75438095Y-34625904D01*
X75580952Y-34673523D01*
X76152380Y-35244952D01*
X76152380Y-34625904D01*
X75247619Y-34244952D02*
X75200000Y-34197333D01*
X75152380Y-34102095D01*
X75152380Y-33864000D01*
X75200000Y-33768761D01*
X75247619Y-33721142D01*
X75342857Y-33673523D01*
X75438095Y-33673523D01*
X75580952Y-33721142D01*
X76152380Y-34292571D01*
X76152380Y-33673523D01*
X75152380Y-33054476D02*
X75152380Y-32959238D01*
X75200000Y-32864000D01*
X75247619Y-32816380D01*
X75342857Y-32768761D01*
X75533333Y-32721142D01*
X75771428Y-32721142D01*
X75961904Y-32768761D01*
X76057142Y-32816380D01*
X76104761Y-32864000D01*
X76152380Y-32959238D01*
X76152380Y-33054476D01*
X76104761Y-33149714D01*
X76057142Y-33197333D01*
X75961904Y-33244952D01*
X75771428Y-33292571D01*
X75533333Y-33292571D01*
X75342857Y-33244952D01*
X75247619Y-33197333D01*
X75200000Y-33149714D01*
X75152380Y-33054476D01*
X76152380Y-31768761D02*
X76152380Y-32340190D01*
X76152380Y-32054476D02*
X75152380Y-32054476D01*
X75295238Y-32149714D01*
X75390476Y-32244952D01*
X75438095Y-32340190D01*
X33478095Y-115222380D02*
X33478095Y-115936666D01*
X33430476Y-116079523D01*
X33335238Y-116174761D01*
X33192380Y-116222380D01*
X33097142Y-116222380D01*
X33906666Y-115317619D02*
X33954285Y-115270000D01*
X34049523Y-115222380D01*
X34287619Y-115222380D01*
X34382857Y-115270000D01*
X34430476Y-115317619D01*
X34478095Y-115412857D01*
X34478095Y-115508095D01*
X34430476Y-115650952D01*
X33859047Y-116222380D01*
X34478095Y-116222380D01*
X35430476Y-116222380D02*
X34859047Y-116222380D01*
X35144761Y-116222380D02*
X35144761Y-115222380D01*
X35049523Y-115365238D01*
X34954285Y-115460476D01*
X34859047Y-115508095D01*
X35811428Y-115317619D02*
X35859047Y-115270000D01*
X35954285Y-115222380D01*
X36192380Y-115222380D01*
X36287619Y-115270000D01*
X36335238Y-115317619D01*
X36382857Y-115412857D01*
X36382857Y-115508095D01*
X36335238Y-115650952D01*
X35763809Y-116222380D01*
X36382857Y-116222380D01*
X37001904Y-115222380D02*
X37097142Y-115222380D01*
X37192380Y-115270000D01*
X37240000Y-115317619D01*
X37287619Y-115412857D01*
X37335238Y-115603333D01*
X37335238Y-115841428D01*
X37287619Y-116031904D01*
X37240000Y-116127142D01*
X37192380Y-116174761D01*
X37097142Y-116222380D01*
X37001904Y-116222380D01*
X36906666Y-116174761D01*
X36859047Y-116127142D01*
X36811428Y-116031904D01*
X36763809Y-115841428D01*
X36763809Y-115603333D01*
X36811428Y-115412857D01*
X36859047Y-115317619D01*
X36906666Y-115270000D01*
X37001904Y-115222380D01*
X149674761Y-73097142D02*
X149627142Y-73144761D01*
X149484285Y-73192380D01*
X149389047Y-73192380D01*
X149246190Y-73144761D01*
X149150952Y-73049523D01*
X149103333Y-72954285D01*
X149055714Y-72763809D01*
X149055714Y-72620952D01*
X149103333Y-72430476D01*
X149150952Y-72335238D01*
X149246190Y-72240000D01*
X149389047Y-72192380D01*
X149484285Y-72192380D01*
X149627142Y-72240000D01*
X149674761Y-72287619D01*
X150055714Y-72287619D02*
X150103333Y-72240000D01*
X150198571Y-72192380D01*
X150436666Y-72192380D01*
X150531904Y-72240000D01*
X150579523Y-72287619D01*
X150627142Y-72382857D01*
X150627142Y-72478095D01*
X150579523Y-72620952D01*
X150008095Y-73192380D01*
X150627142Y-73192380D01*
X151579523Y-73192380D02*
X151008095Y-73192380D01*
X151293809Y-73192380D02*
X151293809Y-72192380D01*
X151198571Y-72335238D01*
X151103333Y-72430476D01*
X151008095Y-72478095D01*
X152531904Y-73192380D02*
X151960476Y-73192380D01*
X152246190Y-73192380D02*
X152246190Y-72192380D01*
X152150952Y-72335238D01*
X152055714Y-72430476D01*
X151960476Y-72478095D01*
X152865238Y-72192380D02*
X153484285Y-72192380D01*
X153150952Y-72573333D01*
X153293809Y-72573333D01*
X153389047Y-72620952D01*
X153436666Y-72668571D01*
X153484285Y-72763809D01*
X153484285Y-73001904D01*
X153436666Y-73097142D01*
X153389047Y-73144761D01*
X153293809Y-73192380D01*
X153008095Y-73192380D01*
X152912857Y-73144761D01*
X152865238Y-73097142D01*
X155857142Y-85345238D02*
X155904761Y-85392857D01*
X155952380Y-85535714D01*
X155952380Y-85630952D01*
X155904761Y-85773809D01*
X155809523Y-85869047D01*
X155714285Y-85916666D01*
X155523809Y-85964285D01*
X155380952Y-85964285D01*
X155190476Y-85916666D01*
X155095238Y-85869047D01*
X155000000Y-85773809D01*
X154952380Y-85630952D01*
X154952380Y-85535714D01*
X155000000Y-85392857D01*
X155047619Y-85345238D01*
X155047619Y-84964285D02*
X155000000Y-84916666D01*
X154952380Y-84821428D01*
X154952380Y-84583333D01*
X155000000Y-84488095D01*
X155047619Y-84440476D01*
X155142857Y-84392857D01*
X155238095Y-84392857D01*
X155380952Y-84440476D01*
X155952380Y-85011904D01*
X155952380Y-84392857D01*
X155952380Y-83440476D02*
X155952380Y-84011904D01*
X155952380Y-83726190D02*
X154952380Y-83726190D01*
X155095238Y-83821428D01*
X155190476Y-83916666D01*
X155238095Y-84011904D01*
X155952380Y-82488095D02*
X155952380Y-83059523D01*
X155952380Y-82773809D02*
X154952380Y-82773809D01*
X155095238Y-82869047D01*
X155190476Y-82964285D01*
X155238095Y-83059523D01*
X155047619Y-82107142D02*
X155000000Y-82059523D01*
X154952380Y-81964285D01*
X154952380Y-81726190D01*
X155000000Y-81630952D01*
X155047619Y-81583333D01*
X155142857Y-81535714D01*
X155238095Y-81535714D01*
X155380952Y-81583333D01*
X155952380Y-82154761D01*
X155952380Y-81535714D01*
X149654761Y-67857142D02*
X149607142Y-67904761D01*
X149464285Y-67952380D01*
X149369047Y-67952380D01*
X149226190Y-67904761D01*
X149130952Y-67809523D01*
X149083333Y-67714285D01*
X149035714Y-67523809D01*
X149035714Y-67380952D01*
X149083333Y-67190476D01*
X149130952Y-67095238D01*
X149226190Y-67000000D01*
X149369047Y-66952380D01*
X149464285Y-66952380D01*
X149607142Y-67000000D01*
X149654761Y-67047619D01*
X150035714Y-67047619D02*
X150083333Y-67000000D01*
X150178571Y-66952380D01*
X150416666Y-66952380D01*
X150511904Y-67000000D01*
X150559523Y-67047619D01*
X150607142Y-67142857D01*
X150607142Y-67238095D01*
X150559523Y-67380952D01*
X149988095Y-67952380D01*
X150607142Y-67952380D01*
X151559523Y-67952380D02*
X150988095Y-67952380D01*
X151273809Y-67952380D02*
X151273809Y-66952380D01*
X151178571Y-67095238D01*
X151083333Y-67190476D01*
X150988095Y-67238095D01*
X152511904Y-67952380D02*
X151940476Y-67952380D01*
X152226190Y-67952380D02*
X152226190Y-66952380D01*
X152130952Y-67095238D01*
X152035714Y-67190476D01*
X151940476Y-67238095D01*
X153464285Y-67952380D02*
X152892857Y-67952380D01*
X153178571Y-67952380D02*
X153178571Y-66952380D01*
X153083333Y-67095238D01*
X152988095Y-67190476D01*
X152892857Y-67238095D01*
X149674761Y-62817142D02*
X149627142Y-62864761D01*
X149484285Y-62912380D01*
X149389047Y-62912380D01*
X149246190Y-62864761D01*
X149150952Y-62769523D01*
X149103333Y-62674285D01*
X149055714Y-62483809D01*
X149055714Y-62340952D01*
X149103333Y-62150476D01*
X149150952Y-62055238D01*
X149246190Y-61960000D01*
X149389047Y-61912380D01*
X149484285Y-61912380D01*
X149627142Y-61960000D01*
X149674761Y-62007619D01*
X150055714Y-62007619D02*
X150103333Y-61960000D01*
X150198571Y-61912380D01*
X150436666Y-61912380D01*
X150531904Y-61960000D01*
X150579523Y-62007619D01*
X150627142Y-62102857D01*
X150627142Y-62198095D01*
X150579523Y-62340952D01*
X150008095Y-62912380D01*
X150627142Y-62912380D01*
X151579523Y-62912380D02*
X151008095Y-62912380D01*
X151293809Y-62912380D02*
X151293809Y-61912380D01*
X151198571Y-62055238D01*
X151103333Y-62150476D01*
X151008095Y-62198095D01*
X152531904Y-62912380D02*
X151960476Y-62912380D01*
X152246190Y-62912380D02*
X152246190Y-61912380D01*
X152150952Y-62055238D01*
X152055714Y-62150476D01*
X151960476Y-62198095D01*
X153150952Y-61912380D02*
X153246190Y-61912380D01*
X153341428Y-61960000D01*
X153389047Y-62007619D01*
X153436666Y-62102857D01*
X153484285Y-62293333D01*
X153484285Y-62531428D01*
X153436666Y-62721904D01*
X153389047Y-62817142D01*
X153341428Y-62864761D01*
X153246190Y-62912380D01*
X153150952Y-62912380D01*
X153055714Y-62864761D01*
X153008095Y-62817142D01*
X152960476Y-62721904D01*
X152912857Y-62531428D01*
X152912857Y-62293333D01*
X152960476Y-62102857D01*
X153008095Y-62007619D01*
X153055714Y-61960000D01*
X153150952Y-61912380D01*
X108459523Y-72202380D02*
X108459523Y-73011904D01*
X108507142Y-73107142D01*
X108554761Y-73154761D01*
X108650000Y-73202380D01*
X108840476Y-73202380D01*
X108935714Y-73154761D01*
X108983333Y-73107142D01*
X109030952Y-73011904D01*
X109030952Y-72202380D01*
X109411904Y-72202380D02*
X110030952Y-72202380D01*
X109697619Y-72583333D01*
X109840476Y-72583333D01*
X109935714Y-72630952D01*
X109983333Y-72678571D01*
X110030952Y-72773809D01*
X110030952Y-73011904D01*
X109983333Y-73107142D01*
X109935714Y-73154761D01*
X109840476Y-73202380D01*
X109554761Y-73202380D01*
X109459523Y-73154761D01*
X109411904Y-73107142D01*
X110650000Y-72202380D02*
X110745238Y-72202380D01*
X110840476Y-72250000D01*
X110888095Y-72297619D01*
X110935714Y-72392857D01*
X110983333Y-72583333D01*
X110983333Y-72821428D01*
X110935714Y-73011904D01*
X110888095Y-73107142D01*
X110840476Y-73154761D01*
X110745238Y-73202380D01*
X110650000Y-73202380D01*
X110554761Y-73154761D01*
X110507142Y-73107142D01*
X110459523Y-73011904D01*
X110411904Y-72821428D01*
X110411904Y-72583333D01*
X110459523Y-72392857D01*
X110507142Y-72297619D01*
X110554761Y-72250000D01*
X110650000Y-72202380D01*
X111602380Y-72202380D02*
X111697619Y-72202380D01*
X111792857Y-72250000D01*
X111840476Y-72297619D01*
X111888095Y-72392857D01*
X111935714Y-72583333D01*
X111935714Y-72821428D01*
X111888095Y-73011904D01*
X111840476Y-73107142D01*
X111792857Y-73154761D01*
X111697619Y-73202380D01*
X111602380Y-73202380D01*
X111507142Y-73154761D01*
X111459523Y-73107142D01*
X111411904Y-73011904D01*
X111364285Y-72821428D01*
X111364285Y-72583333D01*
X111411904Y-72392857D01*
X111459523Y-72297619D01*
X111507142Y-72250000D01*
X111602380Y-72202380D01*
X112888095Y-73202380D02*
X112316666Y-73202380D01*
X112602380Y-73202380D02*
X112602380Y-72202380D01*
X112507142Y-72345238D01*
X112411904Y-72440476D01*
X112316666Y-72488095D01*
X84800952Y-36234380D02*
X84467619Y-35758190D01*
X84229523Y-36234380D02*
X84229523Y-35234380D01*
X84610476Y-35234380D01*
X84705714Y-35282000D01*
X84753333Y-35329619D01*
X84800952Y-35424857D01*
X84800952Y-35567714D01*
X84753333Y-35662952D01*
X84705714Y-35710571D01*
X84610476Y-35758190D01*
X84229523Y-35758190D01*
X85229523Y-36234380D02*
X85229523Y-35234380D01*
X85800952Y-36234380D01*
X85800952Y-35234380D01*
X86229523Y-35329619D02*
X86277142Y-35282000D01*
X86372380Y-35234380D01*
X86610476Y-35234380D01*
X86705714Y-35282000D01*
X86753333Y-35329619D01*
X86800952Y-35424857D01*
X86800952Y-35520095D01*
X86753333Y-35662952D01*
X86181904Y-36234380D01*
X86800952Y-36234380D01*
X87181904Y-35329619D02*
X87229523Y-35282000D01*
X87324761Y-35234380D01*
X87562857Y-35234380D01*
X87658095Y-35282000D01*
X87705714Y-35329619D01*
X87753333Y-35424857D01*
X87753333Y-35520095D01*
X87705714Y-35662952D01*
X87134285Y-36234380D01*
X87753333Y-36234380D01*
X88372380Y-35234380D02*
X88467619Y-35234380D01*
X88562857Y-35282000D01*
X88610476Y-35329619D01*
X88658095Y-35424857D01*
X88705714Y-35615333D01*
X88705714Y-35853428D01*
X88658095Y-36043904D01*
X88610476Y-36139142D01*
X88562857Y-36186761D01*
X88467619Y-36234380D01*
X88372380Y-36234380D01*
X88277142Y-36186761D01*
X88229523Y-36139142D01*
X88181904Y-36043904D01*
X88134285Y-35853428D01*
X88134285Y-35615333D01*
X88181904Y-35424857D01*
X88229523Y-35329619D01*
X88277142Y-35282000D01*
X88372380Y-35234380D01*
X89658095Y-36234380D02*
X89086666Y-36234380D01*
X89372380Y-36234380D02*
X89372380Y-35234380D01*
X89277142Y-35377238D01*
X89181904Y-35472476D01*
X89086666Y-35520095D01*
X84800952Y-44598380D02*
X84467619Y-44122190D01*
X84229523Y-44598380D02*
X84229523Y-43598380D01*
X84610476Y-43598380D01*
X84705714Y-43646000D01*
X84753333Y-43693619D01*
X84800952Y-43788857D01*
X84800952Y-43931714D01*
X84753333Y-44026952D01*
X84705714Y-44074571D01*
X84610476Y-44122190D01*
X84229523Y-44122190D01*
X85229523Y-44598380D02*
X85229523Y-43598380D01*
X85800952Y-44598380D01*
X85800952Y-43598380D01*
X86229523Y-43693619D02*
X86277142Y-43646000D01*
X86372380Y-43598380D01*
X86610476Y-43598380D01*
X86705714Y-43646000D01*
X86753333Y-43693619D01*
X86800952Y-43788857D01*
X86800952Y-43884095D01*
X86753333Y-44026952D01*
X86181904Y-44598380D01*
X86800952Y-44598380D01*
X87181904Y-43693619D02*
X87229523Y-43646000D01*
X87324761Y-43598380D01*
X87562857Y-43598380D01*
X87658095Y-43646000D01*
X87705714Y-43693619D01*
X87753333Y-43788857D01*
X87753333Y-43884095D01*
X87705714Y-44026952D01*
X87134285Y-44598380D01*
X87753333Y-44598380D01*
X88372380Y-43598380D02*
X88467619Y-43598380D01*
X88562857Y-43646000D01*
X88610476Y-43693619D01*
X88658095Y-43788857D01*
X88705714Y-43979333D01*
X88705714Y-44217428D01*
X88658095Y-44407904D01*
X88610476Y-44503142D01*
X88562857Y-44550761D01*
X88467619Y-44598380D01*
X88372380Y-44598380D01*
X88277142Y-44550761D01*
X88229523Y-44503142D01*
X88181904Y-44407904D01*
X88134285Y-44217428D01*
X88134285Y-43979333D01*
X88181904Y-43788857D01*
X88229523Y-43693619D01*
X88277142Y-43646000D01*
X88372380Y-43598380D01*
X89324761Y-43598380D02*
X89420000Y-43598380D01*
X89515238Y-43646000D01*
X89562857Y-43693619D01*
X89610476Y-43788857D01*
X89658095Y-43979333D01*
X89658095Y-44217428D01*
X89610476Y-44407904D01*
X89562857Y-44503142D01*
X89515238Y-44550761D01*
X89420000Y-44598380D01*
X89324761Y-44598380D01*
X89229523Y-44550761D01*
X89181904Y-44503142D01*
X89134285Y-44407904D01*
X89086666Y-44217428D01*
X89086666Y-43979333D01*
X89134285Y-43788857D01*
X89181904Y-43693619D01*
X89229523Y-43646000D01*
X89324761Y-43598380D01*
X75152380Y-44243904D02*
X75866666Y-44243904D01*
X76009523Y-44291523D01*
X76104761Y-44386761D01*
X76152380Y-44529619D01*
X76152380Y-44624857D01*
X75247619Y-43815333D02*
X75200000Y-43767714D01*
X75152380Y-43672476D01*
X75152380Y-43434380D01*
X75200000Y-43339142D01*
X75247619Y-43291523D01*
X75342857Y-43243904D01*
X75438095Y-43243904D01*
X75580952Y-43291523D01*
X76152380Y-43862952D01*
X76152380Y-43243904D01*
X75247619Y-42862952D02*
X75200000Y-42815333D01*
X75152380Y-42720095D01*
X75152380Y-42482000D01*
X75200000Y-42386761D01*
X75247619Y-42339142D01*
X75342857Y-42291523D01*
X75438095Y-42291523D01*
X75580952Y-42339142D01*
X76152380Y-42910571D01*
X76152380Y-42291523D01*
X75152380Y-41672476D02*
X75152380Y-41577238D01*
X75200000Y-41482000D01*
X75247619Y-41434380D01*
X75342857Y-41386761D01*
X75533333Y-41339142D01*
X75771428Y-41339142D01*
X75961904Y-41386761D01*
X76057142Y-41434380D01*
X76104761Y-41482000D01*
X76152380Y-41577238D01*
X76152380Y-41672476D01*
X76104761Y-41767714D01*
X76057142Y-41815333D01*
X75961904Y-41862952D01*
X75771428Y-41910571D01*
X75533333Y-41910571D01*
X75342857Y-41862952D01*
X75247619Y-41815333D01*
X75200000Y-41767714D01*
X75152380Y-41672476D01*
X75152380Y-40720095D02*
X75152380Y-40624857D01*
X75200000Y-40529619D01*
X75247619Y-40482000D01*
X75342857Y-40434380D01*
X75533333Y-40386761D01*
X75771428Y-40386761D01*
X75961904Y-40434380D01*
X76057142Y-40482000D01*
X76104761Y-40529619D01*
X76152380Y-40624857D01*
X76152380Y-40720095D01*
X76104761Y-40815333D01*
X76057142Y-40862952D01*
X75961904Y-40910571D01*
X75771428Y-40958190D01*
X75533333Y-40958190D01*
X75342857Y-40910571D01*
X75247619Y-40862952D01*
X75200000Y-40815333D01*
X75152380Y-40720095D01*
X78087333Y-70372380D02*
X78087333Y-69372380D01*
X78325428Y-69372380D01*
X78468285Y-69420000D01*
X78563523Y-69515238D01*
X78611142Y-69610476D01*
X78658761Y-69800952D01*
X78658761Y-69943809D01*
X78611142Y-70134285D01*
X78563523Y-70229523D01*
X78468285Y-70324761D01*
X78325428Y-70372380D01*
X78087333Y-70372380D01*
X79039714Y-69467619D02*
X79087333Y-69420000D01*
X79182571Y-69372380D01*
X79420666Y-69372380D01*
X79515904Y-69420000D01*
X79563523Y-69467619D01*
X79611142Y-69562857D01*
X79611142Y-69658095D01*
X79563523Y-69800952D01*
X78992095Y-70372380D01*
X79611142Y-70372380D01*
X80563523Y-70372380D02*
X79992095Y-70372380D01*
X80277809Y-70372380D02*
X80277809Y-69372380D01*
X80182571Y-69515238D01*
X80087333Y-69610476D01*
X79992095Y-69658095D01*
X81182571Y-69372380D02*
X81277809Y-69372380D01*
X81373047Y-69420000D01*
X81420666Y-69467619D01*
X81468285Y-69562857D01*
X81515904Y-69753333D01*
X81515904Y-69991428D01*
X81468285Y-70181904D01*
X81420666Y-70277142D01*
X81373047Y-70324761D01*
X81277809Y-70372380D01*
X81182571Y-70372380D01*
X81087333Y-70324761D01*
X81039714Y-70277142D01*
X80992095Y-70181904D01*
X80944476Y-69991428D01*
X80944476Y-69753333D01*
X80992095Y-69562857D01*
X81039714Y-69467619D01*
X81087333Y-69420000D01*
X81182571Y-69372380D01*
X82468285Y-70372380D02*
X81896857Y-70372380D01*
X82182571Y-70372380D02*
X82182571Y-69372380D01*
X82087333Y-69515238D01*
X81992095Y-69610476D01*
X81896857Y-69658095D01*
X71833333Y-70372380D02*
X71833333Y-69372380D01*
X72071428Y-69372380D01*
X72214285Y-69420000D01*
X72309523Y-69515238D01*
X72357142Y-69610476D01*
X72404761Y-69800952D01*
X72404761Y-69943809D01*
X72357142Y-70134285D01*
X72309523Y-70229523D01*
X72214285Y-70324761D01*
X72071428Y-70372380D01*
X71833333Y-70372380D01*
X72785714Y-69467619D02*
X72833333Y-69420000D01*
X72928571Y-69372380D01*
X73166666Y-69372380D01*
X73261904Y-69420000D01*
X73309523Y-69467619D01*
X73357142Y-69562857D01*
X73357142Y-69658095D01*
X73309523Y-69800952D01*
X72738095Y-70372380D01*
X73357142Y-70372380D01*
X74309523Y-70372380D02*
X73738095Y-70372380D01*
X74023809Y-70372380D02*
X74023809Y-69372380D01*
X73928571Y-69515238D01*
X73833333Y-69610476D01*
X73738095Y-69658095D01*
X74928571Y-69372380D02*
X75023809Y-69372380D01*
X75119047Y-69420000D01*
X75166666Y-69467619D01*
X75214285Y-69562857D01*
X75261904Y-69753333D01*
X75261904Y-69991428D01*
X75214285Y-70181904D01*
X75166666Y-70277142D01*
X75119047Y-70324761D01*
X75023809Y-70372380D01*
X74928571Y-70372380D01*
X74833333Y-70324761D01*
X74785714Y-70277142D01*
X74738095Y-70181904D01*
X74690476Y-69991428D01*
X74690476Y-69753333D01*
X74738095Y-69562857D01*
X74785714Y-69467619D01*
X74833333Y-69420000D01*
X74928571Y-69372380D01*
X75880952Y-69372380D02*
X75976190Y-69372380D01*
X76071428Y-69420000D01*
X76119047Y-69467619D01*
X76166666Y-69562857D01*
X76214285Y-69753333D01*
X76214285Y-69991428D01*
X76166666Y-70181904D01*
X76119047Y-70277142D01*
X76071428Y-70324761D01*
X75976190Y-70372380D01*
X75880952Y-70372380D01*
X75785714Y-70324761D01*
X75738095Y-70277142D01*
X75690476Y-70181904D01*
X75642857Y-69991428D01*
X75642857Y-69753333D01*
X75690476Y-69562857D01*
X75738095Y-69467619D01*
X75785714Y-69420000D01*
X75880952Y-69372380D01*
X89809523Y-54102380D02*
X89809523Y-54911904D01*
X89857142Y-55007142D01*
X89904761Y-55054761D01*
X90000000Y-55102380D01*
X90190476Y-55102380D01*
X90285714Y-55054761D01*
X90333333Y-55007142D01*
X90380952Y-54911904D01*
X90380952Y-54102380D01*
X90809523Y-54197619D02*
X90857142Y-54150000D01*
X90952380Y-54102380D01*
X91190476Y-54102380D01*
X91285714Y-54150000D01*
X91333333Y-54197619D01*
X91380952Y-54292857D01*
X91380952Y-54388095D01*
X91333333Y-54530952D01*
X90761904Y-55102380D01*
X91380952Y-55102380D01*
X91761904Y-54197619D02*
X91809523Y-54150000D01*
X91904761Y-54102380D01*
X92142857Y-54102380D01*
X92238095Y-54150000D01*
X92285714Y-54197619D01*
X92333333Y-54292857D01*
X92333333Y-54388095D01*
X92285714Y-54530952D01*
X91714285Y-55102380D01*
X92333333Y-55102380D01*
X92952380Y-54102380D02*
X93047619Y-54102380D01*
X93142857Y-54150000D01*
X93190476Y-54197619D01*
X93238095Y-54292857D01*
X93285714Y-54483333D01*
X93285714Y-54721428D01*
X93238095Y-54911904D01*
X93190476Y-55007142D01*
X93142857Y-55054761D01*
X93047619Y-55102380D01*
X92952380Y-55102380D01*
X92857142Y-55054761D01*
X92809523Y-55007142D01*
X92761904Y-54911904D01*
X92714285Y-54721428D01*
X92714285Y-54483333D01*
X92761904Y-54292857D01*
X92809523Y-54197619D01*
X92857142Y-54150000D01*
X92952380Y-54102380D01*
X93904761Y-54102380D02*
X94000000Y-54102380D01*
X94095238Y-54150000D01*
X94142857Y-54197619D01*
X94190476Y-54292857D01*
X94238095Y-54483333D01*
X94238095Y-54721428D01*
X94190476Y-54911904D01*
X94142857Y-55007142D01*
X94095238Y-55054761D01*
X94000000Y-55102380D01*
X93904761Y-55102380D01*
X93809523Y-55054761D01*
X93761904Y-55007142D01*
X93714285Y-54911904D01*
X93666666Y-54721428D01*
X93666666Y-54483333D01*
X93714285Y-54292857D01*
X93761904Y-54197619D01*
X93809523Y-54150000D01*
X93904761Y-54102380D01*
X117154761Y-72857142D02*
X117107142Y-72904761D01*
X116964285Y-72952380D01*
X116869047Y-72952380D01*
X116726190Y-72904761D01*
X116630952Y-72809523D01*
X116583333Y-72714285D01*
X116535714Y-72523809D01*
X116535714Y-72380952D01*
X116583333Y-72190476D01*
X116630952Y-72095238D01*
X116726190Y-72000000D01*
X116869047Y-71952380D01*
X116964285Y-71952380D01*
X117107142Y-72000000D01*
X117154761Y-72047619D01*
X117488095Y-71952380D02*
X118107142Y-71952380D01*
X117773809Y-72333333D01*
X117916666Y-72333333D01*
X118011904Y-72380952D01*
X118059523Y-72428571D01*
X118107142Y-72523809D01*
X118107142Y-72761904D01*
X118059523Y-72857142D01*
X118011904Y-72904761D01*
X117916666Y-72952380D01*
X117630952Y-72952380D01*
X117535714Y-72904761D01*
X117488095Y-72857142D01*
X118726190Y-71952380D02*
X118821428Y-71952380D01*
X118916666Y-72000000D01*
X118964285Y-72047619D01*
X119011904Y-72142857D01*
X119059523Y-72333333D01*
X119059523Y-72571428D01*
X119011904Y-72761904D01*
X118964285Y-72857142D01*
X118916666Y-72904761D01*
X118821428Y-72952380D01*
X118726190Y-72952380D01*
X118630952Y-72904761D01*
X118583333Y-72857142D01*
X118535714Y-72761904D01*
X118488095Y-72571428D01*
X118488095Y-72333333D01*
X118535714Y-72142857D01*
X118583333Y-72047619D01*
X118630952Y-72000000D01*
X118726190Y-71952380D01*
X119678571Y-71952380D02*
X119773809Y-71952380D01*
X119869047Y-72000000D01*
X119916666Y-72047619D01*
X119964285Y-72142857D01*
X120011904Y-72333333D01*
X120011904Y-72571428D01*
X119964285Y-72761904D01*
X119916666Y-72857142D01*
X119869047Y-72904761D01*
X119773809Y-72952380D01*
X119678571Y-72952380D01*
X119583333Y-72904761D01*
X119535714Y-72857142D01*
X119488095Y-72761904D01*
X119440476Y-72571428D01*
X119440476Y-72333333D01*
X119488095Y-72142857D01*
X119535714Y-72047619D01*
X119583333Y-72000000D01*
X119678571Y-71952380D01*
X120964285Y-72952380D02*
X120392857Y-72952380D01*
X120678571Y-72952380D02*
X120678571Y-71952380D01*
X120583333Y-72095238D01*
X120488095Y-72190476D01*
X120392857Y-72238095D01*
X139154761Y-61857142D02*
X139107142Y-61904761D01*
X138964285Y-61952380D01*
X138869047Y-61952380D01*
X138726190Y-61904761D01*
X138630952Y-61809523D01*
X138583333Y-61714285D01*
X138535714Y-61523809D01*
X138535714Y-61380952D01*
X138583333Y-61190476D01*
X138630952Y-61095238D01*
X138726190Y-61000000D01*
X138869047Y-60952380D01*
X138964285Y-60952380D01*
X139107142Y-61000000D01*
X139154761Y-61047619D01*
X139488095Y-60952380D02*
X140107142Y-60952380D01*
X139773809Y-61333333D01*
X139916666Y-61333333D01*
X140011904Y-61380952D01*
X140059523Y-61428571D01*
X140107142Y-61523809D01*
X140107142Y-61761904D01*
X140059523Y-61857142D01*
X140011904Y-61904761D01*
X139916666Y-61952380D01*
X139630952Y-61952380D01*
X139535714Y-61904761D01*
X139488095Y-61857142D01*
X140726190Y-60952380D02*
X140821428Y-60952380D01*
X140916666Y-61000000D01*
X140964285Y-61047619D01*
X141011904Y-61142857D01*
X141059523Y-61333333D01*
X141059523Y-61571428D01*
X141011904Y-61761904D01*
X140964285Y-61857142D01*
X140916666Y-61904761D01*
X140821428Y-61952380D01*
X140726190Y-61952380D01*
X140630952Y-61904761D01*
X140583333Y-61857142D01*
X140535714Y-61761904D01*
X140488095Y-61571428D01*
X140488095Y-61333333D01*
X140535714Y-61142857D01*
X140583333Y-61047619D01*
X140630952Y-61000000D01*
X140726190Y-60952380D01*
X141678571Y-60952380D02*
X141773809Y-60952380D01*
X141869047Y-61000000D01*
X141916666Y-61047619D01*
X141964285Y-61142857D01*
X142011904Y-61333333D01*
X142011904Y-61571428D01*
X141964285Y-61761904D01*
X141916666Y-61857142D01*
X141869047Y-61904761D01*
X141773809Y-61952380D01*
X141678571Y-61952380D01*
X141583333Y-61904761D01*
X141535714Y-61857142D01*
X141488095Y-61761904D01*
X141440476Y-61571428D01*
X141440476Y-61333333D01*
X141488095Y-61142857D01*
X141535714Y-61047619D01*
X141583333Y-61000000D01*
X141678571Y-60952380D01*
X142630952Y-60952380D02*
X142726190Y-60952380D01*
X142821428Y-61000000D01*
X142869047Y-61047619D01*
X142916666Y-61142857D01*
X142964285Y-61333333D01*
X142964285Y-61571428D01*
X142916666Y-61761904D01*
X142869047Y-61857142D01*
X142821428Y-61904761D01*
X142726190Y-61952380D01*
X142630952Y-61952380D01*
X142535714Y-61904761D01*
X142488095Y-61857142D01*
X142440476Y-61761904D01*
X142392857Y-61571428D01*
X142392857Y-61333333D01*
X142440476Y-61142857D01*
X142488095Y-61047619D01*
X142535714Y-61000000D01*
X142630952Y-60952380D01*
X77652380Y-93190476D02*
X78461904Y-93190476D01*
X78557142Y-93142857D01*
X78604761Y-93095238D01*
X78652380Y-93000000D01*
X78652380Y-92809523D01*
X78604761Y-92714285D01*
X78557142Y-92666666D01*
X78461904Y-92619047D01*
X77652380Y-92619047D01*
X77747619Y-92190476D02*
X77700000Y-92142857D01*
X77652380Y-92047619D01*
X77652380Y-91809523D01*
X77700000Y-91714285D01*
X77747619Y-91666666D01*
X77842857Y-91619047D01*
X77938095Y-91619047D01*
X78080952Y-91666666D01*
X78652380Y-92238095D01*
X78652380Y-91619047D01*
X78652380Y-90666666D02*
X78652380Y-91238095D01*
X78652380Y-90952380D02*
X77652380Y-90952380D01*
X77795238Y-91047619D01*
X77890476Y-91142857D01*
X77938095Y-91238095D01*
X77652380Y-90047619D02*
X77652380Y-89952380D01*
X77700000Y-89857142D01*
X77747619Y-89809523D01*
X77842857Y-89761904D01*
X78033333Y-89714285D01*
X78271428Y-89714285D01*
X78461904Y-89761904D01*
X78557142Y-89809523D01*
X78604761Y-89857142D01*
X78652380Y-89952380D01*
X78652380Y-90047619D01*
X78604761Y-90142857D01*
X78557142Y-90190476D01*
X78461904Y-90238095D01*
X78271428Y-90285714D01*
X78033333Y-90285714D01*
X77842857Y-90238095D01*
X77747619Y-90190476D01*
X77700000Y-90142857D01*
X77652380Y-90047619D01*
X77652380Y-89095238D02*
X77652380Y-89000000D01*
X77700000Y-88904761D01*
X77747619Y-88857142D01*
X77842857Y-88809523D01*
X78033333Y-88761904D01*
X78271428Y-88761904D01*
X78461904Y-88809523D01*
X78557142Y-88857142D01*
X78604761Y-88904761D01*
X78652380Y-89000000D01*
X78652380Y-89095238D01*
X78604761Y-89190476D01*
X78557142Y-89238095D01*
X78461904Y-89285714D01*
X78271428Y-89333333D01*
X78033333Y-89333333D01*
X77842857Y-89285714D01*
X77747619Y-89238095D01*
X77700000Y-89190476D01*
X77652380Y-89095238D01*
%LPC*%
D13*
X53900000Y-58000000D03*
D14*
X60200000Y-55720000D03*
X60200000Y-58000000D03*
X60200000Y-60280000D03*
D15*
X68000000Y-54000000D03*
D16*
X66000000Y-54000000D03*
D15*
X68000000Y-62000000D03*
D16*
X66000000Y-62000000D03*
D15*
X110000000Y-114500000D03*
X110000000Y-112000000D03*
X87000000Y-74500000D03*
X87000000Y-77000000D03*
D17*
X59000000Y-114540000D03*
D15*
X59000000Y-112000000D03*
D17*
X73000000Y-115020000D03*
X73000000Y-112480000D03*
X73000000Y-109940000D03*
X73000000Y-107400000D03*
X73000000Y-104860000D03*
X73000000Y-102320000D03*
X73000000Y-99780000D03*
X73000000Y-97240000D03*
X73000000Y-94700000D03*
X73000000Y-92160000D03*
X73000000Y-89620000D03*
X73000000Y-87080000D03*
X73000000Y-84540000D03*
D16*
X73000000Y-82000000D03*
D17*
X124000000Y-34000000D03*
D15*
X121460000Y-34000000D03*
D17*
X149830000Y-116000000D03*
D15*
X152370000Y-116000000D03*
D18*
X156460000Y-116000000D03*
D19*
X159000000Y-116000000D03*
D20*
X59000000Y-107000000D03*
D21*
X59000000Y-104460000D03*
D15*
X62230000Y-91280000D03*
D16*
X62230000Y-89280000D03*
D15*
X54610000Y-91280000D03*
D16*
X54610000Y-89280000D03*
D22*
X161000000Y-34000000D03*
X34000000Y-34000000D03*
X161000000Y-126000000D03*
X34000000Y-126000000D03*
D17*
X114000000Y-46700000D03*
X114000000Y-44160000D03*
X114000000Y-41620000D03*
X114000000Y-39080000D03*
X114000000Y-36540000D03*
D16*
X114000000Y-34000000D03*
D17*
X59000000Y-33300000D03*
X59000000Y-35840000D03*
X59000000Y-38380000D03*
X59000000Y-40920000D03*
X59000000Y-43460000D03*
D16*
X59000000Y-46000000D03*
D21*
X138910000Y-46880000D03*
D20*
X136370000Y-46880000D03*
D21*
X41080000Y-94000000D03*
X38540000Y-94000000D03*
D20*
X36000000Y-94000000D03*
D15*
X105500000Y-34000000D03*
X108000000Y-34000000D03*
X127500000Y-34000000D03*
X130000000Y-34000000D03*
X66500000Y-33000000D03*
X69000000Y-33000000D03*
X103000000Y-61500000D03*
X103000000Y-59000000D03*
X50500000Y-116000000D03*
X53000000Y-116000000D03*
X52500000Y-98000000D03*
X50000000Y-98000000D03*
D23*
X142240000Y-65000000D03*
X127000000Y-103100000D03*
X142240000Y-67540000D03*
X127000000Y-100560000D03*
X142240000Y-70080000D03*
X127000000Y-98020000D03*
X142240000Y-72620000D03*
X127000000Y-95480000D03*
X142240000Y-75160000D03*
X127000000Y-92940000D03*
X142240000Y-77700000D03*
X127000000Y-90400000D03*
X142240000Y-80240000D03*
X127000000Y-87860000D03*
X142240000Y-82780000D03*
X127000000Y-85320000D03*
X142240000Y-85320000D03*
X127000000Y-82780000D03*
X142240000Y-87860000D03*
X127000000Y-80240000D03*
X142240000Y-90400000D03*
X127000000Y-77700000D03*
X142240000Y-92940000D03*
X127000000Y-75160000D03*
X142240000Y-95480000D03*
X127000000Y-72620000D03*
X142240000Y-98020000D03*
X127000000Y-70080000D03*
X142240000Y-100560000D03*
X127000000Y-67540000D03*
X142240000Y-103100000D03*
D24*
X127000000Y-65000000D03*
D25*
X55880000Y-83625000D03*
X58420000Y-83625000D03*
X60960000Y-83625000D03*
D26*
X58420000Y-74475000D03*
G36*
G01*
X35250000Y-86575000D02*
X35250000Y-84825000D01*
G75*
G02*
X36125000Y-83950000I875000J0D01*
G01*
X37875000Y-83950000D01*
G75*
G02*
X38750000Y-84825000I0J-875000D01*
G01*
X38750000Y-86575000D01*
G75*
G02*
X37875000Y-87450000I-875000J0D01*
G01*
X36125000Y-87450000D01*
G75*
G02*
X35250000Y-86575000I0J875000D01*
G01*
G37*
G36*
G01*
X32500000Y-82000000D02*
X32500000Y-80000000D01*
G75*
G02*
X33250000Y-79250000I750000J0D01*
G01*
X34750000Y-79250000D01*
G75*
G02*
X35500000Y-80000000I0J-750000D01*
G01*
X35500000Y-82000000D01*
G75*
G02*
X34750000Y-82750000I-750000J0D01*
G01*
X33250000Y-82750000D01*
G75*
G02*
X32500000Y-82000000I0J750000D01*
G01*
G37*
D27*
X40000000Y-81000000D03*
D28*
X33840000Y-71000000D03*
D29*
X44000000Y-71000000D03*
D17*
X158000000Y-69380000D03*
X158000000Y-71920000D03*
X158000000Y-74460000D03*
D16*
X158000000Y-77000000D03*
G36*
G01*
X149245000Y-86500000D02*
X148945000Y-86500000D01*
G75*
G02*
X148795000Y-86350000I0J150000D01*
G01*
X148795000Y-84700000D01*
G75*
G02*
X148945000Y-84550000I150000J0D01*
G01*
X149245000Y-84550000D01*
G75*
G02*
X149395000Y-84700000I0J-150000D01*
G01*
X149395000Y-86350000D01*
G75*
G02*
X149245000Y-86500000I-150000J0D01*
G01*
G37*
G36*
G01*
X150515000Y-86500000D02*
X150215000Y-86500000D01*
G75*
G02*
X150065000Y-86350000I0J150000D01*
G01*
X150065000Y-84700000D01*
G75*
G02*
X150215000Y-84550000I150000J0D01*
G01*
X150515000Y-84550000D01*
G75*
G02*
X150665000Y-84700000I0J-150000D01*
G01*
X150665000Y-86350000D01*
G75*
G02*
X150515000Y-86500000I-150000J0D01*
G01*
G37*
G36*
G01*
X151785000Y-86500000D02*
X151485000Y-86500000D01*
G75*
G02*
X151335000Y-86350000I0J150000D01*
G01*
X151335000Y-84700000D01*
G75*
G02*
X151485000Y-84550000I150000J0D01*
G01*
X151785000Y-84550000D01*
G75*
G02*
X151935000Y-84700000I0J-150000D01*
G01*
X151935000Y-86350000D01*
G75*
G02*
X151785000Y-86500000I-150000J0D01*
G01*
G37*
G36*
G01*
X153055000Y-86500000D02*
X152755000Y-86500000D01*
G75*
G02*
X152605000Y-86350000I0J150000D01*
G01*
X152605000Y-84700000D01*
G75*
G02*
X152755000Y-84550000I150000J0D01*
G01*
X153055000Y-84550000D01*
G75*
G02*
X153205000Y-84700000I0J-150000D01*
G01*
X153205000Y-86350000D01*
G75*
G02*
X153055000Y-86500000I-150000J0D01*
G01*
G37*
G36*
G01*
X153055000Y-91450000D02*
X152755000Y-91450000D01*
G75*
G02*
X152605000Y-91300000I0J150000D01*
G01*
X152605000Y-89650000D01*
G75*
G02*
X152755000Y-89500000I150000J0D01*
G01*
X153055000Y-89500000D01*
G75*
G02*
X153205000Y-89650000I0J-150000D01*
G01*
X153205000Y-91300000D01*
G75*
G02*
X153055000Y-91450000I-150000J0D01*
G01*
G37*
G36*
G01*
X151785000Y-91450000D02*
X151485000Y-91450000D01*
G75*
G02*
X151335000Y-91300000I0J150000D01*
G01*
X151335000Y-89650000D01*
G75*
G02*
X151485000Y-89500000I150000J0D01*
G01*
X151785000Y-89500000D01*
G75*
G02*
X151935000Y-89650000I0J-150000D01*
G01*
X151935000Y-91300000D01*
G75*
G02*
X151785000Y-91450000I-150000J0D01*
G01*
G37*
G36*
G01*
X150515000Y-91450000D02*
X150215000Y-91450000D01*
G75*
G02*
X150065000Y-91300000I0J150000D01*
G01*
X150065000Y-89650000D01*
G75*
G02*
X150215000Y-89500000I150000J0D01*
G01*
X150515000Y-89500000D01*
G75*
G02*
X150665000Y-89650000I0J-150000D01*
G01*
X150665000Y-91300000D01*
G75*
G02*
X150515000Y-91450000I-150000J0D01*
G01*
G37*
G36*
G01*
X149245000Y-91450000D02*
X148945000Y-91450000D01*
G75*
G02*
X148795000Y-91300000I0J150000D01*
G01*
X148795000Y-89650000D01*
G75*
G02*
X148945000Y-89500000I150000J0D01*
G01*
X149245000Y-89500000D01*
G75*
G02*
X149395000Y-89650000I0J-150000D01*
G01*
X149395000Y-91300000D01*
G75*
G02*
X149245000Y-91450000I-150000J0D01*
G01*
G37*
G36*
G01*
X68500000Y-37340000D02*
X68500000Y-37040000D01*
G75*
G02*
X68650000Y-36890000I150000J0D01*
G01*
X70300000Y-36890000D01*
G75*
G02*
X70450000Y-37040000I0J-150000D01*
G01*
X70450000Y-37340000D01*
G75*
G02*
X70300000Y-37490000I-150000J0D01*
G01*
X68650000Y-37490000D01*
G75*
G02*
X68500000Y-37340000I0J150000D01*
G01*
G37*
G36*
G01*
X68500000Y-38610000D02*
X68500000Y-38310000D01*
G75*
G02*
X68650000Y-38160000I150000J0D01*
G01*
X70300000Y-38160000D01*
G75*
G02*
X70450000Y-38310000I0J-150000D01*
G01*
X70450000Y-38610000D01*
G75*
G02*
X70300000Y-38760000I-150000J0D01*
G01*
X68650000Y-38760000D01*
G75*
G02*
X68500000Y-38610000I0J150000D01*
G01*
G37*
G36*
G01*
X68500000Y-39880000D02*
X68500000Y-39580000D01*
G75*
G02*
X68650000Y-39430000I150000J0D01*
G01*
X70300000Y-39430000D01*
G75*
G02*
X70450000Y-39580000I0J-150000D01*
G01*
X70450000Y-39880000D01*
G75*
G02*
X70300000Y-40030000I-150000J0D01*
G01*
X68650000Y-40030000D01*
G75*
G02*
X68500000Y-39880000I0J150000D01*
G01*
G37*
G36*
G01*
X68500000Y-41150000D02*
X68500000Y-40850000D01*
G75*
G02*
X68650000Y-40700000I150000J0D01*
G01*
X70300000Y-40700000D01*
G75*
G02*
X70450000Y-40850000I0J-150000D01*
G01*
X70450000Y-41150000D01*
G75*
G02*
X70300000Y-41300000I-150000J0D01*
G01*
X68650000Y-41300000D01*
G75*
G02*
X68500000Y-41150000I0J150000D01*
G01*
G37*
G36*
G01*
X68500000Y-42420000D02*
X68500000Y-42120000D01*
G75*
G02*
X68650000Y-41970000I150000J0D01*
G01*
X70300000Y-41970000D01*
G75*
G02*
X70450000Y-42120000I0J-150000D01*
G01*
X70450000Y-42420000D01*
G75*
G02*
X70300000Y-42570000I-150000J0D01*
G01*
X68650000Y-42570000D01*
G75*
G02*
X68500000Y-42420000I0J150000D01*
G01*
G37*
G36*
G01*
X68500000Y-43690000D02*
X68500000Y-43390000D01*
G75*
G02*
X68650000Y-43240000I150000J0D01*
G01*
X70300000Y-43240000D01*
G75*
G02*
X70450000Y-43390000I0J-150000D01*
G01*
X70450000Y-43690000D01*
G75*
G02*
X70300000Y-43840000I-150000J0D01*
G01*
X68650000Y-43840000D01*
G75*
G02*
X68500000Y-43690000I0J150000D01*
G01*
G37*
G36*
G01*
X68500000Y-44960000D02*
X68500000Y-44660000D01*
G75*
G02*
X68650000Y-44510000I150000J0D01*
G01*
X70300000Y-44510000D01*
G75*
G02*
X70450000Y-44660000I0J-150000D01*
G01*
X70450000Y-44960000D01*
G75*
G02*
X70300000Y-45110000I-150000J0D01*
G01*
X68650000Y-45110000D01*
G75*
G02*
X68500000Y-44960000I0J150000D01*
G01*
G37*
G36*
G01*
X63550000Y-44960000D02*
X63550000Y-44660000D01*
G75*
G02*
X63700000Y-44510000I150000J0D01*
G01*
X65350000Y-44510000D01*
G75*
G02*
X65500000Y-44660000I0J-150000D01*
G01*
X65500000Y-44960000D01*
G75*
G02*
X65350000Y-45110000I-150000J0D01*
G01*
X63700000Y-45110000D01*
G75*
G02*
X63550000Y-44960000I0J150000D01*
G01*
G37*
G36*
G01*
X63550000Y-43690000D02*
X63550000Y-43390000D01*
G75*
G02*
X63700000Y-43240000I150000J0D01*
G01*
X65350000Y-43240000D01*
G75*
G02*
X65500000Y-43390000I0J-150000D01*
G01*
X65500000Y-43690000D01*
G75*
G02*
X65350000Y-43840000I-150000J0D01*
G01*
X63700000Y-43840000D01*
G75*
G02*
X63550000Y-43690000I0J150000D01*
G01*
G37*
G36*
G01*
X63550000Y-42420000D02*
X63550000Y-42120000D01*
G75*
G02*
X63700000Y-41970000I150000J0D01*
G01*
X65350000Y-41970000D01*
G75*
G02*
X65500000Y-42120000I0J-150000D01*
G01*
X65500000Y-42420000D01*
G75*
G02*
X65350000Y-42570000I-150000J0D01*
G01*
X63700000Y-42570000D01*
G75*
G02*
X63550000Y-42420000I0J150000D01*
G01*
G37*
G36*
G01*
X63550000Y-41150000D02*
X63550000Y-40850000D01*
G75*
G02*
X63700000Y-40700000I150000J0D01*
G01*
X65350000Y-40700000D01*
G75*
G02*
X65500000Y-40850000I0J-150000D01*
G01*
X65500000Y-41150000D01*
G75*
G02*
X65350000Y-41300000I-150000J0D01*
G01*
X63700000Y-41300000D01*
G75*
G02*
X63550000Y-41150000I0J150000D01*
G01*
G37*
G36*
G01*
X63550000Y-39880000D02*
X63550000Y-39580000D01*
G75*
G02*
X63700000Y-39430000I150000J0D01*
G01*
X65350000Y-39430000D01*
G75*
G02*
X65500000Y-39580000I0J-150000D01*
G01*
X65500000Y-39880000D01*
G75*
G02*
X65350000Y-40030000I-150000J0D01*
G01*
X63700000Y-40030000D01*
G75*
G02*
X63550000Y-39880000I0J150000D01*
G01*
G37*
G36*
G01*
X63550000Y-38610000D02*
X63550000Y-38310000D01*
G75*
G02*
X63700000Y-38160000I150000J0D01*
G01*
X65350000Y-38160000D01*
G75*
G02*
X65500000Y-38310000I0J-150000D01*
G01*
X65500000Y-38610000D01*
G75*
G02*
X65350000Y-38760000I-150000J0D01*
G01*
X63700000Y-38760000D01*
G75*
G02*
X63550000Y-38610000I0J150000D01*
G01*
G37*
G36*
G01*
X63550000Y-37340000D02*
X63550000Y-37040000D01*
G75*
G02*
X63700000Y-36890000I150000J0D01*
G01*
X65350000Y-36890000D01*
G75*
G02*
X65500000Y-37040000I0J-150000D01*
G01*
X65500000Y-37340000D01*
G75*
G02*
X65350000Y-37490000I-150000J0D01*
G01*
X63700000Y-37490000D01*
G75*
G02*
X63550000Y-37340000I0J150000D01*
G01*
G37*
G36*
G01*
X107500000Y-39340000D02*
X107500000Y-39040000D01*
G75*
G02*
X107650000Y-38890000I150000J0D01*
G01*
X109300000Y-38890000D01*
G75*
G02*
X109450000Y-39040000I0J-150000D01*
G01*
X109450000Y-39340000D01*
G75*
G02*
X109300000Y-39490000I-150000J0D01*
G01*
X107650000Y-39490000D01*
G75*
G02*
X107500000Y-39340000I0J150000D01*
G01*
G37*
G36*
G01*
X107500000Y-40610000D02*
X107500000Y-40310000D01*
G75*
G02*
X107650000Y-40160000I150000J0D01*
G01*
X109300000Y-40160000D01*
G75*
G02*
X109450000Y-40310000I0J-150000D01*
G01*
X109450000Y-40610000D01*
G75*
G02*
X109300000Y-40760000I-150000J0D01*
G01*
X107650000Y-40760000D01*
G75*
G02*
X107500000Y-40610000I0J150000D01*
G01*
G37*
G36*
G01*
X107500000Y-41880000D02*
X107500000Y-41580000D01*
G75*
G02*
X107650000Y-41430000I150000J0D01*
G01*
X109300000Y-41430000D01*
G75*
G02*
X109450000Y-41580000I0J-150000D01*
G01*
X109450000Y-41880000D01*
G75*
G02*
X109300000Y-42030000I-150000J0D01*
G01*
X107650000Y-42030000D01*
G75*
G02*
X107500000Y-41880000I0J150000D01*
G01*
G37*
G36*
G01*
X107500000Y-43150000D02*
X107500000Y-42850000D01*
G75*
G02*
X107650000Y-42700000I150000J0D01*
G01*
X109300000Y-42700000D01*
G75*
G02*
X109450000Y-42850000I0J-150000D01*
G01*
X109450000Y-43150000D01*
G75*
G02*
X109300000Y-43300000I-150000J0D01*
G01*
X107650000Y-43300000D01*
G75*
G02*
X107500000Y-43150000I0J150000D01*
G01*
G37*
G36*
G01*
X107500000Y-44420000D02*
X107500000Y-44120000D01*
G75*
G02*
X107650000Y-43970000I150000J0D01*
G01*
X109300000Y-43970000D01*
G75*
G02*
X109450000Y-44120000I0J-150000D01*
G01*
X109450000Y-44420000D01*
G75*
G02*
X109300000Y-44570000I-150000J0D01*
G01*
X107650000Y-44570000D01*
G75*
G02*
X107500000Y-44420000I0J150000D01*
G01*
G37*
G36*
G01*
X107500000Y-45690000D02*
X107500000Y-45390000D01*
G75*
G02*
X107650000Y-45240000I150000J0D01*
G01*
X109300000Y-45240000D01*
G75*
G02*
X109450000Y-45390000I0J-150000D01*
G01*
X109450000Y-45690000D01*
G75*
G02*
X109300000Y-45840000I-150000J0D01*
G01*
X107650000Y-45840000D01*
G75*
G02*
X107500000Y-45690000I0J150000D01*
G01*
G37*
G36*
G01*
X107500000Y-46960000D02*
X107500000Y-46660000D01*
G75*
G02*
X107650000Y-46510000I150000J0D01*
G01*
X109300000Y-46510000D01*
G75*
G02*
X109450000Y-46660000I0J-150000D01*
G01*
X109450000Y-46960000D01*
G75*
G02*
X109300000Y-47110000I-150000J0D01*
G01*
X107650000Y-47110000D01*
G75*
G02*
X107500000Y-46960000I0J150000D01*
G01*
G37*
G36*
G01*
X102550000Y-46960000D02*
X102550000Y-46660000D01*
G75*
G02*
X102700000Y-46510000I150000J0D01*
G01*
X104350000Y-46510000D01*
G75*
G02*
X104500000Y-46660000I0J-150000D01*
G01*
X104500000Y-46960000D01*
G75*
G02*
X104350000Y-47110000I-150000J0D01*
G01*
X102700000Y-47110000D01*
G75*
G02*
X102550000Y-46960000I0J150000D01*
G01*
G37*
G36*
G01*
X102550000Y-45690000D02*
X102550000Y-45390000D01*
G75*
G02*
X102700000Y-45240000I150000J0D01*
G01*
X104350000Y-45240000D01*
G75*
G02*
X104500000Y-45390000I0J-150000D01*
G01*
X104500000Y-45690000D01*
G75*
G02*
X104350000Y-45840000I-150000J0D01*
G01*
X102700000Y-45840000D01*
G75*
G02*
X102550000Y-45690000I0J150000D01*
G01*
G37*
G36*
G01*
X102550000Y-44420000D02*
X102550000Y-44120000D01*
G75*
G02*
X102700000Y-43970000I150000J0D01*
G01*
X104350000Y-43970000D01*
G75*
G02*
X104500000Y-44120000I0J-150000D01*
G01*
X104500000Y-44420000D01*
G75*
G02*
X104350000Y-44570000I-150000J0D01*
G01*
X102700000Y-44570000D01*
G75*
G02*
X102550000Y-44420000I0J150000D01*
G01*
G37*
G36*
G01*
X102550000Y-43150000D02*
X102550000Y-42850000D01*
G75*
G02*
X102700000Y-42700000I150000J0D01*
G01*
X104350000Y-42700000D01*
G75*
G02*
X104500000Y-42850000I0J-150000D01*
G01*
X104500000Y-43150000D01*
G75*
G02*
X104350000Y-43300000I-150000J0D01*
G01*
X102700000Y-43300000D01*
G75*
G02*
X102550000Y-43150000I0J150000D01*
G01*
G37*
G36*
G01*
X102550000Y-41880000D02*
X102550000Y-41580000D01*
G75*
G02*
X102700000Y-41430000I150000J0D01*
G01*
X104350000Y-41430000D01*
G75*
G02*
X104500000Y-41580000I0J-150000D01*
G01*
X104500000Y-41880000D01*
G75*
G02*
X104350000Y-42030000I-150000J0D01*
G01*
X102700000Y-42030000D01*
G75*
G02*
X102550000Y-41880000I0J150000D01*
G01*
G37*
G36*
G01*
X102550000Y-40610000D02*
X102550000Y-40310000D01*
G75*
G02*
X102700000Y-40160000I150000J0D01*
G01*
X104350000Y-40160000D01*
G75*
G02*
X104500000Y-40310000I0J-150000D01*
G01*
X104500000Y-40610000D01*
G75*
G02*
X104350000Y-40760000I-150000J0D01*
G01*
X102700000Y-40760000D01*
G75*
G02*
X102550000Y-40610000I0J150000D01*
G01*
G37*
G36*
G01*
X102550000Y-39340000D02*
X102550000Y-39040000D01*
G75*
G02*
X102700000Y-38890000I150000J0D01*
G01*
X104350000Y-38890000D01*
G75*
G02*
X104500000Y-39040000I0J-150000D01*
G01*
X104500000Y-39340000D01*
G75*
G02*
X104350000Y-39490000I-150000J0D01*
G01*
X102700000Y-39490000D01*
G75*
G02*
X102550000Y-39340000I0J150000D01*
G01*
G37*
D15*
X84760000Y-111000000D03*
X84760000Y-118620000D03*
X100000000Y-118620000D03*
D16*
X100000000Y-111000000D03*
D23*
X129620000Y-39000000D03*
X122000000Y-46620000D03*
X129620000Y-41540000D03*
X122000000Y-44080000D03*
X129620000Y-44080000D03*
X122000000Y-41540000D03*
X129620000Y-46620000D03*
D24*
X122000000Y-39000000D03*
G36*
G01*
X52500000Y-103340000D02*
X52500000Y-103040000D01*
G75*
G02*
X52650000Y-102890000I150000J0D01*
G01*
X54300000Y-102890000D01*
G75*
G02*
X54450000Y-103040000I0J-150000D01*
G01*
X54450000Y-103340000D01*
G75*
G02*
X54300000Y-103490000I-150000J0D01*
G01*
X52650000Y-103490000D01*
G75*
G02*
X52500000Y-103340000I0J150000D01*
G01*
G37*
G36*
G01*
X52500000Y-104610000D02*
X52500000Y-104310000D01*
G75*
G02*
X52650000Y-104160000I150000J0D01*
G01*
X54300000Y-104160000D01*
G75*
G02*
X54450000Y-104310000I0J-150000D01*
G01*
X54450000Y-104610000D01*
G75*
G02*
X54300000Y-104760000I-150000J0D01*
G01*
X52650000Y-104760000D01*
G75*
G02*
X52500000Y-104610000I0J150000D01*
G01*
G37*
G36*
G01*
X52500000Y-105880000D02*
X52500000Y-105580000D01*
G75*
G02*
X52650000Y-105430000I150000J0D01*
G01*
X54300000Y-105430000D01*
G75*
G02*
X54450000Y-105580000I0J-150000D01*
G01*
X54450000Y-105880000D01*
G75*
G02*
X54300000Y-106030000I-150000J0D01*
G01*
X52650000Y-106030000D01*
G75*
G02*
X52500000Y-105880000I0J150000D01*
G01*
G37*
G36*
G01*
X52500000Y-107150000D02*
X52500000Y-106850000D01*
G75*
G02*
X52650000Y-106700000I150000J0D01*
G01*
X54300000Y-106700000D01*
G75*
G02*
X54450000Y-106850000I0J-150000D01*
G01*
X54450000Y-107150000D01*
G75*
G02*
X54300000Y-107300000I-150000J0D01*
G01*
X52650000Y-107300000D01*
G75*
G02*
X52500000Y-107150000I0J150000D01*
G01*
G37*
G36*
G01*
X52500000Y-108420000D02*
X52500000Y-108120000D01*
G75*
G02*
X52650000Y-107970000I150000J0D01*
G01*
X54300000Y-107970000D01*
G75*
G02*
X54450000Y-108120000I0J-150000D01*
G01*
X54450000Y-108420000D01*
G75*
G02*
X54300000Y-108570000I-150000J0D01*
G01*
X52650000Y-108570000D01*
G75*
G02*
X52500000Y-108420000I0J150000D01*
G01*
G37*
G36*
G01*
X52500000Y-109690000D02*
X52500000Y-109390000D01*
G75*
G02*
X52650000Y-109240000I150000J0D01*
G01*
X54300000Y-109240000D01*
G75*
G02*
X54450000Y-109390000I0J-150000D01*
G01*
X54450000Y-109690000D01*
G75*
G02*
X54300000Y-109840000I-150000J0D01*
G01*
X52650000Y-109840000D01*
G75*
G02*
X52500000Y-109690000I0J150000D01*
G01*
G37*
G36*
G01*
X52500000Y-110960000D02*
X52500000Y-110660000D01*
G75*
G02*
X52650000Y-110510000I150000J0D01*
G01*
X54300000Y-110510000D01*
G75*
G02*
X54450000Y-110660000I0J-150000D01*
G01*
X54450000Y-110960000D01*
G75*
G02*
X54300000Y-111110000I-150000J0D01*
G01*
X52650000Y-111110000D01*
G75*
G02*
X52500000Y-110960000I0J150000D01*
G01*
G37*
G36*
G01*
X47550000Y-110960000D02*
X47550000Y-110660000D01*
G75*
G02*
X47700000Y-110510000I150000J0D01*
G01*
X49350000Y-110510000D01*
G75*
G02*
X49500000Y-110660000I0J-150000D01*
G01*
X49500000Y-110960000D01*
G75*
G02*
X49350000Y-111110000I-150000J0D01*
G01*
X47700000Y-111110000D01*
G75*
G02*
X47550000Y-110960000I0J150000D01*
G01*
G37*
G36*
G01*
X47550000Y-109690000D02*
X47550000Y-109390000D01*
G75*
G02*
X47700000Y-109240000I150000J0D01*
G01*
X49350000Y-109240000D01*
G75*
G02*
X49500000Y-109390000I0J-150000D01*
G01*
X49500000Y-109690000D01*
G75*
G02*
X49350000Y-109840000I-150000J0D01*
G01*
X47700000Y-109840000D01*
G75*
G02*
X47550000Y-109690000I0J150000D01*
G01*
G37*
G36*
G01*
X47550000Y-108420000D02*
X47550000Y-108120000D01*
G75*
G02*
X47700000Y-107970000I150000J0D01*
G01*
X49350000Y-107970000D01*
G75*
G02*
X49500000Y-108120000I0J-150000D01*
G01*
X49500000Y-108420000D01*
G75*
G02*
X49350000Y-108570000I-150000J0D01*
G01*
X47700000Y-108570000D01*
G75*
G02*
X47550000Y-108420000I0J150000D01*
G01*
G37*
G36*
G01*
X47550000Y-107150000D02*
X47550000Y-106850000D01*
G75*
G02*
X47700000Y-106700000I150000J0D01*
G01*
X49350000Y-106700000D01*
G75*
G02*
X49500000Y-106850000I0J-150000D01*
G01*
X49500000Y-107150000D01*
G75*
G02*
X49350000Y-107300000I-150000J0D01*
G01*
X47700000Y-107300000D01*
G75*
G02*
X47550000Y-107150000I0J150000D01*
G01*
G37*
G36*
G01*
X47550000Y-105880000D02*
X47550000Y-105580000D01*
G75*
G02*
X47700000Y-105430000I150000J0D01*
G01*
X49350000Y-105430000D01*
G75*
G02*
X49500000Y-105580000I0J-150000D01*
G01*
X49500000Y-105880000D01*
G75*
G02*
X49350000Y-106030000I-150000J0D01*
G01*
X47700000Y-106030000D01*
G75*
G02*
X47550000Y-105880000I0J150000D01*
G01*
G37*
G36*
G01*
X47550000Y-104610000D02*
X47550000Y-104310000D01*
G75*
G02*
X47700000Y-104160000I150000J0D01*
G01*
X49350000Y-104160000D01*
G75*
G02*
X49500000Y-104310000I0J-150000D01*
G01*
X49500000Y-104610000D01*
G75*
G02*
X49350000Y-104760000I-150000J0D01*
G01*
X47700000Y-104760000D01*
G75*
G02*
X47550000Y-104610000I0J150000D01*
G01*
G37*
G36*
G01*
X47550000Y-103340000D02*
X47550000Y-103040000D01*
G75*
G02*
X47700000Y-102890000I150000J0D01*
G01*
X49350000Y-102890000D01*
G75*
G02*
X49500000Y-103040000I0J-150000D01*
G01*
X49500000Y-103340000D01*
G75*
G02*
X49350000Y-103490000I-150000J0D01*
G01*
X47700000Y-103490000D01*
G75*
G02*
X47550000Y-103340000I0J150000D01*
G01*
G37*
D30*
X117000000Y-112380000D03*
X139860000Y-120000000D03*
X119540000Y-112380000D03*
X137320000Y-120000000D03*
X122080000Y-112380000D03*
X134780000Y-120000000D03*
X124620000Y-112380000D03*
X132240000Y-120000000D03*
X127160000Y-112380000D03*
X129700000Y-120000000D03*
X129700000Y-112380000D03*
X127160000Y-120000000D03*
X132240000Y-112380000D03*
X124620000Y-120000000D03*
X134780000Y-112380000D03*
X122080000Y-120000000D03*
X137320000Y-112380000D03*
X119540000Y-120000000D03*
X139860000Y-112380000D03*
D31*
X117000000Y-120000000D03*
D32*
X150500000Y-102000000D03*
X150500000Y-97500000D03*
X157000000Y-102000000D03*
X157000000Y-97500000D03*
D21*
X138910000Y-42080000D03*
X136370000Y-42080000D03*
X138910000Y-39540000D03*
X136370000Y-39540000D03*
X138910000Y-37000000D03*
D20*
X136370000Y-37000000D03*
D33*
X52730000Y-43375000D03*
X46760000Y-43375000D03*
D34*
X43260000Y-38700000D03*
X43260000Y-42400000D03*
D35*
X43435000Y-32675000D03*
D36*
X54755000Y-32900000D03*
D37*
X52495000Y-32550000D03*
X51395000Y-32550000D03*
X50295000Y-32550000D03*
X49195000Y-32550000D03*
X48095000Y-32550000D03*
X46995000Y-32550000D03*
D38*
X53545000Y-32550000D03*
D37*
X45895000Y-32550000D03*
D21*
X95810000Y-33864000D03*
X93270000Y-33864000D03*
X90730000Y-33864000D03*
X88190000Y-33864000D03*
X85650000Y-33864000D03*
X83110000Y-33864000D03*
X80570000Y-33864000D03*
D20*
X78030000Y-33864000D03*
D22*
X37290000Y-100730000D03*
X37290000Y-112770000D03*
D39*
X40000000Y-108000000D03*
X40000000Y-105500000D03*
X42000000Y-105500000D03*
D20*
X42000000Y-108000000D03*
D15*
X152500000Y-75280000D03*
X150000000Y-75280000D03*
X158000000Y-82500000D03*
X158000000Y-85000000D03*
X152500000Y-70000000D03*
X150000000Y-70000000D03*
X152500000Y-65000000D03*
X150000000Y-65000000D03*
D40*
X120600000Y-74475000D03*
X120600000Y-75745000D03*
X120600000Y-77015000D03*
X120600000Y-78285000D03*
X120600000Y-79555000D03*
X120600000Y-80825000D03*
X120600000Y-82095000D03*
X120600000Y-83375000D03*
X120600000Y-84625000D03*
X120600000Y-85905000D03*
X120600000Y-87175000D03*
X120600000Y-88445000D03*
X120600000Y-89715000D03*
X120600000Y-90985000D03*
X120600000Y-92255000D03*
X120600000Y-93525000D03*
X109400000Y-93525000D03*
X109400000Y-92255000D03*
X109400000Y-90985000D03*
X109400000Y-89715000D03*
X109400000Y-88445000D03*
X109400000Y-87175000D03*
X109400000Y-85905000D03*
X109400000Y-84625000D03*
X109400000Y-83375000D03*
X109400000Y-82095000D03*
X109400000Y-80825000D03*
X109400000Y-79555000D03*
X109400000Y-78285000D03*
X109400000Y-77015000D03*
X109400000Y-75745000D03*
X109400000Y-74475000D03*
D17*
X95810000Y-38182000D03*
X93270000Y-38182000D03*
X90730000Y-38182000D03*
X88190000Y-38182000D03*
X85650000Y-38182000D03*
X83110000Y-38182000D03*
X80570000Y-38182000D03*
X78030000Y-38182000D03*
D16*
X75490000Y-38182000D03*
D17*
X95810000Y-46546000D03*
X93270000Y-46546000D03*
X90730000Y-46546000D03*
X88190000Y-46546000D03*
X85650000Y-46546000D03*
X83110000Y-46546000D03*
X80570000Y-46546000D03*
X78030000Y-46546000D03*
D16*
X75490000Y-46546000D03*
D21*
X95810000Y-42482000D03*
X93270000Y-42482000D03*
X90730000Y-42482000D03*
X88190000Y-42482000D03*
X85650000Y-42482000D03*
X83110000Y-42482000D03*
X80570000Y-42482000D03*
D20*
X78030000Y-42482000D03*
D18*
X80000000Y-72460000D03*
D19*
X80000000Y-75000000D03*
D18*
X74000000Y-72460000D03*
D19*
X74000000Y-75000000D03*
G36*
G01*
X87725000Y-56937500D02*
X87725000Y-55737500D01*
G75*
G02*
X87862500Y-55600000I137500J0D01*
G01*
X88137500Y-55600000D01*
G75*
G02*
X88275000Y-55737500I0J-137500D01*
G01*
X88275000Y-56937500D01*
G75*
G02*
X88137500Y-57075000I-137500J0D01*
G01*
X87862500Y-57075000D01*
G75*
G02*
X87725000Y-56937500I0J137500D01*
G01*
G37*
G36*
G01*
X88525000Y-56937500D02*
X88525000Y-55737500D01*
G75*
G02*
X88662500Y-55600000I137500J0D01*
G01*
X88937500Y-55600000D01*
G75*
G02*
X89075000Y-55737500I0J-137500D01*
G01*
X89075000Y-56937500D01*
G75*
G02*
X88937500Y-57075000I-137500J0D01*
G01*
X88662500Y-57075000D01*
G75*
G02*
X88525000Y-56937500I0J137500D01*
G01*
G37*
G36*
G01*
X89325000Y-56937500D02*
X89325000Y-55737500D01*
G75*
G02*
X89462500Y-55600000I137500J0D01*
G01*
X89737500Y-55600000D01*
G75*
G02*
X89875000Y-55737500I0J-137500D01*
G01*
X89875000Y-56937500D01*
G75*
G02*
X89737500Y-57075000I-137500J0D01*
G01*
X89462500Y-57075000D01*
G75*
G02*
X89325000Y-56937500I0J137500D01*
G01*
G37*
G36*
G01*
X90125000Y-56937500D02*
X90125000Y-55737500D01*
G75*
G02*
X90262500Y-55600000I137500J0D01*
G01*
X90537500Y-55600000D01*
G75*
G02*
X90675000Y-55737500I0J-137500D01*
G01*
X90675000Y-56937500D01*
G75*
G02*
X90537500Y-57075000I-137500J0D01*
G01*
X90262500Y-57075000D01*
G75*
G02*
X90125000Y-56937500I0J137500D01*
G01*
G37*
G36*
G01*
X90925000Y-56937500D02*
X90925000Y-55737500D01*
G75*
G02*
X91062500Y-55600000I137500J0D01*
G01*
X91337500Y-55600000D01*
G75*
G02*
X91475000Y-55737500I0J-137500D01*
G01*
X91475000Y-56937500D01*
G75*
G02*
X91337500Y-57075000I-137500J0D01*
G01*
X91062500Y-57075000D01*
G75*
G02*
X90925000Y-56937500I0J137500D01*
G01*
G37*
G36*
G01*
X91725000Y-56937500D02*
X91725000Y-55737500D01*
G75*
G02*
X91862500Y-55600000I137500J0D01*
G01*
X92137500Y-55600000D01*
G75*
G02*
X92275000Y-55737500I0J-137500D01*
G01*
X92275000Y-56937500D01*
G75*
G02*
X92137500Y-57075000I-137500J0D01*
G01*
X91862500Y-57075000D01*
G75*
G02*
X91725000Y-56937500I0J137500D01*
G01*
G37*
G36*
G01*
X92525000Y-56937500D02*
X92525000Y-55737500D01*
G75*
G02*
X92662500Y-55600000I137500J0D01*
G01*
X92937500Y-55600000D01*
G75*
G02*
X93075000Y-55737500I0J-137500D01*
G01*
X93075000Y-56937500D01*
G75*
G02*
X92937500Y-57075000I-137500J0D01*
G01*
X92662500Y-57075000D01*
G75*
G02*
X92525000Y-56937500I0J137500D01*
G01*
G37*
G36*
G01*
X93325000Y-56937500D02*
X93325000Y-55737500D01*
G75*
G02*
X93462500Y-55600000I137500J0D01*
G01*
X93737500Y-55600000D01*
G75*
G02*
X93875000Y-55737500I0J-137500D01*
G01*
X93875000Y-56937500D01*
G75*
G02*
X93737500Y-57075000I-137500J0D01*
G01*
X93462500Y-57075000D01*
G75*
G02*
X93325000Y-56937500I0J137500D01*
G01*
G37*
G36*
G01*
X94125000Y-56937500D02*
X94125000Y-55737500D01*
G75*
G02*
X94262500Y-55600000I137500J0D01*
G01*
X94537500Y-55600000D01*
G75*
G02*
X94675000Y-55737500I0J-137500D01*
G01*
X94675000Y-56937500D01*
G75*
G02*
X94537500Y-57075000I-137500J0D01*
G01*
X94262500Y-57075000D01*
G75*
G02*
X94125000Y-56937500I0J137500D01*
G01*
G37*
G36*
G01*
X94925000Y-56937500D02*
X94925000Y-55737500D01*
G75*
G02*
X95062500Y-55600000I137500J0D01*
G01*
X95337500Y-55600000D01*
G75*
G02*
X95475000Y-55737500I0J-137500D01*
G01*
X95475000Y-56937500D01*
G75*
G02*
X95337500Y-57075000I-137500J0D01*
G01*
X95062500Y-57075000D01*
G75*
G02*
X94925000Y-56937500I0J137500D01*
G01*
G37*
G36*
G01*
X95725000Y-56937500D02*
X95725000Y-55737500D01*
G75*
G02*
X95862500Y-55600000I137500J0D01*
G01*
X96137500Y-55600000D01*
G75*
G02*
X96275000Y-55737500I0J-137500D01*
G01*
X96275000Y-56937500D01*
G75*
G02*
X96137500Y-57075000I-137500J0D01*
G01*
X95862500Y-57075000D01*
G75*
G02*
X95725000Y-56937500I0J137500D01*
G01*
G37*
G36*
G01*
X96925000Y-58137500D02*
X96925000Y-57862500D01*
G75*
G02*
X97062500Y-57725000I137500J0D01*
G01*
X98262500Y-57725000D01*
G75*
G02*
X98400000Y-57862500I0J-137500D01*
G01*
X98400000Y-58137500D01*
G75*
G02*
X98262500Y-58275000I-137500J0D01*
G01*
X97062500Y-58275000D01*
G75*
G02*
X96925000Y-58137500I0J137500D01*
G01*
G37*
G36*
G01*
X96925000Y-58937500D02*
X96925000Y-58662500D01*
G75*
G02*
X97062500Y-58525000I137500J0D01*
G01*
X98262500Y-58525000D01*
G75*
G02*
X98400000Y-58662500I0J-137500D01*
G01*
X98400000Y-58937500D01*
G75*
G02*
X98262500Y-59075000I-137500J0D01*
G01*
X97062500Y-59075000D01*
G75*
G02*
X96925000Y-58937500I0J137500D01*
G01*
G37*
G36*
G01*
X96925000Y-59737500D02*
X96925000Y-59462500D01*
G75*
G02*
X97062500Y-59325000I137500J0D01*
G01*
X98262500Y-59325000D01*
G75*
G02*
X98400000Y-59462500I0J-137500D01*
G01*
X98400000Y-59737500D01*
G75*
G02*
X98262500Y-59875000I-137500J0D01*
G01*
X97062500Y-59875000D01*
G75*
G02*
X96925000Y-59737500I0J137500D01*
G01*
G37*
G36*
G01*
X96925000Y-60537500D02*
X96925000Y-60262500D01*
G75*
G02*
X97062500Y-60125000I137500J0D01*
G01*
X98262500Y-60125000D01*
G75*
G02*
X98400000Y-60262500I0J-137500D01*
G01*
X98400000Y-60537500D01*
G75*
G02*
X98262500Y-60675000I-137500J0D01*
G01*
X97062500Y-60675000D01*
G75*
G02*
X96925000Y-60537500I0J137500D01*
G01*
G37*
G36*
G01*
X96925000Y-61337500D02*
X96925000Y-61062500D01*
G75*
G02*
X97062500Y-60925000I137500J0D01*
G01*
X98262500Y-60925000D01*
G75*
G02*
X98400000Y-61062500I0J-137500D01*
G01*
X98400000Y-61337500D01*
G75*
G02*
X98262500Y-61475000I-137500J0D01*
G01*
X97062500Y-61475000D01*
G75*
G02*
X96925000Y-61337500I0J137500D01*
G01*
G37*
G36*
G01*
X96925000Y-62137500D02*
X96925000Y-61862500D01*
G75*
G02*
X97062500Y-61725000I137500J0D01*
G01*
X98262500Y-61725000D01*
G75*
G02*
X98400000Y-61862500I0J-137500D01*
G01*
X98400000Y-62137500D01*
G75*
G02*
X98262500Y-62275000I-137500J0D01*
G01*
X97062500Y-62275000D01*
G75*
G02*
X96925000Y-62137500I0J137500D01*
G01*
G37*
G36*
G01*
X96925000Y-62937500D02*
X96925000Y-62662500D01*
G75*
G02*
X97062500Y-62525000I137500J0D01*
G01*
X98262500Y-62525000D01*
G75*
G02*
X98400000Y-62662500I0J-137500D01*
G01*
X98400000Y-62937500D01*
G75*
G02*
X98262500Y-63075000I-137500J0D01*
G01*
X97062500Y-63075000D01*
G75*
G02*
X96925000Y-62937500I0J137500D01*
G01*
G37*
G36*
G01*
X96925000Y-63737500D02*
X96925000Y-63462500D01*
G75*
G02*
X97062500Y-63325000I137500J0D01*
G01*
X98262500Y-63325000D01*
G75*
G02*
X98400000Y-63462500I0J-137500D01*
G01*
X98400000Y-63737500D01*
G75*
G02*
X98262500Y-63875000I-137500J0D01*
G01*
X97062500Y-63875000D01*
G75*
G02*
X96925000Y-63737500I0J137500D01*
G01*
G37*
G36*
G01*
X96925000Y-64537500D02*
X96925000Y-64262500D01*
G75*
G02*
X97062500Y-64125000I137500J0D01*
G01*
X98262500Y-64125000D01*
G75*
G02*
X98400000Y-64262500I0J-137500D01*
G01*
X98400000Y-64537500D01*
G75*
G02*
X98262500Y-64675000I-137500J0D01*
G01*
X97062500Y-64675000D01*
G75*
G02*
X96925000Y-64537500I0J137500D01*
G01*
G37*
G36*
G01*
X96925000Y-65337500D02*
X96925000Y-65062500D01*
G75*
G02*
X97062500Y-64925000I137500J0D01*
G01*
X98262500Y-64925000D01*
G75*
G02*
X98400000Y-65062500I0J-137500D01*
G01*
X98400000Y-65337500D01*
G75*
G02*
X98262500Y-65475000I-137500J0D01*
G01*
X97062500Y-65475000D01*
G75*
G02*
X96925000Y-65337500I0J137500D01*
G01*
G37*
G36*
G01*
X96925000Y-66137500D02*
X96925000Y-65862500D01*
G75*
G02*
X97062500Y-65725000I137500J0D01*
G01*
X98262500Y-65725000D01*
G75*
G02*
X98400000Y-65862500I0J-137500D01*
G01*
X98400000Y-66137500D01*
G75*
G02*
X98262500Y-66275000I-137500J0D01*
G01*
X97062500Y-66275000D01*
G75*
G02*
X96925000Y-66137500I0J137500D01*
G01*
G37*
G36*
G01*
X95725000Y-68262500D02*
X95725000Y-67062500D01*
G75*
G02*
X95862500Y-66925000I137500J0D01*
G01*
X96137500Y-66925000D01*
G75*
G02*
X96275000Y-67062500I0J-137500D01*
G01*
X96275000Y-68262500D01*
G75*
G02*
X96137500Y-68400000I-137500J0D01*
G01*
X95862500Y-68400000D01*
G75*
G02*
X95725000Y-68262500I0J137500D01*
G01*
G37*
G36*
G01*
X94925000Y-68262500D02*
X94925000Y-67062500D01*
G75*
G02*
X95062500Y-66925000I137500J0D01*
G01*
X95337500Y-66925000D01*
G75*
G02*
X95475000Y-67062500I0J-137500D01*
G01*
X95475000Y-68262500D01*
G75*
G02*
X95337500Y-68400000I-137500J0D01*
G01*
X95062500Y-68400000D01*
G75*
G02*
X94925000Y-68262500I0J137500D01*
G01*
G37*
G36*
G01*
X94125000Y-68262500D02*
X94125000Y-67062500D01*
G75*
G02*
X94262500Y-66925000I137500J0D01*
G01*
X94537500Y-66925000D01*
G75*
G02*
X94675000Y-67062500I0J-137500D01*
G01*
X94675000Y-68262500D01*
G75*
G02*
X94537500Y-68400000I-137500J0D01*
G01*
X94262500Y-68400000D01*
G75*
G02*
X94125000Y-68262500I0J137500D01*
G01*
G37*
G36*
G01*
X93325000Y-68262500D02*
X93325000Y-67062500D01*
G75*
G02*
X93462500Y-66925000I137500J0D01*
G01*
X93737500Y-66925000D01*
G75*
G02*
X93875000Y-67062500I0J-137500D01*
G01*
X93875000Y-68262500D01*
G75*
G02*
X93737500Y-68400000I-137500J0D01*
G01*
X93462500Y-68400000D01*
G75*
G02*
X93325000Y-68262500I0J137500D01*
G01*
G37*
G36*
G01*
X92525000Y-68262500D02*
X92525000Y-67062500D01*
G75*
G02*
X92662500Y-66925000I137500J0D01*
G01*
X92937500Y-66925000D01*
G75*
G02*
X93075000Y-67062500I0J-137500D01*
G01*
X93075000Y-68262500D01*
G75*
G02*
X92937500Y-68400000I-137500J0D01*
G01*
X92662500Y-68400000D01*
G75*
G02*
X92525000Y-68262500I0J137500D01*
G01*
G37*
G36*
G01*
X91725000Y-68262500D02*
X91725000Y-67062500D01*
G75*
G02*
X91862500Y-66925000I137500J0D01*
G01*
X92137500Y-66925000D01*
G75*
G02*
X92275000Y-67062500I0J-137500D01*
G01*
X92275000Y-68262500D01*
G75*
G02*
X92137500Y-68400000I-137500J0D01*
G01*
X91862500Y-68400000D01*
G75*
G02*
X91725000Y-68262500I0J137500D01*
G01*
G37*
G36*
G01*
X90925000Y-68262500D02*
X90925000Y-67062500D01*
G75*
G02*
X91062500Y-66925000I137500J0D01*
G01*
X91337500Y-66925000D01*
G75*
G02*
X91475000Y-67062500I0J-137500D01*
G01*
X91475000Y-68262500D01*
G75*
G02*
X91337500Y-68400000I-137500J0D01*
G01*
X91062500Y-68400000D01*
G75*
G02*
X90925000Y-68262500I0J137500D01*
G01*
G37*
G36*
G01*
X90125000Y-68262500D02*
X90125000Y-67062500D01*
G75*
G02*
X90262500Y-66925000I137500J0D01*
G01*
X90537500Y-66925000D01*
G75*
G02*
X90675000Y-67062500I0J-137500D01*
G01*
X90675000Y-68262500D01*
G75*
G02*
X90537500Y-68400000I-137500J0D01*
G01*
X90262500Y-68400000D01*
G75*
G02*
X90125000Y-68262500I0J137500D01*
G01*
G37*
G36*
G01*
X89325000Y-68262500D02*
X89325000Y-67062500D01*
G75*
G02*
X89462500Y-66925000I137500J0D01*
G01*
X89737500Y-66925000D01*
G75*
G02*
X89875000Y-67062500I0J-137500D01*
G01*
X89875000Y-68262500D01*
G75*
G02*
X89737500Y-68400000I-137500J0D01*
G01*
X89462500Y-68400000D01*
G75*
G02*
X89325000Y-68262500I0J137500D01*
G01*
G37*
G36*
G01*
X88525000Y-68262500D02*
X88525000Y-67062500D01*
G75*
G02*
X88662500Y-66925000I137500J0D01*
G01*
X88937500Y-66925000D01*
G75*
G02*
X89075000Y-67062500I0J-137500D01*
G01*
X89075000Y-68262500D01*
G75*
G02*
X88937500Y-68400000I-137500J0D01*
G01*
X88662500Y-68400000D01*
G75*
G02*
X88525000Y-68262500I0J137500D01*
G01*
G37*
G36*
G01*
X87725000Y-68262500D02*
X87725000Y-67062500D01*
G75*
G02*
X87862500Y-66925000I137500J0D01*
G01*
X88137500Y-66925000D01*
G75*
G02*
X88275000Y-67062500I0J-137500D01*
G01*
X88275000Y-68262500D01*
G75*
G02*
X88137500Y-68400000I-137500J0D01*
G01*
X87862500Y-68400000D01*
G75*
G02*
X87725000Y-68262500I0J137500D01*
G01*
G37*
G36*
G01*
X85600000Y-66137500D02*
X85600000Y-65862500D01*
G75*
G02*
X85737500Y-65725000I137500J0D01*
G01*
X86937500Y-65725000D01*
G75*
G02*
X87075000Y-65862500I0J-137500D01*
G01*
X87075000Y-66137500D01*
G75*
G02*
X86937500Y-66275000I-137500J0D01*
G01*
X85737500Y-66275000D01*
G75*
G02*
X85600000Y-66137500I0J137500D01*
G01*
G37*
G36*
G01*
X85600000Y-65337500D02*
X85600000Y-65062500D01*
G75*
G02*
X85737500Y-64925000I137500J0D01*
G01*
X86937500Y-64925000D01*
G75*
G02*
X87075000Y-65062500I0J-137500D01*
G01*
X87075000Y-65337500D01*
G75*
G02*
X86937500Y-65475000I-137500J0D01*
G01*
X85737500Y-65475000D01*
G75*
G02*
X85600000Y-65337500I0J137500D01*
G01*
G37*
G36*
G01*
X85600000Y-64537500D02*
X85600000Y-64262500D01*
G75*
G02*
X85737500Y-64125000I137500J0D01*
G01*
X86937500Y-64125000D01*
G75*
G02*
X87075000Y-64262500I0J-137500D01*
G01*
X87075000Y-64537500D01*
G75*
G02*
X86937500Y-64675000I-137500J0D01*
G01*
X85737500Y-64675000D01*
G75*
G02*
X85600000Y-64537500I0J137500D01*
G01*
G37*
G36*
G01*
X85600000Y-63737500D02*
X85600000Y-63462500D01*
G75*
G02*
X85737500Y-63325000I137500J0D01*
G01*
X86937500Y-63325000D01*
G75*
G02*
X87075000Y-63462500I0J-137500D01*
G01*
X87075000Y-63737500D01*
G75*
G02*
X86937500Y-63875000I-137500J0D01*
G01*
X85737500Y-63875000D01*
G75*
G02*
X85600000Y-63737500I0J137500D01*
G01*
G37*
G36*
G01*
X85600000Y-62937500D02*
X85600000Y-62662500D01*
G75*
G02*
X85737500Y-62525000I137500J0D01*
G01*
X86937500Y-62525000D01*
G75*
G02*
X87075000Y-62662500I0J-137500D01*
G01*
X87075000Y-62937500D01*
G75*
G02*
X86937500Y-63075000I-137500J0D01*
G01*
X85737500Y-63075000D01*
G75*
G02*
X85600000Y-62937500I0J137500D01*
G01*
G37*
G36*
G01*
X85600000Y-62137500D02*
X85600000Y-61862500D01*
G75*
G02*
X85737500Y-61725000I137500J0D01*
G01*
X86937500Y-61725000D01*
G75*
G02*
X87075000Y-61862500I0J-137500D01*
G01*
X87075000Y-62137500D01*
G75*
G02*
X86937500Y-62275000I-137500J0D01*
G01*
X85737500Y-62275000D01*
G75*
G02*
X85600000Y-62137500I0J137500D01*
G01*
G37*
G36*
G01*
X85600000Y-61337500D02*
X85600000Y-61062500D01*
G75*
G02*
X85737500Y-60925000I137500J0D01*
G01*
X86937500Y-60925000D01*
G75*
G02*
X87075000Y-61062500I0J-137500D01*
G01*
X87075000Y-61337500D01*
G75*
G02*
X86937500Y-61475000I-137500J0D01*
G01*
X85737500Y-61475000D01*
G75*
G02*
X85600000Y-61337500I0J137500D01*
G01*
G37*
G36*
G01*
X85600000Y-60537500D02*
X85600000Y-60262500D01*
G75*
G02*
X85737500Y-60125000I137500J0D01*
G01*
X86937500Y-60125000D01*
G75*
G02*
X87075000Y-60262500I0J-137500D01*
G01*
X87075000Y-60537500D01*
G75*
G02*
X86937500Y-60675000I-137500J0D01*
G01*
X85737500Y-60675000D01*
G75*
G02*
X85600000Y-60537500I0J137500D01*
G01*
G37*
G36*
G01*
X85600000Y-59737500D02*
X85600000Y-59462500D01*
G75*
G02*
X85737500Y-59325000I137500J0D01*
G01*
X86937500Y-59325000D01*
G75*
G02*
X87075000Y-59462500I0J-137500D01*
G01*
X87075000Y-59737500D01*
G75*
G02*
X86937500Y-59875000I-137500J0D01*
G01*
X85737500Y-59875000D01*
G75*
G02*
X85600000Y-59737500I0J137500D01*
G01*
G37*
G36*
G01*
X85600000Y-58937500D02*
X85600000Y-58662500D01*
G75*
G02*
X85737500Y-58525000I137500J0D01*
G01*
X86937500Y-58525000D01*
G75*
G02*
X87075000Y-58662500I0J-137500D01*
G01*
X87075000Y-58937500D01*
G75*
G02*
X86937500Y-59075000I-137500J0D01*
G01*
X85737500Y-59075000D01*
G75*
G02*
X85600000Y-58937500I0J137500D01*
G01*
G37*
G36*
G01*
X85600000Y-58137500D02*
X85600000Y-57862500D01*
G75*
G02*
X85737500Y-57725000I137500J0D01*
G01*
X86937500Y-57725000D01*
G75*
G02*
X87075000Y-57862500I0J-137500D01*
G01*
X87075000Y-58137500D01*
G75*
G02*
X86937500Y-58275000I-137500J0D01*
G01*
X85737500Y-58275000D01*
G75*
G02*
X85600000Y-58137500I0J137500D01*
G01*
G37*
D15*
X117500000Y-70000000D03*
X120000000Y-70000000D03*
X139500000Y-59000000D03*
X142000000Y-59000000D03*
D41*
X79850000Y-97000000D03*
X79850000Y-96200000D03*
X79850000Y-95400000D03*
X79850000Y-94600000D03*
X79850000Y-93800000D03*
X79850000Y-93000000D03*
X79850000Y-92200000D03*
X79850000Y-91400000D03*
X79850000Y-90600000D03*
X79850000Y-89800000D03*
X79850000Y-89000000D03*
X79850000Y-88200000D03*
X79850000Y-87400000D03*
X79850000Y-86600000D03*
X79850000Y-85800000D03*
X79850000Y-85000000D03*
D42*
X81800000Y-82850000D03*
X82600000Y-82850000D03*
X83400000Y-82850000D03*
X84200000Y-82850000D03*
X85000000Y-82850000D03*
X85800000Y-82850000D03*
X86600000Y-82850000D03*
X87400000Y-82850000D03*
X88200000Y-82850000D03*
X89000000Y-82850000D03*
X89800000Y-82850000D03*
X90600000Y-82850000D03*
X91400000Y-82850000D03*
X92200000Y-82850000D03*
X93000000Y-82850000D03*
X93800000Y-82850000D03*
X94600000Y-82850000D03*
X95400000Y-82850000D03*
X96200000Y-82850000D03*
X97000000Y-82850000D03*
X97800000Y-82850000D03*
X98600000Y-82850000D03*
X99400000Y-82850000D03*
X100200000Y-82850000D03*
D41*
X102150000Y-85000000D03*
X102150000Y-85800000D03*
X102150000Y-86600000D03*
X102150000Y-87400000D03*
X102150000Y-88200000D03*
X102150000Y-89000000D03*
X102150000Y-89800000D03*
X102150000Y-90600000D03*
X102150000Y-91400000D03*
X102150000Y-92200000D03*
X102150000Y-93000000D03*
X102150000Y-93800000D03*
X102150000Y-94600000D03*
X102150000Y-95400000D03*
X102150000Y-96200000D03*
X102150000Y-97000000D03*
D42*
X100200000Y-99150000D03*
X99400000Y-99150000D03*
X98600000Y-99150000D03*
X97800000Y-99150000D03*
X97000000Y-99150000D03*
X96200000Y-99150000D03*
X95400000Y-99150000D03*
X94600000Y-99150000D03*
X93800000Y-99150000D03*
X93000000Y-99150000D03*
X92200000Y-99150000D03*
X91400000Y-99150000D03*
X90600000Y-99150000D03*
X89800000Y-99150000D03*
X89000000Y-99150000D03*
X88200000Y-99150000D03*
X87400000Y-99150000D03*
X86600000Y-99150000D03*
X85800000Y-99150000D03*
X85000000Y-99150000D03*
X84200000Y-99150000D03*
X83400000Y-99150000D03*
X82600000Y-99150000D03*
X81800000Y-99150000D03*
M02*
