%FSLAX45Y45*%
G04 Gerber Fmt 4.5, Leading zero omitted, Abs format (unit mm)*
G04 Created by KiCad (PCBNEW (5.1.10)-1) date 2023-11-24 10:20:04*
%MOMM*%
%LPD*%
G01*
G04 APERTURE LIST*
%TA.AperFunction,Profile*%
%ADD10C,0.150000*%
%TD*%
%ADD11C,0.200000*%
%ADD12C,0.300000*%
G04 APERTURE END LIST*
D10*
X6350000Y-13208000D02*
X6350000Y-5080000D01*
X20828000Y-5080000D02*
X6350000Y-5080000D01*
X20828000Y-13208000D02*
X20828000Y-5080000D01*
X6350000Y-13208000D02*
X20828000Y-13208000D01*
D11*
X7574600Y-6863400D02*
X7614600Y-6903400D01*
X7614600Y-6863400D02*
X7574600Y-6903400D01*
X7574600Y-9403400D02*
X7614600Y-9443400D01*
X7614600Y-9403400D02*
X7574600Y-9443400D01*
X8235000Y-10114600D02*
X8275000Y-10154600D01*
X8275000Y-10114600D02*
X8235000Y-10154600D01*
X8285800Y-5796600D02*
X8325800Y-5836600D01*
X8325800Y-5796600D02*
X8285800Y-5836600D01*
X10013000Y-11918000D02*
X10053000Y-11958000D01*
X10053000Y-11918000D02*
X10013000Y-11958000D01*
X11759290Y-8498900D02*
X11799290Y-8538900D01*
X11799290Y-8498900D02*
X11759290Y-8538900D01*
X11869200Y-9261270D02*
X11909200Y-9301270D01*
X11909200Y-9261270D02*
X11869200Y-9301270D01*
X12273600Y-6939600D02*
X12313600Y-6979600D01*
X12313600Y-6939600D02*
X12273600Y-6979600D01*
X12785360Y-7465130D02*
X12825360Y-7505130D01*
X12825360Y-7465130D02*
X12785360Y-7505130D01*
X12959400Y-11181400D02*
X12999400Y-11221400D01*
X12999400Y-11181400D02*
X12959400Y-11221400D01*
X13315000Y-10444800D02*
X13355000Y-10484800D01*
X13355000Y-10444800D02*
X13315000Y-10484800D01*
X13975400Y-6634800D02*
X14015400Y-6674800D01*
X14015400Y-6634800D02*
X13975400Y-6674800D01*
X14277290Y-10019170D02*
X14317290Y-10059170D01*
X14317290Y-10019170D02*
X14277290Y-10059170D01*
X14304990Y-8485350D02*
X14344990Y-8525350D01*
X14344990Y-8485350D02*
X14304990Y-8525350D01*
X14381800Y-8285800D02*
X14421800Y-8325800D01*
X14421800Y-8285800D02*
X14381800Y-8325800D01*
X14534200Y-6990400D02*
X14574200Y-7030400D01*
X14574200Y-6990400D02*
X14534200Y-7030400D01*
X14559600Y-9251000D02*
X14599600Y-9291000D01*
X14599600Y-9251000D02*
X14559600Y-9291000D01*
X14559600Y-10190800D02*
X14599600Y-10230800D01*
X14599600Y-10190800D02*
X14559600Y-10230800D01*
X14813600Y-8311200D02*
X14853600Y-8351200D01*
X14853600Y-8311200D02*
X14813600Y-8351200D01*
X15321600Y-7041200D02*
X15361600Y-7081200D01*
X15361600Y-7041200D02*
X15321600Y-7081200D01*
X15321600Y-7930200D02*
X15361600Y-7970200D01*
X15361600Y-7930200D02*
X15321600Y-7970200D01*
X15543230Y-10001790D02*
X15583230Y-10041790D01*
X15583230Y-10001790D02*
X15543230Y-10041790D01*
X15933710Y-10010780D02*
X15973710Y-10050780D01*
X15973710Y-10010780D02*
X15933710Y-10050780D01*
X16065560Y-10159670D02*
X16105560Y-10199670D01*
X16105560Y-10159670D02*
X16065560Y-10199670D01*
X16566200Y-8311200D02*
X16606200Y-8351200D01*
X16606200Y-8311200D02*
X16566200Y-8351200D01*
X17912400Y-9124000D02*
X17952400Y-9164000D01*
X17952400Y-9124000D02*
X17912400Y-9164000D01*
X7634600Y-11938000D02*
G75*
G03*
X7634600Y-11938000I-40000J0D01*
G01*
X7884600Y-11938000D02*
G75*
G03*
X7884600Y-11938000I-40000J0D01*
G01*
X8098600Y-6299200D02*
G75*
G03*
X8098600Y-6299200I-40000J0D01*
G01*
X8098600Y-7823200D02*
G75*
G03*
X8098600Y-7823200I-40000J0D01*
G01*
X8098600Y-8872800D02*
G75*
G03*
X8098600Y-8872800I-40000J0D01*
G01*
X8098600Y-10396800D02*
G75*
G03*
X8098600Y-10396800I-40000J0D01*
G01*
X8352600Y-6299200D02*
G75*
G03*
X8352600Y-6299200I-40000J0D01*
G01*
X8352600Y-7823200D02*
G75*
G03*
X8352600Y-7823200I-40000J0D01*
G01*
X8352600Y-8872800D02*
G75*
G03*
X8352600Y-8872800I-40000J0D01*
G01*
X8352600Y-10396800D02*
G75*
G03*
X8352600Y-10396800I-40000J0D01*
G01*
X8606600Y-6299200D02*
G75*
G03*
X8606600Y-6299200I-40000J0D01*
G01*
X8606600Y-7823200D02*
G75*
G03*
X8606600Y-7823200I-40000J0D01*
G01*
X8606600Y-8872800D02*
G75*
G03*
X8606600Y-8872800I-40000J0D01*
G01*
X8606600Y-10396800D02*
G75*
G03*
X8606600Y-10396800I-40000J0D01*
G01*
X8860600Y-6299200D02*
G75*
G03*
X8860600Y-6299200I-40000J0D01*
G01*
X8860600Y-7823200D02*
G75*
G03*
X8860600Y-7823200I-40000J0D01*
G01*
X8860600Y-8872800D02*
G75*
G03*
X8860600Y-8872800I-40000J0D01*
G01*
X8860600Y-10396800D02*
G75*
G03*
X8860600Y-10396800I-40000J0D01*
G01*
X9114600Y-6299200D02*
G75*
G03*
X9114600Y-6299200I-40000J0D01*
G01*
X9114600Y-7823200D02*
G75*
G03*
X9114600Y-7823200I-40000J0D01*
G01*
X9114600Y-8872800D02*
G75*
G03*
X9114600Y-8872800I-40000J0D01*
G01*
X9114600Y-10396800D02*
G75*
G03*
X9114600Y-10396800I-40000J0D01*
G01*
X9368600Y-6299200D02*
G75*
G03*
X9368600Y-6299200I-40000J0D01*
G01*
X9368600Y-7823200D02*
G75*
G03*
X9368600Y-7823200I-40000J0D01*
G01*
X9368600Y-8872800D02*
G75*
G03*
X9368600Y-8872800I-40000J0D01*
G01*
X9368600Y-10396800D02*
G75*
G03*
X9368600Y-10396800I-40000J0D01*
G01*
X9622600Y-6299200D02*
G75*
G03*
X9622600Y-6299200I-40000J0D01*
G01*
X9622600Y-7823200D02*
G75*
G03*
X9622600Y-7823200I-40000J0D01*
G01*
X9622600Y-8872800D02*
G75*
G03*
X9622600Y-8872800I-40000J0D01*
G01*
X9622600Y-10396800D02*
G75*
G03*
X9622600Y-10396800I-40000J0D01*
G01*
X9876600Y-6299200D02*
G75*
G03*
X9876600Y-6299200I-40000J0D01*
G01*
X9876600Y-7823200D02*
G75*
G03*
X9876600Y-7823200I-40000J0D01*
G01*
X9876600Y-8872800D02*
G75*
G03*
X9876600Y-8872800I-40000J0D01*
G01*
X9876600Y-10396800D02*
G75*
G03*
X9876600Y-10396800I-40000J0D01*
G01*
X10130600Y-6299200D02*
G75*
G03*
X10130600Y-6299200I-40000J0D01*
G01*
X10130600Y-7823200D02*
G75*
G03*
X10130600Y-7823200I-40000J0D01*
G01*
X10130600Y-8872800D02*
G75*
G03*
X10130600Y-8872800I-40000J0D01*
G01*
X10130600Y-10396800D02*
G75*
G03*
X10130600Y-10396800I-40000J0D01*
G01*
X10377800Y-11430000D02*
G75*
G03*
X10377800Y-11430000I-40000J0D01*
G01*
X10377800Y-12192000D02*
G75*
G03*
X10377800Y-12192000I-40000J0D01*
G01*
X10384600Y-6299200D02*
G75*
G03*
X10384600Y-6299200I-40000J0D01*
G01*
X10384600Y-7823200D02*
G75*
G03*
X10384600Y-7823200I-40000J0D01*
G01*
X10384600Y-8872800D02*
G75*
G03*
X10384600Y-8872800I-40000J0D01*
G01*
X10384600Y-10396800D02*
G75*
G03*
X10384600Y-10396800I-40000J0D01*
G01*
X10631800Y-11430000D02*
G75*
G03*
X10631800Y-11430000I-40000J0D01*
G01*
X10631800Y-12192000D02*
G75*
G03*
X10631800Y-12192000I-40000J0D01*
G01*
X10638600Y-6299200D02*
G75*
G03*
X10638600Y-6299200I-40000J0D01*
G01*
X10638600Y-7823200D02*
G75*
G03*
X10638600Y-7823200I-40000J0D01*
G01*
X10638600Y-8872800D02*
G75*
G03*
X10638600Y-8872800I-40000J0D01*
G01*
X10638600Y-10396800D02*
G75*
G03*
X10638600Y-10396800I-40000J0D01*
G01*
X10885800Y-11430000D02*
G75*
G03*
X10885800Y-11430000I-40000J0D01*
G01*
X10885800Y-12192000D02*
G75*
G03*
X10885800Y-12192000I-40000J0D01*
G01*
X10892600Y-6299200D02*
G75*
G03*
X10892600Y-6299200I-40000J0D01*
G01*
X10892600Y-7823200D02*
G75*
G03*
X10892600Y-7823200I-40000J0D01*
G01*
X10892600Y-8872800D02*
G75*
G03*
X10892600Y-8872800I-40000J0D01*
G01*
X10892600Y-10396800D02*
G75*
G03*
X10892600Y-10396800I-40000J0D01*
G01*
X11139800Y-11430000D02*
G75*
G03*
X11139800Y-11430000I-40000J0D01*
G01*
X11139800Y-12192000D02*
G75*
G03*
X11139800Y-12192000I-40000J0D01*
G01*
X11146600Y-6299200D02*
G75*
G03*
X11146600Y-6299200I-40000J0D01*
G01*
X11146600Y-7823200D02*
G75*
G03*
X11146600Y-7823200I-40000J0D01*
G01*
X11146600Y-8872800D02*
G75*
G03*
X11146600Y-8872800I-40000J0D01*
G01*
X11146600Y-10396800D02*
G75*
G03*
X11146600Y-10396800I-40000J0D01*
G01*
X11393800Y-11430000D02*
G75*
G03*
X11393800Y-11430000I-40000J0D01*
G01*
X11393800Y-12192000D02*
G75*
G03*
X11393800Y-12192000I-40000J0D01*
G01*
X11400600Y-6299200D02*
G75*
G03*
X11400600Y-6299200I-40000J0D01*
G01*
X11400600Y-7823200D02*
G75*
G03*
X11400600Y-7823200I-40000J0D01*
G01*
X11400600Y-8872800D02*
G75*
G03*
X11400600Y-8872800I-40000J0D01*
G01*
X11400600Y-10396800D02*
G75*
G03*
X11400600Y-10396800I-40000J0D01*
G01*
X11647800Y-11430000D02*
G75*
G03*
X11647800Y-11430000I-40000J0D01*
G01*
X11647800Y-12192000D02*
G75*
G03*
X11647800Y-12192000I-40000J0D01*
G01*
X11654600Y-6299200D02*
G75*
G03*
X11654600Y-6299200I-40000J0D01*
G01*
X11654600Y-7823200D02*
G75*
G03*
X11654600Y-7823200I-40000J0D01*
G01*
X11654600Y-8872800D02*
G75*
G03*
X11654600Y-8872800I-40000J0D01*
G01*
X11654600Y-10396800D02*
G75*
G03*
X11654600Y-10396800I-40000J0D01*
G01*
X11901800Y-11430000D02*
G75*
G03*
X11901800Y-11430000I-40000J0D01*
G01*
X11901800Y-12192000D02*
G75*
G03*
X11901800Y-12192000I-40000J0D01*
G01*
X11908600Y-6299200D02*
G75*
G03*
X11908600Y-6299200I-40000J0D01*
G01*
X11908600Y-7823200D02*
G75*
G03*
X11908600Y-7823200I-40000J0D01*
G01*
X11908600Y-8872800D02*
G75*
G03*
X11908600Y-8872800I-40000J0D01*
G01*
X11908600Y-10396800D02*
G75*
G03*
X11908600Y-10396800I-40000J0D01*
G01*
X13349600Y-10922000D02*
G75*
G03*
X13349600Y-10922000I-40000J0D01*
G01*
X13349600Y-11684000D02*
G75*
G03*
X13349600Y-11684000I-40000J0D01*
G01*
X13476600Y-7569200D02*
G75*
G03*
X13476600Y-7569200I-40000J0D01*
G01*
X13476600Y-7823200D02*
G75*
G03*
X13476600Y-7823200I-40000J0D01*
G01*
X13476600Y-8077200D02*
G75*
G03*
X13476600Y-8077200I-40000J0D01*
G01*
X13476600Y-8331200D02*
G75*
G03*
X13476600Y-8331200I-40000J0D01*
G01*
X13476600Y-8585200D02*
G75*
G03*
X13476600Y-8585200I-40000J0D01*
G01*
X13476600Y-8839200D02*
G75*
G03*
X13476600Y-8839200I-40000J0D01*
G01*
X13476600Y-9093200D02*
G75*
G03*
X13476600Y-9093200I-40000J0D01*
G01*
X13476600Y-9347200D02*
G75*
G03*
X13476600Y-9347200I-40000J0D01*
G01*
X13476600Y-9601200D02*
G75*
G03*
X13476600Y-9601200I-40000J0D01*
G01*
X13730600Y-7315200D02*
G75*
G03*
X13730600Y-7315200I-40000J0D01*
G01*
X13730600Y-7569200D02*
G75*
G03*
X13730600Y-7569200I-40000J0D01*
G01*
X13730600Y-7823200D02*
G75*
G03*
X13730600Y-7823200I-40000J0D01*
G01*
X13730600Y-8077200D02*
G75*
G03*
X13730600Y-8077200I-40000J0D01*
G01*
X13730600Y-8331200D02*
G75*
G03*
X13730600Y-8331200I-40000J0D01*
G01*
X13730600Y-8585200D02*
G75*
G03*
X13730600Y-8585200I-40000J0D01*
G01*
X13730600Y-8839200D02*
G75*
G03*
X13730600Y-8839200I-40000J0D01*
G01*
X13730600Y-9093200D02*
G75*
G03*
X13730600Y-9093200I-40000J0D01*
G01*
X13730600Y-9347200D02*
G75*
G03*
X13730600Y-9347200I-40000J0D01*
G01*
X13730600Y-9601200D02*
G75*
G03*
X13730600Y-9601200I-40000J0D01*
G01*
X13730600Y-9855200D02*
G75*
G03*
X13730600Y-9855200I-40000J0D01*
G01*
X13984600Y-7315200D02*
G75*
G03*
X13984600Y-7315200I-40000J0D01*
G01*
X13984600Y-7569200D02*
G75*
G03*
X13984600Y-7569200I-40000J0D01*
G01*
X13984600Y-9601200D02*
G75*
G03*
X13984600Y-9601200I-40000J0D01*
G01*
X13984600Y-9855200D02*
G75*
G03*
X13984600Y-9855200I-40000J0D01*
G01*
X14238600Y-7315200D02*
G75*
G03*
X14238600Y-7315200I-40000J0D01*
G01*
X14238600Y-7569200D02*
G75*
G03*
X14238600Y-7569200I-40000J0D01*
G01*
X14238600Y-9601200D02*
G75*
G03*
X14238600Y-9601200I-40000J0D01*
G01*
X14238600Y-9855200D02*
G75*
G03*
X14238600Y-9855200I-40000J0D01*
G01*
X14492600Y-7315200D02*
G75*
G03*
X14492600Y-7315200I-40000J0D01*
G01*
X14492600Y-7569200D02*
G75*
G03*
X14492600Y-7569200I-40000J0D01*
G01*
X14492600Y-9601200D02*
G75*
G03*
X14492600Y-9601200I-40000J0D01*
G01*
X14492600Y-9855200D02*
G75*
G03*
X14492600Y-9855200I-40000J0D01*
G01*
X14746600Y-7315200D02*
G75*
G03*
X14746600Y-7315200I-40000J0D01*
G01*
X14746600Y-7569200D02*
G75*
G03*
X14746600Y-7569200I-40000J0D01*
G01*
X14746600Y-9601200D02*
G75*
G03*
X14746600Y-9601200I-40000J0D01*
G01*
X14746600Y-9855200D02*
G75*
G03*
X14746600Y-9855200I-40000J0D01*
G01*
X14873600Y-10922000D02*
G75*
G03*
X14873600Y-10922000I-40000J0D01*
G01*
X14873600Y-11684000D02*
G75*
G03*
X14873600Y-11684000I-40000J0D01*
G01*
X15000600Y-7315200D02*
G75*
G03*
X15000600Y-7315200I-40000J0D01*
G01*
X15000600Y-7569200D02*
G75*
G03*
X15000600Y-7569200I-40000J0D01*
G01*
X15000600Y-9601200D02*
G75*
G03*
X15000600Y-9601200I-40000J0D01*
G01*
X15000600Y-9855200D02*
G75*
G03*
X15000600Y-9855200I-40000J0D01*
G01*
X15254600Y-7315200D02*
G75*
G03*
X15254600Y-7315200I-40000J0D01*
G01*
X15254600Y-7569200D02*
G75*
G03*
X15254600Y-7569200I-40000J0D01*
G01*
X15254600Y-9601200D02*
G75*
G03*
X15254600Y-9601200I-40000J0D01*
G01*
X15254600Y-9855200D02*
G75*
G03*
X15254600Y-9855200I-40000J0D01*
G01*
X15508600Y-7315200D02*
G75*
G03*
X15508600Y-7315200I-40000J0D01*
G01*
X15508600Y-7569200D02*
G75*
G03*
X15508600Y-7569200I-40000J0D01*
G01*
X15508600Y-9601200D02*
G75*
G03*
X15508600Y-9601200I-40000J0D01*
G01*
X15508600Y-9855200D02*
G75*
G03*
X15508600Y-9855200I-40000J0D01*
G01*
X15762600Y-7315200D02*
G75*
G03*
X15762600Y-7315200I-40000J0D01*
G01*
X15762600Y-7569200D02*
G75*
G03*
X15762600Y-7569200I-40000J0D01*
G01*
X15762600Y-7823200D02*
G75*
G03*
X15762600Y-7823200I-40000J0D01*
G01*
X15762600Y-8077200D02*
G75*
G03*
X15762600Y-8077200I-40000J0D01*
G01*
X15762600Y-8331200D02*
G75*
G03*
X15762600Y-8331200I-40000J0D01*
G01*
X15762600Y-8585200D02*
G75*
G03*
X15762600Y-8585200I-40000J0D01*
G01*
X15762600Y-8839200D02*
G75*
G03*
X15762600Y-8839200I-40000J0D01*
G01*
X15762600Y-9093200D02*
G75*
G03*
X15762600Y-9093200I-40000J0D01*
G01*
X15762600Y-9347200D02*
G75*
G03*
X15762600Y-9347200I-40000J0D01*
G01*
X15762600Y-9601200D02*
G75*
G03*
X15762600Y-9601200I-40000J0D01*
G01*
X15762600Y-9855200D02*
G75*
G03*
X15762600Y-9855200I-40000J0D01*
G01*
X16016600Y-7569200D02*
G75*
G03*
X16016600Y-7569200I-40000J0D01*
G01*
X16016600Y-7823200D02*
G75*
G03*
X16016600Y-7823200I-40000J0D01*
G01*
X16016600Y-8077200D02*
G75*
G03*
X16016600Y-8077200I-40000J0D01*
G01*
X16016600Y-8331200D02*
G75*
G03*
X16016600Y-8331200I-40000J0D01*
G01*
X16016600Y-8585200D02*
G75*
G03*
X16016600Y-8585200I-40000J0D01*
G01*
X16016600Y-8839200D02*
G75*
G03*
X16016600Y-8839200I-40000J0D01*
G01*
X16016600Y-9093200D02*
G75*
G03*
X16016600Y-9093200I-40000J0D01*
G01*
X16016600Y-9347200D02*
G75*
G03*
X16016600Y-9347200I-40000J0D01*
G01*
X16016600Y-9601200D02*
G75*
G03*
X16016600Y-9601200I-40000J0D01*
G01*
X17743800Y-6908800D02*
G75*
G03*
X17743800Y-6908800I-40000J0D01*
G01*
X17743800Y-7162800D02*
G75*
G03*
X17743800Y-7162800I-40000J0D01*
G01*
X17743800Y-7416800D02*
G75*
G03*
X17743800Y-7416800I-40000J0D01*
G01*
X17743800Y-7670800D02*
G75*
G03*
X17743800Y-7670800I-40000J0D01*
G01*
X17743800Y-7924800D02*
G75*
G03*
X17743800Y-7924800I-40000J0D01*
G01*
X17743800Y-8178800D02*
G75*
G03*
X17743800Y-8178800I-40000J0D01*
G01*
X17743800Y-8432800D02*
G75*
G03*
X17743800Y-8432800I-40000J0D01*
G01*
X18505800Y-6908800D02*
G75*
G03*
X18505800Y-6908800I-40000J0D01*
G01*
X18505800Y-7162800D02*
G75*
G03*
X18505800Y-7162800I-40000J0D01*
G01*
X18505800Y-7416800D02*
G75*
G03*
X18505800Y-7416800I-40000J0D01*
G01*
X18505800Y-7670800D02*
G75*
G03*
X18505800Y-7670800I-40000J0D01*
G01*
X18505800Y-7924800D02*
G75*
G03*
X18505800Y-7924800I-40000J0D01*
G01*
X18505800Y-8178800D02*
G75*
G03*
X18505800Y-8178800I-40000J0D01*
G01*
X18505800Y-8432800D02*
G75*
G03*
X18505800Y-8432800I-40000J0D01*
G01*
X15544400Y-11711600D02*
X15544400Y-11801600D01*
X15499400Y-11756600D02*
X15589400Y-11756600D01*
X15798400Y-11711600D02*
X15798400Y-11801600D01*
X15753400Y-11756600D02*
X15843400Y-11756600D01*
X16134400Y-11711600D02*
X16134400Y-11801600D01*
X16089400Y-11756600D02*
X16179400Y-11756600D01*
X16388400Y-11711600D02*
X16388400Y-11801600D01*
X16343400Y-11756600D02*
X16433400Y-11756600D01*
X16723000Y-11714600D02*
X16723000Y-11804600D01*
X16678000Y-11759600D02*
X16768000Y-11759600D01*
X16977000Y-11714600D02*
X16977000Y-11804600D01*
X16932000Y-11759600D02*
X17022000Y-11759600D01*
X20240200Y-6590600D02*
X20240200Y-6680600D01*
X20195200Y-6635600D02*
X20285200Y-6635600D01*
X20240200Y-6844600D02*
X20240200Y-6934600D01*
X20195200Y-6889600D02*
X20285200Y-6889600D01*
X19641327Y-8160527D02*
X19641327Y-8095473D01*
X19576273Y-8095473D01*
X19576273Y-8160527D01*
X19641327Y-8160527D01*
X19641327Y-8410527D02*
X19641327Y-8345473D01*
X19576273Y-8345473D01*
X19576273Y-8410527D01*
X19641327Y-8410527D01*
X19841327Y-8160527D02*
X19841327Y-8095473D01*
X19776273Y-8095473D01*
X19776273Y-8160527D01*
X19841327Y-8160527D01*
X19841327Y-8410527D02*
X19841327Y-8345473D01*
X19776273Y-8345473D01*
X19776273Y-8410527D01*
X19841327Y-8410527D01*
X18135600Y-10057600D02*
X18185600Y-10007600D01*
X18135600Y-9957600D01*
X18085600Y-10007600D01*
X18135600Y-10057600D01*
X18135600Y-10311600D02*
X18185600Y-10261600D01*
X18135600Y-10211600D01*
X18085600Y-10261600D01*
X18135600Y-10311600D01*
X18135600Y-10565600D02*
X18185600Y-10515600D01*
X18135600Y-10465600D01*
X18085600Y-10515600D01*
X18135600Y-10565600D01*
X18135600Y-10819600D02*
X18185600Y-10769600D01*
X18135600Y-10719600D01*
X18085600Y-10769600D01*
X18135600Y-10819600D01*
X18135600Y-11073600D02*
X18185600Y-11023600D01*
X18135600Y-10973600D01*
X18085600Y-11023600D01*
X18135600Y-11073600D01*
X18135600Y-11327600D02*
X18185600Y-11277600D01*
X18135600Y-11227600D01*
X18085600Y-11277600D01*
X18135600Y-11327600D01*
X18135600Y-11581600D02*
X18185600Y-11531600D01*
X18135600Y-11481600D01*
X18085600Y-11531600D01*
X18135600Y-11581600D01*
X18135600Y-11835600D02*
X18185600Y-11785600D01*
X18135600Y-11735600D01*
X18085600Y-11785600D01*
X18135600Y-11835600D01*
X15066000Y-5949000D02*
X15176000Y-6059000D01*
X15176000Y-5949000D02*
X15066000Y-6059000D01*
X15176000Y-6004000D02*
G75*
G03*
X15176000Y-6004000I-55000J0D01*
G01*
X15066000Y-6399000D02*
X15176000Y-6509000D01*
X15176000Y-6399000D02*
X15066000Y-6509000D01*
X15176000Y-6454000D02*
G75*
G03*
X15176000Y-6454000I-55000J0D01*
G01*
X15716000Y-5949000D02*
X15826000Y-6059000D01*
X15826000Y-5949000D02*
X15716000Y-6059000D01*
X15826000Y-6004000D02*
G75*
G03*
X15826000Y-6004000I-55000J0D01*
G01*
X15716000Y-6399000D02*
X15826000Y-6509000D01*
X15826000Y-6399000D02*
X15716000Y-6509000D01*
X15826000Y-6454000D02*
G75*
G03*
X15826000Y-6454000I-55000J0D01*
G01*
X19963300Y-7534500D02*
X20196300Y-7767500D01*
X20196300Y-7534500D02*
X19963300Y-7767500D01*
X20079800Y-7534500D02*
X20079800Y-7767500D01*
X19963300Y-7651000D02*
X20196300Y-7651000D01*
X19963300Y-8738500D02*
X20196300Y-8971500D01*
X20196300Y-8738500D02*
X19963300Y-8971500D01*
X20079800Y-8738500D02*
X20079800Y-8971500D01*
X19963300Y-8855000D02*
X20196300Y-8855000D01*
D12*
X6628928Y-13681214D02*
X6628928Y-13381214D01*
X6700357Y-13381214D01*
X6743214Y-13395500D01*
X6771786Y-13424071D01*
X6786071Y-13452643D01*
X6800357Y-13509786D01*
X6800357Y-13552643D01*
X6786071Y-13609786D01*
X6771786Y-13638357D01*
X6743214Y-13666929D01*
X6700357Y-13681214D01*
X6628928Y-13681214D01*
X6928928Y-13681214D02*
X6928928Y-13481214D01*
X6928928Y-13538357D02*
X6943214Y-13509786D01*
X6957500Y-13495500D01*
X6986071Y-13481214D01*
X7014643Y-13481214D01*
X7114643Y-13681214D02*
X7114643Y-13481214D01*
X7114643Y-13381214D02*
X7100357Y-13395500D01*
X7114643Y-13409786D01*
X7128928Y-13395500D01*
X7114643Y-13381214D01*
X7114643Y-13409786D01*
X7300357Y-13681214D02*
X7271786Y-13666929D01*
X7257500Y-13638357D01*
X7257500Y-13381214D01*
X7457500Y-13681214D02*
X7428928Y-13666929D01*
X7414643Y-13638357D01*
X7414643Y-13381214D01*
X7800357Y-13681214D02*
X7800357Y-13381214D01*
X7900357Y-13595500D01*
X8000357Y-13381214D01*
X8000357Y-13681214D01*
X8271786Y-13681214D02*
X8271786Y-13524071D01*
X8257500Y-13495500D01*
X8228928Y-13481214D01*
X8171786Y-13481214D01*
X8143214Y-13495500D01*
X8271786Y-13666929D02*
X8243214Y-13681214D01*
X8171786Y-13681214D01*
X8143214Y-13666929D01*
X8128928Y-13638357D01*
X8128928Y-13609786D01*
X8143214Y-13581214D01*
X8171786Y-13566929D01*
X8243214Y-13566929D01*
X8271786Y-13552643D01*
X8414643Y-13481214D02*
X8414643Y-13781214D01*
X8414643Y-13495500D02*
X8443214Y-13481214D01*
X8500357Y-13481214D01*
X8528928Y-13495500D01*
X8543214Y-13509786D01*
X8557500Y-13538357D01*
X8557500Y-13624071D01*
X8543214Y-13652643D01*
X8528928Y-13666929D01*
X8500357Y-13681214D01*
X8443214Y-13681214D01*
X8414643Y-13666929D01*
X8686071Y-13652643D02*
X8700357Y-13666929D01*
X8686071Y-13681214D01*
X8671786Y-13666929D01*
X8686071Y-13652643D01*
X8686071Y-13681214D01*
X8686071Y-13495500D02*
X8700357Y-13509786D01*
X8686071Y-13524071D01*
X8671786Y-13509786D01*
X8686071Y-13495500D01*
X8686071Y-13524071D01*
X6302500Y-14155500D02*
X6342500Y-14195500D01*
X6342500Y-14155500D02*
X6302500Y-14195500D01*
X6686071Y-14011214D02*
X6714643Y-14011214D01*
X6743214Y-14025500D01*
X6757500Y-14039786D01*
X6771786Y-14068357D01*
X6786071Y-14125500D01*
X6786071Y-14196929D01*
X6771786Y-14254071D01*
X6757500Y-14282643D01*
X6743214Y-14296929D01*
X6714643Y-14311214D01*
X6686071Y-14311214D01*
X6657500Y-14296929D01*
X6643214Y-14282643D01*
X6628928Y-14254071D01*
X6614643Y-14196929D01*
X6614643Y-14125500D01*
X6628928Y-14068357D01*
X6643214Y-14039786D01*
X6657500Y-14025500D01*
X6686071Y-14011214D01*
X6914643Y-14282643D02*
X6928928Y-14296929D01*
X6914643Y-14311214D01*
X6900357Y-14296929D01*
X6914643Y-14282643D01*
X6914643Y-14311214D01*
X7186071Y-14111214D02*
X7186071Y-14311214D01*
X7114643Y-13996929D02*
X7043214Y-14211214D01*
X7228928Y-14211214D01*
X7400357Y-14011214D02*
X7428928Y-14011214D01*
X7457500Y-14025500D01*
X7471786Y-14039786D01*
X7486071Y-14068357D01*
X7500357Y-14125500D01*
X7500357Y-14196929D01*
X7486071Y-14254071D01*
X7471786Y-14282643D01*
X7457500Y-14296929D01*
X7428928Y-14311214D01*
X7400357Y-14311214D01*
X7371786Y-14296929D01*
X7357500Y-14282643D01*
X7343214Y-14254071D01*
X7328928Y-14196929D01*
X7328928Y-14125500D01*
X7343214Y-14068357D01*
X7357500Y-14039786D01*
X7371786Y-14025500D01*
X7400357Y-14011214D01*
X7686071Y-14011214D02*
X7714643Y-14011214D01*
X7743214Y-14025500D01*
X7757500Y-14039786D01*
X7771786Y-14068357D01*
X7786071Y-14125500D01*
X7786071Y-14196929D01*
X7771786Y-14254071D01*
X7757500Y-14282643D01*
X7743214Y-14296929D01*
X7714643Y-14311214D01*
X7686071Y-14311214D01*
X7657500Y-14296929D01*
X7643214Y-14282643D01*
X7628928Y-14254071D01*
X7614643Y-14196929D01*
X7614643Y-14125500D01*
X7628928Y-14068357D01*
X7643214Y-14039786D01*
X7657500Y-14025500D01*
X7686071Y-14011214D01*
X7914643Y-14311214D02*
X7914643Y-14111214D01*
X7914643Y-14139786D02*
X7928928Y-14125500D01*
X7957500Y-14111214D01*
X8000357Y-14111214D01*
X8028928Y-14125500D01*
X8043214Y-14154071D01*
X8043214Y-14311214D01*
X8043214Y-14154071D02*
X8057500Y-14125500D01*
X8086071Y-14111214D01*
X8128928Y-14111214D01*
X8157500Y-14125500D01*
X8171786Y-14154071D01*
X8171786Y-14311214D01*
X8314643Y-14311214D02*
X8314643Y-14111214D01*
X8314643Y-14139786D02*
X8328928Y-14125500D01*
X8357500Y-14111214D01*
X8400357Y-14111214D01*
X8428928Y-14125500D01*
X8443214Y-14154071D01*
X8443214Y-14311214D01*
X8443214Y-14154071D02*
X8457500Y-14125500D01*
X8486071Y-14111214D01*
X8528928Y-14111214D01*
X8557500Y-14125500D01*
X8571786Y-14154071D01*
X8571786Y-14311214D01*
X9157500Y-13996929D02*
X8900357Y-14382643D01*
X9543214Y-14011214D02*
X9571786Y-14011214D01*
X9600357Y-14025500D01*
X9614643Y-14039786D01*
X9628928Y-14068357D01*
X9643214Y-14125500D01*
X9643214Y-14196929D01*
X9628928Y-14254071D01*
X9614643Y-14282643D01*
X9600357Y-14296929D01*
X9571786Y-14311214D01*
X9543214Y-14311214D01*
X9514643Y-14296929D01*
X9500357Y-14282643D01*
X9486071Y-14254071D01*
X9471786Y-14196929D01*
X9471786Y-14125500D01*
X9486071Y-14068357D01*
X9500357Y-14039786D01*
X9514643Y-14025500D01*
X9543214Y-14011214D01*
X9771786Y-14282643D02*
X9786071Y-14296929D01*
X9771786Y-14311214D01*
X9757500Y-14296929D01*
X9771786Y-14282643D01*
X9771786Y-14311214D01*
X9971786Y-14011214D02*
X10000357Y-14011214D01*
X10028928Y-14025500D01*
X10043214Y-14039786D01*
X10057500Y-14068357D01*
X10071786Y-14125500D01*
X10071786Y-14196929D01*
X10057500Y-14254071D01*
X10043214Y-14282643D01*
X10028928Y-14296929D01*
X10000357Y-14311214D01*
X9971786Y-14311214D01*
X9943214Y-14296929D01*
X9928928Y-14282643D01*
X9914643Y-14254071D01*
X9900357Y-14196929D01*
X9900357Y-14125500D01*
X9914643Y-14068357D01*
X9928928Y-14039786D01*
X9943214Y-14025500D01*
X9971786Y-14011214D01*
X10357500Y-14311214D02*
X10186071Y-14311214D01*
X10271786Y-14311214D02*
X10271786Y-14011214D01*
X10243214Y-14054071D01*
X10214643Y-14082643D01*
X10186071Y-14096929D01*
X10628928Y-14011214D02*
X10486071Y-14011214D01*
X10471786Y-14154071D01*
X10486071Y-14139786D01*
X10514643Y-14125500D01*
X10586071Y-14125500D01*
X10614643Y-14139786D01*
X10628928Y-14154071D01*
X10643214Y-14182643D01*
X10643214Y-14254071D01*
X10628928Y-14282643D01*
X10614643Y-14296929D01*
X10586071Y-14311214D01*
X10514643Y-14311214D01*
X10486071Y-14296929D01*
X10471786Y-14282643D01*
X10743214Y-14011214D02*
X10943214Y-14011214D01*
X10814643Y-14311214D01*
X11043214Y-14011214D02*
X11043214Y-14068357D01*
X11157500Y-14011214D02*
X11157500Y-14068357D01*
X11600357Y-14425500D02*
X11586071Y-14411214D01*
X11557500Y-14368357D01*
X11543214Y-14339786D01*
X11528928Y-14296929D01*
X11514643Y-14225500D01*
X11514643Y-14168357D01*
X11528928Y-14096929D01*
X11543214Y-14054071D01*
X11557500Y-14025500D01*
X11586071Y-13982643D01*
X11600357Y-13968357D01*
X11700357Y-14039786D02*
X11714643Y-14025500D01*
X11743214Y-14011214D01*
X11814643Y-14011214D01*
X11843214Y-14025500D01*
X11857500Y-14039786D01*
X11871786Y-14068357D01*
X11871786Y-14096929D01*
X11857500Y-14139786D01*
X11686071Y-14311214D01*
X11871786Y-14311214D01*
X12128928Y-14011214D02*
X12071786Y-14011214D01*
X12043214Y-14025500D01*
X12028928Y-14039786D01*
X12000357Y-14082643D01*
X11986071Y-14139786D01*
X11986071Y-14254071D01*
X12000357Y-14282643D01*
X12014643Y-14296929D01*
X12043214Y-14311214D01*
X12100357Y-14311214D01*
X12128928Y-14296929D01*
X12143214Y-14282643D01*
X12157500Y-14254071D01*
X12157500Y-14182643D01*
X12143214Y-14154071D01*
X12128928Y-14139786D01*
X12100357Y-14125500D01*
X12043214Y-14125500D01*
X12014643Y-14139786D01*
X12000357Y-14154071D01*
X11986071Y-14182643D01*
X12514643Y-14311214D02*
X12514643Y-14011214D01*
X12643214Y-14311214D02*
X12643214Y-14154071D01*
X12628928Y-14125500D01*
X12600357Y-14111214D01*
X12557500Y-14111214D01*
X12528928Y-14125500D01*
X12514643Y-14139786D01*
X12828928Y-14311214D02*
X12800357Y-14296929D01*
X12786071Y-14282643D01*
X12771786Y-14254071D01*
X12771786Y-14168357D01*
X12786071Y-14139786D01*
X12800357Y-14125500D01*
X12828928Y-14111214D01*
X12871786Y-14111214D01*
X12900357Y-14125500D01*
X12914643Y-14139786D01*
X12928928Y-14168357D01*
X12928928Y-14254071D01*
X12914643Y-14282643D01*
X12900357Y-14296929D01*
X12871786Y-14311214D01*
X12828928Y-14311214D01*
X13100357Y-14311214D02*
X13071786Y-14296929D01*
X13057500Y-14268357D01*
X13057500Y-14011214D01*
X13328928Y-14296929D02*
X13300357Y-14311214D01*
X13243214Y-14311214D01*
X13214643Y-14296929D01*
X13200357Y-14268357D01*
X13200357Y-14154071D01*
X13214643Y-14125500D01*
X13243214Y-14111214D01*
X13300357Y-14111214D01*
X13328928Y-14125500D01*
X13343214Y-14154071D01*
X13343214Y-14182643D01*
X13200357Y-14211214D01*
X13457500Y-14296929D02*
X13486071Y-14311214D01*
X13543214Y-14311214D01*
X13571786Y-14296929D01*
X13586071Y-14268357D01*
X13586071Y-14254071D01*
X13571786Y-14225500D01*
X13543214Y-14211214D01*
X13500357Y-14211214D01*
X13471786Y-14196929D01*
X13457500Y-14168357D01*
X13457500Y-14154071D01*
X13471786Y-14125500D01*
X13500357Y-14111214D01*
X13543214Y-14111214D01*
X13571786Y-14125500D01*
X13686071Y-14425500D02*
X13700357Y-14411214D01*
X13728928Y-14368357D01*
X13743214Y-14339786D01*
X13757500Y-14296929D01*
X13771786Y-14225500D01*
X13771786Y-14168357D01*
X13757500Y-14096929D01*
X13743214Y-14054071D01*
X13728928Y-14025500D01*
X13700357Y-13982643D01*
X13686071Y-13968357D01*
X6342500Y-14571500D02*
G75*
G03*
X6342500Y-14571500I-40000J0D01*
G01*
X6686071Y-14407214D02*
X6714643Y-14407214D01*
X6743214Y-14421500D01*
X6757500Y-14435786D01*
X6771786Y-14464357D01*
X6786071Y-14521500D01*
X6786071Y-14592929D01*
X6771786Y-14650071D01*
X6757500Y-14678643D01*
X6743214Y-14692929D01*
X6714643Y-14707214D01*
X6686071Y-14707214D01*
X6657500Y-14692929D01*
X6643214Y-14678643D01*
X6628928Y-14650071D01*
X6614643Y-14592929D01*
X6614643Y-14521500D01*
X6628928Y-14464357D01*
X6643214Y-14435786D01*
X6657500Y-14421500D01*
X6686071Y-14407214D01*
X6914643Y-14678643D02*
X6928928Y-14692929D01*
X6914643Y-14707214D01*
X6900357Y-14692929D01*
X6914643Y-14678643D01*
X6914643Y-14707214D01*
X7100357Y-14535786D02*
X7071786Y-14521500D01*
X7057500Y-14507214D01*
X7043214Y-14478643D01*
X7043214Y-14464357D01*
X7057500Y-14435786D01*
X7071786Y-14421500D01*
X7100357Y-14407214D01*
X7157500Y-14407214D01*
X7186071Y-14421500D01*
X7200357Y-14435786D01*
X7214643Y-14464357D01*
X7214643Y-14478643D01*
X7200357Y-14507214D01*
X7186071Y-14521500D01*
X7157500Y-14535786D01*
X7100357Y-14535786D01*
X7071786Y-14550071D01*
X7057500Y-14564357D01*
X7043214Y-14592929D01*
X7043214Y-14650071D01*
X7057500Y-14678643D01*
X7071786Y-14692929D01*
X7100357Y-14707214D01*
X7157500Y-14707214D01*
X7186071Y-14692929D01*
X7200357Y-14678643D01*
X7214643Y-14650071D01*
X7214643Y-14592929D01*
X7200357Y-14564357D01*
X7186071Y-14550071D01*
X7157500Y-14535786D01*
X7400357Y-14407214D02*
X7428928Y-14407214D01*
X7457500Y-14421500D01*
X7471786Y-14435786D01*
X7486071Y-14464357D01*
X7500357Y-14521500D01*
X7500357Y-14592929D01*
X7486071Y-14650071D01*
X7471786Y-14678643D01*
X7457500Y-14692929D01*
X7428928Y-14707214D01*
X7400357Y-14707214D01*
X7371786Y-14692929D01*
X7357500Y-14678643D01*
X7343214Y-14650071D01*
X7328928Y-14592929D01*
X7328928Y-14521500D01*
X7343214Y-14464357D01*
X7357500Y-14435786D01*
X7371786Y-14421500D01*
X7400357Y-14407214D01*
X7686071Y-14407214D02*
X7714643Y-14407214D01*
X7743214Y-14421500D01*
X7757500Y-14435786D01*
X7771786Y-14464357D01*
X7786071Y-14521500D01*
X7786071Y-14592929D01*
X7771786Y-14650071D01*
X7757500Y-14678643D01*
X7743214Y-14692929D01*
X7714643Y-14707214D01*
X7686071Y-14707214D01*
X7657500Y-14692929D01*
X7643214Y-14678643D01*
X7628928Y-14650071D01*
X7614643Y-14592929D01*
X7614643Y-14521500D01*
X7628928Y-14464357D01*
X7643214Y-14435786D01*
X7657500Y-14421500D01*
X7686071Y-14407214D01*
X7914643Y-14707214D02*
X7914643Y-14507214D01*
X7914643Y-14535786D02*
X7928928Y-14521500D01*
X7957500Y-14507214D01*
X8000357Y-14507214D01*
X8028928Y-14521500D01*
X8043214Y-14550071D01*
X8043214Y-14707214D01*
X8043214Y-14550071D02*
X8057500Y-14521500D01*
X8086071Y-14507214D01*
X8128928Y-14507214D01*
X8157500Y-14521500D01*
X8171786Y-14550071D01*
X8171786Y-14707214D01*
X8314643Y-14707214D02*
X8314643Y-14507214D01*
X8314643Y-14535786D02*
X8328928Y-14521500D01*
X8357500Y-14507214D01*
X8400357Y-14507214D01*
X8428928Y-14521500D01*
X8443214Y-14550071D01*
X8443214Y-14707214D01*
X8443214Y-14550071D02*
X8457500Y-14521500D01*
X8486071Y-14507214D01*
X8528928Y-14507214D01*
X8557500Y-14521500D01*
X8571786Y-14550071D01*
X8571786Y-14707214D01*
X9157500Y-14392929D02*
X8900357Y-14778643D01*
X9543214Y-14407214D02*
X9571786Y-14407214D01*
X9600357Y-14421500D01*
X9614643Y-14435786D01*
X9628928Y-14464357D01*
X9643214Y-14521500D01*
X9643214Y-14592929D01*
X9628928Y-14650071D01*
X9614643Y-14678643D01*
X9600357Y-14692929D01*
X9571786Y-14707214D01*
X9543214Y-14707214D01*
X9514643Y-14692929D01*
X9500357Y-14678643D01*
X9486071Y-14650071D01*
X9471786Y-14592929D01*
X9471786Y-14521500D01*
X9486071Y-14464357D01*
X9500357Y-14435786D01*
X9514643Y-14421500D01*
X9543214Y-14407214D01*
X9771786Y-14678643D02*
X9786071Y-14692929D01*
X9771786Y-14707214D01*
X9757500Y-14692929D01*
X9771786Y-14678643D01*
X9771786Y-14707214D01*
X9971786Y-14407214D02*
X10000357Y-14407214D01*
X10028928Y-14421500D01*
X10043214Y-14435786D01*
X10057500Y-14464357D01*
X10071786Y-14521500D01*
X10071786Y-14592929D01*
X10057500Y-14650071D01*
X10043214Y-14678643D01*
X10028928Y-14692929D01*
X10000357Y-14707214D01*
X9971786Y-14707214D01*
X9943214Y-14692929D01*
X9928928Y-14678643D01*
X9914643Y-14650071D01*
X9900357Y-14592929D01*
X9900357Y-14521500D01*
X9914643Y-14464357D01*
X9928928Y-14435786D01*
X9943214Y-14421500D01*
X9971786Y-14407214D01*
X10171786Y-14407214D02*
X10357500Y-14407214D01*
X10257500Y-14521500D01*
X10300357Y-14521500D01*
X10328928Y-14535786D01*
X10343214Y-14550071D01*
X10357500Y-14578643D01*
X10357500Y-14650071D01*
X10343214Y-14678643D01*
X10328928Y-14692929D01*
X10300357Y-14707214D01*
X10214643Y-14707214D01*
X10186071Y-14692929D01*
X10171786Y-14678643D01*
X10643214Y-14707214D02*
X10471786Y-14707214D01*
X10557500Y-14707214D02*
X10557500Y-14407214D01*
X10528928Y-14450071D01*
X10500357Y-14478643D01*
X10471786Y-14492929D01*
X10914643Y-14407214D02*
X10771786Y-14407214D01*
X10757500Y-14550071D01*
X10771786Y-14535786D01*
X10800357Y-14521500D01*
X10871786Y-14521500D01*
X10900357Y-14535786D01*
X10914643Y-14550071D01*
X10928928Y-14578643D01*
X10928928Y-14650071D01*
X10914643Y-14678643D01*
X10900357Y-14692929D01*
X10871786Y-14707214D01*
X10800357Y-14707214D01*
X10771786Y-14692929D01*
X10757500Y-14678643D01*
X11043214Y-14407214D02*
X11043214Y-14464357D01*
X11157500Y-14407214D02*
X11157500Y-14464357D01*
X11600357Y-14821500D02*
X11586071Y-14807214D01*
X11557500Y-14764357D01*
X11543214Y-14735786D01*
X11528928Y-14692929D01*
X11514643Y-14621500D01*
X11514643Y-14564357D01*
X11528928Y-14492929D01*
X11543214Y-14450071D01*
X11557500Y-14421500D01*
X11586071Y-14378643D01*
X11600357Y-14364357D01*
X11871786Y-14707214D02*
X11700357Y-14707214D01*
X11786071Y-14707214D02*
X11786071Y-14407214D01*
X11757500Y-14450071D01*
X11728928Y-14478643D01*
X11700357Y-14492929D01*
X12128928Y-14407214D02*
X12071786Y-14407214D01*
X12043214Y-14421500D01*
X12028928Y-14435786D01*
X12000357Y-14478643D01*
X11986071Y-14535786D01*
X11986071Y-14650071D01*
X12000357Y-14678643D01*
X12014643Y-14692929D01*
X12043214Y-14707214D01*
X12100357Y-14707214D01*
X12128928Y-14692929D01*
X12143214Y-14678643D01*
X12157500Y-14650071D01*
X12157500Y-14578643D01*
X12143214Y-14550071D01*
X12128928Y-14535786D01*
X12100357Y-14521500D01*
X12043214Y-14521500D01*
X12014643Y-14535786D01*
X12000357Y-14550071D01*
X11986071Y-14578643D01*
X12414643Y-14407214D02*
X12357500Y-14407214D01*
X12328928Y-14421500D01*
X12314643Y-14435786D01*
X12286071Y-14478643D01*
X12271786Y-14535786D01*
X12271786Y-14650071D01*
X12286071Y-14678643D01*
X12300357Y-14692929D01*
X12328928Y-14707214D01*
X12386071Y-14707214D01*
X12414643Y-14692929D01*
X12428928Y-14678643D01*
X12443214Y-14650071D01*
X12443214Y-14578643D01*
X12428928Y-14550071D01*
X12414643Y-14535786D01*
X12386071Y-14521500D01*
X12328928Y-14521500D01*
X12300357Y-14535786D01*
X12286071Y-14550071D01*
X12271786Y-14578643D01*
X12800357Y-14707214D02*
X12800357Y-14407214D01*
X12928928Y-14707214D02*
X12928928Y-14550071D01*
X12914643Y-14521500D01*
X12886071Y-14507214D01*
X12843214Y-14507214D01*
X12814643Y-14521500D01*
X12800357Y-14535786D01*
X13114643Y-14707214D02*
X13086071Y-14692929D01*
X13071786Y-14678643D01*
X13057500Y-14650071D01*
X13057500Y-14564357D01*
X13071786Y-14535786D01*
X13086071Y-14521500D01*
X13114643Y-14507214D01*
X13157500Y-14507214D01*
X13186071Y-14521500D01*
X13200357Y-14535786D01*
X13214643Y-14564357D01*
X13214643Y-14650071D01*
X13200357Y-14678643D01*
X13186071Y-14692929D01*
X13157500Y-14707214D01*
X13114643Y-14707214D01*
X13386071Y-14707214D02*
X13357500Y-14692929D01*
X13343214Y-14664357D01*
X13343214Y-14407214D01*
X13614643Y-14692929D02*
X13586071Y-14707214D01*
X13528928Y-14707214D01*
X13500357Y-14692929D01*
X13486071Y-14664357D01*
X13486071Y-14550071D01*
X13500357Y-14521500D01*
X13528928Y-14507214D01*
X13586071Y-14507214D01*
X13614643Y-14521500D01*
X13628928Y-14550071D01*
X13628928Y-14578643D01*
X13486071Y-14607214D01*
X13743214Y-14692929D02*
X13771786Y-14707214D01*
X13828928Y-14707214D01*
X13857500Y-14692929D01*
X13871786Y-14664357D01*
X13871786Y-14650071D01*
X13857500Y-14621500D01*
X13828928Y-14607214D01*
X13786071Y-14607214D01*
X13757500Y-14592929D01*
X13743214Y-14564357D01*
X13743214Y-14550071D01*
X13757500Y-14521500D01*
X13786071Y-14507214D01*
X13828928Y-14507214D01*
X13857500Y-14521500D01*
X13971786Y-14821500D02*
X13986071Y-14807214D01*
X14014643Y-14764357D01*
X14028928Y-14735786D01*
X14043214Y-14692929D01*
X14057500Y-14621500D01*
X14057500Y-14564357D01*
X14043214Y-14492929D01*
X14028928Y-14450071D01*
X14014643Y-14421500D01*
X13986071Y-14378643D01*
X13971786Y-14364357D01*
X6297500Y-14922500D02*
X6297500Y-15012500D01*
X6252500Y-14967500D02*
X6342500Y-14967500D01*
X6686071Y-14803214D02*
X6714643Y-14803214D01*
X6743214Y-14817500D01*
X6757500Y-14831786D01*
X6771786Y-14860357D01*
X6786071Y-14917500D01*
X6786071Y-14988929D01*
X6771786Y-15046071D01*
X6757500Y-15074643D01*
X6743214Y-15088929D01*
X6714643Y-15103214D01*
X6686071Y-15103214D01*
X6657500Y-15088929D01*
X6643214Y-15074643D01*
X6628928Y-15046071D01*
X6614643Y-14988929D01*
X6614643Y-14917500D01*
X6628928Y-14860357D01*
X6643214Y-14831786D01*
X6657500Y-14817500D01*
X6686071Y-14803214D01*
X6914643Y-15074643D02*
X6928928Y-15088929D01*
X6914643Y-15103214D01*
X6900357Y-15088929D01*
X6914643Y-15074643D01*
X6914643Y-15103214D01*
X7071786Y-15103214D02*
X7128928Y-15103214D01*
X7157500Y-15088929D01*
X7171786Y-15074643D01*
X7200357Y-15031786D01*
X7214643Y-14974643D01*
X7214643Y-14860357D01*
X7200357Y-14831786D01*
X7186071Y-14817500D01*
X7157500Y-14803214D01*
X7100357Y-14803214D01*
X7071786Y-14817500D01*
X7057500Y-14831786D01*
X7043214Y-14860357D01*
X7043214Y-14931786D01*
X7057500Y-14960357D01*
X7071786Y-14974643D01*
X7100357Y-14988929D01*
X7157500Y-14988929D01*
X7186071Y-14974643D01*
X7200357Y-14960357D01*
X7214643Y-14931786D01*
X7400357Y-14803214D02*
X7428928Y-14803214D01*
X7457500Y-14817500D01*
X7471786Y-14831786D01*
X7486071Y-14860357D01*
X7500357Y-14917500D01*
X7500357Y-14988929D01*
X7486071Y-15046071D01*
X7471786Y-15074643D01*
X7457500Y-15088929D01*
X7428928Y-15103214D01*
X7400357Y-15103214D01*
X7371786Y-15088929D01*
X7357500Y-15074643D01*
X7343214Y-15046071D01*
X7328928Y-14988929D01*
X7328928Y-14917500D01*
X7343214Y-14860357D01*
X7357500Y-14831786D01*
X7371786Y-14817500D01*
X7400357Y-14803214D01*
X7686071Y-14803214D02*
X7714643Y-14803214D01*
X7743214Y-14817500D01*
X7757500Y-14831786D01*
X7771786Y-14860357D01*
X7786071Y-14917500D01*
X7786071Y-14988929D01*
X7771786Y-15046071D01*
X7757500Y-15074643D01*
X7743214Y-15088929D01*
X7714643Y-15103214D01*
X7686071Y-15103214D01*
X7657500Y-15088929D01*
X7643214Y-15074643D01*
X7628928Y-15046071D01*
X7614643Y-14988929D01*
X7614643Y-14917500D01*
X7628928Y-14860357D01*
X7643214Y-14831786D01*
X7657500Y-14817500D01*
X7686071Y-14803214D01*
X7914643Y-15103214D02*
X7914643Y-14903214D01*
X7914643Y-14931786D02*
X7928928Y-14917500D01*
X7957500Y-14903214D01*
X8000357Y-14903214D01*
X8028928Y-14917500D01*
X8043214Y-14946071D01*
X8043214Y-15103214D01*
X8043214Y-14946071D02*
X8057500Y-14917500D01*
X8086071Y-14903214D01*
X8128928Y-14903214D01*
X8157500Y-14917500D01*
X8171786Y-14946071D01*
X8171786Y-15103214D01*
X8314643Y-15103214D02*
X8314643Y-14903214D01*
X8314643Y-14931786D02*
X8328928Y-14917500D01*
X8357500Y-14903214D01*
X8400357Y-14903214D01*
X8428928Y-14917500D01*
X8443214Y-14946071D01*
X8443214Y-15103214D01*
X8443214Y-14946071D02*
X8457500Y-14917500D01*
X8486071Y-14903214D01*
X8528928Y-14903214D01*
X8557500Y-14917500D01*
X8571786Y-14946071D01*
X8571786Y-15103214D01*
X9157500Y-14788929D02*
X8900357Y-15174643D01*
X9543214Y-14803214D02*
X9571786Y-14803214D01*
X9600357Y-14817500D01*
X9614643Y-14831786D01*
X9628928Y-14860357D01*
X9643214Y-14917500D01*
X9643214Y-14988929D01*
X9628928Y-15046071D01*
X9614643Y-15074643D01*
X9600357Y-15088929D01*
X9571786Y-15103214D01*
X9543214Y-15103214D01*
X9514643Y-15088929D01*
X9500357Y-15074643D01*
X9486071Y-15046071D01*
X9471786Y-14988929D01*
X9471786Y-14917500D01*
X9486071Y-14860357D01*
X9500357Y-14831786D01*
X9514643Y-14817500D01*
X9543214Y-14803214D01*
X9771786Y-15074643D02*
X9786071Y-15088929D01*
X9771786Y-15103214D01*
X9757500Y-15088929D01*
X9771786Y-15074643D01*
X9771786Y-15103214D01*
X9971786Y-14803214D02*
X10000357Y-14803214D01*
X10028928Y-14817500D01*
X10043214Y-14831786D01*
X10057500Y-14860357D01*
X10071786Y-14917500D01*
X10071786Y-14988929D01*
X10057500Y-15046071D01*
X10043214Y-15074643D01*
X10028928Y-15088929D01*
X10000357Y-15103214D01*
X9971786Y-15103214D01*
X9943214Y-15088929D01*
X9928928Y-15074643D01*
X9914643Y-15046071D01*
X9900357Y-14988929D01*
X9900357Y-14917500D01*
X9914643Y-14860357D01*
X9928928Y-14831786D01*
X9943214Y-14817500D01*
X9971786Y-14803214D01*
X10171786Y-14803214D02*
X10357500Y-14803214D01*
X10257500Y-14917500D01*
X10300357Y-14917500D01*
X10328928Y-14931786D01*
X10343214Y-14946071D01*
X10357500Y-14974643D01*
X10357500Y-15046071D01*
X10343214Y-15074643D01*
X10328928Y-15088929D01*
X10300357Y-15103214D01*
X10214643Y-15103214D01*
X10186071Y-15088929D01*
X10171786Y-15074643D01*
X10628928Y-14803214D02*
X10486071Y-14803214D01*
X10471786Y-14946071D01*
X10486071Y-14931786D01*
X10514643Y-14917500D01*
X10586071Y-14917500D01*
X10614643Y-14931786D01*
X10628928Y-14946071D01*
X10643214Y-14974643D01*
X10643214Y-15046071D01*
X10628928Y-15074643D01*
X10614643Y-15088929D01*
X10586071Y-15103214D01*
X10514643Y-15103214D01*
X10486071Y-15088929D01*
X10471786Y-15074643D01*
X10900357Y-14903214D02*
X10900357Y-15103214D01*
X10828928Y-14788929D02*
X10757500Y-15003214D01*
X10943214Y-15003214D01*
X11043214Y-14803214D02*
X11043214Y-14860357D01*
X11157500Y-14803214D02*
X11157500Y-14860357D01*
X11600357Y-15217500D02*
X11586071Y-15203214D01*
X11557500Y-15160357D01*
X11543214Y-15131786D01*
X11528928Y-15088929D01*
X11514643Y-15017500D01*
X11514643Y-14960357D01*
X11528928Y-14888929D01*
X11543214Y-14846071D01*
X11557500Y-14817500D01*
X11586071Y-14774643D01*
X11600357Y-14760357D01*
X11757500Y-14931786D02*
X11728928Y-14917500D01*
X11714643Y-14903214D01*
X11700357Y-14874643D01*
X11700357Y-14860357D01*
X11714643Y-14831786D01*
X11728928Y-14817500D01*
X11757500Y-14803214D01*
X11814643Y-14803214D01*
X11843214Y-14817500D01*
X11857500Y-14831786D01*
X11871786Y-14860357D01*
X11871786Y-14874643D01*
X11857500Y-14903214D01*
X11843214Y-14917500D01*
X11814643Y-14931786D01*
X11757500Y-14931786D01*
X11728928Y-14946071D01*
X11714643Y-14960357D01*
X11700357Y-14988929D01*
X11700357Y-15046071D01*
X11714643Y-15074643D01*
X11728928Y-15088929D01*
X11757500Y-15103214D01*
X11814643Y-15103214D01*
X11843214Y-15088929D01*
X11857500Y-15074643D01*
X11871786Y-15046071D01*
X11871786Y-14988929D01*
X11857500Y-14960357D01*
X11843214Y-14946071D01*
X11814643Y-14931786D01*
X12228928Y-15103214D02*
X12228928Y-14803214D01*
X12357500Y-15103214D02*
X12357500Y-14946071D01*
X12343214Y-14917500D01*
X12314643Y-14903214D01*
X12271786Y-14903214D01*
X12243214Y-14917500D01*
X12228928Y-14931786D01*
X12543214Y-15103214D02*
X12514643Y-15088929D01*
X12500357Y-15074643D01*
X12486071Y-15046071D01*
X12486071Y-14960357D01*
X12500357Y-14931786D01*
X12514643Y-14917500D01*
X12543214Y-14903214D01*
X12586071Y-14903214D01*
X12614643Y-14917500D01*
X12628928Y-14931786D01*
X12643214Y-14960357D01*
X12643214Y-15046071D01*
X12628928Y-15074643D01*
X12614643Y-15088929D01*
X12586071Y-15103214D01*
X12543214Y-15103214D01*
X12814643Y-15103214D02*
X12786071Y-15088929D01*
X12771786Y-15060357D01*
X12771786Y-14803214D01*
X13043214Y-15088929D02*
X13014643Y-15103214D01*
X12957500Y-15103214D01*
X12928928Y-15088929D01*
X12914643Y-15060357D01*
X12914643Y-14946071D01*
X12928928Y-14917500D01*
X12957500Y-14903214D01*
X13014643Y-14903214D01*
X13043214Y-14917500D01*
X13057500Y-14946071D01*
X13057500Y-14974643D01*
X12914643Y-15003214D01*
X13171786Y-15088929D02*
X13200357Y-15103214D01*
X13257500Y-15103214D01*
X13286071Y-15088929D01*
X13300357Y-15060357D01*
X13300357Y-15046071D01*
X13286071Y-15017500D01*
X13257500Y-15003214D01*
X13214643Y-15003214D01*
X13186071Y-14988929D01*
X13171786Y-14960357D01*
X13171786Y-14946071D01*
X13186071Y-14917500D01*
X13214643Y-14903214D01*
X13257500Y-14903214D01*
X13286071Y-14917500D01*
X13400357Y-15217500D02*
X13414643Y-15203214D01*
X13443214Y-15160357D01*
X13457500Y-15131786D01*
X13471786Y-15088929D01*
X13486071Y-15017500D01*
X13486071Y-14960357D01*
X13471786Y-14888929D01*
X13457500Y-14846071D01*
X13443214Y-14817500D01*
X13414643Y-14774643D01*
X13400357Y-14760357D01*
X6329027Y-15396027D02*
X6329027Y-15330973D01*
X6263973Y-15330973D01*
X6263973Y-15396027D01*
X6329027Y-15396027D01*
X6686071Y-15199214D02*
X6714643Y-15199214D01*
X6743214Y-15213500D01*
X6757500Y-15227786D01*
X6771786Y-15256357D01*
X6786071Y-15313500D01*
X6786071Y-15384929D01*
X6771786Y-15442071D01*
X6757500Y-15470643D01*
X6743214Y-15484929D01*
X6714643Y-15499214D01*
X6686071Y-15499214D01*
X6657500Y-15484929D01*
X6643214Y-15470643D01*
X6628928Y-15442071D01*
X6614643Y-15384929D01*
X6614643Y-15313500D01*
X6628928Y-15256357D01*
X6643214Y-15227786D01*
X6657500Y-15213500D01*
X6686071Y-15199214D01*
X6914643Y-15470643D02*
X6928928Y-15484929D01*
X6914643Y-15499214D01*
X6900357Y-15484929D01*
X6914643Y-15470643D01*
X6914643Y-15499214D01*
X7071786Y-15499214D02*
X7128928Y-15499214D01*
X7157500Y-15484929D01*
X7171786Y-15470643D01*
X7200357Y-15427786D01*
X7214643Y-15370643D01*
X7214643Y-15256357D01*
X7200357Y-15227786D01*
X7186071Y-15213500D01*
X7157500Y-15199214D01*
X7100357Y-15199214D01*
X7071786Y-15213500D01*
X7057500Y-15227786D01*
X7043214Y-15256357D01*
X7043214Y-15327786D01*
X7057500Y-15356357D01*
X7071786Y-15370643D01*
X7100357Y-15384929D01*
X7157500Y-15384929D01*
X7186071Y-15370643D01*
X7200357Y-15356357D01*
X7214643Y-15327786D01*
X7328928Y-15227786D02*
X7343214Y-15213500D01*
X7371786Y-15199214D01*
X7443214Y-15199214D01*
X7471786Y-15213500D01*
X7486071Y-15227786D01*
X7500357Y-15256357D01*
X7500357Y-15284929D01*
X7486071Y-15327786D01*
X7314643Y-15499214D01*
X7500357Y-15499214D01*
X7686071Y-15199214D02*
X7714643Y-15199214D01*
X7743214Y-15213500D01*
X7757500Y-15227786D01*
X7771786Y-15256357D01*
X7786071Y-15313500D01*
X7786071Y-15384929D01*
X7771786Y-15442071D01*
X7757500Y-15470643D01*
X7743214Y-15484929D01*
X7714643Y-15499214D01*
X7686071Y-15499214D01*
X7657500Y-15484929D01*
X7643214Y-15470643D01*
X7628928Y-15442071D01*
X7614643Y-15384929D01*
X7614643Y-15313500D01*
X7628928Y-15256357D01*
X7643214Y-15227786D01*
X7657500Y-15213500D01*
X7686071Y-15199214D01*
X7914643Y-15499214D02*
X7914643Y-15299214D01*
X7914643Y-15327786D02*
X7928928Y-15313500D01*
X7957500Y-15299214D01*
X8000357Y-15299214D01*
X8028928Y-15313500D01*
X8043214Y-15342071D01*
X8043214Y-15499214D01*
X8043214Y-15342071D02*
X8057500Y-15313500D01*
X8086071Y-15299214D01*
X8128928Y-15299214D01*
X8157500Y-15313500D01*
X8171786Y-15342071D01*
X8171786Y-15499214D01*
X8314643Y-15499214D02*
X8314643Y-15299214D01*
X8314643Y-15327786D02*
X8328928Y-15313500D01*
X8357500Y-15299214D01*
X8400357Y-15299214D01*
X8428928Y-15313500D01*
X8443214Y-15342071D01*
X8443214Y-15499214D01*
X8443214Y-15342071D02*
X8457500Y-15313500D01*
X8486071Y-15299214D01*
X8528928Y-15299214D01*
X8557500Y-15313500D01*
X8571786Y-15342071D01*
X8571786Y-15499214D01*
X9157500Y-15184929D02*
X8900357Y-15570643D01*
X9543214Y-15199214D02*
X9571786Y-15199214D01*
X9600357Y-15213500D01*
X9614643Y-15227786D01*
X9628928Y-15256357D01*
X9643214Y-15313500D01*
X9643214Y-15384929D01*
X9628928Y-15442071D01*
X9614643Y-15470643D01*
X9600357Y-15484929D01*
X9571786Y-15499214D01*
X9543214Y-15499214D01*
X9514643Y-15484929D01*
X9500357Y-15470643D01*
X9486071Y-15442071D01*
X9471786Y-15384929D01*
X9471786Y-15313500D01*
X9486071Y-15256357D01*
X9500357Y-15227786D01*
X9514643Y-15213500D01*
X9543214Y-15199214D01*
X9771786Y-15470643D02*
X9786071Y-15484929D01*
X9771786Y-15499214D01*
X9757500Y-15484929D01*
X9771786Y-15470643D01*
X9771786Y-15499214D01*
X9971786Y-15199214D02*
X10000357Y-15199214D01*
X10028928Y-15213500D01*
X10043214Y-15227786D01*
X10057500Y-15256357D01*
X10071786Y-15313500D01*
X10071786Y-15384929D01*
X10057500Y-15442071D01*
X10043214Y-15470643D01*
X10028928Y-15484929D01*
X10000357Y-15499214D01*
X9971786Y-15499214D01*
X9943214Y-15484929D01*
X9928928Y-15470643D01*
X9914643Y-15442071D01*
X9900357Y-15384929D01*
X9900357Y-15313500D01*
X9914643Y-15256357D01*
X9928928Y-15227786D01*
X9943214Y-15213500D01*
X9971786Y-15199214D01*
X10171786Y-15199214D02*
X10357500Y-15199214D01*
X10257500Y-15313500D01*
X10300357Y-15313500D01*
X10328928Y-15327786D01*
X10343214Y-15342071D01*
X10357500Y-15370643D01*
X10357500Y-15442071D01*
X10343214Y-15470643D01*
X10328928Y-15484929D01*
X10300357Y-15499214D01*
X10214643Y-15499214D01*
X10186071Y-15484929D01*
X10171786Y-15470643D01*
X10614643Y-15199214D02*
X10557500Y-15199214D01*
X10528928Y-15213500D01*
X10514643Y-15227786D01*
X10486071Y-15270643D01*
X10471786Y-15327786D01*
X10471786Y-15442071D01*
X10486071Y-15470643D01*
X10500357Y-15484929D01*
X10528928Y-15499214D01*
X10586071Y-15499214D01*
X10614643Y-15484929D01*
X10628928Y-15470643D01*
X10643214Y-15442071D01*
X10643214Y-15370643D01*
X10628928Y-15342071D01*
X10614643Y-15327786D01*
X10586071Y-15313500D01*
X10528928Y-15313500D01*
X10500357Y-15327786D01*
X10486071Y-15342071D01*
X10471786Y-15370643D01*
X10757500Y-15227786D02*
X10771786Y-15213500D01*
X10800357Y-15199214D01*
X10871786Y-15199214D01*
X10900357Y-15213500D01*
X10914643Y-15227786D01*
X10928928Y-15256357D01*
X10928928Y-15284929D01*
X10914643Y-15327786D01*
X10743214Y-15499214D01*
X10928928Y-15499214D01*
X11043214Y-15199214D02*
X11043214Y-15256357D01*
X11157500Y-15199214D02*
X11157500Y-15256357D01*
X11600357Y-15613500D02*
X11586071Y-15599214D01*
X11557500Y-15556357D01*
X11543214Y-15527786D01*
X11528928Y-15484929D01*
X11514643Y-15413500D01*
X11514643Y-15356357D01*
X11528928Y-15284929D01*
X11543214Y-15242071D01*
X11557500Y-15213500D01*
X11586071Y-15170643D01*
X11600357Y-15156357D01*
X11843214Y-15299214D02*
X11843214Y-15499214D01*
X11771786Y-15184929D02*
X11700357Y-15399214D01*
X11886071Y-15399214D01*
X12228928Y-15499214D02*
X12228928Y-15199214D01*
X12357500Y-15499214D02*
X12357500Y-15342071D01*
X12343214Y-15313500D01*
X12314643Y-15299214D01*
X12271786Y-15299214D01*
X12243214Y-15313500D01*
X12228928Y-15327786D01*
X12543214Y-15499214D02*
X12514643Y-15484929D01*
X12500357Y-15470643D01*
X12486071Y-15442071D01*
X12486071Y-15356357D01*
X12500357Y-15327786D01*
X12514643Y-15313500D01*
X12543214Y-15299214D01*
X12586071Y-15299214D01*
X12614643Y-15313500D01*
X12628928Y-15327786D01*
X12643214Y-15356357D01*
X12643214Y-15442071D01*
X12628928Y-15470643D01*
X12614643Y-15484929D01*
X12586071Y-15499214D01*
X12543214Y-15499214D01*
X12814643Y-15499214D02*
X12786071Y-15484929D01*
X12771786Y-15456357D01*
X12771786Y-15199214D01*
X13043214Y-15484929D02*
X13014643Y-15499214D01*
X12957500Y-15499214D01*
X12928928Y-15484929D01*
X12914643Y-15456357D01*
X12914643Y-15342071D01*
X12928928Y-15313500D01*
X12957500Y-15299214D01*
X13014643Y-15299214D01*
X13043214Y-15313500D01*
X13057500Y-15342071D01*
X13057500Y-15370643D01*
X12914643Y-15399214D01*
X13171786Y-15484929D02*
X13200357Y-15499214D01*
X13257500Y-15499214D01*
X13286071Y-15484929D01*
X13300357Y-15456357D01*
X13300357Y-15442071D01*
X13286071Y-15413500D01*
X13257500Y-15399214D01*
X13214643Y-15399214D01*
X13186071Y-15384929D01*
X13171786Y-15356357D01*
X13171786Y-15342071D01*
X13186071Y-15313500D01*
X13214643Y-15299214D01*
X13257500Y-15299214D01*
X13286071Y-15313500D01*
X13400357Y-15613500D02*
X13414643Y-15599214D01*
X13443214Y-15556357D01*
X13457500Y-15527786D01*
X13471786Y-15484929D01*
X13486071Y-15413500D01*
X13486071Y-15356357D01*
X13471786Y-15284929D01*
X13457500Y-15242071D01*
X13443214Y-15213500D01*
X13414643Y-15170643D01*
X13400357Y-15156357D01*
X6292500Y-15809500D02*
X6342500Y-15759500D01*
X6292500Y-15709500D01*
X6242500Y-15759500D01*
X6292500Y-15809500D01*
X6786071Y-15895214D02*
X6614643Y-15895214D01*
X6700357Y-15895214D02*
X6700357Y-15595214D01*
X6671786Y-15638071D01*
X6643214Y-15666643D01*
X6614643Y-15680929D01*
X6914643Y-15866643D02*
X6928928Y-15880929D01*
X6914643Y-15895214D01*
X6900357Y-15880929D01*
X6914643Y-15866643D01*
X6914643Y-15895214D01*
X7114643Y-15595214D02*
X7143214Y-15595214D01*
X7171786Y-15609500D01*
X7186071Y-15623786D01*
X7200357Y-15652357D01*
X7214643Y-15709500D01*
X7214643Y-15780929D01*
X7200357Y-15838071D01*
X7186071Y-15866643D01*
X7171786Y-15880929D01*
X7143214Y-15895214D01*
X7114643Y-15895214D01*
X7086071Y-15880929D01*
X7071786Y-15866643D01*
X7057500Y-15838071D01*
X7043214Y-15780929D01*
X7043214Y-15709500D01*
X7057500Y-15652357D01*
X7071786Y-15623786D01*
X7086071Y-15609500D01*
X7114643Y-15595214D01*
X7400357Y-15595214D02*
X7428928Y-15595214D01*
X7457500Y-15609500D01*
X7471786Y-15623786D01*
X7486071Y-15652357D01*
X7500357Y-15709500D01*
X7500357Y-15780929D01*
X7486071Y-15838071D01*
X7471786Y-15866643D01*
X7457500Y-15880929D01*
X7428928Y-15895214D01*
X7400357Y-15895214D01*
X7371786Y-15880929D01*
X7357500Y-15866643D01*
X7343214Y-15838071D01*
X7328928Y-15780929D01*
X7328928Y-15709500D01*
X7343214Y-15652357D01*
X7357500Y-15623786D01*
X7371786Y-15609500D01*
X7400357Y-15595214D01*
X7686071Y-15595214D02*
X7714643Y-15595214D01*
X7743214Y-15609500D01*
X7757500Y-15623786D01*
X7771786Y-15652357D01*
X7786071Y-15709500D01*
X7786071Y-15780929D01*
X7771786Y-15838071D01*
X7757500Y-15866643D01*
X7743214Y-15880929D01*
X7714643Y-15895214D01*
X7686071Y-15895214D01*
X7657500Y-15880929D01*
X7643214Y-15866643D01*
X7628928Y-15838071D01*
X7614643Y-15780929D01*
X7614643Y-15709500D01*
X7628928Y-15652357D01*
X7643214Y-15623786D01*
X7657500Y-15609500D01*
X7686071Y-15595214D01*
X7914643Y-15895214D02*
X7914643Y-15695214D01*
X7914643Y-15723786D02*
X7928928Y-15709500D01*
X7957500Y-15695214D01*
X8000357Y-15695214D01*
X8028928Y-15709500D01*
X8043214Y-15738071D01*
X8043214Y-15895214D01*
X8043214Y-15738071D02*
X8057500Y-15709500D01*
X8086071Y-15695214D01*
X8128928Y-15695214D01*
X8157500Y-15709500D01*
X8171786Y-15738071D01*
X8171786Y-15895214D01*
X8314643Y-15895214D02*
X8314643Y-15695214D01*
X8314643Y-15723786D02*
X8328928Y-15709500D01*
X8357500Y-15695214D01*
X8400357Y-15695214D01*
X8428928Y-15709500D01*
X8443214Y-15738071D01*
X8443214Y-15895214D01*
X8443214Y-15738071D02*
X8457500Y-15709500D01*
X8486071Y-15695214D01*
X8528928Y-15695214D01*
X8557500Y-15709500D01*
X8571786Y-15738071D01*
X8571786Y-15895214D01*
X9157500Y-15580929D02*
X8900357Y-15966643D01*
X9543214Y-15595214D02*
X9571786Y-15595214D01*
X9600357Y-15609500D01*
X9614643Y-15623786D01*
X9628928Y-15652357D01*
X9643214Y-15709500D01*
X9643214Y-15780929D01*
X9628928Y-15838071D01*
X9614643Y-15866643D01*
X9600357Y-15880929D01*
X9571786Y-15895214D01*
X9543214Y-15895214D01*
X9514643Y-15880929D01*
X9500357Y-15866643D01*
X9486071Y-15838071D01*
X9471786Y-15780929D01*
X9471786Y-15709500D01*
X9486071Y-15652357D01*
X9500357Y-15623786D01*
X9514643Y-15609500D01*
X9543214Y-15595214D01*
X9771786Y-15866643D02*
X9786071Y-15880929D01*
X9771786Y-15895214D01*
X9757500Y-15880929D01*
X9771786Y-15866643D01*
X9771786Y-15895214D01*
X9971786Y-15595214D02*
X10000357Y-15595214D01*
X10028928Y-15609500D01*
X10043214Y-15623786D01*
X10057500Y-15652357D01*
X10071786Y-15709500D01*
X10071786Y-15780929D01*
X10057500Y-15838071D01*
X10043214Y-15866643D01*
X10028928Y-15880929D01*
X10000357Y-15895214D01*
X9971786Y-15895214D01*
X9943214Y-15880929D01*
X9928928Y-15866643D01*
X9914643Y-15838071D01*
X9900357Y-15780929D01*
X9900357Y-15709500D01*
X9914643Y-15652357D01*
X9928928Y-15623786D01*
X9943214Y-15609500D01*
X9971786Y-15595214D01*
X10171786Y-15595214D02*
X10357500Y-15595214D01*
X10257500Y-15709500D01*
X10300357Y-15709500D01*
X10328928Y-15723786D01*
X10343214Y-15738071D01*
X10357500Y-15766643D01*
X10357500Y-15838071D01*
X10343214Y-15866643D01*
X10328928Y-15880929D01*
X10300357Y-15895214D01*
X10214643Y-15895214D01*
X10186071Y-15880929D01*
X10171786Y-15866643D01*
X10500357Y-15895214D02*
X10557500Y-15895214D01*
X10586071Y-15880929D01*
X10600357Y-15866643D01*
X10628928Y-15823786D01*
X10643214Y-15766643D01*
X10643214Y-15652357D01*
X10628928Y-15623786D01*
X10614643Y-15609500D01*
X10586071Y-15595214D01*
X10528928Y-15595214D01*
X10500357Y-15609500D01*
X10486071Y-15623786D01*
X10471786Y-15652357D01*
X10471786Y-15723786D01*
X10486071Y-15752357D01*
X10500357Y-15766643D01*
X10528928Y-15780929D01*
X10586071Y-15780929D01*
X10614643Y-15766643D01*
X10628928Y-15752357D01*
X10643214Y-15723786D01*
X10900357Y-15695214D02*
X10900357Y-15895214D01*
X10828928Y-15580929D02*
X10757500Y-15795214D01*
X10943214Y-15795214D01*
X11043214Y-15595214D02*
X11043214Y-15652357D01*
X11157500Y-15595214D02*
X11157500Y-15652357D01*
X11600357Y-16009500D02*
X11586071Y-15995214D01*
X11557500Y-15952357D01*
X11543214Y-15923786D01*
X11528928Y-15880929D01*
X11514643Y-15809500D01*
X11514643Y-15752357D01*
X11528928Y-15680929D01*
X11543214Y-15638071D01*
X11557500Y-15609500D01*
X11586071Y-15566643D01*
X11600357Y-15552357D01*
X11757500Y-15723786D02*
X11728928Y-15709500D01*
X11714643Y-15695214D01*
X11700357Y-15666643D01*
X11700357Y-15652357D01*
X11714643Y-15623786D01*
X11728928Y-15609500D01*
X11757500Y-15595214D01*
X11814643Y-15595214D01*
X11843214Y-15609500D01*
X11857500Y-15623786D01*
X11871786Y-15652357D01*
X11871786Y-15666643D01*
X11857500Y-15695214D01*
X11843214Y-15709500D01*
X11814643Y-15723786D01*
X11757500Y-15723786D01*
X11728928Y-15738071D01*
X11714643Y-15752357D01*
X11700357Y-15780929D01*
X11700357Y-15838071D01*
X11714643Y-15866643D01*
X11728928Y-15880929D01*
X11757500Y-15895214D01*
X11814643Y-15895214D01*
X11843214Y-15880929D01*
X11857500Y-15866643D01*
X11871786Y-15838071D01*
X11871786Y-15780929D01*
X11857500Y-15752357D01*
X11843214Y-15738071D01*
X11814643Y-15723786D01*
X12228928Y-15895214D02*
X12228928Y-15595214D01*
X12357500Y-15895214D02*
X12357500Y-15738071D01*
X12343214Y-15709500D01*
X12314643Y-15695214D01*
X12271786Y-15695214D01*
X12243214Y-15709500D01*
X12228928Y-15723786D01*
X12543214Y-15895214D02*
X12514643Y-15880929D01*
X12500357Y-15866643D01*
X12486071Y-15838071D01*
X12486071Y-15752357D01*
X12500357Y-15723786D01*
X12514643Y-15709500D01*
X12543214Y-15695214D01*
X12586071Y-15695214D01*
X12614643Y-15709500D01*
X12628928Y-15723786D01*
X12643214Y-15752357D01*
X12643214Y-15838071D01*
X12628928Y-15866643D01*
X12614643Y-15880929D01*
X12586071Y-15895214D01*
X12543214Y-15895214D01*
X12814643Y-15895214D02*
X12786071Y-15880929D01*
X12771786Y-15852357D01*
X12771786Y-15595214D01*
X13043214Y-15880929D02*
X13014643Y-15895214D01*
X12957500Y-15895214D01*
X12928928Y-15880929D01*
X12914643Y-15852357D01*
X12914643Y-15738071D01*
X12928928Y-15709500D01*
X12957500Y-15695214D01*
X13014643Y-15695214D01*
X13043214Y-15709500D01*
X13057500Y-15738071D01*
X13057500Y-15766643D01*
X12914643Y-15795214D01*
X13171786Y-15880929D02*
X13200357Y-15895214D01*
X13257500Y-15895214D01*
X13286071Y-15880929D01*
X13300357Y-15852357D01*
X13300357Y-15838071D01*
X13286071Y-15809500D01*
X13257500Y-15795214D01*
X13214643Y-15795214D01*
X13186071Y-15780929D01*
X13171786Y-15752357D01*
X13171786Y-15738071D01*
X13186071Y-15709500D01*
X13214643Y-15695214D01*
X13257500Y-15695214D01*
X13286071Y-15709500D01*
X13400357Y-16009500D02*
X13414643Y-15995214D01*
X13443214Y-15952357D01*
X13457500Y-15923786D01*
X13471786Y-15880929D01*
X13486071Y-15809500D01*
X13486071Y-15752357D01*
X13471786Y-15680929D01*
X13457500Y-15638071D01*
X13443214Y-15609500D01*
X13414643Y-15566643D01*
X13400357Y-15552357D01*
X6232500Y-16100500D02*
X6342500Y-16210500D01*
X6342500Y-16100500D02*
X6232500Y-16210500D01*
X6342500Y-16155500D02*
G75*
G03*
X6342500Y-16155500I-55000J0D01*
G01*
X6786071Y-16291214D02*
X6614643Y-16291214D01*
X6700357Y-16291214D02*
X6700357Y-15991214D01*
X6671786Y-16034071D01*
X6643214Y-16062643D01*
X6614643Y-16076929D01*
X6914643Y-16262643D02*
X6928928Y-16276929D01*
X6914643Y-16291214D01*
X6900357Y-16276929D01*
X6914643Y-16262643D01*
X6914643Y-16291214D01*
X7214643Y-16291214D02*
X7043214Y-16291214D01*
X7128928Y-16291214D02*
X7128928Y-15991214D01*
X7100357Y-16034071D01*
X7071786Y-16062643D01*
X7043214Y-16076929D01*
X7400357Y-15991214D02*
X7428928Y-15991214D01*
X7457500Y-16005500D01*
X7471786Y-16019786D01*
X7486071Y-16048357D01*
X7500357Y-16105500D01*
X7500357Y-16176929D01*
X7486071Y-16234071D01*
X7471786Y-16262643D01*
X7457500Y-16276929D01*
X7428928Y-16291214D01*
X7400357Y-16291214D01*
X7371786Y-16276929D01*
X7357500Y-16262643D01*
X7343214Y-16234071D01*
X7328928Y-16176929D01*
X7328928Y-16105500D01*
X7343214Y-16048357D01*
X7357500Y-16019786D01*
X7371786Y-16005500D01*
X7400357Y-15991214D01*
X7686071Y-15991214D02*
X7714643Y-15991214D01*
X7743214Y-16005500D01*
X7757500Y-16019786D01*
X7771786Y-16048357D01*
X7786071Y-16105500D01*
X7786071Y-16176929D01*
X7771786Y-16234071D01*
X7757500Y-16262643D01*
X7743214Y-16276929D01*
X7714643Y-16291214D01*
X7686071Y-16291214D01*
X7657500Y-16276929D01*
X7643214Y-16262643D01*
X7628928Y-16234071D01*
X7614643Y-16176929D01*
X7614643Y-16105500D01*
X7628928Y-16048357D01*
X7643214Y-16019786D01*
X7657500Y-16005500D01*
X7686071Y-15991214D01*
X7914643Y-16291214D02*
X7914643Y-16091214D01*
X7914643Y-16119786D02*
X7928928Y-16105500D01*
X7957500Y-16091214D01*
X8000357Y-16091214D01*
X8028928Y-16105500D01*
X8043214Y-16134071D01*
X8043214Y-16291214D01*
X8043214Y-16134071D02*
X8057500Y-16105500D01*
X8086071Y-16091214D01*
X8128928Y-16091214D01*
X8157500Y-16105500D01*
X8171786Y-16134071D01*
X8171786Y-16291214D01*
X8314643Y-16291214D02*
X8314643Y-16091214D01*
X8314643Y-16119786D02*
X8328928Y-16105500D01*
X8357500Y-16091214D01*
X8400357Y-16091214D01*
X8428928Y-16105500D01*
X8443214Y-16134071D01*
X8443214Y-16291214D01*
X8443214Y-16134071D02*
X8457500Y-16105500D01*
X8486071Y-16091214D01*
X8528928Y-16091214D01*
X8557500Y-16105500D01*
X8571786Y-16134071D01*
X8571786Y-16291214D01*
X9157500Y-15976929D02*
X8900357Y-16362643D01*
X9543214Y-15991214D02*
X9571786Y-15991214D01*
X9600357Y-16005500D01*
X9614643Y-16019786D01*
X9628928Y-16048357D01*
X9643214Y-16105500D01*
X9643214Y-16176929D01*
X9628928Y-16234071D01*
X9614643Y-16262643D01*
X9600357Y-16276929D01*
X9571786Y-16291214D01*
X9543214Y-16291214D01*
X9514643Y-16276929D01*
X9500357Y-16262643D01*
X9486071Y-16234071D01*
X9471786Y-16176929D01*
X9471786Y-16105500D01*
X9486071Y-16048357D01*
X9500357Y-16019786D01*
X9514643Y-16005500D01*
X9543214Y-15991214D01*
X9771786Y-16262643D02*
X9786071Y-16276929D01*
X9771786Y-16291214D01*
X9757500Y-16276929D01*
X9771786Y-16262643D01*
X9771786Y-16291214D01*
X9971786Y-15991214D02*
X10000357Y-15991214D01*
X10028928Y-16005500D01*
X10043214Y-16019786D01*
X10057500Y-16048357D01*
X10071786Y-16105500D01*
X10071786Y-16176929D01*
X10057500Y-16234071D01*
X10043214Y-16262643D01*
X10028928Y-16276929D01*
X10000357Y-16291214D01*
X9971786Y-16291214D01*
X9943214Y-16276929D01*
X9928928Y-16262643D01*
X9914643Y-16234071D01*
X9900357Y-16176929D01*
X9900357Y-16105500D01*
X9914643Y-16048357D01*
X9928928Y-16019786D01*
X9943214Y-16005500D01*
X9971786Y-15991214D01*
X10328928Y-16091214D02*
X10328928Y-16291214D01*
X10257500Y-15976929D02*
X10186071Y-16191214D01*
X10371786Y-16191214D01*
X10457500Y-15991214D02*
X10643214Y-15991214D01*
X10543214Y-16105500D01*
X10586071Y-16105500D01*
X10614643Y-16119786D01*
X10628928Y-16134071D01*
X10643214Y-16162643D01*
X10643214Y-16234071D01*
X10628928Y-16262643D01*
X10614643Y-16276929D01*
X10586071Y-16291214D01*
X10500357Y-16291214D01*
X10471786Y-16276929D01*
X10457500Y-16262643D01*
X10743214Y-15991214D02*
X10928928Y-15991214D01*
X10828928Y-16105500D01*
X10871786Y-16105500D01*
X10900357Y-16119786D01*
X10914643Y-16134071D01*
X10928928Y-16162643D01*
X10928928Y-16234071D01*
X10914643Y-16262643D01*
X10900357Y-16276929D01*
X10871786Y-16291214D01*
X10786071Y-16291214D01*
X10757500Y-16276929D01*
X10743214Y-16262643D01*
X11043214Y-15991214D02*
X11043214Y-16048357D01*
X11157500Y-15991214D02*
X11157500Y-16048357D01*
X11600357Y-16405500D02*
X11586071Y-16391214D01*
X11557500Y-16348357D01*
X11543214Y-16319786D01*
X11528928Y-16276929D01*
X11514643Y-16205500D01*
X11514643Y-16148357D01*
X11528928Y-16076929D01*
X11543214Y-16034071D01*
X11557500Y-16005500D01*
X11586071Y-15962643D01*
X11600357Y-15948357D01*
X11843214Y-16091214D02*
X11843214Y-16291214D01*
X11771786Y-15976929D02*
X11700357Y-16191214D01*
X11886071Y-16191214D01*
X12228928Y-16291214D02*
X12228928Y-15991214D01*
X12357500Y-16291214D02*
X12357500Y-16134071D01*
X12343214Y-16105500D01*
X12314643Y-16091214D01*
X12271786Y-16091214D01*
X12243214Y-16105500D01*
X12228928Y-16119786D01*
X12543214Y-16291214D02*
X12514643Y-16276929D01*
X12500357Y-16262643D01*
X12486071Y-16234071D01*
X12486071Y-16148357D01*
X12500357Y-16119786D01*
X12514643Y-16105500D01*
X12543214Y-16091214D01*
X12586071Y-16091214D01*
X12614643Y-16105500D01*
X12628928Y-16119786D01*
X12643214Y-16148357D01*
X12643214Y-16234071D01*
X12628928Y-16262643D01*
X12614643Y-16276929D01*
X12586071Y-16291214D01*
X12543214Y-16291214D01*
X12814643Y-16291214D02*
X12786071Y-16276929D01*
X12771786Y-16248357D01*
X12771786Y-15991214D01*
X13043214Y-16276929D02*
X13014643Y-16291214D01*
X12957500Y-16291214D01*
X12928928Y-16276929D01*
X12914643Y-16248357D01*
X12914643Y-16134071D01*
X12928928Y-16105500D01*
X12957500Y-16091214D01*
X13014643Y-16091214D01*
X13043214Y-16105500D01*
X13057500Y-16134071D01*
X13057500Y-16162643D01*
X12914643Y-16191214D01*
X13171786Y-16276929D02*
X13200357Y-16291214D01*
X13257500Y-16291214D01*
X13286071Y-16276929D01*
X13300357Y-16248357D01*
X13300357Y-16234071D01*
X13286071Y-16205500D01*
X13257500Y-16191214D01*
X13214643Y-16191214D01*
X13186071Y-16176929D01*
X13171786Y-16148357D01*
X13171786Y-16134071D01*
X13186071Y-16105500D01*
X13214643Y-16091214D01*
X13257500Y-16091214D01*
X13286071Y-16105500D01*
X13400357Y-16405500D02*
X13414643Y-16391214D01*
X13443214Y-16348357D01*
X13457500Y-16319786D01*
X13471786Y-16276929D01*
X13486071Y-16205500D01*
X13486071Y-16148357D01*
X13471786Y-16076929D01*
X13457500Y-16034071D01*
X13443214Y-16005500D01*
X13414643Y-15962643D01*
X13400357Y-15948357D01*
X6109500Y-16435000D02*
X6342500Y-16668000D01*
X6342500Y-16435000D02*
X6109500Y-16668000D01*
X6226000Y-16435000D02*
X6226000Y-16668000D01*
X6109500Y-16551500D02*
X6342500Y-16551500D01*
X6614643Y-16415786D02*
X6628928Y-16401500D01*
X6657500Y-16387214D01*
X6728928Y-16387214D01*
X6757500Y-16401500D01*
X6771786Y-16415786D01*
X6786071Y-16444357D01*
X6786071Y-16472929D01*
X6771786Y-16515786D01*
X6600357Y-16687214D01*
X6786071Y-16687214D01*
X6914643Y-16658643D02*
X6928928Y-16672929D01*
X6914643Y-16687214D01*
X6900357Y-16672929D01*
X6914643Y-16658643D01*
X6914643Y-16687214D01*
X7028928Y-16387214D02*
X7214643Y-16387214D01*
X7114643Y-16501500D01*
X7157500Y-16501500D01*
X7186071Y-16515786D01*
X7200357Y-16530071D01*
X7214643Y-16558643D01*
X7214643Y-16630071D01*
X7200357Y-16658643D01*
X7186071Y-16672929D01*
X7157500Y-16687214D01*
X7071786Y-16687214D01*
X7043214Y-16672929D01*
X7028928Y-16658643D01*
X7314643Y-16387214D02*
X7500357Y-16387214D01*
X7400357Y-16501500D01*
X7443214Y-16501500D01*
X7471786Y-16515786D01*
X7486071Y-16530071D01*
X7500357Y-16558643D01*
X7500357Y-16630071D01*
X7486071Y-16658643D01*
X7471786Y-16672929D01*
X7443214Y-16687214D01*
X7357500Y-16687214D01*
X7328928Y-16672929D01*
X7314643Y-16658643D01*
X7686071Y-16387214D02*
X7714643Y-16387214D01*
X7743214Y-16401500D01*
X7757500Y-16415786D01*
X7771786Y-16444357D01*
X7786071Y-16501500D01*
X7786071Y-16572929D01*
X7771786Y-16630071D01*
X7757500Y-16658643D01*
X7743214Y-16672929D01*
X7714643Y-16687214D01*
X7686071Y-16687214D01*
X7657500Y-16672929D01*
X7643214Y-16658643D01*
X7628928Y-16630071D01*
X7614643Y-16572929D01*
X7614643Y-16501500D01*
X7628928Y-16444357D01*
X7643214Y-16415786D01*
X7657500Y-16401500D01*
X7686071Y-16387214D01*
X7914643Y-16687214D02*
X7914643Y-16487214D01*
X7914643Y-16515786D02*
X7928928Y-16501500D01*
X7957500Y-16487214D01*
X8000357Y-16487214D01*
X8028928Y-16501500D01*
X8043214Y-16530071D01*
X8043214Y-16687214D01*
X8043214Y-16530071D02*
X8057500Y-16501500D01*
X8086071Y-16487214D01*
X8128928Y-16487214D01*
X8157500Y-16501500D01*
X8171786Y-16530071D01*
X8171786Y-16687214D01*
X8314643Y-16687214D02*
X8314643Y-16487214D01*
X8314643Y-16515786D02*
X8328928Y-16501500D01*
X8357500Y-16487214D01*
X8400357Y-16487214D01*
X8428928Y-16501500D01*
X8443214Y-16530071D01*
X8443214Y-16687214D01*
X8443214Y-16530071D02*
X8457500Y-16501500D01*
X8486071Y-16487214D01*
X8528928Y-16487214D01*
X8557500Y-16501500D01*
X8571786Y-16530071D01*
X8571786Y-16687214D01*
X9157500Y-16372929D02*
X8900357Y-16758643D01*
X9543214Y-16387214D02*
X9571786Y-16387214D01*
X9600357Y-16401500D01*
X9614643Y-16415786D01*
X9628928Y-16444357D01*
X9643214Y-16501500D01*
X9643214Y-16572929D01*
X9628928Y-16630071D01*
X9614643Y-16658643D01*
X9600357Y-16672929D01*
X9571786Y-16687214D01*
X9543214Y-16687214D01*
X9514643Y-16672929D01*
X9500357Y-16658643D01*
X9486071Y-16630071D01*
X9471786Y-16572929D01*
X9471786Y-16501500D01*
X9486071Y-16444357D01*
X9500357Y-16415786D01*
X9514643Y-16401500D01*
X9543214Y-16387214D01*
X9771786Y-16658643D02*
X9786071Y-16672929D01*
X9771786Y-16687214D01*
X9757500Y-16672929D01*
X9771786Y-16658643D01*
X9771786Y-16687214D01*
X9971786Y-16387214D02*
X10000357Y-16387214D01*
X10028928Y-16401500D01*
X10043214Y-16415786D01*
X10057500Y-16444357D01*
X10071786Y-16501500D01*
X10071786Y-16572929D01*
X10057500Y-16630071D01*
X10043214Y-16658643D01*
X10028928Y-16672929D01*
X10000357Y-16687214D01*
X9971786Y-16687214D01*
X9943214Y-16672929D01*
X9928928Y-16658643D01*
X9914643Y-16630071D01*
X9900357Y-16572929D01*
X9900357Y-16501500D01*
X9914643Y-16444357D01*
X9928928Y-16415786D01*
X9943214Y-16401500D01*
X9971786Y-16387214D01*
X10214643Y-16687214D02*
X10271786Y-16687214D01*
X10300357Y-16672929D01*
X10314643Y-16658643D01*
X10343214Y-16615786D01*
X10357500Y-16558643D01*
X10357500Y-16444357D01*
X10343214Y-16415786D01*
X10328928Y-16401500D01*
X10300357Y-16387214D01*
X10243214Y-16387214D01*
X10214643Y-16401500D01*
X10200357Y-16415786D01*
X10186071Y-16444357D01*
X10186071Y-16515786D01*
X10200357Y-16544357D01*
X10214643Y-16558643D01*
X10243214Y-16572929D01*
X10300357Y-16572929D01*
X10328928Y-16558643D01*
X10343214Y-16544357D01*
X10357500Y-16515786D01*
X10643214Y-16687214D02*
X10471786Y-16687214D01*
X10557500Y-16687214D02*
X10557500Y-16387214D01*
X10528928Y-16430071D01*
X10500357Y-16458643D01*
X10471786Y-16472929D01*
X10743214Y-16387214D02*
X10943214Y-16387214D01*
X10814643Y-16687214D01*
X11043214Y-16387214D02*
X11043214Y-16444357D01*
X11157500Y-16387214D02*
X11157500Y-16444357D01*
X11600357Y-16801500D02*
X11586071Y-16787214D01*
X11557500Y-16744357D01*
X11543214Y-16715786D01*
X11528928Y-16672929D01*
X11514643Y-16601500D01*
X11514643Y-16544357D01*
X11528928Y-16472929D01*
X11543214Y-16430071D01*
X11557500Y-16401500D01*
X11586071Y-16358643D01*
X11600357Y-16344357D01*
X11700357Y-16415786D02*
X11714643Y-16401500D01*
X11743214Y-16387214D01*
X11814643Y-16387214D01*
X11843214Y-16401500D01*
X11857500Y-16415786D01*
X11871786Y-16444357D01*
X11871786Y-16472929D01*
X11857500Y-16515786D01*
X11686071Y-16687214D01*
X11871786Y-16687214D01*
X12228928Y-16687214D02*
X12228928Y-16387214D01*
X12357500Y-16687214D02*
X12357500Y-16530071D01*
X12343214Y-16501500D01*
X12314643Y-16487214D01*
X12271786Y-16487214D01*
X12243214Y-16501500D01*
X12228928Y-16515786D01*
X12543214Y-16687214D02*
X12514643Y-16672929D01*
X12500357Y-16658643D01*
X12486071Y-16630071D01*
X12486071Y-16544357D01*
X12500357Y-16515786D01*
X12514643Y-16501500D01*
X12543214Y-16487214D01*
X12586071Y-16487214D01*
X12614643Y-16501500D01*
X12628928Y-16515786D01*
X12643214Y-16544357D01*
X12643214Y-16630071D01*
X12628928Y-16658643D01*
X12614643Y-16672929D01*
X12586071Y-16687214D01*
X12543214Y-16687214D01*
X12814643Y-16687214D02*
X12786071Y-16672929D01*
X12771786Y-16644357D01*
X12771786Y-16387214D01*
X13043214Y-16672929D02*
X13014643Y-16687214D01*
X12957500Y-16687214D01*
X12928928Y-16672929D01*
X12914643Y-16644357D01*
X12914643Y-16530071D01*
X12928928Y-16501500D01*
X12957500Y-16487214D01*
X13014643Y-16487214D01*
X13043214Y-16501500D01*
X13057500Y-16530071D01*
X13057500Y-16558643D01*
X12914643Y-16587214D01*
X13171786Y-16672929D02*
X13200357Y-16687214D01*
X13257500Y-16687214D01*
X13286071Y-16672929D01*
X13300357Y-16644357D01*
X13300357Y-16630071D01*
X13286071Y-16601500D01*
X13257500Y-16587214D01*
X13214643Y-16587214D01*
X13186071Y-16572929D01*
X13171786Y-16544357D01*
X13171786Y-16530071D01*
X13186071Y-16501500D01*
X13214643Y-16487214D01*
X13257500Y-16487214D01*
X13286071Y-16501500D01*
X13400357Y-16801500D02*
X13414643Y-16787214D01*
X13443214Y-16744357D01*
X13457500Y-16715786D01*
X13471786Y-16672929D01*
X13486071Y-16601500D01*
X13486071Y-16544357D01*
X13471786Y-16472929D01*
X13457500Y-16430071D01*
X13443214Y-16401500D01*
X13414643Y-16358643D01*
X13400357Y-16344357D01*
M02*
