G04 #@! TF.GenerationSoftware,KiCad,Pcbnew,(5.1.10)-1*
G04 #@! TF.CreationDate,2022-06-26T08:24:55-05:00*
G04 #@! TF.ProjectId,z80vga,7a383076-6761-42e6-9b69-6361645f7063,rev?*
G04 #@! TF.SameCoordinates,Original*
G04 #@! TF.FileFunction,Legend,Bot*
G04 #@! TF.FilePolarity,Positive*
%FSLAX46Y46*%
G04 Gerber Fmt 4.6, Leading zero omitted, Abs format (unit mm)*
G04 Created by KiCad (PCBNEW (5.1.10)-1) date 2022-06-26 08:24:55*
%MOMM*%
%LPD*%
G01*
G04 APERTURE LIST*
%ADD10C,0.200000*%
%ADD11C,1.600000*%
%ADD12R,1.600000X1.600000*%
%ADD13O,1.600000X1.600000*%
%ADD14C,1.800000*%
%ADD15R,1.800000X1.800000*%
%ADD16R,1.700000X1.700000*%
%ADD17O,1.700000X1.700000*%
%ADD18C,3.500000*%
%ADD19O,2.400000X1.600000*%
%ADD20R,2.400000X1.600000*%
%ADD21R,3.500000X3.500000*%
%ADD22O,2.200000X2.200000*%
%ADD23R,2.200000X2.200000*%
%ADD24R,1.600000X2.400000*%
%ADD25O,1.600000X2.400000*%
%ADD26C,2.000000*%
%ADD27C,1.700000*%
G04 APERTURE END LIST*
D10*
X74420000Y-124031428D02*
X74420000Y-125650476D01*
X74515238Y-125840952D01*
X74610476Y-125936190D01*
X74800952Y-126031428D01*
X75086666Y-126031428D01*
X75277142Y-125936190D01*
X74420000Y-125269523D02*
X74610476Y-125364761D01*
X74991428Y-125364761D01*
X75181904Y-125269523D01*
X75277142Y-125174285D01*
X75372380Y-124983809D01*
X75372380Y-124412380D01*
X75277142Y-124221904D01*
X75181904Y-124126666D01*
X74991428Y-124031428D01*
X74610476Y-124031428D01*
X74420000Y-124126666D01*
X73467619Y-125364761D02*
X73467619Y-124031428D01*
X73467619Y-123364761D02*
X73562857Y-123460000D01*
X73467619Y-123555238D01*
X73372380Y-123460000D01*
X73467619Y-123364761D01*
X73467619Y-123555238D01*
X72800952Y-124031428D02*
X72039047Y-124031428D01*
X72515238Y-123364761D02*
X72515238Y-125079047D01*
X72420000Y-125269523D01*
X72229523Y-125364761D01*
X72039047Y-125364761D01*
X71372380Y-125364761D02*
X71372380Y-123364761D01*
X70515238Y-125364761D02*
X70515238Y-124317142D01*
X70610476Y-124126666D01*
X70800952Y-124031428D01*
X71086666Y-124031428D01*
X71277142Y-124126666D01*
X71372380Y-124221904D01*
X68705714Y-124031428D02*
X68705714Y-125364761D01*
X69562857Y-124031428D02*
X69562857Y-125079047D01*
X69467619Y-125269523D01*
X69277142Y-125364761D01*
X68991428Y-125364761D01*
X68800952Y-125269523D01*
X68705714Y-125174285D01*
X67753333Y-125364761D02*
X67753333Y-123364761D01*
X67753333Y-124126666D02*
X67562857Y-124031428D01*
X67181904Y-124031428D01*
X66991428Y-124126666D01*
X66896190Y-124221904D01*
X66800952Y-124412380D01*
X66800952Y-124983809D01*
X66896190Y-125174285D01*
X66991428Y-125269523D01*
X67181904Y-125364761D01*
X67562857Y-125364761D01*
X67753333Y-125269523D01*
X65943809Y-125174285D02*
X65848571Y-125269523D01*
X65943809Y-125364761D01*
X66039047Y-125269523D01*
X65943809Y-125174285D01*
X65943809Y-125364761D01*
X64134285Y-125269523D02*
X64324761Y-125364761D01*
X64705714Y-125364761D01*
X64896190Y-125269523D01*
X64991428Y-125174285D01*
X65086666Y-124983809D01*
X65086666Y-124412380D01*
X64991428Y-124221904D01*
X64896190Y-124126666D01*
X64705714Y-124031428D01*
X64324761Y-124031428D01*
X64134285Y-124126666D01*
X62991428Y-125364761D02*
X63181904Y-125269523D01*
X63277142Y-125174285D01*
X63372380Y-124983809D01*
X63372380Y-124412380D01*
X63277142Y-124221904D01*
X63181904Y-124126666D01*
X62991428Y-124031428D01*
X62705714Y-124031428D01*
X62515238Y-124126666D01*
X62420000Y-124221904D01*
X62324761Y-124412380D01*
X62324761Y-124983809D01*
X62420000Y-125174285D01*
X62515238Y-125269523D01*
X62705714Y-125364761D01*
X62991428Y-125364761D01*
X61467619Y-125364761D02*
X61467619Y-124031428D01*
X61467619Y-124221904D02*
X61372380Y-124126666D01*
X61181904Y-124031428D01*
X60896190Y-124031428D01*
X60705714Y-124126666D01*
X60610476Y-124317142D01*
X60610476Y-125364761D01*
X60610476Y-124317142D02*
X60515238Y-124126666D01*
X60324761Y-124031428D01*
X60039047Y-124031428D01*
X59848571Y-124126666D01*
X59753333Y-124317142D01*
X59753333Y-125364761D01*
X57372380Y-123269523D02*
X59086666Y-125840952D01*
X55848571Y-125364761D02*
X55848571Y-124317142D01*
X55943809Y-124126666D01*
X56134285Y-124031428D01*
X56515238Y-124031428D01*
X56705714Y-124126666D01*
X55848571Y-125269523D02*
X56039047Y-125364761D01*
X56515238Y-125364761D01*
X56705714Y-125269523D01*
X56800952Y-125079047D01*
X56800952Y-124888571D01*
X56705714Y-124698095D01*
X56515238Y-124602857D01*
X56039047Y-124602857D01*
X55848571Y-124507619D01*
X54896190Y-124031428D02*
X54896190Y-125364761D01*
X54896190Y-124221904D02*
X54800952Y-124126666D01*
X54610476Y-124031428D01*
X54324761Y-124031428D01*
X54134285Y-124126666D01*
X54039047Y-124317142D01*
X54039047Y-125364761D01*
X53086666Y-124031428D02*
X53086666Y-125745714D01*
X53181904Y-125936190D01*
X53372380Y-126031428D01*
X53467619Y-126031428D01*
X53086666Y-123364761D02*
X53181904Y-123460000D01*
X53086666Y-123555238D01*
X52991428Y-123460000D01*
X53086666Y-123364761D01*
X53086666Y-123555238D01*
X51372380Y-125269523D02*
X51562857Y-125364761D01*
X51943809Y-125364761D01*
X52134285Y-125269523D01*
X52229523Y-125079047D01*
X52229523Y-124317142D01*
X52134285Y-124126666D01*
X51943809Y-124031428D01*
X51562857Y-124031428D01*
X51372380Y-124126666D01*
X51277142Y-124317142D01*
X51277142Y-124507619D01*
X52229523Y-124698095D01*
X50420000Y-124031428D02*
X50420000Y-125364761D01*
X50420000Y-124221904D02*
X50324761Y-124126666D01*
X50134285Y-124031428D01*
X49848571Y-124031428D01*
X49658095Y-124126666D01*
X49562857Y-124317142D01*
X49562857Y-125364761D01*
X48610476Y-124031428D02*
X48610476Y-125364761D01*
X48610476Y-124221904D02*
X48515238Y-124126666D01*
X48324761Y-124031428D01*
X48039047Y-124031428D01*
X47848571Y-124126666D01*
X47753333Y-124317142D01*
X47753333Y-125364761D01*
X46800952Y-125364761D02*
X46800952Y-124031428D01*
X46800952Y-123364761D02*
X46896190Y-123460000D01*
X46800952Y-123555238D01*
X46705714Y-123460000D01*
X46800952Y-123364761D01*
X46800952Y-123555238D01*
X45848571Y-124031428D02*
X45848571Y-125364761D01*
X45848571Y-124221904D02*
X45753333Y-124126666D01*
X45562857Y-124031428D01*
X45277142Y-124031428D01*
X45086666Y-124126666D01*
X44991428Y-124317142D01*
X44991428Y-125364761D01*
X43181904Y-124031428D02*
X43181904Y-125650476D01*
X43277142Y-125840952D01*
X43372380Y-125936190D01*
X43562857Y-126031428D01*
X43848571Y-126031428D01*
X44039047Y-125936190D01*
X43181904Y-125269523D02*
X43372380Y-125364761D01*
X43753333Y-125364761D01*
X43943809Y-125269523D01*
X44039047Y-125174285D01*
X44134285Y-124983809D01*
X44134285Y-124412380D01*
X44039047Y-124221904D01*
X43943809Y-124126666D01*
X43753333Y-124031428D01*
X43372380Y-124031428D01*
X43181904Y-124126666D01*
X42324761Y-125269523D02*
X42134285Y-125364761D01*
X41753333Y-125364761D01*
X41562857Y-125269523D01*
X41467619Y-125079047D01*
X41467619Y-124983809D01*
X41562857Y-124793333D01*
X41753333Y-124698095D01*
X42039047Y-124698095D01*
X42229523Y-124602857D01*
X42324761Y-124412380D01*
X42324761Y-124317142D01*
X42229523Y-124126666D01*
X42039047Y-124031428D01*
X41753333Y-124031428D01*
X41562857Y-124126666D01*
%LPC*%
D11*
X68000000Y-54000000D03*
D12*
X66000000Y-54000000D03*
D11*
X68000000Y-62000000D03*
D12*
X66000000Y-62000000D03*
D11*
X110000000Y-114500000D03*
X110000000Y-112000000D03*
X87000000Y-74500000D03*
X87000000Y-77000000D03*
D13*
X59000000Y-114540000D03*
D11*
X59000000Y-112000000D03*
D13*
X73000000Y-115020000D03*
X73000000Y-112480000D03*
X73000000Y-109940000D03*
X73000000Y-107400000D03*
X73000000Y-104860000D03*
X73000000Y-102320000D03*
X73000000Y-99780000D03*
X73000000Y-97240000D03*
X73000000Y-94700000D03*
X73000000Y-92160000D03*
X73000000Y-89620000D03*
X73000000Y-87080000D03*
X73000000Y-84540000D03*
D12*
X73000000Y-82000000D03*
D13*
X124000000Y-34000000D03*
D11*
X121460000Y-34000000D03*
D13*
X149830000Y-116000000D03*
D11*
X152370000Y-116000000D03*
D14*
X156460000Y-116000000D03*
D15*
X159000000Y-116000000D03*
D16*
X59000000Y-107000000D03*
D17*
X59000000Y-104460000D03*
D11*
X62230000Y-91280000D03*
D12*
X62230000Y-89280000D03*
D11*
X54610000Y-91280000D03*
D12*
X54610000Y-89280000D03*
D18*
X161000000Y-34000000D03*
X34000000Y-34000000D03*
X161000000Y-126000000D03*
X34000000Y-126000000D03*
D13*
X114000000Y-46700000D03*
X114000000Y-44160000D03*
X114000000Y-41620000D03*
X114000000Y-39080000D03*
X114000000Y-36540000D03*
D12*
X114000000Y-34000000D03*
D13*
X59000000Y-33300000D03*
X59000000Y-35840000D03*
X59000000Y-38380000D03*
X59000000Y-40920000D03*
X59000000Y-43460000D03*
D12*
X59000000Y-46000000D03*
D17*
X138910000Y-46880000D03*
D16*
X136370000Y-46880000D03*
D17*
X41080000Y-94000000D03*
X38540000Y-94000000D03*
D16*
X36000000Y-94000000D03*
D11*
X105500000Y-34000000D03*
X108000000Y-34000000D03*
X127500000Y-34000000D03*
X130000000Y-34000000D03*
X66500000Y-33000000D03*
X69000000Y-33000000D03*
X103000000Y-61500000D03*
X103000000Y-59000000D03*
X50500000Y-116000000D03*
X53000000Y-116000000D03*
X52500000Y-98000000D03*
X50000000Y-98000000D03*
D19*
X146740000Y-62000000D03*
X131500000Y-100100000D03*
X146740000Y-64540000D03*
X131500000Y-97560000D03*
X146740000Y-67080000D03*
X131500000Y-95020000D03*
X146740000Y-69620000D03*
X131500000Y-92480000D03*
X146740000Y-72160000D03*
X131500000Y-89940000D03*
X146740000Y-74700000D03*
X131500000Y-87400000D03*
X146740000Y-77240000D03*
X131500000Y-84860000D03*
X146740000Y-79780000D03*
X131500000Y-82320000D03*
X146740000Y-82320000D03*
X131500000Y-79780000D03*
X146740000Y-84860000D03*
X131500000Y-77240000D03*
X146740000Y-87400000D03*
X131500000Y-74700000D03*
X146740000Y-89940000D03*
X131500000Y-72160000D03*
X146740000Y-92480000D03*
X131500000Y-69620000D03*
X146740000Y-95020000D03*
X131500000Y-67080000D03*
X146740000Y-97560000D03*
X131500000Y-64540000D03*
X146740000Y-100100000D03*
D20*
X131500000Y-62000000D03*
G36*
G01*
X35250000Y-86575000D02*
X35250000Y-84825000D01*
G75*
G02*
X36125000Y-83950000I875000J0D01*
G01*
X37875000Y-83950000D01*
G75*
G02*
X38750000Y-84825000I0J-875000D01*
G01*
X38750000Y-86575000D01*
G75*
G02*
X37875000Y-87450000I-875000J0D01*
G01*
X36125000Y-87450000D01*
G75*
G02*
X35250000Y-86575000I0J875000D01*
G01*
G37*
G36*
G01*
X32500000Y-82000000D02*
X32500000Y-80000000D01*
G75*
G02*
X33250000Y-79250000I750000J0D01*
G01*
X34750000Y-79250000D01*
G75*
G02*
X35500000Y-80000000I0J-750000D01*
G01*
X35500000Y-82000000D01*
G75*
G02*
X34750000Y-82750000I-750000J0D01*
G01*
X33250000Y-82750000D01*
G75*
G02*
X32500000Y-82000000I0J750000D01*
G01*
G37*
D21*
X40000000Y-81000000D03*
D22*
X33840000Y-71000000D03*
D23*
X44000000Y-71000000D03*
D13*
X159500000Y-64380000D03*
X159500000Y-66920000D03*
X159500000Y-69460000D03*
D12*
X159500000Y-72000000D03*
D11*
X84760000Y-111000000D03*
X84760000Y-118620000D03*
X100000000Y-118620000D03*
D12*
X100000000Y-111000000D03*
D19*
X129620000Y-39000000D03*
X122000000Y-46620000D03*
X129620000Y-41540000D03*
X122000000Y-44080000D03*
X129620000Y-44080000D03*
X122000000Y-41540000D03*
X129620000Y-46620000D03*
D20*
X122000000Y-39000000D03*
D24*
X117000000Y-120000000D03*
D25*
X139860000Y-112380000D03*
X119540000Y-120000000D03*
X137320000Y-112380000D03*
X122080000Y-120000000D03*
X134780000Y-112380000D03*
X124620000Y-120000000D03*
X132240000Y-112380000D03*
X127160000Y-120000000D03*
X129700000Y-112380000D03*
X129700000Y-120000000D03*
X127160000Y-112380000D03*
X132240000Y-120000000D03*
X124620000Y-112380000D03*
X134780000Y-120000000D03*
X122080000Y-112380000D03*
X137320000Y-120000000D03*
X119540000Y-112380000D03*
X139860000Y-120000000D03*
X117000000Y-112380000D03*
D26*
X152500000Y-97500000D03*
X152500000Y-93000000D03*
X159000000Y-97500000D03*
X159000000Y-93000000D03*
D17*
X138910000Y-42080000D03*
X136370000Y-42080000D03*
X138910000Y-39540000D03*
X136370000Y-39540000D03*
X138910000Y-37000000D03*
D16*
X136370000Y-37000000D03*
D17*
X95810000Y-33864000D03*
X93270000Y-33864000D03*
X90730000Y-33864000D03*
X88190000Y-33864000D03*
X85650000Y-33864000D03*
X83110000Y-33864000D03*
X80570000Y-33864000D03*
D16*
X78030000Y-33864000D03*
D18*
X37290000Y-100730000D03*
X37290000Y-112770000D03*
D27*
X40000000Y-108000000D03*
X40000000Y-105500000D03*
X42000000Y-105500000D03*
D16*
X42000000Y-108000000D03*
D11*
X154000000Y-72280000D03*
X151500000Y-72280000D03*
X159500000Y-57000000D03*
X157000000Y-57000000D03*
X154000000Y-67000000D03*
X151500000Y-67000000D03*
X154000000Y-62000000D03*
X151500000Y-62000000D03*
D13*
X95810000Y-38182000D03*
X93270000Y-38182000D03*
X90730000Y-38182000D03*
X88190000Y-38182000D03*
X85650000Y-38182000D03*
X83110000Y-38182000D03*
X80570000Y-38182000D03*
X78030000Y-38182000D03*
D12*
X75490000Y-38182000D03*
D13*
X95810000Y-46546000D03*
X93270000Y-46546000D03*
X90730000Y-46546000D03*
X88190000Y-46546000D03*
X85650000Y-46546000D03*
X83110000Y-46546000D03*
X80570000Y-46546000D03*
X78030000Y-46546000D03*
D12*
X75490000Y-46546000D03*
D17*
X95810000Y-42482000D03*
X93270000Y-42482000D03*
X90730000Y-42482000D03*
X88190000Y-42482000D03*
X85650000Y-42482000D03*
X83110000Y-42482000D03*
X80570000Y-42482000D03*
D16*
X78030000Y-42482000D03*
D14*
X80000000Y-72460000D03*
D15*
X80000000Y-75000000D03*
D14*
X74000000Y-72460000D03*
D15*
X74000000Y-75000000D03*
D11*
X122000000Y-67000000D03*
X124500000Y-67000000D03*
X144000000Y-56000000D03*
X146500000Y-56000000D03*
M02*
