G04 #@! TF.GenerationSoftware,KiCad,Pcbnew,(5.1.10)-1*
G04 #@! TF.CreationDate,2022-05-28T18:59:37-05:00*
G04 #@! TF.ProjectId,z80vga,7a383076-6761-42e6-9b69-6361645f7063,rev?*
G04 #@! TF.SameCoordinates,Original*
G04 #@! TF.FileFunction,Legend,Bot*
G04 #@! TF.FilePolarity,Positive*
%FSLAX46Y46*%
G04 Gerber Fmt 4.6, Leading zero omitted, Abs format (unit mm)*
G04 Created by KiCad (PCBNEW (5.1.10)-1) date 2022-05-28 18:59:37*
%MOMM*%
%LPD*%
G01*
G04 APERTURE LIST*
%ADD10C,0.200000*%
%ADD11C,0.010000*%
%ADD12C,1.600000*%
%ADD13R,1.600000X1.600000*%
%ADD14O,1.600000X1.600000*%
%ADD15C,1.800000*%
%ADD16R,1.800000X1.800000*%
%ADD17R,1.700000X1.700000*%
%ADD18O,1.700000X1.700000*%
%ADD19C,3.500000*%
%ADD20O,2.400000X1.600000*%
%ADD21R,2.400000X1.600000*%
%ADD22R,3.500000X3.500000*%
%ADD23O,2.200000X2.200000*%
%ADD24R,2.200000X2.200000*%
%ADD25O,1.600000X2.400000*%
%ADD26R,1.600000X2.400000*%
%ADD27C,2.000000*%
%ADD28C,1.700000*%
G04 APERTURE END LIST*
D10*
X74420000Y-124031428D02*
X74420000Y-125650476D01*
X74515238Y-125840952D01*
X74610476Y-125936190D01*
X74800952Y-126031428D01*
X75086666Y-126031428D01*
X75277142Y-125936190D01*
X74420000Y-125269523D02*
X74610476Y-125364761D01*
X74991428Y-125364761D01*
X75181904Y-125269523D01*
X75277142Y-125174285D01*
X75372380Y-124983809D01*
X75372380Y-124412380D01*
X75277142Y-124221904D01*
X75181904Y-124126666D01*
X74991428Y-124031428D01*
X74610476Y-124031428D01*
X74420000Y-124126666D01*
X73467619Y-125364761D02*
X73467619Y-124031428D01*
X73467619Y-123364761D02*
X73562857Y-123460000D01*
X73467619Y-123555238D01*
X73372380Y-123460000D01*
X73467619Y-123364761D01*
X73467619Y-123555238D01*
X72800952Y-124031428D02*
X72039047Y-124031428D01*
X72515238Y-123364761D02*
X72515238Y-125079047D01*
X72420000Y-125269523D01*
X72229523Y-125364761D01*
X72039047Y-125364761D01*
X71372380Y-125364761D02*
X71372380Y-123364761D01*
X70515238Y-125364761D02*
X70515238Y-124317142D01*
X70610476Y-124126666D01*
X70800952Y-124031428D01*
X71086666Y-124031428D01*
X71277142Y-124126666D01*
X71372380Y-124221904D01*
X68705714Y-124031428D02*
X68705714Y-125364761D01*
X69562857Y-124031428D02*
X69562857Y-125079047D01*
X69467619Y-125269523D01*
X69277142Y-125364761D01*
X68991428Y-125364761D01*
X68800952Y-125269523D01*
X68705714Y-125174285D01*
X67753333Y-125364761D02*
X67753333Y-123364761D01*
X67753333Y-124126666D02*
X67562857Y-124031428D01*
X67181904Y-124031428D01*
X66991428Y-124126666D01*
X66896190Y-124221904D01*
X66800952Y-124412380D01*
X66800952Y-124983809D01*
X66896190Y-125174285D01*
X66991428Y-125269523D01*
X67181904Y-125364761D01*
X67562857Y-125364761D01*
X67753333Y-125269523D01*
X65943809Y-125174285D02*
X65848571Y-125269523D01*
X65943809Y-125364761D01*
X66039047Y-125269523D01*
X65943809Y-125174285D01*
X65943809Y-125364761D01*
X64134285Y-125269523D02*
X64324761Y-125364761D01*
X64705714Y-125364761D01*
X64896190Y-125269523D01*
X64991428Y-125174285D01*
X65086666Y-124983809D01*
X65086666Y-124412380D01*
X64991428Y-124221904D01*
X64896190Y-124126666D01*
X64705714Y-124031428D01*
X64324761Y-124031428D01*
X64134285Y-124126666D01*
X62991428Y-125364761D02*
X63181904Y-125269523D01*
X63277142Y-125174285D01*
X63372380Y-124983809D01*
X63372380Y-124412380D01*
X63277142Y-124221904D01*
X63181904Y-124126666D01*
X62991428Y-124031428D01*
X62705714Y-124031428D01*
X62515238Y-124126666D01*
X62420000Y-124221904D01*
X62324761Y-124412380D01*
X62324761Y-124983809D01*
X62420000Y-125174285D01*
X62515238Y-125269523D01*
X62705714Y-125364761D01*
X62991428Y-125364761D01*
X61467619Y-125364761D02*
X61467619Y-124031428D01*
X61467619Y-124221904D02*
X61372380Y-124126666D01*
X61181904Y-124031428D01*
X60896190Y-124031428D01*
X60705714Y-124126666D01*
X60610476Y-124317142D01*
X60610476Y-125364761D01*
X60610476Y-124317142D02*
X60515238Y-124126666D01*
X60324761Y-124031428D01*
X60039047Y-124031428D01*
X59848571Y-124126666D01*
X59753333Y-124317142D01*
X59753333Y-125364761D01*
X57372380Y-123269523D02*
X59086666Y-125840952D01*
X55848571Y-125364761D02*
X55848571Y-124317142D01*
X55943809Y-124126666D01*
X56134285Y-124031428D01*
X56515238Y-124031428D01*
X56705714Y-124126666D01*
X55848571Y-125269523D02*
X56039047Y-125364761D01*
X56515238Y-125364761D01*
X56705714Y-125269523D01*
X56800952Y-125079047D01*
X56800952Y-124888571D01*
X56705714Y-124698095D01*
X56515238Y-124602857D01*
X56039047Y-124602857D01*
X55848571Y-124507619D01*
X54896190Y-124031428D02*
X54896190Y-125364761D01*
X54896190Y-124221904D02*
X54800952Y-124126666D01*
X54610476Y-124031428D01*
X54324761Y-124031428D01*
X54134285Y-124126666D01*
X54039047Y-124317142D01*
X54039047Y-125364761D01*
X53086666Y-124031428D02*
X53086666Y-125745714D01*
X53181904Y-125936190D01*
X53372380Y-126031428D01*
X53467619Y-126031428D01*
X53086666Y-123364761D02*
X53181904Y-123460000D01*
X53086666Y-123555238D01*
X52991428Y-123460000D01*
X53086666Y-123364761D01*
X53086666Y-123555238D01*
X51372380Y-125269523D02*
X51562857Y-125364761D01*
X51943809Y-125364761D01*
X52134285Y-125269523D01*
X52229523Y-125079047D01*
X52229523Y-124317142D01*
X52134285Y-124126666D01*
X51943809Y-124031428D01*
X51562857Y-124031428D01*
X51372380Y-124126666D01*
X51277142Y-124317142D01*
X51277142Y-124507619D01*
X52229523Y-124698095D01*
X50420000Y-124031428D02*
X50420000Y-125364761D01*
X50420000Y-124221904D02*
X50324761Y-124126666D01*
X50134285Y-124031428D01*
X49848571Y-124031428D01*
X49658095Y-124126666D01*
X49562857Y-124317142D01*
X49562857Y-125364761D01*
X48610476Y-124031428D02*
X48610476Y-125364761D01*
X48610476Y-124221904D02*
X48515238Y-124126666D01*
X48324761Y-124031428D01*
X48039047Y-124031428D01*
X47848571Y-124126666D01*
X47753333Y-124317142D01*
X47753333Y-125364761D01*
X46800952Y-125364761D02*
X46800952Y-124031428D01*
X46800952Y-123364761D02*
X46896190Y-123460000D01*
X46800952Y-123555238D01*
X46705714Y-123460000D01*
X46800952Y-123364761D01*
X46800952Y-123555238D01*
X45848571Y-124031428D02*
X45848571Y-125364761D01*
X45848571Y-124221904D02*
X45753333Y-124126666D01*
X45562857Y-124031428D01*
X45277142Y-124031428D01*
X45086666Y-124126666D01*
X44991428Y-124317142D01*
X44991428Y-125364761D01*
X43181904Y-124031428D02*
X43181904Y-125650476D01*
X43277142Y-125840952D01*
X43372380Y-125936190D01*
X43562857Y-126031428D01*
X43848571Y-126031428D01*
X44039047Y-125936190D01*
X43181904Y-125269523D02*
X43372380Y-125364761D01*
X43753333Y-125364761D01*
X43943809Y-125269523D01*
X44039047Y-125174285D01*
X44134285Y-124983809D01*
X44134285Y-124412380D01*
X44039047Y-124221904D01*
X43943809Y-124126666D01*
X43753333Y-124031428D01*
X43372380Y-124031428D01*
X43181904Y-124126666D01*
X42324761Y-125269523D02*
X42134285Y-125364761D01*
X41753333Y-125364761D01*
X41562857Y-125269523D01*
X41467619Y-125079047D01*
X41467619Y-124983809D01*
X41562857Y-124793333D01*
X41753333Y-124698095D01*
X42039047Y-124698095D01*
X42229523Y-124602857D01*
X42324761Y-124412380D01*
X42324761Y-124317142D01*
X42229523Y-124126666D01*
X42039047Y-124031428D01*
X41753333Y-124031428D01*
X41562857Y-124126666D01*
D11*
G36*
X61366400Y-68609054D02*
G01*
X61355535Y-68722993D01*
X61323918Y-68830616D01*
X61273015Y-68929615D01*
X61204293Y-69017684D01*
X61119219Y-69092516D01*
X61022232Y-69150384D01*
X60915964Y-69190005D01*
X60808950Y-69208573D01*
X60703300Y-69207434D01*
X60601125Y-69187930D01*
X60504534Y-69151406D01*
X60415638Y-69099205D01*
X60336546Y-69032673D01*
X60269369Y-68953152D01*
X60216217Y-68861987D01*
X60179199Y-68760523D01*
X60160427Y-68650102D01*
X60158489Y-68600206D01*
X60158489Y-68512267D01*
X60106560Y-68512267D01*
X60070253Y-68515111D01*
X60043355Y-68526911D01*
X60016249Y-68550649D01*
X59977867Y-68589031D01*
X59977867Y-70780602D01*
X59977876Y-71042739D01*
X59977908Y-71283241D01*
X59977972Y-71503048D01*
X59978076Y-71703101D01*
X59978227Y-71884344D01*
X59978434Y-72047716D01*
X59978706Y-72194160D01*
X59979050Y-72324617D01*
X59979474Y-72440029D01*
X59979987Y-72541338D01*
X59980597Y-72629484D01*
X59981312Y-72705410D01*
X59982140Y-72770057D01*
X59983089Y-72824367D01*
X59984167Y-72869280D01*
X59985383Y-72905740D01*
X59986745Y-72934687D01*
X59988261Y-72957063D01*
X59989938Y-72973809D01*
X59991786Y-72985868D01*
X59993813Y-72994180D01*
X59996025Y-72999687D01*
X59997108Y-73001537D01*
X60001271Y-73008549D01*
X60004805Y-73014996D01*
X60008635Y-73020900D01*
X60013682Y-73026286D01*
X60020871Y-73031178D01*
X60031123Y-73035598D01*
X60045364Y-73039572D01*
X60064514Y-73043121D01*
X60089499Y-73046270D01*
X60121240Y-73049042D01*
X60160662Y-73051461D01*
X60208686Y-73053551D01*
X60266237Y-73055335D01*
X60334237Y-73056837D01*
X60413610Y-73058080D01*
X60505279Y-73059089D01*
X60610166Y-73059885D01*
X60729196Y-73060494D01*
X60863290Y-73060939D01*
X61013373Y-73061243D01*
X61180367Y-73061430D01*
X61365196Y-73061524D01*
X61568783Y-73061548D01*
X61792050Y-73061525D01*
X62035922Y-73061480D01*
X62301321Y-73061437D01*
X62339704Y-73061432D01*
X62606682Y-73061389D01*
X62852002Y-73061318D01*
X63076583Y-73061213D01*
X63281345Y-73061066D01*
X63467206Y-73060869D01*
X63635088Y-73060616D01*
X63785908Y-73060300D01*
X63920587Y-73059913D01*
X64040044Y-73059447D01*
X64145199Y-73058897D01*
X64236971Y-73058253D01*
X64316279Y-73057511D01*
X64384043Y-73056661D01*
X64441182Y-73055697D01*
X64488617Y-73054611D01*
X64527266Y-73053397D01*
X64558049Y-73052047D01*
X64581885Y-73050555D01*
X64599694Y-73048911D01*
X64612395Y-73047111D01*
X64620908Y-73045145D01*
X64625266Y-73043477D01*
X64633728Y-73039906D01*
X64641497Y-73037270D01*
X64648602Y-73034634D01*
X64655073Y-73031062D01*
X64660939Y-73025621D01*
X64666229Y-73017375D01*
X64670974Y-73005390D01*
X64675202Y-72988731D01*
X64678943Y-72966463D01*
X64682227Y-72937652D01*
X64685083Y-72901363D01*
X64687540Y-72856661D01*
X64689629Y-72802611D01*
X64691378Y-72738279D01*
X64692817Y-72662730D01*
X64693976Y-72575030D01*
X64694883Y-72474243D01*
X64695569Y-72359434D01*
X64696063Y-72229670D01*
X64696395Y-72084015D01*
X64696593Y-71921535D01*
X64696687Y-71741295D01*
X64696708Y-71542360D01*
X64696685Y-71323796D01*
X64696646Y-71084668D01*
X64696622Y-70824040D01*
X64696622Y-70781889D01*
X64696636Y-70518992D01*
X64696661Y-70277732D01*
X64696671Y-70057165D01*
X64696642Y-69856352D01*
X64696548Y-69674349D01*
X64696362Y-69510216D01*
X64696059Y-69363011D01*
X64695614Y-69231792D01*
X64695034Y-69121867D01*
X64392197Y-69121867D01*
X64352407Y-69179711D01*
X64341236Y-69195479D01*
X64331166Y-69209441D01*
X64322138Y-69222784D01*
X64314097Y-69236693D01*
X64306986Y-69252356D01*
X64300747Y-69270958D01*
X64295325Y-69293686D01*
X64290662Y-69321727D01*
X64286701Y-69356267D01*
X64283385Y-69398492D01*
X64280659Y-69449589D01*
X64278464Y-69510744D01*
X64276745Y-69583144D01*
X64275444Y-69667975D01*
X64274505Y-69766422D01*
X64273870Y-69879674D01*
X64273484Y-70008916D01*
X64273288Y-70155334D01*
X64273227Y-70320116D01*
X64273243Y-70504447D01*
X64273280Y-70709513D01*
X64273289Y-70832133D01*
X64273265Y-71049082D01*
X64273231Y-71244642D01*
X64273243Y-71419999D01*
X64273358Y-71576341D01*
X64273630Y-71714857D01*
X64274118Y-71836734D01*
X64274876Y-71943160D01*
X64275962Y-72035322D01*
X64277431Y-72114409D01*
X64279340Y-72181608D01*
X64281744Y-72238107D01*
X64284701Y-72285093D01*
X64288266Y-72323755D01*
X64292495Y-72355280D01*
X64297446Y-72380855D01*
X64303173Y-72401670D01*
X64309733Y-72418911D01*
X64317183Y-72433765D01*
X64325579Y-72447422D01*
X64334976Y-72461069D01*
X64345432Y-72475893D01*
X64351523Y-72484783D01*
X64390296Y-72542400D01*
X63858732Y-72542400D01*
X63735483Y-72542365D01*
X63632987Y-72542215D01*
X63549420Y-72541878D01*
X63482956Y-72541286D01*
X63431771Y-72540367D01*
X63394041Y-72539051D01*
X63367940Y-72537269D01*
X63351644Y-72534951D01*
X63343328Y-72532026D01*
X63341168Y-72528424D01*
X63343339Y-72524075D01*
X63344535Y-72522645D01*
X63369685Y-72485573D01*
X63395583Y-72432772D01*
X63419192Y-72370770D01*
X63427461Y-72344357D01*
X63432078Y-72326416D01*
X63435979Y-72305355D01*
X63439248Y-72279089D01*
X63441966Y-72245532D01*
X63444215Y-72202599D01*
X63446077Y-72148204D01*
X63447636Y-72080262D01*
X63448972Y-71996688D01*
X63450169Y-71895395D01*
X63451308Y-71774300D01*
X63451685Y-71729600D01*
X63452702Y-71604449D01*
X63453460Y-71500082D01*
X63453903Y-71414707D01*
X63453970Y-71346533D01*
X63453605Y-71293765D01*
X63452748Y-71254614D01*
X63451341Y-71227285D01*
X63449325Y-71209986D01*
X63446643Y-71200926D01*
X63443236Y-71198312D01*
X63439044Y-71200351D01*
X63434571Y-71204667D01*
X63424216Y-71217602D01*
X63402158Y-71246676D01*
X63369957Y-71289759D01*
X63329174Y-71344718D01*
X63281370Y-71409423D01*
X63228105Y-71481742D01*
X63170940Y-71559544D01*
X63111437Y-71640698D01*
X63051155Y-71723072D01*
X62991655Y-71804536D01*
X62934498Y-71882957D01*
X62881245Y-71956204D01*
X62833457Y-72022147D01*
X62792693Y-72078654D01*
X62760516Y-72123593D01*
X62738485Y-72154834D01*
X62733917Y-72161466D01*
X62710996Y-72198369D01*
X62684188Y-72246359D01*
X62658789Y-72295897D01*
X62655568Y-72302577D01*
X62633890Y-72350772D01*
X62621304Y-72388334D01*
X62615574Y-72424160D01*
X62614456Y-72466200D01*
X62615090Y-72542400D01*
X61460651Y-72542400D01*
X61551815Y-72448669D01*
X61598612Y-72398775D01*
X61648899Y-72342295D01*
X61694944Y-72288026D01*
X61715369Y-72262673D01*
X61745807Y-72223128D01*
X61785862Y-72169916D01*
X61834361Y-72104667D01*
X61890135Y-72029011D01*
X61952011Y-71944577D01*
X62018819Y-71852994D01*
X62089387Y-71755892D01*
X62162545Y-71654901D01*
X62237121Y-71551650D01*
X62311944Y-71447768D01*
X62385843Y-71344885D01*
X62457646Y-71244631D01*
X62526184Y-71148636D01*
X62590284Y-71058527D01*
X62648775Y-70975936D01*
X62700486Y-70902492D01*
X62744247Y-70839824D01*
X62778885Y-70789561D01*
X62803230Y-70753334D01*
X62816111Y-70732771D01*
X62817869Y-70728668D01*
X62809910Y-70717342D01*
X62789115Y-70690162D01*
X62756847Y-70648829D01*
X62714470Y-70595044D01*
X62663347Y-70530506D01*
X62604841Y-70456918D01*
X62540314Y-70375978D01*
X62471131Y-70289388D01*
X62398653Y-70198848D01*
X62324246Y-70106060D01*
X62264517Y-70031702D01*
X61253511Y-70031702D01*
X61247602Y-70044659D01*
X61233272Y-70066908D01*
X61232225Y-70068391D01*
X61213438Y-70098544D01*
X61193791Y-70135375D01*
X61189892Y-70143511D01*
X61186356Y-70151940D01*
X61183230Y-70162059D01*
X61180486Y-70175260D01*
X61178092Y-70192938D01*
X61176019Y-70216484D01*
X61174235Y-70247293D01*
X61172712Y-70286757D01*
X61171419Y-70336269D01*
X61170326Y-70397223D01*
X61169403Y-70471011D01*
X61168619Y-70559028D01*
X61167945Y-70662665D01*
X61167350Y-70783316D01*
X61166805Y-70922374D01*
X61166279Y-71081232D01*
X61165745Y-71260089D01*
X61165206Y-71445207D01*
X61164772Y-71609145D01*
X61164509Y-71753303D01*
X61164484Y-71879079D01*
X61164765Y-71987871D01*
X61165419Y-72081077D01*
X61166514Y-72160097D01*
X61168118Y-72226328D01*
X61170297Y-72281170D01*
X61173119Y-72326021D01*
X61176651Y-72362278D01*
X61180961Y-72391341D01*
X61186117Y-72414609D01*
X61192185Y-72433479D01*
X61199233Y-72449351D01*
X61207329Y-72463622D01*
X61216540Y-72477691D01*
X61225040Y-72490158D01*
X61242176Y-72516452D01*
X61252322Y-72534037D01*
X61253511Y-72537257D01*
X61242604Y-72538334D01*
X61211411Y-72539335D01*
X61162223Y-72540235D01*
X61097333Y-72541010D01*
X61019030Y-72541637D01*
X60929607Y-72542091D01*
X60831356Y-72542349D01*
X60762445Y-72542400D01*
X60657452Y-72542180D01*
X60560610Y-72541548D01*
X60474107Y-72540549D01*
X60400132Y-72539227D01*
X60340874Y-72537626D01*
X60298520Y-72535791D01*
X60275260Y-72533765D01*
X60271378Y-72532493D01*
X60279076Y-72517591D01*
X60287074Y-72509560D01*
X60300246Y-72492434D01*
X60317485Y-72462183D01*
X60329407Y-72437622D01*
X60356045Y-72378711D01*
X60359120Y-71201845D01*
X60362195Y-70024978D01*
X60807853Y-70024978D01*
X60905670Y-70025142D01*
X60996064Y-70025611D01*
X61076630Y-70026347D01*
X61144962Y-70027316D01*
X61198656Y-70028480D01*
X61235305Y-70029803D01*
X61252504Y-70031249D01*
X61253511Y-70031702D01*
X62264517Y-70031702D01*
X62249270Y-70012722D01*
X62175090Y-69920537D01*
X62103069Y-69831204D01*
X62034569Y-69746424D01*
X61970955Y-69667898D01*
X61913588Y-69597326D01*
X61863833Y-69536409D01*
X61823052Y-69486847D01*
X61805888Y-69466178D01*
X61719596Y-69365516D01*
X61642997Y-69282259D01*
X61574183Y-69214438D01*
X61511248Y-69160089D01*
X61501867Y-69152722D01*
X61462356Y-69122117D01*
X62594116Y-69121867D01*
X62588827Y-69169844D01*
X62592130Y-69227188D01*
X62613661Y-69295463D01*
X62653635Y-69375212D01*
X62698943Y-69447495D01*
X62715161Y-69470140D01*
X62743214Y-69507696D01*
X62781430Y-69558021D01*
X62828137Y-69618973D01*
X62881661Y-69688411D01*
X62940331Y-69764194D01*
X63002475Y-69844180D01*
X63066421Y-69926228D01*
X63130495Y-70008196D01*
X63193027Y-70087943D01*
X63252343Y-70163327D01*
X63306771Y-70232207D01*
X63354639Y-70292442D01*
X63394275Y-70341889D01*
X63424006Y-70378408D01*
X63442161Y-70399858D01*
X63445220Y-70403156D01*
X63448079Y-70395149D01*
X63450293Y-70364855D01*
X63451857Y-70312556D01*
X63452767Y-70238531D01*
X63453020Y-70143063D01*
X63452613Y-70026434D01*
X63451704Y-69906445D01*
X63450382Y-69774333D01*
X63448857Y-69662594D01*
X63446881Y-69569025D01*
X63444206Y-69491419D01*
X63440582Y-69427574D01*
X63435761Y-69375283D01*
X63429494Y-69332344D01*
X63421532Y-69296551D01*
X63411627Y-69265700D01*
X63399531Y-69237586D01*
X63384993Y-69210005D01*
X63370311Y-69184966D01*
X63332314Y-69121867D01*
X64392197Y-69121867D01*
X64695034Y-69121867D01*
X64695001Y-69115617D01*
X64694195Y-69013544D01*
X64693170Y-68924633D01*
X64691900Y-68847941D01*
X64690360Y-68782527D01*
X64688524Y-68727449D01*
X64686367Y-68681765D01*
X64683863Y-68644534D01*
X64680987Y-68614813D01*
X64677713Y-68591662D01*
X64674015Y-68574139D01*
X64669869Y-68561301D01*
X64665247Y-68552208D01*
X64660126Y-68545918D01*
X64654478Y-68541488D01*
X64648279Y-68537978D01*
X64641504Y-68534445D01*
X64635508Y-68530876D01*
X64630275Y-68528300D01*
X64622099Y-68525972D01*
X64609886Y-68523878D01*
X64592541Y-68522007D01*
X64568969Y-68520347D01*
X64538077Y-68518884D01*
X64498768Y-68517608D01*
X64449950Y-68516504D01*
X64390527Y-68515561D01*
X64319404Y-68514767D01*
X64235488Y-68514109D01*
X64137683Y-68513575D01*
X64024894Y-68513153D01*
X63896029Y-68512829D01*
X63749991Y-68512592D01*
X63585686Y-68512430D01*
X63402020Y-68512330D01*
X63197897Y-68512280D01*
X62986753Y-68512267D01*
X61366400Y-68512267D01*
X61366400Y-68609054D01*
G37*
X61366400Y-68609054D02*
X61355535Y-68722993D01*
X61323918Y-68830616D01*
X61273015Y-68929615D01*
X61204293Y-69017684D01*
X61119219Y-69092516D01*
X61022232Y-69150384D01*
X60915964Y-69190005D01*
X60808950Y-69208573D01*
X60703300Y-69207434D01*
X60601125Y-69187930D01*
X60504534Y-69151406D01*
X60415638Y-69099205D01*
X60336546Y-69032673D01*
X60269369Y-68953152D01*
X60216217Y-68861987D01*
X60179199Y-68760523D01*
X60160427Y-68650102D01*
X60158489Y-68600206D01*
X60158489Y-68512267D01*
X60106560Y-68512267D01*
X60070253Y-68515111D01*
X60043355Y-68526911D01*
X60016249Y-68550649D01*
X59977867Y-68589031D01*
X59977867Y-70780602D01*
X59977876Y-71042739D01*
X59977908Y-71283241D01*
X59977972Y-71503048D01*
X59978076Y-71703101D01*
X59978227Y-71884344D01*
X59978434Y-72047716D01*
X59978706Y-72194160D01*
X59979050Y-72324617D01*
X59979474Y-72440029D01*
X59979987Y-72541338D01*
X59980597Y-72629484D01*
X59981312Y-72705410D01*
X59982140Y-72770057D01*
X59983089Y-72824367D01*
X59984167Y-72869280D01*
X59985383Y-72905740D01*
X59986745Y-72934687D01*
X59988261Y-72957063D01*
X59989938Y-72973809D01*
X59991786Y-72985868D01*
X59993813Y-72994180D01*
X59996025Y-72999687D01*
X59997108Y-73001537D01*
X60001271Y-73008549D01*
X60004805Y-73014996D01*
X60008635Y-73020900D01*
X60013682Y-73026286D01*
X60020871Y-73031178D01*
X60031123Y-73035598D01*
X60045364Y-73039572D01*
X60064514Y-73043121D01*
X60089499Y-73046270D01*
X60121240Y-73049042D01*
X60160662Y-73051461D01*
X60208686Y-73053551D01*
X60266237Y-73055335D01*
X60334237Y-73056837D01*
X60413610Y-73058080D01*
X60505279Y-73059089D01*
X60610166Y-73059885D01*
X60729196Y-73060494D01*
X60863290Y-73060939D01*
X61013373Y-73061243D01*
X61180367Y-73061430D01*
X61365196Y-73061524D01*
X61568783Y-73061548D01*
X61792050Y-73061525D01*
X62035922Y-73061480D01*
X62301321Y-73061437D01*
X62339704Y-73061432D01*
X62606682Y-73061389D01*
X62852002Y-73061318D01*
X63076583Y-73061213D01*
X63281345Y-73061066D01*
X63467206Y-73060869D01*
X63635088Y-73060616D01*
X63785908Y-73060300D01*
X63920587Y-73059913D01*
X64040044Y-73059447D01*
X64145199Y-73058897D01*
X64236971Y-73058253D01*
X64316279Y-73057511D01*
X64384043Y-73056661D01*
X64441182Y-73055697D01*
X64488617Y-73054611D01*
X64527266Y-73053397D01*
X64558049Y-73052047D01*
X64581885Y-73050555D01*
X64599694Y-73048911D01*
X64612395Y-73047111D01*
X64620908Y-73045145D01*
X64625266Y-73043477D01*
X64633728Y-73039906D01*
X64641497Y-73037270D01*
X64648602Y-73034634D01*
X64655073Y-73031062D01*
X64660939Y-73025621D01*
X64666229Y-73017375D01*
X64670974Y-73005390D01*
X64675202Y-72988731D01*
X64678943Y-72966463D01*
X64682227Y-72937652D01*
X64685083Y-72901363D01*
X64687540Y-72856661D01*
X64689629Y-72802611D01*
X64691378Y-72738279D01*
X64692817Y-72662730D01*
X64693976Y-72575030D01*
X64694883Y-72474243D01*
X64695569Y-72359434D01*
X64696063Y-72229670D01*
X64696395Y-72084015D01*
X64696593Y-71921535D01*
X64696687Y-71741295D01*
X64696708Y-71542360D01*
X64696685Y-71323796D01*
X64696646Y-71084668D01*
X64696622Y-70824040D01*
X64696622Y-70781889D01*
X64696636Y-70518992D01*
X64696661Y-70277732D01*
X64696671Y-70057165D01*
X64696642Y-69856352D01*
X64696548Y-69674349D01*
X64696362Y-69510216D01*
X64696059Y-69363011D01*
X64695614Y-69231792D01*
X64695034Y-69121867D01*
X64392197Y-69121867D01*
X64352407Y-69179711D01*
X64341236Y-69195479D01*
X64331166Y-69209441D01*
X64322138Y-69222784D01*
X64314097Y-69236693D01*
X64306986Y-69252356D01*
X64300747Y-69270958D01*
X64295325Y-69293686D01*
X64290662Y-69321727D01*
X64286701Y-69356267D01*
X64283385Y-69398492D01*
X64280659Y-69449589D01*
X64278464Y-69510744D01*
X64276745Y-69583144D01*
X64275444Y-69667975D01*
X64274505Y-69766422D01*
X64273870Y-69879674D01*
X64273484Y-70008916D01*
X64273288Y-70155334D01*
X64273227Y-70320116D01*
X64273243Y-70504447D01*
X64273280Y-70709513D01*
X64273289Y-70832133D01*
X64273265Y-71049082D01*
X64273231Y-71244642D01*
X64273243Y-71419999D01*
X64273358Y-71576341D01*
X64273630Y-71714857D01*
X64274118Y-71836734D01*
X64274876Y-71943160D01*
X64275962Y-72035322D01*
X64277431Y-72114409D01*
X64279340Y-72181608D01*
X64281744Y-72238107D01*
X64284701Y-72285093D01*
X64288266Y-72323755D01*
X64292495Y-72355280D01*
X64297446Y-72380855D01*
X64303173Y-72401670D01*
X64309733Y-72418911D01*
X64317183Y-72433765D01*
X64325579Y-72447422D01*
X64334976Y-72461069D01*
X64345432Y-72475893D01*
X64351523Y-72484783D01*
X64390296Y-72542400D01*
X63858732Y-72542400D01*
X63735483Y-72542365D01*
X63632987Y-72542215D01*
X63549420Y-72541878D01*
X63482956Y-72541286D01*
X63431771Y-72540367D01*
X63394041Y-72539051D01*
X63367940Y-72537269D01*
X63351644Y-72534951D01*
X63343328Y-72532026D01*
X63341168Y-72528424D01*
X63343339Y-72524075D01*
X63344535Y-72522645D01*
X63369685Y-72485573D01*
X63395583Y-72432772D01*
X63419192Y-72370770D01*
X63427461Y-72344357D01*
X63432078Y-72326416D01*
X63435979Y-72305355D01*
X63439248Y-72279089D01*
X63441966Y-72245532D01*
X63444215Y-72202599D01*
X63446077Y-72148204D01*
X63447636Y-72080262D01*
X63448972Y-71996688D01*
X63450169Y-71895395D01*
X63451308Y-71774300D01*
X63451685Y-71729600D01*
X63452702Y-71604449D01*
X63453460Y-71500082D01*
X63453903Y-71414707D01*
X63453970Y-71346533D01*
X63453605Y-71293765D01*
X63452748Y-71254614D01*
X63451341Y-71227285D01*
X63449325Y-71209986D01*
X63446643Y-71200926D01*
X63443236Y-71198312D01*
X63439044Y-71200351D01*
X63434571Y-71204667D01*
X63424216Y-71217602D01*
X63402158Y-71246676D01*
X63369957Y-71289759D01*
X63329174Y-71344718D01*
X63281370Y-71409423D01*
X63228105Y-71481742D01*
X63170940Y-71559544D01*
X63111437Y-71640698D01*
X63051155Y-71723072D01*
X62991655Y-71804536D01*
X62934498Y-71882957D01*
X62881245Y-71956204D01*
X62833457Y-72022147D01*
X62792693Y-72078654D01*
X62760516Y-72123593D01*
X62738485Y-72154834D01*
X62733917Y-72161466D01*
X62710996Y-72198369D01*
X62684188Y-72246359D01*
X62658789Y-72295897D01*
X62655568Y-72302577D01*
X62633890Y-72350772D01*
X62621304Y-72388334D01*
X62615574Y-72424160D01*
X62614456Y-72466200D01*
X62615090Y-72542400D01*
X61460651Y-72542400D01*
X61551815Y-72448669D01*
X61598612Y-72398775D01*
X61648899Y-72342295D01*
X61694944Y-72288026D01*
X61715369Y-72262673D01*
X61745807Y-72223128D01*
X61785862Y-72169916D01*
X61834361Y-72104667D01*
X61890135Y-72029011D01*
X61952011Y-71944577D01*
X62018819Y-71852994D01*
X62089387Y-71755892D01*
X62162545Y-71654901D01*
X62237121Y-71551650D01*
X62311944Y-71447768D01*
X62385843Y-71344885D01*
X62457646Y-71244631D01*
X62526184Y-71148636D01*
X62590284Y-71058527D01*
X62648775Y-70975936D01*
X62700486Y-70902492D01*
X62744247Y-70839824D01*
X62778885Y-70789561D01*
X62803230Y-70753334D01*
X62816111Y-70732771D01*
X62817869Y-70728668D01*
X62809910Y-70717342D01*
X62789115Y-70690162D01*
X62756847Y-70648829D01*
X62714470Y-70595044D01*
X62663347Y-70530506D01*
X62604841Y-70456918D01*
X62540314Y-70375978D01*
X62471131Y-70289388D01*
X62398653Y-70198848D01*
X62324246Y-70106060D01*
X62264517Y-70031702D01*
X61253511Y-70031702D01*
X61247602Y-70044659D01*
X61233272Y-70066908D01*
X61232225Y-70068391D01*
X61213438Y-70098544D01*
X61193791Y-70135375D01*
X61189892Y-70143511D01*
X61186356Y-70151940D01*
X61183230Y-70162059D01*
X61180486Y-70175260D01*
X61178092Y-70192938D01*
X61176019Y-70216484D01*
X61174235Y-70247293D01*
X61172712Y-70286757D01*
X61171419Y-70336269D01*
X61170326Y-70397223D01*
X61169403Y-70471011D01*
X61168619Y-70559028D01*
X61167945Y-70662665D01*
X61167350Y-70783316D01*
X61166805Y-70922374D01*
X61166279Y-71081232D01*
X61165745Y-71260089D01*
X61165206Y-71445207D01*
X61164772Y-71609145D01*
X61164509Y-71753303D01*
X61164484Y-71879079D01*
X61164765Y-71987871D01*
X61165419Y-72081077D01*
X61166514Y-72160097D01*
X61168118Y-72226328D01*
X61170297Y-72281170D01*
X61173119Y-72326021D01*
X61176651Y-72362278D01*
X61180961Y-72391341D01*
X61186117Y-72414609D01*
X61192185Y-72433479D01*
X61199233Y-72449351D01*
X61207329Y-72463622D01*
X61216540Y-72477691D01*
X61225040Y-72490158D01*
X61242176Y-72516452D01*
X61252322Y-72534037D01*
X61253511Y-72537257D01*
X61242604Y-72538334D01*
X61211411Y-72539335D01*
X61162223Y-72540235D01*
X61097333Y-72541010D01*
X61019030Y-72541637D01*
X60929607Y-72542091D01*
X60831356Y-72542349D01*
X60762445Y-72542400D01*
X60657452Y-72542180D01*
X60560610Y-72541548D01*
X60474107Y-72540549D01*
X60400132Y-72539227D01*
X60340874Y-72537626D01*
X60298520Y-72535791D01*
X60275260Y-72533765D01*
X60271378Y-72532493D01*
X60279076Y-72517591D01*
X60287074Y-72509560D01*
X60300246Y-72492434D01*
X60317485Y-72462183D01*
X60329407Y-72437622D01*
X60356045Y-72378711D01*
X60359120Y-71201845D01*
X60362195Y-70024978D01*
X60807853Y-70024978D01*
X60905670Y-70025142D01*
X60996064Y-70025611D01*
X61076630Y-70026347D01*
X61144962Y-70027316D01*
X61198656Y-70028480D01*
X61235305Y-70029803D01*
X61252504Y-70031249D01*
X61253511Y-70031702D01*
X62264517Y-70031702D01*
X62249270Y-70012722D01*
X62175090Y-69920537D01*
X62103069Y-69831204D01*
X62034569Y-69746424D01*
X61970955Y-69667898D01*
X61913588Y-69597326D01*
X61863833Y-69536409D01*
X61823052Y-69486847D01*
X61805888Y-69466178D01*
X61719596Y-69365516D01*
X61642997Y-69282259D01*
X61574183Y-69214438D01*
X61511248Y-69160089D01*
X61501867Y-69152722D01*
X61462356Y-69122117D01*
X62594116Y-69121867D01*
X62588827Y-69169844D01*
X62592130Y-69227188D01*
X62613661Y-69295463D01*
X62653635Y-69375212D01*
X62698943Y-69447495D01*
X62715161Y-69470140D01*
X62743214Y-69507696D01*
X62781430Y-69558021D01*
X62828137Y-69618973D01*
X62881661Y-69688411D01*
X62940331Y-69764194D01*
X63002475Y-69844180D01*
X63066421Y-69926228D01*
X63130495Y-70008196D01*
X63193027Y-70087943D01*
X63252343Y-70163327D01*
X63306771Y-70232207D01*
X63354639Y-70292442D01*
X63394275Y-70341889D01*
X63424006Y-70378408D01*
X63442161Y-70399858D01*
X63445220Y-70403156D01*
X63448079Y-70395149D01*
X63450293Y-70364855D01*
X63451857Y-70312556D01*
X63452767Y-70238531D01*
X63453020Y-70143063D01*
X63452613Y-70026434D01*
X63451704Y-69906445D01*
X63450382Y-69774333D01*
X63448857Y-69662594D01*
X63446881Y-69569025D01*
X63444206Y-69491419D01*
X63440582Y-69427574D01*
X63435761Y-69375283D01*
X63429494Y-69332344D01*
X63421532Y-69296551D01*
X63411627Y-69265700D01*
X63399531Y-69237586D01*
X63384993Y-69210005D01*
X63370311Y-69184966D01*
X63332314Y-69121867D01*
X64392197Y-69121867D01*
X64695034Y-69121867D01*
X64695001Y-69115617D01*
X64694195Y-69013544D01*
X64693170Y-68924633D01*
X64691900Y-68847941D01*
X64690360Y-68782527D01*
X64688524Y-68727449D01*
X64686367Y-68681765D01*
X64683863Y-68644534D01*
X64680987Y-68614813D01*
X64677713Y-68591662D01*
X64674015Y-68574139D01*
X64669869Y-68561301D01*
X64665247Y-68552208D01*
X64660126Y-68545918D01*
X64654478Y-68541488D01*
X64648279Y-68537978D01*
X64641504Y-68534445D01*
X64635508Y-68530876D01*
X64630275Y-68528300D01*
X64622099Y-68525972D01*
X64609886Y-68523878D01*
X64592541Y-68522007D01*
X64568969Y-68520347D01*
X64538077Y-68518884D01*
X64498768Y-68517608D01*
X64449950Y-68516504D01*
X64390527Y-68515561D01*
X64319404Y-68514767D01*
X64235488Y-68514109D01*
X64137683Y-68513575D01*
X64024894Y-68513153D01*
X63896029Y-68512829D01*
X63749991Y-68512592D01*
X63585686Y-68512430D01*
X63402020Y-68512330D01*
X63197897Y-68512280D01*
X62986753Y-68512267D01*
X61366400Y-68512267D01*
X61366400Y-68609054D01*
G36*
X58091571Y-69069071D02*
G01*
X57931430Y-69090245D01*
X57767490Y-69130385D01*
X57597687Y-69189889D01*
X57419957Y-69269154D01*
X57408690Y-69274699D01*
X57350995Y-69302725D01*
X57299448Y-69326802D01*
X57257809Y-69345249D01*
X57229838Y-69356386D01*
X57220267Y-69358933D01*
X57201050Y-69363941D01*
X57196439Y-69368147D01*
X57201542Y-69378580D01*
X57217582Y-69404868D01*
X57242712Y-69444257D01*
X57275086Y-69493991D01*
X57312857Y-69551315D01*
X57354178Y-69613476D01*
X57397202Y-69677718D01*
X57440083Y-69741285D01*
X57480974Y-69801425D01*
X57518029Y-69855380D01*
X57549400Y-69900397D01*
X57573241Y-69933721D01*
X57587706Y-69952597D01*
X57589691Y-69954787D01*
X57599809Y-69950138D01*
X57622150Y-69932962D01*
X57652720Y-69906440D01*
X57668464Y-69891964D01*
X57764953Y-69816682D01*
X57871664Y-69761241D01*
X57987168Y-69726141D01*
X58110038Y-69711880D01*
X58179439Y-69713051D01*
X58300577Y-69730212D01*
X58409795Y-69766094D01*
X58507418Y-69820959D01*
X58593772Y-69895070D01*
X58669185Y-69988688D01*
X58733982Y-70102076D01*
X58771399Y-70188667D01*
X58815252Y-70324366D01*
X58847572Y-70471850D01*
X58868443Y-70627314D01*
X58877949Y-70786956D01*
X58876173Y-70946973D01*
X58863197Y-71103561D01*
X58839106Y-71252918D01*
X58803982Y-71391240D01*
X58757908Y-71514724D01*
X58741627Y-71548978D01*
X58673380Y-71663064D01*
X58592921Y-71759557D01*
X58501430Y-71837670D01*
X58400089Y-71896617D01*
X58290080Y-71935612D01*
X58172585Y-71953868D01*
X58131117Y-71955211D01*
X58009559Y-71944290D01*
X57889122Y-71911474D01*
X57771334Y-71857439D01*
X57657723Y-71782865D01*
X57566315Y-71704539D01*
X57519785Y-71660008D01*
X57338517Y-71957271D01*
X57293420Y-72031433D01*
X57252181Y-72099646D01*
X57216265Y-72159459D01*
X57187134Y-72208420D01*
X57166250Y-72244079D01*
X57155076Y-72263984D01*
X57153625Y-72267079D01*
X57161854Y-72276718D01*
X57187433Y-72293999D01*
X57227127Y-72317283D01*
X57277703Y-72344934D01*
X57335926Y-72375315D01*
X57398563Y-72406790D01*
X57462379Y-72437722D01*
X57524140Y-72466473D01*
X57580612Y-72491408D01*
X57628562Y-72510889D01*
X57652014Y-72519318D01*
X57785779Y-72557133D01*
X57923673Y-72582136D01*
X58071378Y-72595140D01*
X58198167Y-72597468D01*
X58266122Y-72596373D01*
X58331723Y-72594275D01*
X58389153Y-72591434D01*
X58432597Y-72588106D01*
X58446702Y-72586422D01*
X58585716Y-72557587D01*
X58727243Y-72512468D01*
X58864725Y-72453750D01*
X58991606Y-72384120D01*
X59069111Y-72331441D01*
X59196519Y-72223239D01*
X59314822Y-72096671D01*
X59421828Y-71954866D01*
X59515348Y-71800951D01*
X59593190Y-71638053D01*
X59637044Y-71520756D01*
X59687292Y-71337128D01*
X59720791Y-71142581D01*
X59737551Y-70941325D01*
X59737584Y-70737568D01*
X59720899Y-70535521D01*
X59687507Y-70339392D01*
X59637420Y-70153391D01*
X59633603Y-70141803D01*
X59570719Y-69979750D01*
X59493972Y-69831832D01*
X59400758Y-69693865D01*
X59288473Y-69561661D01*
X59244608Y-69516399D01*
X59108466Y-69392457D01*
X58968509Y-69289915D01*
X58822589Y-69207656D01*
X58668558Y-69144564D01*
X58504268Y-69099523D01*
X58408711Y-69082033D01*
X58249977Y-69066466D01*
X58091571Y-69069071D01*
G37*
X58091571Y-69069071D02*
X57931430Y-69090245D01*
X57767490Y-69130385D01*
X57597687Y-69189889D01*
X57419957Y-69269154D01*
X57408690Y-69274699D01*
X57350995Y-69302725D01*
X57299448Y-69326802D01*
X57257809Y-69345249D01*
X57229838Y-69356386D01*
X57220267Y-69358933D01*
X57201050Y-69363941D01*
X57196439Y-69368147D01*
X57201542Y-69378580D01*
X57217582Y-69404868D01*
X57242712Y-69444257D01*
X57275086Y-69493991D01*
X57312857Y-69551315D01*
X57354178Y-69613476D01*
X57397202Y-69677718D01*
X57440083Y-69741285D01*
X57480974Y-69801425D01*
X57518029Y-69855380D01*
X57549400Y-69900397D01*
X57573241Y-69933721D01*
X57587706Y-69952597D01*
X57589691Y-69954787D01*
X57599809Y-69950138D01*
X57622150Y-69932962D01*
X57652720Y-69906440D01*
X57668464Y-69891964D01*
X57764953Y-69816682D01*
X57871664Y-69761241D01*
X57987168Y-69726141D01*
X58110038Y-69711880D01*
X58179439Y-69713051D01*
X58300577Y-69730212D01*
X58409795Y-69766094D01*
X58507418Y-69820959D01*
X58593772Y-69895070D01*
X58669185Y-69988688D01*
X58733982Y-70102076D01*
X58771399Y-70188667D01*
X58815252Y-70324366D01*
X58847572Y-70471850D01*
X58868443Y-70627314D01*
X58877949Y-70786956D01*
X58876173Y-70946973D01*
X58863197Y-71103561D01*
X58839106Y-71252918D01*
X58803982Y-71391240D01*
X58757908Y-71514724D01*
X58741627Y-71548978D01*
X58673380Y-71663064D01*
X58592921Y-71759557D01*
X58501430Y-71837670D01*
X58400089Y-71896617D01*
X58290080Y-71935612D01*
X58172585Y-71953868D01*
X58131117Y-71955211D01*
X58009559Y-71944290D01*
X57889122Y-71911474D01*
X57771334Y-71857439D01*
X57657723Y-71782865D01*
X57566315Y-71704539D01*
X57519785Y-71660008D01*
X57338517Y-71957271D01*
X57293420Y-72031433D01*
X57252181Y-72099646D01*
X57216265Y-72159459D01*
X57187134Y-72208420D01*
X57166250Y-72244079D01*
X57155076Y-72263984D01*
X57153625Y-72267079D01*
X57161854Y-72276718D01*
X57187433Y-72293999D01*
X57227127Y-72317283D01*
X57277703Y-72344934D01*
X57335926Y-72375315D01*
X57398563Y-72406790D01*
X57462379Y-72437722D01*
X57524140Y-72466473D01*
X57580612Y-72491408D01*
X57628562Y-72510889D01*
X57652014Y-72519318D01*
X57785779Y-72557133D01*
X57923673Y-72582136D01*
X58071378Y-72595140D01*
X58198167Y-72597468D01*
X58266122Y-72596373D01*
X58331723Y-72594275D01*
X58389153Y-72591434D01*
X58432597Y-72588106D01*
X58446702Y-72586422D01*
X58585716Y-72557587D01*
X58727243Y-72512468D01*
X58864725Y-72453750D01*
X58991606Y-72384120D01*
X59069111Y-72331441D01*
X59196519Y-72223239D01*
X59314822Y-72096671D01*
X59421828Y-71954866D01*
X59515348Y-71800951D01*
X59593190Y-71638053D01*
X59637044Y-71520756D01*
X59687292Y-71337128D01*
X59720791Y-71142581D01*
X59737551Y-70941325D01*
X59737584Y-70737568D01*
X59720899Y-70535521D01*
X59687507Y-70339392D01*
X59637420Y-70153391D01*
X59633603Y-70141803D01*
X59570719Y-69979750D01*
X59493972Y-69831832D01*
X59400758Y-69693865D01*
X59288473Y-69561661D01*
X59244608Y-69516399D01*
X59108466Y-69392457D01*
X58968509Y-69289915D01*
X58822589Y-69207656D01*
X58668558Y-69144564D01*
X58504268Y-69099523D01*
X58408711Y-69082033D01*
X58249977Y-69066466D01*
X58091571Y-69069071D01*
G36*
X55746426Y-69986552D02*
G01*
X55594508Y-70006567D01*
X55459244Y-70040202D01*
X55339761Y-70087725D01*
X55235185Y-70149405D01*
X55157576Y-70212965D01*
X55088735Y-70287099D01*
X55034994Y-70366871D01*
X54992090Y-70459091D01*
X54976616Y-70502161D01*
X54963756Y-70541142D01*
X54952554Y-70577289D01*
X54942880Y-70612434D01*
X54934604Y-70648410D01*
X54927597Y-70687050D01*
X54921728Y-70730185D01*
X54916869Y-70779649D01*
X54912890Y-70837273D01*
X54909660Y-70904891D01*
X54907051Y-70984334D01*
X54904933Y-71077436D01*
X54903176Y-71186027D01*
X54901651Y-71311942D01*
X54900228Y-71457012D01*
X54898975Y-71599778D01*
X54897649Y-71755968D01*
X54896444Y-71891239D01*
X54895234Y-72007246D01*
X54893894Y-72105645D01*
X54892300Y-72188093D01*
X54890325Y-72256246D01*
X54887844Y-72311760D01*
X54884731Y-72356292D01*
X54880862Y-72391498D01*
X54876111Y-72419034D01*
X54870352Y-72440556D01*
X54863461Y-72457722D01*
X54855311Y-72472186D01*
X54845777Y-72485606D01*
X54834734Y-72499638D01*
X54830434Y-72505071D01*
X54814614Y-72527910D01*
X54807578Y-72543463D01*
X54807556Y-72543922D01*
X54818433Y-72546121D01*
X54849418Y-72548147D01*
X54898043Y-72549942D01*
X54961837Y-72551451D01*
X55038331Y-72552616D01*
X55125056Y-72553380D01*
X55219543Y-72553686D01*
X55230450Y-72553689D01*
X55653343Y-72553689D01*
X55656605Y-72457622D01*
X55659867Y-72361556D01*
X55721956Y-72412543D01*
X55819286Y-72480057D01*
X55929187Y-72534749D01*
X56015651Y-72564978D01*
X56084722Y-72579666D01*
X56168075Y-72589659D01*
X56257841Y-72594646D01*
X56346155Y-72594313D01*
X56425149Y-72588351D01*
X56461378Y-72582638D01*
X56601397Y-72544776D01*
X56727822Y-72489932D01*
X56839740Y-72418924D01*
X56936238Y-72332568D01*
X57016400Y-72231679D01*
X57079313Y-72117076D01*
X57123688Y-71990984D01*
X57136022Y-71934401D01*
X57143632Y-71872202D01*
X57147261Y-71797363D01*
X57147755Y-71763467D01*
X57147690Y-71760282D01*
X56387752Y-71760282D01*
X56378459Y-71835333D01*
X56350272Y-71899160D01*
X56301803Y-71954798D01*
X56296746Y-71959211D01*
X56248452Y-71994037D01*
X56196743Y-72016620D01*
X56136011Y-72028540D01*
X56060648Y-72031383D01*
X56042541Y-72030978D01*
X55988722Y-72028325D01*
X55948692Y-72022909D01*
X55913676Y-72012745D01*
X55874897Y-71995850D01*
X55864255Y-71990672D01*
X55803604Y-71954844D01*
X55756785Y-71912212D01*
X55744048Y-71896973D01*
X55699378Y-71840462D01*
X55699378Y-71644586D01*
X55699914Y-71565939D01*
X55701604Y-71507988D01*
X55704572Y-71468875D01*
X55708943Y-71446741D01*
X55713028Y-71440274D01*
X55728953Y-71437111D01*
X55762736Y-71434488D01*
X55809660Y-71432655D01*
X55865007Y-71431857D01*
X55873894Y-71431842D01*
X55994670Y-71437096D01*
X56097340Y-71453263D01*
X56183894Y-71480961D01*
X56256319Y-71520808D01*
X56311249Y-71567758D01*
X56355796Y-71625645D01*
X56380520Y-71688693D01*
X56387752Y-71760282D01*
X57147690Y-71760282D01*
X57145822Y-71669712D01*
X57137478Y-71590812D01*
X57121232Y-71519590D01*
X57095595Y-71448864D01*
X57071599Y-71396493D01*
X57012980Y-71301196D01*
X56934883Y-71213170D01*
X56839685Y-71134017D01*
X56729762Y-71065340D01*
X56607490Y-71008741D01*
X56475245Y-70965821D01*
X56410578Y-70950882D01*
X56274396Y-70928777D01*
X56125951Y-70914194D01*
X55974495Y-70907813D01*
X55847936Y-70909445D01*
X55686050Y-70916224D01*
X55693470Y-70857245D01*
X55712762Y-70758092D01*
X55743896Y-70677372D01*
X55787731Y-70614466D01*
X55845129Y-70568756D01*
X55916952Y-70539622D01*
X56004059Y-70526447D01*
X56107314Y-70528611D01*
X56145289Y-70532612D01*
X56286480Y-70557780D01*
X56423293Y-70598814D01*
X56517822Y-70636815D01*
X56562982Y-70656190D01*
X56601415Y-70671760D01*
X56627766Y-70681405D01*
X56635454Y-70683452D01*
X56645198Y-70674374D01*
X56661917Y-70645405D01*
X56685768Y-70596217D01*
X56716907Y-70526484D01*
X56755493Y-70435879D01*
X56762090Y-70420089D01*
X56792147Y-70347772D01*
X56819126Y-70282425D01*
X56841864Y-70226906D01*
X56859194Y-70184072D01*
X56869952Y-70156781D01*
X56873059Y-70147942D01*
X56863060Y-70143187D01*
X56836783Y-70137910D01*
X56808511Y-70134231D01*
X56778354Y-70129474D01*
X56730567Y-70120028D01*
X56669388Y-70106820D01*
X56599054Y-70090776D01*
X56523806Y-70072820D01*
X56495245Y-70065797D01*
X56390184Y-70040209D01*
X56302520Y-70020147D01*
X56227932Y-70004969D01*
X56162097Y-69994035D01*
X56100693Y-69986704D01*
X56039398Y-69982335D01*
X55973890Y-69980287D01*
X55915872Y-69979889D01*
X55746426Y-69986552D01*
G37*
X55746426Y-69986552D02*
X55594508Y-70006567D01*
X55459244Y-70040202D01*
X55339761Y-70087725D01*
X55235185Y-70149405D01*
X55157576Y-70212965D01*
X55088735Y-70287099D01*
X55034994Y-70366871D01*
X54992090Y-70459091D01*
X54976616Y-70502161D01*
X54963756Y-70541142D01*
X54952554Y-70577289D01*
X54942880Y-70612434D01*
X54934604Y-70648410D01*
X54927597Y-70687050D01*
X54921728Y-70730185D01*
X54916869Y-70779649D01*
X54912890Y-70837273D01*
X54909660Y-70904891D01*
X54907051Y-70984334D01*
X54904933Y-71077436D01*
X54903176Y-71186027D01*
X54901651Y-71311942D01*
X54900228Y-71457012D01*
X54898975Y-71599778D01*
X54897649Y-71755968D01*
X54896444Y-71891239D01*
X54895234Y-72007246D01*
X54893894Y-72105645D01*
X54892300Y-72188093D01*
X54890325Y-72256246D01*
X54887844Y-72311760D01*
X54884731Y-72356292D01*
X54880862Y-72391498D01*
X54876111Y-72419034D01*
X54870352Y-72440556D01*
X54863461Y-72457722D01*
X54855311Y-72472186D01*
X54845777Y-72485606D01*
X54834734Y-72499638D01*
X54830434Y-72505071D01*
X54814614Y-72527910D01*
X54807578Y-72543463D01*
X54807556Y-72543922D01*
X54818433Y-72546121D01*
X54849418Y-72548147D01*
X54898043Y-72549942D01*
X54961837Y-72551451D01*
X55038331Y-72552616D01*
X55125056Y-72553380D01*
X55219543Y-72553686D01*
X55230450Y-72553689D01*
X55653343Y-72553689D01*
X55656605Y-72457622D01*
X55659867Y-72361556D01*
X55721956Y-72412543D01*
X55819286Y-72480057D01*
X55929187Y-72534749D01*
X56015651Y-72564978D01*
X56084722Y-72579666D01*
X56168075Y-72589659D01*
X56257841Y-72594646D01*
X56346155Y-72594313D01*
X56425149Y-72588351D01*
X56461378Y-72582638D01*
X56601397Y-72544776D01*
X56727822Y-72489932D01*
X56839740Y-72418924D01*
X56936238Y-72332568D01*
X57016400Y-72231679D01*
X57079313Y-72117076D01*
X57123688Y-71990984D01*
X57136022Y-71934401D01*
X57143632Y-71872202D01*
X57147261Y-71797363D01*
X57147755Y-71763467D01*
X57147690Y-71760282D01*
X56387752Y-71760282D01*
X56378459Y-71835333D01*
X56350272Y-71899160D01*
X56301803Y-71954798D01*
X56296746Y-71959211D01*
X56248452Y-71994037D01*
X56196743Y-72016620D01*
X56136011Y-72028540D01*
X56060648Y-72031383D01*
X56042541Y-72030978D01*
X55988722Y-72028325D01*
X55948692Y-72022909D01*
X55913676Y-72012745D01*
X55874897Y-71995850D01*
X55864255Y-71990672D01*
X55803604Y-71954844D01*
X55756785Y-71912212D01*
X55744048Y-71896973D01*
X55699378Y-71840462D01*
X55699378Y-71644586D01*
X55699914Y-71565939D01*
X55701604Y-71507988D01*
X55704572Y-71468875D01*
X55708943Y-71446741D01*
X55713028Y-71440274D01*
X55728953Y-71437111D01*
X55762736Y-71434488D01*
X55809660Y-71432655D01*
X55865007Y-71431857D01*
X55873894Y-71431842D01*
X55994670Y-71437096D01*
X56097340Y-71453263D01*
X56183894Y-71480961D01*
X56256319Y-71520808D01*
X56311249Y-71567758D01*
X56355796Y-71625645D01*
X56380520Y-71688693D01*
X56387752Y-71760282D01*
X57147690Y-71760282D01*
X57145822Y-71669712D01*
X57137478Y-71590812D01*
X57121232Y-71519590D01*
X57095595Y-71448864D01*
X57071599Y-71396493D01*
X57012980Y-71301196D01*
X56934883Y-71213170D01*
X56839685Y-71134017D01*
X56729762Y-71065340D01*
X56607490Y-71008741D01*
X56475245Y-70965821D01*
X56410578Y-70950882D01*
X56274396Y-70928777D01*
X56125951Y-70914194D01*
X55974495Y-70907813D01*
X55847936Y-70909445D01*
X55686050Y-70916224D01*
X55693470Y-70857245D01*
X55712762Y-70758092D01*
X55743896Y-70677372D01*
X55787731Y-70614466D01*
X55845129Y-70568756D01*
X55916952Y-70539622D01*
X56004059Y-70526447D01*
X56107314Y-70528611D01*
X56145289Y-70532612D01*
X56286480Y-70557780D01*
X56423293Y-70598814D01*
X56517822Y-70636815D01*
X56562982Y-70656190D01*
X56601415Y-70671760D01*
X56627766Y-70681405D01*
X56635454Y-70683452D01*
X56645198Y-70674374D01*
X56661917Y-70645405D01*
X56685768Y-70596217D01*
X56716907Y-70526484D01*
X56755493Y-70435879D01*
X56762090Y-70420089D01*
X56792147Y-70347772D01*
X56819126Y-70282425D01*
X56841864Y-70226906D01*
X56859194Y-70184072D01*
X56869952Y-70156781D01*
X56873059Y-70147942D01*
X56863060Y-70143187D01*
X56836783Y-70137910D01*
X56808511Y-70134231D01*
X56778354Y-70129474D01*
X56730567Y-70120028D01*
X56669388Y-70106820D01*
X56599054Y-70090776D01*
X56523806Y-70072820D01*
X56495245Y-70065797D01*
X56390184Y-70040209D01*
X56302520Y-70020147D01*
X56227932Y-70004969D01*
X56162097Y-69994035D01*
X56100693Y-69986704D01*
X56039398Y-69982335D01*
X55973890Y-69980287D01*
X55915872Y-69979889D01*
X55746426Y-69986552D01*
G36*
X52233493Y-70592245D02*
G01*
X52233474Y-70826662D01*
X52233448Y-71039603D01*
X52233375Y-71232168D01*
X52233218Y-71405459D01*
X52232936Y-71560576D01*
X52232491Y-71698620D01*
X52231844Y-71820692D01*
X52230955Y-71927894D01*
X52229787Y-72021326D01*
X52228299Y-72102090D01*
X52226454Y-72171286D01*
X52224211Y-72230015D01*
X52221531Y-72279379D01*
X52218377Y-72320478D01*
X52214708Y-72354413D01*
X52210487Y-72382286D01*
X52205673Y-72405198D01*
X52200227Y-72424249D01*
X52194112Y-72440540D01*
X52187288Y-72455173D01*
X52179715Y-72469249D01*
X52171355Y-72483868D01*
X52166161Y-72492974D01*
X52131896Y-72553689D01*
X52990045Y-72553689D01*
X52990045Y-72457733D01*
X52990776Y-72414370D01*
X52992728Y-72381205D01*
X52995537Y-72363424D01*
X52996779Y-72361778D01*
X53008201Y-72368662D01*
X53030916Y-72386505D01*
X53053615Y-72405879D01*
X53108200Y-72446614D01*
X53177679Y-72487617D01*
X53254730Y-72525123D01*
X53332035Y-72555364D01*
X53362887Y-72565012D01*
X53431384Y-72579578D01*
X53514236Y-72589539D01*
X53603629Y-72594583D01*
X53691752Y-72594396D01*
X53770793Y-72588666D01*
X53808489Y-72582858D01*
X53946586Y-72544797D01*
X54073887Y-72487073D01*
X54189708Y-72410211D01*
X54293363Y-72314739D01*
X54384167Y-72201179D01*
X54450969Y-72090381D01*
X54505836Y-71973625D01*
X54547837Y-71854276D01*
X54577833Y-71728283D01*
X54596689Y-71591594D01*
X54605268Y-71440158D01*
X54605994Y-71362711D01*
X54603900Y-71305934D01*
X53774783Y-71305934D01*
X53774576Y-71399002D01*
X53771663Y-71486692D01*
X53766000Y-71563772D01*
X53757545Y-71625009D01*
X53754962Y-71637350D01*
X53723160Y-71744633D01*
X53681502Y-71831658D01*
X53629637Y-71898642D01*
X53567219Y-71945805D01*
X53493900Y-71973365D01*
X53409331Y-71981541D01*
X53313165Y-71970551D01*
X53249689Y-71954829D01*
X53200546Y-71936639D01*
X53146417Y-71910791D01*
X53105756Y-71887089D01*
X53035200Y-71840721D01*
X53035200Y-70690530D01*
X53102608Y-70646962D01*
X53181133Y-70606040D01*
X53265319Y-70579389D01*
X53350443Y-70567465D01*
X53431784Y-70570722D01*
X53504620Y-70589615D01*
X53536574Y-70605184D01*
X53594499Y-70648181D01*
X53643456Y-70704953D01*
X53684610Y-70777575D01*
X53719126Y-70868121D01*
X53748167Y-70978666D01*
X53749448Y-70984533D01*
X53759619Y-71046788D01*
X53767261Y-71124594D01*
X53772330Y-71212720D01*
X53774783Y-71305934D01*
X54603900Y-71305934D01*
X54598143Y-71149895D01*
X54576198Y-70954059D01*
X54540214Y-70775332D01*
X54490241Y-70613845D01*
X54426332Y-70469726D01*
X54348538Y-70343106D01*
X54256911Y-70234115D01*
X54151503Y-70142883D01*
X54106338Y-70111932D01*
X54005389Y-70055785D01*
X53902099Y-70016174D01*
X53792011Y-69992014D01*
X53670670Y-69982219D01*
X53578164Y-69983265D01*
X53448510Y-69994231D01*
X53335916Y-70016046D01*
X53237125Y-70049714D01*
X53148879Y-70096236D01*
X53100014Y-70130448D01*
X53070647Y-70152362D01*
X53048957Y-70167333D01*
X53040747Y-70171733D01*
X53039132Y-70160904D01*
X53037841Y-70130251D01*
X53036862Y-70082526D01*
X53036183Y-70020479D01*
X53035790Y-69946862D01*
X53035670Y-69864427D01*
X53035812Y-69775925D01*
X53036203Y-69684107D01*
X53036829Y-69591724D01*
X53037680Y-69501528D01*
X53038740Y-69416271D01*
X53039999Y-69338703D01*
X53041444Y-69271576D01*
X53043062Y-69217641D01*
X53044839Y-69179650D01*
X53045331Y-69172667D01*
X53052908Y-69102251D01*
X53064469Y-69047102D01*
X53082208Y-68999981D01*
X53108318Y-68953647D01*
X53114585Y-68944067D01*
X53139017Y-68907378D01*
X52233689Y-68907378D01*
X52233493Y-70592245D01*
G37*
X52233493Y-70592245D02*
X52233474Y-70826662D01*
X52233448Y-71039603D01*
X52233375Y-71232168D01*
X52233218Y-71405459D01*
X52232936Y-71560576D01*
X52232491Y-71698620D01*
X52231844Y-71820692D01*
X52230955Y-71927894D01*
X52229787Y-72021326D01*
X52228299Y-72102090D01*
X52226454Y-72171286D01*
X52224211Y-72230015D01*
X52221531Y-72279379D01*
X52218377Y-72320478D01*
X52214708Y-72354413D01*
X52210487Y-72382286D01*
X52205673Y-72405198D01*
X52200227Y-72424249D01*
X52194112Y-72440540D01*
X52187288Y-72455173D01*
X52179715Y-72469249D01*
X52171355Y-72483868D01*
X52166161Y-72492974D01*
X52131896Y-72553689D01*
X52990045Y-72553689D01*
X52990045Y-72457733D01*
X52990776Y-72414370D01*
X52992728Y-72381205D01*
X52995537Y-72363424D01*
X52996779Y-72361778D01*
X53008201Y-72368662D01*
X53030916Y-72386505D01*
X53053615Y-72405879D01*
X53108200Y-72446614D01*
X53177679Y-72487617D01*
X53254730Y-72525123D01*
X53332035Y-72555364D01*
X53362887Y-72565012D01*
X53431384Y-72579578D01*
X53514236Y-72589539D01*
X53603629Y-72594583D01*
X53691752Y-72594396D01*
X53770793Y-72588666D01*
X53808489Y-72582858D01*
X53946586Y-72544797D01*
X54073887Y-72487073D01*
X54189708Y-72410211D01*
X54293363Y-72314739D01*
X54384167Y-72201179D01*
X54450969Y-72090381D01*
X54505836Y-71973625D01*
X54547837Y-71854276D01*
X54577833Y-71728283D01*
X54596689Y-71591594D01*
X54605268Y-71440158D01*
X54605994Y-71362711D01*
X54603900Y-71305934D01*
X53774783Y-71305934D01*
X53774576Y-71399002D01*
X53771663Y-71486692D01*
X53766000Y-71563772D01*
X53757545Y-71625009D01*
X53754962Y-71637350D01*
X53723160Y-71744633D01*
X53681502Y-71831658D01*
X53629637Y-71898642D01*
X53567219Y-71945805D01*
X53493900Y-71973365D01*
X53409331Y-71981541D01*
X53313165Y-71970551D01*
X53249689Y-71954829D01*
X53200546Y-71936639D01*
X53146417Y-71910791D01*
X53105756Y-71887089D01*
X53035200Y-71840721D01*
X53035200Y-70690530D01*
X53102608Y-70646962D01*
X53181133Y-70606040D01*
X53265319Y-70579389D01*
X53350443Y-70567465D01*
X53431784Y-70570722D01*
X53504620Y-70589615D01*
X53536574Y-70605184D01*
X53594499Y-70648181D01*
X53643456Y-70704953D01*
X53684610Y-70777575D01*
X53719126Y-70868121D01*
X53748167Y-70978666D01*
X53749448Y-70984533D01*
X53759619Y-71046788D01*
X53767261Y-71124594D01*
X53772330Y-71212720D01*
X53774783Y-71305934D01*
X54603900Y-71305934D01*
X54598143Y-71149895D01*
X54576198Y-70954059D01*
X54540214Y-70775332D01*
X54490241Y-70613845D01*
X54426332Y-70469726D01*
X54348538Y-70343106D01*
X54256911Y-70234115D01*
X54151503Y-70142883D01*
X54106338Y-70111932D01*
X54005389Y-70055785D01*
X53902099Y-70016174D01*
X53792011Y-69992014D01*
X53670670Y-69982219D01*
X53578164Y-69983265D01*
X53448510Y-69994231D01*
X53335916Y-70016046D01*
X53237125Y-70049714D01*
X53148879Y-70096236D01*
X53100014Y-70130448D01*
X53070647Y-70152362D01*
X53048957Y-70167333D01*
X53040747Y-70171733D01*
X53039132Y-70160904D01*
X53037841Y-70130251D01*
X53036862Y-70082526D01*
X53036183Y-70020479D01*
X53035790Y-69946862D01*
X53035670Y-69864427D01*
X53035812Y-69775925D01*
X53036203Y-69684107D01*
X53036829Y-69591724D01*
X53037680Y-69501528D01*
X53038740Y-69416271D01*
X53039999Y-69338703D01*
X53041444Y-69271576D01*
X53043062Y-69217641D01*
X53044839Y-69179650D01*
X53045331Y-69172667D01*
X53052908Y-69102251D01*
X53064469Y-69047102D01*
X53082208Y-68999981D01*
X53108318Y-68953647D01*
X53114585Y-68944067D01*
X53139017Y-68907378D01*
X52233689Y-68907378D01*
X52233493Y-70592245D01*
G36*
X60693043Y-68146571D02*
G01*
X60596768Y-68170809D01*
X60510184Y-68213641D01*
X60435373Y-68273419D01*
X60374418Y-68348494D01*
X60329399Y-68437220D01*
X60303136Y-68533530D01*
X60297286Y-68630795D01*
X60312140Y-68724654D01*
X60345840Y-68812511D01*
X60396528Y-68891770D01*
X60462345Y-68959836D01*
X60541434Y-69014112D01*
X60631934Y-69052002D01*
X60683200Y-69064426D01*
X60727698Y-69071947D01*
X60761999Y-69074919D01*
X60794960Y-69073094D01*
X60835434Y-69066225D01*
X60868531Y-69059250D01*
X60961947Y-69027741D01*
X61045619Y-68976617D01*
X61117665Y-68907429D01*
X61176200Y-68821728D01*
X61190148Y-68794489D01*
X61206586Y-68758122D01*
X61216894Y-68727582D01*
X61222460Y-68695450D01*
X61224669Y-68654307D01*
X61224948Y-68608222D01*
X61220861Y-68523865D01*
X61207446Y-68454586D01*
X61182256Y-68393961D01*
X61142846Y-68335567D01*
X61104298Y-68291302D01*
X61032406Y-68225484D01*
X60957313Y-68180053D01*
X60874562Y-68152850D01*
X60796928Y-68142576D01*
X60693043Y-68146571D01*
G37*
X60693043Y-68146571D02*
X60596768Y-68170809D01*
X60510184Y-68213641D01*
X60435373Y-68273419D01*
X60374418Y-68348494D01*
X60329399Y-68437220D01*
X60303136Y-68533530D01*
X60297286Y-68630795D01*
X60312140Y-68724654D01*
X60345840Y-68812511D01*
X60396528Y-68891770D01*
X60462345Y-68959836D01*
X60541434Y-69014112D01*
X60631934Y-69052002D01*
X60683200Y-69064426D01*
X60727698Y-69071947D01*
X60761999Y-69074919D01*
X60794960Y-69073094D01*
X60835434Y-69066225D01*
X60868531Y-69059250D01*
X60961947Y-69027741D01*
X61045619Y-68976617D01*
X61117665Y-68907429D01*
X61176200Y-68821728D01*
X61190148Y-68794489D01*
X61206586Y-68758122D01*
X61216894Y-68727582D01*
X61222460Y-68695450D01*
X61224669Y-68654307D01*
X61224948Y-68608222D01*
X61220861Y-68523865D01*
X61207446Y-68454586D01*
X61182256Y-68393961D01*
X61142846Y-68335567D01*
X61104298Y-68291302D01*
X61032406Y-68225484D01*
X60957313Y-68180053D01*
X60874562Y-68152850D01*
X60796928Y-68142576D01*
X60693043Y-68146571D01*
G36*
X64541371Y-73389066D02*
G01*
X64501889Y-73389467D01*
X64386200Y-73392259D01*
X64289311Y-73400550D01*
X64207919Y-73415232D01*
X64138723Y-73437193D01*
X64078420Y-73467322D01*
X64023708Y-73506510D01*
X64004167Y-73523532D01*
X63971750Y-73563363D01*
X63942520Y-73617413D01*
X63919991Y-73677323D01*
X63907679Y-73734739D01*
X63906400Y-73755956D01*
X63914417Y-73814769D01*
X63935899Y-73879013D01*
X63966999Y-73939821D01*
X64003866Y-73988330D01*
X64009854Y-73994182D01*
X64060579Y-74035321D01*
X64116125Y-74067435D01*
X64179696Y-74091365D01*
X64254494Y-74107953D01*
X64343722Y-74118041D01*
X64450582Y-74122469D01*
X64499528Y-74122845D01*
X64561762Y-74122545D01*
X64605528Y-74121292D01*
X64634931Y-74118554D01*
X64654079Y-74113801D01*
X64667077Y-74106501D01*
X64674045Y-74100267D01*
X64680626Y-74092694D01*
X64685788Y-74082924D01*
X64689703Y-74068340D01*
X64692543Y-74046326D01*
X64694480Y-74014264D01*
X64695684Y-73969536D01*
X64696328Y-73909526D01*
X64696583Y-73831617D01*
X64696622Y-73755956D01*
X64696870Y-73655041D01*
X64696817Y-73574427D01*
X64695857Y-73535822D01*
X64549867Y-73535822D01*
X64549867Y-73976089D01*
X64456734Y-73976004D01*
X64400693Y-73974396D01*
X64341999Y-73970256D01*
X64293028Y-73964464D01*
X64291538Y-73964226D01*
X64212392Y-73945090D01*
X64151002Y-73915287D01*
X64104305Y-73872878D01*
X64074635Y-73826961D01*
X64056353Y-73776026D01*
X64057771Y-73728200D01*
X64078988Y-73676933D01*
X64120489Y-73623899D01*
X64177998Y-73584600D01*
X64252750Y-73558331D01*
X64302708Y-73549035D01*
X64359416Y-73542507D01*
X64419519Y-73537782D01*
X64470639Y-73535817D01*
X64473667Y-73535808D01*
X64549867Y-73535822D01*
X64695857Y-73535822D01*
X64695260Y-73511851D01*
X64690998Y-73465055D01*
X64682830Y-73431778D01*
X64669556Y-73409759D01*
X64649974Y-73396739D01*
X64622883Y-73390457D01*
X64587082Y-73388653D01*
X64541371Y-73389066D01*
G37*
X64541371Y-73389066D02*
X64501889Y-73389467D01*
X64386200Y-73392259D01*
X64289311Y-73400550D01*
X64207919Y-73415232D01*
X64138723Y-73437193D01*
X64078420Y-73467322D01*
X64023708Y-73506510D01*
X64004167Y-73523532D01*
X63971750Y-73563363D01*
X63942520Y-73617413D01*
X63919991Y-73677323D01*
X63907679Y-73734739D01*
X63906400Y-73755956D01*
X63914417Y-73814769D01*
X63935899Y-73879013D01*
X63966999Y-73939821D01*
X64003866Y-73988330D01*
X64009854Y-73994182D01*
X64060579Y-74035321D01*
X64116125Y-74067435D01*
X64179696Y-74091365D01*
X64254494Y-74107953D01*
X64343722Y-74118041D01*
X64450582Y-74122469D01*
X64499528Y-74122845D01*
X64561762Y-74122545D01*
X64605528Y-74121292D01*
X64634931Y-74118554D01*
X64654079Y-74113801D01*
X64667077Y-74106501D01*
X64674045Y-74100267D01*
X64680626Y-74092694D01*
X64685788Y-74082924D01*
X64689703Y-74068340D01*
X64692543Y-74046326D01*
X64694480Y-74014264D01*
X64695684Y-73969536D01*
X64696328Y-73909526D01*
X64696583Y-73831617D01*
X64696622Y-73755956D01*
X64696870Y-73655041D01*
X64696817Y-73574427D01*
X64695857Y-73535822D01*
X64549867Y-73535822D01*
X64549867Y-73976089D01*
X64456734Y-73976004D01*
X64400693Y-73974396D01*
X64341999Y-73970256D01*
X64293028Y-73964464D01*
X64291538Y-73964226D01*
X64212392Y-73945090D01*
X64151002Y-73915287D01*
X64104305Y-73872878D01*
X64074635Y-73826961D01*
X64056353Y-73776026D01*
X64057771Y-73728200D01*
X64078988Y-73676933D01*
X64120489Y-73623899D01*
X64177998Y-73584600D01*
X64252750Y-73558331D01*
X64302708Y-73549035D01*
X64359416Y-73542507D01*
X64419519Y-73537782D01*
X64470639Y-73535817D01*
X64473667Y-73535808D01*
X64549867Y-73535822D01*
X64695857Y-73535822D01*
X64695260Y-73511851D01*
X64690998Y-73465055D01*
X64682830Y-73431778D01*
X64669556Y-73409759D01*
X64649974Y-73396739D01*
X64622883Y-73390457D01*
X64587082Y-73388653D01*
X64541371Y-73389066D01*
G36*
X63132794Y-73389146D02*
G01*
X63063386Y-73389518D01*
X63010997Y-73390385D01*
X62972847Y-73391946D01*
X62946159Y-73394403D01*
X62928153Y-73397957D01*
X62916049Y-73402810D01*
X62907069Y-73409161D01*
X62903818Y-73412084D01*
X62884043Y-73443142D01*
X62880482Y-73478828D01*
X62893491Y-73510510D01*
X62899506Y-73516913D01*
X62909235Y-73523121D01*
X62924901Y-73527910D01*
X62949408Y-73531514D01*
X62985661Y-73534164D01*
X63036565Y-73536095D01*
X63105026Y-73537539D01*
X63167617Y-73538418D01*
X63415334Y-73541467D01*
X63418719Y-73606378D01*
X63422105Y-73671289D01*
X63253958Y-73671289D01*
X63180959Y-73671919D01*
X63127517Y-73674553D01*
X63090628Y-73680309D01*
X63067288Y-73690304D01*
X63054494Y-73705656D01*
X63049242Y-73727482D01*
X63048445Y-73747738D01*
X63050923Y-73772592D01*
X63060277Y-73790906D01*
X63079383Y-73803637D01*
X63111118Y-73811741D01*
X63158359Y-73816176D01*
X63223983Y-73817899D01*
X63259801Y-73818045D01*
X63420978Y-73818045D01*
X63420978Y-73976089D01*
X63172622Y-73976089D01*
X63091213Y-73976202D01*
X63029342Y-73976712D01*
X62983968Y-73977870D01*
X62952054Y-73979930D01*
X62930559Y-73983146D01*
X62916443Y-73987772D01*
X62906668Y-73994059D01*
X62901689Y-73998667D01*
X62884610Y-74025560D01*
X62879111Y-74049467D01*
X62886963Y-74078667D01*
X62901689Y-74100267D01*
X62909546Y-74107066D01*
X62919688Y-74112346D01*
X62934844Y-74116298D01*
X62957741Y-74119113D01*
X62991109Y-74120982D01*
X63037675Y-74122098D01*
X63100167Y-74122651D01*
X63181314Y-74122833D01*
X63223422Y-74122845D01*
X63313598Y-74122765D01*
X63383924Y-74122398D01*
X63437129Y-74121552D01*
X63475940Y-74120036D01*
X63503087Y-74117659D01*
X63521298Y-74114229D01*
X63533300Y-74109554D01*
X63541822Y-74103444D01*
X63545156Y-74100267D01*
X63551755Y-74092670D01*
X63556927Y-74082870D01*
X63560846Y-74068239D01*
X63563684Y-74046152D01*
X63565615Y-74013982D01*
X63566812Y-73969103D01*
X63567448Y-73908889D01*
X63567697Y-73830713D01*
X63567734Y-73757923D01*
X63567700Y-73664707D01*
X63567465Y-73591431D01*
X63566830Y-73535458D01*
X63565594Y-73494151D01*
X63563556Y-73464872D01*
X63560517Y-73444984D01*
X63556277Y-73431850D01*
X63550635Y-73422832D01*
X63543391Y-73415293D01*
X63541606Y-73413612D01*
X63532945Y-73406172D01*
X63522882Y-73400409D01*
X63508625Y-73396112D01*
X63487383Y-73393064D01*
X63456364Y-73391051D01*
X63412777Y-73389860D01*
X63353831Y-73389275D01*
X63276734Y-73389083D01*
X63222001Y-73389067D01*
X63132794Y-73389146D01*
G37*
X63132794Y-73389146D02*
X63063386Y-73389518D01*
X63010997Y-73390385D01*
X62972847Y-73391946D01*
X62946159Y-73394403D01*
X62928153Y-73397957D01*
X62916049Y-73402810D01*
X62907069Y-73409161D01*
X62903818Y-73412084D01*
X62884043Y-73443142D01*
X62880482Y-73478828D01*
X62893491Y-73510510D01*
X62899506Y-73516913D01*
X62909235Y-73523121D01*
X62924901Y-73527910D01*
X62949408Y-73531514D01*
X62985661Y-73534164D01*
X63036565Y-73536095D01*
X63105026Y-73537539D01*
X63167617Y-73538418D01*
X63415334Y-73541467D01*
X63418719Y-73606378D01*
X63422105Y-73671289D01*
X63253958Y-73671289D01*
X63180959Y-73671919D01*
X63127517Y-73674553D01*
X63090628Y-73680309D01*
X63067288Y-73690304D01*
X63054494Y-73705656D01*
X63049242Y-73727482D01*
X63048445Y-73747738D01*
X63050923Y-73772592D01*
X63060277Y-73790906D01*
X63079383Y-73803637D01*
X63111118Y-73811741D01*
X63158359Y-73816176D01*
X63223983Y-73817899D01*
X63259801Y-73818045D01*
X63420978Y-73818045D01*
X63420978Y-73976089D01*
X63172622Y-73976089D01*
X63091213Y-73976202D01*
X63029342Y-73976712D01*
X62983968Y-73977870D01*
X62952054Y-73979930D01*
X62930559Y-73983146D01*
X62916443Y-73987772D01*
X62906668Y-73994059D01*
X62901689Y-73998667D01*
X62884610Y-74025560D01*
X62879111Y-74049467D01*
X62886963Y-74078667D01*
X62901689Y-74100267D01*
X62909546Y-74107066D01*
X62919688Y-74112346D01*
X62934844Y-74116298D01*
X62957741Y-74119113D01*
X62991109Y-74120982D01*
X63037675Y-74122098D01*
X63100167Y-74122651D01*
X63181314Y-74122833D01*
X63223422Y-74122845D01*
X63313598Y-74122765D01*
X63383924Y-74122398D01*
X63437129Y-74121552D01*
X63475940Y-74120036D01*
X63503087Y-74117659D01*
X63521298Y-74114229D01*
X63533300Y-74109554D01*
X63541822Y-74103444D01*
X63545156Y-74100267D01*
X63551755Y-74092670D01*
X63556927Y-74082870D01*
X63560846Y-74068239D01*
X63563684Y-74046152D01*
X63565615Y-74013982D01*
X63566812Y-73969103D01*
X63567448Y-73908889D01*
X63567697Y-73830713D01*
X63567734Y-73757923D01*
X63567700Y-73664707D01*
X63567465Y-73591431D01*
X63566830Y-73535458D01*
X63565594Y-73494151D01*
X63563556Y-73464872D01*
X63560517Y-73444984D01*
X63556277Y-73431850D01*
X63550635Y-73422832D01*
X63543391Y-73415293D01*
X63541606Y-73413612D01*
X63532945Y-73406172D01*
X63522882Y-73400409D01*
X63508625Y-73396112D01*
X63487383Y-73393064D01*
X63456364Y-73391051D01*
X63412777Y-73389860D01*
X63353831Y-73389275D01*
X63276734Y-73389083D01*
X63222001Y-73389067D01*
X63132794Y-73389146D01*
G36*
X62111703Y-73390351D02*
G01*
X62036888Y-73395581D01*
X61967306Y-73403750D01*
X61907002Y-73414550D01*
X61860020Y-73427673D01*
X61830406Y-73442813D01*
X61825860Y-73447269D01*
X61810054Y-73481850D01*
X61814847Y-73517351D01*
X61839364Y-73547725D01*
X61840534Y-73548596D01*
X61854954Y-73557954D01*
X61870008Y-73562876D01*
X61891005Y-73563473D01*
X61923257Y-73559861D01*
X61972073Y-73552154D01*
X61976000Y-73551505D01*
X62048739Y-73542569D01*
X62127217Y-73538161D01*
X62205927Y-73538119D01*
X62279361Y-73542279D01*
X62342011Y-73550479D01*
X62388370Y-73562557D01*
X62391416Y-73563771D01*
X62425048Y-73582615D01*
X62436864Y-73601685D01*
X62427614Y-73620439D01*
X62398047Y-73638337D01*
X62348911Y-73654837D01*
X62280957Y-73669396D01*
X62235645Y-73676406D01*
X62141456Y-73689889D01*
X62066544Y-73702214D01*
X62007717Y-73714449D01*
X61961785Y-73727661D01*
X61925555Y-73742917D01*
X61895838Y-73761285D01*
X61869442Y-73783831D01*
X61848230Y-73805971D01*
X61823065Y-73836819D01*
X61810681Y-73863345D01*
X61806808Y-73896026D01*
X61806667Y-73907995D01*
X61809576Y-73947712D01*
X61821202Y-73977259D01*
X61841323Y-74003486D01*
X61882216Y-74043576D01*
X61927817Y-74074149D01*
X61981513Y-74096203D01*
X62046692Y-74110735D01*
X62126744Y-74118741D01*
X62225057Y-74121218D01*
X62241289Y-74121177D01*
X62306849Y-74119818D01*
X62371866Y-74116730D01*
X62429252Y-74112356D01*
X62471922Y-74107140D01*
X62475372Y-74106541D01*
X62517796Y-74096491D01*
X62553780Y-74083796D01*
X62574150Y-74072190D01*
X62593107Y-74041572D01*
X62594427Y-74005918D01*
X62578085Y-73974144D01*
X62574429Y-73970551D01*
X62559315Y-73959876D01*
X62540415Y-73955276D01*
X62511162Y-73956059D01*
X62475651Y-73960127D01*
X62435970Y-73963762D01*
X62380345Y-73966828D01*
X62315406Y-73969053D01*
X62247785Y-73970164D01*
X62230000Y-73970237D01*
X62162128Y-73969964D01*
X62112454Y-73968646D01*
X62076610Y-73965827D01*
X62050224Y-73961050D01*
X62028926Y-73953857D01*
X62016126Y-73947867D01*
X61988000Y-73931233D01*
X61970068Y-73916168D01*
X61967447Y-73911897D01*
X61972976Y-73894263D01*
X61999260Y-73877192D01*
X62044478Y-73861458D01*
X62106808Y-73847838D01*
X62125171Y-73844804D01*
X62221090Y-73829738D01*
X62297641Y-73817146D01*
X62357780Y-73806111D01*
X62404460Y-73795720D01*
X62440637Y-73785056D01*
X62469265Y-73773205D01*
X62493298Y-73759251D01*
X62515692Y-73742281D01*
X62539402Y-73721378D01*
X62547380Y-73714049D01*
X62575353Y-73686699D01*
X62590160Y-73665029D01*
X62595952Y-73640232D01*
X62596889Y-73608983D01*
X62586575Y-73547705D01*
X62555752Y-73495640D01*
X62504595Y-73452958D01*
X62433283Y-73419825D01*
X62382400Y-73404964D01*
X62327100Y-73395366D01*
X62260853Y-73389936D01*
X62187706Y-73388367D01*
X62111703Y-73390351D01*
G37*
X62111703Y-73390351D02*
X62036888Y-73395581D01*
X61967306Y-73403750D01*
X61907002Y-73414550D01*
X61860020Y-73427673D01*
X61830406Y-73442813D01*
X61825860Y-73447269D01*
X61810054Y-73481850D01*
X61814847Y-73517351D01*
X61839364Y-73547725D01*
X61840534Y-73548596D01*
X61854954Y-73557954D01*
X61870008Y-73562876D01*
X61891005Y-73563473D01*
X61923257Y-73559861D01*
X61972073Y-73552154D01*
X61976000Y-73551505D01*
X62048739Y-73542569D01*
X62127217Y-73538161D01*
X62205927Y-73538119D01*
X62279361Y-73542279D01*
X62342011Y-73550479D01*
X62388370Y-73562557D01*
X62391416Y-73563771D01*
X62425048Y-73582615D01*
X62436864Y-73601685D01*
X62427614Y-73620439D01*
X62398047Y-73638337D01*
X62348911Y-73654837D01*
X62280957Y-73669396D01*
X62235645Y-73676406D01*
X62141456Y-73689889D01*
X62066544Y-73702214D01*
X62007717Y-73714449D01*
X61961785Y-73727661D01*
X61925555Y-73742917D01*
X61895838Y-73761285D01*
X61869442Y-73783831D01*
X61848230Y-73805971D01*
X61823065Y-73836819D01*
X61810681Y-73863345D01*
X61806808Y-73896026D01*
X61806667Y-73907995D01*
X61809576Y-73947712D01*
X61821202Y-73977259D01*
X61841323Y-74003486D01*
X61882216Y-74043576D01*
X61927817Y-74074149D01*
X61981513Y-74096203D01*
X62046692Y-74110735D01*
X62126744Y-74118741D01*
X62225057Y-74121218D01*
X62241289Y-74121177D01*
X62306849Y-74119818D01*
X62371866Y-74116730D01*
X62429252Y-74112356D01*
X62471922Y-74107140D01*
X62475372Y-74106541D01*
X62517796Y-74096491D01*
X62553780Y-74083796D01*
X62574150Y-74072190D01*
X62593107Y-74041572D01*
X62594427Y-74005918D01*
X62578085Y-73974144D01*
X62574429Y-73970551D01*
X62559315Y-73959876D01*
X62540415Y-73955276D01*
X62511162Y-73956059D01*
X62475651Y-73960127D01*
X62435970Y-73963762D01*
X62380345Y-73966828D01*
X62315406Y-73969053D01*
X62247785Y-73970164D01*
X62230000Y-73970237D01*
X62162128Y-73969964D01*
X62112454Y-73968646D01*
X62076610Y-73965827D01*
X62050224Y-73961050D01*
X62028926Y-73953857D01*
X62016126Y-73947867D01*
X61988000Y-73931233D01*
X61970068Y-73916168D01*
X61967447Y-73911897D01*
X61972976Y-73894263D01*
X61999260Y-73877192D01*
X62044478Y-73861458D01*
X62106808Y-73847838D01*
X62125171Y-73844804D01*
X62221090Y-73829738D01*
X62297641Y-73817146D01*
X62357780Y-73806111D01*
X62404460Y-73795720D01*
X62440637Y-73785056D01*
X62469265Y-73773205D01*
X62493298Y-73759251D01*
X62515692Y-73742281D01*
X62539402Y-73721378D01*
X62547380Y-73714049D01*
X62575353Y-73686699D01*
X62590160Y-73665029D01*
X62595952Y-73640232D01*
X62596889Y-73608983D01*
X62586575Y-73547705D01*
X62555752Y-73495640D01*
X62504595Y-73452958D01*
X62433283Y-73419825D01*
X62382400Y-73404964D01*
X62327100Y-73395366D01*
X62260853Y-73389936D01*
X62187706Y-73388367D01*
X62111703Y-73390351D01*
G36*
X61343822Y-73411645D02*
G01*
X61337242Y-73419218D01*
X61332079Y-73428987D01*
X61328164Y-73443571D01*
X61325324Y-73465585D01*
X61323387Y-73497648D01*
X61322183Y-73542375D01*
X61321539Y-73602385D01*
X61321284Y-73680294D01*
X61321245Y-73755956D01*
X61321314Y-73849802D01*
X61321638Y-73923689D01*
X61322386Y-73980232D01*
X61323732Y-74022049D01*
X61325846Y-74051757D01*
X61328900Y-74071973D01*
X61333066Y-74085314D01*
X61338516Y-74094398D01*
X61343822Y-74100267D01*
X61376826Y-74119947D01*
X61411991Y-74118181D01*
X61443455Y-74096717D01*
X61450684Y-74088337D01*
X61456334Y-74078614D01*
X61460599Y-74064861D01*
X61463673Y-74044389D01*
X61465752Y-74014512D01*
X61467030Y-73972541D01*
X61467701Y-73915789D01*
X61467959Y-73841567D01*
X61468000Y-73757537D01*
X61468000Y-73444485D01*
X61440291Y-73416776D01*
X61406137Y-73393463D01*
X61373006Y-73392623D01*
X61343822Y-73411645D01*
G37*
X61343822Y-73411645D02*
X61337242Y-73419218D01*
X61332079Y-73428987D01*
X61328164Y-73443571D01*
X61325324Y-73465585D01*
X61323387Y-73497648D01*
X61322183Y-73542375D01*
X61321539Y-73602385D01*
X61321284Y-73680294D01*
X61321245Y-73755956D01*
X61321314Y-73849802D01*
X61321638Y-73923689D01*
X61322386Y-73980232D01*
X61323732Y-74022049D01*
X61325846Y-74051757D01*
X61328900Y-74071973D01*
X61333066Y-74085314D01*
X61338516Y-74094398D01*
X61343822Y-74100267D01*
X61376826Y-74119947D01*
X61411991Y-74118181D01*
X61443455Y-74096717D01*
X61450684Y-74088337D01*
X61456334Y-74078614D01*
X61460599Y-74064861D01*
X61463673Y-74044389D01*
X61465752Y-74014512D01*
X61467030Y-73972541D01*
X61467701Y-73915789D01*
X61467959Y-73841567D01*
X61468000Y-73757537D01*
X61468000Y-73444485D01*
X61440291Y-73416776D01*
X61406137Y-73393463D01*
X61373006Y-73392623D01*
X61343822Y-73411645D01*
G36*
X60370081Y-73394599D02*
G01*
X60301565Y-73406095D01*
X60248943Y-73423967D01*
X60214708Y-73447499D01*
X60205379Y-73460924D01*
X60195893Y-73492148D01*
X60202277Y-73520395D01*
X60222430Y-73547182D01*
X60253745Y-73559713D01*
X60299183Y-73558696D01*
X60334326Y-73551906D01*
X60412419Y-73538971D01*
X60492226Y-73537742D01*
X60581555Y-73548241D01*
X60606229Y-73552690D01*
X60689291Y-73576108D01*
X60754273Y-73610945D01*
X60800461Y-73656604D01*
X60827145Y-73712494D01*
X60832663Y-73741388D01*
X60829051Y-73800012D01*
X60805729Y-73851879D01*
X60764824Y-73895978D01*
X60708459Y-73931299D01*
X60638760Y-73956829D01*
X60557852Y-73971559D01*
X60467860Y-73974478D01*
X60370910Y-73964575D01*
X60365436Y-73963641D01*
X60326875Y-73956459D01*
X60305494Y-73949521D01*
X60296227Y-73939227D01*
X60294006Y-73921976D01*
X60293956Y-73912841D01*
X60293956Y-73874489D01*
X60362431Y-73874489D01*
X60422900Y-73870347D01*
X60464165Y-73857147D01*
X60488175Y-73833730D01*
X60496877Y-73798936D01*
X60496983Y-73794394D01*
X60491892Y-73764654D01*
X60474433Y-73743419D01*
X60441939Y-73729366D01*
X60391743Y-73721173D01*
X60343123Y-73718161D01*
X60272456Y-73716433D01*
X60221198Y-73719070D01*
X60186239Y-73728800D01*
X60164470Y-73748353D01*
X60152780Y-73780456D01*
X60148060Y-73827838D01*
X60147200Y-73890071D01*
X60148609Y-73959535D01*
X60152848Y-74006786D01*
X60159936Y-74032012D01*
X60161311Y-74033988D01*
X60200228Y-74065508D01*
X60257286Y-74090470D01*
X60328869Y-74108340D01*
X60411358Y-74118586D01*
X60501139Y-74120673D01*
X60594592Y-74114068D01*
X60649556Y-74105956D01*
X60735766Y-74081554D01*
X60815892Y-74041662D01*
X60882977Y-73989887D01*
X60893173Y-73979539D01*
X60926302Y-73936035D01*
X60956194Y-73882118D01*
X60979357Y-73825592D01*
X60992298Y-73774259D01*
X60993858Y-73754544D01*
X60987218Y-73713419D01*
X60969568Y-73662252D01*
X60944297Y-73608394D01*
X60914789Y-73559195D01*
X60888719Y-73526334D01*
X60827765Y-73477452D01*
X60748969Y-73438545D01*
X60655157Y-73410494D01*
X60549150Y-73394179D01*
X60452000Y-73390192D01*
X60370081Y-73394599D01*
G37*
X60370081Y-73394599D02*
X60301565Y-73406095D01*
X60248943Y-73423967D01*
X60214708Y-73447499D01*
X60205379Y-73460924D01*
X60195893Y-73492148D01*
X60202277Y-73520395D01*
X60222430Y-73547182D01*
X60253745Y-73559713D01*
X60299183Y-73558696D01*
X60334326Y-73551906D01*
X60412419Y-73538971D01*
X60492226Y-73537742D01*
X60581555Y-73548241D01*
X60606229Y-73552690D01*
X60689291Y-73576108D01*
X60754273Y-73610945D01*
X60800461Y-73656604D01*
X60827145Y-73712494D01*
X60832663Y-73741388D01*
X60829051Y-73800012D01*
X60805729Y-73851879D01*
X60764824Y-73895978D01*
X60708459Y-73931299D01*
X60638760Y-73956829D01*
X60557852Y-73971559D01*
X60467860Y-73974478D01*
X60370910Y-73964575D01*
X60365436Y-73963641D01*
X60326875Y-73956459D01*
X60305494Y-73949521D01*
X60296227Y-73939227D01*
X60294006Y-73921976D01*
X60293956Y-73912841D01*
X60293956Y-73874489D01*
X60362431Y-73874489D01*
X60422900Y-73870347D01*
X60464165Y-73857147D01*
X60488175Y-73833730D01*
X60496877Y-73798936D01*
X60496983Y-73794394D01*
X60491892Y-73764654D01*
X60474433Y-73743419D01*
X60441939Y-73729366D01*
X60391743Y-73721173D01*
X60343123Y-73718161D01*
X60272456Y-73716433D01*
X60221198Y-73719070D01*
X60186239Y-73728800D01*
X60164470Y-73748353D01*
X60152780Y-73780456D01*
X60148060Y-73827838D01*
X60147200Y-73890071D01*
X60148609Y-73959535D01*
X60152848Y-74006786D01*
X60159936Y-74032012D01*
X60161311Y-74033988D01*
X60200228Y-74065508D01*
X60257286Y-74090470D01*
X60328869Y-74108340D01*
X60411358Y-74118586D01*
X60501139Y-74120673D01*
X60594592Y-74114068D01*
X60649556Y-74105956D01*
X60735766Y-74081554D01*
X60815892Y-74041662D01*
X60882977Y-73989887D01*
X60893173Y-73979539D01*
X60926302Y-73936035D01*
X60956194Y-73882118D01*
X60979357Y-73825592D01*
X60992298Y-73774259D01*
X60993858Y-73754544D01*
X60987218Y-73713419D01*
X60969568Y-73662252D01*
X60944297Y-73608394D01*
X60914789Y-73559195D01*
X60888719Y-73526334D01*
X60827765Y-73477452D01*
X60748969Y-73438545D01*
X60655157Y-73410494D01*
X60549150Y-73394179D01*
X60452000Y-73390192D01*
X60370081Y-73394599D01*
G36*
X59720114Y-73393448D02*
G01*
X59696548Y-73407273D01*
X59665735Y-73429881D01*
X59626078Y-73462338D01*
X59575980Y-73505708D01*
X59513843Y-73561058D01*
X59438072Y-73629451D01*
X59351334Y-73708084D01*
X59170711Y-73871878D01*
X59165067Y-73652029D01*
X59163029Y-73576351D01*
X59161063Y-73519994D01*
X59158734Y-73479706D01*
X59155606Y-73452235D01*
X59151245Y-73434329D01*
X59145216Y-73422737D01*
X59137084Y-73414208D01*
X59132772Y-73410623D01*
X59098241Y-73391670D01*
X59065383Y-73394441D01*
X59039318Y-73410633D01*
X59012667Y-73432199D01*
X59009352Y-73747151D01*
X59008435Y-73839779D01*
X59007968Y-73912544D01*
X59008113Y-73968161D01*
X59009032Y-74009342D01*
X59010887Y-74038803D01*
X59013839Y-74059255D01*
X59018050Y-74073413D01*
X59023682Y-74083991D01*
X59029927Y-74092474D01*
X59043439Y-74108207D01*
X59056883Y-74118636D01*
X59072124Y-74122639D01*
X59091026Y-74119094D01*
X59115455Y-74106879D01*
X59147273Y-74084871D01*
X59188348Y-74051949D01*
X59240542Y-74006991D01*
X59305722Y-73948875D01*
X59379556Y-73882099D01*
X59644845Y-73641458D01*
X59650489Y-73860589D01*
X59652531Y-73936128D01*
X59654502Y-73992354D01*
X59656839Y-74032524D01*
X59659981Y-74059896D01*
X59664364Y-74077728D01*
X59670424Y-74089279D01*
X59678600Y-74097807D01*
X59682784Y-74101282D01*
X59719765Y-74120372D01*
X59754708Y-74117493D01*
X59785136Y-74093100D01*
X59792097Y-74083286D01*
X59797523Y-74071826D01*
X59801603Y-74055968D01*
X59804529Y-74032963D01*
X59806492Y-74000062D01*
X59807683Y-73954516D01*
X59808292Y-73893573D01*
X59808511Y-73814486D01*
X59808534Y-73755956D01*
X59808460Y-73664407D01*
X59808113Y-73592687D01*
X59807301Y-73538045D01*
X59805833Y-73497732D01*
X59803519Y-73468998D01*
X59800167Y-73449093D01*
X59795588Y-73435268D01*
X59789589Y-73424772D01*
X59785136Y-73418811D01*
X59773850Y-73404691D01*
X59763301Y-73394029D01*
X59751893Y-73387892D01*
X59738030Y-73387343D01*
X59720114Y-73393448D01*
G37*
X59720114Y-73393448D02*
X59696548Y-73407273D01*
X59665735Y-73429881D01*
X59626078Y-73462338D01*
X59575980Y-73505708D01*
X59513843Y-73561058D01*
X59438072Y-73629451D01*
X59351334Y-73708084D01*
X59170711Y-73871878D01*
X59165067Y-73652029D01*
X59163029Y-73576351D01*
X59161063Y-73519994D01*
X59158734Y-73479706D01*
X59155606Y-73452235D01*
X59151245Y-73434329D01*
X59145216Y-73422737D01*
X59137084Y-73414208D01*
X59132772Y-73410623D01*
X59098241Y-73391670D01*
X59065383Y-73394441D01*
X59039318Y-73410633D01*
X59012667Y-73432199D01*
X59009352Y-73747151D01*
X59008435Y-73839779D01*
X59007968Y-73912544D01*
X59008113Y-73968161D01*
X59009032Y-74009342D01*
X59010887Y-74038803D01*
X59013839Y-74059255D01*
X59018050Y-74073413D01*
X59023682Y-74083991D01*
X59029927Y-74092474D01*
X59043439Y-74108207D01*
X59056883Y-74118636D01*
X59072124Y-74122639D01*
X59091026Y-74119094D01*
X59115455Y-74106879D01*
X59147273Y-74084871D01*
X59188348Y-74051949D01*
X59240542Y-74006991D01*
X59305722Y-73948875D01*
X59379556Y-73882099D01*
X59644845Y-73641458D01*
X59650489Y-73860589D01*
X59652531Y-73936128D01*
X59654502Y-73992354D01*
X59656839Y-74032524D01*
X59659981Y-74059896D01*
X59664364Y-74077728D01*
X59670424Y-74089279D01*
X59678600Y-74097807D01*
X59682784Y-74101282D01*
X59719765Y-74120372D01*
X59754708Y-74117493D01*
X59785136Y-74093100D01*
X59792097Y-74083286D01*
X59797523Y-74071826D01*
X59801603Y-74055968D01*
X59804529Y-74032963D01*
X59806492Y-74000062D01*
X59807683Y-73954516D01*
X59808292Y-73893573D01*
X59808511Y-73814486D01*
X59808534Y-73755956D01*
X59808460Y-73664407D01*
X59808113Y-73592687D01*
X59807301Y-73538045D01*
X59805833Y-73497732D01*
X59803519Y-73468998D01*
X59800167Y-73449093D01*
X59795588Y-73435268D01*
X59789589Y-73424772D01*
X59785136Y-73418811D01*
X59773850Y-73404691D01*
X59763301Y-73394029D01*
X59751893Y-73387892D01*
X59738030Y-73387343D01*
X59720114Y-73393448D01*
G36*
X58189657Y-73389260D02*
G01*
X58113299Y-73390174D01*
X58054783Y-73392311D01*
X58011745Y-73396175D01*
X57981817Y-73402267D01*
X57962632Y-73411090D01*
X57951824Y-73423146D01*
X57947027Y-73438939D01*
X57945873Y-73458970D01*
X57945867Y-73461335D01*
X57946869Y-73483992D01*
X57951604Y-73501503D01*
X57962667Y-73514574D01*
X57982652Y-73523913D01*
X58014154Y-73530227D01*
X58059768Y-73534222D01*
X58122087Y-73536606D01*
X58203707Y-73538086D01*
X58228723Y-73538414D01*
X58470800Y-73541467D01*
X58474186Y-73606378D01*
X58477571Y-73671289D01*
X58309424Y-73671289D01*
X58243734Y-73671531D01*
X58196828Y-73672556D01*
X58164917Y-73674811D01*
X58144209Y-73678742D01*
X58130916Y-73684798D01*
X58121245Y-73693424D01*
X58121183Y-73693493D01*
X58103644Y-73727112D01*
X58104278Y-73763448D01*
X58122686Y-73794423D01*
X58126329Y-73797607D01*
X58139259Y-73805812D01*
X58156976Y-73811521D01*
X58183430Y-73815162D01*
X58222568Y-73817167D01*
X58278338Y-73817964D01*
X58314006Y-73818045D01*
X58476445Y-73818045D01*
X58476445Y-73976089D01*
X58229839Y-73976089D01*
X58148420Y-73976231D01*
X58086590Y-73976814D01*
X58041363Y-73978068D01*
X58009752Y-73980227D01*
X57988769Y-73983523D01*
X57975427Y-73988189D01*
X57966739Y-73994457D01*
X57964550Y-73996733D01*
X57948386Y-74028280D01*
X57947203Y-74064168D01*
X57960464Y-74095285D01*
X57970957Y-74105271D01*
X57981871Y-74110769D01*
X57998783Y-74115022D01*
X58024367Y-74118180D01*
X58061299Y-74120392D01*
X58112254Y-74121806D01*
X58179906Y-74122572D01*
X58266931Y-74122838D01*
X58286606Y-74122845D01*
X58375089Y-74122787D01*
X58443773Y-74122467D01*
X58495436Y-74121667D01*
X58532855Y-74120167D01*
X58558810Y-74117749D01*
X58576078Y-74114194D01*
X58587438Y-74109282D01*
X58595668Y-74102795D01*
X58600183Y-74098138D01*
X58606979Y-74089889D01*
X58612288Y-74079669D01*
X58616294Y-74064800D01*
X58619179Y-74042602D01*
X58621126Y-74010393D01*
X58622319Y-73965496D01*
X58622939Y-73905228D01*
X58623171Y-73826911D01*
X58623200Y-73760994D01*
X58623129Y-73668628D01*
X58622792Y-73596117D01*
X58622002Y-73540737D01*
X58620574Y-73499765D01*
X58618321Y-73470478D01*
X58615057Y-73450153D01*
X58610596Y-73436066D01*
X58604752Y-73425495D01*
X58599803Y-73418811D01*
X58576406Y-73389067D01*
X58286226Y-73389067D01*
X58189657Y-73389260D01*
G37*
X58189657Y-73389260D02*
X58113299Y-73390174D01*
X58054783Y-73392311D01*
X58011745Y-73396175D01*
X57981817Y-73402267D01*
X57962632Y-73411090D01*
X57951824Y-73423146D01*
X57947027Y-73438939D01*
X57945873Y-73458970D01*
X57945867Y-73461335D01*
X57946869Y-73483992D01*
X57951604Y-73501503D01*
X57962667Y-73514574D01*
X57982652Y-73523913D01*
X58014154Y-73530227D01*
X58059768Y-73534222D01*
X58122087Y-73536606D01*
X58203707Y-73538086D01*
X58228723Y-73538414D01*
X58470800Y-73541467D01*
X58474186Y-73606378D01*
X58477571Y-73671289D01*
X58309424Y-73671289D01*
X58243734Y-73671531D01*
X58196828Y-73672556D01*
X58164917Y-73674811D01*
X58144209Y-73678742D01*
X58130916Y-73684798D01*
X58121245Y-73693424D01*
X58121183Y-73693493D01*
X58103644Y-73727112D01*
X58104278Y-73763448D01*
X58122686Y-73794423D01*
X58126329Y-73797607D01*
X58139259Y-73805812D01*
X58156976Y-73811521D01*
X58183430Y-73815162D01*
X58222568Y-73817167D01*
X58278338Y-73817964D01*
X58314006Y-73818045D01*
X58476445Y-73818045D01*
X58476445Y-73976089D01*
X58229839Y-73976089D01*
X58148420Y-73976231D01*
X58086590Y-73976814D01*
X58041363Y-73978068D01*
X58009752Y-73980227D01*
X57988769Y-73983523D01*
X57975427Y-73988189D01*
X57966739Y-73994457D01*
X57964550Y-73996733D01*
X57948386Y-74028280D01*
X57947203Y-74064168D01*
X57960464Y-74095285D01*
X57970957Y-74105271D01*
X57981871Y-74110769D01*
X57998783Y-74115022D01*
X58024367Y-74118180D01*
X58061299Y-74120392D01*
X58112254Y-74121806D01*
X58179906Y-74122572D01*
X58266931Y-74122838D01*
X58286606Y-74122845D01*
X58375089Y-74122787D01*
X58443773Y-74122467D01*
X58495436Y-74121667D01*
X58532855Y-74120167D01*
X58558810Y-74117749D01*
X58576078Y-74114194D01*
X58587438Y-74109282D01*
X58595668Y-74102795D01*
X58600183Y-74098138D01*
X58606979Y-74089889D01*
X58612288Y-74079669D01*
X58616294Y-74064800D01*
X58619179Y-74042602D01*
X58621126Y-74010393D01*
X58622319Y-73965496D01*
X58622939Y-73905228D01*
X58623171Y-73826911D01*
X58623200Y-73760994D01*
X58623129Y-73668628D01*
X58622792Y-73596117D01*
X58622002Y-73540737D01*
X58620574Y-73499765D01*
X58618321Y-73470478D01*
X58615057Y-73450153D01*
X58610596Y-73436066D01*
X58604752Y-73425495D01*
X58599803Y-73418811D01*
X58576406Y-73389067D01*
X58286226Y-73389067D01*
X58189657Y-73389260D01*
G36*
X57401691Y-73389275D02*
G01*
X57272712Y-73393636D01*
X57163009Y-73406861D01*
X57070774Y-73429741D01*
X56994198Y-73463070D01*
X56931473Y-73507638D01*
X56880788Y-73564236D01*
X56840337Y-73633658D01*
X56839541Y-73635351D01*
X56815399Y-73697483D01*
X56806797Y-73752509D01*
X56813769Y-73807887D01*
X56836346Y-73871073D01*
X56840628Y-73880689D01*
X56869828Y-73936966D01*
X56902644Y-73980451D01*
X56944998Y-74017417D01*
X57002810Y-74054135D01*
X57006169Y-74056052D01*
X57056496Y-74080227D01*
X57113379Y-74098282D01*
X57180473Y-74110839D01*
X57261435Y-74118522D01*
X57359918Y-74121953D01*
X57394714Y-74122251D01*
X57560406Y-74122845D01*
X57583803Y-74093100D01*
X57590743Y-74083319D01*
X57596158Y-74071897D01*
X57600235Y-74056095D01*
X57603163Y-74033175D01*
X57605133Y-74000396D01*
X57605775Y-73976089D01*
X57449156Y-73976089D01*
X57355274Y-73976089D01*
X57300336Y-73974483D01*
X57243940Y-73970255D01*
X57197655Y-73964292D01*
X57194861Y-73963790D01*
X57112652Y-73941736D01*
X57048886Y-73908600D01*
X57001548Y-73862847D01*
X56968618Y-73802939D01*
X56962892Y-73787061D01*
X56957279Y-73762333D01*
X56959709Y-73737902D01*
X56971533Y-73705400D01*
X56978660Y-73689434D01*
X57002000Y-73647006D01*
X57030120Y-73617240D01*
X57061060Y-73596511D01*
X57123034Y-73569537D01*
X57202349Y-73549998D01*
X57294747Y-73538746D01*
X57361667Y-73536270D01*
X57449156Y-73535822D01*
X57449156Y-73976089D01*
X57605775Y-73976089D01*
X57606332Y-73955021D01*
X57606950Y-73894311D01*
X57607175Y-73815526D01*
X57607200Y-73753920D01*
X57607200Y-73444485D01*
X57579491Y-73416776D01*
X57567194Y-73405544D01*
X57553897Y-73397853D01*
X57535328Y-73393040D01*
X57507214Y-73390446D01*
X57465283Y-73389410D01*
X57405263Y-73389270D01*
X57401691Y-73389275D01*
G37*
X57401691Y-73389275D02*
X57272712Y-73393636D01*
X57163009Y-73406861D01*
X57070774Y-73429741D01*
X56994198Y-73463070D01*
X56931473Y-73507638D01*
X56880788Y-73564236D01*
X56840337Y-73633658D01*
X56839541Y-73635351D01*
X56815399Y-73697483D01*
X56806797Y-73752509D01*
X56813769Y-73807887D01*
X56836346Y-73871073D01*
X56840628Y-73880689D01*
X56869828Y-73936966D01*
X56902644Y-73980451D01*
X56944998Y-74017417D01*
X57002810Y-74054135D01*
X57006169Y-74056052D01*
X57056496Y-74080227D01*
X57113379Y-74098282D01*
X57180473Y-74110839D01*
X57261435Y-74118522D01*
X57359918Y-74121953D01*
X57394714Y-74122251D01*
X57560406Y-74122845D01*
X57583803Y-74093100D01*
X57590743Y-74083319D01*
X57596158Y-74071897D01*
X57600235Y-74056095D01*
X57603163Y-74033175D01*
X57605133Y-74000396D01*
X57605775Y-73976089D01*
X57449156Y-73976089D01*
X57355274Y-73976089D01*
X57300336Y-73974483D01*
X57243940Y-73970255D01*
X57197655Y-73964292D01*
X57194861Y-73963790D01*
X57112652Y-73941736D01*
X57048886Y-73908600D01*
X57001548Y-73862847D01*
X56968618Y-73802939D01*
X56962892Y-73787061D01*
X56957279Y-73762333D01*
X56959709Y-73737902D01*
X56971533Y-73705400D01*
X56978660Y-73689434D01*
X57002000Y-73647006D01*
X57030120Y-73617240D01*
X57061060Y-73596511D01*
X57123034Y-73569537D01*
X57202349Y-73549998D01*
X57294747Y-73538746D01*
X57361667Y-73536270D01*
X57449156Y-73535822D01*
X57449156Y-73976089D01*
X57605775Y-73976089D01*
X57606332Y-73955021D01*
X57606950Y-73894311D01*
X57607175Y-73815526D01*
X57607200Y-73753920D01*
X57607200Y-73444485D01*
X57579491Y-73416776D01*
X57567194Y-73405544D01*
X57553897Y-73397853D01*
X57535328Y-73393040D01*
X57507214Y-73390446D01*
X57465283Y-73389410D01*
X57405263Y-73389270D01*
X57401691Y-73389275D01*
G36*
X54675335Y-73391034D02*
G01*
X54655745Y-73398035D01*
X54654990Y-73398377D01*
X54628387Y-73418678D01*
X54613730Y-73439561D01*
X54610862Y-73449352D01*
X54611004Y-73462361D01*
X54615039Y-73480895D01*
X54623854Y-73507257D01*
X54638331Y-73543752D01*
X54659355Y-73592687D01*
X54687812Y-73656365D01*
X54724585Y-73737093D01*
X54744825Y-73781216D01*
X54781375Y-73859985D01*
X54815685Y-73932423D01*
X54846448Y-73995880D01*
X54872352Y-74047708D01*
X54892090Y-74085259D01*
X54904350Y-74105884D01*
X54906776Y-74108733D01*
X54937817Y-74121302D01*
X54972879Y-74119619D01*
X55001000Y-74104332D01*
X55002146Y-74103089D01*
X55013332Y-74086154D01*
X55032096Y-74053170D01*
X55056125Y-74008380D01*
X55083103Y-73956032D01*
X55092799Y-73936742D01*
X55165986Y-73790150D01*
X55245760Y-73949393D01*
X55274233Y-74004415D01*
X55300650Y-74052132D01*
X55322852Y-74088893D01*
X55338681Y-74111044D01*
X55344046Y-74115741D01*
X55385743Y-74122102D01*
X55420151Y-74108733D01*
X55430272Y-74094446D01*
X55447786Y-74062692D01*
X55471265Y-74016597D01*
X55499280Y-73959285D01*
X55530401Y-73893880D01*
X55563201Y-73823507D01*
X55596250Y-73751291D01*
X55628119Y-73680355D01*
X55657381Y-73613825D01*
X55682605Y-73554826D01*
X55702364Y-73506481D01*
X55715228Y-73471915D01*
X55719769Y-73454253D01*
X55719723Y-73453613D01*
X55708674Y-73431388D01*
X55686590Y-73408753D01*
X55685290Y-73407768D01*
X55658147Y-73392425D01*
X55633042Y-73392574D01*
X55623632Y-73395466D01*
X55612166Y-73401718D01*
X55599990Y-73414014D01*
X55585643Y-73434908D01*
X55567664Y-73466949D01*
X55544593Y-73512688D01*
X55514970Y-73574677D01*
X55488255Y-73631898D01*
X55457520Y-73698226D01*
X55429979Y-73757874D01*
X55407062Y-73807725D01*
X55390202Y-73844664D01*
X55380827Y-73865573D01*
X55379460Y-73868845D01*
X55373311Y-73863497D01*
X55359178Y-73841109D01*
X55338943Y-73804946D01*
X55314485Y-73758277D01*
X55304752Y-73739022D01*
X55271783Y-73674004D01*
X55246357Y-73626654D01*
X55226388Y-73594219D01*
X55209790Y-73573946D01*
X55194476Y-73563082D01*
X55178360Y-73558875D01*
X55167857Y-73558400D01*
X55149330Y-73560042D01*
X55133096Y-73566831D01*
X55116965Y-73581566D01*
X55098749Y-73607044D01*
X55076261Y-73646061D01*
X55047311Y-73701414D01*
X55031338Y-73732903D01*
X55005430Y-73783087D01*
X54982833Y-73824704D01*
X54965542Y-73854242D01*
X54955550Y-73868189D01*
X54954191Y-73868770D01*
X54947739Y-73857793D01*
X54933292Y-73829290D01*
X54912297Y-73786244D01*
X54886203Y-73731638D01*
X54856454Y-73668454D01*
X54841820Y-73637071D01*
X54803750Y-73556078D01*
X54773095Y-73493756D01*
X54748263Y-73448071D01*
X54727663Y-73416989D01*
X54709702Y-73398478D01*
X54692790Y-73390504D01*
X54675335Y-73391034D01*
G37*
X54675335Y-73391034D02*
X54655745Y-73398035D01*
X54654990Y-73398377D01*
X54628387Y-73418678D01*
X54613730Y-73439561D01*
X54610862Y-73449352D01*
X54611004Y-73462361D01*
X54615039Y-73480895D01*
X54623854Y-73507257D01*
X54638331Y-73543752D01*
X54659355Y-73592687D01*
X54687812Y-73656365D01*
X54724585Y-73737093D01*
X54744825Y-73781216D01*
X54781375Y-73859985D01*
X54815685Y-73932423D01*
X54846448Y-73995880D01*
X54872352Y-74047708D01*
X54892090Y-74085259D01*
X54904350Y-74105884D01*
X54906776Y-74108733D01*
X54937817Y-74121302D01*
X54972879Y-74119619D01*
X55001000Y-74104332D01*
X55002146Y-74103089D01*
X55013332Y-74086154D01*
X55032096Y-74053170D01*
X55056125Y-74008380D01*
X55083103Y-73956032D01*
X55092799Y-73936742D01*
X55165986Y-73790150D01*
X55245760Y-73949393D01*
X55274233Y-74004415D01*
X55300650Y-74052132D01*
X55322852Y-74088893D01*
X55338681Y-74111044D01*
X55344046Y-74115741D01*
X55385743Y-74122102D01*
X55420151Y-74108733D01*
X55430272Y-74094446D01*
X55447786Y-74062692D01*
X55471265Y-74016597D01*
X55499280Y-73959285D01*
X55530401Y-73893880D01*
X55563201Y-73823507D01*
X55596250Y-73751291D01*
X55628119Y-73680355D01*
X55657381Y-73613825D01*
X55682605Y-73554826D01*
X55702364Y-73506481D01*
X55715228Y-73471915D01*
X55719769Y-73454253D01*
X55719723Y-73453613D01*
X55708674Y-73431388D01*
X55686590Y-73408753D01*
X55685290Y-73407768D01*
X55658147Y-73392425D01*
X55633042Y-73392574D01*
X55623632Y-73395466D01*
X55612166Y-73401718D01*
X55599990Y-73414014D01*
X55585643Y-73434908D01*
X55567664Y-73466949D01*
X55544593Y-73512688D01*
X55514970Y-73574677D01*
X55488255Y-73631898D01*
X55457520Y-73698226D01*
X55429979Y-73757874D01*
X55407062Y-73807725D01*
X55390202Y-73844664D01*
X55380827Y-73865573D01*
X55379460Y-73868845D01*
X55373311Y-73863497D01*
X55359178Y-73841109D01*
X55338943Y-73804946D01*
X55314485Y-73758277D01*
X55304752Y-73739022D01*
X55271783Y-73674004D01*
X55246357Y-73626654D01*
X55226388Y-73594219D01*
X55209790Y-73573946D01*
X55194476Y-73563082D01*
X55178360Y-73558875D01*
X55167857Y-73558400D01*
X55149330Y-73560042D01*
X55133096Y-73566831D01*
X55116965Y-73581566D01*
X55098749Y-73607044D01*
X55076261Y-73646061D01*
X55047311Y-73701414D01*
X55031338Y-73732903D01*
X55005430Y-73783087D01*
X54982833Y-73824704D01*
X54965542Y-73854242D01*
X54955550Y-73868189D01*
X54954191Y-73868770D01*
X54947739Y-73857793D01*
X54933292Y-73829290D01*
X54912297Y-73786244D01*
X54886203Y-73731638D01*
X54856454Y-73668454D01*
X54841820Y-73637071D01*
X54803750Y-73556078D01*
X54773095Y-73493756D01*
X54748263Y-73448071D01*
X54727663Y-73416989D01*
X54709702Y-73398478D01*
X54692790Y-73390504D01*
X54675335Y-73391034D01*
G36*
X54231386Y-73395877D02*
G01*
X54207673Y-73410647D01*
X54181022Y-73432227D01*
X54181022Y-73753773D01*
X54181107Y-73847830D01*
X54181471Y-73921932D01*
X54182276Y-73978704D01*
X54183687Y-74020768D01*
X54185867Y-74050748D01*
X54188979Y-74071267D01*
X54193186Y-74084949D01*
X54198652Y-74094416D01*
X54202528Y-74099082D01*
X54233966Y-74119575D01*
X54269767Y-74118739D01*
X54301127Y-74101264D01*
X54327778Y-74079684D01*
X54327778Y-73432227D01*
X54301127Y-73410647D01*
X54275406Y-73394949D01*
X54254400Y-73389067D01*
X54231386Y-73395877D01*
G37*
X54231386Y-73395877D02*
X54207673Y-73410647D01*
X54181022Y-73432227D01*
X54181022Y-73753773D01*
X54181107Y-73847830D01*
X54181471Y-73921932D01*
X54182276Y-73978704D01*
X54183687Y-74020768D01*
X54185867Y-74050748D01*
X54188979Y-74071267D01*
X54193186Y-74084949D01*
X54198652Y-74094416D01*
X54202528Y-74099082D01*
X54233966Y-74119575D01*
X54269767Y-74118739D01*
X54301127Y-74101264D01*
X54327778Y-74079684D01*
X54327778Y-73432227D01*
X54301127Y-73410647D01*
X54275406Y-73394949D01*
X54254400Y-73389067D01*
X54231386Y-73395877D01*
G36*
X53456935Y-73389163D02*
G01*
X53378228Y-73389542D01*
X53317137Y-73390333D01*
X53271183Y-73391670D01*
X53237886Y-73393683D01*
X53214764Y-73396506D01*
X53199338Y-73400269D01*
X53189129Y-73405105D01*
X53184187Y-73408822D01*
X53158543Y-73441358D01*
X53155441Y-73475138D01*
X53171289Y-73505826D01*
X53181652Y-73518089D01*
X53192804Y-73526450D01*
X53208965Y-73531657D01*
X53234358Y-73534457D01*
X53273202Y-73535596D01*
X53329720Y-73535821D01*
X53340820Y-73535822D01*
X53486756Y-73535822D01*
X53486756Y-73806756D01*
X53486852Y-73892154D01*
X53487289Y-73957864D01*
X53488288Y-74006774D01*
X53490072Y-74041773D01*
X53492863Y-74065749D01*
X53496883Y-74081593D01*
X53502355Y-74092191D01*
X53509334Y-74100267D01*
X53542266Y-74120112D01*
X53576646Y-74118548D01*
X53607824Y-74095906D01*
X53610114Y-74093100D01*
X53617571Y-74082492D01*
X53623253Y-74070081D01*
X53627399Y-74052850D01*
X53630250Y-74027784D01*
X53632046Y-73991867D01*
X53633028Y-73942083D01*
X53633436Y-73875417D01*
X53633511Y-73799589D01*
X53633511Y-73535822D01*
X53772873Y-73535822D01*
X53832678Y-73535418D01*
X53874082Y-73533840D01*
X53901252Y-73530547D01*
X53918354Y-73524992D01*
X53929557Y-73516631D01*
X53930917Y-73515178D01*
X53947275Y-73481939D01*
X53945828Y-73444362D01*
X53927022Y-73411645D01*
X53919750Y-73405298D01*
X53910373Y-73400266D01*
X53896391Y-73396396D01*
X53875304Y-73393537D01*
X53844611Y-73391535D01*
X53801811Y-73390239D01*
X53744405Y-73389498D01*
X53669890Y-73389158D01*
X53575767Y-73389068D01*
X53555740Y-73389067D01*
X53456935Y-73389163D01*
G37*
X53456935Y-73389163D02*
X53378228Y-73389542D01*
X53317137Y-73390333D01*
X53271183Y-73391670D01*
X53237886Y-73393683D01*
X53214764Y-73396506D01*
X53199338Y-73400269D01*
X53189129Y-73405105D01*
X53184187Y-73408822D01*
X53158543Y-73441358D01*
X53155441Y-73475138D01*
X53171289Y-73505826D01*
X53181652Y-73518089D01*
X53192804Y-73526450D01*
X53208965Y-73531657D01*
X53234358Y-73534457D01*
X53273202Y-73535596D01*
X53329720Y-73535821D01*
X53340820Y-73535822D01*
X53486756Y-73535822D01*
X53486756Y-73806756D01*
X53486852Y-73892154D01*
X53487289Y-73957864D01*
X53488288Y-74006774D01*
X53490072Y-74041773D01*
X53492863Y-74065749D01*
X53496883Y-74081593D01*
X53502355Y-74092191D01*
X53509334Y-74100267D01*
X53542266Y-74120112D01*
X53576646Y-74118548D01*
X53607824Y-74095906D01*
X53610114Y-74093100D01*
X53617571Y-74082492D01*
X53623253Y-74070081D01*
X53627399Y-74052850D01*
X53630250Y-74027784D01*
X53632046Y-73991867D01*
X53633028Y-73942083D01*
X53633436Y-73875417D01*
X53633511Y-73799589D01*
X53633511Y-73535822D01*
X53772873Y-73535822D01*
X53832678Y-73535418D01*
X53874082Y-73533840D01*
X53901252Y-73530547D01*
X53918354Y-73524992D01*
X53929557Y-73516631D01*
X53930917Y-73515178D01*
X53947275Y-73481939D01*
X53945828Y-73444362D01*
X53927022Y-73411645D01*
X53919750Y-73405298D01*
X53910373Y-73400266D01*
X53896391Y-73396396D01*
X53875304Y-73393537D01*
X53844611Y-73391535D01*
X53801811Y-73390239D01*
X53744405Y-73389498D01*
X53669890Y-73389158D01*
X53575767Y-73389068D01*
X53555740Y-73389067D01*
X53456935Y-73389163D01*
G36*
X52191177Y-73394533D02*
G01*
X52159798Y-73416776D01*
X52132089Y-73444485D01*
X52132089Y-73753920D01*
X52132162Y-73845799D01*
X52132505Y-73917840D01*
X52133308Y-73972780D01*
X52134759Y-74013360D01*
X52137048Y-74042317D01*
X52140364Y-74062391D01*
X52144895Y-74076321D01*
X52150831Y-74086845D01*
X52155486Y-74093100D01*
X52186217Y-74117673D01*
X52221504Y-74120341D01*
X52253755Y-74105271D01*
X52264412Y-74096374D01*
X52271536Y-74084557D01*
X52275833Y-74065526D01*
X52278009Y-74034992D01*
X52278772Y-73988662D01*
X52278845Y-73952871D01*
X52278845Y-73818045D01*
X52775556Y-73818045D01*
X52775556Y-73940700D01*
X52776069Y-73996787D01*
X52778124Y-74035333D01*
X52782492Y-74061361D01*
X52789944Y-74079897D01*
X52798953Y-74093100D01*
X52829856Y-74117604D01*
X52864804Y-74120506D01*
X52898262Y-74103089D01*
X52907396Y-74093959D01*
X52913848Y-74081855D01*
X52918103Y-74063001D01*
X52920648Y-74033620D01*
X52921971Y-73989937D01*
X52922557Y-73928175D01*
X52922625Y-73914000D01*
X52923109Y-73797631D01*
X52923359Y-73701727D01*
X52923277Y-73624177D01*
X52922769Y-73562869D01*
X52921738Y-73515690D01*
X52920087Y-73480530D01*
X52917721Y-73455276D01*
X52914543Y-73437817D01*
X52910456Y-73426041D01*
X52905366Y-73417835D01*
X52899734Y-73411645D01*
X52867872Y-73391844D01*
X52834643Y-73394533D01*
X52803265Y-73416776D01*
X52790567Y-73431126D01*
X52782474Y-73446978D01*
X52777958Y-73469554D01*
X52775994Y-73504078D01*
X52775556Y-73555776D01*
X52775556Y-73671289D01*
X52278845Y-73671289D01*
X52278845Y-73552756D01*
X52278338Y-73498148D01*
X52276302Y-73461275D01*
X52271965Y-73437307D01*
X52264553Y-73421415D01*
X52256267Y-73411645D01*
X52224406Y-73391844D01*
X52191177Y-73394533D01*
G37*
X52191177Y-73394533D02*
X52159798Y-73416776D01*
X52132089Y-73444485D01*
X52132089Y-73753920D01*
X52132162Y-73845799D01*
X52132505Y-73917840D01*
X52133308Y-73972780D01*
X52134759Y-74013360D01*
X52137048Y-74042317D01*
X52140364Y-74062391D01*
X52144895Y-74076321D01*
X52150831Y-74086845D01*
X52155486Y-74093100D01*
X52186217Y-74117673D01*
X52221504Y-74120341D01*
X52253755Y-74105271D01*
X52264412Y-74096374D01*
X52271536Y-74084557D01*
X52275833Y-74065526D01*
X52278009Y-74034992D01*
X52278772Y-73988662D01*
X52278845Y-73952871D01*
X52278845Y-73818045D01*
X52775556Y-73818045D01*
X52775556Y-73940700D01*
X52776069Y-73996787D01*
X52778124Y-74035333D01*
X52782492Y-74061361D01*
X52789944Y-74079897D01*
X52798953Y-74093100D01*
X52829856Y-74117604D01*
X52864804Y-74120506D01*
X52898262Y-74103089D01*
X52907396Y-74093959D01*
X52913848Y-74081855D01*
X52918103Y-74063001D01*
X52920648Y-74033620D01*
X52921971Y-73989937D01*
X52922557Y-73928175D01*
X52922625Y-73914000D01*
X52923109Y-73797631D01*
X52923359Y-73701727D01*
X52923277Y-73624177D01*
X52922769Y-73562869D01*
X52921738Y-73515690D01*
X52920087Y-73480530D01*
X52917721Y-73455276D01*
X52914543Y-73437817D01*
X52910456Y-73426041D01*
X52905366Y-73417835D01*
X52899734Y-73411645D01*
X52867872Y-73391844D01*
X52834643Y-73394533D01*
X52803265Y-73416776D01*
X52790567Y-73431126D01*
X52782474Y-73446978D01*
X52777958Y-73469554D01*
X52775994Y-73504078D01*
X52775556Y-73555776D01*
X52775556Y-73671289D01*
X52278845Y-73671289D01*
X52278845Y-73552756D01*
X52278338Y-73498148D01*
X52276302Y-73461275D01*
X52271965Y-73437307D01*
X52264553Y-73421415D01*
X52256267Y-73411645D01*
X52224406Y-73391844D01*
X52191177Y-73394533D01*
%LPC*%
D12*
X68000000Y-54000000D03*
D13*
X66000000Y-54000000D03*
D12*
X68000000Y-62000000D03*
D13*
X66000000Y-62000000D03*
D12*
X110000000Y-114500000D03*
X110000000Y-112000000D03*
X87000000Y-74500000D03*
X87000000Y-77000000D03*
D14*
X59000000Y-114540000D03*
D12*
X59000000Y-112000000D03*
D14*
X73000000Y-115020000D03*
X73000000Y-112480000D03*
X73000000Y-109940000D03*
X73000000Y-107400000D03*
X73000000Y-104860000D03*
X73000000Y-102320000D03*
X73000000Y-99780000D03*
X73000000Y-97240000D03*
X73000000Y-94700000D03*
X73000000Y-92160000D03*
X73000000Y-89620000D03*
X73000000Y-87080000D03*
X73000000Y-84540000D03*
D13*
X73000000Y-82000000D03*
D14*
X124000000Y-34000000D03*
D12*
X121460000Y-34000000D03*
D14*
X149830000Y-116000000D03*
D12*
X152370000Y-116000000D03*
D15*
X156460000Y-116000000D03*
D16*
X159000000Y-116000000D03*
D17*
X59000000Y-107000000D03*
D18*
X59000000Y-104460000D03*
D12*
X62230000Y-91280000D03*
D13*
X62230000Y-89280000D03*
D12*
X54610000Y-91280000D03*
D13*
X54610000Y-89280000D03*
D19*
X161000000Y-34000000D03*
X34000000Y-34000000D03*
X161000000Y-126000000D03*
X34000000Y-126000000D03*
D14*
X114000000Y-46700000D03*
X114000000Y-44160000D03*
X114000000Y-41620000D03*
X114000000Y-39080000D03*
X114000000Y-36540000D03*
D13*
X114000000Y-34000000D03*
D14*
X59000000Y-33300000D03*
X59000000Y-35840000D03*
X59000000Y-38380000D03*
X59000000Y-40920000D03*
X59000000Y-43460000D03*
D13*
X59000000Y-46000000D03*
D18*
X138910000Y-46880000D03*
D17*
X136370000Y-46880000D03*
D18*
X41080000Y-94000000D03*
X38540000Y-94000000D03*
D17*
X36000000Y-94000000D03*
D12*
X105500000Y-34000000D03*
X108000000Y-34000000D03*
X127500000Y-34000000D03*
X130000000Y-34000000D03*
X66500000Y-33000000D03*
X69000000Y-33000000D03*
X103000000Y-61500000D03*
X103000000Y-59000000D03*
X50500000Y-116000000D03*
X53000000Y-116000000D03*
X52500000Y-98000000D03*
X50000000Y-98000000D03*
D20*
X142240000Y-65000000D03*
X127000000Y-103100000D03*
X142240000Y-67540000D03*
X127000000Y-100560000D03*
X142240000Y-70080000D03*
X127000000Y-98020000D03*
X142240000Y-72620000D03*
X127000000Y-95480000D03*
X142240000Y-75160000D03*
X127000000Y-92940000D03*
X142240000Y-77700000D03*
X127000000Y-90400000D03*
X142240000Y-80240000D03*
X127000000Y-87860000D03*
X142240000Y-82780000D03*
X127000000Y-85320000D03*
X142240000Y-85320000D03*
X127000000Y-82780000D03*
X142240000Y-87860000D03*
X127000000Y-80240000D03*
X142240000Y-90400000D03*
X127000000Y-77700000D03*
X142240000Y-92940000D03*
X127000000Y-75160000D03*
X142240000Y-95480000D03*
X127000000Y-72620000D03*
X142240000Y-98020000D03*
X127000000Y-70080000D03*
X142240000Y-100560000D03*
X127000000Y-67540000D03*
X142240000Y-103100000D03*
D21*
X127000000Y-65000000D03*
G36*
G01*
X35250000Y-86575000D02*
X35250000Y-84825000D01*
G75*
G02*
X36125000Y-83950000I875000J0D01*
G01*
X37875000Y-83950000D01*
G75*
G02*
X38750000Y-84825000I0J-875000D01*
G01*
X38750000Y-86575000D01*
G75*
G02*
X37875000Y-87450000I-875000J0D01*
G01*
X36125000Y-87450000D01*
G75*
G02*
X35250000Y-86575000I0J875000D01*
G01*
G37*
G36*
G01*
X32500000Y-82000000D02*
X32500000Y-80000000D01*
G75*
G02*
X33250000Y-79250000I750000J0D01*
G01*
X34750000Y-79250000D01*
G75*
G02*
X35500000Y-80000000I0J-750000D01*
G01*
X35500000Y-82000000D01*
G75*
G02*
X34750000Y-82750000I-750000J0D01*
G01*
X33250000Y-82750000D01*
G75*
G02*
X32500000Y-82000000I0J750000D01*
G01*
G37*
D22*
X40000000Y-81000000D03*
D23*
X33840000Y-71000000D03*
D24*
X44000000Y-71000000D03*
D14*
X158000000Y-69380000D03*
X158000000Y-71920000D03*
X158000000Y-74460000D03*
D13*
X158000000Y-77000000D03*
D12*
X84760000Y-111000000D03*
X84760000Y-118620000D03*
X100000000Y-118620000D03*
D13*
X100000000Y-111000000D03*
D20*
X129620000Y-39000000D03*
X122000000Y-46620000D03*
X129620000Y-41540000D03*
X122000000Y-44080000D03*
X129620000Y-44080000D03*
X122000000Y-41540000D03*
X129620000Y-46620000D03*
D21*
X122000000Y-39000000D03*
D25*
X117000000Y-112380000D03*
X139860000Y-120000000D03*
X119540000Y-112380000D03*
X137320000Y-120000000D03*
X122080000Y-112380000D03*
X134780000Y-120000000D03*
X124620000Y-112380000D03*
X132240000Y-120000000D03*
X127160000Y-112380000D03*
X129700000Y-120000000D03*
X129700000Y-112380000D03*
X127160000Y-120000000D03*
X132240000Y-112380000D03*
X124620000Y-120000000D03*
X134780000Y-112380000D03*
X122080000Y-120000000D03*
X137320000Y-112380000D03*
X119540000Y-120000000D03*
X139860000Y-112380000D03*
D26*
X117000000Y-120000000D03*
D27*
X150500000Y-102000000D03*
X150500000Y-97500000D03*
X157000000Y-102000000D03*
X157000000Y-97500000D03*
D18*
X138910000Y-42080000D03*
X136370000Y-42080000D03*
X138910000Y-39540000D03*
X136370000Y-39540000D03*
X138910000Y-37000000D03*
D17*
X136370000Y-37000000D03*
D18*
X95810000Y-33864000D03*
X93270000Y-33864000D03*
X90730000Y-33864000D03*
X88190000Y-33864000D03*
X85650000Y-33864000D03*
X83110000Y-33864000D03*
X80570000Y-33864000D03*
D17*
X78030000Y-33864000D03*
D19*
X37290000Y-100730000D03*
X37290000Y-112770000D03*
D28*
X40000000Y-108000000D03*
X40000000Y-105500000D03*
X42000000Y-105500000D03*
D17*
X42000000Y-108000000D03*
D12*
X152500000Y-75280000D03*
X150000000Y-75280000D03*
X158000000Y-82500000D03*
X158000000Y-85000000D03*
X152500000Y-70000000D03*
X150000000Y-70000000D03*
X152500000Y-65000000D03*
X150000000Y-65000000D03*
D14*
X95810000Y-38182000D03*
X93270000Y-38182000D03*
X90730000Y-38182000D03*
X88190000Y-38182000D03*
X85650000Y-38182000D03*
X83110000Y-38182000D03*
X80570000Y-38182000D03*
X78030000Y-38182000D03*
D13*
X75490000Y-38182000D03*
D14*
X95810000Y-46546000D03*
X93270000Y-46546000D03*
X90730000Y-46546000D03*
X88190000Y-46546000D03*
X85650000Y-46546000D03*
X83110000Y-46546000D03*
X80570000Y-46546000D03*
X78030000Y-46546000D03*
D13*
X75490000Y-46546000D03*
D18*
X95810000Y-42482000D03*
X93270000Y-42482000D03*
X90730000Y-42482000D03*
X88190000Y-42482000D03*
X85650000Y-42482000D03*
X83110000Y-42482000D03*
X80570000Y-42482000D03*
D17*
X78030000Y-42482000D03*
D15*
X80000000Y-72460000D03*
D16*
X80000000Y-75000000D03*
D15*
X74000000Y-72460000D03*
D16*
X74000000Y-75000000D03*
D12*
X117500000Y-70000000D03*
X120000000Y-70000000D03*
X139500000Y-59000000D03*
X142000000Y-59000000D03*
M02*
