M48
; DRILL file {KiCad (5.1.10)-1} date 06/26/22 08:25:18
; FORMAT={-:-/ absolute / metric / decimal}
; #@! TF.CreationDate,2022-06-26T08:25:18-05:00
; #@! TF.GenerationSoftware,Kicad,Pcbnew,(5.1.10)-1
; #@! TF.FileFunction,Plated,1,2,PTH
FMAT,2
METRIC
T1C0.400
T2C0.800
T3C0.900
T4C0.920
T5C1.000
T6C1.100
T7C2.330
%
G90
G05
T1
X39.25Y-35.25
X46.111Y-107.0
X56.25Y-108.5
X57.27Y-42.27
X61.54Y-38.46
X66.617Y-39.383
X67.0Y-41.5
X67.0Y-45.75
X67.555Y-82.0
X69.596Y-83.566
X69.61Y-77.37
X70.714Y-86.004
X70.734Y-101.394
X71.068Y-96.115
X71.565Y-36.565
X73.5Y-42.5
X74.934Y-77.716
X75.065Y-101.937
X75.997Y-100.716
X76.352Y-72.492
X76.75Y-40.5
X77.165Y-88.951
X77.453Y-118.5
X77.799Y-87.4
X77.853Y-93.8
X78.181Y-59.588
X78.181Y-124.612
X78.362Y-97.0
X78.384Y-107.696
X79.892Y-109.399
X80.01Y-81.788
X80.4Y-98.201
X81.636Y-121.615
X82.238Y-92.727
X82.448Y-58.064
X82.55Y-85.395
X83.007Y-120.091
X83.352Y-77.445
X83.47Y-51.119
X83.744Y-63.354
X84.153Y-74.218
X84.163Y-65.493
X84.328Y-85.903
X84.38Y-48.14
X84.938Y-55.016
X85.141Y-88.9
X85.885Y-123.629
X86.335Y-86.129
X87.093Y-67.63
X87.224Y-91.592
X87.394Y-93.704
X87.92Y-89.38
X88.006Y-63.512
X88.087Y-52.166
X88.25Y-50.75
X88.251Y-59.563
X88.839Y-64.664
X88.902Y-101.659
X89.085Y-61.533
X90.6Y-96.899
X90.662Y-61.508
X90.858Y-90.6
X90.911Y-51.786
X91.075Y-78.085
X91.457Y-66.319
X92.07Y-86.07
X92.074Y-118.366
X92.393Y-53.981
X92.681Y-66.225
X92.8Y-69.608
X92.8Y-74.512
X93.25Y-85.0
X93.25Y-107.0
X94.004Y-66.209
X94.206Y-90.6
X94.206Y-127.706
X94.22Y-51.948
X95.0Y-85.0
X95.0Y-104.5
X95.734Y-95.051
X95.774Y-54.472
X95.84Y-57.72
X95.94Y-64.63
X95.96Y-62.3
X96.001Y-101.092
X96.001Y-116.701
X96.087Y-78.021
X96.463Y-87.377
X96.655Y-79.266
X96.746Y-94.254
X96.888Y-67.431
X97.61Y-93.31
X98.095Y-86.5
X98.5Y-46.0
X99.35Y-94.72
X99.5Y-40.5
X99.599Y-96.781
X99.9Y-77.61
X100.273Y-92.127
X100.838Y-46.482
X100.85Y-105.65
X102.061Y-80.781
X102.311Y-81.847
X102.8Y-101.0
X102.879Y-72.748
X103.468Y-79.612
X104.245Y-99.055
X104.406Y-87.018
X105.14Y-90.42
X105.39Y-85.87
X105.59Y-92.08
X105.59Y-126.55
X105.75Y-40.5
X105.75Y-43.5
X106.72Y-70.6
X106.947Y-91.903
X107.572Y-100.072
X107.699Y-94.659
X108.04Y-72.19
X108.71Y-86.93
X108.71Y-89.2
X108.8Y-82.27
X108.8Y-84.61
X108.93Y-118.62
X110.02Y-63.04
X110.02Y-68.92
X110.02Y-74.99
X110.08Y-86.86
X110.5Y-39.25
X111.49Y-64.5
X111.5Y-48.0
X111.5Y-50.75
X111.78Y-92.48
X112.0Y-40.25
X113.9Y-62.1
X113.9Y-69.6
X113.99Y-105.86
X114.67Y-58.21
X115.2Y-91.14
X115.685Y-74.015
X116.055Y-89.255
X116.2Y-97.4
X116.47Y-70.66
X116.825Y-76.555
X117.4Y-88.0
X117.4Y-94.4
X117.71Y-71.88
X118.415Y-114.915
X118.75Y-44.0
X119.315Y-93.75
X119.34Y-67.03
X119.405Y-72.745
X119.5Y-49.25
X119.8Y-95.9
X120.215Y-87.985
X121.545Y-89.255
X121.545Y-99.055
X121.83Y-74.76
X121.914Y-84.264
X123.0Y-101.0
X123.025Y-90.525
X123.06Y-71.48
X123.11Y-84.275
X123.875Y-77.245
X124.055Y-74.015
X124.243Y-98.188
X126.75Y-40.25
X126.97Y-59.6
X127.5Y-93.7
X127.662Y-73.418
X127.85Y-106.07
X127.955Y-76.555
X128.27Y-79.96
X128.57Y-65.83
X128.75Y-73.44
X128.96Y-88.13
X129.69Y-103.66
X134.76Y-86.31
X134.76Y-89.91
X136.48Y-79.95
X148.793Y-93.488
X151.95Y-120.27
X153.95Y-78.81
X156.635Y-89.095
X158.02Y-78.94
X159.02Y-77.3
T2
X50.0Y-98.0
X50.5Y-116.0
X52.5Y-98.0
X53.0Y-116.0
X54.61Y-89.28
X54.61Y-91.28
X59.0Y-33.3
X59.0Y-35.84
X59.0Y-38.38
X59.0Y-40.92
X59.0Y-43.46
X59.0Y-46.0
X59.0Y-112.0
X59.0Y-114.54
X62.23Y-89.28
X62.23Y-91.28
X66.0Y-54.0
X66.0Y-62.0
X66.5Y-33.0
X68.0Y-54.0
X68.0Y-62.0
X69.0Y-33.0
X73.0Y-82.0
X73.0Y-84.54
X73.0Y-87.08
X73.0Y-89.62
X73.0Y-92.16
X73.0Y-94.7
X73.0Y-97.24
X73.0Y-99.78
X73.0Y-102.32
X73.0Y-104.86
X73.0Y-107.4
X73.0Y-109.94
X73.0Y-112.48
X73.0Y-115.02
X75.49Y-38.182
X75.49Y-46.546
X78.03Y-38.182
X78.03Y-46.546
X80.57Y-38.182
X80.57Y-46.546
X83.11Y-38.182
X83.11Y-46.546
X84.76Y-111.0
X84.76Y-118.62
X85.65Y-38.182
X85.65Y-46.546
X87.0Y-74.5
X87.0Y-77.0
X88.19Y-38.182
X88.19Y-46.546
X90.73Y-38.182
X90.73Y-46.546
X93.27Y-38.182
X93.27Y-46.546
X95.81Y-38.182
X95.81Y-46.546
X100.0Y-111.0
X100.0Y-118.62
X103.0Y-59.0
X103.0Y-61.5
X105.5Y-34.0
X108.0Y-34.0
X110.0Y-112.0
X110.0Y-114.5
X114.0Y-34.0
X114.0Y-36.54
X114.0Y-39.08
X114.0Y-41.62
X114.0Y-44.16
X114.0Y-46.7
X117.0Y-112.38
X117.0Y-120.0
X119.54Y-112.38
X119.54Y-120.0
X121.46Y-34.0
X122.0Y-39.0
X122.0Y-41.54
X122.0Y-44.08
X122.0Y-46.62
X122.0Y-67.0
X122.08Y-112.38
X122.08Y-120.0
X124.0Y-34.0
X124.5Y-67.0
X124.62Y-112.38
X124.62Y-120.0
X127.16Y-112.38
X127.16Y-120.0
X127.5Y-34.0
X129.62Y-39.0
X129.62Y-41.54
X129.62Y-44.08
X129.62Y-46.62
X129.7Y-112.38
X129.7Y-120.0
X130.0Y-34.0
X131.5Y-62.0
X131.5Y-64.54
X131.5Y-67.08
X131.5Y-69.62
X131.5Y-72.16
X131.5Y-74.7
X131.5Y-77.24
X131.5Y-79.78
X131.5Y-82.32
X131.5Y-84.86
X131.5Y-87.4
X131.5Y-89.94
X131.5Y-92.48
X131.5Y-95.02
X131.5Y-97.56
X131.5Y-100.1
X132.24Y-112.38
X132.24Y-120.0
X134.78Y-112.38
X134.78Y-120.0
X137.32Y-112.38
X137.32Y-120.0
X139.86Y-112.38
X139.86Y-120.0
X144.0Y-56.0
X146.5Y-56.0
X146.74Y-62.0
X146.74Y-64.54
X146.74Y-67.08
X146.74Y-69.62
X146.74Y-72.16
X146.74Y-74.7
X146.74Y-77.24
X146.74Y-79.78
X146.74Y-82.32
X146.74Y-84.86
X146.74Y-87.4
X146.74Y-89.94
X146.74Y-92.48
X146.74Y-95.02
X146.74Y-97.56
X146.74Y-100.1
X149.83Y-116.0
X151.5Y-62.0
X151.5Y-67.0
X151.5Y-72.28
X152.37Y-116.0
X154.0Y-62.0
X154.0Y-67.0
X154.0Y-72.28
X157.0Y-57.0
X159.5Y-57.0
X159.5Y-64.38
X159.5Y-66.92
X159.5Y-69.46
X159.5Y-72.0
T3
X74.0Y-72.46
X74.0Y-75.0
X80.0Y-72.46
X80.0Y-75.0
X156.46Y-116.0
X159.0Y-116.0
T4
X40.0Y-105.5
X40.0Y-108.0
X42.0Y-105.5
X42.0Y-108.0
T5
X36.0Y-94.0
X38.54Y-94.0
X41.08Y-94.0
X59.0Y-104.46
X59.0Y-107.0
X78.03Y-33.864
X78.03Y-42.482
X80.57Y-33.864
X80.57Y-42.482
X83.11Y-33.864
X83.11Y-42.482
X85.65Y-33.864
X85.65Y-42.482
X88.19Y-33.864
X88.19Y-42.482
X90.73Y-33.864
X90.73Y-42.482
X93.27Y-33.864
X93.27Y-42.482
X95.81Y-33.864
X95.81Y-42.482
X136.37Y-37.0
X136.37Y-39.54
X136.37Y-42.08
X136.37Y-46.88
X138.91Y-37.0
X138.91Y-39.54
X138.91Y-42.08
X138.91Y-46.88
T6
X33.84Y-71.0
X44.0Y-71.0
X152.5Y-93.0
X152.5Y-97.5
X159.0Y-93.0
X159.0Y-97.5
T7
X37.29Y-100.73
X37.29Y-112.77
T5
X34.0Y-80.0G85X34.0Y-82.0
G05
X36.0Y-85.7G85X38.0Y-85.7
G05
X40.0Y-80.0G85X40.0Y-82.0
G05
T0
M30
