G04 #@! TF.GenerationSoftware,KiCad,Pcbnew,(5.1.10)-1*
G04 #@! TF.CreationDate,2022-05-28T18:59:37-05:00*
G04 #@! TF.ProjectId,z80vga,7a383076-6761-42e6-9b69-6361645f7063,rev?*
G04 #@! TF.SameCoordinates,Original*
G04 #@! TF.FileFunction,Soldermask,Bot*
G04 #@! TF.FilePolarity,Negative*
%FSLAX46Y46*%
G04 Gerber Fmt 4.6, Leading zero omitted, Abs format (unit mm)*
G04 Created by KiCad (PCBNEW (5.1.10)-1) date 2022-05-28 18:59:37*
%MOMM*%
%LPD*%
G01*
G04 APERTURE LIST*
%ADD10C,1.600000*%
%ADD11R,1.600000X1.600000*%
%ADD12O,1.600000X1.600000*%
%ADD13C,1.800000*%
%ADD14R,1.800000X1.800000*%
%ADD15R,1.700000X1.700000*%
%ADD16O,1.700000X1.700000*%
%ADD17C,3.500000*%
%ADD18O,2.400000X1.600000*%
%ADD19R,2.400000X1.600000*%
%ADD20R,3.500000X3.500000*%
%ADD21O,2.200000X2.200000*%
%ADD22R,2.200000X2.200000*%
%ADD23O,1.600000X2.400000*%
%ADD24R,1.600000X2.400000*%
%ADD25C,2.000000*%
%ADD26C,1.700000*%
G04 APERTURE END LIST*
D10*
X68000000Y-54000000D03*
D11*
X66000000Y-54000000D03*
D10*
X68000000Y-62000000D03*
D11*
X66000000Y-62000000D03*
D10*
X110000000Y-114500000D03*
X110000000Y-112000000D03*
X87000000Y-74500000D03*
X87000000Y-77000000D03*
D12*
X59000000Y-114540000D03*
D10*
X59000000Y-112000000D03*
D12*
X73000000Y-115020000D03*
X73000000Y-112480000D03*
X73000000Y-109940000D03*
X73000000Y-107400000D03*
X73000000Y-104860000D03*
X73000000Y-102320000D03*
X73000000Y-99780000D03*
X73000000Y-97240000D03*
X73000000Y-94700000D03*
X73000000Y-92160000D03*
X73000000Y-89620000D03*
X73000000Y-87080000D03*
X73000000Y-84540000D03*
D11*
X73000000Y-82000000D03*
D12*
X124000000Y-34000000D03*
D10*
X121460000Y-34000000D03*
D12*
X149830000Y-116000000D03*
D10*
X152370000Y-116000000D03*
D13*
X156460000Y-116000000D03*
D14*
X159000000Y-116000000D03*
D15*
X59000000Y-107000000D03*
D16*
X59000000Y-104460000D03*
D10*
X62230000Y-91280000D03*
D11*
X62230000Y-89280000D03*
D10*
X54610000Y-91280000D03*
D11*
X54610000Y-89280000D03*
D17*
X161000000Y-34000000D03*
X34000000Y-34000000D03*
X161000000Y-126000000D03*
X34000000Y-126000000D03*
D12*
X114000000Y-46700000D03*
X114000000Y-44160000D03*
X114000000Y-41620000D03*
X114000000Y-39080000D03*
X114000000Y-36540000D03*
D11*
X114000000Y-34000000D03*
D12*
X59000000Y-33300000D03*
X59000000Y-35840000D03*
X59000000Y-38380000D03*
X59000000Y-40920000D03*
X59000000Y-43460000D03*
D11*
X59000000Y-46000000D03*
D16*
X138910000Y-46880000D03*
D15*
X136370000Y-46880000D03*
D16*
X41080000Y-94000000D03*
X38540000Y-94000000D03*
D15*
X36000000Y-94000000D03*
D10*
X105500000Y-34000000D03*
X108000000Y-34000000D03*
X127500000Y-34000000D03*
X130000000Y-34000000D03*
X66500000Y-33000000D03*
X69000000Y-33000000D03*
X103000000Y-61500000D03*
X103000000Y-59000000D03*
X50500000Y-116000000D03*
X53000000Y-116000000D03*
X52500000Y-98000000D03*
X50000000Y-98000000D03*
D18*
X142240000Y-65000000D03*
X127000000Y-103100000D03*
X142240000Y-67540000D03*
X127000000Y-100560000D03*
X142240000Y-70080000D03*
X127000000Y-98020000D03*
X142240000Y-72620000D03*
X127000000Y-95480000D03*
X142240000Y-75160000D03*
X127000000Y-92940000D03*
X142240000Y-77700000D03*
X127000000Y-90400000D03*
X142240000Y-80240000D03*
X127000000Y-87860000D03*
X142240000Y-82780000D03*
X127000000Y-85320000D03*
X142240000Y-85320000D03*
X127000000Y-82780000D03*
X142240000Y-87860000D03*
X127000000Y-80240000D03*
X142240000Y-90400000D03*
X127000000Y-77700000D03*
X142240000Y-92940000D03*
X127000000Y-75160000D03*
X142240000Y-95480000D03*
X127000000Y-72620000D03*
X142240000Y-98020000D03*
X127000000Y-70080000D03*
X142240000Y-100560000D03*
X127000000Y-67540000D03*
X142240000Y-103100000D03*
D19*
X127000000Y-65000000D03*
G36*
G01*
X35250000Y-86575000D02*
X35250000Y-84825000D01*
G75*
G02*
X36125000Y-83950000I875000J0D01*
G01*
X37875000Y-83950000D01*
G75*
G02*
X38750000Y-84825000I0J-875000D01*
G01*
X38750000Y-86575000D01*
G75*
G02*
X37875000Y-87450000I-875000J0D01*
G01*
X36125000Y-87450000D01*
G75*
G02*
X35250000Y-86575000I0J875000D01*
G01*
G37*
G36*
G01*
X32500000Y-82000000D02*
X32500000Y-80000000D01*
G75*
G02*
X33250000Y-79250000I750000J0D01*
G01*
X34750000Y-79250000D01*
G75*
G02*
X35500000Y-80000000I0J-750000D01*
G01*
X35500000Y-82000000D01*
G75*
G02*
X34750000Y-82750000I-750000J0D01*
G01*
X33250000Y-82750000D01*
G75*
G02*
X32500000Y-82000000I0J750000D01*
G01*
G37*
D20*
X40000000Y-81000000D03*
D21*
X33840000Y-71000000D03*
D22*
X44000000Y-71000000D03*
D12*
X158000000Y-69380000D03*
X158000000Y-71920000D03*
X158000000Y-74460000D03*
D11*
X158000000Y-77000000D03*
D10*
X84760000Y-111000000D03*
X84760000Y-118620000D03*
X100000000Y-118620000D03*
D11*
X100000000Y-111000000D03*
D18*
X129620000Y-39000000D03*
X122000000Y-46620000D03*
X129620000Y-41540000D03*
X122000000Y-44080000D03*
X129620000Y-44080000D03*
X122000000Y-41540000D03*
X129620000Y-46620000D03*
D19*
X122000000Y-39000000D03*
D23*
X117000000Y-112380000D03*
X139860000Y-120000000D03*
X119540000Y-112380000D03*
X137320000Y-120000000D03*
X122080000Y-112380000D03*
X134780000Y-120000000D03*
X124620000Y-112380000D03*
X132240000Y-120000000D03*
X127160000Y-112380000D03*
X129700000Y-120000000D03*
X129700000Y-112380000D03*
X127160000Y-120000000D03*
X132240000Y-112380000D03*
X124620000Y-120000000D03*
X134780000Y-112380000D03*
X122080000Y-120000000D03*
X137320000Y-112380000D03*
X119540000Y-120000000D03*
X139860000Y-112380000D03*
D24*
X117000000Y-120000000D03*
D25*
X150500000Y-102000000D03*
X150500000Y-97500000D03*
X157000000Y-102000000D03*
X157000000Y-97500000D03*
D16*
X138910000Y-42080000D03*
X136370000Y-42080000D03*
X138910000Y-39540000D03*
X136370000Y-39540000D03*
X138910000Y-37000000D03*
D15*
X136370000Y-37000000D03*
D16*
X95810000Y-33864000D03*
X93270000Y-33864000D03*
X90730000Y-33864000D03*
X88190000Y-33864000D03*
X85650000Y-33864000D03*
X83110000Y-33864000D03*
X80570000Y-33864000D03*
D15*
X78030000Y-33864000D03*
D17*
X37290000Y-100730000D03*
X37290000Y-112770000D03*
D26*
X40000000Y-108000000D03*
X40000000Y-105500000D03*
X42000000Y-105500000D03*
D15*
X42000000Y-108000000D03*
D10*
X152500000Y-75280000D03*
X150000000Y-75280000D03*
X158000000Y-82500000D03*
X158000000Y-85000000D03*
X152500000Y-70000000D03*
X150000000Y-70000000D03*
X152500000Y-65000000D03*
X150000000Y-65000000D03*
D12*
X95810000Y-38182000D03*
X93270000Y-38182000D03*
X90730000Y-38182000D03*
X88190000Y-38182000D03*
X85650000Y-38182000D03*
X83110000Y-38182000D03*
X80570000Y-38182000D03*
X78030000Y-38182000D03*
D11*
X75490000Y-38182000D03*
D12*
X95810000Y-46546000D03*
X93270000Y-46546000D03*
X90730000Y-46546000D03*
X88190000Y-46546000D03*
X85650000Y-46546000D03*
X83110000Y-46546000D03*
X80570000Y-46546000D03*
X78030000Y-46546000D03*
D11*
X75490000Y-46546000D03*
D16*
X95810000Y-42482000D03*
X93270000Y-42482000D03*
X90730000Y-42482000D03*
X88190000Y-42482000D03*
X85650000Y-42482000D03*
X83110000Y-42482000D03*
X80570000Y-42482000D03*
D15*
X78030000Y-42482000D03*
D13*
X80000000Y-72460000D03*
D14*
X80000000Y-75000000D03*
D13*
X74000000Y-72460000D03*
D14*
X74000000Y-75000000D03*
D10*
X117500000Y-70000000D03*
X120000000Y-70000000D03*
X139500000Y-59000000D03*
X142000000Y-59000000D03*
M02*
