M48
;Layer_Color=6321
;FILE_FORMAT=2:5
INCH,LZ
T9F00S00C0.20000
%
G90
G05
T09
G00X0495688Y0090199
M15
G01X0497597Y009079
G01X0499349Y0091748
G01X0500877Y0093035
G01X0502118Y00946
G01X0503023Y0096381
G01X0503556Y0098306
G01X0503701Y01
G01X0503701Y0493701
G01X0503501Y0495688
G01X0502911Y0497597
G01X0501953Y0499349
G01X0500666Y0500877
G01X04991Y0502118
G01X049732Y0503023
G01X0495395Y0503556
G01X0493701Y0503701
G01X01Y0503701
G01X0098012Y0503501
G01X0096104Y0502911
G01X0094351Y0501953
G01X0092824Y0500666
G01X0091583Y04991
G01X0090678Y049732
G01X0090144Y0495395
G01X009Y0493701
G01X009Y01
G01X0090199Y0098012
G01X009079Y0096104
G01X0091748Y0094351
G01X0093035Y0092824
G01X00946Y0091583
G01X0096381Y0090678
G01X0098306Y0090144
G01X01Y009
G01X0493701Y009
G01X0495688Y0090199
M16
M17
M30
