M48
;Layer_Color=6321
;FILE_FORMAT=2:5
INCH,LZ
;TYPE=PLATED
T1F00S00C0.02362
T2F00S00C0.02800
T3F00S00C0.03000
T4F00S00C0.03032
T5F00S00C0.03200
T6F00S00C0.03543
T7F00S00C0.03937
T8F00S00C0.09500
%
T01
X0239Y0326394
Y0345606
T02
X02735Y01349
X0294Y01418
X0297Y01822
X03584Y03893
T03
X023Y0195
Y0205
X0206Y0231
X0196
X02Y0326
X021
Y0348
X02
X0362Y0342
X0372
Y0364
X0362
X0394Y0366
Y0356
X0442Y0398
Y0408
X04238Y0445
Y0453
X0414
Y0445
X0473
Y0455
X0236Y0472
X0226
T04
X0167Y0238
Y0293118
X0158Y0472
X0213118
T05
X0412Y0355
X0422
X0432
X0442
X0452
X0462
Y0386
X0452
X0442
X0432
X0422
X0412
X0472
Y0355
T06
X03025Y01455
X03125
X03225
X03325
X03425
X03525
X03625
X03725
X03825
X03925
X04025
X04125
X04225
X04325
Y02055
X04225
X04125
X04025
X03925
X03825
X03725
X03625
X03525
X03425
X03325
X03225
X03125
X034Y02745
Y02845
Y02945
Y03045
X028
Y02945
Y02845
Y02745
X03025Y02055
X028Y03145
Y03245
Y03345
Y03445
Y03545
Y03645
Y03745
Y03845
Y03945
Y04045
Y04145
Y04245
Y04345
Y04445
Y04545
Y04645
X034
Y04545
Y04445
Y04345
Y04245
Y04145
Y04045
Y03945
Y03845
Y03745
Y03645
Y03545
Y03445
Y03345
Y03245
Y03145
T07
X0193142Y0259205
X0210858
Y0284795
X0193142
X021Y03845
Y03945
Y04045
Y04145
T08
X03951Y04635
X04431
M30
