G04 Layer_Physical_Order=2*
G04 Layer_Color=11436288*
%FSLAX25Y25*%
%MOIN*%
G70*
G01*
G75*
%ADD10C,0.01000*%
%ADD11C,0.00500*%
%ADD12C,0.00394*%
%ADD13C,0.00200*%
%ADD14C,0.00600*%
%ADD15C,0.06000*%
%ADD16C,0.05906*%
%ADD17R,0.05906X0.05906*%
%ADD18C,0.07000*%
%ADD19R,0.07000X0.07000*%
%ADD20C,0.07874*%
%ADD21C,0.05000*%
%ADD22R,0.05000X0.05000*%
%ADD23R,0.06000X0.06000*%
%ADD24C,0.04724*%
%ADD25R,0.05906X0.09843*%
%ADD26O,0.05906X0.09843*%
%ADD27C,0.12000*%
G36*
X100000Y100000D02*
X493701D01*
Y493701D01*
X100000D01*
Y100000D01*
D02*
G37*
%LPC*%
G36*
X313701Y298487D02*
X314733Y298351D01*
X315694Y297953D01*
X316520Y297319D01*
X317154Y296493D01*
X317552Y295532D01*
X317688Y294500D01*
X317552Y293468D01*
X317154Y292507D01*
X316520Y291681D01*
X315694Y291047D01*
X314733Y290649D01*
X313701Y290513D01*
X312669Y290649D01*
X311707Y291047D01*
X310882Y291681D01*
X310248Y292507D01*
X309850Y293468D01*
X309714Y294500D01*
X309850Y295532D01*
X310248Y296493D01*
X310882Y297319D01*
X311707Y297953D01*
X312669Y298351D01*
X313701Y298487D01*
D02*
G37*
G36*
Y308487D02*
X314733Y308351D01*
X315694Y307953D01*
X316520Y307319D01*
X317154Y306493D01*
X317552Y305532D01*
X317688Y304500D01*
X317552Y303468D01*
X317154Y302507D01*
X316520Y301681D01*
X315694Y301047D01*
X314733Y300649D01*
X313701Y300513D01*
X312669Y300649D01*
X311707Y301047D01*
X310882Y301681D01*
X310248Y302507D01*
X309850Y303468D01*
X309714Y304500D01*
X309850Y305532D01*
X310248Y306493D01*
X310882Y307319D01*
X311707Y307953D01*
X312669Y308351D01*
X313701Y308487D01*
D02*
G37*
G36*
X400059Y289709D02*
Y285295D01*
X395645D01*
X395749Y286084D01*
X396247Y287285D01*
X397038Y288316D01*
X398069Y289108D01*
X399270Y289605D01*
X400059Y289709D01*
D02*
G37*
G36*
X426701Y297105D02*
X427733Y296969D01*
X428694Y296571D01*
X429520Y295937D01*
X430154Y295112D01*
X430552Y294150D01*
X430688Y293118D01*
X430552Y292086D01*
X430154Y291125D01*
X429520Y290299D01*
X428694Y289666D01*
X427733Y289267D01*
X426701Y289131D01*
X425669Y289267D01*
X424707Y289666D01*
X423882Y290299D01*
X423248Y291125D01*
X422850Y292086D01*
X422714Y293118D01*
X422850Y294150D01*
X423248Y295112D01*
X423882Y295937D01*
X424707Y296571D01*
X425669Y296969D01*
X426701Y297105D01*
D02*
G37*
G36*
X253701Y318487D02*
X254733Y318351D01*
X255694Y317953D01*
X256520Y317319D01*
X257154Y316493D01*
X257552Y315532D01*
X257688Y314500D01*
X257552Y313468D01*
X257154Y312507D01*
X256520Y311681D01*
X255694Y311047D01*
X254733Y310649D01*
X253701Y310513D01*
X252669Y310649D01*
X251707Y311047D01*
X250882Y311681D01*
X250248Y312507D01*
X249850Y313468D01*
X249714Y314500D01*
X249850Y315532D01*
X250248Y316493D01*
X250882Y317319D01*
X251707Y317953D01*
X252669Y318351D01*
X253701Y318487D01*
D02*
G37*
G36*
X394201Y325500D02*
X397670D01*
X397598Y324956D01*
X397195Y323983D01*
X396554Y323147D01*
X395718Y322506D01*
X394745Y322103D01*
X394201Y322031D01*
Y325500D01*
D02*
G37*
G36*
X253701Y308487D02*
X254733Y308351D01*
X255694Y307953D01*
X256520Y307319D01*
X257154Y306493D01*
X257552Y305532D01*
X257688Y304500D01*
X257552Y303468D01*
X257360Y303004D01*
X259282Y301081D01*
X259614Y300585D01*
X259730Y300000D01*
Y272000D01*
X259614Y271415D01*
X259282Y270919D01*
X222730Y234366D01*
Y211113D01*
X223194Y210921D01*
X224020Y210288D01*
X224654Y209462D01*
X225052Y208500D01*
X225188Y207469D01*
Y203532D01*
X225052Y202500D01*
X224654Y201538D01*
X224020Y200712D01*
X223194Y200079D01*
X222233Y199680D01*
X221201Y199545D01*
X220169Y199680D01*
X219207Y200079D01*
X218382Y200712D01*
X217748Y201538D01*
X217350Y202500D01*
X217214Y203532D01*
Y207469D01*
X217350Y208500D01*
X217748Y209462D01*
X218382Y210288D01*
X219207Y210921D01*
X219671Y211113D01*
Y235000D01*
X219788Y235585D01*
X220119Y236081D01*
X254130Y270092D01*
X253909Y270540D01*
X253701Y270513D01*
X252669Y270649D01*
X252205Y270841D01*
X212730Y231366D01*
Y211113D01*
X213194Y210921D01*
X214020Y210288D01*
X214653Y209462D01*
X215052Y208500D01*
X215188Y207469D01*
Y203532D01*
X215052Y202500D01*
X214653Y201538D01*
X214020Y200712D01*
X213194Y200079D01*
X212233Y199680D01*
X211201Y199545D01*
X210169Y199680D01*
X209207Y200079D01*
X208382Y200712D01*
X207748Y201538D01*
X207350Y202500D01*
X207214Y203532D01*
Y207469D01*
X207350Y208500D01*
X207748Y209462D01*
X208382Y210288D01*
X209207Y210921D01*
X209671Y211113D01*
Y232000D01*
X209788Y232585D01*
X210119Y233081D01*
X250042Y273004D01*
X249850Y273468D01*
X249714Y274500D01*
X249850Y275532D01*
X250248Y276493D01*
X250882Y277319D01*
X251707Y277953D01*
X252669Y278351D01*
X253701Y278487D01*
X254733Y278351D01*
X255694Y277953D01*
X256171Y277587D01*
X256671Y277833D01*
Y281167D01*
X256171Y281413D01*
X255694Y281047D01*
X254733Y280649D01*
X253701Y280513D01*
X252669Y280649D01*
X251707Y281047D01*
X250882Y281681D01*
X250248Y282507D01*
X249850Y283468D01*
X249714Y284500D01*
X249850Y285532D01*
X250248Y286493D01*
X250882Y287319D01*
X251707Y287953D01*
X252669Y288351D01*
X253701Y288487D01*
X254733Y288351D01*
X255694Y287953D01*
X256171Y287587D01*
X256671Y287833D01*
Y291167D01*
X256171Y291413D01*
X255694Y291047D01*
X254733Y290649D01*
X253701Y290513D01*
X252669Y290649D01*
X251707Y291047D01*
X250882Y291681D01*
X250248Y292507D01*
X249850Y293468D01*
X249714Y294500D01*
X249850Y295532D01*
X250248Y296493D01*
X250882Y297319D01*
X251707Y297953D01*
X252669Y298351D01*
X253701Y298487D01*
X254733Y298351D01*
X255694Y297953D01*
X256171Y297587D01*
X256671Y297833D01*
Y299366D01*
X255197Y300841D01*
X254733Y300649D01*
X253701Y300513D01*
X252669Y300649D01*
X251707Y301047D01*
X250882Y301681D01*
X250248Y302507D01*
X249850Y303468D01*
X249714Y304500D01*
X249850Y305532D01*
X250248Y306493D01*
X250882Y307319D01*
X251707Y307953D01*
X252669Y308351D01*
X253701Y308487D01*
D02*
G37*
G36*
X313701Y318487D02*
X314733Y318351D01*
X315694Y317953D01*
X316520Y317319D01*
X317154Y316493D01*
X317552Y315532D01*
X317688Y314500D01*
X317552Y313468D01*
X317154Y312507D01*
X316520Y311681D01*
X315694Y311047D01*
X314733Y310649D01*
X313701Y310513D01*
X312669Y310649D01*
X311707Y311047D01*
X310882Y311681D01*
X310248Y312507D01*
X309850Y313468D01*
X309714Y314500D01*
X309850Y315532D01*
X310248Y316493D01*
X310882Y317319D01*
X311707Y317953D01*
X312669Y318351D01*
X313701Y318487D01*
D02*
G37*
G36*
X401059Y289709D02*
X401848Y289605D01*
X403049Y289108D01*
X404080Y288316D01*
X404872Y287285D01*
X405369Y286084D01*
X405473Y285295D01*
X401059D01*
Y289709D01*
D02*
G37*
G36*
X395645Y258705D02*
X400059D01*
Y254291D01*
X399270Y254395D01*
X398069Y254892D01*
X397038Y255684D01*
X396247Y256715D01*
X395749Y257916D01*
X395645Y258705D01*
D02*
G37*
G36*
X401059Y264119D02*
X401848Y264015D01*
X403049Y263517D01*
X404080Y262726D01*
X404872Y261695D01*
X405369Y260494D01*
X405473Y259705D01*
X401059D01*
Y264119D01*
D02*
G37*
G36*
X382843Y264184D02*
X384131Y264015D01*
X385332Y263517D01*
X386364Y262726D01*
X387155Y261695D01*
X387652Y260494D01*
X387822Y259205D01*
X387652Y257916D01*
X387255Y256956D01*
X398782Y245428D01*
X399114Y244932D01*
X399230Y244347D01*
Y235399D01*
X399730Y235192D01*
X403619Y239081D01*
X404115Y239413D01*
X404701Y239529D01*
X423056D01*
X423248Y239993D01*
X423882Y240819D01*
X424707Y241453D01*
X425669Y241851D01*
X426701Y241987D01*
X427733Y241851D01*
X428694Y241453D01*
X429520Y240819D01*
X430154Y239993D01*
X430552Y239032D01*
X430688Y238000D01*
X430552Y236968D01*
X430154Y236007D01*
X429520Y235181D01*
X428694Y234547D01*
X427733Y234149D01*
X426701Y234013D01*
X425669Y234149D01*
X424707Y234547D01*
X423882Y235181D01*
X423248Y236007D01*
X423056Y236471D01*
X405334D01*
X401396Y232532D01*
X401598Y232044D01*
X401735Y231000D01*
X401598Y229956D01*
X401195Y228983D01*
X400554Y228147D01*
X399718Y227506D01*
X398745Y227103D01*
X397701Y226965D01*
X396657Y227103D01*
X395684Y227506D01*
X394848Y228147D01*
X394207Y228983D01*
X393804Y229956D01*
X393666Y231000D01*
X393804Y232044D01*
X394207Y233017D01*
X394848Y233853D01*
X395684Y234494D01*
X396171Y234696D01*
Y243713D01*
X385092Y254793D01*
X384131Y254395D01*
X382843Y254225D01*
X381554Y254395D01*
X380353Y254892D01*
X379322Y255684D01*
X378530Y256715D01*
X378033Y257916D01*
X377863Y259205D01*
X378033Y260494D01*
X378530Y261695D01*
X379322Y262726D01*
X380353Y263517D01*
X381554Y264015D01*
X382843Y264184D01*
D02*
G37*
G36*
X401059Y258705D02*
X405473D01*
X405369Y257916D01*
X404872Y256715D01*
X404080Y255684D01*
X403049Y254892D01*
X401848Y254395D01*
X401059Y254291D01*
Y258705D01*
D02*
G37*
G36*
Y284295D02*
X405473D01*
X405369Y283506D01*
X404872Y282305D01*
X404080Y281274D01*
X403049Y280483D01*
X401848Y279985D01*
X401059Y279881D01*
Y284295D01*
D02*
G37*
G36*
X395645D02*
X400059D01*
Y279881D01*
X399270Y279985D01*
X398069Y280483D01*
X397038Y281274D01*
X396247Y282305D01*
X395749Y283506D01*
X395645Y284295D01*
D02*
G37*
G36*
X400059Y264119D02*
Y259705D01*
X395645D01*
X395749Y260494D01*
X396247Y261695D01*
X397038Y262726D01*
X398069Y263517D01*
X399270Y264015D01*
X400059Y264119D01*
D02*
G37*
G36*
X382843Y289775D02*
X384131Y289605D01*
X385332Y289108D01*
X386364Y288316D01*
X387155Y287285D01*
X387652Y286084D01*
X387822Y284795D01*
X387652Y283506D01*
X387155Y282305D01*
X386364Y281274D01*
X385332Y280483D01*
X384131Y279985D01*
X382843Y279816D01*
X381554Y279985D01*
X380353Y280483D01*
X379322Y281274D01*
X378530Y282305D01*
X378033Y283506D01*
X377863Y284795D01*
X378033Y286084D01*
X378530Y287285D01*
X379322Y288316D01*
X380353Y289108D01*
X381554Y289605D01*
X382843Y289775D01*
D02*
G37*
G36*
X313701Y358487D02*
X314733Y358351D01*
X315694Y357953D01*
X316520Y357319D01*
X317154Y356493D01*
X317552Y355532D01*
X317688Y354500D01*
X317552Y353468D01*
X317360Y353004D01*
X323228Y347136D01*
X351695D01*
X351764Y347302D01*
X352303Y348004D01*
X353005Y348543D01*
X353823Y348882D01*
X354701Y348998D01*
X355578Y348882D01*
X355745Y348813D01*
X356013Y349081D01*
X356509Y349413D01*
X357094Y349529D01*
X380005D01*
X380207Y350017D01*
X380848Y350853D01*
X381683Y351494D01*
X382657Y351897D01*
X383701Y352034D01*
X384745Y351897D01*
X385718Y351494D01*
X386554Y350853D01*
X387195Y350017D01*
X387598Y349044D01*
X387735Y348000D01*
X387598Y346956D01*
X387195Y345983D01*
X386554Y345147D01*
X385718Y344506D01*
X384745Y344103D01*
X383701Y343966D01*
X382657Y344103D01*
X381683Y344506D01*
X380848Y345147D01*
X380207Y345983D01*
X380005Y346471D01*
X358357D01*
X358028Y346095D01*
X358092Y345606D01*
X357976Y344729D01*
X357638Y343911D01*
X357099Y343208D01*
X356396Y342670D01*
X355578Y342331D01*
X354701Y342215D01*
X353823Y342331D01*
X353005Y342670D01*
X352303Y343208D01*
X351764Y343911D01*
X351695Y344077D01*
X322594D01*
X322009Y344193D01*
X321513Y344525D01*
X315197Y350841D01*
X314733Y350649D01*
X313701Y350513D01*
X312669Y350649D01*
X311707Y351047D01*
X310882Y351681D01*
X310248Y352507D01*
X309850Y353468D01*
X309714Y354500D01*
X309850Y355532D01*
X310248Y356493D01*
X310882Y357319D01*
X311707Y357953D01*
X312669Y358351D01*
X313701Y358487D01*
D02*
G37*
G36*
X394201Y351969D02*
X394745Y351897D01*
X395718Y351494D01*
X396554Y350853D01*
X397195Y350017D01*
X397598Y349044D01*
X397670Y348500D01*
X394201D01*
Y351969D01*
D02*
G37*
G36*
Y347500D02*
X397670D01*
X397598Y346956D01*
X397195Y345983D01*
X396554Y345147D01*
X395718Y344506D01*
X394745Y344103D01*
X394201Y344031D01*
Y347500D01*
D02*
G37*
G36*
X389732D02*
X393201D01*
Y344031D01*
X392657Y344103D01*
X391684Y344506D01*
X390848Y345147D01*
X390207Y345983D01*
X389804Y346956D01*
X389732Y347500D01*
D02*
G37*
G36*
X199701Y360034D02*
X200745Y359897D01*
X201718Y359494D01*
X202554Y358853D01*
X203195Y358017D01*
X203598Y357044D01*
X203735Y356000D01*
X203598Y354956D01*
X203195Y353983D01*
X202554Y353147D01*
X201718Y352506D01*
X200745Y352103D01*
X199701Y351965D01*
X198657Y352103D01*
X197684Y352506D01*
X196848Y353147D01*
X196207Y353983D01*
X196005Y354471D01*
X185666D01*
X185598Y353956D01*
X185195Y352983D01*
X184554Y352147D01*
X183718Y351506D01*
X182745Y351103D01*
X181701Y350965D01*
X180657Y351103D01*
X179683Y351506D01*
X178848Y352147D01*
X178207Y352983D01*
X177804Y353956D01*
X177666Y355000D01*
X177804Y356044D01*
X178207Y357017D01*
X178848Y357853D01*
X179683Y358494D01*
X180657Y358897D01*
X181701Y359034D01*
X182745Y358897D01*
X183718Y358494D01*
X184554Y357853D01*
X184802Y357529D01*
X196005D01*
X196207Y358017D01*
X196848Y358853D01*
X197684Y359494D01*
X198657Y359897D01*
X199701Y360034D01*
D02*
G37*
G36*
X171701Y359034D02*
X172745Y358897D01*
X173718Y358494D01*
X174554Y357853D01*
X175195Y357017D01*
X175598Y356044D01*
X175735Y355000D01*
X175598Y353956D01*
X175195Y352983D01*
X174554Y352147D01*
X173718Y351506D01*
X172745Y351103D01*
X171701Y350965D01*
X170657Y351103D01*
X169684Y351506D01*
X168848Y352147D01*
X168207Y352983D01*
X167804Y353956D01*
X167666Y355000D01*
X167804Y356044D01*
X168207Y357017D01*
X168848Y357853D01*
X169684Y358494D01*
X170657Y358897D01*
X171701Y359034D01*
D02*
G37*
G36*
X393201Y351969D02*
Y348500D01*
X389732D01*
X389804Y349044D01*
X390207Y350017D01*
X390848Y350853D01*
X391684Y351494D01*
X392657Y351897D01*
X393201Y351969D01*
D02*
G37*
G36*
X253701Y358487D02*
X254733Y358351D01*
X255694Y357953D01*
X256520Y357319D01*
X257154Y356493D01*
X257552Y355532D01*
X257688Y354500D01*
X257552Y353468D01*
X257154Y352507D01*
X256520Y351681D01*
X255694Y351047D01*
X254733Y350649D01*
X253701Y350513D01*
X252669Y350649D01*
X251707Y351047D01*
X250882Y351681D01*
X250248Y352507D01*
X249850Y353468D01*
X249714Y354500D01*
X249850Y355532D01*
X250248Y356493D01*
X250882Y357319D01*
X251707Y357953D01*
X252669Y358351D01*
X253701Y358487D01*
D02*
G37*
G36*
X221201Y345969D02*
Y342500D01*
X217732D01*
X217804Y343044D01*
X218207Y344017D01*
X218848Y344853D01*
X219684Y345494D01*
X220657Y345897D01*
X221201Y345969D01*
D02*
G37*
G36*
X393201Y329969D02*
Y326500D01*
X389732D01*
X389804Y327044D01*
X390207Y328017D01*
X390848Y328853D01*
X391684Y329494D01*
X392657Y329897D01*
X393201Y329969D01*
D02*
G37*
G36*
X253701Y368487D02*
X254733Y368351D01*
X255694Y367953D01*
X256520Y367319D01*
X257154Y366493D01*
X257552Y365532D01*
X257688Y364500D01*
X257552Y363468D01*
X257154Y362507D01*
X256520Y361681D01*
X255694Y361047D01*
X254733Y360649D01*
X253701Y360513D01*
X252669Y360649D01*
X251707Y361047D01*
X250882Y361681D01*
X250276Y362471D01*
X235397D01*
X235195Y361983D01*
X234554Y361147D01*
X233718Y360506D01*
X233230Y360304D01*
Y345696D01*
X233718Y345494D01*
X234554Y344853D01*
X235195Y344017D01*
X235598Y343044D01*
X235735Y342000D01*
X235598Y340956D01*
X235195Y339983D01*
X234554Y339147D01*
X233718Y338506D01*
X232745Y338103D01*
X231701Y337965D01*
X230657Y338103D01*
X229683Y338506D01*
X228848Y339147D01*
X228207Y339983D01*
X227804Y340956D01*
X227666Y342000D01*
X227804Y343044D01*
X228207Y344017D01*
X228848Y344853D01*
X229683Y345494D01*
X230171Y345696D01*
Y360304D01*
X229683Y360506D01*
X228848Y361147D01*
X228207Y361983D01*
X227804Y362956D01*
X227666Y364000D01*
X227804Y365044D01*
X228207Y366017D01*
X228848Y366853D01*
X229683Y367494D01*
X230657Y367897D01*
X231701Y368035D01*
X232745Y367897D01*
X233718Y367494D01*
X234554Y366853D01*
X235195Y366017D01*
X235397Y365529D01*
X249849D01*
X249850Y365532D01*
X250248Y366493D01*
X250882Y367319D01*
X251707Y367953D01*
X252669Y368351D01*
X253701Y368487D01*
D02*
G37*
G36*
X389732Y325500D02*
X393201D01*
Y322031D01*
X392657Y322103D01*
X391684Y322506D01*
X390848Y323147D01*
X390207Y323983D01*
X389804Y324956D01*
X389732Y325500D01*
D02*
G37*
G36*
X394201Y329969D02*
X394745Y329897D01*
X395718Y329494D01*
X396554Y328853D01*
X397195Y328017D01*
X397598Y327044D01*
X397670Y326500D01*
X394201D01*
Y329969D01*
D02*
G37*
G36*
X313701Y348487D02*
X314733Y348351D01*
X315694Y347953D01*
X316520Y347319D01*
X317154Y346493D01*
X317552Y345532D01*
X317688Y344500D01*
X317552Y343468D01*
X317360Y343004D01*
X332440Y327923D01*
X351695D01*
X351764Y328089D01*
X352303Y328792D01*
X353005Y329331D01*
X353823Y329669D01*
X354701Y329785D01*
X355578Y329669D01*
X356396Y329331D01*
X357099Y328792D01*
X357638Y328089D01*
X357706Y327923D01*
X369007D01*
X369592Y327807D01*
X370007Y327529D01*
X380005D01*
X380207Y328017D01*
X380848Y328853D01*
X381683Y329494D01*
X382657Y329897D01*
X383701Y330034D01*
X384745Y329897D01*
X385718Y329494D01*
X386554Y328853D01*
X387195Y328017D01*
X387598Y327044D01*
X387735Y326000D01*
X387598Y324956D01*
X387195Y323983D01*
X386554Y323147D01*
X385718Y322506D01*
X384745Y322103D01*
X383701Y321966D01*
X382657Y322103D01*
X381683Y322506D01*
X380848Y323147D01*
X380207Y323983D01*
X380005Y324471D01*
X369401D01*
X368815Y324587D01*
X368400Y324864D01*
X357706D01*
X357638Y324698D01*
X357099Y323996D01*
X356396Y323457D01*
X355578Y323118D01*
X354701Y323003D01*
X353823Y323118D01*
X353005Y323457D01*
X352303Y323996D01*
X351764Y324698D01*
X351695Y324864D01*
X331807D01*
X331222Y324981D01*
X330726Y325312D01*
X315197Y340841D01*
X314733Y340649D01*
X313701Y340513D01*
X312669Y340649D01*
X311707Y341047D01*
X310882Y341681D01*
X310248Y342507D01*
X309850Y343468D01*
X309714Y344500D01*
X309850Y345532D01*
X310248Y346493D01*
X310882Y347319D01*
X311707Y347953D01*
X312669Y348351D01*
X313701Y348487D01*
D02*
G37*
G36*
X222201Y345969D02*
X222745Y345897D01*
X223718Y345494D01*
X224554Y344853D01*
X225195Y344017D01*
X225598Y343044D01*
X225670Y342500D01*
X222201D01*
Y345969D01*
D02*
G37*
G36*
Y341500D02*
X225670D01*
X225598Y340956D01*
X225195Y339983D01*
X224554Y339147D01*
X223718Y338506D01*
X222745Y338103D01*
X222201Y338031D01*
Y341500D01*
D02*
G37*
G36*
X217732D02*
X221201D01*
Y338031D01*
X220657Y338103D01*
X219684Y338506D01*
X218848Y339147D01*
X218207Y339983D01*
X217804Y340956D01*
X217732Y341500D01*
D02*
G37*
G36*
X387201Y234969D02*
Y231500D01*
X383732D01*
X383804Y232044D01*
X384207Y233017D01*
X384848Y233853D01*
X385683Y234494D01*
X386657Y234897D01*
X387201Y234969D01*
D02*
G37*
G36*
X161701Y145000D02*
X165188D01*
Y143532D01*
X165052Y142500D01*
X164654Y141538D01*
X164020Y140712D01*
X163194Y140079D01*
X162233Y139681D01*
X161701Y139611D01*
Y145000D01*
D02*
G37*
G36*
X157214D02*
X160701D01*
Y139611D01*
X160169Y139681D01*
X159207Y140079D01*
X158382Y140712D01*
X157748Y141538D01*
X157350Y142500D01*
X157214Y143532D01*
Y145000D01*
D02*
G37*
G36*
X181201Y151455D02*
X182233Y151320D01*
X183194Y150921D01*
X184020Y150288D01*
X184653Y149462D01*
X185052Y148500D01*
X185188Y147468D01*
Y143532D01*
X185052Y142500D01*
X184653Y141538D01*
X184020Y140712D01*
X183194Y140079D01*
X182233Y139681D01*
X181201Y139545D01*
X180169Y139681D01*
X179207Y140079D01*
X178382Y140712D01*
X177748Y141538D01*
X177350Y142500D01*
X177214Y143532D01*
Y147468D01*
X177350Y148500D01*
X177748Y149462D01*
X178382Y150288D01*
X179207Y150921D01*
X180169Y151320D01*
X181201Y151455D01*
D02*
G37*
G36*
X171201D02*
X172233Y151320D01*
X173194Y150921D01*
X174020Y150288D01*
X174653Y149462D01*
X175052Y148500D01*
X175188Y147468D01*
Y143532D01*
X175052Y142500D01*
X174653Y141538D01*
X174020Y140712D01*
X173194Y140079D01*
X172233Y139681D01*
X171201Y139545D01*
X170169Y139681D01*
X169207Y140079D01*
X168382Y140712D01*
X167748Y141538D01*
X167350Y142500D01*
X167214Y143532D01*
Y147468D01*
X167350Y148500D01*
X167748Y149462D01*
X168382Y150288D01*
X169207Y150921D01*
X170169Y151320D01*
X171201Y151455D01*
D02*
G37*
G36*
X364201Y194500D02*
X367670D01*
X367598Y193956D01*
X367195Y192983D01*
X366554Y192147D01*
X365718Y191506D01*
X364745Y191103D01*
X364201Y191031D01*
Y194500D01*
D02*
G37*
G36*
X359732D02*
X363201D01*
Y191031D01*
X362657Y191103D01*
X361684Y191506D01*
X360848Y192147D01*
X360207Y192983D01*
X359804Y193956D01*
X359732Y194500D01*
D02*
G37*
G36*
X161701Y151390D02*
X162233Y151320D01*
X163194Y150921D01*
X164020Y150288D01*
X164654Y149462D01*
X165052Y148500D01*
X165188Y147468D01*
Y146000D01*
X161701D01*
Y151390D01*
D02*
G37*
G36*
X160701D02*
Y146000D01*
X157214D01*
Y147468D01*
X157350Y148500D01*
X157748Y149462D01*
X158382Y150288D01*
X159207Y150921D01*
X160169Y151320D01*
X160701Y151390D01*
D02*
G37*
G36*
X191201Y151455D02*
X192233Y151320D01*
X193194Y150921D01*
X194020Y150288D01*
X194653Y149462D01*
X195052Y148500D01*
X195188Y147468D01*
Y143532D01*
X195052Y142500D01*
X194653Y141538D01*
X194020Y140712D01*
X193194Y140079D01*
X192233Y139681D01*
X191201Y139545D01*
X190169Y139681D01*
X189207Y140079D01*
X188382Y140712D01*
X187748Y141538D01*
X187350Y142500D01*
X187214Y143532D01*
Y147468D01*
X187350Y148500D01*
X187748Y149462D01*
X188382Y150288D01*
X189207Y150921D01*
X190169Y151320D01*
X191201Y151455D01*
D02*
G37*
G36*
X251201D02*
X252233Y151320D01*
X253194Y150921D01*
X254020Y150288D01*
X254654Y149462D01*
X255052Y148500D01*
X255188Y147468D01*
Y143532D01*
X255052Y142500D01*
X254654Y141538D01*
X254020Y140712D01*
X253194Y140079D01*
X252233Y139681D01*
X251201Y139545D01*
X250169Y139681D01*
X249207Y140079D01*
X248382Y140712D01*
X247748Y141538D01*
X247350Y142500D01*
X247214Y143532D01*
Y147468D01*
X247350Y148500D01*
X247748Y149462D01*
X248382Y150288D01*
X249207Y150921D01*
X250169Y151320D01*
X251201Y151455D01*
D02*
G37*
G36*
X241201D02*
X242233Y151320D01*
X243194Y150921D01*
X244020Y150288D01*
X244654Y149462D01*
X245052Y148500D01*
X245188Y147468D01*
Y143532D01*
X245052Y142500D01*
X244654Y141538D01*
X244020Y140712D01*
X243194Y140079D01*
X242233Y139681D01*
X241201Y139545D01*
X240169Y139681D01*
X239207Y140079D01*
X238382Y140712D01*
X237748Y141538D01*
X237350Y142500D01*
X237214Y143532D01*
Y147468D01*
X237350Y148500D01*
X237748Y149462D01*
X238382Y150288D01*
X239207Y150921D01*
X240169Y151320D01*
X241201Y151455D01*
D02*
G37*
G36*
X261201D02*
X262233Y151320D01*
X263194Y150921D01*
X264020Y150288D01*
X264653Y149462D01*
X265052Y148500D01*
X265188Y147468D01*
Y143532D01*
X265052Y142500D01*
X264653Y141538D01*
X264020Y140712D01*
X263306Y140165D01*
X263170Y139594D01*
X266334Y136429D01*
X271955D01*
X272147Y136891D01*
X270119Y138919D01*
X269788Y139415D01*
X269769Y139512D01*
X269696Y139876D01*
X269207Y140079D01*
X268382Y140712D01*
X267748Y141538D01*
X267350Y142500D01*
X267214Y143532D01*
Y147468D01*
X267350Y148500D01*
X267748Y149462D01*
X268382Y150288D01*
X269207Y150921D01*
X270169Y151320D01*
X271201Y151455D01*
X272233Y151320D01*
X273194Y150921D01*
X274020Y150288D01*
X274654Y149462D01*
X275052Y148500D01*
X275188Y147468D01*
Y143532D01*
X275052Y142500D01*
X274654Y141538D01*
X274020Y140712D01*
X273546Y140349D01*
X273514Y139850D01*
X274334Y139029D01*
X294296D01*
X294329Y139079D01*
X294062Y139579D01*
X287248D01*
Y151421D01*
X295153D01*
Y140123D01*
X295654Y139916D01*
X296389Y140651D01*
X296291Y140886D01*
X296171Y141800D01*
X296291Y142714D01*
X296643Y143565D01*
X297205Y144296D01*
X297936Y144857D01*
X298787Y145210D01*
X299701Y145330D01*
X300615Y145210D01*
X301466Y144857D01*
X302197Y144296D01*
X302758Y143565D01*
X303111Y142714D01*
X303231Y141800D01*
X303111Y140886D01*
X302758Y140035D01*
X302197Y139304D01*
X301466Y138743D01*
X300615Y138390D01*
X299701Y138270D01*
X298787Y138390D01*
X298551Y138488D01*
X296955Y136891D01*
X297146Y136429D01*
X317046D01*
X317144Y136665D01*
X317705Y137396D01*
X318436Y137957D01*
X319287Y138310D01*
X320201Y138430D01*
X321114Y138310D01*
X321966Y137957D01*
X322697Y137396D01*
X323258Y136665D01*
X323611Y135814D01*
X323731Y134900D01*
X323611Y133986D01*
X323258Y133135D01*
X322697Y132404D01*
X321966Y131843D01*
X321114Y131490D01*
X320201Y131370D01*
X319287Y131490D01*
X318436Y131843D01*
X317705Y132404D01*
X317144Y133135D01*
X317046Y133371D01*
X265701D01*
X265115Y133487D01*
X264619Y133819D01*
X260119Y138319D01*
X259788Y138815D01*
X259671Y139400D01*
Y139887D01*
X259207Y140079D01*
X258382Y140712D01*
X257748Y141538D01*
X257350Y142500D01*
X257214Y143532D01*
Y147468D01*
X257350Y148500D01*
X257748Y149462D01*
X258382Y150288D01*
X259207Y150921D01*
X260169Y151320D01*
X261201Y151455D01*
D02*
G37*
G36*
X281201D02*
X282233Y151320D01*
X283194Y150921D01*
X284020Y150288D01*
X284653Y149462D01*
X285052Y148500D01*
X285188Y147468D01*
Y143532D01*
X285052Y142500D01*
X284653Y141538D01*
X284020Y140712D01*
X283194Y140079D01*
X282233Y139681D01*
X281201Y139545D01*
X280169Y139681D01*
X279207Y140079D01*
X278382Y140712D01*
X277748Y141538D01*
X277350Y142500D01*
X277214Y143532D01*
Y147468D01*
X277350Y148500D01*
X277748Y149462D01*
X278382Y150288D01*
X279207Y150921D01*
X280169Y151320D01*
X281201Y151455D01*
D02*
G37*
G36*
X211201D02*
X212233Y151320D01*
X213194Y150921D01*
X214020Y150288D01*
X214653Y149462D01*
X215052Y148500D01*
X215188Y147468D01*
Y143532D01*
X215052Y142500D01*
X214653Y141538D01*
X214020Y140712D01*
X213194Y140079D01*
X212233Y139681D01*
X211201Y139545D01*
X210169Y139681D01*
X209207Y140079D01*
X208382Y140712D01*
X207748Y141538D01*
X207350Y142500D01*
X207214Y143532D01*
Y147468D01*
X207350Y148500D01*
X207748Y149462D01*
X208382Y150288D01*
X209207Y150921D01*
X210169Y151320D01*
X211201Y151455D01*
D02*
G37*
G36*
X296701Y185730D02*
X297615Y185610D01*
X298466Y185257D01*
X299197Y184696D01*
X299758Y183965D01*
X300111Y183114D01*
X300231Y182200D01*
X300111Y181286D01*
X299758Y180435D01*
X299197Y179704D01*
X298466Y179143D01*
X297615Y178790D01*
X296701Y178670D01*
X295787Y178790D01*
X295551Y178888D01*
X291082Y174419D01*
X290586Y174087D01*
X290001Y173971D01*
X206334D01*
X202730Y170367D01*
Y151113D01*
X203194Y150921D01*
X204020Y150288D01*
X204654Y149462D01*
X205052Y148500D01*
X205188Y147468D01*
Y143532D01*
X205052Y142500D01*
X204654Y141538D01*
X204020Y140712D01*
X203194Y140079D01*
X202233Y139681D01*
X201201Y139545D01*
X200169Y139681D01*
X199207Y140079D01*
X198382Y140712D01*
X197748Y141538D01*
X197350Y142500D01*
X197214Y143532D01*
Y147468D01*
X197350Y148500D01*
X197748Y149462D01*
X198382Y150288D01*
X199207Y150921D01*
X199671Y151113D01*
Y171000D01*
X199788Y171585D01*
X200119Y172081D01*
X204619Y176581D01*
X205116Y176913D01*
X205701Y177029D01*
X289367D01*
X293389Y181051D01*
X293291Y181286D01*
X293171Y182200D01*
X293291Y183114D01*
X293643Y183965D01*
X294205Y184696D01*
X294936Y185257D01*
X295787Y185610D01*
X296701Y185730D01*
D02*
G37*
G36*
X231201Y151455D02*
X232233Y151320D01*
X233194Y150921D01*
X234020Y150288D01*
X234653Y149462D01*
X235052Y148500D01*
X235188Y147468D01*
Y143532D01*
X235052Y142500D01*
X234653Y141538D01*
X234020Y140712D01*
X233194Y140079D01*
X232233Y139681D01*
X231201Y139545D01*
X230169Y139681D01*
X229207Y140079D01*
X228382Y140712D01*
X227748Y141538D01*
X227350Y142500D01*
X227214Y143532D01*
Y147468D01*
X227350Y148500D01*
X227748Y149462D01*
X228382Y150288D01*
X229207Y150921D01*
X230169Y151320D01*
X231201Y151455D01*
D02*
G37*
G36*
X221201D02*
X222233Y151320D01*
X223194Y150921D01*
X224020Y150288D01*
X224654Y149462D01*
X225052Y148500D01*
X225188Y147468D01*
Y143532D01*
X225052Y142500D01*
X224654Y141538D01*
X224020Y140712D01*
X223194Y140079D01*
X222233Y139681D01*
X221201Y139545D01*
X220169Y139681D01*
X219207Y140079D01*
X218382Y140712D01*
X217748Y141538D01*
X217350Y142500D01*
X217214Y143532D01*
Y147468D01*
X217350Y148500D01*
X217748Y149462D01*
X218382Y150288D01*
X219207Y150921D01*
X220169Y151320D01*
X221201Y151455D01*
D02*
G37*
G36*
X171201Y211455D02*
X172233Y211319D01*
X173194Y210921D01*
X174020Y210288D01*
X174653Y209462D01*
X175052Y208500D01*
X175188Y207469D01*
Y203532D01*
X175052Y202500D01*
X174653Y201538D01*
X174020Y200712D01*
X173194Y200079D01*
X172233Y199680D01*
X171201Y199545D01*
X170169Y199680D01*
X169207Y200079D01*
X168382Y200712D01*
X167748Y201538D01*
X167350Y202500D01*
X167214Y203532D01*
Y207469D01*
X167350Y208500D01*
X167748Y209462D01*
X168382Y210288D01*
X169207Y210921D01*
X170169Y211319D01*
X171201Y211455D01*
D02*
G37*
G36*
X161201D02*
X162233Y211319D01*
X163194Y210921D01*
X164020Y210288D01*
X164654Y209462D01*
X165052Y208500D01*
X165188Y207469D01*
Y203532D01*
X165052Y202500D01*
X164654Y201538D01*
X164020Y200712D01*
X163194Y200079D01*
X162233Y199680D01*
X161201Y199545D01*
X160169Y199680D01*
X159207Y200079D01*
X158382Y200712D01*
X157748Y201538D01*
X157350Y202500D01*
X157214Y203532D01*
Y207469D01*
X157350Y208500D01*
X157748Y209462D01*
X158382Y210288D01*
X159207Y210921D01*
X160169Y211319D01*
X161201Y211455D01*
D02*
G37*
G36*
X191201D02*
X192233Y211319D01*
X193194Y210921D01*
X194020Y210288D01*
X194653Y209462D01*
X195052Y208500D01*
X195188Y207469D01*
Y203532D01*
X195052Y202500D01*
X194653Y201538D01*
X194020Y200712D01*
X193194Y200079D01*
X192233Y199680D01*
X191201Y199545D01*
X190169Y199680D01*
X189207Y200079D01*
X188382Y200712D01*
X187748Y201538D01*
X187350Y202500D01*
X187214Y203532D01*
Y207469D01*
X187350Y208500D01*
X187748Y209462D01*
X188382Y210288D01*
X189207Y210921D01*
X190169Y211319D01*
X191201Y211455D01*
D02*
G37*
G36*
X181201D02*
X182233Y211319D01*
X183194Y210921D01*
X184020Y210288D01*
X184653Y209462D01*
X185052Y208500D01*
X185188Y207469D01*
Y203532D01*
X185052Y202500D01*
X184653Y201538D01*
X184020Y200712D01*
X183194Y200079D01*
X182233Y199680D01*
X181201Y199545D01*
X180169Y199680D01*
X179207Y200079D01*
X178382Y200712D01*
X177748Y201538D01*
X177350Y202500D01*
X177214Y203532D01*
Y207469D01*
X177350Y208500D01*
X177748Y209462D01*
X178382Y210288D01*
X179207Y210921D01*
X180169Y211319D01*
X181201Y211455D01*
D02*
G37*
G36*
X383732Y230500D02*
X387201D01*
Y227031D01*
X386657Y227103D01*
X385683Y227506D01*
X384848Y228147D01*
X384207Y228983D01*
X383804Y229956D01*
X383732Y230500D01*
D02*
G37*
G36*
X388201Y234969D02*
X388745Y234897D01*
X389718Y234494D01*
X390554Y233853D01*
X391195Y233017D01*
X391598Y232044D01*
X391670Y231500D01*
X388201D01*
Y234969D01*
D02*
G37*
G36*
X291201Y211455D02*
X292233Y211319D01*
X293194Y210921D01*
X294020Y210288D01*
X294654Y209462D01*
X295052Y208500D01*
X295188Y207469D01*
Y206529D01*
X360005D01*
X360207Y207017D01*
X360848Y207853D01*
X361684Y208494D01*
X362657Y208897D01*
X363701Y209034D01*
X364745Y208897D01*
X365718Y208494D01*
X366554Y207853D01*
X367195Y207017D01*
X367598Y206044D01*
X367735Y205000D01*
X367598Y203956D01*
X367195Y202983D01*
X366554Y202147D01*
X365718Y201506D01*
X364745Y201103D01*
X363701Y200965D01*
X362657Y201103D01*
X361684Y201506D01*
X360848Y202147D01*
X360207Y202983D01*
X360005Y203471D01*
X295180D01*
X295052Y202500D01*
X294654Y201538D01*
X294020Y200712D01*
X293194Y200079D01*
X292233Y199680D01*
X291201Y199545D01*
X290169Y199680D01*
X289207Y200079D01*
X288382Y200712D01*
X287748Y201538D01*
X287350Y202500D01*
X287214Y203532D01*
Y207469D01*
X287350Y208500D01*
X287748Y209462D01*
X288382Y210288D01*
X289207Y210921D01*
X290169Y211319D01*
X291201Y211455D01*
D02*
G37*
G36*
X388201Y230500D02*
X391670D01*
X391598Y229956D01*
X391195Y228983D01*
X390554Y228147D01*
X389718Y227506D01*
X388745Y227103D01*
X388201Y227031D01*
Y230500D01*
D02*
G37*
G36*
X201201Y211455D02*
X202233Y211319D01*
X203194Y210921D01*
X204020Y210288D01*
X204654Y209462D01*
X205052Y208500D01*
X205188Y207469D01*
Y203532D01*
X205052Y202500D01*
X204654Y201538D01*
X204020Y200712D01*
X203194Y200079D01*
X202233Y199680D01*
X201201Y199545D01*
X200169Y199680D01*
X199207Y200079D01*
X198382Y200712D01*
X197748Y201538D01*
X197350Y202500D01*
X197214Y203532D01*
Y207469D01*
X197350Y208500D01*
X197748Y209462D01*
X198382Y210288D01*
X199207Y210921D01*
X200169Y211319D01*
X201201Y211455D01*
D02*
G37*
G36*
X313701Y278487D02*
X314733Y278351D01*
X315694Y277953D01*
X316520Y277319D01*
X317154Y276493D01*
X317552Y275532D01*
X317688Y274500D01*
X317552Y273468D01*
X317154Y272507D01*
X316520Y271681D01*
X315694Y271047D01*
X314733Y270649D01*
X313701Y270513D01*
X312669Y270649D01*
X312205Y270841D01*
X282730Y241367D01*
Y211113D01*
X283194Y210921D01*
X284020Y210288D01*
X284653Y209462D01*
X285052Y208500D01*
X285188Y207469D01*
Y203532D01*
X285052Y202500D01*
X284653Y201538D01*
X284020Y200712D01*
X283194Y200079D01*
X282233Y199680D01*
X281201Y199545D01*
X280169Y199680D01*
X279207Y200079D01*
X278382Y200712D01*
X277748Y201538D01*
X277350Y202500D01*
X277214Y203532D01*
Y207469D01*
X277350Y208500D01*
X277748Y209462D01*
X278382Y210288D01*
X279207Y210921D01*
X279671Y211113D01*
Y242000D01*
X279788Y242585D01*
X280119Y243081D01*
X310042Y273004D01*
X309850Y273468D01*
X309714Y274500D01*
X309850Y275532D01*
X310248Y276493D01*
X310882Y277319D01*
X311707Y277953D01*
X312669Y278351D01*
X313701Y278487D01*
D02*
G37*
G36*
X271201Y211455D02*
X272233Y211319D01*
X273194Y210921D01*
X274020Y210288D01*
X274654Y209462D01*
X275052Y208500D01*
X275188Y207469D01*
Y203532D01*
X275052Y202500D01*
X274654Y201538D01*
X274020Y200712D01*
X273194Y200079D01*
X272233Y199680D01*
X271201Y199545D01*
X270169Y199680D01*
X269207Y200079D01*
X268382Y200712D01*
X267748Y201538D01*
X267350Y202500D01*
X267214Y203532D01*
Y207469D01*
X267350Y208500D01*
X267748Y209462D01*
X268382Y210288D01*
X269207Y210921D01*
X270169Y211319D01*
X271201Y211455D01*
D02*
G37*
G36*
X364201Y198969D02*
X364745Y198897D01*
X365718Y198494D01*
X366554Y197853D01*
X367195Y197017D01*
X367598Y196044D01*
X367670Y195500D01*
X364201D01*
Y198969D01*
D02*
G37*
G36*
X363201D02*
Y195500D01*
X359732D01*
X359804Y196044D01*
X360207Y197017D01*
X360848Y197853D01*
X361684Y198494D01*
X362657Y198897D01*
X363201Y198969D01*
D02*
G37*
G36*
X241201Y211455D02*
X242233Y211319D01*
X243194Y210921D01*
X244020Y210288D01*
X244654Y209462D01*
X245052Y208500D01*
X245188Y207469D01*
Y203532D01*
X245052Y202500D01*
X244654Y201538D01*
X244020Y200712D01*
X243194Y200079D01*
X242233Y199680D01*
X241201Y199545D01*
X240169Y199680D01*
X239207Y200079D01*
X238382Y200712D01*
X237748Y201538D01*
X237350Y202500D01*
X237214Y203532D01*
Y207469D01*
X237350Y208500D01*
X237748Y209462D01*
X238382Y210288D01*
X239207Y210921D01*
X240169Y211319D01*
X241201Y211455D01*
D02*
G37*
G36*
X313701Y288487D02*
X314733Y288351D01*
X315694Y287953D01*
X316520Y287319D01*
X317154Y286493D01*
X317552Y285532D01*
X317688Y284500D01*
X317552Y283468D01*
X317154Y282507D01*
X316520Y281681D01*
X315694Y281047D01*
X314733Y280649D01*
X313701Y280513D01*
X312669Y280649D01*
X311707Y281047D01*
X310882Y281681D01*
X310248Y282507D01*
X310056Y282971D01*
X292534D01*
X232730Y223166D01*
Y211113D01*
X233194Y210921D01*
X234020Y210288D01*
X234653Y209462D01*
X235052Y208500D01*
X235188Y207469D01*
Y203532D01*
X235052Y202500D01*
X234653Y201538D01*
X234020Y200712D01*
X233194Y200079D01*
X232233Y199680D01*
X231201Y199545D01*
X230169Y199680D01*
X229207Y200079D01*
X228382Y200712D01*
X227748Y201538D01*
X227350Y202500D01*
X227214Y203532D01*
Y207469D01*
X227350Y208500D01*
X227748Y209462D01*
X228382Y210288D01*
X229207Y210921D01*
X229671Y211113D01*
Y223800D01*
X229788Y224385D01*
X230119Y224881D01*
X290819Y285581D01*
X291316Y285913D01*
X291901Y286029D01*
X310056D01*
X310248Y286493D01*
X310882Y287319D01*
X311707Y287953D01*
X312669Y288351D01*
X313701Y288487D01*
D02*
G37*
G36*
X261201Y211455D02*
X262233Y211319D01*
X263194Y210921D01*
X264020Y210288D01*
X264653Y209462D01*
X265052Y208500D01*
X265188Y207469D01*
Y203532D01*
X265052Y202500D01*
X264653Y201538D01*
X264020Y200712D01*
X263194Y200079D01*
X262233Y199680D01*
X261201Y199545D01*
X260169Y199680D01*
X259207Y200079D01*
X258382Y200712D01*
X257748Y201538D01*
X257350Y202500D01*
X257214Y203532D01*
Y207469D01*
X257350Y208500D01*
X257748Y209462D01*
X258382Y210288D01*
X259207Y210921D01*
X260169Y211319D01*
X261201Y211455D01*
D02*
G37*
G36*
X251201D02*
X252233Y211319D01*
X253194Y210921D01*
X254020Y210288D01*
X254654Y209462D01*
X255052Y208500D01*
X255188Y207469D01*
Y203532D01*
X255052Y202500D01*
X254654Y201538D01*
X254020Y200712D01*
X253194Y200079D01*
X252233Y199680D01*
X251201Y199545D01*
X250169Y199680D01*
X249207Y200079D01*
X248382Y200712D01*
X247748Y201538D01*
X247350Y202500D01*
X247214Y203532D01*
Y207469D01*
X247350Y208500D01*
X247748Y209462D01*
X248382Y210288D01*
X249207Y210921D01*
X250169Y211319D01*
X251201Y211455D01*
D02*
G37*
G36*
X161701Y359034D02*
X162745Y358897D01*
X163718Y358494D01*
X164554Y357853D01*
X165195Y357017D01*
X165598Y356044D01*
X165735Y355000D01*
X165598Y353956D01*
X165195Y352983D01*
X164554Y352147D01*
X163718Y351506D01*
X162745Y351103D01*
X161701Y350965D01*
X160657Y351103D01*
X159684Y351506D01*
X158848Y352147D01*
X158207Y352983D01*
X157804Y353956D01*
X157666Y355000D01*
X157804Y356044D01*
X158207Y357017D01*
X158848Y357853D01*
X159684Y358494D01*
X160657Y358897D01*
X161701Y359034D01*
D02*
G37*
G36*
X179701Y448530D02*
X180614Y448410D01*
X181466Y448057D01*
X182197Y447496D01*
X182758Y446765D01*
X183111Y445914D01*
X183231Y445000D01*
X183111Y444086D01*
X182758Y443235D01*
X182197Y442504D01*
X181466Y441943D01*
X180614Y441590D01*
X179701Y441470D01*
X178787Y441590D01*
X177936Y441943D01*
X177205Y442504D01*
X176644Y443235D01*
X176291Y444086D01*
X176171Y445000D01*
X176291Y445914D01*
X176644Y446765D01*
X177205Y447496D01*
X177936Y448057D01*
X178787Y448410D01*
X179701Y448530D01*
D02*
G37*
G36*
X169901D02*
X170815Y448410D01*
X171666Y448057D01*
X172397Y447496D01*
X172958Y446765D01*
X173311Y445914D01*
X173431Y445000D01*
X173311Y444086D01*
X172958Y443235D01*
X172397Y442504D01*
X171666Y441943D01*
X170815Y441590D01*
X169901Y441470D01*
X168987Y441590D01*
X168136Y441943D01*
X167404Y442504D01*
X166843Y443235D01*
X166491Y444086D01*
X166371Y445000D01*
X166491Y445914D01*
X166843Y446765D01*
X167404Y447496D01*
X168136Y448057D01*
X168987Y448410D01*
X169901Y448530D01*
D02*
G37*
G36*
X313701Y448487D02*
X314733Y448351D01*
X315694Y447953D01*
X316520Y447319D01*
X317154Y446493D01*
X317552Y445532D01*
X317688Y444500D01*
X317552Y443468D01*
X317154Y442507D01*
X316520Y441681D01*
X315694Y441047D01*
X314733Y440649D01*
X313701Y440513D01*
X312669Y440649D01*
X311707Y441047D01*
X310882Y441681D01*
X310248Y442507D01*
X309850Y443468D01*
X309714Y444500D01*
X309850Y445532D01*
X310248Y446493D01*
X310882Y447319D01*
X311707Y447953D01*
X312669Y448351D01*
X313701Y448487D01*
D02*
G37*
G36*
X253701D02*
X254733Y448351D01*
X255694Y447953D01*
X256520Y447319D01*
X257154Y446493D01*
X257552Y445532D01*
X257688Y444500D01*
X257552Y443468D01*
X257154Y442507D01*
X256520Y441681D01*
X255694Y441047D01*
X254733Y440649D01*
X253701Y440513D01*
X252669Y440649D01*
X251707Y441047D01*
X250882Y441681D01*
X250248Y442507D01*
X249850Y443468D01*
X249714Y444500D01*
X249850Y445532D01*
X250248Y446493D01*
X250882Y447319D01*
X251707Y447953D01*
X252669Y448351D01*
X253701Y448487D01*
D02*
G37*
G36*
X180201Y452500D02*
X183165D01*
X183111Y452086D01*
X182758Y451235D01*
X182197Y450504D01*
X181466Y449943D01*
X180614Y449590D01*
X180201Y449536D01*
Y452500D01*
D02*
G37*
G36*
X176236D02*
X179201D01*
Y449536D01*
X178787Y449590D01*
X177936Y449943D01*
X177205Y450504D01*
X176644Y451235D01*
X176291Y452086D01*
X176236Y452500D01*
D02*
G37*
G36*
X117201Y448500D02*
X124201D01*
Y441500D01*
X117201D01*
Y448500D01*
D02*
G37*
G36*
X169901Y456530D02*
X170815Y456410D01*
X171666Y456057D01*
X172397Y455496D01*
X172958Y454765D01*
X173311Y453914D01*
X173431Y453000D01*
X173311Y452086D01*
X172958Y451235D01*
X172397Y450504D01*
X171666Y449943D01*
X170815Y449590D01*
X169901Y449470D01*
X168987Y449590D01*
X168136Y449943D01*
X167404Y450504D01*
X166843Y451235D01*
X166491Y452086D01*
X166371Y453000D01*
X166491Y453914D01*
X166843Y454765D01*
X167404Y455496D01*
X168136Y456057D01*
X168987Y456410D01*
X169901Y456530D01*
D02*
G37*
G36*
X253701Y438487D02*
X254733Y438351D01*
X255694Y437953D01*
X256520Y437319D01*
X257154Y436493D01*
X257552Y435532D01*
X257688Y434500D01*
X257552Y433468D01*
X257154Y432507D01*
X256520Y431681D01*
X255694Y431047D01*
X254733Y430649D01*
X253701Y430513D01*
X252669Y430649D01*
X251707Y431047D01*
X250882Y431681D01*
X250248Y432507D01*
X249850Y433468D01*
X249714Y434500D01*
X249850Y435532D01*
X250248Y436493D01*
X250882Y437319D01*
X251707Y437953D01*
X252669Y438351D01*
X253701Y438487D01*
D02*
G37*
G36*
X151201Y411969D02*
Y408500D01*
X147732D01*
X147804Y409044D01*
X148207Y410017D01*
X148848Y410853D01*
X149683Y411494D01*
X150657Y411897D01*
X151201Y411969D01*
D02*
G37*
G36*
X379201Y419000D02*
X388201D01*
Y410000D01*
X379201D01*
Y412971D01*
X317346D01*
X317154Y412507D01*
X316520Y411681D01*
X315694Y411047D01*
X314733Y410649D01*
X313701Y410513D01*
X312669Y410649D01*
X311707Y411047D01*
X310882Y411681D01*
X310248Y412507D01*
X309850Y413468D01*
X309714Y414500D01*
X309850Y415532D01*
X310248Y416493D01*
X310882Y417319D01*
X311707Y417953D01*
X312669Y418351D01*
X313701Y418487D01*
X314733Y418351D01*
X315694Y417953D01*
X316520Y417319D01*
X317154Y416493D01*
X317346Y416029D01*
X379201D01*
Y419000D01*
D02*
G37*
G36*
X147732Y407500D02*
X151201D01*
Y404031D01*
X150657Y404103D01*
X149683Y404506D01*
X148848Y405147D01*
X148207Y405983D01*
X147804Y406956D01*
X147732Y407500D01*
D02*
G37*
G36*
X152201Y411969D02*
X152745Y411897D01*
X153718Y411494D01*
X154554Y410853D01*
X155195Y410017D01*
X155598Y409044D01*
X155669Y408500D01*
X152201D01*
Y411969D01*
D02*
G37*
G36*
X253701Y428487D02*
X254733Y428351D01*
X255694Y427953D01*
X256520Y427319D01*
X257154Y426493D01*
X257552Y425532D01*
X257688Y424500D01*
X257552Y423468D01*
X257154Y422507D01*
X256520Y421681D01*
X255694Y421047D01*
X254733Y420649D01*
X253701Y420513D01*
X252669Y420649D01*
X251707Y421047D01*
X250882Y421681D01*
X250248Y422507D01*
X249850Y423468D01*
X249714Y424500D01*
X249850Y425532D01*
X250248Y426493D01*
X250882Y427319D01*
X251707Y427953D01*
X252669Y428351D01*
X253701Y428487D01*
D02*
G37*
G36*
X313701Y438487D02*
X314733Y438351D01*
X315694Y437953D01*
X316520Y437319D01*
X317154Y436493D01*
X317552Y435532D01*
X317688Y434500D01*
X317552Y433468D01*
X317154Y432507D01*
X316520Y431681D01*
X315694Y431047D01*
X314733Y430649D01*
X313701Y430513D01*
X312669Y430649D01*
X311707Y431047D01*
X310882Y431681D01*
X310248Y432507D01*
X309850Y433468D01*
X309714Y434500D01*
X309850Y435532D01*
X310248Y436493D01*
X310882Y437319D01*
X311707Y437953D01*
X312669Y438351D01*
X313701Y438487D01*
D02*
G37*
G36*
X253701Y418487D02*
X254733Y418351D01*
X255694Y417953D01*
X256520Y417319D01*
X257154Y416493D01*
X257552Y415532D01*
X257688Y414500D01*
X257552Y413468D01*
X257154Y412507D01*
X256520Y411681D01*
X255694Y411047D01*
X254733Y410649D01*
X253701Y410513D01*
X252669Y410649D01*
X251707Y411047D01*
X250882Y411681D01*
X250248Y412507D01*
X249850Y413468D01*
X249714Y414500D01*
X249850Y415532D01*
X250248Y416493D01*
X250882Y417319D01*
X251707Y417953D01*
X252669Y418351D01*
X253701Y418487D01*
D02*
G37*
G36*
X313701Y428487D02*
X314733Y428351D01*
X315694Y427953D01*
X316520Y427319D01*
X317154Y426493D01*
X317552Y425532D01*
X317688Y424500D01*
X317552Y423468D01*
X317154Y422507D01*
X316520Y421681D01*
X315694Y421047D01*
X314733Y420649D01*
X313701Y420513D01*
X312669Y420649D01*
X311707Y421047D01*
X310882Y421681D01*
X310248Y422507D01*
X309850Y423468D01*
X309714Y424500D01*
X309850Y425532D01*
X310248Y426493D01*
X310882Y427319D01*
X311707Y427953D01*
X312669Y428351D01*
X313701Y428487D01*
D02*
G37*
G36*
Y458487D02*
X314733Y458351D01*
X315694Y457953D01*
X316520Y457319D01*
X317154Y456493D01*
X317552Y455532D01*
X317688Y454500D01*
X317552Y453468D01*
X317154Y452507D01*
X316520Y451681D01*
X315694Y451047D01*
X314733Y450649D01*
X313701Y450513D01*
X312669Y450649D01*
X311707Y451047D01*
X310882Y451681D01*
X310248Y452507D01*
X309850Y453468D01*
X309714Y454500D01*
X309850Y455532D01*
X310248Y456493D01*
X310882Y457319D01*
X311707Y457953D01*
X312669Y458351D01*
X313701Y458487D01*
D02*
G37*
G36*
X435701Y475987D02*
X436733Y475851D01*
X437694Y475453D01*
X438520Y474819D01*
X439153Y473993D01*
X439552Y473032D01*
X439688Y472000D01*
X439552Y470968D01*
X439153Y470007D01*
X438520Y469181D01*
X437694Y468547D01*
X436733Y468149D01*
X435701Y468013D01*
X434669Y468149D01*
X433707Y468547D01*
X432882Y469181D01*
X432248Y470007D01*
X431850Y470968D01*
X431714Y472000D01*
X431850Y473032D01*
X432248Y473993D01*
X432882Y474819D01*
X433707Y475453D01*
X434669Y475851D01*
X435701Y475987D01*
D02*
G37*
G36*
X358201Y471500D02*
X361669D01*
X361598Y470956D01*
X361195Y469983D01*
X360554Y469147D01*
X359718Y468506D01*
X358745Y468103D01*
X358201Y468031D01*
Y471500D01*
D02*
G37*
G36*
X253701Y468487D02*
X254733Y468351D01*
X255694Y467953D01*
X256520Y467319D01*
X257154Y466493D01*
X257552Y465532D01*
X257688Y464500D01*
X257552Y463468D01*
X257154Y462507D01*
X256520Y461681D01*
X255694Y461047D01*
X254733Y460649D01*
X253701Y460513D01*
X252669Y460649D01*
X251707Y461047D01*
X250882Y461681D01*
X250248Y462507D01*
X249850Y463468D01*
X249714Y464500D01*
X249850Y465532D01*
X250248Y466493D01*
X250882Y467319D01*
X251707Y467953D01*
X252669Y468351D01*
X253701Y468487D01*
D02*
G37*
G36*
X309748Y468453D02*
X317653D01*
Y460547D01*
X309748D01*
Y468453D01*
D02*
G37*
G36*
X357201Y475969D02*
Y472500D01*
X353732D01*
X353804Y473044D01*
X354207Y474017D01*
X354848Y474853D01*
X355683Y475494D01*
X356657Y475897D01*
X357201Y475969D01*
D02*
G37*
G36*
X363701Y476000D02*
X371701D01*
Y473529D01*
X376938D01*
X377130Y473993D01*
X377763Y474819D01*
X378589Y475453D01*
X379551Y475851D01*
X380583Y475987D01*
X381614Y475851D01*
X382576Y475453D01*
X383402Y474819D01*
X384035Y473993D01*
X384434Y473032D01*
X384569Y472000D01*
X384434Y470968D01*
X384035Y470007D01*
X383402Y469181D01*
X382576Y468547D01*
X381614Y468149D01*
X380583Y468013D01*
X379551Y468149D01*
X378589Y468547D01*
X377763Y469181D01*
X377130Y470007D01*
X376938Y470471D01*
X371701D01*
Y468000D01*
X363701D01*
Y476000D01*
D02*
G37*
G36*
X353732Y471500D02*
X357201D01*
Y468031D01*
X356657Y468103D01*
X355683Y468506D01*
X354848Y469147D01*
X354207Y469983D01*
X353804Y470956D01*
X353732Y471500D01*
D02*
G37*
G36*
X358201Y475969D02*
X358745Y475897D01*
X359718Y475494D01*
X360554Y474853D01*
X361195Y474017D01*
X361598Y473044D01*
X361669Y472500D01*
X358201D01*
Y475969D01*
D02*
G37*
G36*
X150601Y470534D02*
X151973Y470399D01*
X153293Y469998D01*
X154509Y469348D01*
X155575Y468474D01*
X156449Y467408D01*
X157099Y466192D01*
X157500Y464872D01*
X157635Y463500D01*
X157500Y462128D01*
X157099Y460808D01*
X156449Y459592D01*
X155575Y458526D01*
X154509Y457652D01*
X153293Y457002D01*
X151973Y456601D01*
X150601Y456466D01*
X149229Y456601D01*
X147909Y457002D01*
X146693Y457652D01*
X145627Y458526D01*
X144752Y459592D01*
X144102Y460808D01*
X143702Y462128D01*
X143567Y463500D01*
X143702Y464872D01*
X144102Y466192D01*
X144752Y467408D01*
X145627Y468474D01*
X146693Y469348D01*
X147909Y469998D01*
X149229Y470399D01*
X150601Y470534D01*
D02*
G37*
G36*
X117236Y454500D02*
X120201D01*
Y451536D01*
X119787Y451590D01*
X118936Y451943D01*
X118204Y452504D01*
X117643Y453235D01*
X117291Y454086D01*
X117236Y454500D01*
D02*
G37*
G36*
X180201Y456464D02*
X180614Y456410D01*
X181466Y456057D01*
X182197Y455496D01*
X182758Y454765D01*
X183111Y453914D01*
X183165Y453500D01*
X180201D01*
Y456464D01*
D02*
G37*
G36*
X253701Y458487D02*
X254733Y458351D01*
X255694Y457953D01*
X256520Y457319D01*
X257154Y456493D01*
X257552Y455532D01*
X257688Y454500D01*
X257552Y453468D01*
X257154Y452507D01*
X256520Y451681D01*
X255694Y451047D01*
X254733Y450649D01*
X253701Y450513D01*
X252669Y450649D01*
X251707Y451047D01*
X250882Y451681D01*
X250248Y452507D01*
X249850Y453468D01*
X249714Y454500D01*
X249850Y455532D01*
X250248Y456493D01*
X250882Y457319D01*
X251707Y457953D01*
X252669Y458351D01*
X253701Y458487D01*
D02*
G37*
G36*
X121201Y454500D02*
X124165D01*
X124110Y454086D01*
X123758Y453235D01*
X123197Y452504D01*
X122466Y451943D01*
X121614Y451590D01*
X121201Y451536D01*
Y454500D01*
D02*
G37*
G36*
X120201Y458464D02*
Y455500D01*
X117236D01*
X117291Y455914D01*
X117643Y456765D01*
X118204Y457496D01*
X118936Y458057D01*
X119787Y458410D01*
X120201Y458464D01*
D02*
G37*
G36*
X198601Y470534D02*
X199973Y470399D01*
X201292Y469998D01*
X202509Y469348D01*
X203574Y468474D01*
X204449Y467408D01*
X205099Y466192D01*
X205500Y464872D01*
X205635Y463500D01*
X205500Y462128D01*
X205099Y460808D01*
X204449Y459592D01*
X203574Y458526D01*
X202509Y457652D01*
X201292Y457002D01*
X199973Y456601D01*
X198601Y456466D01*
X197229Y456601D01*
X195909Y457002D01*
X194693Y457652D01*
X193627Y458526D01*
X192752Y459592D01*
X192102Y460808D01*
X191702Y462128D01*
X191567Y463500D01*
X191702Y464872D01*
X192102Y466192D01*
X192752Y467408D01*
X193627Y468474D01*
X194693Y469348D01*
X195909Y469998D01*
X197229Y470399D01*
X198601Y470534D01*
D02*
G37*
G36*
X179201Y456464D02*
Y453500D01*
X176236D01*
X176291Y453914D01*
X176644Y454765D01*
X177205Y455496D01*
X177936Y456057D01*
X178787Y456410D01*
X179201Y456464D01*
D02*
G37*
G36*
X121201Y458464D02*
X121614Y458410D01*
X122466Y458057D01*
X123197Y457496D01*
X123758Y456765D01*
X124110Y455914D01*
X124165Y455500D01*
X121201D01*
Y458464D01*
D02*
G37*
G36*
X152201Y407500D02*
X155669D01*
X155598Y406956D01*
X155195Y405983D01*
X154554Y405147D01*
X153718Y404506D01*
X152745Y404103D01*
X152201Y404031D01*
Y407500D01*
D02*
G37*
G36*
X313201Y368421D02*
Y365000D01*
X309780D01*
X309850Y365532D01*
X310248Y366493D01*
X310882Y367319D01*
X311707Y367953D01*
X312669Y368351D01*
X313201Y368421D01*
D02*
G37*
G36*
X200201Y369969D02*
X200745Y369897D01*
X201718Y369494D01*
X202554Y368853D01*
X203195Y368017D01*
X203598Y367044D01*
X203670Y366500D01*
X200201D01*
Y369969D01*
D02*
G37*
G36*
X221201Y367969D02*
Y364500D01*
X217732D01*
X217804Y365044D01*
X218207Y366017D01*
X218848Y366853D01*
X219684Y367494D01*
X220657Y367897D01*
X221201Y367969D01*
D02*
G37*
G36*
X314201Y368421D02*
X314733Y368351D01*
X315694Y367953D01*
X316520Y367319D01*
X317154Y366493D01*
X317552Y365532D01*
X317622Y365000D01*
X314201D01*
Y368421D01*
D02*
G37*
G36*
X254201Y374000D02*
X257622D01*
X257552Y373468D01*
X257154Y372507D01*
X256520Y371681D01*
X255694Y371047D01*
X254733Y370649D01*
X254201Y370579D01*
Y374000D01*
D02*
G37*
G36*
X249780D02*
X253201D01*
Y370579D01*
X252669Y370649D01*
X251707Y371047D01*
X250882Y371681D01*
X250248Y372507D01*
X249850Y373468D01*
X249780Y374000D01*
D02*
G37*
G36*
X199201Y369969D02*
Y366500D01*
X195732D01*
X195804Y367044D01*
X196207Y368017D01*
X196848Y368853D01*
X197684Y369494D01*
X198657Y369897D01*
X199201Y369969D01*
D02*
G37*
G36*
X313701Y378487D02*
X314733Y378351D01*
X315694Y377953D01*
X316520Y377319D01*
X317154Y376493D01*
X317552Y375532D01*
X317688Y374500D01*
X317552Y373468D01*
X317154Y372507D01*
X316520Y371681D01*
X315694Y371047D01*
X314733Y370649D01*
X313701Y370513D01*
X312669Y370649D01*
X311707Y371047D01*
X310882Y371681D01*
X310248Y372507D01*
X309850Y373468D01*
X309714Y374500D01*
X309850Y375532D01*
X310248Y376493D01*
X310882Y377319D01*
X311707Y377953D01*
X312669Y378351D01*
X313701Y378487D01*
D02*
G37*
G36*
X217732Y363500D02*
X221201D01*
Y360031D01*
X220657Y360103D01*
X219684Y360506D01*
X218848Y361147D01*
X218207Y361983D01*
X217804Y362956D01*
X217732Y363500D01*
D02*
G37*
G36*
X314201Y364000D02*
X317622D01*
X317552Y363468D01*
X317154Y362507D01*
X316520Y361681D01*
X315694Y361047D01*
X314733Y360649D01*
X314201Y360579D01*
Y364000D01*
D02*
G37*
G36*
X129701Y361029D02*
X137201D01*
X137786Y360913D01*
X138282Y360581D01*
X140169Y358695D01*
X140657Y358897D01*
X141701Y359034D01*
X142745Y358897D01*
X143718Y358494D01*
X144554Y357853D01*
X145195Y357017D01*
X145598Y356044D01*
X145735Y355000D01*
X145598Y353956D01*
X145195Y352983D01*
X144554Y352147D01*
X143718Y351506D01*
X142745Y351103D01*
X141701Y350965D01*
X140657Y351103D01*
X139683Y351506D01*
X138848Y352147D01*
X138207Y352983D01*
X137804Y353956D01*
X137666Y355000D01*
X137804Y356044D01*
X138006Y356532D01*
X136567Y357971D01*
X135093D01*
X134847Y357471D01*
X135195Y357017D01*
X135598Y356044D01*
X135735Y355000D01*
X135598Y353956D01*
X135396Y353468D01*
X154134Y334729D01*
X235767D01*
X241619Y340581D01*
X242115Y340913D01*
X242701Y341029D01*
X250909D01*
X251079Y341529D01*
X250882Y341681D01*
X250248Y342507D01*
X249850Y343468D01*
X249714Y344500D01*
X249850Y345532D01*
X250248Y346493D01*
X250882Y347319D01*
X251707Y347953D01*
X252669Y348351D01*
X253701Y348487D01*
X254733Y348351D01*
X255694Y347953D01*
X256520Y347319D01*
X257154Y346493D01*
X257552Y345532D01*
X257688Y344500D01*
X257552Y343468D01*
X257154Y342507D01*
X256520Y341681D01*
X256323Y341529D01*
X256492Y341029D01*
X308701D01*
X309286Y340913D01*
X309782Y340581D01*
X312205Y338159D01*
X312669Y338351D01*
X313701Y338487D01*
X314733Y338351D01*
X315694Y337953D01*
X316520Y337319D01*
X317154Y336493D01*
X317552Y335532D01*
X317688Y334500D01*
X317552Y333468D01*
X317154Y332507D01*
X316520Y331681D01*
X315694Y331047D01*
X314733Y330649D01*
X313701Y330513D01*
X312669Y330649D01*
X311707Y331047D01*
X310882Y331681D01*
X310248Y332507D01*
X309850Y333468D01*
X309714Y334500D01*
X309850Y335532D01*
X310042Y335996D01*
X308067Y337971D01*
X256492D01*
X256323Y337471D01*
X256520Y337319D01*
X257154Y336493D01*
X257552Y335532D01*
X257688Y334500D01*
X257552Y333468D01*
X257154Y332507D01*
X256787Y332029D01*
X257034Y331529D01*
X308201D01*
X308689Y331432D01*
X308786Y331413D01*
X309282Y331081D01*
X312205Y328159D01*
X312669Y328351D01*
X313701Y328487D01*
X314733Y328351D01*
X315694Y327953D01*
X316520Y327319D01*
X317154Y326493D01*
X317552Y325532D01*
X317688Y324500D01*
X317552Y323468D01*
X317154Y322507D01*
X316520Y321681D01*
X315694Y321047D01*
X314733Y320649D01*
X313701Y320513D01*
X312669Y320649D01*
X311707Y321047D01*
X310882Y321681D01*
X310248Y322507D01*
X309850Y323468D01*
X309714Y324500D01*
X309850Y325532D01*
X310042Y325996D01*
X307567Y328471D01*
X255750D01*
X255651Y327971D01*
X255694Y327953D01*
X256520Y327319D01*
X257154Y326493D01*
X257552Y325532D01*
X257688Y324500D01*
X257552Y323468D01*
X257154Y322507D01*
X256520Y321681D01*
X255694Y321047D01*
X254733Y320649D01*
X253701Y320513D01*
X252669Y320649D01*
X251707Y321047D01*
X250882Y321681D01*
X250248Y322507D01*
X249850Y323468D01*
X249714Y324500D01*
X249850Y325532D01*
X250248Y326493D01*
X250882Y327319D01*
X251707Y327953D01*
X251750Y327971D01*
X251651Y328471D01*
X144901D01*
X144316Y328587D01*
X143819Y328919D01*
X126119Y346619D01*
X125788Y347115D01*
X125671Y347700D01*
Y352700D01*
X125224Y352955D01*
X125171Y352952D01*
X124554Y352147D01*
X123718Y351506D01*
X122745Y351103D01*
X121701Y350965D01*
X120657Y351103D01*
X119684Y351506D01*
X118848Y352147D01*
X118207Y352983D01*
X117804Y353956D01*
X117666Y355000D01*
X117804Y356044D01*
X118207Y357017D01*
X118848Y357853D01*
X119684Y358494D01*
X120657Y358897D01*
X121701Y359034D01*
X122745Y358897D01*
X123718Y358494D01*
X124554Y357853D01*
X125184Y357031D01*
X125279Y357025D01*
X125695Y357117D01*
X125768Y357488D01*
X125788Y357585D01*
X126119Y358081D01*
X128619Y360581D01*
X129115Y360913D01*
X129701Y361029D01*
D02*
G37*
G36*
X222201Y363500D02*
X225670D01*
X225598Y362956D01*
X225195Y361983D01*
X224554Y361147D01*
X223718Y360506D01*
X222745Y360103D01*
X222201Y360031D01*
Y363500D01*
D02*
G37*
G36*
X195732Y365500D02*
X199201D01*
Y362031D01*
X198657Y362103D01*
X197684Y362506D01*
X196848Y363147D01*
X196207Y363983D01*
X195804Y364956D01*
X195732Y365500D01*
D02*
G37*
G36*
X222201Y367969D02*
X222745Y367897D01*
X223718Y367494D01*
X224554Y366853D01*
X225195Y366017D01*
X225598Y365044D01*
X225670Y364500D01*
X222201D01*
Y367969D01*
D02*
G37*
G36*
X309780Y364000D02*
X313201D01*
Y360579D01*
X312669Y360649D01*
X311707Y361047D01*
X310882Y361681D01*
X310248Y362507D01*
X309850Y363468D01*
X309780Y364000D01*
D02*
G37*
G36*
X200201Y365500D02*
X203670D01*
X203598Y364956D01*
X203195Y363983D01*
X202554Y363147D01*
X201718Y362506D01*
X200745Y362103D01*
X200201Y362031D01*
Y365500D01*
D02*
G37*
G36*
X254201Y378421D02*
X254733Y378351D01*
X255694Y377953D01*
X256520Y377319D01*
X257154Y376493D01*
X257552Y375532D01*
X257622Y375000D01*
X254201D01*
Y378421D01*
D02*
G37*
G36*
X182201Y389969D02*
X182745Y389897D01*
X183718Y389494D01*
X184554Y388853D01*
X185195Y388017D01*
X185598Y387044D01*
X185670Y386500D01*
X182201D01*
Y389969D01*
D02*
G37*
G36*
X181201D02*
Y386500D01*
X177732D01*
X177804Y387044D01*
X178207Y388017D01*
X178848Y388853D01*
X179683Y389494D01*
X180657Y389897D01*
X181201Y389969D01*
D02*
G37*
G36*
X182201Y385500D02*
X185670D01*
X185598Y384956D01*
X185195Y383983D01*
X184554Y383147D01*
X183718Y382506D01*
X182745Y382103D01*
X182201Y382031D01*
Y385500D01*
D02*
G37*
G36*
X177732D02*
X181201D01*
Y382031D01*
X180657Y382103D01*
X179683Y382506D01*
X178848Y383147D01*
X178207Y383983D01*
X177804Y384956D01*
X177732Y385500D01*
D02*
G37*
G36*
X383701Y409039D02*
X384875Y408884D01*
X385970Y408431D01*
X386910Y407709D01*
X387632Y406769D01*
X388085Y405675D01*
X388240Y404500D01*
X388085Y403325D01*
X387632Y402231D01*
X386910Y401291D01*
X385970Y400569D01*
X384875Y400116D01*
X383701Y399961D01*
X382526Y400116D01*
X381431Y400569D01*
X380491Y401291D01*
X379770Y402231D01*
X379464Y402971D01*
X317346D01*
X317154Y402507D01*
X316520Y401681D01*
X315694Y401047D01*
X314733Y400649D01*
X313701Y400513D01*
X312669Y400649D01*
X311707Y401047D01*
X310882Y401681D01*
X310248Y402507D01*
X309850Y403468D01*
X309714Y404500D01*
X309850Y405532D01*
X310248Y406493D01*
X310882Y407319D01*
X311707Y407953D01*
X312669Y408351D01*
X313701Y408487D01*
X314733Y408351D01*
X315694Y407953D01*
X316520Y407319D01*
X317154Y406493D01*
X317346Y406029D01*
X379464D01*
X379770Y406769D01*
X380491Y407709D01*
X381431Y408431D01*
X382526Y408884D01*
X383701Y409039D01*
D02*
G37*
G36*
X253701Y408487D02*
X254733Y408351D01*
X255694Y407953D01*
X256520Y407319D01*
X257154Y406493D01*
X257552Y405532D01*
X257688Y404500D01*
X257552Y403468D01*
X257154Y402507D01*
X256520Y401681D01*
X255694Y401047D01*
X254733Y400649D01*
X253701Y400513D01*
X252669Y400649D01*
X251707Y401047D01*
X250882Y401681D01*
X250248Y402507D01*
X249850Y403468D01*
X249714Y404500D01*
X249850Y405532D01*
X250248Y406493D01*
X250882Y407319D01*
X251707Y407953D01*
X252669Y408351D01*
X253701Y408487D01*
D02*
G37*
G36*
Y398487D02*
X254733Y398351D01*
X255694Y397953D01*
X256520Y397319D01*
X257154Y396493D01*
X257552Y395532D01*
X257688Y394500D01*
X257552Y393468D01*
X257154Y392507D01*
X256520Y391681D01*
X255694Y391047D01*
X255651Y391029D01*
X255750Y390529D01*
X309201D01*
X309786Y390413D01*
X310282Y390081D01*
X312205Y388159D01*
X312669Y388351D01*
X313701Y388487D01*
X314733Y388351D01*
X315694Y387953D01*
X316520Y387319D01*
X317154Y386493D01*
X317346Y386029D01*
X379464D01*
X379770Y386769D01*
X380491Y387709D01*
X381431Y388431D01*
X382526Y388884D01*
X383701Y389039D01*
X384875Y388884D01*
X385970Y388431D01*
X386910Y387709D01*
X387632Y386769D01*
X388085Y385675D01*
X388240Y384500D01*
X388085Y383325D01*
X387632Y382231D01*
X386910Y381291D01*
X385970Y380569D01*
X384875Y380116D01*
X383701Y379961D01*
X382526Y380116D01*
X381431Y380569D01*
X380491Y381291D01*
X379770Y382231D01*
X379464Y382971D01*
X317346D01*
X317154Y382507D01*
X316520Y381681D01*
X315694Y381047D01*
X314733Y380649D01*
X313701Y380513D01*
X312669Y380649D01*
X311707Y381047D01*
X310882Y381681D01*
X310248Y382507D01*
X309850Y383468D01*
X309714Y384500D01*
X309850Y385532D01*
X310042Y385996D01*
X308567Y387471D01*
X257034D01*
X256787Y386971D01*
X257154Y386493D01*
X257552Y385532D01*
X257688Y384500D01*
X257552Y383468D01*
X257154Y382507D01*
X256520Y381681D01*
X255694Y381047D01*
X254733Y380649D01*
X253701Y380513D01*
X252669Y380649D01*
X251707Y381047D01*
X250882Y381681D01*
X250248Y382507D01*
X249850Y383468D01*
X249714Y384500D01*
X249850Y385532D01*
X250248Y386493D01*
X250614Y386971D01*
X250368Y387471D01*
X243669D01*
X240382Y384184D01*
X239886Y383853D01*
X239301Y383736D01*
X192100D01*
X173782Y365419D01*
X173286Y365087D01*
X172701Y364971D01*
X163834D01*
X155396Y356532D01*
X155598Y356044D01*
X155735Y355000D01*
X155598Y353956D01*
X155195Y352983D01*
X154554Y352147D01*
X153718Y351506D01*
X152745Y351103D01*
X151701Y350965D01*
X150657Y351103D01*
X149683Y351506D01*
X148848Y352147D01*
X148207Y352983D01*
X147804Y353956D01*
X147666Y355000D01*
X147804Y356044D01*
X148207Y357017D01*
X148848Y357853D01*
X149683Y358494D01*
X150657Y358897D01*
X151701Y359034D01*
X152745Y358897D01*
X153233Y358695D01*
X162119Y367581D01*
X162616Y367913D01*
X163201Y368029D01*
X172067D01*
X190385Y386347D01*
X190881Y386679D01*
X191467Y386795D01*
X232181D01*
X232428Y387295D01*
X232243Y387535D01*
X231891Y388386D01*
X231771Y389300D01*
X231891Y390214D01*
X232243Y391065D01*
X232805Y391796D01*
X233536Y392357D01*
X234387Y392710D01*
X235301Y392830D01*
X236214Y392710D01*
X236450Y392612D01*
X239419Y395581D01*
X239915Y395913D01*
X240501Y396029D01*
X250056D01*
X250248Y396493D01*
X250882Y397319D01*
X251707Y397953D01*
X252669Y398351D01*
X253701Y398487D01*
D02*
G37*
G36*
X383701Y399039D02*
X384875Y398884D01*
X385970Y398431D01*
X386910Y397709D01*
X387632Y396769D01*
X388085Y395675D01*
X388240Y394500D01*
X388085Y393325D01*
X387632Y392231D01*
X386910Y391291D01*
X385970Y390569D01*
X384875Y390116D01*
X383701Y389961D01*
X382526Y390116D01*
X381431Y390569D01*
X380491Y391291D01*
X379770Y392231D01*
X379464Y392971D01*
X317346D01*
X317154Y392507D01*
X316520Y391681D01*
X315694Y391047D01*
X314733Y390649D01*
X313701Y390513D01*
X312669Y390649D01*
X311707Y391047D01*
X310882Y391681D01*
X310248Y392507D01*
X309850Y393468D01*
X309714Y394500D01*
X309850Y395532D01*
X310248Y396493D01*
X310882Y397319D01*
X311707Y397953D01*
X312669Y398351D01*
X313701Y398487D01*
X314733Y398351D01*
X315694Y397953D01*
X316520Y397319D01*
X317154Y396493D01*
X317346Y396029D01*
X379464D01*
X379770Y396769D01*
X380491Y397709D01*
X381431Y398431D01*
X382526Y398884D01*
X383701Y399039D01*
D02*
G37*
G36*
X253201Y378421D02*
Y375000D01*
X249780D01*
X249850Y375532D01*
X250248Y376493D01*
X250882Y377319D01*
X251707Y377953D01*
X252669Y378351D01*
X253201Y378421D01*
D02*
G37*
G36*
X161701Y390035D02*
X162745Y389897D01*
X163718Y389494D01*
X164554Y388853D01*
X165195Y388017D01*
X165598Y387044D01*
X165735Y386000D01*
X165598Y384956D01*
X165195Y383983D01*
X164554Y383147D01*
X163718Y382506D01*
X162745Y382103D01*
X161701Y381965D01*
X160657Y382103D01*
X159684Y382506D01*
X158848Y383147D01*
X158207Y383983D01*
X157804Y384956D01*
X157666Y386000D01*
X157804Y387044D01*
X158207Y388017D01*
X158848Y388853D01*
X159684Y389494D01*
X160657Y389897D01*
X161701Y390035D01*
D02*
G37*
G36*
X171701D02*
X172745Y389897D01*
X173718Y389494D01*
X174554Y388853D01*
X175195Y388017D01*
X175598Y387044D01*
X175735Y386000D01*
X175598Y384956D01*
X175195Y383983D01*
X174554Y383147D01*
X173718Y382506D01*
X172745Y382103D01*
X171701Y381965D01*
X170657Y382103D01*
X169684Y382506D01*
X168848Y383147D01*
X168207Y383983D01*
X167804Y384956D01*
X167666Y386000D01*
X167804Y387044D01*
X168207Y388017D01*
X168848Y388853D01*
X169684Y389494D01*
X170657Y389897D01*
X171701Y390035D01*
D02*
G37*
G36*
X151701Y402035D02*
X152745Y401897D01*
X153718Y401494D01*
X154554Y400853D01*
X155195Y400017D01*
X155598Y399044D01*
X155735Y398000D01*
X155598Y396956D01*
X155195Y395983D01*
X154554Y395147D01*
X153718Y394506D01*
X153230Y394304D01*
Y389696D01*
X153718Y389494D01*
X154554Y388853D01*
X155195Y388017D01*
X155598Y387044D01*
X155735Y386000D01*
X155598Y384956D01*
X155195Y383983D01*
X154554Y383147D01*
X153718Y382506D01*
X152745Y382103D01*
X151701Y381965D01*
X150657Y382103D01*
X149683Y382506D01*
X148848Y383147D01*
X148207Y383983D01*
X147804Y384956D01*
X147666Y386000D01*
X147804Y387044D01*
X148207Y388017D01*
X148848Y388853D01*
X149683Y389494D01*
X150171Y389696D01*
Y394304D01*
X149683Y394506D01*
X148848Y395147D01*
X148207Y395983D01*
X147804Y396956D01*
X147666Y398000D01*
X147804Y399044D01*
X148207Y400017D01*
X148848Y400853D01*
X149683Y401494D01*
X150657Y401897D01*
X151701Y402035D01*
D02*
G37*
G36*
X131701Y390035D02*
X132745Y389897D01*
X133718Y389494D01*
X134554Y388853D01*
X135195Y388017D01*
X135598Y387044D01*
X135735Y386000D01*
X135598Y384956D01*
X135195Y383983D01*
X134554Y383147D01*
X133718Y382506D01*
X132745Y382103D01*
X131701Y381965D01*
X130657Y382103D01*
X129683Y382506D01*
X128848Y383147D01*
X128207Y383983D01*
X127804Y384956D01*
X127666Y386000D01*
X127804Y387044D01*
X128207Y388017D01*
X128848Y388853D01*
X129683Y389494D01*
X130657Y389897D01*
X131701Y390035D01*
D02*
G37*
G36*
X121701D02*
X122745Y389897D01*
X123718Y389494D01*
X124554Y388853D01*
X125195Y388017D01*
X125598Y387044D01*
X125735Y386000D01*
X125598Y384956D01*
X125195Y383983D01*
X124554Y383147D01*
X123718Y382506D01*
X122745Y382103D01*
X121701Y381965D01*
X120657Y382103D01*
X119684Y382506D01*
X118848Y383147D01*
X118207Y383983D01*
X117804Y384956D01*
X117666Y386000D01*
X117804Y387044D01*
X118207Y388017D01*
X118848Y388853D01*
X119684Y389494D01*
X120657Y389897D01*
X121701Y390035D01*
D02*
G37*
G36*
X141701D02*
X142745Y389897D01*
X143718Y389494D01*
X144554Y388853D01*
X145195Y388017D01*
X145598Y387044D01*
X145735Y386000D01*
X145598Y384956D01*
X145195Y383983D01*
X144554Y383147D01*
X143718Y382506D01*
X142745Y382103D01*
X141701Y381965D01*
X140657Y382103D01*
X139683Y382506D01*
X138848Y383147D01*
X138207Y383983D01*
X137804Y384956D01*
X137666Y386000D01*
X137804Y387044D01*
X138207Y388017D01*
X138848Y388853D01*
X139683Y389494D01*
X140657Y389897D01*
X141701Y390035D01*
D02*
G37*
%LPD*%
G36*
X128730Y351607D02*
Y348334D01*
X145534Y331529D01*
X152401D01*
X152553Y332029D01*
X152419Y332119D01*
X133233Y351305D01*
X132745Y351103D01*
X131701Y350965D01*
X130657Y351103D01*
X129683Y351506D01*
X129230Y351854D01*
X128730Y351607D01*
D02*
G37*
G36*
X238613Y390449D02*
X238711Y390214D01*
X238831Y389300D01*
X238711Y388386D01*
X238371Y387567D01*
X238364Y387522D01*
X238603Y387033D01*
X238870Y386998D01*
X241953Y390081D01*
X242450Y390413D01*
X243035Y390529D01*
X251651D01*
X251750Y391029D01*
X251707Y391047D01*
X250882Y391681D01*
X250248Y392507D01*
X250056Y392971D01*
X241134D01*
X238613Y390449D01*
D02*
G37*
G36*
X237482Y332119D02*
X237349Y332029D01*
X237501Y331529D01*
X250368D01*
X250614Y332029D01*
X250248Y332507D01*
X249850Y333468D01*
X249714Y334500D01*
X249850Y335532D01*
X250248Y336493D01*
X250882Y337319D01*
X251079Y337471D01*
X250909Y337971D01*
X243334D01*
X237482Y332119D01*
D02*
G37*
D10*
X380583Y472000D02*
X367701D01*
X199701Y356000D02*
X182701D01*
X181701Y355000D01*
X231701Y342000D02*
Y364000D01*
X253201D02*
X231701D01*
X253701Y364500D02*
X253201Y364000D01*
X291701Y205000D02*
X291201Y205500D01*
X363701Y205000D02*
X291701D01*
X331807Y326394D02*
X313701Y344500D01*
X354701Y326394D02*
X331807D01*
X322594Y345606D02*
X313701Y354500D01*
X354701Y345606D02*
X322594D01*
X357094Y348000D02*
X354701Y345606D01*
X383701Y348000D02*
X357094D01*
X397701Y244347D02*
X382843Y259205D01*
X397701Y231000D02*
Y244347D01*
X426701Y238000D02*
X404701D01*
X397701Y231000D01*
X151701Y386000D02*
Y398000D01*
X383701Y414500D02*
X313701D01*
X383701Y404500D02*
X313701D01*
X383701Y394500D02*
X313701D01*
X383701Y326000D02*
X369401D01*
X369007Y326394D01*
X354701D01*
X383701Y384500D02*
X313701D01*
X320201Y134900D02*
X265701D01*
X261201Y139400D01*
Y145500D01*
X296701Y182200D02*
X290001Y175500D01*
X205701D01*
X201201Y171000D01*
Y145500D02*
Y171000D01*
X313701Y274500D02*
X281201Y242000D01*
Y205500D02*
Y242000D01*
X313701Y324500D02*
X308201Y330000D01*
X144901D01*
X127201Y347700D01*
Y357000D01*
X129701Y359500D02*
X127201Y357000D01*
X137201Y359500D02*
X129701D01*
X141701Y355000D02*
X137201Y359500D01*
X313701Y384500D02*
X309201Y389000D01*
X243035D01*
X239301Y385266D01*
X191467D01*
X172701Y366500D01*
X163201D01*
X151701Y355000D01*
X221201Y205500D02*
Y235000D01*
X258201Y272000D02*
X221201Y235000D01*
X258201Y272000D02*
Y300000D01*
X253701Y304500D01*
Y274500D02*
X211201Y232000D01*
Y205500D02*
Y232000D01*
X231201Y205500D02*
Y223800D01*
X291901Y284500D02*
X231201Y223800D01*
X313701Y284500D02*
X291901D01*
X271201Y140000D02*
Y145500D01*
X273701Y137500D02*
X271201Y140000D01*
X295401Y137500D02*
X273701D01*
X299701Y141800D02*
X295401Y137500D01*
X253701Y394500D02*
X240501D01*
X235301Y389300D01*
X153501Y333200D02*
X131701Y355000D01*
X236401Y333200D02*
X153501D01*
X242701Y339500D02*
X236401Y333200D01*
X308701Y339500D02*
X242701D01*
X313701Y334500D02*
X308701Y339500D01*
D11*
X204601Y493800D02*
X144601D01*
X159601Y496251D02*
Y499250D01*
X161100D01*
X161600Y498750D01*
Y498250D01*
X161100Y497751D01*
X159601D01*
X161100D01*
X161600Y497251D01*
Y496751D01*
X161100Y496251D01*
X159601D01*
X163100Y499250D02*
X164099D01*
X164599Y498750D01*
Y497751D01*
X164099Y497251D01*
X163100D01*
X162600Y497751D01*
Y498750D01*
X163100Y499250D01*
X166099Y497251D02*
X167098D01*
X167598Y497751D01*
Y499250D01*
X166099D01*
X165599Y498750D01*
X166099Y498250D01*
X167598D01*
X168598Y497251D02*
Y499250D01*
Y498250D01*
X169098Y497751D01*
X169598Y497251D01*
X170097D01*
X173596Y496251D02*
Y499250D01*
X172097D01*
X171597Y498750D01*
Y497751D01*
X172097Y497251D01*
X173596D01*
X179594Y496251D02*
X177595D01*
Y499250D01*
X179594D01*
X177595Y497751D02*
X178595D01*
X182593Y496251D02*
Y499250D01*
X181094D01*
X180594Y498750D01*
Y497751D01*
X181094Y497251D01*
X182593D01*
X184593Y500250D02*
X185092D01*
X185592Y499750D01*
Y497251D01*
X184093D01*
X183593Y497751D01*
Y498750D01*
X184093Y499250D01*
X185592D01*
X188092D02*
X187092D01*
X186592Y498750D01*
Y497751D01*
X187092Y497251D01*
X188092D01*
X188591Y497751D01*
Y498250D01*
X186592D01*
X371701Y464500D02*
Y479500D01*
Y464500D02*
X353701D01*
Y479500D01*
X371701D02*
X353701D01*
D12*
X305945Y470189D02*
G03*
X305945Y470189I1969J0D01*
G01*
X295689Y152764D02*
G03*
X295689Y152764I1969J0D01*
G01*
X311457Y265268D02*
Y473732D01*
X255945Y265268D02*
Y473732D01*
X311457D02*
X255945D01*
X311457Y265268D02*
X255945D01*
X301201Y149220D02*
X151201D01*
X301201Y201780D02*
X151201D01*
X301201Y149220D02*
Y201780D01*
X151201Y149220D02*
Y201780D01*
X285669Y369500D02*
X281732D01*
X283701Y367532D02*
Y371469D01*
X226201Y173532D02*
Y177469D01*
X228169Y175500D02*
X224232D01*
D13*
X347701Y322500D02*
G03*
X361701Y322500I7000J0D01*
G01*
Y349500D02*
G03*
X347701Y349500I-7000J0D01*
G01*
X361701Y322500D02*
Y349500D01*
X347701Y322500D02*
Y349500D01*
D14*
X345701Y322500D02*
G03*
X363701Y322500I9000J0D01*
G01*
Y349500D02*
G03*
X345701Y349500I-9000J0D01*
G01*
X363701Y322500D02*
Y349500D01*
X345701Y322500D02*
Y349500D01*
D15*
X151701Y408000D02*
D03*
Y398000D02*
D03*
X221701Y364000D02*
D03*
X231701D02*
D03*
X363701Y195000D02*
D03*
Y205000D02*
D03*
X199701Y356000D02*
D03*
Y366000D02*
D03*
X387701Y231000D02*
D03*
X397701D02*
D03*
X181701Y386000D02*
D03*
X171701D02*
D03*
X161701D02*
D03*
X151701D02*
D03*
X141701D02*
D03*
X131701D02*
D03*
X121701D02*
D03*
Y355000D02*
D03*
X131701D02*
D03*
X141701D02*
D03*
X151701D02*
D03*
X161701D02*
D03*
X171701D02*
D03*
X181701D02*
D03*
X357701Y472000D02*
D03*
X383701Y348000D02*
D03*
X393701D02*
D03*
X383701Y326000D02*
D03*
X393701D02*
D03*
X231701Y342000D02*
D03*
X221701D02*
D03*
D16*
X426701Y293118D02*
D03*
Y238000D02*
D03*
X313701Y454500D02*
D03*
Y444500D02*
D03*
Y434500D02*
D03*
Y424500D02*
D03*
Y414500D02*
D03*
Y404500D02*
D03*
Y394500D02*
D03*
Y384500D02*
D03*
Y374500D02*
D03*
Y364500D02*
D03*
Y354500D02*
D03*
Y344500D02*
D03*
Y334500D02*
D03*
Y324500D02*
D03*
Y314500D02*
D03*
Y304500D02*
D03*
Y294500D02*
D03*
Y284500D02*
D03*
Y274500D02*
D03*
X253701Y464500D02*
D03*
Y454500D02*
D03*
Y444500D02*
D03*
Y434500D02*
D03*
Y424500D02*
D03*
Y414500D02*
D03*
Y404500D02*
D03*
Y394500D02*
D03*
Y384500D02*
D03*
Y374500D02*
D03*
Y364500D02*
D03*
Y354500D02*
D03*
Y344500D02*
D03*
Y334500D02*
D03*
Y324500D02*
D03*
Y314500D02*
D03*
Y304500D02*
D03*
Y294500D02*
D03*
Y284500D02*
D03*
Y274500D02*
D03*
X435701Y472000D02*
D03*
X380583D02*
D03*
D17*
X313701Y464500D02*
D03*
D18*
X383701Y384500D02*
D03*
Y394500D02*
D03*
Y404500D02*
D03*
D19*
Y414500D02*
D03*
D20*
X382843Y259205D02*
D03*
Y284795D02*
D03*
X400559D02*
D03*
Y259205D02*
D03*
D21*
X120701Y455000D02*
D03*
X169901Y445000D02*
D03*
Y453000D02*
D03*
X179701D02*
D03*
Y445000D02*
D03*
X320201Y134900D02*
D03*
X296701Y182200D02*
D03*
X299701Y141800D02*
D03*
X235301Y389300D02*
D03*
D22*
X120701Y445000D02*
D03*
D23*
X367701Y472000D02*
D03*
D24*
X354701Y345606D02*
D03*
Y326394D02*
D03*
D25*
X291201Y145500D02*
D03*
D26*
X281201D02*
D03*
X271201D02*
D03*
X261201D02*
D03*
X251201D02*
D03*
X241201D02*
D03*
X231201D02*
D03*
X221201D02*
D03*
X211201D02*
D03*
X201201D02*
D03*
X191201D02*
D03*
X181201D02*
D03*
X171201D02*
D03*
X161201D02*
D03*
X291201Y205500D02*
D03*
X281201D02*
D03*
X271201D02*
D03*
X261201D02*
D03*
X251201D02*
D03*
X241201D02*
D03*
X231201D02*
D03*
X221201D02*
D03*
X211201D02*
D03*
X201201D02*
D03*
X191201D02*
D03*
X181201D02*
D03*
X171201D02*
D03*
X161201D02*
D03*
D27*
X150601Y463500D02*
D03*
X198601D02*
D03*
M02*
