G04 Layer_Physical_Order=2*
G04 Layer_Color=11436288*
%FSLAX25Y25*%
%MOIN*%
G70*
G01*
G75*
%ADD10C,0.01000*%
%ADD11C,0.00500*%
%ADD12C,0.00200*%
%ADD13C,0.00600*%
%ADD14C,0.00394*%
%ADD15C,0.00591*%
%ADD16C,0.00197*%
%ADD17C,0.06000*%
%ADD18R,0.06000X0.06000*%
%ADD19C,0.04724*%
%ADD20R,0.05906X0.05906*%
%ADD21C,0.05906*%
%ADD22C,0.07000*%
%ADD23R,0.07000X0.07000*%
%ADD24C,0.07874*%
%ADD25C,0.06500*%
%ADD26R,0.06500X0.06500*%
%ADD27R,0.09843X0.05906*%
%ADD28O,0.09843X0.05906*%
%ADD29R,0.06500X0.06500*%
%ADD30R,0.07000X0.07000*%
%ADD31C,0.12000*%
%ADD32C,0.05000*%
%ADD33C,0.08000*%
G36*
X100000Y100000D02*
X493701D01*
Y493701D01*
X100000D01*
Y100000D01*
D02*
G37*
%LPC*%
G36*
X205201Y140034D02*
X206245Y139897D01*
X207218Y139494D01*
X208054Y138853D01*
X208695Y138017D01*
X209098Y137044D01*
X209235Y136000D01*
X209098Y134956D01*
X208695Y133983D01*
X208054Y133147D01*
X207218Y132506D01*
X206245Y132103D01*
X205201Y131965D01*
X204157Y132103D01*
X203184Y132506D01*
X202348Y133147D01*
X201707Y133983D01*
X201304Y134956D01*
X201166Y136000D01*
X201304Y137044D01*
X201707Y138017D01*
X202348Y138853D01*
X203184Y139494D01*
X204157Y139897D01*
X205201Y140034D01*
D02*
G37*
G36*
X418701Y142534D02*
X419745Y142397D01*
X420718Y141994D01*
X421554Y141353D01*
X422195Y140517D01*
X422598Y139544D01*
X422735Y138500D01*
X422598Y137456D01*
X422195Y136483D01*
X421554Y135647D01*
X420718Y135006D01*
X419745Y134603D01*
X418701Y134466D01*
X417657Y134603D01*
X416683Y135006D01*
X415848Y135647D01*
X415207Y136483D01*
X414804Y137456D01*
X414666Y138500D01*
X414804Y139544D01*
X415207Y140517D01*
X415848Y141353D01*
X416683Y141994D01*
X417657Y142397D01*
X418701Y142534D01*
D02*
G37*
G36*
X114201Y378039D02*
X115375Y377884D01*
X116470Y377431D01*
X117410Y376709D01*
X118131Y375769D01*
X118585Y374675D01*
X118740Y373500D01*
X118585Y372325D01*
X118131Y371231D01*
X117410Y370291D01*
X116470Y369569D01*
X115375Y369116D01*
X114201Y368961D01*
X113026Y369116D01*
X111931Y369569D01*
X110991Y370291D01*
X110270Y371231D01*
X109817Y372325D01*
X109662Y373500D01*
X109817Y374675D01*
X110270Y375769D01*
X110991Y376709D01*
X111931Y377431D01*
X113026Y377884D01*
X114201Y378039D01*
D02*
G37*
G36*
X171201Y139534D02*
X172245Y139397D01*
X173218Y138994D01*
X174054Y138353D01*
X174695Y137517D01*
X175098Y136544D01*
X175235Y135500D01*
X175098Y134456D01*
X174695Y133483D01*
X174054Y132647D01*
X173218Y132006D01*
X172245Y131603D01*
X171201Y131465D01*
X170157Y131603D01*
X169184Y132006D01*
X168348Y132647D01*
X167707Y133483D01*
X167304Y134456D01*
X167166Y135500D01*
X167304Y136544D01*
X167707Y137517D01*
X168348Y138353D01*
X169184Y138994D01*
X170157Y139397D01*
X171201Y139534D01*
D02*
G37*
G36*
X159701Y373000D02*
X163122D01*
X163052Y372468D01*
X162654Y371507D01*
X162020Y370681D01*
X161194Y370047D01*
X160233Y369649D01*
X159701Y369579D01*
Y373000D01*
D02*
G37*
G36*
X463732Y365487D02*
X467669D01*
X468701Y365351D01*
X469663Y364953D01*
X470488Y364319D01*
X471122Y363493D01*
X471520Y362532D01*
X471656Y361500D01*
X471520Y360468D01*
X471122Y359507D01*
X470488Y358681D01*
X469663Y358047D01*
X468701Y357649D01*
X467669Y357513D01*
X463732D01*
X462700Y357649D01*
X461739Y358047D01*
X460913Y358681D01*
X460280Y359507D01*
X459881Y360468D01*
X459745Y361500D01*
X459881Y362532D01*
X460280Y363493D01*
X460913Y364319D01*
X461739Y364953D01*
X462700Y365351D01*
X463732Y365487D01*
D02*
G37*
G36*
X418701Y162534D02*
X419745Y162397D01*
X420718Y161994D01*
X421554Y161353D01*
X422195Y160517D01*
X422598Y159544D01*
X422735Y158500D01*
X422598Y157456D01*
X422195Y156483D01*
X421554Y155647D01*
X420718Y155006D01*
X419745Y154603D01*
X418701Y154465D01*
X417657Y154603D01*
X416683Y155006D01*
X415848Y155647D01*
X415207Y156483D01*
X414804Y157456D01*
X414666Y158500D01*
X414804Y159544D01*
X415207Y160517D01*
X415848Y161353D01*
X416683Y161994D01*
X417657Y162397D01*
X418701Y162534D01*
D02*
G37*
G36*
X358701Y165570D02*
X359990Y165401D01*
X361191Y164903D01*
X362222Y164112D01*
X363013Y163080D01*
X363511Y161879D01*
X363680Y160591D01*
X363511Y159302D01*
X363013Y158101D01*
X362222Y157070D01*
X361191Y156278D01*
X359990Y155781D01*
X358701Y155611D01*
X357412Y155781D01*
X356211Y156278D01*
X355180Y157070D01*
X354388Y158101D01*
X353891Y159302D01*
X353721Y160591D01*
X353891Y161879D01*
X354388Y163080D01*
X355180Y164112D01*
X356211Y164903D01*
X357412Y165401D01*
X358701Y165570D01*
D02*
G37*
G36*
X418701Y152534D02*
X419745Y152397D01*
X420718Y151994D01*
X421554Y151353D01*
X422195Y150517D01*
X422598Y149544D01*
X422735Y148500D01*
X422598Y147456D01*
X422195Y146483D01*
X421554Y145647D01*
X420718Y145006D01*
X419745Y144603D01*
X418701Y144465D01*
X417657Y144603D01*
X416683Y145006D01*
X415848Y145647D01*
X415207Y146483D01*
X414804Y147456D01*
X414666Y148500D01*
X414804Y149544D01*
X415207Y150517D01*
X415848Y151353D01*
X416683Y151994D01*
X417657Y152397D01*
X418701Y152534D01*
D02*
G37*
G36*
X159201Y367487D02*
X160233Y367351D01*
X161194Y366953D01*
X162020Y366319D01*
X162654Y365493D01*
X163052Y364532D01*
X163188Y363500D01*
X163052Y362468D01*
X162654Y361507D01*
X162020Y360681D01*
X161194Y360047D01*
X160233Y359649D01*
X159201Y359513D01*
X158169Y359649D01*
X157207Y360047D01*
X156382Y360681D01*
X155748Y361507D01*
X155350Y362468D01*
X155214Y363500D01*
X155350Y364532D01*
X155748Y365493D01*
X156382Y366319D01*
X157207Y366953D01*
X158169Y367351D01*
X159201Y367487D01*
D02*
G37*
G36*
X114201Y368039D02*
X115375Y367884D01*
X116470Y367431D01*
X117410Y366709D01*
X118131Y365769D01*
X118585Y364675D01*
X118740Y363500D01*
X118585Y362325D01*
X118131Y361231D01*
X117410Y360291D01*
X116470Y359569D01*
X115375Y359116D01*
X114201Y358961D01*
X113026Y359116D01*
X111931Y359569D01*
X110991Y360291D01*
X110270Y361231D01*
X109817Y362325D01*
X109662Y363500D01*
X109817Y364675D01*
X110270Y365769D01*
X110991Y366709D01*
X111931Y367431D01*
X113026Y367884D01*
X114201Y368039D01*
D02*
G37*
G36*
X155280Y373000D02*
X158701D01*
Y369579D01*
X158169Y369649D01*
X157207Y370047D01*
X156382Y370681D01*
X155748Y371507D01*
X155350Y372468D01*
X155280Y373000D01*
D02*
G37*
G36*
Y383000D02*
X158701D01*
Y379579D01*
X158169Y379649D01*
X157207Y380047D01*
X156382Y380681D01*
X155748Y381507D01*
X155350Y382468D01*
X155280Y383000D01*
D02*
G37*
G36*
X159701D02*
X163122D01*
X163052Y382468D01*
X162654Y381507D01*
X162020Y380681D01*
X161194Y380047D01*
X160233Y379649D01*
X159701Y379579D01*
Y383000D01*
D02*
G37*
G36*
X215248Y387453D02*
X223153D01*
Y379547D01*
X215248D01*
Y387453D01*
D02*
G37*
G36*
X158701Y387421D02*
Y384000D01*
X155280D01*
X155350Y384532D01*
X155748Y385493D01*
X156382Y386319D01*
X157207Y386953D01*
X158169Y387351D01*
X158701Y387421D01*
D02*
G37*
G36*
X159701D02*
X160233Y387351D01*
X161194Y386953D01*
X162020Y386319D01*
X162654Y385493D01*
X163052Y384532D01*
X163122Y384000D01*
X159701D01*
Y387421D01*
D02*
G37*
G36*
X205201Y130034D02*
X206245Y129897D01*
X207218Y129494D01*
X208054Y128853D01*
X208695Y128017D01*
X209098Y127044D01*
X209235Y126000D01*
X209098Y124956D01*
X208695Y123983D01*
X208054Y123147D01*
X207218Y122506D01*
X206245Y122103D01*
X205201Y121966D01*
X204157Y122103D01*
X203184Y122506D01*
X202348Y123147D01*
X201707Y123983D01*
X201304Y124956D01*
X201166Y126000D01*
X201304Y127044D01*
X201707Y128017D01*
X202348Y128853D01*
X203184Y129494D01*
X204157Y129897D01*
X205201Y130034D01*
D02*
G37*
G36*
X159701Y377421D02*
X160233Y377351D01*
X161194Y376953D01*
X162020Y376319D01*
X162654Y375493D01*
X163052Y374532D01*
X163122Y374000D01*
X159701D01*
Y377421D01*
D02*
G37*
G36*
X418701Y132535D02*
X419745Y132397D01*
X420718Y131994D01*
X421554Y131353D01*
X422195Y130517D01*
X422598Y129544D01*
X422735Y128500D01*
X422598Y127456D01*
X422195Y126483D01*
X421554Y125647D01*
X420718Y125006D01*
X419745Y124603D01*
X418701Y124466D01*
X417657Y124603D01*
X416683Y125006D01*
X415848Y125647D01*
X415207Y126483D01*
X414804Y127456D01*
X414666Y128500D01*
X414804Y129544D01*
X415207Y130517D01*
X415848Y131353D01*
X416683Y131994D01*
X417657Y132397D01*
X418701Y132535D01*
D02*
G37*
G36*
X358701Y139980D02*
X359990Y139810D01*
X361191Y139313D01*
X362222Y138521D01*
X363013Y137490D01*
X363511Y136289D01*
X363680Y135000D01*
X363511Y133711D01*
X363013Y132510D01*
X362222Y131479D01*
X361191Y130687D01*
X359990Y130190D01*
X358701Y130020D01*
X357412Y130190D01*
X356211Y130687D01*
X355180Y131479D01*
X354388Y132510D01*
X353891Y133711D01*
X353721Y135000D01*
X353891Y136289D01*
X354388Y137490D01*
X355180Y138521D01*
X356211Y139313D01*
X357412Y139810D01*
X358701Y139980D01*
D02*
G37*
G36*
X114201Y388039D02*
X115375Y387884D01*
X116470Y387431D01*
X117410Y386709D01*
X118131Y385769D01*
X118585Y384675D01*
X118740Y383500D01*
X118585Y382325D01*
X118131Y381231D01*
X117410Y380291D01*
X116470Y379569D01*
X115375Y379116D01*
X114201Y378961D01*
X113026Y379116D01*
X111931Y379569D01*
X110991Y380291D01*
X110270Y381231D01*
X109817Y382325D01*
X109662Y383500D01*
X109817Y384675D01*
X110270Y385769D01*
X110991Y386709D01*
X111931Y387431D01*
X113026Y387884D01*
X114201Y388039D01*
D02*
G37*
G36*
X448701Y132535D02*
X449745Y132397D01*
X450718Y131994D01*
X451554Y131353D01*
X452195Y130517D01*
X452598Y129544D01*
X452735Y128500D01*
X452598Y127456D01*
X452195Y126483D01*
X451554Y125647D01*
X450718Y125006D01*
X449745Y124603D01*
X448701Y124466D01*
X447657Y124603D01*
X446684Y125006D01*
X445848Y125647D01*
X445207Y126483D01*
X444804Y127456D01*
X444666Y128500D01*
X444804Y129544D01*
X445207Y130517D01*
X445848Y131353D01*
X446684Y131994D01*
X447657Y132397D01*
X448701Y132535D01*
D02*
G37*
G36*
X158701Y377421D02*
Y374000D01*
X155280D01*
X155350Y374532D01*
X155748Y375493D01*
X156382Y376319D01*
X157207Y376953D01*
X158169Y377351D01*
X158701Y377421D01*
D02*
G37*
G36*
X239201Y161000D02*
X243678D01*
X243572Y160195D01*
X243069Y158978D01*
X242267Y157934D01*
X241223Y157132D01*
X240006Y156629D01*
X239201Y156523D01*
Y161000D01*
D02*
G37*
G36*
X418701Y212534D02*
X419745Y212397D01*
X420718Y211994D01*
X421554Y211353D01*
X422195Y210517D01*
X422598Y209544D01*
X422735Y208500D01*
X422598Y207456D01*
X422195Y206483D01*
X421554Y205647D01*
X420718Y205006D01*
X419745Y204603D01*
X418701Y204466D01*
X417657Y204603D01*
X416683Y205006D01*
X415848Y205647D01*
X415207Y206483D01*
X414804Y207456D01*
X414666Y208500D01*
X414804Y209544D01*
X415207Y210517D01*
X415848Y211353D01*
X416683Y211994D01*
X417657Y212397D01*
X418701Y212534D01*
D02*
G37*
G36*
Y222534D02*
X419745Y222397D01*
X420718Y221994D01*
X421554Y221353D01*
X422195Y220517D01*
X422598Y219544D01*
X422735Y218500D01*
X422598Y217456D01*
X422195Y216483D01*
X421554Y215647D01*
X420718Y215006D01*
X419745Y214603D01*
X418701Y214465D01*
X417657Y214603D01*
X416683Y215006D01*
X415848Y215647D01*
X415207Y216483D01*
X414804Y217456D01*
X414666Y218500D01*
X414804Y219544D01*
X415207Y220517D01*
X415848Y221353D01*
X416683Y221994D01*
X417657Y222397D01*
X418701Y222534D01*
D02*
G37*
G36*
Y232535D02*
X419745Y232397D01*
X420718Y231994D01*
X421554Y231353D01*
X422195Y230517D01*
X422598Y229544D01*
X422735Y228500D01*
X422598Y227456D01*
X422195Y226483D01*
X421554Y225647D01*
X420718Y225006D01*
X419745Y224603D01*
X418701Y224465D01*
X417657Y224603D01*
X416683Y225006D01*
X415848Y225647D01*
X415207Y226483D01*
X414804Y227456D01*
X414666Y228500D01*
X414804Y229544D01*
X415207Y230517D01*
X415848Y231353D01*
X416683Y231994D01*
X417657Y232397D01*
X418701Y232535D01*
D02*
G37*
G36*
X366201Y203287D02*
X367310Y203141D01*
X368344Y202712D01*
X369232Y202031D01*
X369913Y201143D01*
X370341Y200110D01*
X370487Y199000D01*
X370341Y197890D01*
X369913Y196857D01*
X369232Y195969D01*
X368344Y195288D01*
X367310Y194859D01*
X366201Y194713D01*
X365091Y194859D01*
X364057Y195288D01*
X363170Y195969D01*
X362488Y196857D01*
X362060Y197890D01*
X361914Y199000D01*
X362060Y200110D01*
X362488Y201143D01*
X363170Y202031D01*
X364057Y202712D01*
X365091Y203141D01*
X366201Y203287D01*
D02*
G37*
G36*
X159201Y207487D02*
X160233Y207351D01*
X161194Y206953D01*
X162020Y206319D01*
X162654Y205493D01*
X163052Y204532D01*
X163188Y203500D01*
X163052Y202468D01*
X162654Y201507D01*
X162020Y200681D01*
X161194Y200047D01*
X160233Y199649D01*
X159201Y199513D01*
X158169Y199649D01*
X157207Y200047D01*
X156382Y200681D01*
X155748Y201507D01*
X155350Y202468D01*
X155214Y203500D01*
X155350Y204532D01*
X155748Y205493D01*
X156382Y206319D01*
X157207Y206953D01*
X158169Y207351D01*
X159201Y207487D01*
D02*
G37*
G36*
X114201Y328039D02*
X115375Y327884D01*
X116470Y327431D01*
X117410Y326709D01*
X118131Y325769D01*
X118585Y324675D01*
X118740Y323500D01*
X118585Y322325D01*
X118131Y321231D01*
X117410Y320291D01*
X116470Y319569D01*
X115375Y319116D01*
X114201Y318961D01*
X113026Y319116D01*
X111931Y319569D01*
X110991Y320291D01*
X110270Y321231D01*
X109817Y322325D01*
X109662Y323500D01*
X109817Y324675D01*
X110270Y325769D01*
X110991Y326709D01*
X111931Y327431D01*
X113026Y327884D01*
X114201Y328039D01*
D02*
G37*
G36*
X419201Y252469D02*
X419745Y252397D01*
X420718Y251994D01*
X421554Y251353D01*
X422195Y250517D01*
X422598Y249544D01*
X422670Y249000D01*
X419201D01*
Y252469D01*
D02*
G37*
G36*
X418201D02*
Y249000D01*
X414732D01*
X414804Y249544D01*
X415207Y250517D01*
X415848Y251353D01*
X416683Y251994D01*
X417657Y252397D01*
X418201Y252469D01*
D02*
G37*
G36*
X120184Y293485D02*
X121228Y293348D01*
X122201Y292945D01*
X123036Y292304D01*
X123678Y291468D01*
X124081Y290495D01*
X124218Y289451D01*
X124081Y288407D01*
X123678Y287434D01*
X123036Y286598D01*
X122201Y285957D01*
X121228Y285554D01*
X120184Y285416D01*
X119139Y285554D01*
X118166Y285957D01*
X117331Y286598D01*
X116690Y287434D01*
X116287Y288407D01*
X116149Y289451D01*
X116287Y290495D01*
X116690Y291468D01*
X117331Y292304D01*
X118166Y292945D01*
X119139Y293348D01*
X120184Y293485D01*
D02*
G37*
G36*
X120201Y244534D02*
X121245Y244397D01*
X122218Y243994D01*
X123054Y243353D01*
X123695Y242517D01*
X124098Y241544D01*
X124235Y240500D01*
X124098Y239456D01*
X123695Y238483D01*
X123054Y237647D01*
X122218Y237006D01*
X121245Y236603D01*
X120201Y236466D01*
X119157Y236603D01*
X118184Y237006D01*
X117348Y237647D01*
X116707Y238483D01*
X116304Y239456D01*
X116166Y240500D01*
X116304Y241544D01*
X116707Y242517D01*
X117348Y243353D01*
X118184Y243994D01*
X119157Y244397D01*
X120201Y244534D01*
D02*
G37*
G36*
X444701Y252500D02*
X452701D01*
Y244500D01*
X444701D01*
Y252500D01*
D02*
G37*
G36*
X120201Y254535D02*
X121245Y254397D01*
X122218Y253994D01*
X123054Y253353D01*
X123695Y252517D01*
X124098Y251544D01*
X124235Y250500D01*
X124098Y249456D01*
X123695Y248483D01*
X123054Y247647D01*
X122218Y247006D01*
X121245Y246603D01*
X120201Y246465D01*
X119157Y246603D01*
X118184Y247006D01*
X117348Y247647D01*
X116707Y248483D01*
X116304Y249456D01*
X116166Y250500D01*
X116304Y251544D01*
X116707Y252517D01*
X117348Y253353D01*
X118184Y253994D01*
X119157Y254397D01*
X120201Y254535D01*
D02*
G37*
G36*
X418701Y202535D02*
X419745Y202397D01*
X420718Y201994D01*
X421554Y201353D01*
X422195Y200517D01*
X422598Y199544D01*
X422735Y198500D01*
X422598Y197456D01*
X422195Y196483D01*
X421554Y195647D01*
X420718Y195006D01*
X419745Y194603D01*
X418701Y194465D01*
X417657Y194603D01*
X416683Y195006D01*
X415848Y195647D01*
X415207Y196483D01*
X414804Y197456D01*
X414666Y198500D01*
X414804Y199544D01*
X415207Y200517D01*
X415848Y201353D01*
X416683Y201994D01*
X417657Y202397D01*
X418701Y202535D01*
D02*
G37*
G36*
X463732Y355487D02*
X467669D01*
X468701Y355351D01*
X469663Y354953D01*
X470488Y354319D01*
X471122Y353493D01*
X471520Y352532D01*
X471656Y351500D01*
X471520Y350468D01*
X471122Y349507D01*
X470488Y348681D01*
X469663Y348047D01*
X468701Y347649D01*
X467669Y347513D01*
X463732D01*
X462700Y347649D01*
X461739Y348047D01*
X460913Y348681D01*
X460280Y349507D01*
X459881Y350468D01*
X459745Y351500D01*
X459881Y352532D01*
X460280Y353493D01*
X460913Y354319D01*
X461739Y354953D01*
X462700Y355351D01*
X463732Y355487D01*
D02*
G37*
G36*
X197807Y166391D02*
X198685Y166276D01*
X199503Y165937D01*
X200205Y165398D01*
X200744Y164696D01*
X201083Y163878D01*
X201198Y163000D01*
X201083Y162122D01*
X200744Y161304D01*
X200205Y160602D01*
X199503Y160063D01*
X198685Y159724D01*
X197807Y159609D01*
X196929Y159724D01*
X196111Y160063D01*
X195409Y160602D01*
X194870Y161304D01*
X194531Y162122D01*
X194416Y163000D01*
X194531Y163878D01*
X194870Y164696D01*
X195409Y165398D01*
X196111Y165937D01*
X196929Y166276D01*
X197807Y166391D01*
D02*
G37*
G36*
X178594D02*
X179472Y166276D01*
X180290Y165937D01*
X180992Y165398D01*
X181531Y164696D01*
X181870Y163878D01*
X181986Y163000D01*
X181870Y162122D01*
X181531Y161304D01*
X180992Y160602D01*
X180290Y160063D01*
X179472Y159724D01*
X178594Y159609D01*
X177717Y159724D01*
X176899Y160063D01*
X176196Y160602D01*
X175657Y161304D01*
X175319Y162122D01*
X175203Y163000D01*
X175319Y163878D01*
X175657Y164696D01*
X176196Y165398D01*
X176899Y165937D01*
X177717Y166276D01*
X178594Y166391D01*
D02*
G37*
G36*
X159201Y357487D02*
X160233Y357351D01*
X161194Y356953D01*
X162020Y356319D01*
X162654Y355493D01*
X163052Y354532D01*
X163188Y353500D01*
X163052Y352468D01*
X162654Y351507D01*
X162020Y350681D01*
X161194Y350047D01*
X160233Y349649D01*
X159201Y349513D01*
X158169Y349649D01*
X157207Y350047D01*
X156382Y350681D01*
X155748Y351507D01*
X155350Y352468D01*
X155214Y353500D01*
X155350Y354532D01*
X155748Y355493D01*
X156382Y356319D01*
X157207Y356953D01*
X158169Y357351D01*
X159201Y357487D01*
D02*
G37*
G36*
X114201Y358039D02*
X115375Y357884D01*
X116470Y357431D01*
X117410Y356709D01*
X118131Y355769D01*
X118585Y354675D01*
X118740Y353500D01*
X118585Y352325D01*
X118131Y351231D01*
X117410Y350291D01*
X116470Y349569D01*
X115375Y349116D01*
X114201Y348961D01*
X113026Y349116D01*
X111931Y349569D01*
X110991Y350291D01*
X110270Y351231D01*
X109817Y352325D01*
X109662Y353500D01*
X109817Y354675D01*
X110270Y355769D01*
X110991Y356709D01*
X111931Y357431D01*
X113026Y357884D01*
X114201Y358039D01*
D02*
G37*
G36*
X233724Y161000D02*
X238201D01*
Y156523D01*
X237396Y156629D01*
X236180Y157132D01*
X235135Y157934D01*
X234334Y158978D01*
X233830Y160195D01*
X233724Y161000D01*
D02*
G37*
G36*
X114201Y348039D02*
X115375Y347884D01*
X116470Y347431D01*
X117410Y346709D01*
X118131Y345769D01*
X118585Y344675D01*
X118740Y343500D01*
X118585Y342325D01*
X118131Y341231D01*
X117410Y340291D01*
X116470Y339569D01*
X115375Y339116D01*
X114201Y338961D01*
X113026Y339116D01*
X111931Y339569D01*
X110991Y340291D01*
X110270Y341231D01*
X109817Y342325D01*
X109662Y343500D01*
X109817Y344675D01*
X110270Y345769D01*
X110991Y346709D01*
X111931Y347431D01*
X113026Y347884D01*
X114201Y348039D01*
D02*
G37*
G36*
X308701Y166543D02*
X310006Y166371D01*
X311223Y165867D01*
X312267Y165066D01*
X313069Y164022D01*
X313480Y163029D01*
X336651D01*
X336672Y163080D01*
X337463Y164112D01*
X338494Y164903D01*
X339695Y165401D01*
X340984Y165570D01*
X342273Y165401D01*
X343474Y164903D01*
X344505Y164112D01*
X345297Y163080D01*
X345794Y161879D01*
X345964Y160591D01*
X345794Y159302D01*
X345297Y158101D01*
X344505Y157070D01*
X343474Y156278D01*
X342273Y155781D01*
X340984Y155611D01*
X339695Y155781D01*
X338494Y156278D01*
X337463Y157070D01*
X336672Y158101D01*
X336174Y159302D01*
X336086Y159971D01*
X313480D01*
X313069Y158978D01*
X312267Y157934D01*
X311223Y157132D01*
X310006Y156629D01*
X308701Y156457D01*
X307396Y156629D01*
X306180Y157132D01*
X305135Y157934D01*
X304334Y158978D01*
X303830Y160195D01*
X303658Y161500D01*
X303830Y162805D01*
X304334Y164022D01*
X305135Y165066D01*
X306180Y165867D01*
X307396Y166371D01*
X308701Y166543D01*
D02*
G37*
G36*
X114201Y338039D02*
X115375Y337884D01*
X116470Y337431D01*
X117410Y336709D01*
X118131Y335769D01*
X118585Y334675D01*
X118740Y333500D01*
X118585Y332325D01*
X118131Y331231D01*
X117410Y330291D01*
X116470Y329569D01*
X115375Y329116D01*
X114201Y328961D01*
X113026Y329116D01*
X111931Y329569D01*
X110991Y330291D01*
X110270Y331231D01*
X109817Y332325D01*
X109662Y333500D01*
X109817Y334675D01*
X110270Y335769D01*
X110991Y336709D01*
X111931Y337431D01*
X113026Y337884D01*
X114201Y338039D01*
D02*
G37*
G36*
X239201Y166477D02*
X240006Y166371D01*
X241223Y165867D01*
X242267Y165066D01*
X243069Y164022D01*
X243572Y162805D01*
X243678Y162000D01*
X239201D01*
Y166477D01*
D02*
G37*
G36*
X159201Y347487D02*
X160233Y347351D01*
X161194Y346953D01*
X162020Y346319D01*
X162654Y345493D01*
X163052Y344532D01*
X163188Y343500D01*
X163052Y342468D01*
X162654Y341507D01*
X162020Y340681D01*
X161194Y340047D01*
X160233Y339649D01*
X159201Y339513D01*
X158169Y339649D01*
X157207Y340047D01*
X156382Y340681D01*
X155748Y341507D01*
X155350Y342468D01*
X155214Y343500D01*
X155350Y344532D01*
X155748Y345493D01*
X156382Y346319D01*
X157207Y346953D01*
X158169Y347351D01*
X159201Y347487D01*
D02*
G37*
G36*
X238201Y166477D02*
Y162000D01*
X233724D01*
X233830Y162805D01*
X234334Y164022D01*
X235135Y165066D01*
X236180Y165867D01*
X237396Y166371D01*
X238201Y166477D01*
D02*
G37*
G36*
X337701Y392000D02*
X341122D01*
X341052Y391468D01*
X340653Y390507D01*
X340020Y389681D01*
X339194Y389047D01*
X338233Y388649D01*
X337701Y388579D01*
Y392000D01*
D02*
G37*
G36*
X304701Y457969D02*
Y454500D01*
X301232D01*
X301304Y455044D01*
X301707Y456017D01*
X302348Y456853D01*
X303184Y457494D01*
X304157Y457897D01*
X304701Y457969D01*
D02*
G37*
G36*
X305701D02*
X306245Y457897D01*
X307218Y457494D01*
X308054Y456853D01*
X308695Y456017D01*
X309098Y455044D01*
X309170Y454500D01*
X305701D01*
Y457969D01*
D02*
G37*
G36*
X301232Y453500D02*
X304701D01*
Y450031D01*
X304157Y450103D01*
X303184Y450506D01*
X302348Y451147D01*
X301707Y451983D01*
X301304Y452956D01*
X301232Y453500D01*
D02*
G37*
G36*
X305201Y468035D02*
X306245Y467897D01*
X307218Y467494D01*
X308054Y466853D01*
X308695Y466017D01*
X309098Y465044D01*
X309235Y464000D01*
X309098Y462956D01*
X308695Y461983D01*
X308054Y461147D01*
X307218Y460506D01*
X306245Y460103D01*
X305201Y459966D01*
X304157Y460103D01*
X303184Y460506D01*
X302348Y461147D01*
X301707Y461983D01*
X301304Y462956D01*
X301166Y464000D01*
X301304Y465044D01*
X301707Y466017D01*
X302348Y466853D01*
X303184Y467494D01*
X304157Y467897D01*
X305201Y468035D01*
D02*
G37*
G36*
X129601Y470534D02*
X130973Y470399D01*
X132292Y469998D01*
X133509Y469348D01*
X134574Y468474D01*
X135449Y467408D01*
X136099Y466192D01*
X136500Y464872D01*
X136635Y463500D01*
X136500Y462128D01*
X136099Y460808D01*
X135449Y459592D01*
X134574Y458526D01*
X133509Y457652D01*
X132292Y457002D01*
X130973Y456601D01*
X129601Y456466D01*
X128228Y456601D01*
X126909Y457002D01*
X125693Y457652D01*
X124627Y458526D01*
X123752Y459592D01*
X123102Y460808D01*
X122702Y462128D01*
X122567Y463500D01*
X122702Y464872D01*
X123102Y466192D01*
X123752Y467408D01*
X124627Y468474D01*
X125693Y469348D01*
X126909Y469998D01*
X128228Y470399D01*
X129601Y470534D01*
D02*
G37*
G36*
X177601D02*
X178973Y470399D01*
X180292Y469998D01*
X181509Y469348D01*
X182574Y468474D01*
X183449Y467408D01*
X184099Y466192D01*
X184500Y464872D01*
X184635Y463500D01*
X184500Y462128D01*
X184099Y460808D01*
X183449Y459592D01*
X182574Y458526D01*
X181509Y457652D01*
X180292Y457002D01*
X178973Y456601D01*
X177601Y456466D01*
X176228Y456601D01*
X174909Y457002D01*
X173693Y457652D01*
X172627Y458526D01*
X171752Y459592D01*
X171102Y460808D01*
X170702Y462128D01*
X170567Y463500D01*
X170702Y464872D01*
X171102Y466192D01*
X171752Y467408D01*
X172627Y468474D01*
X173693Y469348D01*
X174909Y469998D01*
X176228Y470399D01*
X177601Y470534D01*
D02*
G37*
G36*
X375701Y453000D02*
X384701D01*
Y444000D01*
X375701D01*
Y453000D01*
D02*
G37*
G36*
X320201Y453039D02*
X321375Y452884D01*
X322470Y452431D01*
X323410Y451709D01*
X324131Y450769D01*
X324585Y449675D01*
X324740Y448500D01*
X324585Y447325D01*
X324131Y446231D01*
X323410Y445291D01*
X322470Y444569D01*
X321375Y444116D01*
X320201Y443961D01*
X319026Y444116D01*
X317931Y444569D01*
X316991Y445291D01*
X316270Y446231D01*
X315817Y447325D01*
X315662Y448500D01*
X315817Y449675D01*
X316270Y450769D01*
X316991Y451709D01*
X317931Y452431D01*
X319026Y452884D01*
X320201Y453039D01*
D02*
G37*
G36*
X155236Y444500D02*
X158201D01*
Y441536D01*
X157787Y441590D01*
X156936Y441943D01*
X156204Y442504D01*
X155643Y443235D01*
X155291Y444086D01*
X155236Y444500D01*
D02*
G37*
G36*
X305701Y453500D02*
X309170D01*
X309098Y452956D01*
X308695Y451983D01*
X308054Y451147D01*
X307218Y450506D01*
X306245Y450103D01*
X305701Y450031D01*
Y453500D01*
D02*
G37*
G36*
X281951Y448250D02*
X285701D01*
Y444500D01*
X281951D01*
Y448250D01*
D02*
G37*
G36*
X286701D02*
X290451D01*
Y444500D01*
X286701D01*
Y448250D01*
D02*
G37*
G36*
X320201Y483039D02*
X321375Y482884D01*
X322470Y482431D01*
X323410Y481709D01*
X324131Y480769D01*
X324585Y479675D01*
X324740Y478500D01*
X324585Y477325D01*
X324131Y476231D01*
X323410Y475291D01*
X322470Y474569D01*
X321375Y474116D01*
X320201Y473961D01*
X319026Y474116D01*
X317931Y474569D01*
X316991Y475291D01*
X316270Y476231D01*
X315817Y477325D01*
X315662Y478500D01*
X315817Y479675D01*
X316270Y480769D01*
X316991Y481709D01*
X317931Y482431D01*
X319026Y482884D01*
X320201Y483039D01*
D02*
G37*
G36*
X380701Y482973D02*
X381376Y482884D01*
X382470Y482431D01*
X383410Y481709D01*
X384132Y480769D01*
X384585Y479675D01*
X384674Y479000D01*
X380701D01*
Y482973D01*
D02*
G37*
G36*
X391701Y481969D02*
Y478500D01*
X388232D01*
X388304Y479044D01*
X388707Y480017D01*
X389348Y480853D01*
X390183Y481494D01*
X391157Y481897D01*
X391701Y481969D01*
D02*
G37*
G36*
X392701D02*
X393245Y481897D01*
X394218Y481494D01*
X395054Y480853D01*
X395695Y480017D01*
X396098Y479044D01*
X396169Y478500D01*
X392701D01*
Y481969D01*
D02*
G37*
G36*
X214201Y488534D02*
X215245Y488397D01*
X216218Y487994D01*
X217054Y487353D01*
X217695Y486517D01*
X218098Y485544D01*
X218235Y484500D01*
X218098Y483456D01*
X217695Y482483D01*
X217054Y481647D01*
X216218Y481006D01*
X215245Y480603D01*
X214201Y480466D01*
X213157Y480603D01*
X212183Y481006D01*
X211348Y481647D01*
X210707Y482483D01*
X210304Y483456D01*
X210166Y484500D01*
X210304Y485544D01*
X210707Y486517D01*
X211348Y487353D01*
X212183Y487994D01*
X213157Y488397D01*
X214201Y488534D01*
D02*
G37*
G36*
X224201D02*
X225245Y488397D01*
X226218Y487994D01*
X227054Y487353D01*
X227695Y486517D01*
X228098Y485544D01*
X228235Y484500D01*
X228098Y483456D01*
X227695Y482483D01*
X227054Y481647D01*
X226218Y481006D01*
X225245Y480603D01*
X224201Y480466D01*
X223157Y480603D01*
X222183Y481006D01*
X221348Y481647D01*
X220707Y482483D01*
X220304Y483456D01*
X220166Y484500D01*
X220304Y485544D01*
X220707Y486517D01*
X221348Y487353D01*
X222183Y487994D01*
X223157Y488397D01*
X224201Y488534D01*
D02*
G37*
G36*
X379701Y482973D02*
Y479000D01*
X375728D01*
X375817Y479675D01*
X376270Y480769D01*
X376991Y481709D01*
X377931Y482431D01*
X379026Y482884D01*
X379701Y482973D01*
D02*
G37*
G36*
X375728Y478000D02*
X379701D01*
Y474027D01*
X379026Y474116D01*
X377931Y474569D01*
X376991Y475291D01*
X376270Y476231D01*
X375817Y477325D01*
X375728Y478000D01*
D02*
G37*
G36*
X380701D02*
X384674D01*
X384585Y477325D01*
X384132Y476231D01*
X383410Y475291D01*
X382470Y474569D01*
X381376Y474116D01*
X380701Y474027D01*
Y478000D01*
D02*
G37*
G36*
X402201Y482034D02*
X403245Y481897D01*
X404218Y481494D01*
X405054Y480853D01*
X405695Y480017D01*
X406098Y479044D01*
X406235Y478000D01*
X406098Y476956D01*
X405695Y475983D01*
X405054Y475147D01*
X404218Y474506D01*
X403245Y474103D01*
X402201Y473966D01*
X401157Y474103D01*
X400183Y474506D01*
X399348Y475147D01*
X398707Y475983D01*
X398304Y476956D01*
X398166Y478000D01*
X398304Y479044D01*
X398707Y480017D01*
X399348Y480853D01*
X400183Y481494D01*
X401157Y481897D01*
X402201Y482034D01*
D02*
G37*
G36*
X271001Y480329D02*
X278201D01*
X278786Y480213D01*
X279282Y479881D01*
X282082Y477081D01*
X282313Y476736D01*
X282873Y476645D01*
X283170Y477031D01*
X284057Y477712D01*
X285091Y478141D01*
X286201Y478287D01*
X287310Y478141D01*
X288344Y477712D01*
X289232Y477031D01*
X289913Y476143D01*
X290341Y475109D01*
X290487Y474000D01*
X290341Y472891D01*
X289913Y471857D01*
X289232Y470969D01*
X288344Y470288D01*
X287310Y469859D01*
X286201Y469713D01*
X285091Y469859D01*
X284057Y470288D01*
X283170Y470969D01*
X283004Y471185D01*
X282530Y471025D01*
Y456000D01*
X282414Y455415D01*
X282082Y454919D01*
X276832Y449669D01*
X276336Y449337D01*
X275751Y449221D01*
X261996D01*
X261805Y448759D01*
X262282Y448281D01*
X262614Y447785D01*
X262718Y447263D01*
X262945Y447144D01*
X263230Y447078D01*
X264057Y447712D01*
X265091Y448141D01*
X266201Y448287D01*
X267310Y448141D01*
X268344Y447712D01*
X269232Y447031D01*
X269913Y446143D01*
X270341Y445110D01*
X270487Y444000D01*
X270341Y442891D01*
X269913Y441857D01*
X269470Y441279D01*
X269717Y440779D01*
X272685D01*
X272931Y441279D01*
X272488Y441857D01*
X272060Y442891D01*
X271914Y444000D01*
X272060Y445110D01*
X272488Y446143D01*
X273170Y447031D01*
X274057Y447712D01*
X275091Y448141D01*
X276201Y448287D01*
X277310Y448141D01*
X278344Y447712D01*
X279232Y447031D01*
X279913Y446143D01*
X280341Y445110D01*
X280487Y444000D01*
X280341Y442891D01*
X279913Y441857D01*
X279470Y441279D01*
X279717Y440779D01*
X281951D01*
Y443500D01*
X290451D01*
Y440779D01*
X327251D01*
X327836Y440663D01*
X328332Y440331D01*
X360834Y407829D01*
X401201D01*
X401371Y408329D01*
X400913Y408681D01*
X400280Y409507D01*
X399881Y410468D01*
X399811Y411000D01*
X411590D01*
X411520Y410468D01*
X411122Y409507D01*
X410488Y408681D01*
X410014Y408317D01*
X410139Y407782D01*
X410486Y407713D01*
X410982Y407381D01*
X413282Y405081D01*
X413614Y404585D01*
X413730Y404000D01*
Y393000D01*
X413614Y392415D01*
X413282Y391919D01*
X411782Y390419D01*
X411392Y390158D01*
X411122Y389507D01*
X410488Y388681D01*
X409663Y388047D01*
X408701Y387649D01*
X407669Y387513D01*
X403732D01*
X402700Y387649D01*
X401739Y388047D01*
X400913Y388681D01*
X400280Y389507D01*
X399881Y390468D01*
X399745Y391500D01*
X399881Y392532D01*
X400280Y393493D01*
X400913Y394319D01*
X401739Y394953D01*
X402700Y395351D01*
X403732Y395487D01*
X407669D01*
X408701Y395351D01*
X409663Y394953D01*
X410171Y394562D01*
X410671Y394809D01*
Y398191D01*
X410171Y398438D01*
X409663Y398047D01*
X408701Y397649D01*
X407669Y397513D01*
X403732D01*
X402700Y397649D01*
X401739Y398047D01*
X400913Y398681D01*
X400280Y399507D01*
X400087Y399971D01*
X322546D01*
X322355Y399509D01*
X335705Y386159D01*
X336169Y386351D01*
X337201Y386487D01*
X338233Y386351D01*
X339194Y385953D01*
X340020Y385319D01*
X340653Y384493D01*
X341052Y383532D01*
X341188Y382500D01*
X341160Y382292D01*
X341609Y382071D01*
X348119Y388581D01*
X348616Y388913D01*
X349201Y389029D01*
X363248D01*
Y396453D01*
X371153D01*
Y389029D01*
X385346D01*
X385443Y389265D01*
X386005Y389996D01*
X386736Y390557D01*
X387587Y390910D01*
X388501Y391030D01*
X389415Y390910D01*
X390266Y390557D01*
X390997Y389996D01*
X391558Y389265D01*
X391911Y388414D01*
X392031Y387500D01*
X391911Y386586D01*
X391558Y385735D01*
X390997Y385004D01*
X390266Y384443D01*
X389415Y384090D01*
X388501Y383970D01*
X387587Y384090D01*
X386736Y384443D01*
X386005Y385004D01*
X385443Y385735D01*
X385346Y385971D01*
X369992D01*
X369823Y385471D01*
X370020Y385319D01*
X370654Y384493D01*
X371052Y383532D01*
X371188Y382500D01*
X371079Y381675D01*
X371552Y381441D01*
X372693Y382581D01*
X373189Y382913D01*
X373774Y383029D01*
X400087D01*
X400280Y383493D01*
X400913Y384319D01*
X401739Y384953D01*
X402700Y385351D01*
X403732Y385487D01*
X407669D01*
X408701Y385351D01*
X409663Y384953D01*
X410488Y384319D01*
X411122Y383493D01*
X411520Y382532D01*
X411656Y381500D01*
X411520Y380468D01*
X411122Y379507D01*
X410792Y379076D01*
X411038Y378576D01*
X411514D01*
X435519Y402581D01*
X436016Y402913D01*
X436601Y403029D01*
X460087D01*
X460280Y403493D01*
X460913Y404319D01*
X461739Y404953D01*
X462700Y405351D01*
X463732Y405487D01*
X467669D01*
X468701Y405351D01*
X469663Y404953D01*
X470488Y404319D01*
X471122Y403493D01*
X471520Y402532D01*
X471656Y401500D01*
X471520Y400468D01*
X471122Y399507D01*
X470488Y398681D01*
X469663Y398047D01*
X468701Y397649D01*
X467669Y397513D01*
X463732D01*
X462700Y397649D01*
X461739Y398047D01*
X460913Y398681D01*
X460280Y399507D01*
X460087Y399971D01*
X437234D01*
X413229Y375966D01*
X412733Y375634D01*
X412636Y375615D01*
X412148Y375518D01*
X409606D01*
X409506Y375018D01*
X409663Y374953D01*
X410488Y374319D01*
X411122Y373493D01*
X411520Y372532D01*
X411613Y371829D01*
X412141Y371650D01*
X433072Y392581D01*
X433568Y392913D01*
X434154Y393029D01*
X460087D01*
X460280Y393493D01*
X460913Y394319D01*
X461739Y394953D01*
X462700Y395351D01*
X463732Y395487D01*
X467669D01*
X468701Y395351D01*
X469663Y394953D01*
X470488Y394319D01*
X471122Y393493D01*
X471520Y392532D01*
X471656Y391500D01*
X471520Y390468D01*
X471122Y389507D01*
X470488Y388681D01*
X469663Y388047D01*
X468701Y387649D01*
X467669Y387513D01*
X463732D01*
X462700Y387649D01*
X461739Y388047D01*
X460913Y388681D01*
X460280Y389507D01*
X460087Y389971D01*
X434787D01*
X410782Y365966D01*
X410286Y365634D01*
X409701Y365518D01*
X409605D01*
X409506Y365018D01*
X409663Y364953D01*
X410488Y364319D01*
X411122Y363493D01*
X411520Y362532D01*
X411656Y361500D01*
X411520Y360468D01*
X411122Y359507D01*
X410792Y359077D01*
X411039Y358577D01*
X435067D01*
X459072Y382581D01*
X459568Y382913D01*
X460081Y383015D01*
X460280Y383493D01*
X460913Y384319D01*
X461739Y384953D01*
X462700Y385351D01*
X463732Y385487D01*
X467669D01*
X468701Y385351D01*
X469663Y384953D01*
X470488Y384319D01*
X471122Y383493D01*
X471520Y382532D01*
X471656Y381500D01*
X471520Y380468D01*
X471122Y379507D01*
X470488Y378681D01*
X469663Y378047D01*
X468701Y377649D01*
X467669Y377513D01*
X463732D01*
X462700Y377649D01*
X461739Y378047D01*
X460913Y378681D01*
X460529Y379181D01*
X460030Y379214D01*
X454308Y373491D01*
X454499Y373029D01*
X460087D01*
X460280Y373493D01*
X460913Y374319D01*
X461739Y374953D01*
X462700Y375351D01*
X463732Y375487D01*
X467669D01*
X468701Y375351D01*
X469663Y374953D01*
X470488Y374319D01*
X471122Y373493D01*
X471520Y372532D01*
X471656Y371500D01*
X471520Y370468D01*
X471122Y369507D01*
X470488Y368681D01*
X469663Y368047D01*
X468701Y367649D01*
X467669Y367513D01*
X463732D01*
X462700Y367649D01*
X461739Y368047D01*
X460913Y368681D01*
X460280Y369507D01*
X460087Y369971D01*
X453634D01*
X431982Y348319D01*
X431486Y347987D01*
X431067Y347904D01*
X426655Y343491D01*
X426846Y343029D01*
X460087D01*
X460280Y343493D01*
X460913Y344319D01*
X461739Y344953D01*
X462700Y345351D01*
X463732Y345487D01*
X467669D01*
X468701Y345351D01*
X469663Y344953D01*
X470488Y344319D01*
X471122Y343493D01*
X471520Y342532D01*
X471656Y341500D01*
X471520Y340468D01*
X471122Y339507D01*
X470488Y338681D01*
X469663Y338047D01*
X468701Y337649D01*
X467669Y337513D01*
X463732D01*
X462700Y337649D01*
X461739Y338047D01*
X460913Y338681D01*
X460280Y339507D01*
X460087Y339971D01*
X426234D01*
X411229Y324966D01*
X410810Y324686D01*
X410791Y324663D01*
X410697Y324404D01*
X410650Y324108D01*
X411122Y323493D01*
X411520Y322532D01*
X411613Y321829D01*
X412141Y321650D01*
X423072Y332581D01*
X423568Y332913D01*
X424154Y333029D01*
X434046D01*
X434143Y333265D01*
X434705Y333996D01*
X435436Y334557D01*
X436287Y334910D01*
X437201Y335030D01*
X438115Y334910D01*
X438966Y334557D01*
X439697Y333996D01*
X440258Y333265D01*
X440356Y333029D01*
X460087D01*
X460280Y333493D01*
X460913Y334319D01*
X461739Y334953D01*
X462700Y335351D01*
X463732Y335487D01*
X467669D01*
X468701Y335351D01*
X469663Y334953D01*
X470488Y334319D01*
X471122Y333493D01*
X471520Y332532D01*
X471656Y331500D01*
X471520Y330468D01*
X471122Y329507D01*
X470488Y328681D01*
X469663Y328047D01*
X468701Y327649D01*
X467669Y327513D01*
X463732D01*
X462700Y327649D01*
X461739Y328047D01*
X460913Y328681D01*
X460280Y329507D01*
X460087Y329971D01*
X440356D01*
X440258Y329735D01*
X439697Y329004D01*
X438966Y328443D01*
X438115Y328090D01*
X437201Y327970D01*
X436287Y328090D01*
X435436Y328443D01*
X434705Y329004D01*
X434143Y329735D01*
X434046Y329971D01*
X424787D01*
X410782Y315966D01*
X410286Y315634D01*
X409701Y315518D01*
X409605D01*
X409506Y315018D01*
X409663Y314953D01*
X410488Y314319D01*
X411122Y313493D01*
X411520Y312532D01*
X411656Y311500D01*
X411520Y310468D01*
X411122Y309507D01*
X410756Y309029D01*
X411002Y308529D01*
X420067D01*
X434119Y322581D01*
X434616Y322913D01*
X435201Y323029D01*
X460087D01*
X460280Y323493D01*
X460913Y324319D01*
X461739Y324953D01*
X462700Y325351D01*
X463732Y325487D01*
X467669D01*
X468701Y325351D01*
X469663Y324953D01*
X470488Y324319D01*
X471122Y323493D01*
X471520Y322532D01*
X471656Y321500D01*
X471520Y320468D01*
X471122Y319507D01*
X470488Y318681D01*
X469663Y318047D01*
X469620Y318029D01*
X469719Y317529D01*
X471346D01*
X471444Y317765D01*
X472005Y318496D01*
X472736Y319057D01*
X473587Y319410D01*
X474501Y319530D01*
X475415Y319410D01*
X476266Y319057D01*
X476997Y318496D01*
X477558Y317765D01*
X477911Y316914D01*
X478031Y316000D01*
X477911Y315086D01*
X477558Y314235D01*
X476997Y313504D01*
X476266Y312943D01*
X475415Y312590D01*
X474501Y312470D01*
X473587Y312590D01*
X472736Y312943D01*
X472005Y313504D01*
X471444Y314235D01*
X471177Y314244D01*
X470924Y313752D01*
X471122Y313493D01*
X471392Y312842D01*
X471782Y312581D01*
X473282Y311081D01*
X473614Y310585D01*
X473730Y310000D01*
Y299000D01*
X473614Y298415D01*
X473282Y297919D01*
X470782Y295419D01*
X470286Y295087D01*
X470185Y294822D01*
X470180Y294556D01*
X470488Y294319D01*
X471122Y293493D01*
X471520Y292532D01*
X471656Y291500D01*
X471520Y290468D01*
X471122Y289507D01*
X470488Y288681D01*
X469663Y288047D01*
X468701Y287649D01*
X467669Y287513D01*
X463732D01*
X462700Y287649D01*
X461739Y288047D01*
X460913Y288681D01*
X460280Y289507D01*
X459881Y290468D01*
X459745Y291500D01*
X459881Y292532D01*
X460280Y293493D01*
X460913Y294319D01*
X461110Y294471D01*
X460941Y294971D01*
X459534D01*
X417682Y253119D01*
X417186Y252787D01*
X416601Y252671D01*
X408946D01*
X408755Y252209D01*
X414892Y246072D01*
X415269Y246402D01*
X415207Y246483D01*
X414804Y247456D01*
X414732Y248000D01*
X422670D01*
X422598Y247456D01*
X422195Y246483D01*
X421554Y245647D01*
X421366Y245503D01*
X421526Y245029D01*
X425301D01*
X425886Y244913D01*
X426382Y244581D01*
X436434Y234529D01*
X446401D01*
X446656Y234976D01*
X446653Y235029D01*
X445848Y235647D01*
X445207Y236483D01*
X444804Y237456D01*
X444666Y238500D01*
X444804Y239544D01*
X445207Y240517D01*
X445848Y241353D01*
X446684Y241994D01*
X447657Y242397D01*
X448701Y242534D01*
X449745Y242397D01*
X450718Y241994D01*
X451554Y241353D01*
X452195Y240517D01*
X452598Y239544D01*
X452735Y238500D01*
X452598Y237456D01*
X452195Y236483D01*
X451554Y235647D01*
X450748Y235029D01*
X450746Y234976D01*
X451001Y234529D01*
X452201D01*
X452786Y234413D01*
X453282Y234081D01*
X454282Y233081D01*
X454614Y232585D01*
X454730Y232000D01*
Y143000D01*
X454614Y142415D01*
X454282Y141919D01*
X452396Y140032D01*
X452598Y139544D01*
X452735Y138500D01*
X452598Y137456D01*
X452195Y136483D01*
X451554Y135647D01*
X450718Y135006D01*
X449745Y134603D01*
X448701Y134466D01*
X447657Y134603D01*
X446684Y135006D01*
X445848Y135647D01*
X445207Y136483D01*
X444804Y137456D01*
X444666Y138500D01*
X444804Y139544D01*
X445207Y140517D01*
X445848Y141353D01*
X446684Y141994D01*
X447657Y142397D01*
X448701Y142534D01*
X449745Y142397D01*
X450233Y142195D01*
X451671Y143633D01*
Y145107D01*
X451171Y145354D01*
X450718Y145006D01*
X449745Y144603D01*
X448701Y144465D01*
X447657Y144603D01*
X446684Y145006D01*
X445848Y145647D01*
X445207Y146483D01*
X444804Y147456D01*
X444666Y148500D01*
X444804Y149544D01*
X445207Y150517D01*
X445848Y151353D01*
X446684Y151994D01*
X447657Y152397D01*
X448701Y152534D01*
X449745Y152397D01*
X450718Y151994D01*
X451171Y151646D01*
X451671Y151893D01*
Y155107D01*
X451171Y155354D01*
X450718Y155006D01*
X449745Y154603D01*
X448701Y154465D01*
X447657Y154603D01*
X446684Y155006D01*
X445848Y155647D01*
X445207Y156483D01*
X444804Y157456D01*
X444666Y158500D01*
X444804Y159544D01*
X445207Y160517D01*
X445848Y161353D01*
X446684Y161994D01*
X447657Y162397D01*
X448701Y162534D01*
X449745Y162397D01*
X450718Y161994D01*
X451171Y161646D01*
X451671Y161893D01*
Y165107D01*
X451171Y165354D01*
X450718Y165006D01*
X449745Y164603D01*
X448701Y164465D01*
X447657Y164603D01*
X446684Y165006D01*
X445848Y165647D01*
X445207Y166483D01*
X444804Y167456D01*
X444666Y168500D01*
X444804Y169544D01*
X445207Y170517D01*
X445848Y171353D01*
X446684Y171994D01*
X447657Y172397D01*
X448701Y172535D01*
X449745Y172397D01*
X450718Y171994D01*
X451171Y171646D01*
X451671Y171893D01*
Y175107D01*
X451171Y175354D01*
X450718Y175006D01*
X449745Y174603D01*
X448701Y174466D01*
X447657Y174603D01*
X447169Y174805D01*
X445182Y172819D01*
X444686Y172487D01*
X444101Y172371D01*
X421049D01*
X420879Y171871D01*
X421554Y171353D01*
X422195Y170517D01*
X422598Y169544D01*
X422735Y168500D01*
X422598Y167456D01*
X422195Y166483D01*
X421554Y165647D01*
X420718Y165006D01*
X419745Y164603D01*
X418701Y164465D01*
X417657Y164603D01*
X416683Y165006D01*
X415848Y165647D01*
X415207Y166483D01*
X415005Y166971D01*
X384556D01*
X384458Y166735D01*
X383897Y166004D01*
X383166Y165443D01*
X382314Y165090D01*
X381401Y164970D01*
X380487Y165090D01*
X379636Y165443D01*
X378905Y166004D01*
X378344Y166735D01*
X377991Y167586D01*
X377871Y168500D01*
X377991Y169414D01*
X378344Y170265D01*
X378905Y170996D01*
X379636Y171557D01*
X380392Y171871D01*
X380293Y172371D01*
X377559D01*
X374307Y169119D01*
X373811Y168787D01*
X373226Y168671D01*
X176456D01*
X176358Y168435D01*
X175797Y167704D01*
X175066Y167143D01*
X174214Y166790D01*
X173301Y166670D01*
X172387Y166790D01*
X171536Y167143D01*
X170805Y167704D01*
X170244Y168435D01*
X169891Y169286D01*
X169771Y170200D01*
X169891Y171114D01*
X170244Y171965D01*
X170805Y172696D01*
X171536Y173257D01*
X172387Y173610D01*
X173301Y173730D01*
X174214Y173610D01*
X175066Y173257D01*
X175797Y172696D01*
X176358Y171965D01*
X176456Y171729D01*
X372592D01*
X375844Y174981D01*
X376341Y175313D01*
X376926Y175429D01*
X415385D01*
X415631Y175929D01*
X415207Y176483D01*
X414804Y177456D01*
X414666Y178500D01*
X414804Y179544D01*
X415207Y180517D01*
X415848Y181353D01*
X416036Y181497D01*
X415875Y181971D01*
X241701D01*
X241115Y182087D01*
X240619Y182419D01*
X239350Y183688D01*
X239114Y183590D01*
X238201Y183470D01*
X237287Y183590D01*
X236436Y183943D01*
X235705Y184504D01*
X235143Y185235D01*
X234791Y186086D01*
X234671Y187000D01*
X234791Y187914D01*
X235143Y188765D01*
X235705Y189496D01*
X236436Y190057D01*
X237287Y190410D01*
X238201Y190530D01*
X239114Y190410D01*
X239966Y190057D01*
X240697Y189496D01*
X241258Y188765D01*
X241611Y187914D01*
X241731Y187000D01*
X241611Y186086D01*
X241513Y185851D01*
X242334Y185029D01*
X415875D01*
X416036Y185503D01*
X415848Y185647D01*
X415207Y186483D01*
X414804Y187456D01*
X414666Y188500D01*
X414804Y189544D01*
X415006Y190032D01*
X397567Y207471D01*
X370167D01*
X369913Y206857D01*
X369232Y205969D01*
X368344Y205288D01*
X367310Y204859D01*
X366201Y204713D01*
X365091Y204859D01*
X364057Y205288D01*
X363170Y205969D01*
X362488Y206857D01*
X362060Y207891D01*
X361914Y209000D01*
X362060Y210109D01*
X362488Y211143D01*
X363170Y212031D01*
X364057Y212712D01*
X365091Y213141D01*
X366201Y213287D01*
X367310Y213141D01*
X368344Y212712D01*
X369232Y212031D01*
X369913Y211143D01*
X370167Y210529D01*
X398201D01*
X398786Y210413D01*
X399282Y210081D01*
X417169Y192195D01*
X417657Y192397D01*
X418701Y192534D01*
X419745Y192397D01*
X420718Y191994D01*
X421554Y191353D01*
X422195Y190517D01*
X422598Y189544D01*
X422735Y188500D01*
X422598Y187456D01*
X422195Y186483D01*
X421554Y185647D01*
X421366Y185503D01*
X421526Y185029D01*
X443067D01*
X445006Y186968D01*
X444804Y187456D01*
X444666Y188500D01*
X444804Y189544D01*
X445207Y190517D01*
X445848Y191353D01*
X446684Y191994D01*
X447657Y192397D01*
X448701Y192534D01*
X449745Y192397D01*
X450718Y191994D01*
X451171Y191646D01*
X451671Y191893D01*
Y195107D01*
X451171Y195354D01*
X450718Y195006D01*
X449745Y194603D01*
X448701Y194465D01*
X447657Y194603D01*
X446684Y195006D01*
X445848Y195647D01*
X445207Y196483D01*
X444804Y197456D01*
X444666Y198500D01*
X444804Y199544D01*
X445207Y200517D01*
X445848Y201353D01*
X446684Y201994D01*
X447657Y202397D01*
X448701Y202535D01*
X449745Y202397D01*
X450718Y201994D01*
X451171Y201646D01*
X451671Y201893D01*
Y205107D01*
X451171Y205354D01*
X450718Y205006D01*
X449745Y204603D01*
X448701Y204466D01*
X447657Y204603D01*
X446684Y205006D01*
X445848Y205647D01*
X445207Y206483D01*
X444804Y207456D01*
X444666Y208500D01*
X444804Y209544D01*
X445207Y210517D01*
X445848Y211353D01*
X446684Y211994D01*
X447657Y212397D01*
X448701Y212534D01*
X449745Y212397D01*
X450718Y211994D01*
X451171Y211646D01*
X451671Y211893D01*
Y215107D01*
X451171Y215354D01*
X450718Y215006D01*
X449745Y214603D01*
X448701Y214465D01*
X447657Y214603D01*
X446684Y215006D01*
X445848Y215647D01*
X445207Y216483D01*
X444804Y217456D01*
X444666Y218500D01*
X444804Y219544D01*
X445207Y220517D01*
X445848Y221353D01*
X446684Y221994D01*
X447657Y222397D01*
X448701Y222534D01*
X449745Y222397D01*
X450718Y221994D01*
X451171Y221646D01*
X451671Y221893D01*
Y225107D01*
X451171Y225354D01*
X450718Y225006D01*
X449745Y224603D01*
X448701Y224465D01*
X447657Y224603D01*
X446684Y225006D01*
X445848Y225647D01*
X445207Y226483D01*
X444804Y227456D01*
X444666Y228500D01*
X444804Y229544D01*
X445207Y230517D01*
X445555Y230971D01*
X445308Y231471D01*
X435801D01*
X435216Y231587D01*
X434719Y231919D01*
X424667Y241971D01*
X421526D01*
X421366Y241497D01*
X421554Y241353D01*
X422195Y240517D01*
X422598Y239544D01*
X422735Y238500D01*
X422598Y237456D01*
X422195Y236483D01*
X421554Y235647D01*
X420718Y235006D01*
X419745Y234603D01*
X418701Y234466D01*
X417657Y234603D01*
X416683Y235006D01*
X415848Y235647D01*
X415207Y236483D01*
X414976Y237040D01*
X391887Y237471D01*
X370167D01*
X369913Y236857D01*
X369232Y235969D01*
X368344Y235288D01*
X367310Y234859D01*
X366201Y234713D01*
X365091Y234859D01*
X364057Y235288D01*
X363170Y235969D01*
X362488Y236857D01*
X362060Y237891D01*
X361914Y239000D01*
X362060Y240109D01*
X362488Y241143D01*
X363170Y242031D01*
X364057Y242712D01*
X365091Y243141D01*
X366201Y243287D01*
X367310Y243141D01*
X368344Y242712D01*
X369232Y242031D01*
X369913Y241143D01*
X370167Y240529D01*
X391901D01*
X391915Y240527D01*
X391929Y240529D01*
X415033Y240098D01*
X415207Y240517D01*
X415848Y241353D01*
X416036Y241497D01*
X415875Y241971D01*
X415301D01*
X414715Y242087D01*
X414219Y242419D01*
X403967Y252671D01*
X369176D01*
X369016Y252197D01*
X369232Y252031D01*
X369913Y251143D01*
X370341Y250110D01*
X370487Y249000D01*
X370341Y247890D01*
X369913Y246857D01*
X369232Y245969D01*
X368344Y245288D01*
X367310Y244859D01*
X366201Y244713D01*
X365091Y244859D01*
X364477Y245114D01*
X342032Y222669D01*
X341536Y222337D01*
X340951Y222221D01*
X339717D01*
X339470Y221721D01*
X339913Y221143D01*
X340341Y220110D01*
X340487Y219000D01*
X340341Y217891D01*
X339913Y216857D01*
X339232Y215969D01*
X338985Y215779D01*
X339155Y215279D01*
X350317D01*
X362315Y227277D01*
X362060Y227890D01*
X361914Y229000D01*
X362060Y230110D01*
X362488Y231143D01*
X363170Y232031D01*
X364057Y232712D01*
X365091Y233141D01*
X366201Y233287D01*
X367310Y233141D01*
X368344Y232712D01*
X369232Y232031D01*
X369913Y231143D01*
X370341Y230110D01*
X370487Y229000D01*
X370341Y227890D01*
X369913Y226857D01*
X369232Y225969D01*
X368344Y225288D01*
X367310Y224859D01*
X366201Y224713D01*
X365091Y224859D01*
X364477Y225114D01*
X352032Y212669D01*
X351536Y212337D01*
X350951Y212221D01*
X339717D01*
X339470Y211721D01*
X339913Y211143D01*
X340341Y210109D01*
X340487Y209000D01*
X340341Y207891D01*
X339913Y206857D01*
X339470Y206279D01*
X339717Y205779D01*
X350817D01*
X362315Y217277D01*
X362060Y217891D01*
X361914Y219000D01*
X362060Y220110D01*
X362488Y221143D01*
X363170Y222031D01*
X364057Y222712D01*
X365091Y223141D01*
X366201Y223287D01*
X367310Y223141D01*
X368344Y222712D01*
X369232Y222031D01*
X369913Y221143D01*
X370341Y220110D01*
X370487Y219000D01*
X370341Y217891D01*
X369913Y216857D01*
X369232Y215969D01*
X368344Y215288D01*
X367310Y214859D01*
X366201Y214713D01*
X365091Y214859D01*
X364477Y215114D01*
X352532Y203169D01*
X352036Y202837D01*
X351451Y202721D01*
X339155D01*
X338985Y202221D01*
X339232Y202031D01*
X339913Y201143D01*
X340341Y200110D01*
X340487Y199000D01*
X340341Y197890D01*
X339913Y196857D01*
X339232Y195969D01*
X338344Y195288D01*
X337310Y194859D01*
X336201Y194713D01*
X335091Y194859D01*
X334057Y195288D01*
X333170Y195969D01*
X332488Y196857D01*
X332060Y197890D01*
X331914Y199000D01*
X332060Y200110D01*
X332488Y201143D01*
X333170Y202031D01*
X333417Y202221D01*
X333247Y202721D01*
X332084D01*
X328329Y198966D01*
X327833Y198634D01*
X327248Y198518D01*
X310137D01*
X310037Y198018D01*
X310194Y197953D01*
X311020Y197319D01*
X311653Y196493D01*
X312052Y195532D01*
X312188Y194500D01*
X312052Y193468D01*
X311653Y192507D01*
X311020Y191681D01*
X310194Y191047D01*
X309233Y190649D01*
X308201Y190513D01*
X307169Y190649D01*
X306207Y191047D01*
X305382Y191681D01*
X304748Y192507D01*
X304350Y193468D01*
X304214Y194500D01*
X304350Y195532D01*
X304748Y196493D01*
X305382Y197319D01*
X306207Y197953D01*
X306364Y198018D01*
X306265Y198518D01*
X254381D01*
X251860Y195996D01*
X252052Y195532D01*
X252188Y194500D01*
X252052Y193468D01*
X251654Y192507D01*
X251020Y191681D01*
X250194Y191047D01*
X249233Y190649D01*
X248201Y190513D01*
X247169Y190649D01*
X246207Y191047D01*
X245382Y191681D01*
X244748Y192507D01*
X244350Y193468D01*
X244214Y194500D01*
X244350Y195532D01*
X244542Y195996D01*
X243667Y196871D01*
X222079D01*
X221918Y196397D01*
X222020Y196319D01*
X222654Y195493D01*
X223052Y194532D01*
X223188Y193500D01*
X223052Y192468D01*
X222654Y191507D01*
X222020Y190681D01*
X221194Y190047D01*
X220233Y189649D01*
X219201Y189513D01*
X218169Y189649D01*
X217207Y190047D01*
X216382Y190681D01*
X215748Y191507D01*
X215350Y192468D01*
X215214Y193500D01*
X215350Y194532D01*
X215748Y195493D01*
X216382Y196319D01*
X216483Y196397D01*
X216323Y196871D01*
X164734D01*
X162860Y194996D01*
X163052Y194532D01*
X163188Y193500D01*
X163052Y192468D01*
X162654Y191507D01*
X162020Y190681D01*
X161194Y190047D01*
X160233Y189649D01*
X159201Y189513D01*
X158169Y189649D01*
X157207Y190047D01*
X156382Y190681D01*
X155748Y191507D01*
X155350Y192468D01*
X155214Y193500D01*
X155350Y194532D01*
X155748Y195493D01*
X156382Y196319D01*
X157207Y196953D01*
X158169Y197351D01*
X159201Y197487D01*
X160233Y197351D01*
X160697Y197159D01*
X163019Y199481D01*
X163515Y199813D01*
X164101Y199929D01*
X216540D01*
X216709Y200429D01*
X216382Y200681D01*
X215748Y201507D01*
X215350Y202468D01*
X215214Y203500D01*
X215350Y204532D01*
X215748Y205493D01*
X216382Y206319D01*
X217207Y206953D01*
X218169Y207351D01*
X219201Y207487D01*
X220233Y207351D01*
X221194Y206953D01*
X222020Y206319D01*
X222654Y205493D01*
X223052Y204532D01*
X223188Y203500D01*
X223052Y202468D01*
X222654Y201507D01*
X222020Y200681D01*
X221692Y200429D01*
X221862Y199929D01*
X244301D01*
X244886Y199813D01*
X245382Y199481D01*
X246705Y198159D01*
X247169Y198351D01*
X248201Y198487D01*
X249233Y198351D01*
X249697Y198159D01*
X252666Y201129D01*
X253163Y201460D01*
X253748Y201577D01*
X304831D01*
X305078Y202077D01*
X304748Y202507D01*
X304350Y203468D01*
X304214Y204500D01*
X304350Y205532D01*
X304748Y206493D01*
X305382Y207319D01*
X306207Y207953D01*
X306364Y208018D01*
X306265Y208518D01*
X254381D01*
X251860Y205996D01*
X252052Y205532D01*
X252188Y204500D01*
X252052Y203468D01*
X251654Y202507D01*
X251020Y201681D01*
X250194Y201047D01*
X249233Y200649D01*
X248201Y200513D01*
X247169Y200649D01*
X246207Y201047D01*
X245382Y201681D01*
X244748Y202507D01*
X244350Y203468D01*
X244214Y204500D01*
X244350Y205532D01*
X244542Y205996D01*
X238567Y211971D01*
X222846D01*
X222654Y211507D01*
X222020Y210681D01*
X221194Y210047D01*
X220233Y209649D01*
X219201Y209513D01*
X218169Y209649D01*
X217207Y210047D01*
X216382Y210681D01*
X215748Y211507D01*
X215350Y212468D01*
X215214Y213500D01*
X215350Y214532D01*
X215748Y215493D01*
X216382Y216319D01*
X216579Y216471D01*
X216409Y216971D01*
X161992D01*
X161822Y216471D01*
X162020Y216319D01*
X162654Y215493D01*
X163052Y214532D01*
X163188Y213500D01*
X163052Y212468D01*
X162654Y211507D01*
X162020Y210681D01*
X161194Y210047D01*
X160233Y209649D01*
X159201Y209513D01*
X158169Y209649D01*
X157207Y210047D01*
X156382Y210681D01*
X155748Y211507D01*
X155350Y212468D01*
X155214Y213500D01*
X155350Y214532D01*
X155748Y215493D01*
X156382Y216319D01*
X156579Y216471D01*
X156409Y216971D01*
X137834D01*
X124396Y203532D01*
X124598Y203044D01*
X124735Y202000D01*
X124598Y200956D01*
X124195Y199983D01*
X123554Y199147D01*
X122718Y198506D01*
X121745Y198103D01*
X120701Y197966D01*
X119657Y198103D01*
X118684Y198506D01*
X118230Y198854D01*
X117730Y198607D01*
Y191833D01*
X125782Y183781D01*
X126114Y183285D01*
X126230Y182700D01*
Y168500D01*
X126114Y167915D01*
X125782Y167419D01*
X123896Y165532D01*
X124098Y165044D01*
X124235Y164000D01*
X124098Y162956D01*
X123695Y161983D01*
X123054Y161147D01*
X122218Y160506D01*
X121245Y160103D01*
X120201Y159966D01*
X119157Y160103D01*
X118184Y160506D01*
X117348Y161147D01*
X116707Y161983D01*
X116304Y162956D01*
X116166Y164000D01*
X116304Y165044D01*
X116707Y166017D01*
X117348Y166853D01*
X118184Y167494D01*
X119157Y167897D01*
X120201Y168035D01*
X121245Y167897D01*
X121733Y167695D01*
X123171Y169133D01*
Y170607D01*
X122671Y170854D01*
X122218Y170506D01*
X121245Y170103D01*
X120201Y169966D01*
X119157Y170103D01*
X118184Y170506D01*
X117348Y171147D01*
X116707Y171983D01*
X116304Y172956D01*
X116166Y174000D01*
X116304Y175044D01*
X116707Y176017D01*
X117348Y176853D01*
X118184Y177494D01*
X119157Y177897D01*
X120201Y178034D01*
X121245Y177897D01*
X122218Y177494D01*
X122671Y177146D01*
X123171Y177393D01*
Y182067D01*
X115119Y190119D01*
X114788Y190615D01*
X114671Y191200D01*
Y216500D01*
X114788Y217085D01*
X115119Y217581D01*
X137119Y239581D01*
X137616Y239913D01*
X138201Y240029D01*
X156409D01*
X156579Y240529D01*
X156382Y240681D01*
X155748Y241507D01*
X155350Y242468D01*
X155214Y243500D01*
X155350Y244532D01*
X155542Y244996D01*
X145667Y254871D01*
X145335Y255367D01*
X145219Y255953D01*
Y306702D01*
X144757Y306893D01*
X136030Y298166D01*
Y293768D01*
X135914Y293183D01*
X135582Y292687D01*
X123879Y280983D01*
X124081Y280495D01*
X124218Y279451D01*
X124081Y278407D01*
X123678Y277433D01*
X123036Y276598D01*
X122201Y275957D01*
X121228Y275554D01*
X120184Y275416D01*
X119139Y275554D01*
X118166Y275957D01*
X117331Y276598D01*
X116690Y277433D01*
X116287Y278407D01*
X116149Y279451D01*
X116287Y280495D01*
X116690Y281468D01*
X117331Y282304D01*
X118166Y282945D01*
X119139Y283348D01*
X120184Y283485D01*
X121228Y283348D01*
X121716Y283146D01*
X132971Y294402D01*
Y298800D01*
X133069Y299288D01*
X133088Y299385D01*
X133419Y299881D01*
X155542Y322004D01*
X155350Y322468D01*
X155214Y323500D01*
X155350Y324532D01*
X155748Y325493D01*
X156382Y326319D01*
X157207Y326953D01*
X158169Y327351D01*
X159201Y327487D01*
X160233Y327351D01*
X161194Y326953D01*
X162020Y326319D01*
X162654Y325493D01*
X163052Y324532D01*
X163188Y323500D01*
X163052Y322468D01*
X162654Y321507D01*
X162020Y320681D01*
X161822Y320529D01*
X161992Y320029D01*
X216409D01*
X216579Y320529D01*
X216382Y320681D01*
X215748Y321507D01*
X215350Y322468D01*
X215214Y323500D01*
X215350Y324532D01*
X215748Y325493D01*
X216185Y326063D01*
X216161Y326246D01*
X216026Y326647D01*
X215619Y326919D01*
X211619Y330919D01*
X211288Y331415D01*
X211268Y331512D01*
X211171Y332000D01*
Y347000D01*
X211288Y347585D01*
X211619Y348081D01*
X215542Y352004D01*
X215350Y352468D01*
X215214Y353500D01*
X215350Y354532D01*
X215748Y355493D01*
X216382Y356319D01*
X217207Y356953D01*
X218169Y357351D01*
X219201Y357487D01*
X220233Y357351D01*
X221194Y356953D01*
X222020Y356319D01*
X222654Y355493D01*
X223052Y354532D01*
X223188Y353500D01*
X223052Y352468D01*
X222654Y351507D01*
X222020Y350681D01*
X221194Y350047D01*
X221151Y350029D01*
X221251Y349529D01*
X223701D01*
X224286Y349413D01*
X224782Y349081D01*
X232334Y341529D01*
X244868D01*
X245114Y342029D01*
X244748Y342507D01*
X244350Y343468D01*
X244214Y344500D01*
X244350Y345532D01*
X244748Y346493D01*
X245382Y347319D01*
X246207Y347953D01*
X247169Y348351D01*
X248201Y348487D01*
X249233Y348351D01*
X249697Y348159D01*
X255036Y353498D01*
X255533Y353830D01*
X256118Y353946D01*
X303748D01*
X303880Y353920D01*
X304245Y354262D01*
X304214Y354500D01*
X304350Y355532D01*
X304748Y356493D01*
X305382Y357319D01*
X306207Y357953D01*
X306364Y358018D01*
X306265Y358518D01*
X254381D01*
X251860Y355996D01*
X252052Y355532D01*
X252188Y354500D01*
X252052Y353468D01*
X251654Y352507D01*
X251020Y351681D01*
X250194Y351047D01*
X249233Y350649D01*
X248201Y350513D01*
X247169Y350649D01*
X246207Y351047D01*
X245382Y351681D01*
X244748Y352507D01*
X244350Y353468D01*
X244214Y354500D01*
X244350Y355532D01*
X244748Y356493D01*
X245382Y357319D01*
X246207Y357953D01*
X247169Y358351D01*
X248201Y358487D01*
X249233Y358351D01*
X249697Y358159D01*
X252666Y361129D01*
X253163Y361460D01*
X253748Y361577D01*
X304831D01*
X305078Y362077D01*
X304748Y362507D01*
X304350Y363468D01*
X304214Y364500D01*
X304350Y365532D01*
X304748Y366493D01*
X305078Y366923D01*
X304831Y367423D01*
X251570D01*
X251324Y366923D01*
X251654Y366493D01*
X252052Y365532D01*
X252188Y364500D01*
X252052Y363468D01*
X251654Y362507D01*
X251020Y361681D01*
X250194Y361047D01*
X249233Y360649D01*
X248201Y360513D01*
X247169Y360649D01*
X246207Y361047D01*
X245382Y361681D01*
X244748Y362507D01*
X244350Y363468D01*
X244214Y364500D01*
X244350Y365532D01*
X244748Y366493D01*
X245078Y366923D01*
X244831Y367423D01*
X221547D01*
X221231Y366979D01*
X221232Y366923D01*
X222020Y366319D01*
X222654Y365493D01*
X223052Y364532D01*
X223188Y363500D01*
X223052Y362468D01*
X222654Y361507D01*
X222020Y360681D01*
X221194Y360047D01*
X220233Y359649D01*
X219201Y359513D01*
X218169Y359649D01*
X217207Y360047D01*
X216382Y360681D01*
X215748Y361507D01*
X215350Y362468D01*
X215214Y363500D01*
X215350Y364532D01*
X215748Y365493D01*
X216382Y366319D01*
X217169Y366923D01*
X217170Y366979D01*
X216855Y367423D01*
X195287D01*
X162860Y334996D01*
X163052Y334532D01*
X163188Y333500D01*
X163052Y332468D01*
X162654Y331507D01*
X162020Y330681D01*
X161194Y330047D01*
X160233Y329649D01*
X159201Y329513D01*
X158169Y329649D01*
X157207Y330047D01*
X156382Y330681D01*
X155748Y331507D01*
X155350Y332468D01*
X155214Y333500D01*
X155350Y334532D01*
X155748Y335493D01*
X156382Y336319D01*
X157207Y336953D01*
X158169Y337351D01*
X159201Y337487D01*
X160233Y337351D01*
X160697Y337159D01*
X193572Y370034D01*
X194068Y370366D01*
X194654Y370482D01*
X215904D01*
X216150Y370982D01*
X215748Y371507D01*
X215350Y372468D01*
X215214Y373500D01*
X215350Y374532D01*
X215748Y375493D01*
X216382Y376319D01*
X217207Y376953D01*
X218169Y377351D01*
X219201Y377487D01*
X220233Y377351D01*
X221194Y376953D01*
X222020Y376319D01*
X222654Y375493D01*
X223052Y374532D01*
X223188Y373500D01*
X223052Y372468D01*
X222654Y371507D01*
X222251Y370982D01*
X222498Y370482D01*
X246265D01*
X246364Y370982D01*
X246207Y371047D01*
X245382Y371681D01*
X244748Y372507D01*
X244350Y373468D01*
X244214Y374500D01*
X244350Y375532D01*
X244748Y376493D01*
X245382Y377319D01*
X246207Y377953D01*
X247169Y378351D01*
X248201Y378487D01*
X249233Y378351D01*
X249697Y378159D01*
X251619Y380081D01*
X252116Y380413D01*
X252701Y380529D01*
X303755D01*
X304248Y380547D01*
Y387471D01*
X253334D01*
X251860Y385996D01*
X252052Y385532D01*
X252188Y384500D01*
X252052Y383468D01*
X251654Y382507D01*
X251020Y381681D01*
X250194Y381047D01*
X249233Y380649D01*
X248201Y380513D01*
X247169Y380649D01*
X246207Y381047D01*
X245382Y381681D01*
X244748Y382507D01*
X244350Y383468D01*
X244214Y384500D01*
X244350Y385532D01*
X244748Y386493D01*
X245382Y387319D01*
X246207Y387953D01*
X247169Y388351D01*
X248201Y388487D01*
X249233Y388351D01*
X249697Y388159D01*
X251619Y390081D01*
X252116Y390413D01*
X252701Y390529D01*
X323801D01*
X324386Y390413D01*
X324882Y390081D01*
X332778Y382186D01*
X333226Y382407D01*
X333214Y382500D01*
X333350Y383532D01*
X333542Y383996D01*
X316899Y400639D01*
X293701D01*
X293115Y400755D01*
X292619Y401087D01*
X258369Y435337D01*
X258038Y435833D01*
X258018Y435930D01*
X257921Y436418D01*
Y439663D01*
X257506Y439940D01*
X257310Y439859D01*
X256201Y439713D01*
X255091Y439859D01*
X254057Y440288D01*
X253170Y440969D01*
X253004Y441185D01*
X252530Y441024D01*
Y401355D01*
X252766Y401257D01*
X253497Y400696D01*
X254058Y399965D01*
X254411Y399114D01*
X254531Y398200D01*
X254411Y397286D01*
X254058Y396435D01*
X253497Y395704D01*
X252766Y395143D01*
X251915Y394790D01*
X251001Y394670D01*
X250087Y394790D01*
X249236Y395143D01*
X248505Y395704D01*
X247943Y396435D01*
X247591Y397286D01*
X247471Y398200D01*
X247591Y399114D01*
X247943Y399965D01*
X248505Y400696D01*
X249236Y401257D01*
X249471Y401355D01*
Y440522D01*
X248971Y440769D01*
X248344Y440288D01*
X247310Y439859D01*
X246201Y439713D01*
X245091Y439859D01*
X244057Y440288D01*
X243170Y440969D01*
X242488Y441857D01*
X242060Y442891D01*
X241914Y444000D01*
X242060Y445110D01*
X242488Y446143D01*
X243123Y446971D01*
X243007Y447471D01*
X239395D01*
X239278Y446971D01*
X239913Y446143D01*
X240341Y445110D01*
X240487Y444000D01*
X240341Y442891D01*
X239913Y441857D01*
X239232Y440969D01*
X238344Y440288D01*
X237310Y439859D01*
X236201Y439713D01*
X235091Y439859D01*
X234057Y440288D01*
X233170Y440969D01*
X232488Y441857D01*
X232060Y442891D01*
X231914Y444000D01*
X232060Y445110D01*
X232488Y446143D01*
X233123Y446971D01*
X233007Y447471D01*
X229395D01*
X229278Y446971D01*
X229913Y446143D01*
X230341Y445110D01*
X230487Y444000D01*
X230341Y442891D01*
X229913Y441857D01*
X229232Y440969D01*
X228344Y440288D01*
X227310Y439859D01*
X226201Y439713D01*
X225091Y439859D01*
X224057Y440288D01*
X223170Y440969D01*
X222488Y441857D01*
X222060Y442891D01*
X221914Y444000D01*
X222060Y445110D01*
X222488Y446143D01*
X223123Y446971D01*
X223007Y447471D01*
X161782D01*
X161561Y447022D01*
X161758Y446765D01*
X162111Y445914D01*
X162165Y445500D01*
X155236D01*
X155291Y445914D01*
X155643Y446765D01*
X155841Y447022D01*
X155620Y447471D01*
X153534D01*
X152213Y446149D01*
X152311Y445914D01*
X152431Y445000D01*
X152311Y444086D01*
X151958Y443235D01*
X151397Y442504D01*
X150666Y441943D01*
X149814Y441590D01*
X148901Y441470D01*
X147987Y441590D01*
X147136Y441943D01*
X146405Y442504D01*
X145844Y443235D01*
X145491Y444086D01*
X145371Y445000D01*
X145491Y445914D01*
X145844Y446765D01*
X146405Y447496D01*
X147136Y448057D01*
X147987Y448410D01*
X148901Y448530D01*
X149814Y448410D01*
X150050Y448312D01*
X151819Y450081D01*
X152315Y450413D01*
X152901Y450529D01*
X155620D01*
X155841Y450978D01*
X155643Y451235D01*
X155291Y452086D01*
X155171Y453000D01*
X155291Y453914D01*
X155643Y454765D01*
X156204Y455496D01*
X156936Y456057D01*
X157787Y456410D01*
X158701Y456530D01*
X159615Y456410D01*
X160466Y456057D01*
X161197Y455496D01*
X161758Y454765D01*
X162111Y453914D01*
X162231Y453000D01*
X162111Y452086D01*
X161758Y451235D01*
X161561Y450978D01*
X161782Y450529D01*
X248567D01*
X249869Y451831D01*
X250365Y452163D01*
X250951Y452279D01*
X275117D01*
X279471Y456634D01*
Y470522D01*
X278971Y470769D01*
X278344Y470288D01*
X277310Y469859D01*
X276201Y469713D01*
X275091Y469859D01*
X274477Y470114D01*
X272482Y468118D01*
X271986Y467787D01*
X271401Y467671D01*
X197201D01*
X196616Y467787D01*
X196119Y468119D01*
X191367Y472871D01*
X170934D01*
X152213Y454149D01*
X152311Y453914D01*
X152431Y453000D01*
X152311Y452086D01*
X151958Y451235D01*
X151397Y450504D01*
X150666Y449943D01*
X149814Y449590D01*
X148901Y449470D01*
X147987Y449590D01*
X147136Y449943D01*
X146405Y450504D01*
X145844Y451235D01*
X145491Y452086D01*
X145371Y453000D01*
X145491Y453914D01*
X145844Y454765D01*
X146405Y455496D01*
X147136Y456057D01*
X147987Y456410D01*
X148901Y456530D01*
X149814Y456410D01*
X150050Y456312D01*
X169219Y475481D01*
X169715Y475813D01*
X170301Y475929D01*
X192001D01*
X192586Y475813D01*
X193082Y475481D01*
X197834Y470729D01*
X222723D01*
X222970Y471229D01*
X222488Y471857D01*
X222060Y472891D01*
X221914Y474000D01*
X222060Y475109D01*
X222488Y476143D01*
X223170Y477031D01*
X224057Y477712D01*
X225091Y478141D01*
X226201Y478287D01*
X227310Y478141D01*
X228344Y477712D01*
X229232Y477031D01*
X229913Y476143D01*
X230341Y475109D01*
X230487Y474000D01*
X230341Y472891D01*
X229913Y471857D01*
X229432Y471229D01*
X229678Y470729D01*
X232723D01*
X232970Y471229D01*
X232488Y471857D01*
X232060Y472891D01*
X231914Y474000D01*
X232060Y475109D01*
X232488Y476143D01*
X233170Y477031D01*
X234057Y477712D01*
X235091Y478141D01*
X236201Y478287D01*
X237310Y478141D01*
X238344Y477712D01*
X239232Y477031D01*
X239913Y476143D01*
X240341Y475109D01*
X240487Y474000D01*
X240341Y472891D01*
X239913Y471857D01*
X239432Y471229D01*
X239678Y470729D01*
X242723D01*
X242970Y471229D01*
X242488Y471857D01*
X242060Y472891D01*
X241914Y474000D01*
X242060Y475109D01*
X242488Y476143D01*
X243170Y477031D01*
X244057Y477712D01*
X245091Y478141D01*
X246201Y478287D01*
X247310Y478141D01*
X248344Y477712D01*
X249232Y477031D01*
X249913Y476143D01*
X250341Y475109D01*
X250487Y474000D01*
X250341Y472891D01*
X249913Y471857D01*
X249432Y471229D01*
X249678Y470729D01*
X252723D01*
X252970Y471229D01*
X252488Y471857D01*
X252060Y472891D01*
X251914Y474000D01*
X252060Y475109D01*
X252488Y476143D01*
X253170Y477031D01*
X254057Y477712D01*
X255091Y478141D01*
X256201Y478287D01*
X257310Y478141D01*
X258344Y477712D01*
X259232Y477031D01*
X259913Y476143D01*
X260341Y475109D01*
X260487Y474000D01*
X260341Y472891D01*
X259913Y471857D01*
X259432Y471229D01*
X259678Y470729D01*
X262723D01*
X262970Y471229D01*
X262488Y471857D01*
X262060Y472891D01*
X261914Y474000D01*
X262060Y475109D01*
X262488Y476143D01*
X263170Y477031D01*
X264057Y477712D01*
X265091Y478141D01*
X266201Y478287D01*
X267310Y478141D01*
X267924Y477886D01*
X269919Y479881D01*
X270415Y480213D01*
X271001Y480329D01*
D02*
G37*
G36*
X388232Y477500D02*
X391701D01*
Y474031D01*
X391157Y474103D01*
X390183Y474506D01*
X389348Y475147D01*
X388707Y475983D01*
X388304Y476956D01*
X388232Y477500D01*
D02*
G37*
G36*
X392701D02*
X396169D01*
X396098Y476956D01*
X395695Y475983D01*
X395054Y475147D01*
X394218Y474506D01*
X393245Y474103D01*
X392701Y474031D01*
Y477500D01*
D02*
G37*
G36*
X166201Y405969D02*
Y402500D01*
X162732D01*
X162804Y403044D01*
X163207Y404017D01*
X163848Y404853D01*
X164683Y405494D01*
X165657Y405897D01*
X166201Y405969D01*
D02*
G37*
G36*
X167201D02*
X167745Y405897D01*
X168718Y405494D01*
X169554Y404853D01*
X170195Y404017D01*
X170598Y403044D01*
X170669Y402500D01*
X167201D01*
Y405969D01*
D02*
G37*
G36*
X109701Y408000D02*
X118701D01*
Y399000D01*
X109701D01*
Y408000D01*
D02*
G37*
G36*
X340984Y139980D02*
X342273Y139810D01*
X343474Y139313D01*
X344505Y138521D01*
X345297Y137490D01*
X345794Y136289D01*
X345964Y135000D01*
X345794Y133711D01*
X345297Y132510D01*
X344505Y131479D01*
X343474Y130687D01*
X342273Y130190D01*
X340984Y130020D01*
X339695Y130190D01*
X338735Y130588D01*
X333566Y125419D01*
X333069Y125087D01*
X332484Y124971D01*
X312980D01*
X312569Y123978D01*
X311767Y122934D01*
X310723Y122133D01*
X309506Y121629D01*
X308201Y121457D01*
X306896Y121629D01*
X305680Y122133D01*
X304635Y122934D01*
X303834Y123978D01*
X303330Y125195D01*
X303158Y126500D01*
X303330Y127805D01*
X303834Y129022D01*
X304635Y130066D01*
X305680Y130868D01*
X306896Y131371D01*
X308201Y131543D01*
X309506Y131371D01*
X310723Y130868D01*
X311767Y130066D01*
X312569Y129022D01*
X312980Y128029D01*
X331851D01*
X336572Y132751D01*
X336174Y133711D01*
X336005Y135000D01*
X336174Y136289D01*
X336672Y137490D01*
X337463Y138521D01*
X338494Y139313D01*
X339695Y139810D01*
X340984Y139980D01*
D02*
G37*
G36*
X238201Y131543D02*
X239506Y131371D01*
X240723Y130868D01*
X241767Y130066D01*
X242569Y129022D01*
X243073Y127805D01*
X243244Y126500D01*
X243073Y125195D01*
X242569Y123978D01*
X241767Y122934D01*
X240723Y122133D01*
X239506Y121629D01*
X238201Y121457D01*
X236896Y121629D01*
X235680Y122133D01*
X234635Y122934D01*
X233834Y123978D01*
X233330Y125195D01*
X233158Y126500D01*
X233330Y127805D01*
X233834Y129022D01*
X234635Y130066D01*
X235680Y130868D01*
X236896Y131371D01*
X238201Y131543D01*
D02*
G37*
G36*
X171201Y129534D02*
X172245Y129397D01*
X173218Y128994D01*
X174054Y128353D01*
X174695Y127517D01*
X175098Y126544D01*
X175235Y125500D01*
X175098Y124456D01*
X174695Y123483D01*
X174054Y122647D01*
X173218Y122006D01*
X172245Y121603D01*
X171201Y121466D01*
X170157Y121603D01*
X169184Y122006D01*
X168348Y122647D01*
X167707Y123483D01*
X167304Y124456D01*
X167166Y125500D01*
X167304Y126544D01*
X167707Y127517D01*
X168348Y128353D01*
X169184Y128994D01*
X170157Y129397D01*
X171201Y129534D01*
D02*
G37*
G36*
X162732Y401500D02*
X166201D01*
Y398031D01*
X165657Y398103D01*
X164683Y398506D01*
X163848Y399147D01*
X163207Y399983D01*
X162804Y400956D01*
X162732Y401500D01*
D02*
G37*
G36*
X337701Y396421D02*
X338233Y396351D01*
X339194Y395953D01*
X340020Y395319D01*
X340653Y394493D01*
X341052Y393532D01*
X341122Y393000D01*
X337701D01*
Y396421D01*
D02*
G37*
G36*
X114201Y398039D02*
X115375Y397884D01*
X116470Y397431D01*
X117410Y396709D01*
X118131Y395769D01*
X118585Y394675D01*
X118740Y393500D01*
X118585Y392325D01*
X118131Y391231D01*
X117410Y390291D01*
X116470Y389569D01*
X115375Y389116D01*
X114201Y388961D01*
X113026Y389116D01*
X111931Y389569D01*
X110991Y390291D01*
X110270Y391231D01*
X109817Y392325D01*
X109662Y393500D01*
X109817Y394675D01*
X110270Y395769D01*
X110991Y396709D01*
X111931Y397431D01*
X113026Y397884D01*
X114201Y398039D01*
D02*
G37*
G36*
X333280Y392000D02*
X336701D01*
Y388579D01*
X336169Y388649D01*
X335207Y389047D01*
X334382Y389681D01*
X333748Y390507D01*
X333350Y391468D01*
X333280Y392000D01*
D02*
G37*
G36*
X167201Y401500D02*
X170669D01*
X170598Y400956D01*
X170195Y399983D01*
X169554Y399147D01*
X168718Y398506D01*
X167745Y398103D01*
X167201Y398031D01*
Y401500D01*
D02*
G37*
G36*
X176701Y406035D02*
X177745Y405897D01*
X178718Y405494D01*
X179554Y404853D01*
X180195Y404017D01*
X180598Y403044D01*
X180735Y402000D01*
X180598Y400956D01*
X180195Y399983D01*
X179554Y399147D01*
X178718Y398506D01*
X177745Y398103D01*
X176701Y397966D01*
X175657Y398103D01*
X174683Y398506D01*
X173848Y399147D01*
X173207Y399983D01*
X172804Y400956D01*
X172666Y402000D01*
X172804Y403044D01*
X173207Y404017D01*
X173848Y404853D01*
X174683Y405494D01*
X175657Y405897D01*
X176701Y406035D01*
D02*
G37*
G36*
X336701Y396421D02*
Y393000D01*
X333280D01*
X333350Y393532D01*
X333748Y394493D01*
X334382Y395319D01*
X335207Y395953D01*
X336169Y396351D01*
X336701Y396421D01*
D02*
G37*
G36*
X406201Y425487D02*
X407669D01*
X408701Y425351D01*
X409663Y424953D01*
X410488Y424319D01*
X411122Y423493D01*
X411520Y422532D01*
X411590Y422000D01*
X406201D01*
Y425487D01*
D02*
G37*
G36*
X403732Y440500D02*
X407201D01*
Y437031D01*
X406657Y437103D01*
X405684Y437506D01*
X404848Y438147D01*
X404207Y438983D01*
X403804Y439956D01*
X403732Y440500D01*
D02*
G37*
G36*
X459780Y425453D02*
X471622D01*
Y417547D01*
X459780D01*
Y425453D01*
D02*
G37*
G36*
X408201Y440500D02*
X411669D01*
X411598Y439956D01*
X411195Y438983D01*
X410554Y438147D01*
X409718Y437506D01*
X408745Y437103D01*
X408201Y437031D01*
Y440500D01*
D02*
G37*
G36*
X417701Y445035D02*
X418745Y444897D01*
X419718Y444494D01*
X420554Y443853D01*
X421195Y443017D01*
X421598Y442044D01*
X421735Y441000D01*
X421598Y439956D01*
X421195Y438983D01*
X420554Y438147D01*
X419718Y437506D01*
X418745Y437103D01*
X417701Y436966D01*
X416657Y437103D01*
X415684Y437506D01*
X414848Y438147D01*
X414207Y438983D01*
X413804Y439956D01*
X413666Y441000D01*
X413804Y442044D01*
X414207Y443017D01*
X414848Y443853D01*
X415684Y444494D01*
X416657Y444897D01*
X417701Y445035D01*
D02*
G37*
G36*
X403732Y425487D02*
X405201D01*
Y422000D01*
X399811D01*
X399881Y422532D01*
X400280Y423493D01*
X400913Y424319D01*
X401739Y424953D01*
X402700Y425351D01*
X403732Y425487D01*
D02*
G37*
G36*
X159201Y444500D02*
X162165D01*
X162111Y444086D01*
X161758Y443235D01*
X161197Y442504D01*
X160466Y441943D01*
X159615Y441590D01*
X159201Y441536D01*
Y444500D01*
D02*
G37*
G36*
X407201Y444969D02*
Y441500D01*
X403732D01*
X403804Y442044D01*
X404207Y443017D01*
X404848Y443853D01*
X405684Y444494D01*
X406657Y444897D01*
X407201Y444969D01*
D02*
G37*
G36*
X418701Y122535D02*
X419745Y122397D01*
X420718Y121994D01*
X421554Y121353D01*
X422195Y120517D01*
X422598Y119544D01*
X422735Y118500D01*
X422598Y117456D01*
X422195Y116483D01*
X421554Y115647D01*
X420718Y115006D01*
X419745Y114603D01*
X418701Y114465D01*
X417657Y114603D01*
X416683Y115006D01*
X415848Y115647D01*
X415207Y116483D01*
X414804Y117456D01*
X414666Y118500D01*
X414804Y119544D01*
X415207Y120517D01*
X415848Y121353D01*
X416683Y121994D01*
X417657Y122397D01*
X418701Y122535D01*
D02*
G37*
G36*
X399811Y421000D02*
X411590D01*
X411520Y420468D01*
X411122Y419507D01*
X410756Y419029D01*
X411002Y418529D01*
X430201D01*
X430689Y418432D01*
X430786Y418413D01*
X431282Y418081D01*
X436334Y413029D01*
X460087D01*
X460280Y413493D01*
X460913Y414319D01*
X461739Y414953D01*
X462700Y415351D01*
X463732Y415487D01*
X467669D01*
X468701Y415351D01*
X469663Y414953D01*
X470488Y414319D01*
X471122Y413493D01*
X471520Y412532D01*
X471656Y411500D01*
X471520Y410468D01*
X471122Y409507D01*
X470488Y408681D01*
X469663Y408047D01*
X468701Y407649D01*
X467669Y407513D01*
X463732D01*
X462700Y407649D01*
X461739Y408047D01*
X460913Y408681D01*
X460280Y409507D01*
X460087Y409971D01*
X435701D01*
X435115Y410087D01*
X434619Y410419D01*
X429567Y415471D01*
X409719D01*
X409620Y414971D01*
X409663Y414953D01*
X410488Y414319D01*
X411122Y413493D01*
X411520Y412532D01*
X411590Y412000D01*
X399811D01*
X399881Y412532D01*
X400280Y413493D01*
X400913Y414319D01*
X401739Y414953D01*
X401782Y414971D01*
X401683Y415471D01*
X364956D01*
X364858Y415235D01*
X364297Y414504D01*
X363566Y413943D01*
X362715Y413590D01*
X361801Y413470D01*
X360887Y413590D01*
X360036Y413943D01*
X359305Y414504D01*
X358744Y415235D01*
X358391Y416086D01*
X358271Y417000D01*
X358391Y417914D01*
X358744Y418765D01*
X359305Y419496D01*
X360036Y420057D01*
X360887Y420410D01*
X361801Y420530D01*
X362715Y420410D01*
X363566Y420057D01*
X364297Y419496D01*
X364858Y418765D01*
X364956Y418529D01*
X400399D01*
X400646Y419029D01*
X400280Y419507D01*
X399881Y420468D01*
X399811Y421000D01*
D02*
G37*
G36*
X408201Y444969D02*
X408745Y444897D01*
X409718Y444494D01*
X410554Y443853D01*
X411195Y443017D01*
X411598Y442044D01*
X411669Y441500D01*
X408201D01*
Y444969D01*
D02*
G37*
G36*
X448701Y122535D02*
X449745Y122397D01*
X450718Y121994D01*
X451554Y121353D01*
X452195Y120517D01*
X452598Y119544D01*
X452735Y118500D01*
X452598Y117456D01*
X452195Y116483D01*
X451554Y115647D01*
X450718Y115006D01*
X449745Y114603D01*
X448701Y114465D01*
X447657Y114603D01*
X446684Y115006D01*
X445848Y115647D01*
X445207Y116483D01*
X444804Y117456D01*
X444666Y118500D01*
X444804Y119544D01*
X445207Y120517D01*
X445848Y121353D01*
X446684Y121994D01*
X447657Y122397D01*
X448701Y122535D01*
D02*
G37*
%LPD*%
G36*
X251324Y276923D02*
X251654Y276493D01*
X252052Y275532D01*
X252188Y274500D01*
X252052Y273468D01*
X251654Y272507D01*
X251020Y271681D01*
X250194Y271047D01*
X250037Y270982D01*
X250136Y270482D01*
X303748D01*
X304333Y270366D01*
X304829Y270034D01*
X306209Y268654D01*
X306704Y268866D01*
X306788Y269285D01*
X307119Y269781D01*
X307582Y270090D01*
X307595Y270216D01*
X307518Y270603D01*
X307169Y270649D01*
X306207Y271047D01*
X305382Y271681D01*
X304748Y272507D01*
X304350Y273468D01*
X304214Y274500D01*
X304350Y275532D01*
X304542Y275996D01*
X303115Y277423D01*
X251570D01*
X251324Y276923D01*
D02*
G37*
G36*
X426882Y290419D02*
X426386Y290087D01*
X425801Y289971D01*
X411314D01*
X411122Y289507D01*
X410488Y288681D01*
X409663Y288047D01*
X408701Y287649D01*
X407669Y287513D01*
X407230D01*
Y287500D01*
X407114Y286915D01*
X406782Y286419D01*
X399282Y278919D01*
X398786Y278587D01*
X398201Y278471D01*
X332356D01*
X332258Y278235D01*
X331697Y277504D01*
X330966Y276943D01*
X330115Y276590D01*
X329653Y276529D01*
X329686Y276029D01*
X429067D01*
X432471Y279433D01*
Y295301D01*
X431971Y295508D01*
X426882Y290419D01*
D02*
G37*
G36*
X222287Y285971D02*
X222654Y285493D01*
X223052Y284532D01*
X223188Y283500D01*
X223052Y282468D01*
X222654Y281507D01*
X222251Y280982D01*
X222498Y280482D01*
X246265D01*
X246364Y280982D01*
X246207Y281047D01*
X245382Y281681D01*
X244748Y282507D01*
X244350Y283468D01*
X244214Y284500D01*
X244350Y285532D01*
X244542Y285996D01*
X244067Y286471D01*
X222534D01*
X222287Y285971D01*
D02*
G37*
G36*
X162860Y284996D02*
X163052Y284532D01*
X163188Y283500D01*
X163052Y282468D01*
X162654Y281507D01*
X162020Y280681D01*
X161822Y280529D01*
X161992Y280029D01*
X166267D01*
X185819Y299581D01*
X186316Y299913D01*
X186901Y300029D01*
X216409D01*
X216579Y300529D01*
X216382Y300681D01*
X215748Y301507D01*
X215350Y302468D01*
X215214Y303500D01*
X215350Y304532D01*
X215748Y305493D01*
X216382Y306319D01*
X217207Y306953D01*
X217250Y306971D01*
X217151Y307471D01*
X185334D01*
X162860Y284996D01*
D02*
G37*
G36*
X435530Y295367D02*
Y278800D01*
X435414Y278215D01*
X435082Y277719D01*
X430782Y273419D01*
X430286Y273087D01*
X429701Y272971D01*
X311846D01*
X311653Y272507D01*
X311020Y271681D01*
X310194Y271047D01*
X309427Y270729D01*
X309526Y270229D01*
X383346D01*
X383443Y270465D01*
X384005Y271196D01*
X384736Y271757D01*
X385587Y272110D01*
X386501Y272230D01*
X387415Y272110D01*
X388266Y271757D01*
X388997Y271196D01*
X389558Y270465D01*
X389911Y269614D01*
X390031Y268700D01*
X389911Y267786D01*
X389558Y266935D01*
X388997Y266204D01*
X388266Y265643D01*
X387415Y265290D01*
X386501Y265170D01*
X385587Y265290D01*
X384736Y265643D01*
X384005Y266204D01*
X383443Y266935D01*
X383346Y267171D01*
X311699D01*
X311478Y266722D01*
X311653Y266493D01*
X312052Y265532D01*
X312188Y264500D01*
X312052Y263468D01*
X311653Y262507D01*
X311020Y261681D01*
X310194Y261047D01*
X309233Y260649D01*
X308201Y260513D01*
X307169Y260649D01*
X306207Y261047D01*
X305382Y261681D01*
X304748Y262507D01*
X304350Y263468D01*
X304214Y264500D01*
X304350Y265532D01*
X304542Y265996D01*
X303115Y267423D01*
X251570D01*
X251324Y266923D01*
X251654Y266493D01*
X252052Y265532D01*
X252188Y264500D01*
X252052Y263468D01*
X251654Y262507D01*
X251020Y261681D01*
X250194Y261047D01*
X250037Y260982D01*
X250136Y260482D01*
X303748D01*
X304333Y260366D01*
X304829Y260034D01*
X306705Y258159D01*
X307169Y258351D01*
X308201Y258487D01*
X309233Y258351D01*
X310194Y257953D01*
X311020Y257319D01*
X311653Y256493D01*
X312052Y255532D01*
X312188Y254500D01*
X312052Y253468D01*
X311653Y252507D01*
X311020Y251681D01*
X310194Y251047D01*
X309233Y250649D01*
X308201Y250513D01*
X307169Y250649D01*
X306207Y251047D01*
X305382Y251681D01*
X304748Y252507D01*
X304350Y253468D01*
X304214Y254500D01*
X304350Y255532D01*
X304542Y255996D01*
X303115Y257423D01*
X251570D01*
X251324Y256923D01*
X251654Y256493D01*
X252052Y255532D01*
X252188Y254500D01*
X252052Y253468D01*
X251654Y252507D01*
X251020Y251681D01*
X250194Y251047D01*
X249233Y250649D01*
X248201Y250513D01*
X247169Y250649D01*
X246705Y250841D01*
X239673Y243810D01*
X239177Y243478D01*
X238829Y243409D01*
X238704Y242874D01*
X239197Y242496D01*
X239758Y241765D01*
X239856Y241529D01*
X244868D01*
X245114Y242029D01*
X244748Y242507D01*
X244350Y243468D01*
X244214Y244500D01*
X244350Y245532D01*
X244748Y246493D01*
X245382Y247319D01*
X246207Y247953D01*
X247169Y248351D01*
X248201Y248487D01*
X249233Y248351D01*
X250194Y247953D01*
X251020Y247319D01*
X251654Y246493D01*
X252052Y245532D01*
X252188Y244500D01*
X252052Y243468D01*
X251654Y242507D01*
X251287Y242029D01*
X251534Y241529D01*
X303067D01*
X304542Y243004D01*
X304350Y243468D01*
X304214Y244500D01*
X304350Y245532D01*
X304748Y246493D01*
X305382Y247319D01*
X306207Y247953D01*
X307169Y248351D01*
X308201Y248487D01*
X309233Y248351D01*
X309697Y248159D01*
X316819Y255281D01*
X317316Y255613D01*
X317901Y255729D01*
X332723D01*
X332970Y256229D01*
X332488Y256857D01*
X332060Y257891D01*
X331980Y258500D01*
X340422D01*
X340341Y257891D01*
X339913Y256857D01*
X339432Y256229D01*
X339678Y255729D01*
X361951D01*
Y263250D01*
X370451D01*
Y255729D01*
X415967D01*
X417775Y257537D01*
X417701Y257686D01*
Y261500D01*
X421514D01*
X421664Y261426D01*
X457819Y297581D01*
X458316Y297913D01*
X458901Y298029D01*
X460941D01*
X461110Y298529D01*
X460913Y298681D01*
X460280Y299507D01*
X460087Y299971D01*
X440134D01*
X435530Y295367D01*
D02*
G37*
G36*
X163682Y297419D02*
X163186Y297087D01*
X162601Y296971D01*
X161992D01*
X161822Y296471D01*
X162020Y296319D01*
X162654Y295493D01*
X163052Y294532D01*
X163188Y293500D01*
X163052Y292468D01*
X162654Y291507D01*
X162020Y290681D01*
X161194Y290047D01*
X160233Y289649D01*
X159201Y289513D01*
X158169Y289649D01*
X157207Y290047D01*
X156382Y290681D01*
X155748Y291507D01*
X155350Y292468D01*
X155214Y293500D01*
X155241Y293708D01*
X154793Y293929D01*
X150277Y289414D01*
Y266586D01*
X155101Y261763D01*
X155525Y262046D01*
X155350Y262468D01*
X155214Y263500D01*
X155350Y264532D01*
X155748Y265493D01*
X156382Y266319D01*
X157207Y266953D01*
X158169Y267351D01*
X159201Y267487D01*
X160233Y267351D01*
X160697Y267159D01*
X182619Y289081D01*
X183115Y289413D01*
X183701Y289529D01*
X217151D01*
X217250Y290029D01*
X217207Y290047D01*
X216382Y290681D01*
X215748Y291507D01*
X215350Y292468D01*
X215214Y293500D01*
X215350Y294532D01*
X215748Y295493D01*
X216382Y296319D01*
X216579Y296471D01*
X216409Y296971D01*
X187534D01*
X167982Y277419D01*
X167486Y277087D01*
X166901Y276971D01*
X161992D01*
X161822Y276471D01*
X162020Y276319D01*
X162654Y275493D01*
X163052Y274532D01*
X163188Y273500D01*
X163052Y272468D01*
X162654Y271507D01*
X162020Y270681D01*
X161194Y270047D01*
X160233Y269649D01*
X159201Y269513D01*
X158169Y269649D01*
X157207Y270047D01*
X156382Y270681D01*
X155748Y271507D01*
X155350Y272468D01*
X155214Y273500D01*
X155350Y274532D01*
X155388Y274623D01*
X155083Y275020D01*
X154701Y274970D01*
X153787Y275090D01*
X152936Y275443D01*
X152205Y276004D01*
X151644Y276735D01*
X151291Y277586D01*
X151171Y278500D01*
X151291Y279414D01*
X151644Y280265D01*
X152205Y280996D01*
X152936Y281557D01*
X153787Y281910D01*
X154701Y282030D01*
X155083Y281980D01*
X155388Y282377D01*
X155350Y282468D01*
X155214Y283500D01*
X155350Y284532D01*
X155748Y285493D01*
X156382Y286319D01*
X157207Y286953D01*
X158169Y287351D01*
X159201Y287487D01*
X160233Y287351D01*
X160697Y287159D01*
X183619Y310081D01*
X184116Y310413D01*
X184701Y310529D01*
X215868D01*
X216114Y311029D01*
X215748Y311507D01*
X215556Y311971D01*
X178234D01*
X163682Y297419D01*
D02*
G37*
G36*
X162860Y264996D02*
X163052Y264532D01*
X163188Y263500D01*
X163052Y262468D01*
X162654Y261507D01*
X162287Y261029D01*
X162534Y260529D01*
X215868D01*
X216114Y261029D01*
X215748Y261507D01*
X215350Y262468D01*
X215280Y263000D01*
X223122D01*
X223052Y262468D01*
X222654Y261507D01*
X222287Y261029D01*
X222534Y260529D01*
X234615D01*
X244120Y270034D01*
X244617Y270366D01*
X245202Y270482D01*
X246265D01*
X246364Y270982D01*
X246207Y271047D01*
X245382Y271681D01*
X244748Y272507D01*
X244350Y273468D01*
X244214Y274500D01*
X244350Y275532D01*
X244748Y276493D01*
X245078Y276923D01*
X244831Y277423D01*
X221547D01*
X221231Y276978D01*
X221232Y276923D01*
X222020Y276319D01*
X222654Y275493D01*
X223052Y274532D01*
X223122Y274000D01*
X215280D01*
X215350Y274532D01*
X215748Y275493D01*
X216382Y276319D01*
X217169Y276923D01*
X217170Y276978D01*
X216855Y277423D01*
X204256D01*
X204158Y277188D01*
X203597Y276457D01*
X202866Y275896D01*
X202014Y275543D01*
X201101Y275423D01*
X200187Y275543D01*
X199336Y275896D01*
X198605Y276457D01*
X198044Y277188D01*
X197691Y278039D01*
X197571Y278953D01*
X197691Y279867D01*
X198044Y280718D01*
X198605Y281449D01*
X199336Y282010D01*
X200187Y282363D01*
X201101Y282483D01*
X202014Y282363D01*
X202866Y282010D01*
X203597Y281449D01*
X204158Y280718D01*
X204256Y280482D01*
X215904D01*
X216150Y280982D01*
X215748Y281507D01*
X215350Y282468D01*
X215214Y283500D01*
X215350Y284532D01*
X215748Y285493D01*
X216114Y285971D01*
X215868Y286471D01*
X184334D01*
X162860Y264996D01*
D02*
G37*
G36*
X236330Y257919D02*
X235834Y257587D01*
X235737Y257568D01*
X235249Y257471D01*
X221251D01*
X221151Y256971D01*
X221194Y256953D01*
X222020Y256319D01*
X222654Y255493D01*
X223052Y254532D01*
X223188Y253500D01*
X223052Y252468D01*
X222654Y251507D01*
X222020Y250681D01*
X221823Y250529D01*
X221992Y250029D01*
X232614D01*
X242619Y260034D01*
X243115Y260366D01*
X243701Y260482D01*
X246265D01*
X246364Y260982D01*
X246207Y261047D01*
X245382Y261681D01*
X244748Y262507D01*
X244350Y263468D01*
X244214Y264500D01*
X244304Y265185D01*
X243830Y265419D01*
X236330Y257919D01*
D02*
G37*
G36*
X311860Y205996D02*
X312052Y205532D01*
X312188Y204500D01*
X312052Y203468D01*
X311653Y202507D01*
X311324Y202077D01*
X311570Y201577D01*
X326614D01*
X330369Y205331D01*
X330866Y205663D01*
X331451Y205779D01*
X332685D01*
X332931Y206279D01*
X332488Y206857D01*
X332060Y207891D01*
X331914Y209000D01*
X332060Y210109D01*
X332488Y211143D01*
X332931Y211721D01*
X332685Y212221D01*
X318084D01*
X311860Y205996D01*
D02*
G37*
G36*
X237782Y217419D02*
X237286Y217087D01*
X236701Y216971D01*
X221992D01*
X221823Y216471D01*
X222020Y216319D01*
X222654Y215493D01*
X222846Y215029D01*
X239201D01*
X239786Y214913D01*
X240282Y214581D01*
X246705Y208159D01*
X247169Y208351D01*
X248201Y208487D01*
X249233Y208351D01*
X249697Y208159D01*
X252666Y211129D01*
X253163Y211460D01*
X253748Y211577D01*
X304831D01*
X305078Y212077D01*
X304748Y212507D01*
X304350Y213468D01*
X304214Y214500D01*
X304350Y215532D01*
X304542Y215996D01*
X302567Y217971D01*
X250992D01*
X250822Y217471D01*
X251020Y217319D01*
X251654Y216493D01*
X252052Y215532D01*
X252188Y214500D01*
X252052Y213468D01*
X251654Y212507D01*
X251020Y211681D01*
X250194Y211047D01*
X249233Y210649D01*
X248201Y210513D01*
X247169Y210649D01*
X246207Y211047D01*
X245382Y211681D01*
X244748Y212507D01*
X244350Y213468D01*
X244214Y214500D01*
X244350Y215532D01*
X244748Y216493D01*
X245382Y217319D01*
X245579Y217471D01*
X245409Y217971D01*
X238334D01*
X237782Y217419D01*
D02*
G37*
G36*
X382409Y171871D02*
X383166Y171557D01*
X383897Y170996D01*
X384458Y170265D01*
X384556Y170029D01*
X415005D01*
X415207Y170517D01*
X415848Y171353D01*
X416523Y171871D01*
X416353Y172371D01*
X382509D01*
X382409Y171871D01*
D02*
G37*
G36*
X450718Y185006D02*
X449745Y184603D01*
X448701Y184466D01*
X447657Y184603D01*
X447169Y184805D01*
X444782Y182419D01*
X444286Y182087D01*
X443701Y181971D01*
X421526D01*
X421366Y181497D01*
X421554Y181353D01*
X422195Y180517D01*
X422598Y179544D01*
X422735Y178500D01*
X422598Y177456D01*
X422195Y176483D01*
X421770Y175929D01*
X422017Y175429D01*
X443467D01*
X445006Y176968D01*
X444804Y177456D01*
X444666Y178500D01*
X444804Y179544D01*
X445207Y180517D01*
X445848Y181353D01*
X446684Y181994D01*
X447657Y182397D01*
X448701Y182535D01*
X449745Y182397D01*
X450718Y181994D01*
X451171Y181646D01*
X451671Y181893D01*
Y185107D01*
X451171Y185354D01*
X450718Y185006D01*
D02*
G37*
G36*
X311860Y245996D02*
X312052Y245532D01*
X312188Y244500D01*
X312052Y243468D01*
X311653Y242507D01*
X311020Y241681D01*
X310194Y241047D01*
X309233Y240649D01*
X308201Y240513D01*
X307169Y240649D01*
X306705Y240841D01*
X304782Y238919D01*
X304286Y238587D01*
X303701Y238471D01*
X250251D01*
X250151Y237971D01*
X250194Y237953D01*
X251020Y237319D01*
X251654Y236493D01*
X252052Y235532D01*
X252122Y235000D01*
X244280D01*
X244350Y235532D01*
X244748Y236493D01*
X245382Y237319D01*
X246207Y237953D01*
X246251Y237971D01*
X246151Y238471D01*
X239856D01*
X239758Y238235D01*
X239197Y237504D01*
X238466Y236943D01*
X237614Y236590D01*
X236701Y236470D01*
X235787Y236590D01*
X234936Y236943D01*
X234205Y237504D01*
X233644Y238235D01*
X233291Y239086D01*
X233171Y240000D01*
X233291Y240914D01*
X233644Y241765D01*
X234205Y242496D01*
X234681Y242862D01*
X234511Y243362D01*
X232834D01*
X226891Y237419D01*
X226395Y237087D01*
X225810Y236971D01*
X221992D01*
X221823Y236471D01*
X222020Y236319D01*
X222654Y235493D01*
X223052Y234532D01*
X223188Y233500D01*
X223052Y232468D01*
X222654Y231507D01*
X222020Y230681D01*
X221194Y230047D01*
X220233Y229649D01*
X219201Y229513D01*
X218169Y229649D01*
X217207Y230047D01*
X216382Y230681D01*
X215748Y231507D01*
X215350Y232468D01*
X215214Y233500D01*
X215350Y234532D01*
X215748Y235493D01*
X216382Y236319D01*
X216579Y236471D01*
X216409Y236971D01*
X161992D01*
X161822Y236471D01*
X162020Y236319D01*
X162654Y235493D01*
X163052Y234532D01*
X163188Y233500D01*
X163052Y232468D01*
X162654Y231507D01*
X162020Y230681D01*
X161194Y230047D01*
X160233Y229649D01*
X159201Y229513D01*
X158169Y229649D01*
X157207Y230047D01*
X156382Y230681D01*
X155748Y231507D01*
X155350Y232468D01*
X155214Y233500D01*
X155350Y234532D01*
X155748Y235493D01*
X156382Y236319D01*
X156579Y236471D01*
X156409Y236971D01*
X138834D01*
X117730Y215866D01*
Y215393D01*
X118230Y215146D01*
X118684Y215494D01*
X119657Y215897D01*
X120701Y216035D01*
X121745Y215897D01*
X122718Y215494D01*
X123554Y214853D01*
X124195Y214017D01*
X124598Y213044D01*
X124735Y212000D01*
X124598Y210956D01*
X124195Y209983D01*
X123554Y209147D01*
X122718Y208506D01*
X121745Y208103D01*
X120701Y207965D01*
X119657Y208103D01*
X118684Y208506D01*
X118230Y208854D01*
X117730Y208607D01*
Y205393D01*
X118230Y205146D01*
X118684Y205494D01*
X119657Y205897D01*
X120701Y206034D01*
X121745Y205897D01*
X122233Y205695D01*
X136119Y219581D01*
X136616Y219913D01*
X137201Y220029D01*
X156409D01*
X156579Y220529D01*
X156382Y220681D01*
X155748Y221507D01*
X155350Y222468D01*
X155214Y223500D01*
X155350Y224532D01*
X155748Y225493D01*
X156382Y226319D01*
X157207Y226953D01*
X158169Y227351D01*
X159201Y227487D01*
X160233Y227351D01*
X161194Y226953D01*
X162020Y226319D01*
X162654Y225493D01*
X163052Y224532D01*
X163188Y223500D01*
X163052Y222468D01*
X162654Y221507D01*
X162020Y220681D01*
X161822Y220529D01*
X161992Y220029D01*
X216409D01*
X216579Y220529D01*
X216382Y220681D01*
X215748Y221507D01*
X215350Y222468D01*
X215214Y223500D01*
X215350Y224532D01*
X215748Y225493D01*
X216382Y226319D01*
X217207Y226953D01*
X218169Y227351D01*
X219201Y227487D01*
X220233Y227351D01*
X221194Y226953D01*
X222020Y226319D01*
X222654Y225493D01*
X223052Y224532D01*
X223188Y223500D01*
X223052Y222468D01*
X222654Y221507D01*
X222020Y220681D01*
X221823Y220529D01*
X221992Y220029D01*
X236067D01*
X236619Y220581D01*
X237116Y220913D01*
X237701Y221029D01*
X245409D01*
X245579Y221529D01*
X245382Y221681D01*
X244748Y222507D01*
X244350Y223468D01*
X244280Y224000D01*
X252122D01*
X252052Y223468D01*
X251654Y222507D01*
X251020Y221681D01*
X250822Y221529D01*
X250992Y221029D01*
X303201D01*
X303786Y220913D01*
X304282Y220581D01*
X306705Y218159D01*
X307169Y218351D01*
X308201Y218487D01*
X309233Y218351D01*
X310194Y217953D01*
X311020Y217319D01*
X311653Y216493D01*
X312052Y215532D01*
X312162Y214695D01*
X312663Y214489D01*
X323005Y224831D01*
X323501Y225163D01*
X324087Y225279D01*
X333247D01*
X333417Y225779D01*
X333170Y225969D01*
X332488Y226857D01*
X332060Y227890D01*
X331914Y229000D01*
X332060Y230110D01*
X332488Y231143D01*
X333170Y232031D01*
X333386Y232197D01*
X333225Y232671D01*
X315701D01*
X315115Y232787D01*
X314841Y232971D01*
X311846D01*
X311653Y232507D01*
X311020Y231681D01*
X310194Y231047D01*
X309233Y230649D01*
X308201Y230513D01*
X307169Y230649D01*
X306207Y231047D01*
X305382Y231681D01*
X304748Y232507D01*
X304350Y233468D01*
X304214Y234500D01*
X304350Y235532D01*
X304748Y236493D01*
X305382Y237319D01*
X306207Y237953D01*
X307169Y238351D01*
X308201Y238487D01*
X309233Y238351D01*
X310194Y237953D01*
X311020Y237319D01*
X311653Y236493D01*
X311846Y236029D01*
X315401D01*
X315889Y235932D01*
X315986Y235913D01*
X316261Y235729D01*
X332723D01*
X332970Y236229D01*
X332488Y236857D01*
X332060Y237891D01*
X331914Y239000D01*
X332060Y240109D01*
X332488Y241143D01*
X333170Y242031D01*
X334057Y242712D01*
X335091Y243141D01*
X336201Y243287D01*
X337310Y243141D01*
X338344Y242712D01*
X339232Y242031D01*
X339913Y241143D01*
X340341Y240109D01*
X340487Y239000D01*
X340475Y238907D01*
X340924Y238686D01*
X343089Y240851D01*
X342991Y241086D01*
X342871Y242000D01*
X342991Y242914D01*
X343343Y243765D01*
X343905Y244496D01*
X344636Y245057D01*
X345487Y245410D01*
X346401Y245530D01*
X347315Y245410D01*
X348166Y245057D01*
X348897Y244496D01*
X349458Y243765D01*
X349811Y242914D01*
X349931Y242000D01*
X349811Y241086D01*
X349458Y240235D01*
X348897Y239504D01*
X348166Y238943D01*
X347315Y238590D01*
X346401Y238470D01*
X345487Y238590D01*
X345251Y238688D01*
X339682Y233119D01*
X339186Y232787D01*
X339092Y232768D01*
X338968Y232234D01*
X339232Y232031D01*
X339913Y231143D01*
X340341Y230110D01*
X340487Y229000D01*
X340341Y227890D01*
X339913Y226857D01*
X339232Y225969D01*
X338985Y225779D01*
X339155Y225279D01*
X340317D01*
X362315Y247277D01*
X362060Y247890D01*
X361914Y249000D01*
X362060Y250110D01*
X362488Y251143D01*
X363170Y252031D01*
X363386Y252197D01*
X363225Y252671D01*
X339176D01*
X339016Y252197D01*
X339232Y252031D01*
X339913Y251143D01*
X340341Y250110D01*
X340487Y249000D01*
X340341Y247890D01*
X339913Y246857D01*
X339232Y245969D01*
X338344Y245288D01*
X337310Y244859D01*
X336201Y244713D01*
X335091Y244859D01*
X334057Y245288D01*
X333170Y245969D01*
X332488Y246857D01*
X332060Y247890D01*
X331914Y249000D01*
X332060Y250110D01*
X332488Y251143D01*
X333170Y252031D01*
X333386Y252197D01*
X333225Y252671D01*
X318534D01*
X311860Y245996D01*
D02*
G37*
G36*
X148277Y263607D02*
Y256586D01*
X157705Y247159D01*
X158169Y247351D01*
X159201Y247487D01*
X160233Y247351D01*
X161194Y246953D01*
X162020Y246319D01*
X162654Y245493D01*
X163052Y244532D01*
X163188Y243500D01*
X163052Y242468D01*
X162654Y241507D01*
X162020Y240681D01*
X161822Y240529D01*
X161992Y240029D01*
X216409D01*
X216579Y240529D01*
X216382Y240681D01*
X215748Y241507D01*
X215350Y242468D01*
X215214Y243500D01*
X215350Y244532D01*
X215748Y245493D01*
X216382Y246319D01*
X216579Y246471D01*
X216409Y246971D01*
X200256D01*
X200158Y246735D01*
X199597Y246004D01*
X198866Y245443D01*
X198014Y245090D01*
X197101Y244970D01*
X196187Y245090D01*
X195336Y245443D01*
X194605Y246004D01*
X194044Y246735D01*
X193691Y247586D01*
X193571Y248500D01*
X193691Y249414D01*
X194044Y250265D01*
X194605Y250996D01*
X195336Y251557D01*
X196187Y251910D01*
X197101Y252030D01*
X198014Y251910D01*
X198866Y251557D01*
X199597Y250996D01*
X200158Y250265D01*
X200256Y250029D01*
X216409D01*
X216579Y250529D01*
X216382Y250681D01*
X215748Y251507D01*
X215350Y252468D01*
X215214Y253500D01*
X215350Y254532D01*
X215748Y255493D01*
X216382Y256319D01*
X217207Y256953D01*
X217250Y256971D01*
X217151Y257471D01*
X161250D01*
X161151Y256971D01*
X161194Y256953D01*
X162020Y256319D01*
X162654Y255493D01*
X163052Y254532D01*
X163188Y253500D01*
X163052Y252468D01*
X162654Y251507D01*
X162020Y250681D01*
X161194Y250047D01*
X160233Y249649D01*
X159201Y249513D01*
X158169Y249649D01*
X157207Y250047D01*
X156382Y250681D01*
X155748Y251507D01*
X155350Y252468D01*
X155214Y253500D01*
X155350Y254532D01*
X155748Y255493D01*
X156382Y256319D01*
X157207Y256953D01*
X157250Y256971D01*
X157151Y257471D01*
X155701D01*
X155115Y257587D01*
X154619Y257919D01*
X148739Y263799D01*
X148277Y263607D01*
D02*
G37*
G36*
X318241Y215741D02*
X318432Y215279D01*
X333247D01*
X333417Y215779D01*
X333170Y215969D01*
X332488Y216857D01*
X332060Y217891D01*
X331914Y219000D01*
X332060Y220110D01*
X332488Y221143D01*
X332931Y221721D01*
X332685Y222221D01*
X324720D01*
X318241Y215741D01*
D02*
G37*
G36*
X234329Y247419D02*
X233833Y247087D01*
X233248Y246971D01*
X221992D01*
X221823Y246471D01*
X222020Y246319D01*
X222654Y245493D01*
X223052Y244532D01*
X223188Y243500D01*
X223052Y242468D01*
X222654Y241507D01*
X222020Y240681D01*
X221823Y240529D01*
X221992Y240029D01*
X225176D01*
X231119Y245973D01*
X231615Y246304D01*
X232201Y246421D01*
X237959D01*
X244542Y253004D01*
X244350Y253468D01*
X244214Y254500D01*
X244350Y255532D01*
X244748Y256493D01*
X245078Y256923D01*
X244831Y257423D01*
X244334D01*
X234329Y247419D01*
D02*
G37*
G36*
X376302Y328039D02*
X376494Y327577D01*
X401386D01*
X401702Y328022D01*
X401701Y328077D01*
X400913Y328681D01*
X400280Y329507D01*
X399881Y330468D01*
X399745Y331500D01*
X399881Y332532D01*
X400280Y333493D01*
X400913Y334319D01*
X401371Y334671D01*
X401201Y335171D01*
X383434D01*
X376302Y328039D01*
D02*
G37*
G36*
X222287Y345971D02*
X222654Y345493D01*
X223052Y344532D01*
X223188Y343500D01*
X223052Y342468D01*
X222860Y342004D01*
X243287Y321577D01*
X244831D01*
X245078Y322077D01*
X244748Y322507D01*
X244350Y323468D01*
X244214Y324500D01*
X244350Y325532D01*
X244653Y326263D01*
X244270Y326645D01*
X243767Y326437D01*
X242854Y326317D01*
X241940Y326437D01*
X241089Y326790D01*
X240357Y327351D01*
X239796Y328082D01*
X239444Y328934D01*
X239323Y329847D01*
X239444Y330761D01*
X239796Y331612D01*
X240357Y332343D01*
X241089Y332904D01*
X241940Y333257D01*
X242854Y333377D01*
X243767Y333257D01*
X243992Y333164D01*
X244337Y333562D01*
X244214Y334500D01*
X244350Y335532D01*
X244748Y336493D01*
X245382Y337319D01*
X246207Y337953D01*
X246251Y337971D01*
X246151Y338471D01*
X231701D01*
X231116Y338587D01*
X230619Y338919D01*
X223067Y346471D01*
X222534D01*
X222287Y345971D01*
D02*
G37*
G36*
X310151Y327971D02*
X310194Y327953D01*
X311020Y327319D01*
X311653Y326493D01*
X312052Y325532D01*
X312188Y324500D01*
X312167Y324346D01*
X312616Y324125D01*
X315619Y327129D01*
X316115Y327460D01*
X316701Y327577D01*
X330355D01*
X330547Y328039D01*
X330115Y328471D01*
X310250D01*
X310151Y327971D01*
D02*
G37*
G36*
X310037Y338018D02*
X310194Y337953D01*
X311020Y337319D01*
X311653Y336493D01*
X312052Y335532D01*
X312188Y334500D01*
X312052Y333468D01*
X311653Y332507D01*
X311287Y332029D01*
X311534Y331529D01*
X330748D01*
X331333Y331413D01*
X331829Y331081D01*
X333334Y329577D01*
X333831D01*
X334078Y330077D01*
X333748Y330507D01*
X333350Y331468D01*
X333214Y332500D01*
X333350Y333532D01*
X333748Y334493D01*
X334382Y335319D01*
X335207Y335953D01*
X335365Y336018D01*
X335265Y336518D01*
X334748D01*
X334163Y336634D01*
X333666Y336966D01*
X332115Y338518D01*
X310137D01*
X310037Y338018D01*
D02*
G37*
G36*
X340782Y346966D02*
X340286Y346634D01*
X339701Y346518D01*
X339137D01*
X339037Y346018D01*
X339194Y345953D01*
X340020Y345319D01*
X340653Y344493D01*
X341052Y343532D01*
X341188Y342500D01*
X341052Y341468D01*
X340653Y340507D01*
X340324Y340077D01*
X340570Y339577D01*
X343020D01*
X352572Y349129D01*
X353068Y349460D01*
X353654Y349577D01*
X363831D01*
X364078Y350077D01*
X363748Y350507D01*
X363350Y351468D01*
X363214Y352500D01*
X363350Y353532D01*
X363748Y354493D01*
X364382Y355319D01*
X365207Y355953D01*
X365365Y356018D01*
X365265Y356518D01*
X350334D01*
X340782Y346966D01*
D02*
G37*
G36*
X216230Y340167D02*
Y338633D01*
X217705Y337159D01*
X218169Y337351D01*
X219201Y337487D01*
X220233Y337351D01*
X221194Y336953D01*
X222020Y336319D01*
X222654Y335493D01*
X223052Y334532D01*
X223188Y333500D01*
X223052Y332468D01*
X222654Y331507D01*
X222020Y330681D01*
X221194Y330047D01*
X221151Y330029D01*
X221251Y329529D01*
X223701D01*
X224286Y329413D01*
X224782Y329081D01*
X242287Y311577D01*
X244831D01*
X245078Y312077D01*
X244748Y312507D01*
X244350Y313468D01*
X244214Y314500D01*
X244350Y315532D01*
X244748Y316493D01*
X245382Y317319D01*
X246207Y317953D01*
X246364Y318018D01*
X246265Y318518D01*
X242654D01*
X242068Y318634D01*
X241572Y318966D01*
X220697Y339841D01*
X220233Y339649D01*
X219201Y339513D01*
X218169Y339649D01*
X217207Y340047D01*
X216730Y340413D01*
X216230Y340167D01*
D02*
G37*
G36*
X266055Y335691D02*
X266246Y335229D01*
X302101D01*
X302686Y335113D01*
X303182Y334781D01*
X303778Y334186D01*
X304226Y334407D01*
X304214Y334500D01*
X304350Y335532D01*
X304748Y336493D01*
X305382Y337319D01*
X306207Y337953D01*
X306364Y338018D01*
X306265Y338518D01*
X268881D01*
X266055Y335691D01*
D02*
G37*
G36*
X221823Y316471D02*
X222020Y316319D01*
X222654Y315493D01*
X223052Y314532D01*
X223188Y313500D01*
X223052Y312468D01*
X222654Y311507D01*
X222287Y311029D01*
X222534Y310529D01*
X234701D01*
X234855Y310754D01*
X234924Y311014D01*
X228967Y316971D01*
X221992D01*
X221823Y316471D01*
D02*
G37*
G36*
X368645Y309642D02*
X368617Y309471D01*
X369158Y308765D01*
X369256Y308529D01*
X400399D01*
X400646Y309029D01*
X400280Y309507D01*
X400087Y309971D01*
X368757D01*
X368645Y309642D01*
D02*
G37*
G36*
X439993Y303529D02*
X440200Y303029D01*
X460087D01*
X460280Y303493D01*
X460913Y304319D01*
X461739Y304953D01*
X462700Y305351D01*
X463732Y305487D01*
X467669D01*
X468701Y305351D01*
X469663Y304953D01*
X470171Y304562D01*
X470671Y304809D01*
Y308191D01*
X470171Y308438D01*
X469663Y308047D01*
X468701Y307649D01*
X467669Y307513D01*
X463732D01*
X462700Y307649D01*
X461739Y308047D01*
X460913Y308681D01*
X460280Y309507D01*
X459881Y310468D01*
X459745Y311500D01*
X459881Y312532D01*
X460280Y313493D01*
X460646Y313971D01*
X460399Y314471D01*
X450934D01*
X439993Y303529D01*
D02*
G37*
G36*
X310876Y318060D02*
X310836Y317460D01*
X311020Y317319D01*
X311653Y316493D01*
X312052Y315532D01*
X312188Y314500D01*
X312052Y313468D01*
X311653Y312507D01*
X311324Y312077D01*
X311570Y311577D01*
X314020D01*
X320572Y318129D01*
X321068Y318460D01*
X321654Y318577D01*
X400363D01*
X400609Y319077D01*
X400280Y319507D01*
X399881Y320468D01*
X399745Y321500D01*
X399881Y322532D01*
X400280Y323493D01*
X400682Y324018D01*
X400435Y324518D01*
X317334D01*
X310876Y318060D01*
D02*
G37*
G36*
X251929Y328766D02*
X251433Y328434D01*
X251336Y328415D01*
X250848Y328318D01*
X250540D01*
X250370Y327818D01*
X251020Y327319D01*
X251654Y326493D01*
X252052Y325532D01*
X252188Y324500D01*
X252052Y323468D01*
X251654Y322507D01*
X251324Y322077D01*
X251543Y321632D01*
X252032Y321589D01*
X260152Y329709D01*
X259961Y330171D01*
X253334D01*
X251929Y328766D01*
D02*
G37*
G36*
X275616Y320847D02*
X275643Y320783D01*
X275910Y320434D01*
X276390Y320529D01*
X292293D01*
X292392Y321029D01*
X291636Y321343D01*
X290905Y321904D01*
X290343Y322635D01*
X290246Y322871D01*
X277640D01*
X275616Y320847D01*
D02*
G37*
G36*
X253735Y318966D02*
X253239Y318634D01*
X252654Y318518D01*
X250136D01*
X250037Y318018D01*
X250194Y317953D01*
X251020Y317319D01*
X251654Y316493D01*
X252052Y315532D01*
X252188Y314500D01*
X252052Y313468D01*
X251654Y312507D01*
X251324Y312077D01*
X251570Y311577D01*
X254020D01*
X269952Y327509D01*
X269761Y327971D01*
X262740D01*
X253735Y318966D01*
D02*
G37*
G36*
X251860Y345996D02*
X252052Y345532D01*
X252188Y344500D01*
X252052Y343468D01*
X251654Y342507D01*
X251287Y342029D01*
X251534Y341529D01*
X261567D01*
X265089Y345051D01*
X264991Y345286D01*
X264871Y346200D01*
X264991Y347114D01*
X265343Y347965D01*
X265905Y348696D01*
X266636Y349257D01*
X267487Y349610D01*
X268401Y349730D01*
X269315Y349610D01*
X270166Y349257D01*
X270897Y348696D01*
X271458Y347965D01*
X271811Y347114D01*
X271931Y346200D01*
X271811Y345286D01*
X271458Y344435D01*
X270897Y343704D01*
X270166Y343143D01*
X269315Y342790D01*
X268401Y342670D01*
X267487Y342790D01*
X267251Y342888D01*
X263282Y338919D01*
X262786Y338587D01*
X262689Y338568D01*
X262201Y338471D01*
X250251D01*
X250151Y337971D01*
X250194Y337953D01*
X251020Y337319D01*
X251654Y336493D01*
X251846Y336029D01*
X262067D01*
X267166Y341129D01*
X267663Y341460D01*
X268248Y341577D01*
X304831D01*
X305078Y342077D01*
X304748Y342507D01*
X304350Y343468D01*
X304214Y344500D01*
X304350Y345532D01*
X304748Y346493D01*
X305382Y347319D01*
X306207Y347953D01*
X306364Y348018D01*
X306265Y348518D01*
X306118D01*
X305533Y348634D01*
X305036Y348966D01*
X303115Y350888D01*
X256751D01*
X251860Y345996D01*
D02*
G37*
G36*
X340829Y376966D02*
X340333Y376634D01*
X339748Y376518D01*
X339137D01*
X339037Y376018D01*
X339194Y375953D01*
X340020Y375319D01*
X340653Y374493D01*
X341052Y373532D01*
X341188Y372500D01*
X341052Y371468D01*
X340653Y370507D01*
X340324Y370077D01*
X340543Y369632D01*
X341032Y369589D01*
X350525Y379081D01*
X351021Y379413D01*
X351606Y379529D01*
X363868D01*
X364114Y380029D01*
X363748Y380507D01*
X363350Y381468D01*
X363214Y382500D01*
X363350Y383532D01*
X363748Y384493D01*
X364382Y385319D01*
X364579Y385471D01*
X364409Y385971D01*
X349834D01*
X340829Y376966D01*
D02*
G37*
G36*
X371356Y376919D02*
X370860Y376587D01*
X370274Y376471D01*
X369250D01*
X369151Y375971D01*
X369194Y375953D01*
X370020Y375319D01*
X370654Y374493D01*
X371052Y373532D01*
X371188Y372500D01*
X371052Y371468D01*
X370654Y370507D01*
X370287Y370029D01*
X370534Y369529D01*
X375141D01*
X383740Y378128D01*
X384236Y378460D01*
X384821Y378576D01*
X400363D01*
X400610Y379076D01*
X400280Y379507D01*
X400087Y379971D01*
X374408D01*
X371356Y376919D01*
D02*
G37*
G36*
X379014Y369077D02*
X379221Y368577D01*
X400363D01*
X400609Y369077D01*
X400280Y369507D01*
X399881Y370468D01*
X399745Y371500D01*
X399881Y372532D01*
X400280Y373493D01*
X400913Y374319D01*
X401739Y374953D01*
X401896Y375018D01*
X401796Y375518D01*
X385455D01*
X379014Y369077D01*
D02*
G37*
G36*
X251860Y375996D02*
X252052Y375532D01*
X252188Y374500D01*
X252052Y373468D01*
X251654Y372507D01*
X251020Y371681D01*
X250194Y371047D01*
X250037Y370982D01*
X250136Y370482D01*
X306265D01*
X306364Y370982D01*
X306207Y371047D01*
X305382Y371681D01*
X304748Y372507D01*
X304350Y373468D01*
X304214Y374500D01*
X304350Y375532D01*
X304748Y376493D01*
X305114Y376971D01*
X304868Y377471D01*
X253334D01*
X251860Y375996D01*
D02*
G37*
G36*
X260980Y439204D02*
Y437052D01*
X292332Y405700D01*
X292806Y405933D01*
X292771Y406200D01*
X292891Y407114D01*
X293244Y407965D01*
X293805Y408696D01*
X294536Y409257D01*
X295387Y409610D01*
X296301Y409730D01*
X297215Y409610D01*
X298066Y409257D01*
X298797Y408696D01*
X299358Y407965D01*
X299456Y407729D01*
X316401D01*
X316986Y407613D01*
X317482Y407281D01*
X321734Y403029D01*
X400087D01*
X400280Y403493D01*
X400876Y404271D01*
X400789Y404683D01*
X400760Y404771D01*
X360201D01*
X359615Y404887D01*
X359119Y405219D01*
X326617Y437721D01*
X263751D01*
X263165Y437837D01*
X262669Y438169D01*
X261442Y439396D01*
X260980Y439204D01*
D02*
G37*
G36*
X312154Y383829D02*
X316046D01*
X316143Y384065D01*
X316705Y384796D01*
X317436Y385357D01*
X318287Y385710D01*
X319201Y385830D01*
X320114Y385710D01*
X320966Y385357D01*
X321697Y384796D01*
X322258Y384065D01*
X322611Y383214D01*
X322731Y382300D01*
X322611Y381386D01*
X322258Y380535D01*
X321981Y380173D01*
X322227Y379673D01*
X324604D01*
X325189Y379557D01*
X325686Y379225D01*
X332786Y372125D01*
X333234Y372346D01*
X333214Y372500D01*
X333350Y373532D01*
X333748Y374493D01*
X334382Y375319D01*
X335207Y375953D01*
X335365Y376018D01*
X335265Y376518D01*
X334754D01*
X334168Y376634D01*
X333672Y376966D01*
X323167Y387471D01*
X312154D01*
Y383829D01*
D02*
G37*
G36*
X311287Y376971D02*
X311653Y376493D01*
X311846Y376029D01*
X320201D01*
X320786Y375913D01*
X320981Y375783D01*
X321287Y375910D01*
X322201Y376030D01*
X323114Y375910D01*
X323966Y375557D01*
X324697Y374996D01*
X325258Y374265D01*
X325611Y373414D01*
X325731Y372500D01*
X325611Y371586D01*
X325258Y370735D01*
X324697Y370004D01*
X323966Y369443D01*
X323114Y369090D01*
X322201Y368970D01*
X321287Y369090D01*
X320436Y369443D01*
X319705Y370004D01*
X319144Y370735D01*
X318791Y371586D01*
X318671Y372500D01*
X318683Y372595D01*
X318353Y372971D01*
X311846D01*
X311653Y372507D01*
X311020Y371681D01*
X310194Y371047D01*
X310037Y370982D01*
X310137Y370482D01*
X315748D01*
X316333Y370366D01*
X316829Y370034D01*
X322834Y364029D01*
X333556D01*
X333748Y364493D01*
X334382Y365319D01*
X335207Y365953D01*
X335365Y366018D01*
X335265Y366518D01*
X334701D01*
X334116Y366634D01*
X333619Y366966D01*
X323971Y376614D01*
X315201D01*
X314616Y376731D01*
X314119Y377062D01*
X313711Y377471D01*
X311534D01*
X311287Y376971D01*
D02*
G37*
G36*
X370782Y356966D02*
X370286Y356634D01*
X369701Y356518D01*
X369137D01*
X369037Y356018D01*
X369194Y355953D01*
X370020Y355319D01*
X370654Y354493D01*
X371052Y353532D01*
X371188Y352500D01*
X371052Y351468D01*
X370654Y350507D01*
X370324Y350077D01*
X370570Y349577D01*
X373020D01*
X381572Y358129D01*
X382068Y358460D01*
X382654Y358577D01*
X400363D01*
X400609Y359077D01*
X400280Y359507D01*
X399881Y360468D01*
X399745Y361500D01*
X399881Y362532D01*
X400280Y363493D01*
X400913Y364319D01*
X401739Y364953D01*
X401896Y365018D01*
X401796Y365518D01*
X379334D01*
X370782Y356966D01*
D02*
G37*
G36*
X374735Y346966D02*
X374239Y346634D01*
X373654Y346518D01*
X369137D01*
X369037Y346018D01*
X369194Y345953D01*
X370020Y345319D01*
X370654Y344493D01*
X371052Y343532D01*
X371188Y342500D01*
X371052Y341468D01*
X370654Y340507D01*
X370020Y339681D01*
X369194Y339047D01*
X368233Y338649D01*
X367201Y338513D01*
X366169Y338649D01*
X365207Y339047D01*
X364382Y339681D01*
X363748Y340507D01*
X363350Y341468D01*
X363214Y342500D01*
X363350Y343532D01*
X363748Y344493D01*
X364382Y345319D01*
X365207Y345953D01*
X365365Y346018D01*
X365265Y346518D01*
X354287D01*
X344735Y336966D01*
X344239Y336634D01*
X343654Y336518D01*
X339137D01*
X339037Y336018D01*
X339194Y335953D01*
X340020Y335319D01*
X340653Y334493D01*
X341052Y333532D01*
X341188Y332500D01*
X341052Y331468D01*
X340653Y330507D01*
X340324Y330077D01*
X340570Y329577D01*
X363831D01*
X364078Y330077D01*
X363748Y330507D01*
X363350Y331468D01*
X363214Y332500D01*
X363350Y333532D01*
X363748Y334493D01*
X364382Y335319D01*
X365207Y335953D01*
X366169Y336351D01*
X367201Y336487D01*
X368233Y336351D01*
X369194Y335953D01*
X370020Y335319D01*
X370654Y334493D01*
X371052Y333532D01*
X371188Y332500D01*
X371052Y331468D01*
X370654Y330507D01*
X370324Y330077D01*
X370570Y329577D01*
X373515D01*
X381719Y337781D01*
X382215Y338113D01*
X382801Y338229D01*
X400760D01*
X400789Y338317D01*
X400876Y338729D01*
X400280Y339507D01*
X399881Y340468D01*
X399745Y341500D01*
X399881Y342532D01*
X400280Y343493D01*
X400913Y344319D01*
X401739Y344953D01*
X402700Y345351D01*
X403732Y345487D01*
X407669D01*
X408701Y345351D01*
X409663Y344953D01*
X410488Y344319D01*
X411122Y343493D01*
X411520Y342532D01*
X411656Y341500D01*
X411520Y340468D01*
X411122Y339507D01*
X410526Y338729D01*
X410612Y338317D01*
X410642Y338229D01*
X417067D01*
X429319Y350481D01*
X429815Y350813D01*
X430234Y350896D01*
X434394Y355056D01*
X434202Y355518D01*
X409605D01*
X409506Y355018D01*
X409663Y354953D01*
X410488Y354319D01*
X411122Y353493D01*
X411520Y352532D01*
X411656Y351500D01*
X411520Y350468D01*
X411122Y349507D01*
X410488Y348681D01*
X409663Y348047D01*
X408701Y347649D01*
X407669Y347513D01*
X403732D01*
X402700Y347649D01*
X401739Y348047D01*
X400913Y348681D01*
X400280Y349507D01*
X399881Y350468D01*
X399745Y351500D01*
X399881Y352532D01*
X400280Y353493D01*
X400913Y354319D01*
X401739Y354953D01*
X401896Y355018D01*
X401796Y355518D01*
X383287D01*
X374735Y346966D01*
D02*
G37*
G36*
X310037Y348018D02*
X310194Y347953D01*
X311020Y347319D01*
X311653Y346493D01*
X312052Y345532D01*
X312188Y344500D01*
X312052Y343468D01*
X311653Y342507D01*
X311324Y342077D01*
X311570Y341577D01*
X332748D01*
X332833Y341560D01*
X333282Y341980D01*
X333214Y342500D01*
X333350Y343532D01*
X333748Y344493D01*
X334382Y345319D01*
X335207Y345953D01*
X335365Y346018D01*
X335265Y346518D01*
X334748D01*
X334163Y346634D01*
X333666Y346966D01*
X332115Y348518D01*
X310137D01*
X310037Y348018D01*
D02*
G37*
G36*
Y358018D02*
X310194Y357953D01*
X311020Y357319D01*
X311653Y356493D01*
X312052Y355532D01*
X312188Y354500D01*
X312052Y353468D01*
X311653Y352507D01*
X311324Y352077D01*
X311570Y351577D01*
X332748D01*
X332833Y351560D01*
X333282Y351980D01*
X333214Y352500D01*
X333350Y353532D01*
X333748Y354493D01*
X334382Y355319D01*
X335207Y355953D01*
X335365Y356018D01*
X335265Y356518D01*
X332801D01*
X332215Y356634D01*
X331719Y356966D01*
X330167Y358518D01*
X310137D01*
X310037Y358018D01*
D02*
G37*
G36*
X342735Y366966D02*
X342239Y366634D01*
X342142Y366615D01*
X341654Y366518D01*
X339137D01*
X339037Y366018D01*
X339194Y365953D01*
X340020Y365319D01*
X340653Y364493D01*
X341052Y363532D01*
X341188Y362500D01*
X341120Y361990D01*
X341594Y361756D01*
X348919Y369081D01*
X349415Y369413D01*
X350001Y369529D01*
X363868D01*
X364114Y370029D01*
X363748Y370507D01*
X363350Y371468D01*
X363214Y372500D01*
X363350Y373532D01*
X363748Y374493D01*
X364382Y375319D01*
X365207Y375953D01*
X365250Y375971D01*
X365151Y376471D01*
X352240D01*
X342735Y366966D01*
D02*
G37*
G36*
X311324Y366923D02*
X311653Y366493D01*
X312052Y365532D01*
X312188Y364500D01*
X312052Y363468D01*
X311653Y362507D01*
X311324Y362077D01*
X311570Y361577D01*
X320308D01*
X320499Y362038D01*
X315114Y367423D01*
X311570D01*
X311324Y366923D01*
D02*
G37*
G36*
X341129Y356966D02*
X340633Y356634D01*
X340536Y356615D01*
X340048Y356518D01*
X339137D01*
X339037Y356018D01*
X339194Y355953D01*
X340020Y355319D01*
X340653Y354493D01*
X341052Y353532D01*
X341188Y352500D01*
X341167Y352346D01*
X341616Y352125D01*
X348619Y359129D01*
X349115Y359460D01*
X349701Y359577D01*
X363831D01*
X364078Y360077D01*
X363748Y360507D01*
X363350Y361468D01*
X363214Y362500D01*
X363350Y363532D01*
X363748Y364493D01*
X364382Y365319D01*
X365207Y365953D01*
X365250Y365971D01*
X365151Y366471D01*
X350634D01*
X341129Y356966D01*
D02*
G37*
G36*
X351054Y303490D02*
X351144Y303201D01*
X351274Y303024D01*
X351301Y303029D01*
X365615D01*
X365648Y303529D01*
X365187Y303590D01*
X364336Y303943D01*
X363605Y304504D01*
X363043Y305235D01*
X362691Y306086D01*
X362571Y307000D01*
X362691Y307914D01*
X363043Y308765D01*
X363585Y309471D01*
X363557Y309642D01*
X363445Y309971D01*
X357534D01*
X351054Y303490D01*
D02*
G37*
G36*
X255735Y308966D02*
X255239Y308634D01*
X254654Y308518D01*
X250136D01*
X250037Y308018D01*
X250194Y307953D01*
X251020Y307319D01*
X251654Y306493D01*
X252052Y305532D01*
X252188Y304500D01*
X252052Y303468D01*
X251654Y302507D01*
X251324Y302077D01*
X251543Y301632D01*
X252032Y301589D01*
X275514Y325071D01*
X275307Y325571D01*
X272340D01*
X255735Y308966D01*
D02*
G37*
G36*
X369158Y305235D02*
X368597Y304504D01*
X367866Y303943D01*
X367015Y303590D01*
X366553Y303529D01*
X366586Y303029D01*
X400087D01*
X400280Y303493D01*
X400913Y304319D01*
X401739Y304953D01*
X401782Y304971D01*
X401683Y305471D01*
X369256D01*
X369158Y305235D01*
D02*
G37*
G36*
X421782Y305919D02*
X421286Y305587D01*
X420701Y305471D01*
X409719D01*
X409620Y304971D01*
X409663Y304953D01*
X410488Y304319D01*
X411122Y303493D01*
X411314Y303029D01*
X424146D01*
X424243Y303265D01*
X424805Y303996D01*
X425536Y304557D01*
X426387Y304910D01*
X427301Y305030D01*
X428215Y304910D01*
X429066Y304557D01*
X429797Y303996D01*
X430358Y303265D01*
X430711Y302414D01*
X430831Y301500D01*
X430711Y300586D01*
X430358Y299735D01*
X429797Y299004D01*
X429066Y298443D01*
X428215Y298090D01*
X427301Y297970D01*
X426387Y298090D01*
X425536Y298443D01*
X424805Y299004D01*
X424243Y299735D01*
X424146Y299971D01*
X411314D01*
X411122Y299507D01*
X410488Y298681D01*
X409663Y298047D01*
X408701Y297649D01*
X407669Y297513D01*
X403732D01*
X402700Y297649D01*
X401739Y298047D01*
X400913Y298681D01*
X400280Y299507D01*
X400087Y299971D01*
X351934D01*
X349313Y297349D01*
X349411Y297114D01*
X349531Y296200D01*
X349411Y295286D01*
X349058Y294435D01*
X348866Y294185D01*
X349113Y293685D01*
X393499D01*
X393828Y294061D01*
X393771Y294500D01*
X393891Y295414D01*
X394244Y296265D01*
X394805Y296996D01*
X395536Y297557D01*
X396387Y297910D01*
X397301Y298030D01*
X398215Y297910D01*
X399066Y297557D01*
X399797Y296996D01*
X400358Y296265D01*
X400711Y295414D01*
X400785Y294851D01*
X401318Y294630D01*
X401739Y294953D01*
X402700Y295351D01*
X403732Y295487D01*
X407669D01*
X408701Y295351D01*
X409663Y294953D01*
X410488Y294319D01*
X411122Y293493D01*
X411314Y293029D01*
X425167D01*
X449219Y317081D01*
X449716Y317413D01*
X450301Y317529D01*
X461683D01*
X461782Y318029D01*
X461739Y318047D01*
X460913Y318681D01*
X460280Y319507D01*
X460087Y319971D01*
X435834D01*
X421782Y305919D01*
D02*
G37*
G36*
X161822Y316471D02*
X162020Y316319D01*
X162654Y315493D01*
X163052Y314532D01*
X163188Y313500D01*
X163052Y312468D01*
X162654Y311507D01*
X162020Y310681D01*
X161194Y310047D01*
X160233Y309649D01*
X159201Y309513D01*
X158169Y309649D01*
X157207Y310047D01*
X156382Y310681D01*
X155748Y311507D01*
X155350Y312468D01*
X155255Y313185D01*
X154727Y313364D01*
X148277Y306914D01*
Y292393D01*
X148739Y292201D01*
X156119Y299581D01*
X156586Y299893D01*
X156617Y299924D01*
X156697Y300439D01*
X156382Y300681D01*
X155748Y301507D01*
X155350Y302468D01*
X155214Y303500D01*
X155350Y304532D01*
X155748Y305493D01*
X156382Y306319D01*
X157207Y306953D01*
X158169Y307351D01*
X159201Y307487D01*
X160233Y307351D01*
X161194Y306953D01*
X162020Y306319D01*
X162654Y305493D01*
X163052Y304532D01*
X163188Y303500D01*
X163052Y302468D01*
X162654Y301507D01*
X162377Y301146D01*
X162754Y300816D01*
X176519Y314581D01*
X177015Y314913D01*
X177601Y315029D01*
X215556D01*
X215748Y315493D01*
X216382Y316319D01*
X216579Y316471D01*
X216409Y316971D01*
X161992D01*
X161822Y316471D01*
D02*
G37*
G36*
X252971Y293419D02*
X252475Y293087D01*
X251890Y292971D01*
X251846D01*
X251654Y292507D01*
X251020Y291681D01*
X250194Y291047D01*
X249233Y290649D01*
X248201Y290513D01*
X247169Y290649D01*
X246207Y291047D01*
X245382Y291681D01*
X244748Y292507D01*
X244556Y292971D01*
X236701D01*
X236116Y293087D01*
X235619Y293419D01*
X232067Y296971D01*
X221992D01*
X221823Y296471D01*
X222020Y296319D01*
X222654Y295493D01*
X223052Y294532D01*
X223188Y293500D01*
X223052Y292468D01*
X222654Y291507D01*
X222020Y290681D01*
X221194Y290047D01*
X221151Y290029D01*
X221251Y289529D01*
X244701D01*
X245286Y289413D01*
X245782Y289081D01*
X246705Y288159D01*
X247169Y288351D01*
X248201Y288487D01*
X249233Y288351D01*
X249697Y288159D01*
X272667Y311129D01*
X273163Y311460D01*
X273748Y311577D01*
X304831D01*
X305078Y312077D01*
X304748Y312507D01*
X304350Y313468D01*
X304214Y314500D01*
X304350Y315532D01*
X304748Y316493D01*
X305114Y316971D01*
X304868Y317471D01*
X277023D01*
X252971Y293419D01*
D02*
G37*
G36*
X251860Y285996D02*
X252052Y285532D01*
X252188Y284500D01*
X252052Y283468D01*
X251654Y282507D01*
X251020Y281681D01*
X250194Y281047D01*
X250037Y280982D01*
X250136Y280482D01*
X303748D01*
X304333Y280366D01*
X304829Y280034D01*
X306705Y278159D01*
X307169Y278351D01*
X308201Y278487D01*
X309233Y278351D01*
X310194Y277953D01*
X311020Y277319D01*
X311653Y276493D01*
X311846Y276029D01*
X328715D01*
X328748Y276529D01*
X328287Y276590D01*
X327436Y276943D01*
X326705Y277504D01*
X326144Y278235D01*
X325791Y279086D01*
X325671Y280000D01*
X325714Y280328D01*
X325317Y280633D01*
X325245Y280603D01*
X324701Y280531D01*
Y284000D01*
X328169D01*
X328153Y283872D01*
X328156Y283862D01*
X328602Y283451D01*
X329201Y283530D01*
X329800Y283451D01*
X330246Y283862D01*
X330249Y283872D01*
X330166Y284500D01*
X330304Y285544D01*
X330707Y286517D01*
X331348Y287353D01*
X332184Y287994D01*
X333157Y288397D01*
X334201Y288534D01*
X335245Y288397D01*
X336218Y287994D01*
X337054Y287353D01*
X337695Y286517D01*
X338098Y285544D01*
X338235Y284500D01*
X338098Y283456D01*
X337695Y282483D01*
X337347Y282029D01*
X337594Y281529D01*
X349308D01*
X349555Y282029D01*
X349207Y282483D01*
X348804Y283456D01*
X348732Y284000D01*
X356669D01*
X356598Y283456D01*
X356195Y282483D01*
X355847Y282029D01*
X356094Y281529D01*
X359308D01*
X359555Y282029D01*
X359207Y282483D01*
X358804Y283456D01*
X358666Y284500D01*
X358804Y285544D01*
X359207Y286517D01*
X359848Y287353D01*
X360683Y287994D01*
X361657Y288397D01*
X362701Y288534D01*
X363745Y288397D01*
X364718Y287994D01*
X365554Y287353D01*
X366195Y286517D01*
X366598Y285544D01*
X366735Y284500D01*
X366598Y283456D01*
X366195Y282483D01*
X365847Y282029D01*
X366093Y281529D01*
X397567D01*
X403172Y287135D01*
X403012Y287608D01*
X402700Y287649D01*
X401739Y288047D01*
X400913Y288681D01*
X400280Y289507D01*
X399881Y290468D01*
X399765Y291349D01*
X399408Y291559D01*
X399252Y291586D01*
X399066Y291443D01*
X398215Y291090D01*
X397301Y290970D01*
X396387Y291090D01*
X396151Y291188D01*
X396038Y291074D01*
X395542Y290743D01*
X394957Y290626D01*
X310545D01*
X309960Y290743D01*
X309768Y290871D01*
X309233Y290649D01*
X308201Y290513D01*
X307169Y290649D01*
X306207Y291047D01*
X305382Y291681D01*
X304748Y292507D01*
X304350Y293468D01*
X304214Y294500D01*
X304350Y295532D01*
X304748Y296493D01*
X305382Y297319D01*
X306207Y297953D01*
X307169Y298351D01*
X308201Y298487D01*
X309233Y298351D01*
X310194Y297953D01*
X311020Y297319D01*
X311653Y296493D01*
X312052Y295532D01*
X312188Y294500D01*
X312130Y294061D01*
X312459Y293685D01*
X342889D01*
X343135Y294185D01*
X342944Y294435D01*
X342591Y295286D01*
X342471Y296200D01*
X342591Y297114D01*
X342944Y297965D01*
X343505Y298696D01*
X344236Y299257D01*
X345087Y299610D01*
X346001Y299730D01*
X346915Y299610D01*
X347150Y299512D01*
X350148Y302510D01*
X350058Y302799D01*
X349927Y302976D01*
X349901Y302971D01*
X311846D01*
X311653Y302507D01*
X311020Y301681D01*
X310194Y301047D01*
X309233Y300649D01*
X308201Y300513D01*
X307169Y300649D01*
X306207Y301047D01*
X305382Y301681D01*
X304748Y302507D01*
X304350Y303468D01*
X304214Y304500D01*
X304350Y305532D01*
X304748Y306493D01*
X305382Y307319D01*
X306207Y307953D01*
X306364Y308018D01*
X306265Y308518D01*
X274381D01*
X251860Y285996D01*
D02*
G37*
G36*
X221151Y306971D02*
X221194Y306953D01*
X222020Y306319D01*
X222654Y305493D01*
X223052Y304532D01*
X223188Y303500D01*
X223052Y302468D01*
X222654Y301507D01*
X222020Y300681D01*
X221823Y300529D01*
X221992Y300029D01*
X232701D01*
X233189Y299932D01*
X233286Y299913D01*
X233782Y299581D01*
X237334Y296029D01*
X244556D01*
X244748Y296493D01*
X245382Y297319D01*
X246207Y297953D01*
X246364Y298018D01*
X246265Y298518D01*
X243748D01*
X243163Y298634D01*
X242667Y298966D01*
X234162Y307471D01*
X221251D01*
X221151Y306971D01*
D02*
G37*
G36*
X315735Y308966D02*
X315239Y308634D01*
X315142Y308615D01*
X314654Y308518D01*
X310137D01*
X310037Y308018D01*
X310194Y307953D01*
X311020Y307319D01*
X311653Y306493D01*
X311846Y306029D01*
X349267D01*
X355819Y312581D01*
X356315Y312913D01*
X356901Y313029D01*
X400087D01*
X400280Y313493D01*
X400913Y314319D01*
X401739Y314953D01*
X401896Y315018D01*
X401796Y315518D01*
X322287D01*
X315735Y308966D01*
D02*
G37*
%LPC*%
G36*
X324701Y288469D02*
X325245Y288397D01*
X326218Y287994D01*
X327054Y287353D01*
X327695Y286517D01*
X328098Y285544D01*
X328169Y285000D01*
X324701D01*
Y288469D01*
D02*
G37*
G36*
X323701D02*
Y285000D01*
X320232D01*
X320304Y285544D01*
X320707Y286517D01*
X321348Y287353D01*
X322183Y287994D01*
X323157Y288397D01*
X323701Y288469D01*
D02*
G37*
G36*
X353201D02*
X353745Y288397D01*
X354718Y287994D01*
X355554Y287353D01*
X356195Y286517D01*
X356598Y285544D01*
X356669Y285000D01*
X353201D01*
Y288469D01*
D02*
G37*
G36*
X352201D02*
Y285000D01*
X348732D01*
X348804Y285544D01*
X349207Y286517D01*
X349848Y287353D01*
X350683Y287994D01*
X351657Y288397D01*
X352201Y288469D01*
D02*
G37*
G36*
X219701Y273000D02*
X223122D01*
X223052Y272468D01*
X222654Y271507D01*
X222020Y270681D01*
X221194Y270047D01*
X220233Y269649D01*
X219701Y269579D01*
Y273000D01*
D02*
G37*
G36*
X307701Y288421D02*
Y285000D01*
X304280D01*
X304350Y285532D01*
X304748Y286493D01*
X305382Y287319D01*
X306207Y287953D01*
X307169Y288351D01*
X307701Y288421D01*
D02*
G37*
G36*
X308701D02*
X309233Y288351D01*
X310194Y287953D01*
X311020Y287319D01*
X311653Y286493D01*
X312052Y285532D01*
X312122Y285000D01*
X308701D01*
Y288421D01*
D02*
G37*
G36*
X215280Y273000D02*
X218701D01*
Y269579D01*
X218169Y269649D01*
X217207Y270047D01*
X216382Y270681D01*
X215748Y271507D01*
X215350Y272468D01*
X215280Y273000D01*
D02*
G37*
G36*
X308701Y284000D02*
X312122D01*
X312052Y283468D01*
X311653Y282507D01*
X311020Y281681D01*
X310194Y281047D01*
X309233Y280649D01*
X308701Y280579D01*
Y284000D01*
D02*
G37*
G36*
X347201Y414035D02*
X348245Y413897D01*
X349218Y413494D01*
X350054Y412853D01*
X350695Y412017D01*
X351098Y411044D01*
X351235Y410000D01*
X351098Y408956D01*
X350695Y407983D01*
X350054Y407147D01*
X349218Y406506D01*
X348245Y406103D01*
X347201Y405966D01*
X346157Y406103D01*
X345183Y406506D01*
X344348Y407147D01*
X343707Y407983D01*
X343304Y408956D01*
X343166Y410000D01*
X343304Y411044D01*
X343707Y412017D01*
X344348Y412853D01*
X345183Y413494D01*
X346157Y413897D01*
X347201Y414035D01*
D02*
G37*
G36*
X304280Y284000D02*
X307701D01*
Y280579D01*
X307169Y280649D01*
X306207Y281047D01*
X305382Y281681D01*
X304748Y282507D01*
X304350Y283468D01*
X304280Y284000D01*
D02*
G37*
G36*
X320232D02*
X323701D01*
Y280531D01*
X323157Y280603D01*
X322183Y281006D01*
X321348Y281647D01*
X320707Y282483D01*
X320304Y283456D01*
X320232Y284000D01*
D02*
G37*
G36*
X337701Y413969D02*
X338245Y413897D01*
X339218Y413494D01*
X340054Y412853D01*
X340695Y412017D01*
X341098Y411044D01*
X341170Y410500D01*
X337701D01*
Y413969D01*
D02*
G37*
G36*
X336701D02*
Y410500D01*
X333232D01*
X333304Y411044D01*
X333707Y412017D01*
X334348Y412853D01*
X335184Y413494D01*
X336157Y413897D01*
X336701Y413969D01*
D02*
G37*
G36*
X337701Y409500D02*
X341170D01*
X341098Y408956D01*
X340695Y407983D01*
X340054Y407147D01*
X339218Y406506D01*
X338245Y406103D01*
X337701Y406031D01*
Y409500D01*
D02*
G37*
G36*
X333232D02*
X336701D01*
Y406031D01*
X336157Y406103D01*
X335184Y406506D01*
X334348Y407147D01*
X333707Y407983D01*
X333304Y408956D01*
X333232Y409500D01*
D02*
G37*
G36*
X244280Y234000D02*
X247701D01*
Y230579D01*
X247169Y230649D01*
X246207Y231047D01*
X245382Y231681D01*
X244748Y232507D01*
X244350Y233468D01*
X244280Y234000D01*
D02*
G37*
G36*
X308701Y228421D02*
X309233Y228351D01*
X310194Y227953D01*
X311020Y227319D01*
X311653Y226493D01*
X312052Y225532D01*
X312122Y225000D01*
X308701D01*
Y228421D01*
D02*
G37*
G36*
Y224000D02*
X312122D01*
X312052Y223468D01*
X311653Y222507D01*
X311020Y221681D01*
X310194Y221047D01*
X309233Y220649D01*
X308701Y220579D01*
Y224000D01*
D02*
G37*
G36*
X304280D02*
X307701D01*
Y220579D01*
X307169Y220649D01*
X306207Y221047D01*
X305382Y221681D01*
X304748Y222507D01*
X304350Y223468D01*
X304280Y224000D01*
D02*
G37*
G36*
X247701Y228421D02*
Y225000D01*
X244280D01*
X244350Y225532D01*
X244748Y226493D01*
X245382Y227319D01*
X246207Y227953D01*
X247169Y228351D01*
X247701Y228421D01*
D02*
G37*
G36*
X248701Y234000D02*
X252122D01*
X252052Y233468D01*
X251654Y232507D01*
X251020Y231681D01*
X250194Y231047D01*
X249233Y230649D01*
X248701Y230579D01*
Y234000D01*
D02*
G37*
G36*
X307701Y228421D02*
Y225000D01*
X304280D01*
X304350Y225532D01*
X304748Y226493D01*
X305382Y227319D01*
X306207Y227953D01*
X307169Y228351D01*
X307701Y228421D01*
D02*
G37*
G36*
X248701D02*
X249233Y228351D01*
X250194Y227953D01*
X251020Y227319D01*
X251654Y226493D01*
X252052Y225532D01*
X252122Y225000D01*
X248701D01*
Y228421D01*
D02*
G37*
G36*
X416701Y265969D02*
Y262500D01*
X413232D01*
X413304Y263044D01*
X413707Y264017D01*
X414348Y264853D01*
X415183Y265494D01*
X416157Y265897D01*
X416701Y265969D01*
D02*
G37*
G36*
X417701D02*
X418245Y265897D01*
X419218Y265494D01*
X420054Y264853D01*
X420695Y264017D01*
X421098Y263044D01*
X421170Y262500D01*
X417701D01*
Y265969D01*
D02*
G37*
G36*
X218701Y267421D02*
Y264000D01*
X215280D01*
X215350Y264532D01*
X215748Y265493D01*
X216382Y266319D01*
X217207Y266953D01*
X218169Y267351D01*
X218701Y267421D01*
D02*
G37*
G36*
X219701D02*
X220233Y267351D01*
X221194Y266953D01*
X222020Y266319D01*
X222654Y265493D01*
X223052Y264532D01*
X223122Y264000D01*
X219701D01*
Y267421D01*
D02*
G37*
G36*
X413232Y261500D02*
X416701D01*
Y258031D01*
X416157Y258103D01*
X415183Y258506D01*
X414348Y259147D01*
X413707Y259983D01*
X413304Y260956D01*
X413232Y261500D01*
D02*
G37*
G36*
X407201Y266035D02*
X408245Y265897D01*
X409218Y265494D01*
X410054Y264853D01*
X410695Y264017D01*
X411098Y263044D01*
X411235Y262000D01*
X411098Y260956D01*
X410695Y259983D01*
X410054Y259147D01*
X409218Y258506D01*
X408245Y258103D01*
X407201Y257965D01*
X406157Y258103D01*
X405184Y258506D01*
X404348Y259147D01*
X403707Y259983D01*
X403304Y260956D01*
X403166Y262000D01*
X403304Y263044D01*
X403707Y264017D01*
X404348Y264853D01*
X405184Y265494D01*
X406157Y265897D01*
X407201Y266035D01*
D02*
G37*
G36*
X335701Y263221D02*
Y259500D01*
X331980D01*
X332060Y260109D01*
X332488Y261143D01*
X333170Y262031D01*
X334057Y262712D01*
X335091Y263141D01*
X335701Y263221D01*
D02*
G37*
G36*
X336701D02*
X337310Y263141D01*
X338344Y262712D01*
X339232Y262031D01*
X339913Y261143D01*
X340341Y260109D01*
X340422Y259500D01*
X336701D01*
Y263221D01*
D02*
G37*
%LPD*%
D10*
X340075Y161500D02*
X308701D01*
X340984Y160591D02*
X340075Y161500D01*
X332484Y126500D02*
X308201D01*
X340984Y135000D02*
X332484Y126500D01*
X308201Y214500D02*
X303201Y219500D01*
X237701D01*
X236701Y218500D01*
X137201D01*
X120701Y202000D01*
X170301Y474400D02*
X148901Y453000D01*
X192001Y474400D02*
X170301D01*
X197201Y469200D02*
X192001Y474400D01*
X271401Y469200D02*
X197201D01*
X276201Y474000D02*
X271401Y469200D01*
X366201Y249000D02*
X340951Y223750D01*
X324087D01*
X310384Y210047D01*
X253748D01*
X248201Y204500D01*
X405701Y301500D02*
X351301D01*
X346001Y296200D01*
X397301Y294500D02*
X394957Y292156D01*
X310545D01*
X308201Y294500D01*
X248201Y254500D02*
X238592Y244891D01*
X232201D01*
X225810Y238500D01*
X138201D01*
X116201Y216500D01*
Y191200D02*
Y216500D01*
X124701Y182700D02*
X116201Y191200D01*
X124701Y168500D02*
Y182700D01*
Y168500D02*
X120201Y164000D01*
X404601Y254200D02*
X317901D01*
X415301Y243500D02*
X404601Y254200D01*
X425301Y243500D02*
X415301D01*
X435801Y233000D02*
X425301Y243500D01*
X452201Y233000D02*
X435801D01*
X453201Y232000D02*
X452201Y233000D01*
X453201Y143000D02*
Y232000D01*
Y143000D02*
X448701Y138500D01*
X308201Y254500D02*
X303748Y258953D01*
X243701D01*
X233248Y248500D01*
X197101D01*
X316401Y406200D02*
X296301D01*
X321101Y401500D02*
X316401Y406200D01*
X405701Y401500D02*
X321101D01*
X388501Y387500D02*
X349201D01*
X339748Y378047D01*
X334754D01*
X323801Y389000D01*
X252701D01*
X248201Y384500D01*
X152901Y449000D02*
X148901Y445000D01*
X249201Y449000D02*
X152901D01*
X250951Y450750D02*
X249201Y449000D01*
X275751Y450750D02*
X250951D01*
X281001Y456000D02*
X275751Y450750D01*
X281001Y456000D02*
Y476000D01*
X278201Y478800D01*
X271001D01*
X266201Y474000D01*
X337201Y382500D02*
X317533Y402168D01*
X293701D01*
X259451Y436418D01*
Y440750D01*
X256201Y444000D01*
X242654Y320047D02*
X219201Y343500D01*
X252654Y320047D02*
X242654D01*
X262106Y329500D02*
X252654Y320047D01*
X286501Y329500D02*
X262106D01*
X287401Y330400D02*
X286501Y329500D01*
X302301Y330400D02*
X287401D01*
X308201Y324500D02*
X302301Y330400D01*
X262701Y334500D02*
X248201D01*
X268248Y340047D02*
X262701Y334500D01*
X332748Y340047D02*
X268248D01*
X334748Y338047D02*
X332748Y340047D01*
X343654Y338047D02*
X334748D01*
X353654Y348047D02*
X343654Y338047D01*
X373654Y348047D02*
X353654D01*
X382654Y357047D02*
X373654Y348047D01*
X435701Y357047D02*
X382654D01*
X460154Y381500D02*
X435701Y357047D01*
X465701Y381500D02*
X460154D01*
X164101Y198400D02*
X159201Y193500D01*
X244301Y198400D02*
X164101D01*
X248201Y194500D02*
X244301Y198400D01*
X300801Y323000D02*
X295401Y328400D01*
X290701D01*
X289401Y327100D01*
X271706D01*
X254654Y310047D01*
X241654D01*
X223701Y328000D01*
X216701D01*
X212701Y332000D01*
Y347000D01*
X219201Y353500D02*
X212701Y347000D01*
X166901Y278500D02*
X154701D01*
X186901Y298500D02*
X166901Y278500D01*
X232701Y298500D02*
X186901D01*
X236701Y294500D02*
X232701Y298500D01*
X248201Y294500D02*
X236701D01*
X159201Y243500D02*
X146748Y255953D01*
Y307547D01*
X157701Y318500D02*
X146748Y307547D01*
X229601Y318500D02*
X157701D01*
X243601Y304500D02*
X229601Y318500D01*
X248201Y304500D02*
X243601D01*
X465701Y331500D02*
X437201D01*
X159201Y323500D02*
X134501Y298800D01*
Y293768D02*
Y298800D01*
Y293768D02*
X120184Y279451D01*
X315401Y234500D02*
X308201D01*
X315701Y234200D02*
X315401Y234500D01*
X338601Y234200D02*
X315701D01*
X346401Y242000D02*
X338601Y234200D01*
X405701Y311500D02*
X356901D01*
X349901Y304500D01*
X308201D01*
X310401Y382300D02*
X308201Y384500D01*
X319201Y382300D02*
X310401D01*
X337201Y362500D02*
X322201D01*
X315748Y368953D01*
X194654D01*
X159201Y333500D01*
X252701Y379000D02*
X248201Y374500D01*
X314345Y379000D02*
X252701D01*
X315201Y378144D02*
X314345Y379000D01*
X324604Y378144D02*
X315201D01*
X334701Y368047D02*
X324604Y378144D01*
X341654Y368047D02*
X334701D01*
X351606Y378000D02*
X341654Y368047D01*
X370274Y378000D02*
X351606D01*
X373774Y381500D02*
X370274Y378000D01*
X405701Y381500D02*
X373774D01*
X418701Y168500D02*
X381401D01*
X273748Y310047D02*
X248201Y284500D01*
X314654Y310047D02*
X273748D01*
X321654Y317047D02*
X314654Y310047D01*
X409701Y317047D02*
X321654D01*
X424154Y331500D02*
X409701Y317047D01*
X248201Y284500D02*
X244701Y288000D01*
X183701D01*
X159201Y263500D01*
X251890Y294500D02*
X248201D01*
X276390Y319000D02*
X251890Y294500D01*
X309654Y319000D02*
X276390D01*
X316701Y326047D02*
X309654Y319000D01*
X410148Y326047D02*
X316701D01*
X425601Y341500D02*
X410148Y326047D01*
X465701Y341500D02*
X425601D01*
X448701Y178500D02*
X444101Y173900D01*
X376926D01*
X373226Y170200D01*
X173301D01*
X448701Y188500D02*
X443701Y183500D01*
X241701D01*
X238201Y187000D01*
X465701Y371500D02*
X453001D01*
X430901Y349400D01*
X430401D01*
X417701Y336700D01*
X382801D01*
X374148Y328047D01*
X332701D01*
X330748Y330000D01*
X305801D01*
X302101Y333700D01*
X264801D01*
X262801Y331700D01*
X252701D01*
X250848Y329847D01*
X242854D01*
X256118Y352417D02*
X248201Y344500D01*
X303748Y352417D02*
X256118D01*
X306118Y350047D02*
X303748Y352417D01*
X332748Y350047D02*
X306118D01*
X334748Y348047D02*
X332748Y350047D01*
X339701Y348047D02*
X334748D01*
X349701Y358047D02*
X339701Y348047D01*
X369701Y358047D02*
X349701D01*
X378701Y367047D02*
X369701Y358047D01*
X409701Y367047D02*
X378701D01*
X434154Y391500D02*
X409701Y367047D01*
X465701Y391500D02*
X434154D01*
X253748Y360047D02*
X248201Y354500D01*
X330801Y360047D02*
X253748D01*
X332801Y358047D02*
X330801Y360047D01*
X340048Y358047D02*
X332801D01*
X350001Y368000D02*
X340048Y358047D01*
X375774Y368000D02*
X350001D01*
X384821Y377047D02*
X375774Y368000D01*
X412148Y377047D02*
X384821D01*
X436601Y401500D02*
X412148Y377047D01*
X465701Y401500D02*
X436601D01*
X410701Y391500D02*
X405701D01*
X412201Y393000D02*
X410701Y391500D01*
X412201Y393000D02*
Y404000D01*
X409901Y406300D01*
X360201D01*
X327251Y439250D01*
X263751D01*
X261201Y441800D01*
Y447200D01*
X259651Y448750D01*
X253051D01*
X251001Y446700D01*
Y398200D02*
Y446700D01*
X465701Y411500D02*
X435701D01*
X430201Y417000D01*
X361801D01*
X322201Y372500D02*
X320201Y374500D01*
X308201D01*
X420701Y307000D02*
X366101D01*
X435201Y321500D02*
X420701Y307000D01*
X465701Y321500D02*
X435201D01*
X317901Y254200D02*
X308201Y244500D01*
X458901Y296500D02*
X416601Y254200D01*
X469701Y296500D02*
X458901D01*
X472201Y299000D02*
X469701Y296500D01*
X472201Y299000D02*
Y310000D01*
X470701Y311500D01*
X465701D01*
X308201Y244500D02*
X303701Y240000D01*
X236701D01*
X308201Y274500D02*
X303748Y278953D01*
X201101D01*
X429701Y274500D02*
X308201D01*
X434001Y278800D02*
X429701Y274500D01*
X434001Y278800D02*
Y296000D01*
X439501Y301500D02*
X434001Y296000D01*
X465701Y301500D02*
X439501D01*
X398201Y280000D02*
X329201D01*
X405701Y287500D02*
X398201Y280000D01*
X405701Y287500D02*
Y291500D01*
X425801D02*
X405701D01*
X450301Y316000D02*
X425801Y291500D01*
X474501Y316000D02*
X450301D01*
X427301Y301500D02*
X405701D01*
X219201Y333500D02*
X214701Y338000D01*
Y346000D01*
X216701Y348000D02*
X214701Y346000D01*
X223701Y348000D02*
X216701D01*
X231701Y340000D02*
X223701Y348000D01*
X262201Y340000D02*
X231701D01*
X268401Y346200D02*
X262201Y340000D01*
X308201Y264500D02*
X303748Y268953D01*
X245202D01*
X235249Y259000D01*
X155701D01*
X148748Y265953D01*
Y290047D01*
X157201Y298500D02*
X148748Y290047D01*
X162601Y298500D02*
X157201D01*
X177601Y313500D02*
X162601Y298500D01*
X219201Y313500D02*
X177601D01*
X308201Y264500D02*
Y268700D01*
X386501D02*
X308201D01*
X418701Y188500D02*
X398201Y209000D01*
X366201D01*
X418701Y238500D02*
X391901Y239000D01*
X366201D01*
X317451Y213750D02*
X308201Y204500D01*
X350951Y213750D02*
X317451D01*
X366201Y229000D02*
X350951Y213750D01*
X366201Y219000D02*
X351451Y204250D01*
X331451D01*
X327248Y200047D01*
X253748D01*
X248201Y194500D01*
X293401Y324400D02*
X277006D01*
X252654Y300047D01*
X243748D01*
X234795Y309000D01*
X184701D01*
X159201Y283500D01*
X248201Y204500D02*
X239201Y213500D01*
X219201D01*
X437201Y331500D02*
X424154D01*
X416601Y254200D02*
X404601D01*
X119101Y398500D02*
X109301D01*
X119101D02*
Y408400D01*
Y318600D02*
Y408400D01*
Y318600D02*
X109301D01*
Y408400D01*
X119101D02*
X109301D01*
D11*
X183601Y493800D02*
X123601D01*
X138601Y496251D02*
Y499250D01*
X140100D01*
X140600Y498750D01*
Y498250D01*
X140100Y497751D01*
X138601D01*
X140100D01*
X140600Y497251D01*
Y496751D01*
X140100Y496251D01*
X138601D01*
X142100Y499250D02*
X143099D01*
X143599Y498750D01*
Y497751D01*
X143099Y497251D01*
X142100D01*
X141600Y497751D01*
Y498750D01*
X142100Y499250D01*
X145099Y497251D02*
X146098D01*
X146598Y497751D01*
Y499250D01*
X145099D01*
X144599Y498750D01*
X145099Y498250D01*
X146598D01*
X147598Y497251D02*
Y499250D01*
Y498250D01*
X148098Y497751D01*
X148598Y497251D01*
X149097D01*
X152596Y496251D02*
Y499250D01*
X151097D01*
X150597Y498750D01*
Y497751D01*
X151097Y497251D01*
X152596D01*
X158594Y496251D02*
X156595D01*
Y499250D01*
X158594D01*
X156595Y497751D02*
X157595D01*
X161593Y496251D02*
Y499250D01*
X160094D01*
X159594Y498750D01*
Y497751D01*
X160094Y497251D01*
X161593D01*
X163593Y500250D02*
X164093D01*
X164592Y499750D01*
Y497251D01*
X163093D01*
X162593Y497751D01*
Y498750D01*
X163093Y499250D01*
X164592D01*
X167092D02*
X166092D01*
X165592Y498750D01*
Y497751D01*
X166092Y497251D01*
X167092D01*
X167591Y497751D01*
Y498250D01*
X165592D01*
D12*
X174701Y170000D02*
G03*
X174701Y156000I0J-7000D01*
G01*
X201701D02*
G03*
X201701Y170000I0J7000D01*
G01*
Y156000D02*
X174701D01*
X201701Y170000D02*
X174701D01*
D13*
Y172000D02*
G03*
X174701Y154000I0J-9000D01*
G01*
X201701D02*
G03*
X201701Y172000I0J9000D01*
G01*
Y154000D02*
X174701D01*
X201701Y172000D02*
X174701D01*
D14*
X211445Y389189D02*
G03*
X211445Y389189I1969J0D01*
G01*
X289075Y449748D02*
G03*
X289075Y449748I1969J0D01*
G01*
X456468Y427957D02*
G03*
X456468Y427957I1969J0D01*
G01*
X358484Y263843D02*
G03*
X358484Y263843I1969J0D01*
G01*
X359681Y397736D02*
G03*
X359681Y397736I1969J0D01*
G01*
X216957Y184268D02*
Y392732D01*
X161445Y184268D02*
Y392732D01*
X216957D02*
X161445D01*
X216957Y184268D02*
X161445D01*
X217815Y446205D02*
Y471795D01*
X294587Y446205D02*
Y471795D01*
X217815D01*
X294587Y446205D02*
X217815D01*
X461980Y281500D02*
Y431500D01*
X409421Y281500D02*
Y431500D01*
X461980D02*
X409421D01*
X461980Y281500D02*
X409421D01*
X363996Y190614D02*
Y267386D01*
X338406Y190614D02*
Y267386D01*
X363996D02*
X338406D01*
X363996Y190614D02*
X338406D01*
X365193Y323720D02*
X339209D01*
X365193Y401280D02*
X339209D01*
Y323720D02*
Y401280D01*
X365193Y323720D02*
Y401280D01*
X280169Y289500D02*
X276232D01*
X278201Y287532D02*
Y291469D01*
X191169Y288500D02*
X187232D01*
X189201Y286532D02*
Y290469D01*
X258169Y459000D02*
X254232D01*
X256201Y457032D02*
Y460969D01*
X216831Y439906D02*
Y478094D01*
X295571Y439906D02*
Y478094D01*
X216831D01*
X295571Y439906D02*
X216831D01*
X437669Y356500D02*
X433732D01*
X435701Y354532D02*
Y358469D01*
X353169Y229000D02*
X349232D01*
X351201Y227032D02*
Y230969D01*
X352201Y360532D02*
Y364469D01*
X354169Y362500D02*
X350232D01*
D15*
X114278Y294679D02*
G03*
X126089Y294679I5906J-10229D01*
G01*
X114295Y255729D02*
G03*
X126106Y255729I5906J-10229D01*
G01*
X114295Y179229D02*
G03*
X126106Y179229I5906J-10229D01*
G01*
X114795Y217229D02*
G03*
X126606Y217229I5906J-10229D01*
G01*
X126089Y294679D02*
X114278D01*
X126106Y255729D02*
X114295D01*
X126106Y179229D02*
X114295D01*
X126606Y217229D02*
X114795D01*
D16*
X370295Y189630D02*
Y268370D01*
X332106Y189630D02*
Y268370D01*
X370295D02*
X332106D01*
X370295Y189630D02*
X332106D01*
X371295Y322736D02*
X333106D01*
X371295Y402264D02*
X333106D01*
Y322736D02*
Y402264D01*
X371295Y322736D02*
Y402264D01*
D17*
X214201Y484500D02*
D03*
X224201D02*
D03*
X418701Y228500D02*
D03*
Y218500D02*
D03*
Y138500D02*
D03*
Y148500D02*
D03*
Y158500D02*
D03*
Y168500D02*
D03*
Y178500D02*
D03*
Y188500D02*
D03*
Y198500D02*
D03*
Y208500D02*
D03*
X448701Y238500D02*
D03*
Y228500D02*
D03*
Y218500D02*
D03*
Y208500D02*
D03*
Y198500D02*
D03*
Y188500D02*
D03*
Y178500D02*
D03*
Y168500D02*
D03*
Y158500D02*
D03*
Y148500D02*
D03*
Y138500D02*
D03*
Y128500D02*
D03*
Y118500D02*
D03*
X418701Y248500D02*
D03*
Y238500D02*
D03*
Y128500D02*
D03*
Y118500D02*
D03*
X305201Y454000D02*
D03*
Y464000D02*
D03*
X402201Y478000D02*
D03*
X392201D02*
D03*
X407701Y441000D02*
D03*
X417701D02*
D03*
X407201Y262000D02*
D03*
X417201D02*
D03*
X347201Y410000D02*
D03*
X337201D02*
D03*
X362701Y284500D02*
D03*
X352701D02*
D03*
X205201Y136000D02*
D03*
Y126000D02*
D03*
X171201Y135500D02*
D03*
Y125500D02*
D03*
X334201Y284500D02*
D03*
X324201D02*
D03*
X176701Y402000D02*
D03*
X166701D02*
D03*
X120184Y279451D02*
D03*
Y289451D02*
D03*
X120201Y240500D02*
D03*
Y250500D02*
D03*
Y164000D02*
D03*
Y174000D02*
D03*
X120701Y202000D02*
D03*
Y212000D02*
D03*
D18*
X448701Y248500D02*
D03*
D19*
X197807Y163000D02*
D03*
X178594D02*
D03*
D20*
X308201Y384500D02*
D03*
X219201Y383500D02*
D03*
X367201Y392500D02*
D03*
D21*
X308201Y374500D02*
D03*
Y364500D02*
D03*
Y354500D02*
D03*
Y344500D02*
D03*
Y334500D02*
D03*
Y324500D02*
D03*
Y314500D02*
D03*
Y304500D02*
D03*
Y294500D02*
D03*
Y284500D02*
D03*
Y274500D02*
D03*
Y264500D02*
D03*
Y254500D02*
D03*
Y244500D02*
D03*
Y234500D02*
D03*
Y224500D02*
D03*
Y214500D02*
D03*
Y204500D02*
D03*
Y194500D02*
D03*
X248201Y384500D02*
D03*
Y374500D02*
D03*
Y364500D02*
D03*
Y354500D02*
D03*
Y344500D02*
D03*
Y334500D02*
D03*
Y324500D02*
D03*
Y314500D02*
D03*
Y304500D02*
D03*
Y294500D02*
D03*
Y284500D02*
D03*
Y274500D02*
D03*
Y264500D02*
D03*
Y254500D02*
D03*
Y244500D02*
D03*
Y234500D02*
D03*
Y224500D02*
D03*
Y214500D02*
D03*
Y204500D02*
D03*
Y194500D02*
D03*
X219201Y373500D02*
D03*
Y363500D02*
D03*
Y353500D02*
D03*
Y343500D02*
D03*
Y333500D02*
D03*
Y323500D02*
D03*
Y313500D02*
D03*
Y303500D02*
D03*
Y293500D02*
D03*
Y283500D02*
D03*
Y273500D02*
D03*
Y263500D02*
D03*
Y253500D02*
D03*
Y243500D02*
D03*
Y233500D02*
D03*
Y223500D02*
D03*
Y213500D02*
D03*
Y203500D02*
D03*
Y193500D02*
D03*
X159201Y383500D02*
D03*
Y373500D02*
D03*
Y363500D02*
D03*
Y353500D02*
D03*
Y343500D02*
D03*
Y333500D02*
D03*
Y323500D02*
D03*
Y313500D02*
D03*
Y303500D02*
D03*
Y293500D02*
D03*
Y283500D02*
D03*
Y273500D02*
D03*
Y263500D02*
D03*
Y253500D02*
D03*
Y243500D02*
D03*
Y233500D02*
D03*
Y223500D02*
D03*
Y213500D02*
D03*
Y203500D02*
D03*
Y193500D02*
D03*
X337201Y332500D02*
D03*
Y342500D02*
D03*
Y352500D02*
D03*
Y362500D02*
D03*
Y372500D02*
D03*
Y382500D02*
D03*
Y392500D02*
D03*
X367201Y332500D02*
D03*
Y342500D02*
D03*
Y352500D02*
D03*
Y362500D02*
D03*
Y372500D02*
D03*
Y382500D02*
D03*
D22*
X380201Y478500D02*
D03*
X320201D02*
D03*
Y448500D02*
D03*
X114201Y323500D02*
D03*
Y333500D02*
D03*
Y343500D02*
D03*
Y353500D02*
D03*
Y363500D02*
D03*
Y373500D02*
D03*
Y383500D02*
D03*
Y393500D02*
D03*
D23*
X380201Y448500D02*
D03*
D24*
X358701Y135000D02*
D03*
X340984D02*
D03*
X358701Y160591D02*
D03*
X340984D02*
D03*
D25*
X226201Y474000D02*
D03*
X236201D02*
D03*
X246201D02*
D03*
X256201D02*
D03*
X266201D02*
D03*
X276201D02*
D03*
X286201D02*
D03*
X226201Y444000D02*
D03*
X236201D02*
D03*
X246201D02*
D03*
X256201D02*
D03*
X266201D02*
D03*
X276201D02*
D03*
X366201Y249000D02*
D03*
Y239000D02*
D03*
Y229000D02*
D03*
Y219000D02*
D03*
Y209000D02*
D03*
Y199000D02*
D03*
X336201Y259000D02*
D03*
Y249000D02*
D03*
Y239000D02*
D03*
Y229000D02*
D03*
Y219000D02*
D03*
Y209000D02*
D03*
Y199000D02*
D03*
D26*
X286201Y444000D02*
D03*
D27*
X465701Y421500D02*
D03*
D28*
Y411500D02*
D03*
Y401500D02*
D03*
Y391500D02*
D03*
Y381500D02*
D03*
Y371500D02*
D03*
Y361500D02*
D03*
Y351500D02*
D03*
Y341500D02*
D03*
Y331500D02*
D03*
Y321500D02*
D03*
Y311500D02*
D03*
Y301500D02*
D03*
Y291500D02*
D03*
X405701Y421500D02*
D03*
Y411500D02*
D03*
Y401500D02*
D03*
Y391500D02*
D03*
Y381500D02*
D03*
Y371500D02*
D03*
Y361500D02*
D03*
Y351500D02*
D03*
Y341500D02*
D03*
Y331500D02*
D03*
Y321500D02*
D03*
Y311500D02*
D03*
Y301500D02*
D03*
Y291500D02*
D03*
D29*
X366201Y259000D02*
D03*
D30*
X114201Y403500D02*
D03*
D31*
X129601Y463500D02*
D03*
X177601D02*
D03*
D32*
X148901Y445000D02*
D03*
Y453000D02*
D03*
X158701D02*
D03*
Y445000D02*
D03*
X346001Y296200D02*
D03*
X397301Y294500D02*
D03*
X197101Y248500D02*
D03*
X296301Y406200D02*
D03*
X388501Y387500D02*
D03*
X300801Y323000D02*
D03*
X154701Y278500D02*
D03*
X437201Y331500D02*
D03*
X346401Y242000D02*
D03*
X319201Y382300D02*
D03*
X381401Y168500D02*
D03*
X173301Y170200D02*
D03*
X238201Y187000D02*
D03*
X242854Y329847D02*
D03*
X251001Y398200D02*
D03*
X361801Y417000D02*
D03*
X322201Y372500D02*
D03*
X366101Y307000D02*
D03*
X236701Y240000D02*
D03*
X201101Y278953D02*
D03*
X329201Y280000D02*
D03*
X474501Y316000D02*
D03*
X427301Y301500D02*
D03*
X268401Y346200D02*
D03*
X386501Y268700D02*
D03*
X293401Y324400D02*
D03*
D33*
X238201Y126500D02*
D03*
X308201D02*
D03*
X308701Y161500D02*
D03*
X238701D02*
D03*
M02*
