G04 Layer_Color=20142*
%FSLAX25Y25*%
%MOIN*%
G70*
G01*
G75*
%ADD10C,0.01000*%
%ADD11C,0.00500*%
%ADD12C,0.00200*%
%ADD13C,0.00600*%
%ADD14C,0.00394*%
%ADD15C,0.00591*%
%ADD16C,0.00197*%
%ADD38C,0.06800*%
%ADD39R,0.06800X0.06800*%
%ADD40C,0.05524*%
%ADD41R,0.06706X0.06706*%
%ADD42C,0.06706*%
%ADD43C,0.07800*%
%ADD44R,0.07800X0.07800*%
%ADD45C,0.08674*%
%ADD46C,0.07300*%
%ADD47R,0.07300X0.07300*%
%ADD48R,0.10642X0.06706*%
%ADD49O,0.10642X0.06706*%
%ADD50R,0.07300X0.07300*%
%ADD51R,0.07800X0.07800*%
%ADD52C,0.12800*%
%ADD53C,0.05800*%
%ADD54C,0.08800*%
D10*
X119101Y398500D02*
X109301D01*
X119101D02*
Y408400D01*
Y318600D02*
Y408400D01*
Y318600D02*
X109301D01*
Y408400D01*
X119101D02*
X109301D01*
D11*
X183601Y493800D02*
X123601D01*
X138601Y496251D02*
Y499250D01*
X140100D01*
X140600Y498750D01*
Y498250D01*
X140100Y497751D01*
X138601D01*
X140100D01*
X140600Y497251D01*
Y496751D01*
X140100Y496251D01*
X138601D01*
X142100Y499250D02*
X143099D01*
X143599Y498750D01*
Y497751D01*
X143099Y497251D01*
X142100D01*
X141600Y497751D01*
Y498750D01*
X142100Y499250D01*
X145099Y497251D02*
X146098D01*
X146598Y497751D01*
Y499250D01*
X145099D01*
X144599Y498750D01*
X145099Y498250D01*
X146598D01*
X147598Y497251D02*
Y499250D01*
Y498250D01*
X148098Y497751D01*
X148598Y497251D01*
X149097D01*
X152596Y496251D02*
Y499250D01*
X151097D01*
X150597Y498750D01*
Y497751D01*
X151097Y497251D01*
X152596D01*
X158594Y496251D02*
X156595D01*
Y499250D01*
X158594D01*
X156595Y497751D02*
X157595D01*
X161593Y496251D02*
Y499250D01*
X160094D01*
X159594Y498750D01*
Y497751D01*
X160094Y497251D01*
X161593D01*
X163593Y500250D02*
X164093D01*
X164592Y499750D01*
Y497251D01*
X163093D01*
X162593Y497751D01*
Y498750D01*
X163093Y499250D01*
X164592D01*
X167092D02*
X166092D01*
X165592Y498750D01*
Y497751D01*
X166092Y497251D01*
X167092D01*
X167591Y497751D01*
Y498250D01*
X165592D01*
D12*
X174701Y170000D02*
G03*
X174701Y156000I0J-7000D01*
G01*
X201701D02*
G03*
X201701Y170000I0J7000D01*
G01*
Y156000D02*
X174701D01*
X201701Y170000D02*
X174701D01*
D13*
Y172000D02*
G03*
X174701Y154000I0J-9000D01*
G01*
X201701D02*
G03*
X201701Y172000I0J9000D01*
G01*
Y154000D02*
X174701D01*
X201701Y172000D02*
X174701D01*
D14*
X211445Y389189D02*
G03*
X211445Y389189I1969J0D01*
G01*
X289075Y449748D02*
G03*
X289075Y449748I1969J0D01*
G01*
X456468Y427957D02*
G03*
X456468Y427957I1969J0D01*
G01*
X358484Y263843D02*
G03*
X358484Y263843I1969J0D01*
G01*
X359681Y397736D02*
G03*
X359681Y397736I1969J0D01*
G01*
X216957Y184268D02*
Y392732D01*
X161445Y184268D02*
Y392732D01*
X216957D02*
X161445D01*
X216957Y184268D02*
X161445D01*
X217815Y446205D02*
Y471795D01*
X294587Y446205D02*
Y471795D01*
X217815D01*
X294587Y446205D02*
X217815D01*
X461980Y281500D02*
Y431500D01*
X409421Y281500D02*
Y431500D01*
X461980D02*
X409421D01*
X461980Y281500D02*
X409421D01*
X363996Y190614D02*
Y267386D01*
X338406Y190614D02*
Y267386D01*
X363996D02*
X338406D01*
X363996Y190614D02*
X338406D01*
X365193Y323720D02*
X339209D01*
X365193Y401280D02*
X339209D01*
Y323720D02*
Y401280D01*
X365193Y323720D02*
Y401280D01*
X280169Y289500D02*
X276232D01*
X278201Y287532D02*
Y291469D01*
X191169Y288500D02*
X187232D01*
X189201Y286532D02*
Y290469D01*
X258169Y459000D02*
X254232D01*
X256201Y457032D02*
Y460969D01*
X216831Y439906D02*
Y478094D01*
X295571Y439906D02*
Y478094D01*
X216831D01*
X295571Y439906D02*
X216831D01*
X437669Y356500D02*
X433732D01*
X435701Y354532D02*
Y358469D01*
X353169Y229000D02*
X349232D01*
X351201Y227032D02*
Y230969D01*
X352201Y360532D02*
Y364469D01*
X354169Y362500D02*
X350232D01*
D15*
X114278Y294679D02*
G03*
X126089Y294679I5906J-10229D01*
G01*
X114295Y255729D02*
G03*
X126106Y255729I5906J-10229D01*
G01*
X114295Y179229D02*
G03*
X126106Y179229I5906J-10229D01*
G01*
X114795Y217229D02*
G03*
X126606Y217229I5906J-10229D01*
G01*
X126089Y294679D02*
X114278D01*
X126106Y255729D02*
X114295D01*
X126106Y179229D02*
X114295D01*
X126606Y217229D02*
X114795D01*
D16*
X370295Y189630D02*
Y268370D01*
X332106Y189630D02*
Y268370D01*
X370295D02*
X332106D01*
X370295Y189630D02*
X332106D01*
X371295Y322736D02*
X333106D01*
X371295Y402264D02*
X333106D01*
Y322736D02*
Y402264D01*
X371295Y322736D02*
Y402264D01*
D38*
X214201Y484500D02*
D03*
X224201D02*
D03*
X418701Y228500D02*
D03*
Y218500D02*
D03*
Y138500D02*
D03*
Y148500D02*
D03*
Y158500D02*
D03*
Y168500D02*
D03*
Y178500D02*
D03*
Y188500D02*
D03*
Y198500D02*
D03*
Y208500D02*
D03*
X448701Y238500D02*
D03*
Y228500D02*
D03*
Y218500D02*
D03*
Y208500D02*
D03*
Y198500D02*
D03*
Y188500D02*
D03*
Y178500D02*
D03*
Y168500D02*
D03*
Y158500D02*
D03*
Y148500D02*
D03*
Y138500D02*
D03*
Y128500D02*
D03*
Y118500D02*
D03*
X418701Y248500D02*
D03*
Y238500D02*
D03*
Y128500D02*
D03*
Y118500D02*
D03*
X305201Y454000D02*
D03*
Y464000D02*
D03*
X402201Y478000D02*
D03*
X392201D02*
D03*
X407701Y441000D02*
D03*
X417701D02*
D03*
X407201Y262000D02*
D03*
X417201D02*
D03*
X347201Y410000D02*
D03*
X337201D02*
D03*
X362701Y284500D02*
D03*
X352701D02*
D03*
X205201Y136000D02*
D03*
Y126000D02*
D03*
X171201Y135500D02*
D03*
Y125500D02*
D03*
X334201Y284500D02*
D03*
X324201D02*
D03*
X176701Y402000D02*
D03*
X166701D02*
D03*
X120184Y279451D02*
D03*
Y289451D02*
D03*
X120201Y240500D02*
D03*
Y250500D02*
D03*
Y164000D02*
D03*
Y174000D02*
D03*
X120701Y202000D02*
D03*
Y212000D02*
D03*
D39*
X448701Y248500D02*
D03*
D40*
X197807Y163000D02*
D03*
X178594D02*
D03*
D41*
X308201Y384500D02*
D03*
X219201Y383500D02*
D03*
X367201Y392500D02*
D03*
D42*
X308201Y374500D02*
D03*
Y364500D02*
D03*
Y354500D02*
D03*
Y344500D02*
D03*
Y334500D02*
D03*
Y324500D02*
D03*
Y314500D02*
D03*
Y304500D02*
D03*
Y294500D02*
D03*
Y284500D02*
D03*
Y274500D02*
D03*
Y264500D02*
D03*
Y254500D02*
D03*
Y244500D02*
D03*
Y234500D02*
D03*
Y224500D02*
D03*
Y214500D02*
D03*
Y204500D02*
D03*
Y194500D02*
D03*
X248201Y384500D02*
D03*
Y374500D02*
D03*
Y364500D02*
D03*
Y354500D02*
D03*
Y344500D02*
D03*
Y334500D02*
D03*
Y324500D02*
D03*
Y314500D02*
D03*
Y304500D02*
D03*
Y294500D02*
D03*
Y284500D02*
D03*
Y274500D02*
D03*
Y264500D02*
D03*
Y254500D02*
D03*
Y244500D02*
D03*
Y234500D02*
D03*
Y224500D02*
D03*
Y214500D02*
D03*
Y204500D02*
D03*
Y194500D02*
D03*
X219201Y373500D02*
D03*
Y363500D02*
D03*
Y353500D02*
D03*
Y343500D02*
D03*
Y333500D02*
D03*
Y323500D02*
D03*
Y313500D02*
D03*
Y303500D02*
D03*
Y293500D02*
D03*
Y283500D02*
D03*
Y273500D02*
D03*
Y263500D02*
D03*
Y253500D02*
D03*
Y243500D02*
D03*
Y233500D02*
D03*
Y223500D02*
D03*
Y213500D02*
D03*
Y203500D02*
D03*
Y193500D02*
D03*
X159201Y383500D02*
D03*
Y373500D02*
D03*
Y363500D02*
D03*
Y353500D02*
D03*
Y343500D02*
D03*
Y333500D02*
D03*
Y323500D02*
D03*
Y313500D02*
D03*
Y303500D02*
D03*
Y293500D02*
D03*
Y283500D02*
D03*
Y273500D02*
D03*
Y263500D02*
D03*
Y253500D02*
D03*
Y243500D02*
D03*
Y233500D02*
D03*
Y223500D02*
D03*
Y213500D02*
D03*
Y203500D02*
D03*
Y193500D02*
D03*
X337201Y332500D02*
D03*
Y342500D02*
D03*
Y352500D02*
D03*
Y362500D02*
D03*
Y372500D02*
D03*
Y382500D02*
D03*
Y392500D02*
D03*
X367201Y332500D02*
D03*
Y342500D02*
D03*
Y352500D02*
D03*
Y362500D02*
D03*
Y372500D02*
D03*
Y382500D02*
D03*
D43*
X380201Y478500D02*
D03*
X320201D02*
D03*
Y448500D02*
D03*
X114201Y323500D02*
D03*
Y333500D02*
D03*
Y343500D02*
D03*
Y353500D02*
D03*
Y363500D02*
D03*
Y373500D02*
D03*
Y383500D02*
D03*
Y393500D02*
D03*
D44*
X380201Y448500D02*
D03*
D45*
X358701Y135000D02*
D03*
X340984D02*
D03*
X358701Y160591D02*
D03*
X340984D02*
D03*
D46*
X226201Y474000D02*
D03*
X236201D02*
D03*
X246201D02*
D03*
X256201D02*
D03*
X266201D02*
D03*
X276201D02*
D03*
X286201D02*
D03*
X226201Y444000D02*
D03*
X236201D02*
D03*
X246201D02*
D03*
X256201D02*
D03*
X266201D02*
D03*
X276201D02*
D03*
X366201Y249000D02*
D03*
Y239000D02*
D03*
Y229000D02*
D03*
Y219000D02*
D03*
Y209000D02*
D03*
Y199000D02*
D03*
X336201Y259000D02*
D03*
Y249000D02*
D03*
Y239000D02*
D03*
Y229000D02*
D03*
Y219000D02*
D03*
Y209000D02*
D03*
Y199000D02*
D03*
D47*
X286201Y444000D02*
D03*
D48*
X465701Y421500D02*
D03*
D49*
Y411500D02*
D03*
Y401500D02*
D03*
Y391500D02*
D03*
Y381500D02*
D03*
Y371500D02*
D03*
Y361500D02*
D03*
Y351500D02*
D03*
Y341500D02*
D03*
Y331500D02*
D03*
Y321500D02*
D03*
Y311500D02*
D03*
Y301500D02*
D03*
Y291500D02*
D03*
X405701Y421500D02*
D03*
Y411500D02*
D03*
Y401500D02*
D03*
Y391500D02*
D03*
Y381500D02*
D03*
Y371500D02*
D03*
Y361500D02*
D03*
Y351500D02*
D03*
Y341500D02*
D03*
Y331500D02*
D03*
Y321500D02*
D03*
Y311500D02*
D03*
Y301500D02*
D03*
Y291500D02*
D03*
D50*
X366201Y259000D02*
D03*
D51*
X114201Y403500D02*
D03*
D52*
X129601Y463500D02*
D03*
X177601D02*
D03*
D53*
X148901Y445000D02*
D03*
Y453000D02*
D03*
X158701D02*
D03*
Y445000D02*
D03*
X346001Y296200D02*
D03*
X397301Y294500D02*
D03*
X197101Y248500D02*
D03*
X296301Y406200D02*
D03*
X388501Y387500D02*
D03*
X300801Y323000D02*
D03*
X154701Y278500D02*
D03*
X437201Y331500D02*
D03*
X346401Y242000D02*
D03*
X319201Y382300D02*
D03*
X381401Y168500D02*
D03*
X173301Y170200D02*
D03*
X238201Y187000D02*
D03*
X242854Y329847D02*
D03*
X251001Y398200D02*
D03*
X361801Y417000D02*
D03*
X322201Y372500D02*
D03*
X366101Y307000D02*
D03*
X236701Y240000D02*
D03*
X201101Y278953D02*
D03*
X329201Y280000D02*
D03*
X474501Y316000D02*
D03*
X427301Y301500D02*
D03*
X268401Y346200D02*
D03*
X386501Y268700D02*
D03*
X293401Y324400D02*
D03*
D54*
X238201Y126500D02*
D03*
X308201D02*
D03*
X308701Y161500D02*
D03*
X238701D02*
D03*
M02*
