M48
;Layer_Color=6321
;FILE_FORMAT=2:5
INCH
;TYPE=PLATED
T1F00S00C0.02362
T2F00S00C0.02800
T3F00S00C0.03000
T4F00S00C0.03500
T5F00S00C0.03543
T6F00S00C0.03937
T7F00S00C0.04000
T8F00S00C0.09500
%
T01
X0395894Y0163000
X0415106
T02
X0355500Y0187000
X0357000Y0240000
X0396600Y0248500
X0392600Y0278953
X0439000Y0278500
X0420400Y0170200
X0212300Y0168500
X0207200Y0268700
X0196400Y0294500
X0166400Y0301500
X0227600Y0307000
X0247700Y0296200
X0264500Y0280000
X0247300Y0242000
X0119200Y0316000
X0156500Y0331500
X0205200Y0387500
X0231900Y0417000
X0297400Y0406200
X0274500Y0382300
X0271500Y0372500
X0292900Y0323000
X0300300Y0324400
X0325300Y0346200
X0350847Y0329847
X0342700Y0398200
T03
X0388500Y0126000
Y0136000
X0422500Y0135500
Y0125500
X0473500Y0164000
Y0174000
X0473000Y0202000
Y0212000
X0473500Y0240500
Y0250500
X0473517Y0279451
Y0289451
X0269500Y0284500
X0259500
X0241000
X0231000
X0186500Y0262000
X0176500
X0176000Y0441000
X0186000
X0246500Y0410000
X0256500
X0288500Y0454000
Y0464000
X0435000Y0453000
Y0445000
X0444800
Y0453000
X0427000Y0402000
X0417000
X0379500Y0484500
X0369500
X0201500Y0478000
X0191500
T04
X0145000Y0118500
Y0128500
Y0138500
Y0148500
X0175000
Y0138500
Y0128500
Y0118500
Y0158500
Y0168500
Y0178500
Y0188500
Y0198500
Y0208500
Y0218500
Y0228500
Y0238500
Y0248500
X0145000
Y0238500
Y0228500
Y0218500
Y0208500
Y0198500
Y0188500
Y0178500
Y0168500
Y0158500
T05
X0285500Y0126500
X0355500
X0355000Y0161500
X0345500Y0194500
Y0204500
Y0214500
Y0224500
Y0234500
Y0244500
Y0254500
Y0264500
Y0274500
Y0284500
Y0294500
Y0304500
X0374500Y0303500
Y0293500
Y0283500
Y0273500
Y0263500
Y0253500
Y0243500
Y0233500
Y0223500
Y0213500
Y0203500
Y0193500
X0434500
Y0203500
Y0213500
Y0223500
Y0233500
Y0243500
Y0253500
Y0263500
Y0273500
Y0283500
Y0293500
Y0303500
X0285500Y0304500
Y0294500
Y0284500
Y0274500
Y0264500
Y0254500
Y0244500
Y0234500
Y0224500
Y0214500
Y0204500
Y0194500
X0257500Y0199000
Y0209000
Y0219000
Y0229000
Y0239000
Y0249000
Y0259000
X0227500
Y0249000
Y0239000
Y0229000
Y0219000
Y0209000
Y0199000
X0285000Y0161500
X0188000Y0291500
Y0301500
Y0311500
X0128000
Y0301500
Y0291500
Y0321500
Y0331500
Y0341500
Y0351500
Y0361500
Y0371500
Y0381500
Y0391500
Y0401500
Y0411500
Y0421500
X0188000
Y0411500
Y0401500
Y0391500
Y0381500
Y0371500
Y0361500
Y0351500
Y0341500
Y0331500
Y0321500
X0226500Y0332500
Y0342500
Y0352500
Y0362500
Y0372500
Y0382500
Y0392500
X0256500
Y0382500
Y0372500
Y0362500
Y0352500
Y0342500
Y0332500
X0285500Y0334500
Y0344500
Y0354500
Y0364500
Y0374500
Y0384500
Y0324500
Y0314500
X0307500Y0444000
X0317500
X0327500
X0337500
X0347500
X0357500
X0367500
X0374500Y0383500
Y0373500
Y0363500
Y0353500
Y0343500
Y0333500
Y0323500
Y0313500
X0345500Y0314500
Y0324500
Y0334500
Y0344500
Y0354500
Y0364500
Y0374500
Y0384500
X0434500Y0383500
Y0373500
Y0363500
Y0353500
Y0343500
Y0333500
Y0323500
Y0313500
X0367500Y0474000
X0357500
X0347500
X0337500
X0327500
X0317500
X0307500
T06
X0235000Y0135000
X0252717
Y0160591
X0235000
T07
X0213500Y0448500
X0273500
X0479500Y0403500
Y0393500
Y0383500
Y0373500
Y0363500
Y0353500
Y0343500
Y0333500
Y0323500
X0273500Y0478500
X0213500
T08
X0416100Y0463500
X0464100
M30
